<svg width="48" height="48" viewBox="0 0 48 48" fill="none" xmlns="http://www.w3.org/2000/svg">
<g clip-path="url(#clip0_1004_3990)">
<path opacity="0.4" d="M48 23.9988C48 37.2555 37.2567 48 23.9995 48C10.7463 48 0 37.256 0 23.9988C0 10.746 10.7463 0 23.9995 0C37.2572 0 48 10.746 48 23.9988Z" fill="#FD7900"/>
<path opacity="0.4" d="M40.9257 14.9547L56.9217 27.1025L38.1006 54.2946L15.4969 40.3621C16.7805 38.6091 17.976 36.9763 19.111 35.4262C19.5562 34.8182 27.0356 36.1755 29.4306 35.4262C31.7695 34.6944 29.4572 31.8676 29.8623 31.3143C33.1732 26.7923 29.5516 24.1373 32.9376 19.5128C33.8404 18.2799 33.6091 16.9592 34.5932 15.6152C35.3737 14.5492 40.076 16.1153 40.9257 14.9547Z" fill="#FD7900"/>
<g clip-path="url(#clip1_1004_3990)">
<path d="M28.4838 36.1497H16.1675C16.0411 36.1497 15.9199 36.0975 15.8305 36.0047C15.7412 35.9119 15.6909 35.786 15.6909 35.6547C15.6909 35.5232 15.7411 35.397 15.8303 35.3037C15.9196 35.2104 16.0409 35.1576 16.1675 35.1568H28.4838C28.8951 35.1568 29.2895 34.9874 29.5805 34.6857C29.8716 34.3839 30.0355 33.9746 30.0362 33.5475V33.5031C30.0355 33.076 29.8716 32.6667 29.5805 32.365C29.2895 32.0632 28.8951 31.8938 28.4838 31.8938H16.1675C16.1481 31.8937 16.1287 31.8923 16.1096 31.8898C16.0756 31.91 16.0383 31.9245 15.9991 31.9323C15.9528 31.9418 15.9052 31.9416 15.8589 31.9317C15.8127 31.9219 15.7688 31.9027 15.7298 31.8751C15.6908 31.8475 15.6574 31.8122 15.6317 31.7712C15.6059 31.7301 15.5882 31.6841 15.5797 31.636L13.2454 18.9899H33.7916L30.1357 31.5456C30.1771 31.5832 30.2174 31.6223 30.2565 31.6629C30.7268 32.1508 30.9914 32.8127 30.9922 33.5031V33.5475C30.9914 34.2379 30.7268 34.8998 30.2565 35.3877C29.7862 35.8756 29.1486 36.1497 28.4838 36.1497Z" fill="white" fill-opacity="0.95"/>
<path d="M33.2923 19.7367C33.2515 19.7371 33.2109 19.7301 33.1725 19.716C33.0828 19.6825 33.0096 19.6134 32.969 19.524C32.9283 19.4345 32.9235 19.332 32.9556 19.2388L34.3681 15.1193H37.7269C37.7742 15.1189 37.8211 15.1283 37.8649 15.1469C37.9087 15.1655 37.9485 15.193 37.982 15.2278C38.0154 15.2625 38.0419 15.3039 38.0598 15.3493C38.0778 15.3948 38.0868 15.4436 38.0864 15.4927C38.0864 15.5416 38.0771 15.59 38.059 15.6352C38.0409 15.6803 38.0144 15.7213 37.9809 15.7557C37.9475 15.7902 37.9079 15.8174 37.8643 15.8358C37.8207 15.8543 37.774 15.8636 37.7269 15.8632H34.8732L33.629 19.4878C33.6051 19.5607 33.5597 19.6239 33.4993 19.6686C33.4389 19.7133 33.3665 19.7371 33.2923 19.7367Z" fill="#6FAF00"/>
<path d="M40.6404 16.1121H37.7268C37.5686 16.1121 37.4169 16.0469 37.3051 15.9307C37.1932 15.8145 37.1304 15.657 37.1304 15.4927C37.13 15.4113 37.1452 15.3305 37.175 15.2552C37.2048 15.1799 37.2488 15.1114 37.3042 15.0538C37.3597 14.9962 37.4256 14.9506 37.4981 14.9196C37.5706 14.8887 37.6484 14.8729 37.7268 14.8733H40.6432C40.8014 14.8733 40.9531 14.9386 41.0649 15.0547C41.1768 15.1709 41.2396 15.3284 41.2396 15.4927C41.2389 15.6573 41.1754 15.8148 41.0631 15.9309C40.9508 16.047 40.7988 16.1121 40.6404 16.1121Z" fill="#6FAF00"/>
<path d="M29.1403 41.2769C30.5035 41.2769 31.6087 40.1291 31.6087 38.7133C31.6087 37.2974 30.5035 36.1497 29.1403 36.1497C27.777 36.1497 26.6719 37.2974 26.6719 38.7133C26.6719 40.1291 27.777 41.2769 29.1403 41.2769Z" fill="white"/>
<path d="M17.2033 41.2769C18.5665 41.2769 19.6717 40.1291 19.6717 38.7133C19.6717 37.2974 18.5665 36.1497 17.2033 36.1497C15.84 36.1497 14.7349 37.2974 14.7349 38.7133C14.7349 40.1291 15.84 41.2769 17.2033 41.2769Z" fill="white"/>
<path d="M31.6245 18.1157C31.9768 13.6368 28.6334 9.6981 24.1567 9.31831C19.6801 8.93852 15.7655 12.2615 15.4133 16.7403C15.061 21.2192 18.4044 25.1579 22.881 25.5377C27.3576 25.9175 31.2722 22.5945 31.6245 18.1157Z" fill="#6FAF00"/>
<path d="M24.485 21.3296V13.5261C24.485 12.9942 24.0538 12.563 23.5219 12.563C22.99 12.563 22.5588 12.9942 22.5588 13.5261V21.3296C22.5588 21.8615 22.99 22.2927 23.5219 22.2927C24.0538 22.2927 24.485 21.8615 24.485 21.3296Z" fill="white"/>
<path d="M27.2031 16.4247H19.8352C19.2828 16.4247 18.835 16.8726 18.835 17.425C18.835 17.9774 19.2828 18.4252 19.8352 18.4252H27.2031C27.7555 18.4252 28.2033 17.9774 28.2033 17.425C28.2033 16.8726 27.7555 16.4247 27.2031 16.4247Z" fill="white"/>
</g>
</g>
<defs>
<clipPath id="clip0_1004_3990">
<rect width="48" height="48" rx="24" fill="white"/>
</clipPath>
<clipPath id="clip1_1004_3990">
<rect width="28" height="36" fill="white" transform="translate(13.2368 6)"/>
</clipPath>
</defs>
</svg>
