<svg width="48" height="48" viewBox="0 0 48 48" fill="none" xmlns="http://www.w3.org/2000/svg">
<g clip-path="url(#clip0_1004_4039)">
<path opacity="0.4" d="M48 23.9997C48 37.2546 37.2546 48 24.0003 48C10.7461 48 0 37.2546 0 23.9997C0 10.7447 10.7461 0 24.0003 0C37.2546 0 48 10.7454 48 23.9997Z" fill="#0094FF"/>
<path opacity="0.4" d="M38.9978 11.1531L58.2891 25.7068L35.0928 56.4356L8.65718 36.4859L38.9978 11.1531Z" fill="#0094FF"/>
<rect x="8.11475" y="10.8067" width="31.7704" height="26.3344" rx="2" fill="white"/>
<circle cx="30.6334" cy="18.2207" r="4.12582" fill="#2EB1C2"/>
<path d="M29.7675 25.8792C30.1524 25.2125 31.1146 25.2125 31.4995 25.8792L35.0583 32.0432C35.4432 32.7098 34.9621 33.5432 34.1923 33.5432H27.0747C26.3049 33.5432 25.8238 32.7098 26.2087 32.0432L29.7675 25.8792Z" fill="#EBEEF2"/>
<rect x="12.5759" y="33.7319" width="19.6371" height="10.0362" rx="2" transform="rotate(-90 12.5759 33.7319)" fill="#EBEEF2"/>
</g>
<defs>
<clipPath id="clip0_1004_4039">
<rect width="48.0001" height="48.0002" rx="24.0001" fill="white"/>
</clipPath>
</defs>
</svg>
