<svg width="48" height="48" viewBox="0 0 48 48" fill="none" xmlns="http://www.w3.org/2000/svg">
<g clip-path="url(#clip0_1004_4040)">
<path opacity="0.4" d="M48 23.9997C48 37.2546 37.2546 48 24.0003 48C10.7461 48 0 37.2546 0 23.9997C0 10.7447 10.7461 0 24.0003 0C37.2546 0 48 10.7454 48 23.9997Z" fill="#9E6EEB"/>
<path opacity="0.4" d="M38.0543 12.8241L58 29L34.5655 53.2798L10.9477 35.4566L38.0543 12.8241Z" fill="#9E6EEB"/>
<path d="M36.4883 12.2466H13.6637C12.0039 12.2466 10.5708 13.3879 10.2279 14.9827L5.07701 28.0861C4.61622 30.2299 6.28163 32.2466 8.51279 32.2466H36.4883C38.4276 32.2466 40 30.7027 40 28.7983V15.6949C40 13.7904 38.4276 12.2466 36.4883 12.2466Z" fill="#FEEDF6"/>
<path d="M36.4704 12.2466H13.5294C11.5802 12.2466 10 13.8688 10 15.8698V33.6234C10 35.6244 11.5802 37.2466 13.5294 37.2466H36.4704C38.4195 37.2466 40 35.6244 40 33.6234V15.8698C40 13.8687 38.4195 12.2466 36.4704 12.2466Z" fill="#F679B3"/>
<path d="M40 32.2466H10V34.1216C10 35.8475 11.5802 37.2466 13.5294 37.2466H36.4704C38.4195 37.2466 40 35.8475 40 34.1216V32.2466Z" fill="#6FAF00"/>
<rect x="19" y="20.2466" width="11" height="2" rx="1" fill="white"/>
<rect x="16" y="26.2466" width="18" height="2" rx="1" fill="white"/>
</g>
<defs>
<clipPath id="clip0_1004_4040">
<rect width="48.0001" height="48.0002" rx="24.0001" fill="white"/>
</clipPath>
</defs>
</svg>
