<svg width="48" height="48" viewBox="0 0 48 48" fill="none" xmlns="http://www.w3.org/2000/svg">
<g clip-path="url(#clip0_1004_3991)">
<path opacity="0.4" d="M48 23.9988C48 37.2555 37.2567 48 23.9995 48C10.7463 48 0 37.256 0 23.9988C0 10.746 10.7463 0 23.9995 0C37.2572 0 48 10.746 48 23.9988Z" fill="#2EB1C2"/>
<path opacity="0.4" d="M38.2719 12.9518L56.7529 26.9754L38.1003 54.2946L12.226 37.8933C13.5057 36.1373 14.6975 34.5017 15.829 32.949C16.2728 32.34 24.592 34.3312 27.1676 33.7183C29.6829 33.1196 26.9316 29.9614 27.3355 29.4071C30.6362 24.8776 26.4591 21.8032 29.8348 17.1708C30.7348 15.9359 30.3823 14.5236 31.3633 13.1774C32.1414 12.1095 37.4248 14.1143 38.2719 12.9518Z" fill="#2EB1C2"/>
<path d="M38.2049 46.6845L12.0488 46.7237L12.0002 12.854L38.155 12.8148L38.2049 46.6845Z" fill="#EBEEF2"/>
<path d="M36.0008 48.8894L9.84536 48.928L9.79614 15.0583L35.9515 15.019L36.0008 48.8894Z" fill="white"/>
<path d="M33.0606 24.1388C33.0606 26.6949 30.9887 28.7675 28.4319 28.7675H17.9998C15.4437 28.7675 13.3711 26.6956 13.3711 24.1388C13.3711 21.5827 15.443 19.5101 17.9998 19.5101H28.4319C30.9887 19.5101 33.0606 21.5827 33.0606 24.1388Z" fill="#EBEEF2"/>
<path d="M30.1535 32.5875H15.8376C14.9624 32.5875 14.2529 33.297 14.2529 34.1722C14.2529 35.0474 14.9624 35.7569 15.8376 35.7569H30.1535C31.0287 35.7569 31.7382 35.0474 31.7382 34.1722C31.7382 33.297 31.0287 32.5875 30.1535 32.5875Z" fill="#EBEEF2"/>
<path d="M30.1535 38.4872H15.8376C14.9624 38.4872 14.2529 39.1967 14.2529 40.0719C14.2529 40.9472 14.9624 41.6566 15.8376 41.6566H30.1535C31.0287 41.6566 31.7382 40.9472 31.7382 40.0719C31.7382 39.1967 31.0287 38.4872 30.1535 38.4872Z" fill="#EBEEF2"/>
</g>
<defs>
<clipPath id="clip0_1004_3991">
<rect width="48" height="48" rx="24" fill="white"/>
</clipPath>
</defs>
</svg>
