<svg width="48" height="48" viewBox="0 0 48 48" fill="none" xmlns="http://www.w3.org/2000/svg">
<g clip-path="url(#clip0_1004_4022)">
<path opacity="0.4" d="M47.9985 23.9988C47.9985 37.2555 37.2552 48 23.998 48C10.7448 48 -0.00146484 37.256 -0.00146484 23.9988C-0.00146484 10.746 10.7448 0 23.998 0C37.2557 0 47.9985 10.746 47.9985 23.9988Z" fill="#D92C2C"/>
<path opacity="0.4" d="M38.2705 12.9518L56.7514 26.9754L38.0988 54.2946L12.2245 37.8933C13.5042 36.1373 14.6961 34.5017 15.8275 32.949C16.2714 32.34 24.5905 34.3312 27.1661 33.7183C29.6815 33.1196 26.9301 29.9614 27.334 29.4071C30.6348 24.8776 26.4577 21.8032 29.8333 17.1708C30.7333 15.9359 30.3808 14.5236 31.3618 13.1774C32.14 12.1095 37.4233 14.1143 38.2705 12.9518Z" fill="#D92C2C"/>
<path d="M38.2031 46.6845L12.0471 46.7237L11.9985 12.854L38.1533 12.8148L38.2031 46.6845Z" fill="#EBEEF2"/>
<path d="M35.999 48.8894L9.84365 48.928L9.79443 15.0583L35.9498 15.019L35.999 48.8894Z" fill="white"/>
<path d="M33.0592 24.1388C33.0592 26.6949 30.9873 28.7675 28.4304 28.7675H17.9984C15.4422 28.7675 13.3696 26.6956 13.3696 24.1388C13.3696 21.5827 15.4415 19.5101 17.9984 19.5101H28.4304C30.9873 19.5101 33.0592 21.5827 33.0592 24.1388Z" fill="#EBEEF2"/>
<path d="M30.152 32.5875H15.8362C14.961 32.5875 14.2515 33.297 14.2515 34.1722C14.2515 35.0474 14.961 35.7569 15.8362 35.7569H30.152C31.0272 35.7569 31.7367 35.0474 31.7367 34.1722C31.7367 33.297 31.0272 32.5875 30.152 32.5875Z" fill="#EBEEF2"/>
<path d="M30.152 38.4872H15.8362C14.961 38.4872 14.2515 39.1967 14.2515 40.0719C14.2515 40.9472 14.961 41.6566 15.8362 41.6566H30.152C31.0272 41.6566 31.7367 40.9472 31.7367 40.0719C31.7367 39.1967 31.0272 38.4872 30.152 38.4872Z" fill="#EBEEF2"/>
<path d="M39.6702 21.2368C43.0863 18.3189 43.5072 13.1696 40.6103 9.73562C37.7135 6.30163 32.5957 5.88328 29.1796 8.80121C25.7635 11.7191 25.3425 16.8684 28.2394 20.3024C31.1363 23.7364 36.254 24.1547 39.6702 21.2368Z" fill="#6FAF00"/>
<path d="M32.3496 18.4611L37.8675 12.9432C38.2436 12.5671 38.2436 11.9573 37.8675 11.5812C37.4914 11.2051 36.8816 11.2051 36.5055 11.5812L30.9877 17.0991C30.6115 17.4752 30.6115 18.085 30.9877 18.4611C31.3638 18.8372 31.9735 18.8372 32.3496 18.4611Z" fill="white"/>
<path d="M37.7399 16.9146L32.53 11.7048C32.1394 11.3141 31.5061 11.3141 31.1155 11.7048C30.7249 12.0954 30.7249 12.7287 31.1155 13.1193L36.3254 18.3292C36.716 18.7198 37.3493 18.7198 37.7399 18.3292C38.1305 17.9386 38.1305 17.3053 37.7399 16.9146Z" fill="white"/>
</g>
<defs>
<clipPath id="clip0_1004_4022">
<rect x="-0.00146484" width="48" height="48" rx="24" fill="white"/>
</clipPath>
</defs>
</svg>
