<svg width="48" height="48" viewBox="0 0 48 48" fill="none" xmlns="http://www.w3.org/2000/svg">
<g clip-path="url(#clip0_1004_4066)">
<path opacity="0.4" d="M47.998 24.0005C47.998 37.2549 37.2544 48.0005 23.9995 48.0005C10.7451 48 0 37.2549 0 24.0005C0 10.7456 10.7451 0 24 0C37.2544 0 47.998 10.7456 47.998 24.0005Z" fill="#0094FF"/>
<path opacity="0.4" d="M32.3552 5.61835L58.6008 25.4339L34.7888 56.9784L13.6791 40.8911L32.3552 5.61835Z" fill="#0094FF"/>
<path d="M19.4573 37.5616H27.4702V41.2251H19.4573V37.5616Z" fill="#EBEEF2"/>
<path d="M30.6286 9.90308H30.6301V16.2661L30.6286 9.90308Z" fill="white"/>
<path d="M15.1211 16.9708C15.816 16.9708 16.3899 16.4544 16.4806 15.7844C16.6218 16.392 17.166 16.845 17.8167 16.845H17.9485C18.5839 16.845 19.1177 16.4133 19.2743 15.8275C19.3149 16.5491 19.9126 17.1215 20.6441 17.1215H20.776C21.446 17.1215 22.0031 16.6413 22.1235 16.0064C22.2439 16.6413 22.8015 17.1215 23.471 17.1215H23.6029C24.2977 17.1215 24.8716 16.6051 24.9623 15.935C25.1035 16.5426 25.6482 16.9956 26.2984 16.9956H26.4303C27.1003 16.9956 27.6574 16.5154 27.7778 15.8805C27.8982 16.5154 28.4558 16.9956 29.1254 16.9956H29.2572C29.895 16.9956 30.4313 16.5605 30.5849 15.9707C30.6389 16.6794 31.2545 17.2375 31.977 17.2375H32.1089C32.2412 17.2375 32.3691 17.2176 32.49 17.183V37.0665V37.2781H14.7237V16.9441C14.8094 16.9609 14.8981 16.9703 14.9888 16.9703H15.1211V16.9708Z" fill="#EBEEF2"/>
<path d="M30.6301 9.90307V9.89911H33.457V16.508C33.457 16.5422 33.455 16.5754 33.4521 16.6086C33.4506 16.6324 33.4476 16.6561 33.4446 16.6799C33.4412 16.7087 33.4377 16.7374 33.4327 16.7652C33.4357 16.7825 33.4412 16.7999 33.4446 16.8167C33.3326 17.3019 32.9644 17.688 32.4901 17.8253V9.90307H30.6301Z" fill="#EBEEF2"/>
<path d="M14.8627 9.90308H30.6287L30.6302 16.2661V9.90308H32.4907V17.8258C32.3698 17.8609 32.2419 17.8803 32.1096 17.8803H31.9778C31.2552 17.8803 30.6397 17.3222 30.5856 16.6135C30.432 17.2033 29.8958 17.6384 29.2579 17.6384H29.1261C28.456 17.6384 27.899 17.1582 27.7785 16.5233C27.6581 17.1582 27.1006 17.6384 26.431 17.6384H26.2992C25.6484 17.6384 25.1043 17.1854 24.963 16.5778C24.8723 17.2479 24.2984 17.7643 23.6036 17.7643H23.4718C22.8017 17.7643 22.2447 17.2841 22.1242 16.6497C22.0038 17.2846 21.4462 17.7643 20.7767 17.7643H20.6449C19.9133 17.7643 19.3157 17.1919 19.275 16.4703C19.1189 17.0561 18.5846 17.4878 17.9493 17.4878H17.8174C17.1667 17.4878 16.6226 17.0348 16.4813 16.4272C16.3906 17.0972 15.8167 17.6136 15.1219 17.6136H14.99C14.8993 17.6136 14.8106 17.6042 14.7249 17.5874V9.90308H14.8627Z" fill="#EBEEF2"/>
<path d="M31.7409 5.28503C33.0964 5.28503 34.2056 6.39419 34.2056 7.74966V39.3066C34.2056 40.6631 33.0964 41.7707 31.7409 41.7697H23.3687V40.8821C23.4466 40.895 23.5263 40.9034 23.6081 40.9034C24.4036 40.9034 25.0483 40.2581 25.0483 39.4632C25.0483 38.6678 24.4041 38.023 23.6081 38.023C23.5263 38.023 23.4466 38.0314 23.3687 38.0443V37.2102H32.4908V9.19335H23.3687V8.20462V7.81805V5.28503H31.7409ZM26.1218 38.8878C25.8041 38.8878 25.5459 39.145 25.5459 39.4627C25.5459 39.7804 25.8036 40.0381 26.1218 40.0381C26.4395 40.0381 26.6977 39.7804 26.6977 39.4627C26.6977 39.145 26.44 38.8878 26.1218 38.8878Z" fill="white"/>
<path d="M15.4754 5.28503H23.3688L23.4065 8.13375L23.3688 8.13474V9.19285H14.725V37.2102H23.3688V38.0443C22.6874 38.1583 22.168 38.749 22.168 39.4632C22.168 40.1769 22.6874 40.7676 23.3688 40.8821V41.7697H15.4754C14.1179 41.7697 13.0108 40.6611 13.0108 39.3046V7.74966C13.0103 6.3927 14.1199 5.28503 15.4754 5.28503ZM18.6998 7.40423C18.6794 7.22631 18.6755 7.12273 18.6755 7.23919C18.676 7.29619 18.6844 7.35169 18.6998 7.40423ZM21.0935 40.0386C21.4117 40.0386 21.6694 39.7809 21.6694 39.4632C21.6694 39.145 21.4117 38.8883 21.0935 38.8883C20.7758 38.8883 20.5181 39.1455 20.5181 39.4632C20.5181 39.7809 20.7758 40.0386 21.0935 40.0386Z" fill="white"/>
<path d="M33.7832 15.6124C33.7862 15.5886 33.7887 15.5653 33.7907 15.541C33.7932 15.5078 33.7956 15.4746 33.7956 15.4404V8.83154H36.623V15.4404C36.623 16.1982 36.0085 16.8127 35.2507 16.8127H35.1189C34.4677 16.8127 33.9235 16.3582 33.7832 15.7496C33.7872 15.7323 33.7922 15.7154 33.7956 15.6976C33.7902 15.6694 33.7872 15.6406 33.7832 15.6124ZM34.0469 9.65077C34.0509 9.63343 34.0558 9.61658 34.0593 9.59923C34.0543 9.57098 34.0509 9.54224 34.0469 9.51399C34.0499 9.4902 34.0524 9.46641 34.0543 9.44262C34.0568 9.40941 34.0593 9.37571 34.0593 9.34201C34.0593 9.37621 34.0573 9.40941 34.0543 9.44262C34.0524 9.46641 34.0499 9.4902 34.0469 9.51399C34.0434 9.54273 34.04 9.57148 34.0345 9.59923C34.038 9.61608 34.0429 9.63343 34.0469 9.65077Z" fill="#2EB1C2"/>
<path d="M33.7956 8.78844L32.0343 7.00824L33.7154 7.01121L36.623 8.78844V8.83156H33.7956V8.78844Z" fill="#2EB1C2"/>
<path d="M33.7957 8.83155H30.9682V8.78843L29.8413 7.00476L32.0343 7.00823L33.7957 8.78843V8.83155Z" fill="#EBEEF2"/>
<path d="M30.9682 8.83154H33.7957V15.4404C33.7957 15.4746 33.7937 15.5078 33.7907 15.541C33.7892 15.5648 33.7862 15.5886 33.7833 15.6124C33.7793 15.6411 33.7763 15.6699 33.7709 15.6976C33.7743 15.715 33.7788 15.7323 33.7833 15.7496C33.6425 16.3582 33.0988 16.8127 32.4476 16.8127H32.3158C31.5937 16.8127 30.9777 16.2547 30.9236 15.546C30.9524 15.4349 30.9682 15.3185 30.9682 15.1985V8.83154Z" fill="white"/>
<path d="M33.7957 15.4404C33.7957 15.4746 33.7932 15.5078 33.7907 15.541C33.7937 15.5078 33.7957 15.4741 33.7957 15.4404Z" fill="white"/>
<path d="M28.1409 8.83154H30.9668L30.9683 15.1985C30.9683 15.3185 30.9529 15.4349 30.9237 15.546C30.77 16.1357 30.2338 16.5709 29.5959 16.5709H29.4641C28.7941 16.5709 28.237 16.0906 28.1166 15.4558C28.1324 15.3725 28.1409 15.2863 28.1409 15.1985V8.83154Z" fill="#2EB1C2"/>
<path d="M30.9668 8.83154H28.1409V8.78842L27.5025 7.00128L29.8373 7.00475L30.9683 8.78842L30.9668 8.79734V8.83154Z" fill="#2EB1C2"/>
<path d="M28.1409 8.83153H25.314V8.78841V6.9978L27.5025 7.00127L28.1409 8.78841V8.83153Z" fill="#EBEEF2"/>
<path d="M25.314 8.83154H28.1414V15.1985C28.1414 15.2868 28.1329 15.3725 28.1171 15.4558C27.9966 16.0906 27.4391 16.5709 26.7695 16.5709H26.6377C25.9875 16.5709 25.4428 16.1179 25.3016 15.5103C25.31 15.4493 25.3144 15.3874 25.3144 15.3244V8.83154H25.314Z" fill="white"/>
<path d="M22.4866 8.83153V8.81766H22.494V8.78842V6.99335L25.3135 6.99781V8.78842H25.314V8.83153H22.4866Z" fill="#2EB1C2"/>
<path d="M22.4866 8.83154H25.314V15.3249C25.314 15.3879 25.3095 15.4498 25.3011 15.5108C25.2104 16.1808 24.6365 16.6972 23.9416 16.6972H23.8098C23.1398 16.6972 22.5827 16.217 22.4623 15.5826C22.4781 15.4994 22.4866 15.4131 22.4866 15.3254V8.83154Z" fill="#2EB1C2"/>
<path d="M22.4865 8.78847V8.81771V8.83158H19.6591V8.78847L20.3608 6.98993L22.4939 6.9934V8.78847H22.4865Z" fill="#EBEEF2"/>
<path d="M19.6592 8.83154H22.4866V15.3249C22.4866 15.4131 22.4777 15.4989 22.4623 15.5821C22.3419 16.217 21.7843 16.6967 21.1147 16.6967H20.9829C20.2514 16.6967 19.6537 16.1243 19.6131 15.4027C19.6433 15.2897 19.6597 15.1708 19.6597 15.0479V8.83154H19.6592Z" fill="white"/>
<path d="M16.8323 8.83154H19.6597V15.0484C19.6597 15.1713 19.6433 15.2902 19.6131 15.4032C19.4565 15.989 18.9227 16.4207 18.2873 16.4207H18.1555C17.5053 16.4207 16.9606 15.9677 16.8194 15.3601C16.8273 15.2991 16.8323 15.2372 16.8323 15.1743V8.83154Z" fill="#2EB1C2"/>
<path d="M19.6591 8.83157H16.8322V8.79242L17.468 7.85127L18.0553 6.98645L20.3608 6.98992L19.6591 8.78846V8.83157Z" fill="#2EB1C2"/>
<path d="M16.8321 8.79241V8.83157H14.0047V8.80034L15.9425 6.98297L18.0522 6.98644L17.4679 7.85127L16.8321 8.78845V8.79241Z" fill="#EBEEF2"/>
<path d="M14.0049 8.83154H16.8323V15.1743C16.8323 15.2372 16.8278 15.2991 16.8194 15.3601C16.7287 16.0302 16.1548 16.5466 15.46 16.5466H15.3281C14.6581 16.5466 14.101 16.0663 13.9806 15.4315C13.9964 15.3482 14.0049 15.262 14.0049 15.1743V8.83154Z" fill="white"/>
<path d="M11.1288 8.83155V8.78844L13.807 6.97949L15.9307 6.98296L14.0048 8.78844V8.80033V8.83155H11.1288Z" fill="#2EB1C2"/>
<path d="M14.0049 8.83154V15.1743C14.0049 15.2625 13.9965 15.3482 13.9806 15.4315C13.8602 16.0663 13.3026 16.5466 12.6331 16.5466H12.5012C11.7435 16.5466 11.1289 15.932 11.1289 15.1743V8.83154H14.0049Z" fill="#2EB1C2"/>
<rect x="26.835" y="23.2577" width="4.25769" height="4" rx="1" transform="rotate(-90 26.835 23.2577)" fill="#6FAF00"/>
<rect x="21.835" y="23.2577" width="4.25769" height="4" rx="1" transform="rotate(-90 21.835 23.2577)" fill="#6FAF00"/>
<rect x="16.835" y="23.2577" width="4.25769" height="4" rx="1" transform="rotate(-90 16.835 23.2577)" fill="#6FAF00"/>
<rect x="26.835" y="29.2577" width="4.25769" height="4" rx="1" transform="rotate(-90 26.835 29.2577)" fill="#6FAF00"/>
<rect x="21.835" y="29.2577" width="4.25769" height="4" rx="1" transform="rotate(-90 21.835 29.2577)" fill="#6FAF00"/>
<rect x="16.835" y="29.2577" width="4.25769" height="4" rx="1" transform="rotate(-90 16.835 29.2577)" fill="#6FAF00"/>
<rect x="26.835" y="35.2577" width="4.25769" height="4" rx="1" transform="rotate(-90 26.835 35.2577)" fill="#6FAF00"/>
<rect x="21.835" y="35.2577" width="4.25769" height="4" rx="1" transform="rotate(-90 21.835 35.2577)" fill="#6FAF00"/>
<rect x="16.835" y="35.2577" width="4.25769" height="4" rx="1" transform="rotate(-90 16.835 35.2577)" fill="#6FAF00"/>
</g>
<defs>
<clipPath id="clip0_1004_4066">
<rect width="47.998" height="48" rx="23.999" fill="white"/>
</clipPath>
</defs>
</svg>
