<svg width="49" height="48" viewBox="0 0 49 48" fill="none" xmlns="http://www.w3.org/2000/svg">
<g clip-path="url(#clip0_1004_4006)">
<path opacity="0.4" d="M48.0308 23.9988C48.0308 37.2555 37.2874 48 24.0303 48C10.7771 48 0.0307617 37.256 0.0307617 23.9988C0.0307617 10.746 10.7771 0 24.0303 0C37.2879 0 48.0308 10.746 48.0308 23.9988Z" fill="#2EB1C2"/>
<path opacity="0.4" d="M38.3027 12.9518L56.7837 26.9754L38.131 54.2946L12.2568 37.8933C13.5364 36.1373 14.7283 34.5017 15.8598 32.949C16.3036 32.34 24.6228 34.3312 27.1984 33.7183C29.7137 33.1196 26.9623 29.9614 27.3662 29.4071C30.667 24.8776 26.4899 21.8032 29.8656 17.1708C30.7655 15.9359 30.413 14.5236 31.3941 13.1774C32.1722 12.1095 37.4555 14.1143 38.3027 12.9518Z" fill="#2EB1C2"/>
<path d="M38.2354 46.6845L12.0793 46.7237L12.0308 12.854L38.1855 12.8148L38.2354 46.6845Z" fill="#EBEEF2"/>
<path d="M36.0313 48.8894L9.87588 48.928L9.82666 15.0583L35.9821 15.019L36.0313 48.8894Z" fill="white"/>
<path d="M33.0914 24.1388C33.0914 26.6949 31.0195 28.7675 28.4627 28.7675H18.0306C15.4744 28.7675 13.4019 26.6956 13.4019 24.1388C13.4019 21.5827 15.4738 19.5101 18.0306 19.5101H28.4627C31.0195 19.5101 33.0914 21.5827 33.0914 24.1388Z" fill="#EBEEF2"/>
<path d="M30.1843 32.5875H15.8684C14.9932 32.5875 14.2837 33.297 14.2837 34.1722C14.2837 35.0474 14.9932 35.7569 15.8684 35.7569H30.1843C31.0595 35.7569 31.769 35.0474 31.769 34.1722C31.769 33.297 31.0595 32.5875 30.1843 32.5875Z" fill="#EBEEF2"/>
<path d="M30.1843 38.4872H15.8684C14.9932 38.4872 14.2837 39.1967 14.2837 40.0719C14.2837 40.9472 14.9932 41.6566 15.8684 41.6566H30.1843C31.0595 41.6566 31.769 40.9472 31.769 40.0719C31.769 39.1967 31.0595 38.4872 30.1843 38.4872Z" fill="#EBEEF2"/>
<path d="M39.6702 21.2368C43.0863 18.3189 43.5072 13.1696 40.6103 9.73562C37.7135 6.30163 32.5957 5.88328 29.1796 8.80121C25.7635 11.7191 25.3425 16.8684 28.2394 20.3024C31.1363 23.7364 36.254 24.1547 39.6702 21.2368Z" fill="#2EB1C2"/>
<path d="M33.5191 18.4587L39.037 12.9408C39.4131 12.5647 39.4131 11.9549 39.037 11.5788C38.6608 11.2027 38.0511 11.2027 37.675 11.5788L32.1571 17.0967C31.781 17.4728 31.781 18.0826 32.1571 18.4587C32.5332 18.8348 33.143 18.8348 33.5191 18.4587Z" fill="white"/>
<path d="M33.5544 17.0185L31.2536 14.7177C30.863 14.3271 30.2297 14.3271 29.8391 14.7177C29.4485 15.1083 29.4485 15.7416 29.8391 16.1322L32.1399 18.433C32.5305 18.8236 33.1638 18.8236 33.5544 18.433C33.9451 18.0424 33.9451 17.4091 33.5544 17.0185Z" fill="white"/>
</g>
<defs>
<clipPath id="clip0_1004_4006">
<rect x="0.0307617" width="48" height="48" rx="24" fill="white"/>
</clipPath>
</defs>
</svg>
