<svg width="48" height="49" viewBox="0 0 48 49" fill="none" xmlns="http://www.w3.org/2000/svg">
<rect y="0.24585" width="48" height="48" rx="8" fill="#FFA800" fill-opacity="0.16"/>
<path d="M4.23403 37.3001H18.8086V20.6912H13.075C11.7565 20.6912 10.5512 21.4361 9.96151 22.6154L7.60179 27.3347L4.5747 29.6366C3.54697 30.2705 2.92129 31.3917 2.92129 32.5992V35.9874C2.92129 36.7123 3.50891 37.3001 4.23392 37.3001H4.23403Z" fill="url(#paint0_linear_1004_4182)"/>
<path d="M17.9629 37.2952H44.5371V16.5926C44.5371 15.1842 43.3954 14.0427 41.987 14.0427H20.5128C19.1043 14.0427 17.9627 15.1844 17.9627 16.5926V37.2952H17.9629Z" fill="url(#paint1_linear_1004_4182)"/>
<path d="M11.701 22.8404L9.40527 27.4315H16.0488V21.9958H13.0673C12.4887 21.9958 11.9596 22.3228 11.701 22.8404Z" fill="#E3F4FF"/>
<path d="M9.95165 41.9832C7.36201 41.9832 5.26268 39.8838 5.26268 37.2942C5.26268 34.7045 7.36201 32.6052 9.95165 32.6052C12.5413 32.6052 14.6406 34.7045 14.6406 37.2942C14.6406 39.8838 12.5413 41.9832 9.95165 41.9832Z" fill="#32373B"/>
<path d="M9.95175 39.1119C8.95106 39.1119 8.13983 38.3007 8.13983 37.3C8.13983 36.2993 8.95106 35.488 9.95175 35.488C10.9524 35.488 11.7637 36.2993 11.7637 37.3C11.7637 38.3007 10.9524 39.1119 9.95175 39.1119Z" fill="#484F54"/>
<path d="M32.0682 11.5739C32.0682 13.3804 36.7211 13.2094 39.4325 13.2094C42.1438 13.2094 41.069 11.745 41.069 9.93857C41.069 8.13215 42.1441 6.66772 39.4325 6.66772C36.7208 6.66772 32.0682 9.76741 32.0682 11.5739Z" fill="url(#paint2_linear_1004_4182)"/>
<path d="M30.4316 11.5739C30.4316 13.3804 25.7787 13.2094 23.0674 13.2094C20.356 13.2094 21.4308 11.745 21.4308 9.93857C21.4308 8.13215 20.3558 6.66772 23.0674 6.66772C25.779 6.66772 30.4316 9.76741 30.4316 11.5739Z" fill="#4F2B4F"/>
<path d="M23.0674 13.2094C23.553 13.2094 24.1014 13.2148 24.6736 13.2135C27.2965 13.2072 30.4316 13.057 30.4316 11.5741C30.4316 10.0911 27.2968 7.73791 24.6736 6.94217C24.1011 6.76837 23.553 6.66772 23.0674 6.66772C20.3561 6.66772 21.4309 8.13215 21.4309 9.93857C21.4309 11.745 20.3559 13.2094 23.0674 13.2094Z" fill="url(#paint3_linear_1004_4182)"/>
<path d="M31.2496 12.3638C30.188 12.3638 29.3274 11.5032 29.3274 10.4415C29.3274 9.37991 30.188 8.51929 31.2496 8.51929C32.3113 8.51929 33.1719 9.37991 33.1719 10.4415C33.1719 11.5032 32.3113 12.3638 31.2496 12.3638Z" fill="url(#paint4_linear_1004_4182)"/>
<path d="M45.0391 16.715H17.4582V13.2327C17.4582 12.1094 18.3688 11.199 19.492 11.199H43.0053C44.1285 11.199 45.039 12.1096 45.039 13.2327V16.715H45.0391Z" fill="url(#paint5_linear_1004_4182)"/>
<path d="M29.4104 11.199H33.0879V37.2989H29.4104V11.199Z" fill="url(#paint6_linear_1004_4182)"/>
<path d="M36.5259 41.9832C33.9362 41.9832 31.8369 39.8838 31.8369 37.2942C31.8369 34.7045 33.9362 32.6052 36.5259 32.6052C39.1155 32.6052 41.2148 34.7045 41.2148 37.2942C41.2148 39.8838 39.1155 41.9832 36.5259 41.9832Z" fill="#32373B"/>
<path d="M36.526 39.1119C35.5253 39.1119 34.7141 38.3007 34.7141 37.3C34.7141 36.2993 35.5253 35.488 36.526 35.488C37.5267 35.488 38.3379 36.2993 38.3379 37.3C38.3379 38.3007 37.5267 39.1119 36.526 39.1119Z" fill="#484F54"/>
<defs>
<linearGradient id="paint0_linear_1004_4182" x1="18.8086" y1="28.9956" x2="2.9214" y2="28.9956" gradientUnits="userSpaceOnUse">
<stop stop-color="#F79F40"/>
<stop offset="1" stop-color="#EF9131"/>
</linearGradient>
<linearGradient id="paint1_linear_1004_4182" x1="44.5371" y1="25.669" x2="17.9627" y2="25.669" gradientUnits="userSpaceOnUse">
<stop stop-color="#FCDA7F"/>
<stop offset="1" stop-color="#EF9131"/>
</linearGradient>
<linearGradient id="paint2_linear_1004_4182" x1="41.2792" y1="9.94077" x2="32.0682" y2="9.94077" gradientUnits="userSpaceOnUse">
<stop stop-color="#BF1959"/>
<stop offset="0.29" stop-color="#CE1A5B"/>
<stop offset="0.67" stop-color="#DC1C5E"/>
<stop offset="1" stop-color="#E11D5F"/>
</linearGradient>
<linearGradient id="paint3_linear_1004_4182" x1="30.4316" y1="9.94066" x2="21.2206" y2="9.94066" gradientUnits="userSpaceOnUse">
<stop stop-color="#BF1959"/>
<stop offset="0.29" stop-color="#CE1A5B"/>
<stop offset="0.67" stop-color="#DC1C5E"/>
<stop offset="1" stop-color="#E11D5F"/>
</linearGradient>
<linearGradient id="paint4_linear_1004_4182" x1="33.1719" y1="10.4415" x2="29.3275" y2="10.4415" gradientUnits="userSpaceOnUse">
<stop stop-color="#F5A435"/>
<stop offset="0.3" stop-color="#F7B145"/>
<stop offset="0.67" stop-color="#F9BC53"/>
<stop offset="1" stop-color="#FAC058"/>
</linearGradient>
<linearGradient id="paint5_linear_1004_4182" x1="45.0391" y1="13.9569" x2="17.4582" y2="13.9569" gradientUnits="userSpaceOnUse">
<stop stop-color="#F79F40"/>
<stop offset="1" stop-color="#EF9131"/>
</linearGradient>
<linearGradient id="paint6_linear_1004_4182" x1="31.2491" y1="11.199" x2="31.2491" y2="37.2989" gradientUnits="userSpaceOnUse">
<stop stop-color="#BF1959"/>
<stop offset="0.29" stop-color="#CE1A5B"/>
<stop offset="0.67" stop-color="#DC1C5E"/>
<stop offset="1" stop-color="#E11D5F"/>
</linearGradient>
</defs>
</svg>
