<svg width="48" height="48" viewBox="0 0 48 48" fill="none" xmlns="http://www.w3.org/2000/svg">
<g clip-path="url(#clip0_1004_4184)">
<path opacity="0.4" d="M47.9985 24.0007C47.9985 37.2545 37.254 48 23.9993 48C10.744 48 0 37.2545 0 24.0007C0 10.744 10.744 0 23.9993 0C37.254 0 47.9985 10.744 47.9985 24.0007Z" fill="#2EB1C2"/>
<path opacity="0.4" d="M39.8296 14.9288L56.2411 27.2695L35.8799 54.2427L5.70632 31.413L39.8296 14.9288Z" fill="#2EB1C2"/>
<path d="M34.9933 32.2582C34.9933 33.1641 35.6599 33.8982 36.4821 33.8982C37.3043 33.8982 37.9709 33.1637 37.9709 32.2582C37.9709 31.3522 37.3043 30.6182 36.4821 30.6182C35.6599 30.6177 34.9933 31.3522 34.9933 32.2582Z" fill="#DD9D0A"/>
<path d="M11.7274 32.157C11.7274 33.0908 12.4054 33.8476 13.2415 33.8476C14.0776 33.8476 14.7556 33.0908 14.7556 32.157C14.7556 31.2233 14.0776 30.466 13.2415 30.466C12.4054 30.4665 11.7274 31.2233 11.7274 32.157Z" fill="#DD9D0A"/>
<path d="M15.1091 18.5558V24.7634L9.9106 24.4101L9.86005 23.7038L11.2736 19.1109L15.1091 18.5558Z" fill="#DD9D0A"/>
<path d="M6.52538 28.4315H9.26416V30.0557H6.52538V28.4315Z" fill="#DD9D0A"/>
<path d="M18.778 14.8561H39.5369C39.979 14.8561 40.3403 15.2154 40.3403 15.6595V27.5126C40.3403 27.9552 39.979 28.3155 39.5369 28.3155H18.7785C18.334 28.3155 17.9746 27.9552 17.9746 27.5126V15.6595C17.9746 15.2159 18.3335 14.8561 18.778 14.8561Z" fill="white"/>
<path d="M13.4339 28.8405C15.2994 28.8405 16.812 30.3531 16.812 32.2186C16.812 34.0846 15.2994 35.5972 13.4339 35.5972C11.5684 35.5972 10.0558 34.0851 10.0558 32.2186C10.0553 30.3531 11.5679 28.8405 13.4339 28.8405ZM12.7519 32.9605C12.9313 33.1256 13.1702 33.2267 13.4334 33.2267C13.6966 33.2267 13.9355 33.1256 14.1154 32.9605C14.3156 32.7761 14.4425 32.512 14.4425 32.2186C14.4425 32.1556 14.436 32.0952 14.4251 32.0357C14.3389 31.5663 13.928 31.21 13.4339 31.21C12.9393 31.21 12.5289 31.5663 12.4427 32.0357C12.4318 32.0952 12.4253 32.1556 12.4253 32.2186C12.4248 32.5125 12.5512 32.7761 12.7519 32.9605Z" fill="white"/>
<path d="M36.3671 28.8405H36.3835C38.0497 28.8444 39.4315 30.0542 39.7041 31.6437C39.7363 31.8305 39.7537 32.0228 39.7537 32.2186C39.7537 34.0846 38.241 35.5967 36.3755 35.5967C34.51 35.5967 32.9974 34.0846 32.9974 32.2186C32.9974 32.0223 33.0153 31.8305 33.0475 31.6437C33.3191 30.0547 34.7008 28.8444 36.3671 28.8405ZM35.6931 32.9605C35.8725 33.1256 36.1114 33.2272 36.3745 33.2272C36.6377 33.2272 36.8771 33.1256 37.0565 32.9605C37.2567 32.7761 37.3831 32.5125 37.3831 32.2186C37.3831 32.1556 37.3767 32.0952 37.3658 32.0357C37.3395 31.892 37.2825 31.7591 37.2022 31.6437C37.0203 31.382 36.7175 31.21 36.3745 31.21C36.0316 31.21 35.7293 31.382 35.5474 31.6437C35.4671 31.7591 35.4101 31.892 35.3838 32.0357C35.3729 32.0952 35.3665 32.1556 35.3665 32.2186C35.3665 32.5125 35.4928 32.7761 35.6931 32.9605Z" fill="white"/>
<path d="M37.5882 28.8405H40.4365V31.6437H39.9156C39.9136 31.6318 39.9122 31.6199 39.9102 31.608C39.6867 30.3015 38.7777 29.2662 37.5882 28.8405Z" fill="white"/>
<path d="M6.43616 29.8897C6.45004 28.3478 6.40741 26.8198 6.46441 25.2774C6.95606 25.0524 7.45267 24.8264 7.94878 24.5955C8.29423 24.4344 8.63968 24.2713 8.98215 24.1033C9.02824 24.0855 9.07037 24.0647 9.1115 24.0429C9.8123 23.6667 9.79 22.7211 10.0576 22.0525C10.3347 20.918 10.7916 19.8157 11.0692 18.6833C11.2451 17.9656 11.3487 17.2361 11.2882 16.4788C13.3044 16.45 15.3072 16.4644 17.3095 16.4788C17.3159 16.4788 17.3229 16.4788 17.3288 16.4788C17.3288 16.4797 17.3288 16.4812 17.3288 16.4822L17.3392 16.4733V18.9549L17.3293 18.9633C17.3363 22.2542 17.363 25.549 17.3303 28.8399H35.1616C33.9721 29.2652 33.0632 30.301 32.8392 31.6075C32.8372 31.6194 32.8357 31.6313 32.8337 31.6431H17.2867C16.7911 30.073 15.561 28.5589 13.7921 28.4603C11.8399 28.1773 10.0294 29.677 9.60514 31.544C8.31752 31.5584 7.03041 31.5584 5.74279 31.5584C5.74279 31.0207 5.72842 30.469 5.72842 29.9313C5.96929 29.9174 6.19529 29.9035 6.43616 29.8897ZM14.6693 23.8347C14.6832 22.3355 14.7115 20.8357 14.655 19.3365C13.6509 19.3365 12.6319 19.3221 11.6278 19.3647C11.2318 20.8501 10.7505 22.3211 10.3545 23.8208C11.7977 23.8486 13.2266 23.8347 14.6693 23.8347ZM6.59872 30.0017C7.47299 30.0319 8.36213 30.0319 9.2359 30.017C9.25127 29.4897 9.25127 28.9772 9.2359 28.4499C8.36213 28.4345 7.48786 28.4345 6.61409 28.4499C6.58385 28.9772 6.58385 29.4897 6.59872 30.0017Z" fill="white"/>
<path d="M20.2474 19.4148C20.2474 24.0007 23.965 27.7183 28.5509 27.7183C33.1369 27.7183 36.8545 24.0007 36.8545 19.4148C36.8545 14.8288 33.1369 11.1112 28.5509 11.1112C23.965 11.1112 20.2474 14.8288 20.2474 19.4148Z" fill="#2EB1C2"/>
<path d="M35.0957 19.4149C35.0957 23.0294 32.1656 25.959 28.5511 25.959V12.8707C32.1656 12.8707 35.0957 15.8008 35.0957 19.4149Z" fill="#E2F9FA"/>
<path d="M28.551 12.8707V25.9595C24.9365 25.9595 22.0064 23.0294 22.0064 19.4153C22.0069 15.8008 24.937 12.8707 28.551 12.8707Z" fill="#E2F9FA"/>
<path d="M27.4958 19.4148C27.4958 19.9976 27.9687 20.4705 28.5515 20.4705C29.1344 20.4705 29.6072 19.9976 29.6072 19.4148C29.6072 18.832 29.1344 18.3591 28.5515 18.3591C27.9682 18.3596 27.4958 18.832 27.4958 19.4148Z" fill="#DD9D0A"/>
<path d="M28.1526 17.8982C28.1526 18.039 28.3261 18.1534 28.5397 18.1534C28.7533 18.1534 28.9268 18.0395 28.9268 17.8982V14.0458C28.9268 13.905 28.7533 13.7905 28.5397 13.7905C28.3261 13.7905 28.1526 13.9045 28.1526 14.0458V17.8982Z" fill="#DD9D0A"/>
<path d="M31.9445 21.8146C32.1611 21.9216 32.4292 21.8205 32.5437 21.5891C32.6582 21.3576 32.5754 21.0831 32.3588 20.976L30.2247 19.9208C30.0076 19.8138 29.7395 19.9149 29.625 20.1463C29.5105 20.3778 29.5933 20.6524 29.8099 20.7594L31.9445 21.8146Z" fill="#DD9D0A"/>
</g>
<defs>
<clipPath id="clip0_1004_4184">
<rect width="47.9985" height="48" rx="23.9993" fill="white"/>
</clipPath>
</defs>
</svg>
