<svg width="49" height="49" viewBox="0 0 49 49" fill="none" xmlns="http://www.w3.org/2000/svg">
<g clip-path="url(#clip0_1004_4118)">
<rect x="0.208496" y="0.520142" width="48" height="48" rx="8" fill="#64E1DC"/>
<g clip-path="url(#clip1_1004_4118)">
<path d="M47.342 19.3956L38.1459 10.1996L36.2841 13.3959L32.8313 9.94312L30.3619 15.7224L35.2028 20.5633L33.7829 21.6453L29.0126 16.875L22.7122 16.2135L20.9759 18.8638L24.2632 22.1511L22.5937 23.7208L26.2546 27.3817L25.6877 27.8137L19.6839 21.8099L14.4104 19.7715L11.6473 23.7987L14.8551 27.0066L13.265 28.6556L18.1595 33.5501L11.0881 38.9384L20.9587 48.8091C21.9547 48.9351 42.6133 53.3354 43.6435 53.3354C56.8983 53.3354 54.2649 40.7006 54.2649 27.4458C54.2649 25.516 47.7721 21.1936 47.342 19.3956Z" fill="#00C1BC"/>
<path d="M27.583 38.9384H20.4167V24.7505H23.9999H27.583V38.9384Z" fill="#B180FF"/>
<path d="M24.0112 24.7505H27.5831V38.9384H24.0112V24.7505Z" fill="#9A4DFF"/>
<path d="M29.7456 20.124H36.9119V38.9384H29.7456V20.124Z" fill="#7584F2"/>
<path d="M33.3289 20.124H36.912V38.9384H33.3289V20.124Z" fill="#4253CE"/>
<path d="M11.0879 29.5312H18.2541V38.9384H11.0879V29.5312Z" fill="#7584F2"/>
<path d="M14.6709 29.5312H18.254V38.9384H14.6709V29.5312Z" fill="#4253CE"/>
<path d="M38.6221 11.7415C38.6221 10.2308 37.3974 9.00616 35.8867 9.00616C34.7181 9.00616 33.7206 9.7391 33.3289 10.7704C32.9371 9.7391 31.9396 9.00616 30.771 9.00616C29.2603 9.00616 28.0356 10.2308 28.0356 11.7415C28.0356 14.9407 33.3289 17.8695 33.3289 17.8695C33.3289 17.8695 38.6221 15.0563 38.6221 11.7415Z" fill="#FF636E"/>
<path d="M38.6221 11.7415C38.6221 10.2308 37.3974 9.00616 35.8867 9.00616C34.7193 9.00616 33.7214 9.7407 33.3289 10.7704V17.8696C33.3833 17.8404 38.6221 15.0391 38.6221 11.7415Z" fill="#F03049"/>
<path d="M19.6838 21.8099L14.6712 16.7972L9.65845 21.81L11.6472 23.7987L13.2649 22.181V28.6556H16.0774V22.181L17.6951 23.7986L19.6838 21.8099Z" fill="white"/>
<path d="M14.6711 28.6556H16.0774V22.181L17.695 23.7986L19.6838 21.8099L14.6711 16.7972V28.6556Z" fill="#E9EDF5"/>
<path d="M29.0127 16.875L24 11.8624L18.9873 16.8751L20.976 18.8638L22.5938 17.2461V23.7208H25.4063V17.246L27.024 18.8638L29.0127 16.875Z" fill="white"/>
<path d="M24 11.8624L24.0112 23.7208H25.4062V17.246L27.024 18.8638L29.0127 16.875L24 11.8624Z" fill="#E9EDF5"/>
</g>
</g>
<defs>
<clipPath id="clip0_1004_4118">
<rect x="0.208496" y="0.520142" width="48" height="48" rx="8" fill="white"/>
</clipPath>
<clipPath id="clip1_1004_4118">
<rect width="48" height="48" fill="white" transform="translate(0 1)"/>
</clipPath>
</defs>
</svg>
