<svg width="49" height="49" viewBox="0 0 49 49" fill="none" xmlns="http://www.w3.org/2000/svg">
<g clip-path="url(#clip0_1004_4146)">
<rect x="0.230713" y="0.520142" width="48" height="48" rx="8" fill="#FF9500"/>
<g clip-path="url(#clip1_1004_4146)">
<g clip-path="url(#clip2_1004_4146)">
<path d="M56.3928 33.3772C56.3928 33.1842 51.2252 26.6875 51.2207 26.4955L35.6033 11.824L35.034 12.3019L32.651 9.91888L29.7689 25.3184L14.3695 9.91888L8.8623 38.1391L19.1996 48.4765C20.8152 48.8195 25.7901 55.4593 27.5079 55.4593C40.7628 55.4593 56.3928 46.632 56.3928 33.3772Z" fill="#FA5D0F"/>
<path d="M8.8623 11.824H22.3463V18.1797H8.8623V11.824Z" fill="#A3D4FF"/>
<path d="M22.2327 11.824H35.6031V18.1797H22.2327V11.824Z" fill="#65B1FC"/>
<path d="M8.8623 18.1797H22.3463V38.1391H8.8623V18.1797Z" fill="white"/>
<path d="M22.2327 18.1797H35.6031V38.1391H22.2327V18.1797Z" fill="#E9EDF5"/>
<path d="M11.8147 9.91888H14.3696V14.4325H11.8147V9.91888Z" fill="#636978"/>
<path d="M30.0962 9.91888H32.6511V14.4325H30.0962V9.91888Z" fill="#414952"/>
<path d="M22.2327 20.2071L20.079 24.571L15.2632 25.2707L18.748 28.6675L17.9253 33.4638L22.2327 31.1993L22.3462 31.259V20.4371L22.2327 20.2071Z" fill="#FFCE00"/>
<path d="M22.2327 20.2071L24.3864 24.571L29.2022 25.2707L25.7174 28.6675L26.5401 33.4638L22.2327 31.1993V20.2071Z" fill="#FDBA12"/>
<path d="M34.9704 15.8232C29.8724 15.8232 25.7397 19.9559 25.7397 25.0537C25.7397 30.1516 29.8724 34.2842 34.9703 34.2842C34.9874 34.2842 35.0045 34.2837 35.0217 34.2836V15.8238C35.0046 15.8237 34.9875 15.8232 34.9704 15.8232Z" fill="#636978"/>
<path d="M44.2011 25.0538C44.2011 30.1517 40.0684 34.2843 34.9705 34.2843L34.9706 15.8232C40.0684 15.8232 44.2011 19.9559 44.2011 25.0538Z" fill="#414952"/>
<path d="M34.9703 18.3626C31.2748 18.3626 28.2791 21.3584 28.2791 25.0537C28.2791 28.7491 31.2747 31.7448 34.9702 31.7448C34.9874 31.7448 35.0044 31.7437 35.0216 31.7435V18.3639C35.0044 18.3637 34.9875 18.3626 34.9703 18.3626Z" fill="white"/>
<path d="M41.6614 25.0537C41.6614 28.7491 38.6657 31.7448 34.9702 31.7448V18.3625C38.6657 18.3626 41.6614 21.3583 41.6614 25.0537Z" fill="#E9EDF5"/>
<path d="M33.5181 19.5753V26.0314L35.0216 26.5901V19.5753H33.5181Z" fill="#555A66"/>
<path d="M37.9038 27.661L34.9705 26.571V19.5753H36.3308V24.0761L38.8834 25.0247L37.9038 27.661Z" fill="#333940"/>
</g>
</g>
</g>
<defs>
<clipPath id="clip0_1004_4146">
<rect x="0.230713" y="0.520142" width="48" height="48" rx="8" fill="white"/>
</clipPath>
<clipPath id="clip1_1004_4146">
<rect width="48" height="48" fill="white" transform="translate(0.230713 1)"/>
</clipPath>
<clipPath id="clip2_1004_4146">
<rect width="48" height="48" fill="white" transform="translate(0.208496 1)"/>
</clipPath>
</defs>
</svg>
