<svg width="25" height="25" viewBox="0 0 25 25" fill="none" xmlns="http://www.w3.org/2000/svg">
<g clip-path="url(#clip0_1004_3948)">
<path d="M23.8941 12.3487C23.8941 11.5587 23.8241 10.8087 23.7041 10.0787H12.4041V14.5887H18.8741C18.5841 16.0687 17.7341 17.3187 16.4741 18.1687V21.1687H20.3341C22.5941 19.0787 23.8941 15.9987 23.8941 12.3487Z" fill="#4285F4"/>
<path d="M12.4041 24.0787C15.6441 24.0787 18.3541 22.9987 20.3341 21.1687L16.4741 18.1687C15.3941 18.8887 14.0241 19.3287 12.4041 19.3287C9.27409 19.3287 6.62409 17.2187 5.67409 14.3687H1.69409V17.4587C3.66409 21.3787 7.71409 24.0787 12.4041 24.0787Z" fill="#34A853"/>
<path d="M5.67405 14.3687C5.42405 13.6487 5.29405 12.8787 5.29405 12.0787C5.29405 11.2787 5.43405 10.5087 5.67405 9.78873V6.69873H1.69405C0.874052 8.31873 0.404053 10.1387 0.404053 12.0787C0.404053 14.0187 0.874052 15.8387 1.69405 17.4587L5.67405 14.3687Z" fill="#FBBC05"/>
<path d="M12.4041 4.82874C14.1741 4.82874 15.7541 5.43874 17.0041 6.62874L20.4241 3.20874C18.3541 1.26874 15.6441 0.0787354 12.4041 0.0787354C7.71409 0.0787354 3.66409 2.77874 1.69409 6.69874L5.67409 9.78874C6.62409 6.93874 9.27409 4.82874 12.4041 4.82874Z" fill="#EA4335"/>
</g>
<defs>
<clipPath id="clip0_1004_3948">
<rect width="24" height="24" fill="white" transform="translate(0.14917 0.0787354)"/>
</clipPath>
</defs>
</svg>
