<svg width="48" height="48" viewBox="0 0 48 48" fill="none" xmlns="http://www.w3.org/2000/svg">
<g clip-path="url(#clip0_1004_4208)">
<path d="M24 47.9999C37.2548 47.9999 47.9999 37.2548 47.9999 24C47.9999 10.7451 37.2548 0 24 0C10.7451 0 0 10.7451 0 24C0 37.2548 10.7451 47.9999 24 47.9999Z" fill="#69C4D2"/>
<path d="M13.814 25.5876V29.8083L14.4617 30.456C14.0871 31.5276 13.874 32.749 13.874 34.0463C13.874 36.6331 14.7178 38.9192 16.0097 40.3106L16.0082 40.3119L16.0416 40.3453C16.0416 40.3453 23.6909 47.9946 23.6918 47.9955C23.7944 47.9968 23.8966 47.9993 23.9995 47.9993C35.5939 47.9993 45.2677 39.7777 47.5094 28.8464L24.0296 5.36646L16.9787 25.5876H13.814Z" fill="#38979E"/>
<path d="M32.1157 28.556L24.0298 5.36646L15.9438 28.556H32.1157Z" fill="#3E3E42"/>
<path d="M24.0359 28.556H32.1157L24.0298 5.36646L24.0359 28.556Z" fill="#2D2E30"/>
<path d="M18.9349 41.7253C21.7303 41.7253 23.9963 38.2874 23.9963 34.0466C23.9963 29.8058 21.7303 26.3679 18.9349 26.3679C16.1396 26.3679 13.8735 29.8058 13.8735 34.0466C13.8735 38.2874 16.1396 41.7253 18.9349 41.7253Z" fill="#DF871E"/>
<path d="M29.1239 41.9064C31.9192 41.9064 34.1853 38.4686 34.1853 34.2277C34.1853 29.9869 31.9192 26.5491 29.1239 26.5491C26.3286 26.5491 24.0625 29.9869 24.0625 34.2277C24.0625 38.4686 26.3286 41.9064 29.1239 41.9064Z" fill="#C27526"/>
<path d="M24.0297 42.6329C26.825 42.6329 29.0911 39.0129 29.0911 34.5475C29.0911 30.0821 26.825 26.4622 24.0297 26.4622C21.2343 26.4622 18.9683 30.0821 18.9683 34.5475C18.9683 39.0129 21.2343 42.6329 24.0297 42.6329Z" fill="#EA971E"/>
<path d="M24.0295 26.4626C24.0185 26.4626 24.0076 26.4632 23.9966 26.4633V42.6322C24.0076 42.6323 24.0185 42.6329 24.0295 42.6329C26.8248 42.6329 29.0909 39.0131 29.0909 34.5477C29.0909 30.0824 26.8249 26.4626 24.0295 26.4626Z" fill="#DF871E"/>
<path d="M24.0298 36.5695C22.4449 36.5695 20.9962 36.2517 19.8863 35.7264C19.8532 35.8901 19.8359 36.0578 19.8359 36.2287C19.8359 38.0157 21.7136 39.4643 24.0298 39.4643C26.346 39.4643 28.2236 38.0157 28.2236 36.2287C28.2236 36.0578 28.2064 35.8901 28.1733 35.7264C27.0633 36.2517 25.6147 36.5695 24.0298 36.5695Z" fill="#5E3C16"/>
<path d="M23.9971 36.5691V39.4637C24.008 39.4638 24.0189 39.4644 24.03 39.4644C26.3462 39.4644 28.2238 38.0158 28.2238 36.2288C28.2238 36.0579 28.2066 35.8902 28.1735 35.7265C27.0636 36.2517 25.6149 36.5696 24.03 36.5696C24.0189 36.5695 24.008 36.5691 23.9971 36.5691Z" fill="#42290D"/>
<path d="M26.4902 35.9293H24.9443V37.5956H26.4902V35.9293Z" fill="#DF871E"/>
<path d="M26.2827 34.0424L28.0578 30.4597L30.2558 33.2057L26.2827 34.0424Z" fill="#42290D"/>
<path d="M21.7636 34.1326L20.2243 30.4424L17.853 33.0403L21.7636 34.1326Z" fill="#42290D"/>
<path d="M23.0258 37.9932H21.6606V39.4646H23.0258V37.9932Z" fill="#EA971E"/>
<path d="M18.0591 22.4894H30.0001L28.9196 19.3905H19.1396L18.0591 22.4894Z" fill="#773D97"/>
<path d="M24.0298 22.4894H30.0004L28.9198 19.3905H24.0298V22.4894Z" fill="#582677"/>
<path d="M26.3721 23.4779H21.6128V18.4355H26.3721V23.4779ZM22.7111 22.3796H25.2738V19.5339H22.7111V22.3796Z" fill="#F6D433"/>
<path d="M26.3721 18.4356H24.0298V19.534H25.2738V22.3796H24.0298V23.4779H26.3721V18.4356Z" fill="#E5BF2B"/>
<path d="M34.1706 25.5879H13.814V29.8086H34.1706V25.5879Z" fill="#2D2E30"/>
<path d="M34.1715 25.5879H24.0361V29.8086H34.1715V25.5879Z" fill="#1D1D1F"/>
</g>
<defs>
<clipPath id="clip0_1004_4208">
<rect width="48" height="48" fill="white"/>
</clipPath>
</defs>
</svg>
