<svg width="49" height="49" viewBox="0 0 49 49" fill="none" xmlns="http://www.w3.org/2000/svg">
<path fill-rule="evenodd" clip-rule="evenodd" d="M2.89697 29.6906C2.89697 36.3995 7.21372 40.9062 13.6394 40.9062H23.2775C22.7706 39.5762 22.4689 38.1449 22.4112 36.6511H13.6778C12.0966 36.6511 10.6974 36.2833 9.55043 35.5932C8.83189 35.1609 8.70487 34.1656 9.23761 33.5172C10.1287 32.4365 11.0084 31.3521 11.8956 30.2581C13.5868 28.1651 14.7262 27.5584 15.9927 28.0911C16.5065 28.311 17.0221 28.6428 17.553 28.9917C18.9673 29.9282 20.9334 31.2137 23.5231 29.8183C23.7663 29.6853 23.9954 29.5394 24.212 29.3829C24.9811 28.0598 25.9695 26.8801 27.1276 25.8936L27.2154 25.7522L27.2334 25.7232C27.2936 25.6267 27.3533 25.5302 27.4128 25.4341C27.7169 24.9427 28.0164 24.4586 28.3558 24.0131C28.7767 23.4614 30.3389 21.7361 32.358 22.9646C32.4271 23.0062 32.4957 23.0485 32.5637 23.0916C33.6103 22.8299 34.7056 22.6909 35.8333 22.6909C37.5934 22.6909 39.2744 23.0294 40.8148 23.6449V14.2059C40.8148 7.49704 36.498 2.9884 30.0723 2.9884H13.6394C7.21372 2.9884 2.89697 7.49704 2.89697 14.2059V29.6906ZM20.4245 15.6435C20.4245 13.0461 18.3106 10.9303 15.7132 10.9303C13.1139 10.9303 11.0019 13.0461 11.0019 15.6435C11.0019 18.2408 13.1139 20.3548 15.7132 20.3548C18.3106 20.3548 20.4245 18.2408 20.4245 15.6435Z" fill="white"/>
<path d="M15.7132 10.9303C18.3106 10.9303 20.4245 13.0461 20.4245 15.6435C20.4245 18.2408 18.3106 20.3548 15.7132 20.3548C13.1139 20.3548 11.0019 18.2408 11.0019 15.6435C11.0019 13.0461 13.1139 10.9303 15.7132 10.9303Z" fill="#FF5F53"/>
<path d="M9.55043 35.5932C10.6974 36.2833 12.0966 36.6511 13.6778 36.6511H22.4112C22.4044 36.476 22.401 36.3 22.401 36.1232C22.401 33.6666 23.0605 31.364 24.212 29.3829C23.9954 29.5394 23.7663 29.6853 23.5231 29.8183C20.9334 31.2137 18.9673 29.9282 17.553 28.9917C17.0221 28.6428 16.5065 28.311 15.9927 28.0911C14.7262 27.5584 13.5868 28.1651 11.8956 30.2581C11.0084 31.3521 10.1287 32.4365 9.23761 33.5172C8.70487 34.1656 8.83189 35.1609 9.55043 35.5932Z" fill="url(#paint0_linear_1004_3949)"/>
<path d="M32.358 22.9646C30.3389 21.7361 28.7767 23.4614 28.3558 24.0131C28.0164 24.4586 27.7169 24.9427 27.4128 25.4341C27.3533 25.5302 27.2936 25.6267 27.2334 25.7232L27.2154 25.7522L27.1276 25.8936C28.6761 24.5745 30.5279 23.6008 32.5637 23.0916C32.4957 23.0485 32.4271 23.0062 32.358 22.9646Z" fill="url(#paint1_linear_1004_3949)"/>
<path fill-rule="evenodd" clip-rule="evenodd" d="M45.2349 35.984C45.2349 41.1896 41.0149 45.4096 35.8093 45.4096C32.4077 45.4096 29.4269 43.6076 27.7695 40.9062C26.9998 39.6517 26.5155 38.2032 26.407 36.6511C26.3916 36.4307 26.3837 36.2083 26.3837 35.984C26.3837 30.7784 30.6037 26.5584 35.8093 26.5584C36.0248 26.5584 36.2386 26.5656 36.4505 26.5799C38.0469 26.6871 39.5343 27.1918 40.8148 27.9958C43.4699 29.6631 45.2349 32.6174 45.2349 35.984ZM34.9904 32.4586C34.9904 32.0238 35.3401 31.6742 35.7748 31.6742C36.1399 31.6742 36.445 31.9208 36.5334 32.2573C36.5502 32.3215 36.5592 32.3889 36.5592 32.4586V35.1236H39.2432C39.3862 35.1236 39.5201 35.1615 39.6353 35.2278C39.8702 35.363 40.0276 35.6164 40.0276 35.9081C40.0276 36.3428 39.6779 36.6925 39.2432 36.7019H36.5592V39.3764C36.5592 39.8112 36.2095 40.1608 35.7748 40.1608C35.4987 40.1608 35.2569 40.0198 35.1172 39.8054C35.0369 39.6823 34.9904 39.535 34.9904 39.3764V36.7019H32.3159C32.0691 36.6965 31.8498 36.5816 31.7062 36.4037C31.5968 36.2681 31.5315 36.096 31.5315 35.9081C31.5315 35.6992 31.6165 35.5017 31.7583 35.3505C31.9095 35.2087 32.1079 35.1236 32.3159 35.1236H34.9904V32.4586Z" fill="url(#paint2_linear_1004_3949)"/>
<path d="M35.7748 31.6742C35.3401 31.6742 34.9904 32.0238 34.9904 32.4586V35.1236H32.3159C32.1079 35.1236 31.9095 35.2087 31.7583 35.3505C31.6165 35.5017 31.5315 35.6992 31.5315 35.9081C31.5315 36.096 31.5968 36.2681 31.7062 36.4037C31.8498 36.5816 32.0691 36.6965 32.3159 36.7019H34.9904V39.3764C34.9904 39.535 35.0369 39.6823 35.1172 39.8054C35.2569 40.0198 35.4987 40.1608 35.7748 40.1608C36.2095 40.1608 36.5592 39.8112 36.5592 39.3764V36.7019H39.2432C39.6779 36.6925 40.0276 36.3428 40.0276 35.9081C40.0276 35.6164 39.8702 35.363 39.6353 35.2278C39.5201 35.1615 39.3862 35.1236 39.2432 35.1236H36.5592V32.4586C36.5592 32.3889 36.5502 32.3215 36.5334 32.2573C36.445 31.9208 36.1399 31.6742 35.7748 31.6742Z" fill="white"/>
<defs>
<linearGradient id="paint0_linear_1004_3949" x1="2.89697" y1="24.199" x2="45.2349" y2="24.199" gradientUnits="userSpaceOnUse">
<stop offset="0.4375" stop-color="#0D99FF"/>
<stop offset="1" stop-color="#0556AF"/>
</linearGradient>
<linearGradient id="paint1_linear_1004_3949" x1="2.89697" y1="24.199" x2="45.2349" y2="24.199" gradientUnits="userSpaceOnUse">
<stop offset="0.4375" stop-color="#0D99FF"/>
<stop offset="1" stop-color="#0556AF"/>
</linearGradient>
<linearGradient id="paint2_linear_1004_3949" x1="2.89697" y1="24.199" x2="45.2349" y2="24.199" gradientUnits="userSpaceOnUse">
<stop offset="0.4375" stop-color="#0D99FF"/>
<stop offset="1" stop-color="#0556AF"/>
</linearGradient>
</defs>
</svg>
