<svg width="25" height="25" viewBox="0 0 25 25" fill="none" xmlns="http://www.w3.org/2000/svg">
<g clip-path="url(#clip0_1004_3950)">
<path d="M19.0404 24.0789H5.86143C2.87343 24.0789 0.450928 21.6564 0.450928 18.6684V5.48936C0.450928 2.50136 2.87343 0.0788574 5.86143 0.0788574H19.0404C22.0284 0.0788574 24.4509 2.50136 24.4509 5.48936V18.6684C24.4509 21.6564 22.0284 24.0789 19.0404 24.0789Z" fill="#06C755"/>
<path d="M20.4505 10.9478C20.4505 7.36735 16.861 4.45435 12.4488 4.45435C8.03727 4.45435 4.44702 7.36735 4.44702 10.9478C4.44702 14.1578 7.29402 16.8458 11.1393 17.3543C11.3995 17.4106 11.7543 17.5261 11.8443 17.7488C11.9253 17.9513 11.8968 18.2678 11.8705 18.4726C11.8705 18.4726 11.7768 19.0373 11.7565 19.1573C11.7213 19.3598 11.596 19.9486 12.4495 19.5886C13.3038 19.2286 17.0575 16.8751 18.736 14.9431C19.8948 13.6718 20.4505 12.3811 20.4505 10.9478Z" fill="white"/>
<path d="M17.788 13.0156H15.5432H15.5402C15.4555 13.0156 15.3872 12.9474 15.3872 12.8626V12.8604V9.37438V9.37138C15.3872 9.28663 15.4555 9.21838 15.5402 9.21838H15.5432H17.788C17.872 9.21838 17.941 9.28738 17.941 9.37138V9.93913C17.941 10.0239 17.8727 10.0921 17.788 10.0921H16.2602V10.6816H17.788C17.872 10.6816 17.941 10.7506 17.941 10.8346V11.4024C17.941 11.4871 17.8727 11.5554 17.788 11.5554H16.2602V12.1449H17.788C17.872 12.1449 17.941 12.2139 17.941 12.2979V12.8656C17.941 12.9474 17.8727 13.0156 17.788 13.0156Z" fill="#06C755"/>
<path d="M9.47279 13.0156C9.55679 13.0156 9.62579 12.9474 9.62579 12.8626V12.2949C9.62579 12.2109 9.55679 12.1419 9.47279 12.1419H7.94504V9.36986C7.94504 9.28586 7.87604 9.21686 7.79204 9.21686H7.22429C7.13954 9.21686 7.07129 9.28511 7.07129 9.36986V12.8596V12.8619C7.07129 12.9466 7.13954 13.0149 7.22429 13.0149H7.22729H9.47279V13.0156Z" fill="#06C755"/>
<path d="M10.8257 9.21759H10.258C10.174 9.21759 10.105 9.28584 10.105 9.37059V12.8626C10.105 12.9466 10.1732 13.0156 10.258 13.0156H10.8257C10.9105 13.0156 10.9787 12.9473 10.9787 12.8626V9.37059C10.9787 9.28659 10.9105 9.21759 10.8257 9.21759Z" fill="#06C755"/>
<path d="M14.6892 9.21759H14.1214C14.0367 9.21759 13.9684 9.28584 13.9684 9.37059V11.4443L12.3709 9.28659C12.3672 9.28134 12.3627 9.27609 12.3589 9.27084L12.3582 9.27009C12.3552 9.26709 12.3522 9.26334 12.3492 9.26034C12.3484 9.25959 12.3469 9.25884 12.3462 9.25809C12.3432 9.25584 12.3409 9.25359 12.3379 9.25134C12.3364 9.25059 12.3349 9.24909 12.3334 9.24834C12.3312 9.24609 12.3282 9.24459 12.3252 9.24309C12.3237 9.24234 12.3222 9.24084 12.3207 9.24009C12.3177 9.23859 12.3154 9.23709 12.3124 9.23559C12.3109 9.23484 12.3094 9.23409 12.3079 9.23334C12.3049 9.23184 12.3019 9.23034 12.2989 9.22959C12.2974 9.22884 12.2959 9.22809 12.2937 9.22809C12.2907 9.22734 12.2877 9.22584 12.2847 9.22509C12.2832 9.22434 12.2809 9.22434 12.2794 9.22359C12.2764 9.22284 12.2734 9.22209 12.2704 9.22134C12.2682 9.22059 12.2659 9.22059 12.2637 9.22059C12.2607 9.21984 12.2584 9.21984 12.2554 9.21984C12.2524 9.21984 12.2502 9.21984 12.2472 9.21909C12.2457 9.21909 12.2434 9.21909 12.2419 9.21909H11.6779C11.5939 9.21909 11.5249 9.28734 11.5249 9.37209V12.8641C11.5249 12.9481 11.5932 13.0171 11.6779 13.0171H12.2457C12.3304 13.0171 12.3987 12.9488 12.3987 12.8641V10.7903L13.9984 12.9511C14.0097 12.9668 14.0232 12.9796 14.0382 12.9893C14.0389 12.9901 14.0397 12.9901 14.0397 12.9908C14.0427 12.9931 14.0457 12.9946 14.0494 12.9968C14.0509 12.9976 14.0524 12.9983 14.0539 12.9991C14.0562 13.0006 14.0592 13.0013 14.0614 13.0028C14.0637 13.0043 14.0667 13.0051 14.0689 13.0058C14.0704 13.0066 14.0719 13.0073 14.0734 13.0073C14.0772 13.0088 14.0802 13.0096 14.0839 13.0103C14.0847 13.0103 14.0854 13.0111 14.0862 13.0111C14.0989 13.0141 14.1124 13.0163 14.1259 13.0163H14.6899C14.7739 13.0163 14.8429 12.9481 14.8429 12.8633V9.37134C14.8422 9.28659 14.7739 9.21759 14.6892 9.21759Z" fill="#06C755"/>
</g>
<defs>
<clipPath id="clip0_1004_3950">
<rect width="24" height="24" fill="white" transform="translate(0.450928 0.0788574)"/>
</clipPath>
</defs>
</svg>
