<svg width="49" height="48" viewBox="0 0 49 48" fill="none" xmlns="http://www.w3.org/2000/svg">
<g clip-path="url(#clip0_1004_4038)">
<path opacity="0.4" d="M48.2781 23.9997C48.2781 37.2546 37.5326 48 24.2784 48C11.0242 48 0.278076 37.2546 0.278076 23.9997C0.278076 10.7447 11.0242 0 24.2784 0C37.5326 0 48.2781 10.7454 48.2781 23.9997Z" fill="#DD9D0A"/>
<path opacity="0.4" d="M28.5415 10.5153L55.7661 29.5066L41.2087 47.8374L13.6872 28.5987L28.5415 10.5153Z" fill="#DD9D0A"/>
<rect x="16" y="33" width="15" height="16" fill="#DD9D0A"/>
<path d="M24.5977 9.002C25.0812 9.10203 25.5722 9.17905 26.0472 9.30809C27.1184 9.59718 28.129 10.0083 28.9856 10.7085C29.0493 10.9086 28.8867 11.0356 28.7953 11.1737C27.8264 12.647 26.5985 13.9547 25.1641 15.0408C23.0937 16.5999 20.6351 17.6362 18.0207 18.0518L17.8645 18.0788C17.3906 18.1588 17.381 18.1658 17.381 18.6369C17.381 20.1594 17.381 21.6819 17.381 23.2043C17.3845 23.7023 17.4817 24.1957 17.6679 24.6618C18.1143 25.8131 18.9347 26.6624 20.0452 27.2826C20.1908 27.3646 20.364 27.4216 20.4384 27.5827C20.5446 28.0288 20.3661 28.4319 20.2258 28.841C19.7051 30.0414 18.6073 30.5636 17.4139 30.9737C17.3783 30.991 17.3388 31 17.2987 31C17.2585 31 17.219 30.991 17.1833 30.9737C16.3768 30.9557 15.5659 30.9807 14.7912 30.7026C14.1462 30.4749 13.5687 30.1047 13.1073 29.6231C12.6459 29.1416 12.3141 28.5627 12.1398 27.9353C11.9656 27.3079 11.954 26.6503 12.106 26.0178C12.258 25.3853 12.5692 24.7964 13.0134 24.3007C14.1415 23.0531 14.7463 21.4603 14.7137 19.8223C14.7073 18.886 14.6913 17.9487 14.7211 17.0124C14.7838 15.0118 15.5659 13.2793 16.9697 11.7939C18.3512 10.3364 20.0824 9.46614 22.11 9.09303C22.2736 9.06302 22.4617 9.13804 22.6009 9L24.5977 9.002Z" fill="#C49090"/>
<path d="M19.9957 46.8883C20.2109 48.8185 12.2213 47.9521 13.6068 46.4347C13.7144 46.322 13.6337 46.7338 13.5143 46.8614C13.467 47.0608 13.2992 47.0079 13.1572 47.0079C11.5726 47.0079 9.98799 46.999 8.40448 47.0169C8.06024 47.0169 8.01399 46.8963 8.01506 46.6251C8.02367 44.0867 8.02044 41.5473 8.01506 39.009C8.01506 38.8594 8.00538 38.7099 8 38.5623C8.06777 36.4167 9.17149 34.8823 11.2466 33.9761C12.8205 33.2911 14.433 32.68 16.0283 32.0409C16.091 32.0215 16.1555 32.0078 16.2209 32C16.268 32.0358 16.3048 32.0818 16.3279 32.134C16.351 32.1863 16.3597 32.243 16.3532 32.2991C16.3532 32.9063 16.4006 33.5145 16.3263 34.1216" fill="white"/>
<path d="M16.0076 33.9027C16.0076 33.1192 16.005 32.3363 16 31.5542C16.095 31.3956 16.3023 31.424 16.4157 31.2971C16.7741 31.1417 17.1293 30.9786 17.4953 30.8331C18.3752 30.4785 18.9765 29.8262 19.4181 29C19.6405 29.0449 19.7852 29.2189 19.9579 29.3469C20.888 30.0601 22.0241 30.4425 23.1903 30.4347C24.1026 30.4347 25.0171 30.5015 25.9283 30.3712C26.3401 30.3118 26.7433 30.2015 27.1288 30.0429C27.1741 30.0303 27.2218 30.0294 27.2676 30.04C27.3134 30.0507 27.3558 30.0728 27.3912 30.1042C27.9526 30.5551 28.6133 30.8079 29.2643 31.0826C29.3723 31.1285 29.4943 31.1636 29.5342 31.3014C29.6273 31.3958 29.7468 31.4589 29.8765 31.482C30.0686 32.2251 29.9974 32.9736 29.924 33.7222C29.816 33.9323 29.6098 33.964 29.4187 34.0187C27.6207 34.5367 25.7722 34.8534 23.9061 34.9632C21.478 35.1109 19.1093 34.8034 16.759 34.2343C16.5346 34.19 16.3169 34.1164 16.1112 34.0155C16.0666 33.9889 16.0306 33.9497 16.0076 33.9027Z" fill="#FECDBE"/>
<path d="M30.2862 33.1863L30.3164 31C31.8579 31.6921 33.4125 32.3538 34.9378 33.0836C36.8999 34.0273 37.9393 35.6652 37.9745 37.9072C38.0228 40.8884 37.9876 43.8716 37.9876 46.8539H33.3903C33.2756 46.7207 34.2838 47.5669 34.2959 47.4107C31.4192 47.2482 28.8504 48.9259 27 47.2482" fill="white"/>
<path d="M29.5895 31C28.7329 30.6878 27.8411 30.4343 27.1293 29.8775C27.059 29.8663 26.9923 29.842 26.9337 29.8061C26.8752 29.7703 26.8261 29.7237 26.7898 29.6697C26.2953 29.0732 25.9026 28.4388 26.0214 27.6573C26.0972 27.4406 26.3281 27.3859 26.5182 27.2825C28.1614 26.3877 29.0961 25.1011 29.2885 23.405C29.2987 23.3185 29.2625 23.233 29.267 23.1445C29.2783 22.3729 29.3236 21.6024 29.2478 20.8318C29.3032 20.1359 29.2704 19.4399 29.2806 18.738C29.2806 18.555 29.2579 18.3681 29.3643 18.1981C29.5567 18.0271 29.8102 18.0509 30.0354 18.0808C30.6544 18.1613 31.2587 18.0808 31.8676 18.0151C31.9762 17.9905 32.0909 17.996 32.1957 18.0311C32.1957 18.7748 32.2037 19.5224 32.2025 20.2621C32.187 21.7122 32.7544 23.1206 33.805 24.2391C34.536 25.0345 35.0011 25.9114 35 26.9494C34.9909 28.0011 34.5187 29.0088 33.6824 29.7612C32.846 30.5136 31.7105 30.9522 30.5141 30.9851C30.2097 30.993 29.8996 30.993 29.5895 31Z" fill="#C49090"/>
<path d="M31.9843 17.8142C31.4224 17.9892 30.8259 18.0415 30.2396 17.9671C30.0042 17.9481 29.7678 17.9437 29.5319 17.9539C28.9689 17.9955 28.4599 17.8029 27.9558 17.6103C26.7581 17.1552 25.7919 16.4368 25.1291 15.3757C25.0553 15.2577 24.9475 15.1435 25.0293 14.9877C26.3852 13.9547 27.5412 12.7071 28.4459 11.3002C28.5108 11.2001 28.5747 11.1001 28.6386 11C29.9222 11.8591 30.8025 13.0165 31.3904 14.3778C31.8577 15.4668 32.0607 16.6411 31.9843 17.8142Z" fill="#B88080"/>
<path d="M29.955 23.1434C29.9116 23.6536 29.7959 24.1565 29.6105 24.6397C29.1443 25.7973 28.2209 26.7556 27.0202 27.3278C26.9183 27.3614 26.8297 27.422 26.766 27.5017C26.2417 27.8141 25.6282 27.9798 25.0014 27.9781C23.9865 28.0038 22.9684 28.0107 21.9536 27.9781C21.3332 27.9563 20.7084 27.8792 20.1901 27.5066C19.7946 27.2527 19.3611 27.056 18.984 26.7684C17.6954 25.7851 17.013 24.5458 17.0065 23.0129C17 21.4801 17.0065 19.9552 17 18.4273C17 18.1921 17.063 18.0637 17.3423 18.032C20.2195 17.6664 22.7816 16.6336 25.0568 15C25.7087 16.2976 26.8518 17.1119 28.2632 17.6604C28.8065 17.8729 29.3954 17.948 29.9572 18.1052C29.9572 18.7802 29.9572 19.4542 29.9572 20.1292C29.9593 21.0957 30.0539 22.1373 29.955 23.1434Z" fill="#FECDBE"/>
<path d="M20.2228 28.0088C20.2228 27.9956 20.6724 28.1582 20.7025 28.1692C21.3447 28.4048 22.0122 28.4634 22.6827 28.4767C23.5448 28.4933 24.4691 28.5021 25.3098 28.2555C25.3867 28.2334 26.1097 28.0498 26.1116 28C26.0776 28.9822 26.4541 29.7696 27 30.4886C26.8443 30.7452 26.5816 30.7463 26.3578 30.8204C25.5395 31.0725 24.7036 30.9719 23.8668 30.9962C23.1351 31.0172 22.4141 30.9564 21.7262 30.6644C21.0791 30.3868 20.4612 30.034 20 29.4257C20.0847 28.9534 20.2559 28.5021 20.2228 28.0088Z" fill="#FEAF9D"/>
<mask id="mask0_1004_4038" style="mask-type:luminance" maskUnits="userSpaceOnUse" x="24" y="18" width="15" height="14">
<path d="M38.7114 18.1843H24.7087V31.4943H38.7114V18.1843Z" fill="white"/>
</mask>
<g mask="url(#mask0_1004_4038)">
<path d="M36.8032 19.1969C39.7323 22.1254 39.7323 26.8744 36.8032 29.8036C33.8748 32.7321 29.1252 32.7321 26.1968 29.8036C23.2677 26.8744 23.2677 22.1247 26.1968 19.1969C29.1252 16.2677 33.8748 16.2677 36.8032 19.1969Z" fill="#EBEEF2"/>
</g>
<path d="M46.4602 36.5227C47.1799 37.0626 47.1799 37.9374 46.4602 38.4773L46.3038 38.5951C45.584 39.135 44.4169 39.135 43.6971 38.5951L43.5393 38.4773C42.8202 37.9374 42.8202 37.0626 43.5393 36.5227L43.6971 36.4049C44.4169 35.865 45.584 35.865 46.3038 36.4049L46.4602 36.5227Z" fill="#6FAF00"/>
<path d="M25.4896 18.4896C22.1701 21.8091 22.1701 27.1909 25.4896 30.5104C28.8091 33.8299 34.1916 33.8299 37.5104 30.5104C40.8299 27.1909 40.8299 21.8091 37.5104 18.4896C34.1909 15.1701 28.8084 15.1701 25.4896 18.4896ZM35.9857 28.987C33.5075 31.4652 29.4905 31.4652 27.0136 28.987C24.5355 26.5095 24.5355 22.4918 27.0136 20.0143C29.4912 17.5361 33.5082 17.5361 35.9857 20.0143C38.4639 22.4918 38.4639 26.5088 35.9857 28.987Z" fill="#6FAF00"/>
<path d="M39.1793 29.1275L36.1169 32.0383L43.2624 38.8304L46.3248 35.9195L39.1793 29.1275Z" fill="#6FAF00"/>
<path d="M39.2975 28.8044C40.2342 29.7412 40.2342 31.2588 39.2975 32.1949L39.1952 32.2979C38.2592 33.234 36.7411 33.234 35.8051 32.2979L35.7015 32.1949C34.7662 31.2588 34.7662 29.7405 35.7015 28.8044L35.8051 28.7021C36.7411 27.766 38.2592 27.766 39.1952 28.7021L39.2975 28.8044Z" fill="#6FAF00"/>
</g>
<defs>
<clipPath id="clip0_1004_4038">
<rect x="0.278076" width="48" height="48.0002" rx="24" fill="white"/>
</clipPath>
</defs>
</svg>
