<svg width="81" height="25" viewBox="0 0 81 25" fill="none" xmlns="http://www.w3.org/2000/svg">
<mask id="mask0_1004_4068" style="mask-type:luminance" maskUnits="userSpaceOnUse" x="0" y="0" width="24" height="25">
<path d="M12 24.0983C18.6274 24.0983 24 18.7257 24 12.0983C24 5.47085 18.6274 0.0982666 12 0.0982666C5.37258 0.0982666 0 5.47085 0 12.0983C0 18.7257 5.37258 24.0983 12 24.0983Z" fill="white"/>
</mask>
<g mask="url(#mask0_1004_4068)">
<path d="M12.0331 24.0376C18.6408 24.0376 23.9975 18.6809 23.9975 12.0732C23.9975 5.46537 18.6408 0.108704 12.0331 0.108704C5.42527 0.108704 0.0686035 5.46537 0.0686035 12.0732C0.0686035 18.6809 5.42527 24.0376 12.0331 24.0376Z" fill="url(#paint0_linear_1004_4068)"/>
<path d="M18.9246 14.2306C18.607 11.3342 16.9368 9.42267 16.8424 9.32011C16.9292 9.344 14.7956 7.51349 14.8405 7.66326C14.1278 6.90565 12.2565 6.84737 12.0076 6.84271H11.9668C11.718 6.84737 9.84668 6.9074 9.13452 7.66326C9.1794 7.51524 7.04584 9.344 7.1321 9.32011C7.04293 9.42267 5.3721 11.3342 5.05507 14.2306C5.05507 14.2306 3.73974 17.8648 4.076 21.661C4.17916 22.8266 4.40061 23.5842 4.84702 24.2876C5.46302 25.2562 6.29872 25.7865 6.80224 26.0499C6.80224 26.0499 7.30693 28.3974 7.28595 28.8473C7.28595 28.8473 8.30698 29.2628 9.38395 29.2651C9.87349 29.268 10.3747 29.1859 10.8013 28.9423C10.8013 28.9423 10.979 27.0506 11.2302 26.9124C11.4482 26.9479 11.6681 26.9706 11.8887 26.9806C11.9223 26.9816 11.956 26.9789 11.989 26.9725C12.0222 26.9789 12.056 26.9817 12.0898 26.9806C12.3096 26.9714 12.5287 26.9494 12.746 26.9148C12.9972 27.0529 13.1749 28.9446 13.1749 28.9446C13.6004 29.1882 14.1027 29.2704 14.5928 29.2675C15.6716 29.2675 16.6908 28.8496 16.6908 28.8496C16.6699 28.3974 17.1751 26.0523 17.1751 26.0523C17.6786 25.7889 18.5155 25.2585 19.1303 24.2899C19.5814 23.5842 19.8 22.8266 19.9031 21.661C20.24 17.8648 18.9246 14.2306 18.9246 14.2306Z" fill="white"/>
<path d="M8.21537 9.82301C8.95307 9.82301 9.5511 9.22498 9.5511 8.48728C9.5511 7.74958 8.95307 7.15155 8.21537 7.15155C7.47766 7.15155 6.87964 7.74958 6.87964 8.48728C6.87964 9.22498 7.47766 9.82301 8.21537 9.82301Z" fill="white"/>
<path d="M15.8855 9.82301C16.6232 9.82301 17.2213 9.22498 17.2213 8.48728C17.2213 7.74958 16.6232 7.15155 15.8855 7.15155C15.1478 7.15155 14.5498 7.74958 14.5498 8.48728C14.5498 9.22498 15.1478 9.82301 15.8855 9.82301Z" fill="white"/>
<path d="M19.0865 14.7749C19.5458 15.2837 21.0452 17.074 20.8349 19.4261C20.7766 20.0799 20.66 21.2974 19.6728 22.0439C18.9962 22.555 17.9215 22.812 17.0066 22.3743C16.8487 22.2986 16.1511 21.9664 15.8935 21.1878C15.6277 20.3871 15.9547 19.4942 16.566 18.9797C17.2502 18.4044 18.0742 18.4837 18.2357 18.5029C18.3746 18.5202 18.5125 18.5447 18.6489 18.5764C18.8083 18.6185 18.963 18.6771 19.1104 18.7512" fill="white"/>
<path d="M4.93913 14.8378C4.55217 15.2598 2.99848 17.0483 3.24208 19.426C3.30619 20.056 3.40934 21.2909 4.40414 22.0439C5.08075 22.555 6.15539 22.812 7.07036 22.3743C7.22829 22.2986 7.92588 21.9664 8.18346 21.1878C8.44921 20.3871 8.12519 19.4942 7.51094 18.9796C6.82675 18.4044 6.00329 18.4837 5.84128 18.5029C5.53662 18.5302 5.23995 18.6153 4.96711 18.7535" fill="white"/>
<path d="M12.0099 13.924C12.0018 13.924 11.9938 13.9224 11.9864 13.9193C11.9789 13.9162 11.9721 13.9116 11.9664 13.9059C11.9608 13.9001 11.9563 13.8933 11.9532 13.8858C11.9502 13.8783 11.9487 13.8703 11.9487 13.8622V11.8505C11.9502 11.8352 11.9573 11.821 11.9687 11.8107C11.9801 11.8004 11.9949 11.7947 12.0102 11.7947C12.0256 11.7947 12.0404 11.8004 12.0517 11.8107C12.0631 11.821 12.0702 11.8352 12.0717 11.8505V13.8622C12.0717 13.8786 12.0652 13.8943 12.0536 13.9059C12.042 13.9175 12.0263 13.924 12.0099 13.924Z" fill="url(#paint1_linear_1004_4068)"/>
<path d="M14.0014 13.3273C13.8062 13.0388 13.5264 12.9543 13.2374 12.9706C13.2139 13.1208 13.177 13.2687 13.1272 13.4124C13.1168 13.4392 13.0987 13.4805 13.069 13.4823C13.0392 13.484 13.0107 13.4345 12.999 13.4077C12.9355 13.2824 12.8737 13.1449 12.8329 13.0493C12.6872 13.0865 12.5464 13.1407 12.4133 13.2107C12.2735 13.2889 12.1382 13.3751 12.0083 13.4689C11.8345 13.368 11.6551 13.2772 11.471 13.1967C11.3535 13.1389 11.231 13.0919 11.105 13.0563C11.0648 13.047 10.4412 12.9193 10.1632 13.3127C9.96916 13.5884 10.0776 13.9578 10.0945 14.012C10.1889 14.3104 10.4511 14.5529 10.8224 14.7172C11.017 14.3897 11.4896 14.1583 12.0427 14.1583C12.5957 14.1583 13.062 14.3868 13.2595 14.7108C13.2951 14.6933 13.3312 14.6747 13.3668 14.6525C13.5331 14.5604 13.688 14.4491 13.8283 14.3209C13.9973 14.1503 14.0922 13.92 14.0923 13.6799C14.0885 13.557 14.0575 13.4366 14.0014 13.3273Z" fill="url(#paint2_linear_1004_4068)"/>
<path d="M12.01 10.8901C12.01 10.8901 11.4079 10.8528 11.3986 11.2823C11.3893 11.7118 11.7436 11.9735 12.01 11.9269C12.2763 11.9735 12.6306 11.7118 12.6213 11.2823C12.612 10.8528 12.01 10.8901 12.01 10.8901Z" fill="url(#paint3_linear_1004_4068)"/>
<path d="M4.72046 15.2598L5.18901 13.3844L5.58239 14.7673L4.72046 15.2598Z" fill="white"/>
<path d="M19.258 15.2598L18.7895 13.3844L18.3955 14.7673L19.258 15.2598Z" fill="white"/>
<path opacity="0.31" d="M5.22535 18.6411C5.22535 18.669 6.33787 18.2512 7.25109 18.7903C7.85427 19.1469 8.27037 19.8614 8.27561 20.5444C8.28261 21.3737 7.68118 21.9734 7.68759 21.9775C7.694 21.9816 8.40091 21.3114 8.37177 20.3789C8.35021 19.6831 7.92303 19.0012 7.30878 18.6568C6.32913 18.1061 5.22185 18.6131 5.22535 18.6411Z" fill="url(#paint4_linear_1004_4068)"/>
<path opacity="0.31" d="M18.8555 18.6411C18.852 18.669 17.7424 18.2512 16.8292 18.7903C16.226 19.1469 15.8099 19.8614 15.8047 20.5444C15.7977 21.3737 16.3991 21.9734 16.3927 21.9775C16.3863 21.9816 15.6771 21.3114 15.7085 20.3789C15.7301 19.6831 16.1573 19.0012 16.7715 18.6568C17.7512 18.1061 18.8585 18.6131 18.8555 18.6411Z" fill="url(#paint5_linear_1004_4068)"/>
<path d="M14.3276 12.5335C14.1076 12.5335 13.8925 12.4683 13.7095 12.346C13.5266 12.2238 13.384 12.05 13.2998 11.8467C13.2156 11.6435 13.1935 11.4198 13.2365 11.204C13.2794 10.9881 13.3853 10.7899 13.5409 10.6343C13.6965 10.4787 13.8948 10.3728 14.1106 10.3298C14.3264 10.2869 14.5501 10.309 14.7534 10.3932C14.9566 10.4774 15.1304 10.62 15.2526 10.8029C15.3749 10.9859 15.4401 11.201 15.4401 11.421C15.4398 11.716 15.3225 11.9988 15.1139 12.2073C14.9054 12.4159 14.6226 12.5332 14.3276 12.5335ZM14.3276 10.3825C14.1222 10.3825 13.9214 10.4434 13.7506 10.5575C13.5799 10.6716 13.4468 10.8338 13.3682 11.0236C13.2896 11.2133 13.269 11.4221 13.3091 11.6236C13.3491 11.8251 13.448 12.0101 13.5933 12.1553C13.7385 12.3006 13.9236 12.3995 14.125 12.4396C14.3265 12.4796 14.5353 12.4591 14.725 12.3805C14.9148 12.3019 15.077 12.1687 15.1911 11.998C15.3052 11.8272 15.3661 11.6264 15.3661 11.421C15.3658 11.1457 15.2563 10.8817 15.0616 10.687C14.8669 10.4923 14.6029 10.3828 14.3276 10.3825Z" fill="url(#paint6_linear_1004_4068)"/>
<path d="M14.1137 11.5636C14.1314 11.4543 14.0572 11.3514 13.9479 11.3336C13.8386 11.3159 13.7357 11.3901 13.7179 11.4994C13.7002 11.6087 13.7744 11.7116 13.8837 11.7294C13.993 11.7471 14.0959 11.6729 14.1137 11.5636Z" fill="url(#paint7_linear_1004_4068)"/>
<path d="M9.65217 12.5335C9.43211 12.5336 9.21696 12.4685 9.03393 12.3463C8.8509 12.2241 8.70821 12.0504 8.62392 11.8471C8.53962 11.6439 8.51751 11.4202 8.56037 11.2043C8.60323 10.9885 8.70914 10.7902 8.86471 10.6345C9.02027 10.4789 9.21851 10.3729 9.43433 10.3299C9.65016 10.2869 9.87388 10.3089 10.0772 10.3931C10.2805 10.4773 10.4543 10.6199 10.5766 10.8028C10.6988 10.9858 10.7641 11.2009 10.7641 11.421C10.7638 11.7159 10.6466 11.9986 10.4381 12.2071C10.2297 12.4157 9.94703 12.5331 9.65217 12.5335ZM9.65217 10.3825C9.44677 10.3825 9.24599 10.4434 9.0752 10.5575C8.90442 10.6716 8.77131 10.8338 8.69271 11.0236C8.61411 11.2133 8.59354 11.4221 8.63361 11.6236C8.67368 11.8251 8.77259 12.0101 8.91783 12.1553C9.06307 12.3006 9.24812 12.3995 9.44957 12.4396C9.65102 12.4796 9.85983 12.4591 10.0496 12.3805C10.2394 12.3019 10.4015 12.1687 10.5157 11.998C10.6298 11.8272 10.6907 11.6264 10.6907 11.421C10.6904 11.1457 10.5809 10.8817 10.3862 10.687C10.1915 10.4923 9.92751 10.3828 9.65217 10.3825Z" fill="url(#paint8_linear_1004_4068)"/>
<path d="M10.1188 11.7282C10.2281 11.7105 10.3023 11.6075 10.2846 11.4982C10.2668 11.3889 10.1639 11.3147 10.0546 11.3324C9.94529 11.3502 9.87107 11.4532 9.88881 11.5624C9.90655 11.6717 10.0095 11.746 10.1188 11.7282Z" fill="url(#paint9_linear_1004_4068)"/>
<path opacity="0.31" d="M10.7278 14.7295C10.7243 14.74 11.3013 15.1071 12.0746 15.096C12.8141 15.085 13.3567 14.733 13.3567 14.7225C12.9514 14.9343 12.501 15.0455 12.0437 15.0467C11.5864 15.0479 11.1354 14.9391 10.729 14.7295H10.7278Z" fill="url(#paint10_linear_1004_4068)"/>
</g>
<path d="M32.0004 18.5767V10.1911C31.9962 10.034 32.024 9.87762 32.0822 9.73162C32.1404 9.58562 32.2278 9.45304 32.339 9.34197C32.5651 9.11585 32.8618 9.00279 33.2289 9.00279C33.6108 9.00279 33.9075 9.11935 34.1188 9.35246C34.3289 9.58037 34.4429 9.88059 34.437 10.1905L34.4405 12.1632C34.721 12.0222 35.0216 11.9253 35.3316 11.8759C35.6264 11.8277 35.9245 11.8027 36.2232 11.8013C36.2938 11.8013 36.3684 11.8048 36.4464 11.8112C36.5245 11.8176 36.598 11.8211 36.6691 11.8211L38.4092 9.49C38.6637 9.16442 38.9891 9.00163 39.3854 9.00163C39.6879 9.00807 39.9809 9.10825 40.224 9.28835C40.3536 9.37106 40.4596 9.48568 40.5321 9.62121C40.6046 9.75675 40.641 9.90863 40.6378 10.0623C40.6365 10.2785 40.5621 10.488 40.4268 10.6567L38.9839 12.5671C40.0717 13.2474 40.6156 14.2173 40.6156 15.4769V18.5778C40.6204 18.7342 40.5937 18.89 40.5372 19.0359C40.4808 19.1819 40.3957 19.315 40.287 19.4275C40.0678 19.654 39.7677 19.7675 39.3866 19.7679C39.0194 19.7679 38.7263 19.6513 38.5072 19.4182C38.2915 19.1931 38.1736 18.8919 38.179 18.5802V15.9046C38.179 15.325 38.0124 14.876 37.679 14.5578C37.3457 14.2396 36.874 14.0805 36.264 14.0805C35.6684 14.0805 35.2146 14.2396 34.9027 14.5578C34.5907 14.876 34.4353 15.318 34.4364 15.8837V18.5778C34.4411 18.7341 34.4144 18.8896 34.358 19.0354C34.3015 19.1811 34.2164 19.3141 34.1078 19.4264C33.8886 19.6529 33.5885 19.7661 33.2074 19.7661C32.8402 19.7661 32.5471 19.6496 32.3279 19.4165C32.1121 19.1908 31.9943 18.8889 32.0004 18.5767ZM42.459 10.1992C42.4544 9.88829 42.5725 9.58804 42.7877 9.36353C43.0064 9.13042 43.2995 9.01386 43.6671 9.01386C44.0482 9.01386 44.3483 9.12692 44.5675 9.35304C44.6757 9.46521 44.7606 9.59779 44.8171 9.74306C44.8736 9.88834 44.9007 10.0434 44.8967 10.1992V15.5025C44.8967 16.1533 45.0848 16.6731 45.4609 17.062C45.837 17.4509 46.3723 17.6452 47.067 17.6448C47.5204 17.6448 47.8961 17.4999 48.1941 17.2101C48.3404 17.069 48.4558 16.899 48.5327 16.7108C48.6097 16.5227 48.6466 16.3206 48.6411 16.1174V10.1992C48.6359 9.8884 48.7536 9.58809 48.9686 9.36353C49.1874 9.13042 49.4803 9.01386 49.8474 9.01386C50.229 9.01386 50.5293 9.12692 50.7484 9.35304C50.856 9.4655 50.9403 9.5982 50.9962 9.74346C51.0521 9.88872 51.0786 10.0436 51.0742 10.1992C51.0742 11.1317 51.0709 12.0686 51.0643 13.01C51.0577 13.9514 51.0544 14.8885 51.0544 15.8213C51.0585 16.3467 50.9798 16.8694 50.8213 17.3703C50.6776 17.8293 50.4429 18.2547 50.1313 18.621C49.8118 18.9855 49.4131 19.2719 48.9657 19.4584C48.4913 19.6636 47.9357 19.7661 47.299 19.7661C46.844 19.7688 46.393 19.6823 45.9714 19.5115C45.5647 19.3488 45.1879 19.1196 44.8565 18.8331C44.846 18.9662 44.8086 19.0957 44.7467 19.214C44.6848 19.3323 44.5997 19.4368 44.4964 19.5214C44.2749 19.7009 43.9963 19.7948 43.7114 19.7859C43.396 19.7893 43.0889 19.6846 42.8413 19.4893C42.7177 19.3956 42.6184 19.2734 42.552 19.1333C42.4856 18.9931 42.4539 18.8389 42.4596 18.6839L42.459 10.1992ZM45.1677 5.95836H48.5834C48.5833 5.76677 48.5938 5.57533 48.6149 5.3849C48.6334 5.21246 48.6799 5.04417 48.7524 4.88663C48.8244 4.73666 48.943 4.614 49.0904 4.53696C49.2474 4.45226 49.4517 4.40991 49.7035 4.40991C50.0275 4.40991 50.2917 4.50898 50.4961 4.70713C50.7004 4.90527 50.8024 5.16694 50.802 5.49213V6.84826C50.8087 6.97501 50.7886 7.10173 50.7431 7.22022C50.6976 7.33871 50.6278 7.44633 50.538 7.5361C50.4483 7.62587 50.3407 7.6958 50.2223 7.74135C50.1038 7.7869 49.9771 7.80706 49.8504 7.80052H44.7854C44.5845 7.80827 44.3867 7.74857 44.2236 7.63093C44.0748 7.51787 44.0004 7.34148 44.0004 7.10177C43.9969 6.94959 44.0254 6.79836 44.0839 6.65783C44.1424 6.51731 44.2297 6.3906 44.3402 6.28588C44.4494 6.17895 44.5788 6.09491 44.7209 6.03866C44.863 5.98242 45.0149 5.95512 45.1677 5.95836ZM52.8604 15.0334C52.8604 14.524 52.9737 14.0891 53.2002 13.7285C53.4174 13.3826 53.6601 13.0534 53.9263 12.7436C53.9938 12.6765 54.0576 12.6056 54.1175 12.5315C54.1757 12.461 54.2305 12.3899 54.2876 12.3194C54.3541 12.2543 54.4146 12.1833 54.4683 12.1073C54.52 12.033 54.5664 11.955 54.607 11.8741C54.7486 11.648 54.8426 11.3954 54.8832 11.1317H54.5015C54.1618 11.1377 53.825 11.0688 53.5149 10.93C53.2247 10.796 53.0795 10.5029 53.0795 10.0506C53.0753 9.77863 53.1783 9.51588 53.3663 9.31924C53.5566 9.1141 53.8148 9.01153 54.1408 9.01153H56.2825C56.5097 9.00268 56.7355 9.05013 56.9399 9.14965C57.0996 9.23304 57.2376 9.35281 57.3426 9.49932C57.4423 9.64265 57.511 9.80522 57.5442 9.97662C57.5798 10.1549 57.5975 10.3362 57.5972 10.518C57.5994 10.7452 57.5633 10.9712 57.4906 11.1865C57.4203 11.3903 57.3277 11.5858 57.2144 11.7692C57.1047 11.9619 56.9763 12.1433 56.8309 12.3106C56.6895 12.4738 56.5478 12.6329 56.406 12.7879C56.1251 13.0919 55.8654 13.4147 55.6286 13.7542C55.4145 14.0547 55.2994 14.4144 55.2993 14.7834V16.1628C55.2993 16.7285 55.4264 17.117 55.6805 17.3284C55.9346 17.5397 56.3584 17.6458 56.9521 17.6466C57.5594 17.6466 57.99 17.537 58.2441 17.3179C58.4982 17.0988 58.6325 16.7062 58.6468 16.1401C58.6616 15.8009 58.6653 15.4578 58.6579 15.1109C58.6505 14.7639 58.6468 14.4217 58.6468 14.084V10.1969C58.6425 10.0398 58.6704 9.88352 58.7287 9.7376C58.7871 9.59168 58.8746 9.45923 58.986 9.34838C59.2121 9.12226 59.5088 9.00901 59.8759 9.00862C60.257 9.00862 60.5537 9.12518 60.7658 9.35829C60.9756 9.58639 61.0895 9.88648 61.084 10.1963V16.2228C61.084 16.8445 60.9814 17.3783 60.7763 17.8243C60.5829 18.2556 60.2887 18.6342 59.9184 18.9281C59.5289 19.2276 59.0817 19.4434 58.6049 19.5622C57.5194 19.8275 56.3865 19.8311 55.2993 19.5727C54.8337 19.4593 54.3969 19.2497 54.0172 18.9572C53.6539 18.6693 53.3643 18.2992 53.1722 17.8773C52.9678 17.4387 52.8657 16.9152 52.8657 16.3068L52.8604 15.0334ZM62.5293 11.873C62.5288 11.8339 62.5323 11.7948 62.5398 11.7564C62.5468 11.718 62.5503 11.679 62.5503 11.6399C62.6344 11.2074 62.8116 10.7983 63.0695 10.4411C63.3116 10.1143 63.6143 9.83733 63.9612 9.6252C64.319 9.40863 64.7094 9.2512 65.1174 9.15898C65.5487 9.0591 65.9901 9.00923 66.4328 9.01037C67.5781 9.01037 68.4865 9.33226 69.1578 9.97603C69.8292 10.6198 70.1649 11.479 70.1649 12.5537V18.5796C70.1695 18.7358 70.1428 18.8914 70.0864 19.0371C70.0299 19.1829 69.9449 19.3158 69.8362 19.4281C69.6171 19.6546 69.3239 19.7679 68.9568 19.7679C68.5748 19.7679 68.278 19.6513 68.0663 19.4182C67.8562 19.1901 67.7422 18.8897 67.7481 18.5796V12.5304C67.7481 12.0354 67.6455 11.6746 67.4404 11.4481C67.2352 11.2216 66.8856 11.1086 66.3914 11.109C66.0518 11.109 65.776 11.155 65.5638 11.2471C65.3517 11.3392 65.1819 11.5264 65.0545 11.8089C64.9962 11.9365 64.9344 12.0635 64.8639 12.1912C64.7924 12.3196 64.7032 12.4374 64.5987 12.5408C64.4888 12.6494 64.359 12.7358 64.2164 12.7955C63.9974 12.8804 63.7607 12.9095 63.5276 12.8801C63.2945 12.8507 63.0724 12.7638 62.8813 12.6271C62.6478 12.4499 62.5312 12.1986 62.5316 11.873H62.5293ZM73.2553 15.6931C73.5386 15.6931 73.7536 15.7601 73.9022 15.8947C74.065 16.0466 74.2046 16.2216 74.3166 16.414C74.4436 16.6265 74.5672 16.814 74.6872 16.9764C74.7958 17.1279 74.9285 17.2606 75.08 17.3692C75.2316 17.4727 75.4006 17.5481 75.5789 17.5918C75.8189 17.6465 76.0647 17.6714 76.3109 17.6658C76.8058 17.6658 77.1982 17.5739 77.4881 17.3901C77.7709 17.2148 77.996 16.9603 78.1355 16.6582C78.2838 16.3265 78.3733 15.9715 78.4001 15.6092C78.4355 15.2129 78.4533 14.8026 78.4537 14.3783C78.4541 13.9541 78.4362 13.544 78.4001 13.1481C78.3745 12.7871 78.281 12.4341 78.1245 12.1078C77.9784 11.813 77.7548 11.5636 77.4776 11.3864C77.1951 11.2022 76.8066 11.1103 76.312 11.1107C75.7747 11.1107 75.3862 11.1956 75.1465 11.3654C74.9249 11.5157 74.7371 11.7106 74.5951 11.9377C74.5526 11.9959 74.5136 12.0542 74.4786 12.1078C74.4447 12.1628 74.4136 12.2194 74.3854 12.2774C74.3426 12.3342 74.3038 12.3907 74.2688 12.447C74.2326 12.5047 74.186 12.5551 74.1313 12.5956C73.9187 12.8361 73.6287 12.9564 73.2612 12.9564C72.9647 12.9561 72.677 12.8552 72.4453 12.6702C72.3255 12.5807 72.2292 12.4634 72.1645 12.3286C72.0999 12.1937 72.0688 12.0452 72.0741 11.8957C72.0747 11.8425 72.0782 11.7894 72.0845 11.7366C72.0918 11.6737 72.1099 11.6126 72.1382 11.5559C72.2795 11.1284 72.5028 10.7326 72.7955 10.3904C73.072 10.0705 73.4024 9.80146 73.7717 9.59548C74.1499 9.3865 74.5576 9.23618 74.9809 9.14965C75.4206 9.05773 75.8687 9.01145 76.3178 9.01153C77.2367 9.01153 77.9964 9.15665 78.5971 9.44687C79.1977 9.73709 79.6706 10.1256 80.0156 10.6124C80.3718 11.1266 80.62 11.7077 80.7452 12.3206C80.8889 12.997 80.9599 13.6868 80.9568 14.3783C80.9604 15.0765 80.8931 15.7732 80.7557 16.4577C80.6355 17.0722 80.3851 17.6538 80.0214 18.1635C79.6505 18.6659 79.1591 19.0667 78.5924 19.3291C77.9922 19.6193 77.2324 19.7644 76.3132 19.7644C75.2517 19.7644 74.3535 19.5451 73.6184 19.1064C72.8833 18.6678 72.353 17.9537 72.0274 16.9641C72.011 16.8876 72.0037 16.8093 72.0059 16.731C72.002 16.5787 72.0382 16.428 72.1108 16.294C72.1834 16.1601 72.2899 16.0475 72.4196 15.9676C72.6652 15.7942 72.9571 15.6985 73.2577 15.6931H73.2553Z" fill="url(#paint11_linear_1004_4068)"/>
<defs>
<linearGradient id="paint0_linear_1004_4068" x1="0.0686035" y1="12.0732" x2="23.9981" y2="12.0732" gradientUnits="userSpaceOnUse">
<stop stop-color="#3C098D"/>
<stop offset="0.53" stop-color="#4F039A"/>
<stop offset="1" stop-color="#80058C"/>
</linearGradient>
<linearGradient id="paint1_linear_1004_4068" x1="11.9487" y1="12.8563" x2="12.0717" y2="12.8563" gradientUnits="userSpaceOnUse">
<stop stop-color="#3C098D"/>
<stop offset="0.53" stop-color="#4F039A"/>
<stop offset="1" stop-color="#80058C"/>
</linearGradient>
<linearGradient id="paint2_linear_1004_4068" x1="10.0496" y1="13.843" x2="14.0935" y2="13.843" gradientUnits="userSpaceOnUse">
<stop stop-color="#3C098D"/>
<stop offset="0.53" stop-color="#4F039A"/>
<stop offset="1" stop-color="#80058C"/>
</linearGradient>
<linearGradient id="paint3_linear_1004_4068" x1="11.3986" y1="11.4105" x2="12.6213" y2="11.4105" gradientUnits="userSpaceOnUse">
<stop stop-color="#3C098D"/>
<stop offset="0.53" stop-color="#4F039A"/>
<stop offset="1" stop-color="#80058C"/>
</linearGradient>
<linearGradient id="paint4_linear_1004_4068" x1="5.22477" y1="20.1901" x2="8.37236" y2="20.1901" gradientUnits="userSpaceOnUse">
<stop stop-color="#3C098D"/>
<stop offset="0.53" stop-color="#4F039A"/>
<stop offset="1" stop-color="#80058C"/>
</linearGradient>
<linearGradient id="paint5_linear_1004_4068" x1="18.8555" y1="20.1901" x2="15.708" y2="20.1901" gradientUnits="userSpaceOnUse">
<stop stop-color="#3C098D"/>
<stop offset="0.53" stop-color="#4F039A"/>
<stop offset="1" stop-color="#80058C"/>
</linearGradient>
<linearGradient id="paint6_linear_1004_4068" x1="13.2151" y1="11.421" x2="15.4401" y2="11.421" gradientUnits="userSpaceOnUse">
<stop stop-color="#3C098D"/>
<stop offset="0.53" stop-color="#4F039A"/>
<stop offset="1" stop-color="#80058C"/>
</linearGradient>
<linearGradient id="paint7_linear_1004_4068" x1="13.7158" y1="11.5309" x2="14.1173" y2="11.5309" gradientUnits="userSpaceOnUse">
<stop stop-color="#3C098D"/>
<stop offset="0.53" stop-color="#4F039A"/>
<stop offset="1" stop-color="#80058C"/>
</linearGradient>
<linearGradient id="paint8_linear_1004_4068" x1="8.53965" y1="11.421" x2="10.7641" y2="11.421" gradientUnits="userSpaceOnUse">
<stop stop-color="#3C098D"/>
<stop offset="0.53" stop-color="#4F039A"/>
<stop offset="1" stop-color="#80058C"/>
</linearGradient>
<linearGradient id="paint9_linear_1004_4068" x1="9.88584" y1="11.5307" x2="10.2868" y2="11.5307" gradientUnits="userSpaceOnUse">
<stop stop-color="#3C098D"/>
<stop offset="0.53" stop-color="#4F039A"/>
<stop offset="1" stop-color="#80058C"/>
</linearGradient>
<linearGradient id="paint10_linear_1004_4068" x1="10.7278" y1="14.909" x2="13.3555" y2="14.909" gradientUnits="userSpaceOnUse">
<stop stop-color="#3C098D"/>
<stop offset="0.53" stop-color="#4F039A"/>
<stop offset="1" stop-color="#80058C"/>
</linearGradient>
<linearGradient id="paint11_linear_1004_4068" x1="32.0004" y1="12.0973" x2="80.9521" y2="12.0973" gradientUnits="userSpaceOnUse">
<stop stop-color="#3C098D"/>
<stop offset="0.53" stop-color="#4F039A"/>
<stop offset="1" stop-color="#80058C"/>
</linearGradient>
</defs>
</svg>
