<svg width="33" height="34" viewBox="0 0 33 34" fill="none" xmlns="http://www.w3.org/2000/svg">
<mask id="mask0_1004_4069" style="mask-type:luminance" maskUnits="userSpaceOnUse" x="0" y="0" width="33" height="34">
<path d="M16.438 33.199C25.5165 33.199 32.876 25.8394 32.876 16.761C32.876 7.68254 25.5165 0.322998 16.438 0.322998C7.35954 0.322998 0 7.68254 0 16.761C0 25.8394 7.35954 33.199 16.438 33.199Z" fill="white"/>
</mask>
<g mask="url(#mask0_1004_4069)">
<path d="M16.446 33.1632C25.5106 33.1632 32.859 25.8149 32.859 16.7502C32.859 7.68557 25.5106 0.337219 16.446 0.337219C7.38131 0.337219 0.032959 7.68557 0.032959 16.7502C0.032959 25.8149 7.38131 33.1632 16.446 33.1632Z" fill="url(#paint0_linear_1004_4069)"/>
<path d="M25.8992 19.7097C25.4639 15.7363 23.172 13.1148 23.0462 12.9734C23.1652 13.0061 20.2381 10.4968 20.2997 10.701C19.3224 9.66347 16.7555 9.58106 16.414 9.57471H16.3581C16.0166 9.58106 13.4495 9.66347 12.4724 10.701C12.534 10.4974 9.60692 13.0061 9.72593 12.9734C9.5999 13.1148 7.30823 15.7363 6.87295 19.7097C6.87295 19.7097 5.06872 24.6953 5.53008 29.9028C5.67166 31.499 5.975 32.5419 6.58759 33.5054C7.4325 34.8344 8.579 35.5619 9.26961 35.9235C9.26961 35.9235 9.96264 39.1432 9.93371 39.7639C9.93371 39.7639 11.3344 40.3337 12.8147 40.3372C13.4865 40.3407 14.176 40.2276 14.7592 39.8938C14.7592 39.8938 15.0032 37.2988 15.3477 37.1103C15.4398 37.1243 15.973 37.2035 16.2483 37.2004C16.2944 37.2019 16.3406 37.1982 16.3859 37.1897C16.4314 37.1983 16.4776 37.2019 16.5238 37.2004C16.7989 37.2035 17.3323 37.1243 17.4244 37.1103C17.7689 37.2997 18.0127 39.8938 18.0127 39.8938C18.5961 40.2285 19.2854 40.3407 19.9574 40.3372C21.4377 40.3337 22.8384 39.7639 22.8384 39.7639C22.8095 39.1432 23.5025 35.9235 23.5025 35.9235C24.1929 35.5619 25.3396 34.8344 26.1845 33.5054C26.7982 32.541 27.1005 31.499 27.2418 29.9028C27.7036 24.695 25.8992 19.7097 25.8992 19.7097Z" fill="white"/>
<path d="M11.2082 13.6629C12.2203 13.6629 13.0407 12.8425 13.0407 11.8304C13.0407 10.8184 12.2203 9.99792 11.2082 9.99792C10.1962 9.99792 9.37573 10.8184 9.37573 11.8304C9.37573 12.8425 10.1962 13.6629 11.2082 13.6629Z" fill="white"/>
<path d="M21.7302 13.6629C22.7423 13.6629 23.5627 12.8425 23.5627 11.8304C23.5627 10.8184 22.7423 9.99792 21.7302 9.99792C20.7181 9.99792 19.8977 10.8184 19.8977 11.8304C19.8977 12.8425 20.7181 13.6629 21.7302 13.6629Z" fill="white"/>
<path d="M26.1217 20.4564C26.7512 21.1543 28.8084 23.6103 28.5193 26.837C28.4391 27.7334 28.2815 29.404 26.9252 30.4277C25.9968 31.1291 24.5227 31.4813 23.2672 30.881C23.0509 30.7775 22.094 30.3199 21.7403 29.2532C21.376 28.1547 21.8242 26.9299 22.6632 26.2246C23.6017 25.4356 24.7318 25.5452 24.9536 25.5702C25.144 25.5937 25.333 25.6273 25.5199 25.6708C25.7388 25.7299 25.9511 25.8114 26.1533 25.9141" fill="white"/>
<path d="M6.71457 20.5424C6.18373 21.121 4.05249 23.5753 4.38607 26.837C4.47374 27.7008 4.61598 29.3981 5.98012 30.4277C6.90853 31.1291 8.38247 31.4813 9.63812 30.881C9.85422 30.7775 10.8114 30.3199 11.1649 29.2532C11.5291 28.1547 11.0812 26.9299 10.2422 26.2246C9.30366 25.4356 8.1736 25.5452 7.95158 25.5702C7.53345 25.6072 7.12628 25.724 6.75204 25.9141" fill="white"/>
<path d="M16.4139 19.2596C16.3994 19.2596 16.3855 19.2538 16.3752 19.2435C16.3649 19.2332 16.3591 19.2193 16.3591 19.2048V16.4449C16.3591 16.4304 16.3649 16.4165 16.3752 16.4062C16.3855 16.3959 16.3994 16.3901 16.4139 16.3901C16.4285 16.3901 16.4424 16.3959 16.4527 16.4062C16.4629 16.4165 16.4687 16.4304 16.4687 16.4449V19.2048C16.4687 19.2193 16.4629 19.2332 16.4527 19.2435C16.4424 19.2538 16.4285 19.2596 16.4139 19.2596Z" fill="url(#paint1_linear_1004_4069)"/>
<path d="M19.1456 18.4705C18.878 18.076 18.4936 17.959 18.0973 17.9816C18.0695 18.1407 18.0164 18.412 17.9465 18.5871C17.9316 18.6244 17.9066 18.6809 17.8698 18.6831C17.8282 18.6858 17.7927 18.6174 17.7738 18.5808C17.6862 18.4096 17.602 18.2202 17.5457 18.0898C17.3449 18.1407 17.1508 18.2153 16.9677 18.3121C16.7108 18.4488 16.4123 18.6658 16.4123 18.6658C16.1737 18.528 15.9277 18.4036 15.6752 18.2932C15.4225 18.1823 15.2961 18.1269 15.1727 18.0997C15.1177 18.0876 14.262 17.9119 13.8811 18.4519C13.6144 18.83 13.764 19.3367 13.786 19.4082C13.9155 19.8171 14.2758 20.1498 14.7845 20.3758C15.0519 19.9265 15.7004 19.6087 16.4588 19.6087C17.2121 19.6087 17.8573 19.9219 18.1278 20.3664C18.1769 20.3426 18.2261 20.3171 18.2753 20.2899C18.5033 20.1636 18.7156 20.0109 18.9078 19.8349C18.9795 19.7619 19.2835 19.4353 19.2706 18.9562C19.2653 18.7871 19.2226 18.6212 19.1456 18.4705Z" fill="url(#paint2_linear_1004_4069)"/>
<path d="M16.414 15.1275C16.414 15.1275 15.5882 15.0762 15.5754 15.6653C15.5627 16.2545 16.0486 16.613 16.414 16.549C16.7794 16.613 17.2653 16.2545 17.2523 15.6653C17.2394 15.0762 16.414 15.1275 16.414 15.1275Z" fill="url(#paint3_linear_1004_4069)"/>
<path d="M6.41406 21.1214L7.05712 18.5488L7.59694 20.4455L6.41406 21.1214Z" fill="white"/>
<path d="M26.3564 21.1214L25.7132 18.5488L25.1733 20.4455L26.3564 21.1214Z" fill="white"/>
<path opacity="0.31" d="M7.10621 25.7598C7.11082 25.7981 8.63275 25.225 9.88511 25.9647C10.7129 26.4535 11.2841 27.4332 11.2913 28.3706C11.3003 29.5083 10.4756 30.3315 10.4845 30.3366C10.4935 30.3416 11.4627 29.4231 11.4228 28.1448C11.393 27.1897 10.8072 26.2542 9.96445 25.7824C8.62114 25.0295 7.10139 25.7212 7.10621 25.7598Z" fill="url(#paint4_linear_1004_4069)"/>
<path opacity="0.31" d="M25.8039 25.7598C25.7993 25.7981 24.2774 25.225 23.025 25.9647C22.1972 26.4535 21.626 27.4332 21.6188 28.3706C21.6098 29.5083 22.4345 30.3315 22.4256 30.3366C22.4166 30.3416 21.4474 29.4231 21.4873 28.1448C21.5171 27.1897 22.1029 26.2542 22.9457 25.7824C24.289 25.0295 25.8085 25.7212 25.8039 25.7598Z" fill="url(#paint5_linear_1004_4069)"/>
<path d="M19.5943 17.3637C19.296 17.3637 19.0043 17.2752 18.7563 17.1095C18.5082 16.9437 18.3149 16.7081 18.2007 16.4325C18.0866 16.1569 18.0567 15.8536 18.1149 15.561C18.1732 15.2684 18.3168 14.9996 18.5278 14.7887C18.7388 14.5778 19.0076 14.4341 19.3002 14.3759C19.5928 14.3178 19.896 14.3477 20.1717 14.4619C20.4473 14.5761 20.6828 14.7694 20.8485 15.0175C21.0143 15.2656 21.1027 15.5572 21.1026 15.8556C21.1022 16.2554 20.9431 16.6388 20.6603 16.9215C20.3776 17.2043 19.9942 17.3633 19.5943 17.3637ZM19.5943 14.413C19.309 14.413 19.0301 14.4976 18.7928 14.6561C18.5556 14.8146 18.3707 15.0399 18.2615 15.3035C18.1523 15.5671 18.1237 15.8572 18.1794 16.137C18.2351 16.4168 18.3725 16.6739 18.5742 16.8756C18.776 17.0774 19.033 17.2148 19.3129 17.2704C19.5927 17.3261 19.8827 17.2975 20.1463 17.1883C20.4099 17.0792 20.6353 16.8943 20.7938 16.657C20.9523 16.4198 21.0369 16.1409 21.0369 15.8556C21.0364 15.4731 20.8843 15.1064 20.6138 14.836C20.3434 14.5656 19.9767 14.4134 19.5943 14.413Z" fill="url(#paint6_linear_1004_4069)"/>
<path d="M19.3 16.0508C19.3243 15.9007 19.2224 15.7593 19.0723 15.735C18.9223 15.7106 18.7809 15.8125 18.7565 15.9626C18.7321 16.1127 18.8341 16.2541 18.9841 16.2784C19.1342 16.3028 19.2756 16.2009 19.3 16.0508Z" fill="url(#paint7_linear_1004_4069)"/>
<path d="M13.179 17.3637C12.8806 17.3637 12.589 17.2753 12.3409 17.1096C12.0928 16.9439 11.8995 16.7083 11.7853 16.4327C11.6711 16.157 11.6412 15.8537 11.6994 15.5611C11.7576 15.2685 11.9012 14.9997 12.1122 14.7888C12.3232 14.5778 12.5919 14.4342 12.8846 14.376C13.1772 14.3178 13.4805 14.3477 13.7561 14.4618C14.0317 14.576 14.2673 14.7694 14.433 15.0175C14.5987 15.2656 14.6872 15.5572 14.6871 15.8556C14.6866 16.2554 14.5276 16.6387 14.2449 16.9215C13.9621 17.2042 13.5788 17.3632 13.179 17.3637ZM13.179 14.413C12.8937 14.4129 12.6147 14.4975 12.3775 14.656C12.1402 14.8145 11.9553 15.0397 11.846 15.3033C11.7368 15.5669 11.7082 15.857 11.7639 16.1369C11.8195 16.4167 11.9569 16.6738 12.1586 16.8755C12.3604 17.0773 12.6174 17.2147 12.8972 17.2704C13.1771 17.3261 13.4672 17.2975 13.7308 17.1884C13.9944 17.0792 14.2197 16.8943 14.3782 16.657C14.5367 16.4198 14.6214 16.1409 14.6214 15.8556C14.6209 15.4731 14.4688 15.1065 14.1984 14.8361C13.928 14.5656 13.5614 14.4135 13.179 14.413Z" fill="url(#paint8_linear_1004_4069)"/>
<path d="M13.8194 16.2769C13.9695 16.2526 14.0714 16.1112 14.047 15.9611C14.0227 15.811 13.8813 15.7091 13.7312 15.7335C13.5811 15.7578 13.4792 15.8992 13.5036 16.0493C13.5279 16.1994 13.6693 16.3013 13.8194 16.2769Z" fill="url(#paint9_linear_1004_4069)"/>
<path opacity="0.31" d="M14.6553 20.3412C14.65 20.3552 15.4417 20.8593 16.5025 20.8435C17.517 20.8284 18.2646 20.3456 18.2594 20.3313C18.2541 20.3171 17.5227 20.7631 16.4944 20.7758C15.4264 20.7887 14.6601 20.3274 14.6553 20.3412Z" fill="url(#paint10_linear_1004_4069)"/>
</g>
<defs>
<linearGradient id="paint0_linear_1004_4069" x1="0.032959" y1="16.7502" x2="32.859" y2="16.7502" gradientUnits="userSpaceOnUse">
<stop stop-color="#3C098D"/>
<stop offset="0.53" stop-color="#4F039A"/>
<stop offset="1" stop-color="#80058C"/>
</linearGradient>
<linearGradient id="paint1_linear_1004_4069" x1="16.3591" y1="17.8248" x2="16.4687" y2="17.8248" gradientUnits="userSpaceOnUse">
<stop stop-color="#3C098D"/>
<stop offset="0.53" stop-color="#4F039A"/>
<stop offset="1" stop-color="#80058C"/>
</linearGradient>
<linearGradient id="paint2_linear_1004_4069" x1="13.7244" y1="19.1776" x2="19.2712" y2="19.1776" gradientUnits="userSpaceOnUse">
<stop stop-color="#3C098D"/>
<stop offset="0.53" stop-color="#4F039A"/>
<stop offset="1" stop-color="#80058C"/>
</linearGradient>
<linearGradient id="paint3_linear_1004_4069" x1="15.5752" y1="15.8413" x2="17.2528" y2="15.8413" gradientUnits="userSpaceOnUse">
<stop stop-color="#3C098D"/>
<stop offset="0.53" stop-color="#4F039A"/>
<stop offset="1" stop-color="#80058C"/>
</linearGradient>
<linearGradient id="paint4_linear_1004_4069" x1="7.10621" y1="27.8847" x2="11.4241" y2="27.8847" gradientUnits="userSpaceOnUse">
<stop stop-color="#3C098D"/>
<stop offset="0.53" stop-color="#4F039A"/>
<stop offset="1" stop-color="#80058C"/>
</linearGradient>
<linearGradient id="paint5_linear_1004_4069" x1="25.8039" y1="27.8847" x2="21.486" y2="27.8847" gradientUnits="userSpaceOnUse">
<stop stop-color="#3C098D"/>
<stop offset="0.53" stop-color="#4F039A"/>
<stop offset="1" stop-color="#80058C"/>
</linearGradient>
<linearGradient id="paint6_linear_1004_4069" x1="18.0848" y1="15.8556" x2="21.1015" y2="15.8556" gradientUnits="userSpaceOnUse">
<stop stop-color="#3C098D"/>
<stop offset="0.53" stop-color="#4F039A"/>
<stop offset="1" stop-color="#80058C"/>
</linearGradient>
<linearGradient id="paint7_linear_1004_4069" x1="18.7536" y1="16.0058" x2="19.3042" y2="16.0058" gradientUnits="userSpaceOnUse">
<stop stop-color="#3C098D"/>
<stop offset="0.53" stop-color="#4F039A"/>
<stop offset="1" stop-color="#80058C"/>
</linearGradient>
<linearGradient id="paint8_linear_1004_4069" x1="11.6706" y1="15.8556" x2="14.6871" y2="15.8556" gradientUnits="userSpaceOnUse">
<stop stop-color="#3C098D"/>
<stop offset="0.53" stop-color="#4F039A"/>
<stop offset="1" stop-color="#80058C"/>
</linearGradient>
<linearGradient id="paint9_linear_1004_4069" x1="13.4993" y1="16.0059" x2="14.0498" y2="16.0059" gradientUnits="userSpaceOnUse">
<stop stop-color="#3C098D"/>
<stop offset="0.53" stop-color="#4F039A"/>
<stop offset="1" stop-color="#80058C"/>
</linearGradient>
<linearGradient id="paint10_linear_1004_4069" x1="14.6551" y1="20.5875" x2="18.2594" y2="20.5875" gradientUnits="userSpaceOnUse">
<stop stop-color="#3C098D"/>
<stop offset="0.53" stop-color="#4F039A"/>
<stop offset="1" stop-color="#80058C"/>
</linearGradient>
</defs>
</svg>
