<svg width="95" height="25" viewBox="0 0 95 25" fill="none" xmlns="http://www.w3.org/2000/svg">
<path d="M30.1296 7.58475C30.1296 7.21682 30.2462 6.91281 30.4793 6.6727C30.7124 6.4326 31.0339 6.31235 31.4438 6.31196C31.8103 6.30283 32.1689 6.41876 32.4607 6.64065C32.7386 6.85378 32.9456 7.14589 33.0546 7.47869L35.7051 16.2204L38.3555 7.47869C38.4535 7.1406 38.6625 6.84538 38.9488 6.64065C39.2429 6.4223 39.6007 6.3068 39.9669 6.31196C40.3764 6.31196 40.6979 6.43221 40.9314 6.6727C41.0476 6.79369 41.1385 6.93672 41.1985 7.09336C41.2586 7.25 41.2866 7.41708 41.2811 7.58475V18.0025C41.2855 18.1596 41.2577 18.3159 41.1993 18.4619C41.141 18.6078 41.0534 18.7402 40.9419 18.851C40.7158 19.0775 40.4192 19.1906 40.052 19.1902C39.6849 19.1898 39.3917 19.0733 39.1726 18.8405C38.957 18.6154 38.8391 18.3142 38.8445 18.0025V12.1252L36.9796 18.2566C36.9013 18.5303 36.7332 18.7696 36.5023 18.9361C36.2649 19.1067 35.9787 19.1959 35.6864 19.1902C35.399 19.1935 35.1189 19.1001 34.8909 18.925C34.6663 18.7615 34.5051 18.5254 34.4346 18.2566L32.5464 12.1252V18.0025C32.5511 18.1587 32.5244 18.3143 32.4679 18.46C32.4115 18.6058 32.3264 18.7387 32.2177 18.851C31.9986 19.0775 31.7053 19.1906 31.3377 19.1902C30.9558 19.1902 30.659 19.0737 30.4472 18.8405C30.2374 18.6125 30.1236 18.3123 30.1296 18.0025V7.58475ZM43.4945 7.54396C43.4838 7.21878 43.602 6.90254 43.8232 6.66396C44.0423 6.43085 44.3496 6.31429 44.7451 6.31429H50.5578C50.8969 6.31429 51.1621 6.42036 51.3533 6.63249C51.5403 6.83416 51.643 7.09989 51.64 7.37495C51.6434 7.64611 51.5405 7.90781 51.3533 8.10401C51.1621 8.30915 50.8969 8.41152 50.5578 8.41113H45.9113V11.5832H49.7728C50.098 11.5832 50.3489 11.6825 50.5257 11.881C50.7028 12.0796 50.7978 12.3382 50.7915 12.6042C50.7996 12.8672 50.7046 13.123 50.5269 13.317C50.3505 13.5081 50.0995 13.6037 49.7739 13.6037H45.9113V17.0706H50.5578C50.8969 17.0706 51.1621 17.1767 51.3533 17.3888C51.5431 17.597 51.6457 17.8701 51.64 18.1517C51.6447 18.4245 51.5417 18.6881 51.3533 18.8854C51.1621 19.0906 50.8969 19.1929 50.5578 19.1925H44.7451C44.3496 19.1925 44.0423 19.0725 43.8232 18.8324C43.6055 18.5956 43.4877 18.2839 43.4945 17.9623V7.54396ZM53.3166 7.54396C53.306 7.21878 53.4241 6.90254 53.6453 6.66396C53.8645 6.43085 54.172 6.31429 54.5679 6.31429H60.3805C60.7197 6.31429 60.9848 6.42036 61.176 6.63249C61.3627 6.83438 61.465 7.10001 61.4621 7.37495C61.4662 7.64698 61.3635 7.90977 61.176 8.10692C60.9848 8.31206 60.7197 8.41444 60.3805 8.41405H55.734V11.5832H59.5955C59.9207 11.5832 60.1717 11.6825 60.3485 11.881C60.5254 12.0797 60.6201 12.3382 60.6136 12.6042C60.6213 12.8673 60.5262 13.1229 60.3485 13.317C60.1721 13.5081 59.9211 13.6037 59.5955 13.6037H55.734V17.0706H60.3805C60.7197 17.0706 60.9848 17.1767 61.176 17.3888C61.3654 17.5972 61.4678 17.8702 61.4621 18.1517C61.4662 18.4236 61.3635 18.6862 61.176 18.8831C60.9848 19.0882 60.7197 19.1906 60.3805 19.1902H54.5679C54.1716 19.1902 53.8641 19.0702 53.6453 18.8301C53.4276 18.5933 53.3098 18.2815 53.3166 17.96V7.54396ZM63.1394 7.49967C63.1347 7.34358 63.1613 7.18814 63.2177 7.04251C63.274 6.89688 63.359 6.764 63.4675 6.65172C63.6866 6.42522 63.9871 6.31196 64.369 6.31196C64.7362 6.31196 65.0258 6.42522 65.238 6.65172C65.4515 6.88145 65.5659 7.18615 65.5562 7.49967V10.8098L68.8028 6.94836C68.942 6.78207 69.1066 6.63888 69.2906 6.52409C69.4931 6.39524 69.729 6.32877 69.969 6.33294C70.1199 6.32866 70.2699 6.35678 70.4091 6.41538C70.5482 6.47399 70.6732 6.56173 70.7755 6.6727C70.978 6.87556 71.0924 7.15009 71.0937 7.43673C71.0963 7.57918 71.0674 7.72046 71.0092 7.8505C70.9503 7.97378 70.8792 8.09091 70.7971 8.20017L67.4659 12.1462L70.9241 17.2385C71.0114 17.3558 71.0827 17.4842 71.1363 17.6202C71.1929 17.762 71.2218 17.9133 71.2214 18.066C71.2227 18.2173 71.1922 18.3671 71.132 18.5058C71.0717 18.6446 70.9831 18.7691 70.8717 18.8714C70.7584 18.9824 70.624 19.0696 70.4765 19.1277C70.3289 19.1859 70.1712 19.2139 70.0127 19.21C69.7646 19.2159 69.5206 19.146 69.3133 19.0095C69.1257 18.8858 68.9667 18.7232 68.8471 18.5328L65.854 14.0559L65.5567 14.3741V18.0025C65.5614 18.1587 65.5347 18.3143 65.4783 18.46C65.4218 18.6058 65.3367 18.7387 65.2281 18.851C65.0089 19.0775 64.7156 19.1906 64.3481 19.1902C63.9669 19.1902 63.6701 19.0737 63.4576 18.8405C63.248 18.6124 63.1342 18.3123 63.14 18.0025L63.1394 7.49967ZM71.9586 17.8323L75.2046 7.45887C75.3162 7.12094 75.5328 6.82749 75.8229 6.62137C76.113 6.41525 76.4614 6.30725 76.8172 6.31313C77.1773 6.30601 77.5291 6.42196 77.8143 6.64182C78.0883 6.84933 78.295 7.13317 78.4082 7.45771L81.6333 17.7053C81.6747 17.8283 81.6961 17.9572 81.6968 18.087C81.7021 18.237 81.6743 18.3862 81.6154 18.5242C81.5564 18.6622 81.4679 18.7855 81.3559 18.8854C81.1302 19.0907 80.8339 19.201 80.5289 19.1931C80.2171 19.1931 79.963 19.1051 79.7649 18.9285C79.5739 18.7625 79.4344 18.5453 79.3628 18.3026L78.9175 16.7763H74.6953L74.292 18.175C74.2178 18.4356 74.0835 18.6751 73.8998 18.8743C73.7087 19.0865 73.4435 19.1923 73.1043 19.192C72.8061 19.1914 72.5174 19.0864 72.2884 18.8953C72.1696 18.8064 72.0736 18.6903 72.0087 18.5568C71.9437 18.4233 71.9115 18.2762 71.9149 18.1278C71.9175 18.0279 71.9322 17.9287 71.9586 17.8323ZM78.3021 14.7529L76.7956 9.78824L75.3107 14.7529H78.3021ZM88.5007 6.31371C89.5474 6.31371 90.4348 6.48699 91.1629 6.83355C91.891 7.18011 92.478 7.64633 92.924 8.23222C93.3805 8.84262 93.7087 9.53901 93.8891 10.2795C94.2854 11.8961 94.2854 13.5845 93.8891 15.2011C93.7074 15.9443 93.3793 16.6439 92.924 17.2589C92.4645 17.8642 91.8644 18.3484 91.1757 18.6698C90.455 19.016 89.5641 19.189 88.5031 19.189C87.442 19.189 86.551 19.016 85.8299 18.6698C85.1411 18.3485 84.541 17.8643 84.0815 17.2589C83.6259 16.6441 83.2976 15.9445 83.1159 15.2011C82.7204 13.5844 82.7204 11.8962 83.1159 10.2795C83.2962 9.53888 83.6247 8.84244 84.0815 8.23222C84.5437 7.63254 85.1434 7.15282 85.8299 6.83355C86.5514 6.48738 87.4424 6.3141 88.5031 6.31371H88.5007ZM85.2518 12.7418C85.2498 13.2958 85.2923 13.849 85.3788 14.3963C85.4519 14.8848 85.614 15.3557 85.8573 15.7856C86.091 16.1895 86.433 16.5201 86.8445 16.7402C87.2691 16.9733 87.8212 17.0899 88.5007 17.0899C89.1803 17.0899 89.7324 16.9733 90.157 16.7402C90.5693 16.5203 90.912 16.1897 91.1466 15.7856C91.3896 15.3557 91.5516 14.8847 91.6244 14.3963C91.7946 13.2996 91.7946 12.1833 91.6244 11.0867C91.5526 10.6013 91.3905 10.1336 91.1466 9.70782C90.9098 9.30894 90.5684 8.98245 90.1593 8.76371C89.7347 8.5306 89.1826 8.41405 88.5031 8.41405C87.8096 8.41405 87.2503 8.5306 86.8253 8.76371C86.4161 8.98228 86.0746 9.30881 85.838 9.70782C85.595 10.133 85.4366 10.6012 85.3718 11.0867C85.2921 11.6347 85.2527 12.1879 85.2541 12.7418H85.2518Z" fill="url(#paint0_linear_1004_4067)"/>
<mask id="mask0_1004_4067" style="mask-type:luminance" maskUnits="userSpaceOnUse" x="0" y="0" width="24" height="25">
<path d="M12 24.761C18.6274 24.761 24 19.3884 24 12.761C24 6.13357 18.6274 0.760986 12 0.760986C5.37258 0.760986 0 6.13357 0 12.761C0 19.3884 5.37258 24.761 12 24.761Z" fill="white"/>
</mask>
<g mask="url(#mask0_1004_4067)">
<path d="M12.0331 24.7003C18.6408 24.7003 23.9975 19.3437 23.9975 12.7359C23.9975 6.12809 18.6408 0.771423 12.0331 0.771423C5.42527 0.771423 0.0686035 6.12809 0.0686035 12.7359C0.0686035 19.3437 5.42527 24.7003 12.0331 24.7003Z" fill="url(#paint1_linear_1004_4067)"/>
<path d="M18.9244 14.8933C18.6068 11.9969 16.9365 10.0854 16.8421 9.98283C16.9289 10.0067 14.7954 8.17621 14.8403 8.32598C14.1275 7.56837 12.2562 7.51009 12.0074 7.50543H11.9666C11.7177 7.51009 9.84644 7.57012 9.13428 8.32598C9.17915 8.17796 7.0456 10.0067 7.13185 9.98283C7.04269 10.0854 5.37186 11.9969 5.05483 14.8933C5.05483 14.8933 3.7395 18.5275 4.07576 22.3237C4.17891 23.4893 4.40037 24.2469 4.84678 24.9503C5.46277 25.9189 6.29848 26.4492 6.802 26.7127C6.802 26.7127 7.30668 29.0601 7.2857 29.51C7.2857 29.51 8.30673 29.9255 9.38371 29.9278C9.87324 29.9308 10.3744 29.8486 10.801 29.605C10.801 29.605 10.9788 27.7133 11.23 27.5752C11.448 27.6106 11.6678 27.6334 11.8885 27.6434C11.9221 27.6444 11.9557 27.6416 11.9887 27.6352C12.0219 27.6416 12.0557 27.6444 12.0896 27.6434C12.3094 27.6341 12.5285 27.6121 12.7458 27.5775C12.9969 27.7156 13.1747 29.6073 13.1747 29.6073C13.6001 29.8509 14.1025 29.9331 14.5926 29.9302C15.6713 29.9302 16.6906 29.5123 16.6906 29.5123C16.6696 29.0601 17.1749 26.715 17.1749 26.715C17.6784 26.4516 18.5153 25.9212 19.1301 24.9527C19.5812 24.2469 19.7997 23.4893 19.9029 22.3237C20.2397 18.5275 18.9244 14.8933 18.9244 14.8933Z" fill="white"/>
<path d="M8.21537 10.4858C8.95307 10.4858 9.5511 9.88776 9.5511 9.15006C9.5511 8.41236 8.95307 7.81433 8.21537 7.81433C7.47766 7.81433 6.87964 8.41236 6.87964 9.15006C6.87964 9.88776 7.47766 10.4858 8.21537 10.4858Z" fill="white"/>
<path d="M15.8855 10.4858C16.6232 10.4858 17.2213 9.88776 17.2213 9.15006C17.2213 8.41236 16.6232 7.81433 15.8855 7.81433C15.1478 7.81433 14.5498 8.41236 14.5498 9.15006C14.5498 9.88776 15.1478 10.4858 15.8855 10.4858Z" fill="white"/>
<path d="M19.0865 15.4376C19.5458 15.9464 21.0452 17.7367 20.8349 20.0888C20.7766 20.7427 20.66 21.9601 19.6728 22.7066C18.9962 23.2177 17.9215 23.4747 17.0066 23.0371C16.8487 22.9613 16.1511 22.6291 15.8935 21.8505C15.6277 21.0498 15.9547 20.157 16.566 19.6424C17.2502 19.0672 18.0742 19.1464 18.2357 19.1657C18.3746 19.1829 18.5125 19.2074 18.6489 19.2391C18.8083 19.2812 18.963 19.3398 19.1104 19.4139" fill="white"/>
<path d="M4.93889 15.5005C4.55192 15.9225 2.99824 17.711 3.24184 20.0888C3.30594 20.7188 3.40909 21.9537 4.4039 22.7066C5.0805 23.2177 6.15515 23.4747 7.07011 23.037C7.22804 22.9613 7.92563 22.6291 8.18322 21.8505C8.44897 21.0498 8.12494 20.157 7.51069 19.6424C6.82651 19.0672 6.00304 19.1464 5.84103 19.1656C5.53638 19.1929 5.23971 19.278 4.96686 19.4162" fill="white"/>
<path d="M12.0097 14.5868C12.0016 14.5868 11.9936 14.5852 11.9861 14.5821C11.9787 14.5789 11.9719 14.5744 11.9662 14.5686C11.9605 14.5629 11.956 14.5561 11.953 14.5486C11.9499 14.5411 11.9484 14.5331 11.9485 14.525V12.5132C11.95 12.498 11.9571 12.4838 11.9685 12.4735C11.9798 12.4632 11.9946 12.4575 12.01 12.4575C12.0253 12.4575 12.0401 12.4632 12.0515 12.4735C12.0628 12.4838 12.07 12.498 12.0715 12.5132V14.525C12.0715 14.5414 12.0649 14.5571 12.0534 14.5687C12.0418 14.5803 12.0261 14.5868 12.0097 14.5868Z" fill="url(#paint2_linear_1004_4067)"/>
<path d="M14.0012 13.99C13.8059 13.7015 13.5262 13.617 13.2371 13.6333C13.2136 13.7836 13.1768 13.9314 13.127 14.0751C13.1165 14.1019 13.0984 14.1433 13.0687 14.145C13.039 14.1468 13.0104 14.0972 12.9988 14.0704C12.9353 13.9451 12.8735 13.8076 12.8327 13.712C12.687 13.7492 12.5462 13.8034 12.4131 13.8734C12.2732 13.9516 12.138 14.0378 12.0081 14.1316C11.8343 14.0308 11.6549 13.9399 11.4707 13.8595C11.3533 13.8016 11.2308 13.7546 11.1048 13.719C11.0645 13.7097 10.441 13.5821 10.163 13.9754C9.96892 14.2511 10.0773 14.6206 10.0942 14.6748C10.1886 14.9731 10.4509 15.2156 10.8221 15.3799C11.0168 15.0524 11.4894 14.821 12.0424 14.821C12.5955 14.821 13.0617 15.0495 13.2593 15.3735C13.2948 15.356 13.331 15.3374 13.3665 15.3152C13.5328 15.2232 13.6877 15.1119 13.8281 14.9836C13.9971 14.8131 14.092 14.5827 14.0921 14.3426C14.0883 14.2198 14.0572 14.0993 14.0012 13.99Z" fill="url(#paint3_linear_1004_4067)"/>
<path d="M12.01 11.5528C12.01 11.5528 11.4079 11.5155 11.3986 11.945C11.3893 12.3745 11.7436 12.6362 12.01 12.5896C12.2763 12.6362 12.6306 12.3745 12.6213 11.945C12.612 11.5155 12.01 11.5528 12.01 11.5528Z" fill="url(#paint4_linear_1004_4067)"/>
<path d="M4.72046 15.9225L5.18901 14.0471L5.58239 15.4301L4.72046 15.9225Z" fill="white"/>
<path d="M19.2575 15.9225L18.789 14.0471L18.395 15.4301L19.2575 15.9225Z" fill="white"/>
<path opacity="0.31" d="M5.22511 19.3038C5.22511 19.3318 6.33763 18.9139 7.25084 19.453C7.85402 19.8096 8.27013 20.5241 8.27537 21.2071C8.28236 22.0364 7.68094 22.6361 7.68735 22.6402C7.69376 22.6443 8.40067 21.9741 8.37153 21.0416C8.34997 20.3458 7.92279 19.6639 7.30854 19.3195C6.32889 18.7688 5.22161 19.2758 5.22511 19.3038Z" fill="url(#paint5_linear_1004_4067)"/>
<path opacity="0.31" d="M18.8551 19.3038C18.8516 19.3318 17.7419 18.9139 16.8287 19.453C16.2256 19.8096 15.8095 20.5241 15.8042 21.2071C15.7972 22.0364 16.3986 22.6361 16.3922 22.6402C16.3858 22.6443 15.6766 21.9741 15.708 21.0416C15.7296 20.3458 16.1568 19.6639 16.771 19.3195C17.7507 18.7688 18.858 19.2758 18.8551 19.3038Z" fill="url(#paint6_linear_1004_4067)"/>
<path d="M14.3276 13.1962C14.1076 13.1962 13.8925 13.131 13.7095 13.0087C13.5266 12.8865 13.384 12.7127 13.2998 12.5095C13.2156 12.3062 13.1935 12.0825 13.2365 11.8667C13.2794 11.6509 13.3853 11.4526 13.5409 11.297C13.6965 11.1415 13.8948 11.0355 14.1106 10.9926C14.3264 10.9496 14.5501 10.9717 14.7534 11.0559C14.9566 11.1401 15.1304 11.2827 15.2526 11.4656C15.3749 11.6486 15.4401 11.8637 15.4401 12.0837C15.4398 12.3787 15.3225 12.6615 15.1139 12.8701C14.9054 13.0786 14.6226 13.1959 14.3276 13.1962ZM14.3276 11.0452C14.1222 11.0452 13.9214 11.1061 13.7506 11.2202C13.5799 11.3343 13.4468 11.4965 13.3682 11.6863C13.2896 11.8761 13.269 12.0849 13.3091 12.2863C13.3491 12.4878 13.448 12.6728 13.5933 12.8181C13.7385 12.9633 13.9236 13.0622 14.125 13.1023C14.3265 13.1423 14.5353 13.1218 14.725 13.0432C14.9148 12.9646 15.077 12.8315 15.1911 12.6607C15.3052 12.4899 15.3661 12.2891 15.3661 12.0837C15.3658 11.8084 15.2563 11.5444 15.0616 11.3497C14.8669 11.155 14.6029 11.0455 14.3276 11.0452Z" fill="url(#paint7_linear_1004_4067)"/>
<path d="M14.1134 12.2263C14.1312 12.1171 14.057 12.0141 13.9477 11.9963C13.8384 11.9786 13.7354 12.0528 13.7177 12.1621C13.6999 12.2714 13.7741 12.3744 13.8834 12.3921C13.9927 12.4098 14.0957 12.3356 14.1134 12.2263Z" fill="url(#paint8_linear_1004_4067)"/>
<path d="M9.65217 13.1962C9.43211 13.1964 9.21696 13.1312 9.03393 13.009C8.8509 12.8869 8.70821 12.7131 8.62392 12.5099C8.53962 12.3066 8.51751 12.0829 8.56037 11.867C8.60323 11.6512 8.70914 11.4529 8.86471 11.2972C9.02027 11.1416 9.21851 11.0356 9.43433 10.9926C9.65016 10.9496 9.87388 10.9716 10.0772 11.0558C10.2805 11.14 10.4543 11.2826 10.5766 11.4656C10.6988 11.6485 10.7641 11.8637 10.7641 12.0837C10.7638 12.3786 10.6466 12.6613 10.4381 12.8698C10.2297 13.0784 9.94703 13.1958 9.65217 13.1962ZM9.65217 11.0452C9.44677 11.0452 9.24599 11.1061 9.0752 11.2202C8.90442 11.3343 8.77131 11.4965 8.69271 11.6863C8.61411 11.8761 8.59354 12.0849 8.63361 12.2863C8.67368 12.4878 8.77259 12.6728 8.91783 12.8181C9.06307 12.9633 9.24812 13.0622 9.44957 13.1023C9.65102 13.1423 9.85983 13.1218 10.0496 13.0432C10.2394 12.9646 10.4015 12.8315 10.5157 12.6607C10.6298 12.4899 10.6907 12.2891 10.6907 12.0837C10.6904 11.8084 10.5809 11.5444 10.3862 11.3497C10.1915 11.155 9.92751 11.0455 9.65217 11.0452Z" fill="url(#paint9_linear_1004_4067)"/>
<path d="M10.1186 12.391C10.2279 12.3733 10.3021 12.2703 10.2843 12.161C10.2666 12.0517 10.1636 11.9775 10.0543 11.9952C9.94504 12.013 9.87083 12.1159 9.88857 12.2252C9.90631 12.3345 10.0093 12.4087 10.1186 12.391Z" fill="url(#paint10_linear_1004_4067)"/>
<path opacity="0.31" d="M10.7278 15.3922C10.7243 15.4027 11.3013 15.7698 12.0746 15.7588C12.8141 15.7477 13.3567 15.3957 13.3567 15.3852C12.9514 15.597 12.501 15.7082 12.0437 15.7094C11.5864 15.7106 11.1354 15.6018 10.729 15.3922H10.7278Z" fill="url(#paint11_linear_1004_4067)"/>
</g>
<defs>
<linearGradient id="paint0_linear_1004_4067" x1="30.1296" y1="12.761" x2="94.1887" y2="12.761" gradientUnits="userSpaceOnUse">
<stop stop-color="#3C098D"/>
<stop offset="0.53" stop-color="#4F039A"/>
<stop offset="1" stop-color="#80058C"/>
</linearGradient>
<linearGradient id="paint1_linear_1004_4067" x1="0.0686035" y1="12.7359" x2="23.9981" y2="12.7359" gradientUnits="userSpaceOnUse">
<stop stop-color="#3C098D"/>
<stop offset="0.53" stop-color="#4F039A"/>
<stop offset="1" stop-color="#80058C"/>
</linearGradient>
<linearGradient id="paint2_linear_1004_4067" x1="11.9485" y1="13.5191" x2="12.0715" y2="13.5191" gradientUnits="userSpaceOnUse">
<stop stop-color="#3C098D"/>
<stop offset="0.53" stop-color="#4F039A"/>
<stop offset="1" stop-color="#80058C"/>
</linearGradient>
<linearGradient id="paint3_linear_1004_4067" x1="10.0493" y1="14.5058" x2="14.0932" y2="14.5058" gradientUnits="userSpaceOnUse">
<stop stop-color="#3C098D"/>
<stop offset="0.53" stop-color="#4F039A"/>
<stop offset="1" stop-color="#80058C"/>
</linearGradient>
<linearGradient id="paint4_linear_1004_4067" x1="11.3986" y1="12.0732" x2="12.6213" y2="12.0732" gradientUnits="userSpaceOnUse">
<stop stop-color="#3C098D"/>
<stop offset="0.53" stop-color="#4F039A"/>
<stop offset="1" stop-color="#80058C"/>
</linearGradient>
<linearGradient id="paint5_linear_1004_4067" x1="5.22452" y1="20.8528" x2="8.37211" y2="20.8528" gradientUnits="userSpaceOnUse">
<stop stop-color="#3C098D"/>
<stop offset="0.53" stop-color="#4F039A"/>
<stop offset="1" stop-color="#80058C"/>
</linearGradient>
<linearGradient id="paint6_linear_1004_4067" x1="18.8551" y1="20.8528" x2="15.7075" y2="20.8528" gradientUnits="userSpaceOnUse">
<stop stop-color="#3C098D"/>
<stop offset="0.53" stop-color="#4F039A"/>
<stop offset="1" stop-color="#80058C"/>
</linearGradient>
<linearGradient id="paint7_linear_1004_4067" x1="13.2151" y1="12.0837" x2="15.4401" y2="12.0837" gradientUnits="userSpaceOnUse">
<stop stop-color="#3C098D"/>
<stop offset="0.53" stop-color="#4F039A"/>
<stop offset="1" stop-color="#80058C"/>
</linearGradient>
<linearGradient id="paint8_linear_1004_4067" x1="13.7156" y1="12.1936" x2="14.1171" y2="12.1936" gradientUnits="userSpaceOnUse">
<stop stop-color="#3C098D"/>
<stop offset="0.53" stop-color="#4F039A"/>
<stop offset="1" stop-color="#80058C"/>
</linearGradient>
<linearGradient id="paint9_linear_1004_4067" x1="8.53965" y1="12.0837" x2="10.7641" y2="12.0837" gradientUnits="userSpaceOnUse">
<stop stop-color="#3C098D"/>
<stop offset="0.53" stop-color="#4F039A"/>
<stop offset="1" stop-color="#80058C"/>
</linearGradient>
<linearGradient id="paint10_linear_1004_4067" x1="9.8856" y1="12.1935" x2="10.2866" y2="12.1935" gradientUnits="userSpaceOnUse">
<stop stop-color="#3C098D"/>
<stop offset="0.53" stop-color="#4F039A"/>
<stop offset="1" stop-color="#80058C"/>
</linearGradient>
<linearGradient id="paint11_linear_1004_4067" x1="10.7278" y1="15.5717" x2="13.3555" y2="15.5717" gradientUnits="userSpaceOnUse">
<stop stop-color="#3C098D"/>
<stop offset="0.53" stop-color="#4F039A"/>
<stop offset="1" stop-color="#80058C"/>
</linearGradient>
</defs>
</svg>
