<svg width="48" height="48" viewBox="0 0 48 48" fill="none" xmlns="http://www.w3.org/2000/svg">
<g clip-path="url(#clip0_1004_4051)">
<path opacity="0.8" d="M48 23.9997C48 37.2546 37.2546 48 24.0003 48C10.7461 48 0 37.2546 0 23.9997C0 10.7447 10.7461 0 24.0003 0C37.2546 0 48 10.7454 48 23.9997Z" fill="#FD7900"/>
<path d="M32.3715 13.648L55.6542 32.1074L32.5725 53.3233L11 37.5L32.3715 13.648Z" fill="#FD7900"/>
<path d="M30.5555 16.7871C32.3903 16.3797 34.7801 14.5586 35.1438 13.6617C35.3571 13.1367 34.2934 12.3164 34.009 11.9855C33.3582 11.2309 33.6207 10.859 33.8723 9.95937C34.1594 8.93672 33.4785 7.80742 32.5133 7.36445C31.5481 6.92148 30.3942 7.06094 29.4235 7.49297C28.4528 7.925 27.6243 8.61953 26.8121 9.30312C26.2188 8.92852 25.2727 7.27422 23.7414 8.34883C22.6832 9.08984 22.5875 10.7031 22.7243 11.991C23.0442 14.9633 23.777 16.5055 25.1578 16.9211C26.9024 17.4461 28.8328 17.1699 30.5555 16.7871Z" fill="white"/>
<path d="M33.5359 8.23669C33.3035 12.2426 29.3961 14.9004 27.5422 16.0707L28.7453 17.1043C28.7453 17.1043 29.5082 17.1207 30.5527 16.7871C32.3437 16.2183 34.9605 14.6105 35.141 13.6617C35.4062 12.2808 33.9898 12.5816 33.6699 11.4906C33.5031 10.9136 34.482 9.82263 33.5359 8.23669ZM26.8148 9.30583C26.8148 9.30583 26.1175 8.59216 25.6008 8.26677C25.3437 8.75076 25.1605 9.27576 25.0703 9.81716C24.909 10.7687 25.0703 12.1195 25.4504 13.1258C25.5105 13.2816 25.7347 13.257 25.7593 13.0929C26.0875 10.9301 26.8148 9.30583 26.8148 9.30583Z" fill="#EBEEF2"/>
<path d="M21.9421 16.4344C21.9421 16.4344 13.4136 17.3559 9.56633 24.7605C5.71907 32.1652 8.98938 36.6551 12.4511 38.2902C15.9128 39.9254 24.6355 40.5023 30.3093 39.157C35.9831 37.8117 37.4023 35.0227 37.137 32.3293C36.7515 28.3973 33.0984 25.9801 33.0984 25.9801C33.0984 25.9801 33.2433 21.1238 29.4753 17.9711C26.1312 15.1711 21.9421 16.4344 21.9421 16.4344Z" fill="white"/>
<path d="M27.3317 14.7391C29.6395 15.491 30.1508 17.5774 29.984 18.1461C29.7844 18.8133 27.2277 16.2156 23.427 16.3715C22.0981 16.4262 22.4836 15.6114 23.0988 15.141C23.9109 14.5203 25.2754 14.0719 27.3317 14.7391Z" fill="#FFCC00"/>
<path d="M27.3317 14.7391C29.6395 15.491 30.1508 17.5774 29.984 18.1461C29.7844 18.8133 27.2277 16.2156 23.427 16.3715C22.0981 16.4262 22.4836 15.6114 23.0988 15.141C23.9109 14.5203 25.2754 14.0719 27.3317 14.7391Z" fill="#FFCC00"/>
<path d="M31.3841 22.0945C31.6739 21.8949 32.6474 22.2395 32.9208 24.1453C33.0548 25.0777 33.0958 25.9801 33.0958 25.9801C33.0958 25.9801 31.9474 24.9492 31.5673 24.2246C31.0888 23.3086 30.9028 22.4227 31.3841 22.0945Z" fill="#EBEEF2"/>
<path d="M23.5671 27.7878C24.2774 27.9075 24.7491 28.1633 24.9823 28.5551C25.2261 28.9361 25.3481 29.3878 25.3481 29.9102C25.3481 30.019 25.3428 30.1007 25.3322 30.1551C25.1413 31.4286 24.6378 32.3483 23.8216 32.9143C23.0159 33.4803 22.0459 33.785 20.9117 33.8286L20.4823 35.6898C20.4823 35.7769 20.4028 35.8476 20.2438 35.902C20.0954 35.9673 19.9364 36 19.7668 36C19.5972 36 19.4435 35.9728 19.3057 35.9184C19.1678 35.8639 19.0989 35.7878 19.0989 35.6898L19.5601 33.7143C19.2208 33.649 18.9452 33.551 18.7332 33.4204C18.5742 33.5401 18.2774 33.6 17.8428 33.6C17.5565 33.6 17.3551 33.4857 17.2385 33.2571C17.1219 33.0177 17.0636 32.7293 17.0636 32.3918C17.0636 32.2721 17.0795 32.1578 17.1113 32.049L18.8922 24.7347C18.1396 24.9959 17.6731 25.268 17.4929 25.551C17.1643 25.1918 17 24.8599 17 24.5551C17 24.3156 17.0901 24.0707 17.2703 23.8204C17.6943 23.5374 18.3834 23.2707 19.3375 23.0204C19.4223 22.7918 19.5283 22.634 19.6555 22.5469C19.7933 22.4599 19.9947 22.4163 20.2597 22.4163C20.4823 22.4163 20.689 22.4381 20.8799 22.4816C21.0813 22.5252 21.2244 22.5905 21.3092 22.6776C21.6696 22.634 21.9452 22.6068 22.136 22.5959L22.311 21.8286C22.3322 21.6653 22.3534 21.4476 22.3746 21.1755C22.3958 20.9034 22.4117 20.6912 22.4223 20.5388C22.4541 20.3864 22.5548 20.2612 22.7244 20.1633C22.9046 20.0544 23.0689 20 23.2173 20C23.4399 20 23.6148 20.0653 23.742 20.1959C23.8799 20.3156 23.9488 20.4789 23.9488 20.6857C23.9488 20.7401 23.9382 20.8218 23.917 20.9306L23.5194 22.6122C24.3675 22.7102 24.9929 22.9714 25.3958 23.3959C25.7986 23.8204 26 24.381 26 25.0776C26 25.7415 25.7721 26.3129 25.3163 26.7918C24.8604 27.2599 24.2774 27.5918 23.5671 27.7878ZM21.0389 24.2776L20.3392 27.3633C20.4664 27.3524 20.7049 27.3252 21.0548 27.2816L21.7544 24.2122L21.0389 24.2776ZM22.5336 26.9061C23.3922 26.5469 23.8216 26.0027 23.8216 25.2735C23.8216 24.751 23.5936 24.419 23.1378 24.2776L22.5336 26.9061ZM21.3092 32.1306C21.8816 31.9782 22.3587 31.7225 22.7403 31.3633C23.1219 30.9932 23.3127 30.5524 23.3127 30.0408C23.3127 29.7034 23.2067 29.4095 22.9947 29.1592C22.7827 28.898 22.4859 28.7456 22.1042 28.702L21.3092 32.1306ZM19.242 32.049C19.4435 32.1252 19.6661 32.1796 19.9099 32.2122L20.7208 28.7184C20.5724 28.7184 20.3604 28.7401 20.0848 28.7837C19.9152 29.3714 19.6343 30.4599 19.242 32.049Z" fill="#FFCC00"/>
</g>
<defs>
<clipPath id="clip0_1004_4051">
<rect width="48.0001" height="48.0002" rx="24.0001" fill="white"/>
</clipPath>
</defs>
</svg>
