<svg width="48" height="48" viewBox="0 0 48 48" fill="none" xmlns="http://www.w3.org/2000/svg">
<g clip-path="url(#clip0_1004_3953)">
<path opacity="0.4" d="M48 23.9988C48 37.2555 37.2567 48 23.9995 48C10.7463 48 0 37.256 0 23.9988C0 10.746 10.7463 0 23.9995 0C37.2572 0 48 10.746 48 23.9988Z" fill="#0094FF"/>
<path opacity="0.4" d="M28.7588 8.01367L55.8791 28.486L34.2487 57.1405L11.4258 39.8535L28.7588 8.01367Z" fill="#0094FF"/>
<path d="M11.4248 21.3818H34.0886V39.8669H11.4248V21.3818Z" fill="white"/>
<path d="M12.8835 18.4384H12.9053L12.9162 18.4037L22.7569 18.421L32.5977 18.4037L32.6086 18.4384H32.6304L34.0911 21.3774H11.4228L12.8835 18.4384Z" fill="#EBEEF2"/>
<path d="M21.173 21.3818H24.3411V29.0456H21.173V21.3818Z" fill="#1999AD"/>
<path d="M21.6086 18.42H21.8133H23.7002H23.9049L24.3411 21.3774H21.1725L21.6086 18.42Z" fill="#1999AD"/>
<path d="M13.2703 37.9136H17.5031C17.7898 37.9136 18.0222 38.1461 18.0222 38.4328C18.0222 38.7195 17.7898 38.952 17.5031 38.952H13.2703C12.9836 38.952 12.7512 38.7195 12.7512 38.4328C12.7512 38.1461 12.9836 37.9136 13.2703 37.9136Z" fill="#1999AD"/>
<path d="M30.011 22.8395H32.9397C33.1308 22.8395 33.2856 22.9944 33.2856 23.1854C33.2856 23.3765 33.1308 23.5314 32.9397 23.5314H30.011C29.8199 23.5314 29.6651 23.3765 29.6651 23.1854C29.6651 22.9944 29.8199 22.8395 30.011 22.8395Z" fill="#1999AD"/>
<path d="M26.603 22.8395H28.6797C28.8708 22.8395 29.0256 22.9944 29.0256 23.1854C29.0256 23.3765 28.8708 23.5314 28.6797 23.5314H26.603C26.4119 23.5314 26.257 23.3765 26.257 23.1854C26.257 22.9944 26.4119 22.8395 26.603 22.8395Z" fill="#1999AD"/>
<path d="M31.6082 24.2792H32.9395C33.1307 24.2792 33.2856 24.4342 33.2856 24.6254C33.2856 24.8166 33.1307 24.9716 32.9395 24.9716H31.6082C31.417 24.9716 31.262 24.8166 31.262 24.6254C31.262 24.4342 31.417 24.2792 31.6082 24.2792Z" fill="#1999AD"/>
<path d="M26.6038 24.2792H27.9346C28.1258 24.2792 28.2808 24.4342 28.2808 24.6254C28.2808 24.8166 28.1258 24.9716 27.9346 24.9716H26.6038C26.4126 24.9716 26.2576 24.8166 26.2576 24.6254C26.2576 24.4342 26.4126 24.2792 26.6038 24.2792Z" fill="#1999AD"/>
<path d="M29.1057 24.2792H30.4365C30.6277 24.2792 30.7827 24.4342 30.7827 24.6254C30.7827 24.8166 30.6277 24.9716 30.4365 24.9716H29.1057C28.9145 24.9716 28.7595 24.8166 28.7595 24.6254C28.7595 24.4342 28.9145 24.2792 29.1057 24.2792Z" fill="#1999AD"/>
<path d="M15.8855 9.8103H29.6284V21.0192H15.8855V9.8103Z" fill="white"/>
<path d="M16.7697 8.02558H16.7831L16.7895 8.00427L22.757 8.01468L28.7239 8.00427L28.7303 8.02558H28.7437L29.6294 9.80782H15.884L16.7697 8.02558Z" fill="#EBEEF2"/>
<path d="M21.796 9.8103H23.717V14.4572H21.796V9.8103Z" fill="#1999AD"/>
<path d="M22.0606 8.01416H22.185H23.329H23.4529L23.717 9.8078H21.796L22.0606 8.01416Z" fill="#1999AD"/>
<path d="M17.0041 19.8347H19.571C19.7448 19.8347 19.8857 19.9756 19.8857 20.1494C19.8857 20.3232 19.7448 20.4641 19.571 20.4641H17.0041C16.8303 20.4641 16.6894 20.3232 16.6894 20.1494C16.6894 19.9756 16.8303 19.8347 17.0041 19.8347Z" fill="#1999AD"/>
<path d="M27.1554 10.694H28.9312C29.0471 10.694 29.1411 10.7879 29.1411 10.9039C29.1411 11.0198 29.0471 11.1138 28.9312 11.1138H27.1554C27.0394 11.1138 26.9455 11.0198 26.9455 10.9039C26.9455 10.7879 27.0394 10.694 27.1554 10.694Z" fill="#1999AD"/>
<path d="M25.089 10.694H26.3485C26.4644 10.694 26.5583 10.7879 26.5583 10.9039C26.5583 11.0198 26.4644 11.1138 26.3485 11.1138H25.089C24.9731 11.1138 24.8791 11.0198 24.8791 10.9039C24.8791 10.7879 24.9731 10.694 25.089 10.694Z" fill="#1999AD"/>
<path d="M28.1238 11.5673H28.9312C29.0471 11.5673 29.1411 11.6612 29.1411 11.7772C29.1411 11.8931 29.0471 11.987 28.9312 11.987H28.1238C28.0079 11.987 27.9139 11.8931 27.9139 11.7772C27.9139 11.6612 28.0079 11.5673 28.1238 11.5673Z" fill="#1999AD"/>
<path d="M25.0892 11.5673H25.8966C26.0125 11.5673 26.1064 11.6612 26.1064 11.7772C26.1064 11.8931 26.0125 11.987 25.8966 11.987H25.0892C24.9732 11.987 24.8793 11.8931 24.8793 11.7772C24.8793 11.6612 24.9732 11.5673 25.0892 11.5673Z" fill="#1999AD"/>
<path d="M26.6067 11.5673H27.4136C27.5296 11.5673 27.6235 11.6612 27.6235 11.7772C27.6235 11.8931 27.5296 11.987 27.4136 11.987H26.6067C26.4908 11.987 26.3968 11.8931 26.3968 11.7772C26.3968 11.6612 26.4908 11.5673 26.6067 11.5673Z" fill="#1999AD"/>
</g>
<defs>
<clipPath id="clip0_1004_3953">
<rect width="48" height="48" rx="24" fill="white"/>
</clipPath>
</defs>
</svg>
