<svg width="49" height="48" viewBox="0 0 49 48" fill="none" xmlns="http://www.w3.org/2000/svg">
<g clip-path="url(#clip0_1004_3954)">
<path opacity="0.4" d="M48.397 23.9988C48.397 37.2555 37.6536 48 24.3965 48C11.1433 48 0.396973 37.256 0.396973 23.9988C0.396973 10.746 11.1433 0 24.3965 0C37.6541 0 48.397 10.746 48.397 23.9988Z" fill="#FDD4A0"/>
<path opacity="0.4" d="M36.8186 10.464L56.2763 28.486L34.6459 57.1405L6.71068 38.6172L36.8186 10.464Z" fill="#F1BD79"/>
<path d="M29.9543 10.4767V20.2214L28.2202 18.4873V10.4767H29.9543Z" fill="#F87F02"/>
<path d="M28.2202 10.4767V18.4873L26.7086 16.9757C26.1331 17.5512 24.0001 19.6919 23.3862 20.3058V10.4767H28.2202Z" fill="#FEC233"/>
<path d="M37.5201 11.4282V13.9219C36.6761 13.9219 35.8857 14.1291 35.1875 14.4897V10.4767H36.5686C37.0904 10.4767 37.5201 10.8988 37.5201 11.4282Z" fill="#F87F02"/>
<path d="M37.5201 24.127V27.7026L35.1875 28.8305V23.5592C35.8857 23.9198 36.6761 24.127 37.5201 24.127Z" fill="#F87F02"/>
<path d="M32.9546 16.7302C31.6809 19.1088 32.7474 22.3928 35.1798 23.5591V28.8304L28.2741 32.1681H28.0593C29.4404 31.0939 29.2793 28.8227 27.737 27.971L22.0974 24.7177L20.3787 23.7279L19.4963 23.1985C18.3914 22.5309 17.0333 22.4082 15.8286 22.8532V11.4282C15.8286 10.9064 16.2506 10.4767 16.7801 10.4767H23.3865V20.3058L26.7088 16.9757L29.9622 20.229V10.4844H35.1874V14.4974C34.2206 14.9808 33.438 15.7634 32.9546 16.7302Z" fill="#FFA001"/>
<path d="M44.4252 29.4135L31.174 39.35C30.1612 40.1019 28.8952 40.4088 27.6522 40.2017C24.0459 39.6799 16.4036 38.153 12.7974 37.3627V36.1734C16.3346 36.9407 23.762 38.4292 27.2839 38.9433C28.4885 39.1505 29.7315 38.8436 30.7137 38.107L43.6426 28.4237C44.4866 27.8022 44.7782 26.6129 44.3178 25.6691C45.6068 26.4518 45.6836 28.5388 44.4252 29.4135Z" fill="#FCC6AE"/>
<path d="M43.6499 28.4237L30.721 38.107C29.7389 38.8436 28.4958 39.1428 27.2912 38.9433C23.7923 38.4369 16.3035 36.9407 12.8047 36.1734V23.8353L15.8355 22.8455L15.989 22.7918C17.1629 22.4082 18.452 22.5463 19.5108 23.1908L20.3932 23.7202C21.5288 24.3724 26.5239 27.2575 27.7516 27.971C29.4166 28.8688 29.4319 31.4699 27.7746 32.3753C31.12 30.8714 38.839 27.0426 42.0693 25.5157C42.8059 25.1551 43.6729 25.2241 44.3405 25.6768C44.7855 26.6129 44.4862 27.8022 43.6499 28.4237Z" fill="#FEDDCC"/>
<path d="M26.447 33.1502C25.9252 33.1502 25.4188 33.0121 24.9661 32.7512L20.0631 29.9199C19.595 29.6437 20.0017 28.9224 20.4774 29.1986L25.3804 32.03C26.0403 32.4136 26.892 32.4059 27.5365 32.0146C27.7897 31.8305 28.1043 31.5849 28.3729 31.8995C28.887 32.6822 27.0071 33.1886 26.447 33.1502Z" fill="#FCC6AE"/>
<path d="M12.7972 23.1141V37.731C12.7972 38.483 12.191 39.0891 11.4391 39.0891H10.0503C10.8022 39.0891 11.4084 38.483 11.4084 37.731V23.1141C11.4084 22.3621 10.8022 21.756 10.0503 21.756H11.4391C12.191 21.756 12.7972 22.3698 12.7972 23.1141Z" fill="#EDC087"/>
<path d="M11.4087 23.1141V37.731C11.4087 38.483 10.8025 39.0891 10.0505 39.0891H7.55684C6.80489 39.0891 6.19873 38.483 6.19873 37.731V23.1141C6.19873 22.3621 6.80489 21.756 7.55684 21.756H10.0429C10.7948 21.756 11.4087 22.3698 11.4087 23.1141Z" fill="#FFF5F5"/>
<path d="M6.19861 23.3794V37.5689C6.19861 38.4085 5.49549 39.0892 4.62821 39.0892H2.42934C-1.66992 34.6879 -4.16602 28.86 -4.16602 22.4672C-4.16602 22.2821 -4.16298 22.0978 -4.15879 21.9136C-4.0274 21.8791 -3.88994 21.8591 -3.74724 21.8591H4.62821C5.49549 21.8591 6.19861 22.5398 6.19861 23.3794Z" fill="#014C7E"/>
<path d="M10.6877 23.9044V27.2344C10.6877 27.3956 10.5649 27.5183 10.4038 27.5183H9.54443C9.70557 27.5183 9.82833 27.3879 9.82833 27.2344V23.9044C9.82833 23.7433 9.69789 23.6205 9.54443 23.6205H10.3961C10.5573 23.6205 10.6877 23.7509 10.6877 23.9044Z" fill="#F88D28"/>
<path d="M9.83551 23.9044V27.2344C9.83551 27.3956 9.70507 27.5183 9.55161 27.5183H8.59249C8.43136 27.5183 8.30859 27.3879 8.30859 27.2344V23.9044C8.30859 23.7433 8.43903 23.6205 8.59249 23.6205H9.54394C9.70507 23.6205 9.83551 23.7509 9.83551 23.9044Z" fill="#FEC233"/>
<path d="M40.7809 23.1496C42.9988 21.2552 43.2721 17.9121 41.3913 15.6826C39.5105 13.4531 36.1879 13.1815 33.97 15.0759C31.7521 16.9704 31.4788 20.3135 33.3596 22.543C35.2404 24.7725 38.563 25.0441 40.7809 23.1496Z" fill="#2EB1C2"/>
<path d="M36.7869 21.346L40.3694 17.7635C40.6136 17.5193 40.6136 17.1234 40.3694 16.8793C40.1252 16.6351 39.7293 16.6351 39.4851 16.8793L35.9027 20.4617C35.6585 20.7059 35.6585 21.1018 35.9027 21.346C36.1469 21.5902 36.5428 21.5902 36.7869 21.346Z" fill="white"/>
<path d="M36.8099 20.4109L35.3161 18.9171C35.0625 18.6635 34.6514 18.6635 34.3978 18.9171C34.1442 19.1707 34.1442 19.5819 34.3978 19.8355L35.8915 21.3293C36.1451 21.5829 36.5563 21.5829 36.8099 21.3293C37.0635 21.0757 37.0635 20.6645 36.8099 20.4109Z" fill="white"/>
</g>
<defs>
<clipPath id="clip0_1004_3954">
<rect x="0.396973" width="48" height="48" rx="24" fill="white"/>
</clipPath>
</defs>
</svg>
