<svg width="48" height="49" viewBox="0 0 48 49" fill="none" xmlns="http://www.w3.org/2000/svg">
<g clip-path="url(#clip0_1004_3992)">
<path opacity="0.4" d="M48 24.5234C48 37.7802 37.2567 48.5247 23.9995 48.5247C10.7463 48.5247 0 37.7807 0 24.5234C0 11.2706 10.7463 0.524658 23.9995 0.524658C37.2572 0.524658 48 11.2706 48 24.5234Z" fill="#FD7900"/>
<path opacity="0.4" d="M38.2719 13.4764L56.7529 27.5L38.1003 54.8193L12.226 38.418C13.5057 36.6619 14.6975 35.0264 15.829 33.4737C16.2728 32.8646 24.592 34.8559 27.1676 34.2429C29.6829 33.6443 26.9316 30.486 27.3355 29.9318C30.6362 25.4022 26.4591 22.3279 29.8348 17.6955C30.7348 16.4605 30.3823 15.0483 31.3633 13.702C32.1414 12.6342 37.4248 14.6389 38.2719 13.4764Z" fill="#FD7900"/>
<path d="M38.2049 47.2091L12.0488 47.2484L12.0002 13.3787L38.155 13.3394L38.2049 47.2091Z" fill="#EBEEF2"/>
<path d="M36.0008 49.4141L9.84536 49.4527L9.79614 15.5829L35.9515 15.5437L36.0008 49.4141Z" fill="white"/>
<path d="M33.0606 24.6635C33.0606 27.2196 30.9887 29.2922 28.4319 29.2922H17.9998C15.4437 29.2922 13.3711 27.2203 13.3711 24.6635C13.3711 22.1073 15.443 20.0347 17.9998 20.0347H28.4319C30.9887 20.0347 33.0606 22.1073 33.0606 24.6635Z" fill="#EBEEF2"/>
<path d="M30.1535 33.1122H15.8376C14.9624 33.1122 14.2529 33.8217 14.2529 34.6969C14.2529 35.5721 14.9624 36.2816 15.8376 36.2816H30.1535C31.0287 36.2816 31.7382 35.5721 31.7382 34.6969C31.7382 33.8217 31.0287 33.1122 30.1535 33.1122Z" fill="#EBEEF2"/>
<path d="M30.1535 39.0119H15.8376C14.9624 39.0119 14.2529 39.7214 14.2529 40.5966C14.2529 41.4718 14.9624 42.1813 15.8376 42.1813H30.1535C31.0287 42.1813 31.7382 41.4718 31.7382 40.5966C31.7382 39.7214 31.0287 39.0119 30.1535 39.0119Z" fill="#EBEEF2"/>
<path d="M39.6716 22.2368C43.0878 19.3189 43.5087 14.1696 40.6118 10.7356C37.7149 7.30163 32.5972 6.88328 29.1811 9.80121C25.7649 12.7191 25.344 17.8684 28.2409 21.3024C31.1378 24.7364 36.2555 25.1547 39.6716 22.2368Z" fill="#FD7900"/>
<path d="M34.2979 15.1416C34.3801 15.1827 34.4726 15.1827 34.5549 15.1416L38.8608 12.6546C38.8608 12.6546 38.7889 12.593 38.7477 12.5724L35.3256 10.5993C34.7707 10.2807 34.0821 10.2807 33.5272 10.5993L30.105 12.5724C30.105 12.5724 30.0331 12.6341 29.992 12.6546L34.2979 15.1416ZM33.6813 16.5392C33.6813 16.5392 33.5786 16.5084 33.5272 16.4776L29.2212 13.9906C29.2212 13.9906 29.2007 14.0831 29.2007 14.1242V18.0807C29.2007 18.7179 29.5398 19.3139 30.105 19.6428L33.5272 21.6159C33.5272 21.6159 33.6299 21.657 33.6813 21.6776V16.5392ZM35.3256 16.4776C35.3256 16.4776 35.2537 16.5084 35.2228 16.5187V21.657C35.2228 21.657 35.2948 21.6365 35.3256 21.6159L38.7477 19.6428C39.3027 19.3242 39.6521 18.7282 39.6521 18.0807V14.1242C39.6521 14.1242 39.6418 14.0317 39.6315 13.9906L35.3256 16.4776Z" fill="white" fill-opacity="0.95"/>
</g>
<defs>
<clipPath id="clip0_1004_3992">
<rect y="0.524658" width="48" height="48" rx="24" fill="white"/>
</clipPath>
</defs>
</svg>
