<svg width="25" height="25" viewBox="0 0 25 25" fill="none" xmlns="http://www.w3.org/2000/svg">
<path d="M20.3845 2.07886H3.47464C2.96389 2.07886 2.50491 2.28518 2.17017 2.61531L5.12076 5.55547V7.1889V17.0548C5.12076 18.0692 5.94555 18.8911 6.9636 18.8911H16.7161H18.4934L21.689 22.0789C22.0134 21.7556 22.217 21.312 22.2308 20.8237V3.87391C22.2066 2.87666 21.3888 2.07886 20.3845 2.07886ZM15.9396 16.3292H8.67529C8.24391 16.3292 7.89191 15.9853 7.88156 15.5589V8.27556L7.90572 7.5259L9.48972 9.1043H10.2524H14.4419C14.8802 9.1043 15.2322 9.4585 15.2322 9.89179V14.1318V14.8333L16.7265 16.3223L15.9396 16.3292Z" fill="#009EFF"/>
<path d="M13.6413 10.3387H10.9081C10.8253 10.3387 10.7525 10.3731 10.6973 10.4247L11.1738 10.8993V11.1641V12.7597C11.1738 12.9247 11.3084 13.0554 11.4706 13.0554H13.0477H13.3342L13.8518 13.5712C13.9036 13.5196 13.9381 13.4474 13.9415 13.3683V10.6276C13.9381 10.4694 13.807 10.3387 13.6413 10.3387Z" fill="#009EFF"/>
</svg>
