<svg width="64" height="64" viewBox="0 0 64 64" fill="none" xmlns="http://www.w3.org/2000/svg">
<path opacity="0.5" d="M10.1782 43.0861C10.1782 43.0861 24.2695 58.0578 28.819 60.6095C32.4226 62.6307 48.3792 62.6588 50.6288 60.8926C52.8784 59.1264 59.4791 53.7607 57.9002 50.3642C56.3212 46.9678 44.3017 38.5337 40.2316 37.5953C36.1615 36.6568 26.3809 43.2963 26.3809 43.2963L16.3996 45.2114L10.1782 43.0861Z" fill="url(#paint0_linear_1004_3947)"/>
<path d="M29.0453 62.4099L25.2793 60.1868L25.2945 59.497L19.6124 56.1051L18.8912 56.4368L5 48.252V23.025L29.0453 37.183V62.4099Z" fill="#E8EAEB"/>
<path d="M25.2949 59.4969L19.6128 56.105L19.6845 41.1246L25.0725 44.2749L25.2949 59.4969Z" fill="url(#paint1_linear_1004_3947)"/>
<path d="M29.0454 62.4099L33.5742 59.8669V58.4024L51.468 48.4745L52.5019 49.2344L55.0731 47.7948V22.568L29.0454 37.1831V62.4099Z" fill="#E8EAEB"/>
<path d="M33.5225 57.8075L51.1486 48.2535V29.523L33.5225 39.4204V57.8075Z" fill="white"/>
<path d="M5 23.0249L31.0276 8.40985L55.073 22.5679L29.0453 37.183L5 23.0249Z" fill="url(#paint2_linear_1004_3947)"/>
<path d="M11.3301 22.9682L30.777 12.0484L48.7429 22.6267L29.2959 33.5466L11.3301 22.9682Z" fill="#EAEAE9"/>
<path d="M11.3301 22.9682L13.7561 24.3966L30.6461 14.8807L30.8412 12.0484L11.3301 22.9682Z" fill="#C7D0D9"/>
<path d="M30.8417 12.0484L30.6465 14.8809L46.1671 24.0734L48.7435 22.6439C48.7435 22.6439 31.6232 12.5075 30.8417 12.0484Z" fill="#C7D0D9"/>
<path d="M52.4944 49.2402L51.4546 48.4916V29.484L52.4944 30.0619V49.2402Z" fill="#CECECD"/>
<path d="M37.4348 42.8358L37.2007 42.977V45.9071C37.2007 45.9071 37.2499 46.8008 38.2667 46.8008C39.0954 46.8008 38.1913 43.4883 38.1913 43.4883L37.4348 42.8358Z" fill="#5C2A9A"/>
<path d="M39.7229 41.5621L37.4351 42.8397L37.436 45.8226C37.4638 46.3446 37.6923 46.6319 38.0327 46.7575C38.5776 46.9583 39.34 46.432 39.6258 45.639C39.7152 45.3911 39.7567 45.1409 39.7532 44.9077L39.7229 41.5621Z" fill="url(#paint3_linear_1004_3947)"/>
<path d="M37.435 42.8402L39.7161 41.5629L33.574 37.9724L31.2915 39.2503L37.435 42.8402Z" fill="url(#paint4_linear_1004_3947)"/>
<path d="M37.435 42.8358L37.2008 42.977L31.2915 39.5226V39.2457L37.435 42.8358Z" fill="#5C2A9A"/>
<path d="M42.0065 40.2849L39.7188 41.5624L39.7535 44.5814C39.7931 45.0287 39.9756 45.3548 40.3163 45.4802C40.8612 45.6811 41.6236 45.1548 41.9094 44.3618C41.9988 44.1139 42.0403 43.8636 42.0368 43.6305L42.0065 40.2849Z" fill="#E0E0E0"/>
<path d="M39.7182 41.5628L41.9993 40.2856L35.8572 36.6949L33.5747 37.9729L39.7182 41.5628Z" fill="#F3F4F5"/>
<path d="M44.2888 39.0074L42.001 40.285L42.0357 43.3039C42.0754 43.7513 42.2579 44.0774 42.5985 44.2028C43.1435 44.4037 43.9059 43.8773 44.1916 43.0844C44.2811 42.8364 44.3225 42.5862 44.3191 42.3531L44.2888 39.0074Z" fill="url(#paint5_linear_1004_3947)"/>
<path d="M42.0009 40.2856L44.282 39.0083L38.1399 35.4176L35.8574 36.6956L42.0009 40.2856Z" fill="url(#paint6_linear_1004_3947)"/>
<path d="M46.5554 37.7301L44.2676 39.0076L44.3024 42.0266C44.342 42.474 44.5245 42.8 44.8652 42.9254C45.4101 43.1263 46.1725 42.6 46.4583 41.807C46.5477 41.5591 46.5892 41.3089 46.5857 41.0757L46.5554 37.7301Z" fill="#E0E0E0"/>
<path d="M44.2675 39.0081L46.5486 37.7307L40.4063 34.1402L38.124 35.4182L44.2675 39.0081Z" fill="#F3F4F5"/>
<path d="M48.8381 36.4527L46.5503 37.7303L46.585 40.7492C46.6247 41.1966 46.8072 41.5227 47.1478 41.6481C47.6928 41.849 48.4552 41.3226 48.7409 40.5297C48.8304 40.2817 48.8718 40.0315 48.8684 39.7984L48.8381 36.4527Z" fill="url(#paint7_linear_1004_3947)"/>
<path d="M46.5502 37.7307L48.8313 36.4536L42.689 32.8629L40.4067 34.1409L46.5502 37.7307Z" fill="url(#paint8_linear_1004_3947)"/>
<path d="M51.1257 35.1676L48.8379 36.4451L48.8727 39.4641C48.9123 39.9115 49.0948 40.2375 49.4355 40.3629C49.9804 40.5638 50.7428 40.0375 51.0286 39.2445C51.118 38.9966 51.1595 38.7464 51.156 38.5132L51.1257 35.1676Z" fill="#E0E0E0"/>
<path d="M48.8379 36.4456L51.119 35.1682L44.9769 31.5777L42.6943 32.8557L48.8379 36.4456Z" fill="#F3F4F5"/>
<path d="M53.4079 33.8902L51.1201 35.1678L51.1548 38.1867C51.1944 38.6341 51.377 38.9602 51.7176 39.0856C52.2625 39.2865 53.0249 38.7601 53.3107 37.9672C53.4001 37.7192 53.4416 37.469 53.4381 37.2359L53.4079 33.8902Z" fill="url(#paint9_linear_1004_3947)"/>
<path d="M51.1199 35.1682L53.401 33.8911L47.2589 30.3004L44.9766 31.5784L51.1199 35.1682Z" fill="url(#paint10_linear_1004_3947)"/>
<path d="M55.6877 32.6148L53.3999 33.8924L53.4346 36.9114C53.4742 37.3587 53.6568 37.6848 53.9974 37.8102C54.5423 38.0111 55.3047 37.4848 55.5905 36.6918C55.6799 36.4438 55.7214 36.1936 55.7179 35.9605L55.6877 32.6148Z" fill="#E0E0E0"/>
<path d="M53.3998 33.8929L55.681 32.6157L49.5387 29.025L47.2563 30.303L53.3998 33.8929Z" fill="#F3F4F5"/>
<path d="M57.9704 31.3375L55.6826 32.6151L55.7174 35.634C55.757 36.0814 55.9395 36.4075 56.2802 36.5329C56.8251 36.7337 57.5875 36.2074 57.8733 35.4144C57.9627 35.1665 58.0042 34.9163 58.0007 34.6831L57.9704 31.3375Z" fill="url(#paint11_linear_1004_3947)"/>
<path d="M55.6826 32.6157L57.9637 31.3384L51.8216 27.7477L49.5391 29.0256L55.6826 32.6157Z" fill="url(#paint12_linear_1004_3947)"/>
<path d="M18.9131 40.6617V56.4374L19.6129 56.1058L19.6847 41.1253L18.9131 40.6617Z" fill="url(#paint13_linear_1004_3947)"/>
<path d="M50.0005 2.40002V8.40002M50.0005 8.40002V14.4M50.0005 8.40002H56.0005M50.0005 8.40002H44.0005" stroke="url(#paint14_linear_1004_3947)" stroke-width="2.5" stroke-linecap="round" stroke-linejoin="round"/>
<defs>
<linearGradient id="paint0_linear_1004_3947" x1="8.27653" y1="46.6941" x2="12.7557" y2="64.412" gradientUnits="userSpaceOnUse">
<stop stop-color="#C4CDD1"/>
<stop offset="1" stop-color="#C6CFD3" stop-opacity="0.01"/>
</linearGradient>
<linearGradient id="paint1_linear_1004_3947" x1="17.533" y1="41.1246" x2="30.2498" y2="43.3953" gradientUnits="userSpaceOnUse">
<stop offset="0.1" stop-color="#3C098D"/>
<stop offset="0.7" stop-color="#4F039A"/>
<stop offset="1" stop-color="#80058C"/>
</linearGradient>
<linearGradient id="paint2_linear_1004_3947" x1="-13.328" y1="8.40985" x2="44.2176" y2="66.2286" gradientUnits="userSpaceOnUse">
<stop offset="0.1" stop-color="#3C098D"/>
<stop offset="0.7" stop-color="#4F039A"/>
<stop offset="1" stop-color="#80058C"/>
</linearGradient>
<linearGradient id="paint3_linear_1004_3947" x1="36.5866" y1="41.5621" x2="41.6123" y2="42.8463" gradientUnits="userSpaceOnUse">
<stop offset="0.1" stop-color="#3C098D"/>
<stop offset="0.7" stop-color="#4F039A"/>
<stop offset="1" stop-color="#80058C"/>
</linearGradient>
<linearGradient id="paint4_linear_1004_3947" x1="28.2079" y1="37.9724" x2="37.9436" y2="47.7003" gradientUnits="userSpaceOnUse">
<stop offset="0.1" stop-color="#3C098D"/>
<stop offset="0.7" stop-color="#4F039A"/>
<stop offset="1" stop-color="#80058C"/>
</linearGradient>
<linearGradient id="paint5_linear_1004_3947" x1="41.1524" y1="39.0074" x2="46.1782" y2="40.2916" gradientUnits="userSpaceOnUse">
<stop offset="0.1" stop-color="#3C098D"/>
<stop offset="0.7" stop-color="#4F039A"/>
<stop offset="1" stop-color="#80058C"/>
</linearGradient>
<linearGradient id="paint6_linear_1004_3947" x1="32.7738" y1="35.4176" x2="42.5099" y2="45.1455" gradientUnits="userSpaceOnUse">
<stop offset="0.1" stop-color="#3C098D"/>
<stop offset="0.7" stop-color="#4F039A"/>
<stop offset="1" stop-color="#80058C"/>
</linearGradient>
<linearGradient id="paint7_linear_1004_3947" x1="45.7017" y1="36.4527" x2="50.7275" y2="37.7369" gradientUnits="userSpaceOnUse">
<stop offset="0.1" stop-color="#3C098D"/>
<stop offset="0.7" stop-color="#4F039A"/>
<stop offset="1" stop-color="#80058C"/>
</linearGradient>
<linearGradient id="paint8_linear_1004_3947" x1="37.3231" y1="32.8629" x2="47.0588" y2="42.5908" gradientUnits="userSpaceOnUse">
<stop offset="0.1" stop-color="#3C098D"/>
<stop offset="0.7" stop-color="#4F039A"/>
<stop offset="1" stop-color="#80058C"/>
</linearGradient>
<linearGradient id="paint9_linear_1004_3947" x1="50.2715" y1="33.8902" x2="55.2972" y2="35.1744" gradientUnits="userSpaceOnUse">
<stop offset="0.1" stop-color="#3C098D"/>
<stop offset="0.7" stop-color="#4F039A"/>
<stop offset="1" stop-color="#80058C"/>
</linearGradient>
<linearGradient id="paint10_linear_1004_3947" x1="41.893" y1="30.3004" x2="51.6287" y2="40.028" gradientUnits="userSpaceOnUse">
<stop offset="0.1" stop-color="#3C098D"/>
<stop offset="0.7" stop-color="#4F039A"/>
<stop offset="1" stop-color="#80058C"/>
</linearGradient>
<linearGradient id="paint11_linear_1004_3947" x1="54.8341" y1="31.3375" x2="59.8598" y2="32.6217" gradientUnits="userSpaceOnUse">
<stop offset="0.1" stop-color="#3C098D"/>
<stop offset="0.7" stop-color="#4F039A"/>
<stop offset="1" stop-color="#80058C"/>
</linearGradient>
<linearGradient id="paint12_linear_1004_3947" x1="46.4555" y1="27.7477" x2="56.1916" y2="37.4756" gradientUnits="userSpaceOnUse">
<stop offset="0.1" stop-color="#3C098D"/>
<stop offset="0.7" stop-color="#4F039A"/>
<stop offset="1" stop-color="#80058C"/>
</linearGradient>
<linearGradient id="paint13_linear_1004_3947" x1="18.6307" y1="40.6617" x2="20.4111" y2="40.712" gradientUnits="userSpaceOnUse">
<stop offset="0.1" stop-color="#3C098D"/>
<stop offset="0.7" stop-color="#4F039A"/>
<stop offset="1" stop-color="#80058C"/>
</linearGradient>
<linearGradient id="paint14_linear_1004_3947" x1="39.6082" y1="2.40002" x2="60.3928" y2="14.4" gradientUnits="userSpaceOnUse">
<stop offset="0.1" stop-color="#3C098D"/>
<stop offset="0.7" stop-color="#4F039A"/>
<stop offset="1" stop-color="#80058C"/>
</linearGradient>
</defs>
</svg>
