<svg width="48" height="49" viewBox="0 0 48 49" fill="none" xmlns="http://www.w3.org/2000/svg">
<g clip-path="url(#clip0_1004_4071)">
<rect y="0.520142" width="48" height="48" rx="8" fill="#0029FF" fill-opacity="0.16"/>
<path opacity="0.4" d="M39.7466 14.5896L64.0614 33.017L45.8041 60.6347L12.252 38.4376C13.5224 36.6746 14.7057 35.0326 15.829 33.4737C16.2697 32.8622 26.5602 36.3416 29.5599 36.0488C32.4893 35.7628 28.7073 31.8265 29.1083 31.27C32.3853 26.7225 26.904 22.6637 30.2554 18.013C31.1488 16.7731 30.5116 15.1459 31.4856 13.7943C32.2581 12.7223 38.9056 15.7568 39.7466 14.5896Z" fill="#0094FF"/>
<path d="M41.4109 52.1898H6.58908C6.07323 52.1898 5.65503 51.5515 5.65503 50.764V22.3238L6.12205 20.2786H41.878L42.345 22.3238V50.7639C42.345 51.5515 41.9268 52.1898 41.4109 52.1898Z" fill="#D3EFFB"/>
<path d="M41.878 20.2787H38.8328V51.7237C38.8328 52.7093 38.4146 53.5084 37.8988 53.5084H5.65503V58.4344C5.65503 59.4201 6.07323 60.2191 6.58908 60.2191H41.411C41.9269 60.2191 42.3451 59.4201 42.3451 58.4344V22.8384L41.878 20.2787Z" fill="#B1E4F9"/>
<path d="M42.345 21.6183H5.65503V13.3051C5.65503 12.7896 6.07295 12.3716 6.58852 12.3716H41.4115C41.9271 12.3716 42.345 12.7896 42.345 13.3051V21.6183Z" fill="#5766CB"/>
<path d="M41.4109 12.3716H38.8328V21.6183H42.3449V13.3056C42.3449 12.7898 41.9267 12.3716 41.4109 12.3716Z" fill="#3D4FC3"/>
<path d="M10.1321 18.3347C10.8865 18.3347 11.4981 17.7232 11.4981 16.9688C11.4981 16.2144 10.8865 15.6028 10.1321 15.6028C9.37768 15.6028 8.76611 16.2144 8.76611 16.9688C8.76611 17.7232 9.37768 18.3347 10.1321 18.3347Z" fill="#DD636E"/>
<path d="M14.2869 18.3347C15.0413 18.3347 15.6528 17.7232 15.6528 16.9688C15.6528 16.2144 15.0413 15.6028 14.2869 15.6028C13.5325 15.6028 12.9209 16.2144 12.9209 16.9688C12.9209 17.7232 13.5325 18.3347 14.2869 18.3347Z" fill="#FFD064"/>
<path d="M18.4409 18.3347C19.1953 18.3347 19.8069 17.7232 19.8069 16.9688C19.8069 16.2144 19.1953 15.6028 18.4409 15.6028C17.6865 15.6028 17.075 16.2144 17.075 16.9688C17.075 17.7232 17.6865 18.3347 18.4409 18.3347Z" fill="#B1E4F9"/>
<path d="M16.7713 34.0671H10.1051C9.3656 34.0671 8.76611 33.4676 8.76611 32.7281V26.0619C8.76611 25.3224 9.3656 24.7229 10.1051 24.7229H16.7101C17.4834 24.7229 18.1103 25.3498 18.1103 26.1231V32.7281C18.1103 33.4676 17.5109 34.0671 16.7713 34.0671Z" fill="#90D8F9"/>
<path d="M26.5763 25.8963H21.4241C21.0373 25.8963 20.7236 25.5827 20.7236 25.1958C20.7236 24.809 21.0373 24.4953 21.4241 24.4953H26.5763C26.9632 24.4953 27.2768 24.809 27.2768 25.1958C27.2768 25.5827 26.9632 25.8963 26.5763 25.8963Z" fill="#90D8F9"/>
<path d="M31.2902 25.8963H26.138C25.7512 25.8963 25.4375 25.5827 25.4375 25.1958C25.4375 24.809 25.7512 24.4953 26.138 24.4953H31.2902C31.677 24.4953 31.9907 24.809 31.9907 25.1958C31.9907 25.5827 31.677 25.8963 31.2902 25.8963Z" fill="#90D8F9"/>
<path d="M36.2397 25.8963H31.0875C30.7006 25.8963 30.387 25.5827 30.387 25.1958C30.387 24.809 30.7006 24.4953 31.0875 24.4953H36.2397C36.6265 24.4953 36.9401 24.809 36.9401 25.1958C36.9401 25.5827 36.6265 25.8963 36.2397 25.8963Z" fill="#90D8F9"/>
<path d="M26.5763 29.1361H21.4241C21.0373 29.1361 20.7236 28.8224 20.7236 28.4356C20.7236 28.0488 21.0373 27.7351 21.4241 27.7351H26.5763C26.9632 27.7351 27.2768 28.0488 27.2768 28.4356C27.2768 28.8224 26.9632 29.1361 26.5763 29.1361Z" fill="#90D8F9"/>
<path d="M30.5595 29.1361H25.4073C25.0204 29.1361 24.7068 28.8224 24.7068 28.4356C24.7068 28.0488 25.0204 27.7351 25.4073 27.7351H30.5595C30.9463 27.7351 31.26 28.0488 31.26 28.4356C31.26 28.8224 30.9463 29.1361 30.5595 29.1361Z" fill="#90D8F9"/>
<path d="M34.3778 29.1361H29.2256C28.8388 29.1361 28.5251 28.8224 28.5251 28.4356C28.5251 28.0488 28.8388 27.7351 29.2256 27.7351H34.3778C34.7647 27.7351 35.0783 28.0488 35.0783 28.4356C35.0783 28.8224 34.7647 29.1361 34.3778 29.1361Z" fill="#90D8F9"/>
<path d="M26.5763 32.1224H21.4241C21.0373 32.1224 20.7236 31.8087 20.7236 31.4219C20.7236 31.035 21.0373 30.7214 21.4241 30.7214H26.5763C26.9632 30.7214 27.2768 31.035 27.2768 31.4219C27.2768 31.8087 26.9632 32.1224 26.5763 32.1224Z" fill="#90D8F9"/>
<path d="M30.0646 32.1224H24.9124C24.5256 32.1224 24.2119 31.8087 24.2119 31.4219C24.2119 31.035 24.5256 30.7214 24.9124 30.7214H30.0646C30.4514 30.7214 30.7651 31.035 30.7651 31.4219C30.7651 31.8087 30.4514 32.1224 30.0646 32.1224Z" fill="#90D8F9"/>
<path d="M26.5763 35.3621H21.4241C21.0373 35.3621 20.7236 35.0485 20.7236 34.6616C20.7236 34.2748 21.0373 33.9612 21.4241 33.9612H26.5763C26.9632 33.9612 27.2768 34.2748 27.2768 34.6616C27.2768 35.0485 26.9632 35.3621 26.5763 35.3621Z" fill="#90D8F9"/>
<path d="M42.1853 22.2368C45.6015 19.3189 46.0224 14.1696 43.1255 10.7356C40.2286 7.30163 35.1109 6.88328 31.6947 9.80121C28.2786 12.7191 27.8577 17.8684 30.7546 21.3024C33.6515 24.7364 38.7692 25.1547 42.1853 22.2368Z" fill="#35B0FF"/>
<path d="M32.9916 15.5797C33.1922 15.5792 33.3866 15.5099 33.5423 15.3833C33.6979 15.2567 33.8054 15.0805 33.8468 14.8842C33.9575 14.3701 34.1907 13.8902 34.5263 13.4854C34.862 13.0805 35.2904 12.7626 35.7751 12.5585C36.2598 12.3545 36.7866 12.2703 37.3108 12.3132C37.835 12.356 38.3411 12.5247 38.7862 12.8047L38.1606 13.2603C37.8658 13.4765 37.9638 13.9547 38.3253 14.0657L41.1363 14.9271C41.1999 14.9478 41.2674 14.9531 41.3335 14.9426C41.3995 14.9321 41.4621 14.906 41.5161 14.8666C41.5701 14.8271 41.6139 14.7754 41.644 14.7157C41.6741 14.656 41.6896 14.5899 41.6891 14.5231L41.6952 13.9652L41.6981 13.6881L41.7219 11.5841C41.7262 11.2064 41.2995 10.9679 41.0047 11.183L40.2649 11.7236C39.6009 11.169 38.805 10.7953 37.9541 10.6389C37.1033 10.4824 36.2265 10.5485 35.4087 10.8306C34.5909 11.1128 33.8599 11.6015 33.2866 12.2493C32.7132 12.8971 32.317 13.6821 32.1364 14.5281C32.11 14.6552 32.1123 14.7866 32.1431 14.9127C32.174 15.0388 32.2325 15.1564 32.3145 15.257C32.3966 15.3576 32.5 15.4387 32.6173 15.4942C32.7346 15.5498 32.8628 15.5785 32.9926 15.5783L32.9916 15.5797Z" fill="white"/>
<path d="M40.8891 15.6259C40.6884 15.6264 40.494 15.6957 40.3384 15.8223C40.1827 15.9489 40.0752 16.1251 40.0339 16.3215C39.9231 16.8356 39.69 17.3154 39.3543 17.7203C39.0186 18.1251 38.5902 18.443 38.1055 18.6471C37.6208 18.8512 37.094 18.9353 36.5698 18.8925C36.0457 18.8496 35.5396 18.681 35.0944 18.4009L35.7201 17.9454C36.0149 17.7291 35.9168 17.2509 35.5554 17.1399L32.7444 16.2786C32.6808 16.2578 32.6132 16.2525 32.5471 16.263C32.4811 16.2736 32.4185 16.2996 32.3645 16.3391C32.3105 16.3785 32.2667 16.4302 32.2366 16.49C32.2065 16.5497 32.1911 16.6157 32.1915 16.6826L32.1854 17.2404L32.1825 17.5176L32.1587 19.6215C32.1544 19.9992 32.5811 20.2378 32.8759 20.0226L33.6158 19.482C34.2797 20.0367 35.0757 20.4103 35.9265 20.5668C36.7773 20.7232 37.6541 20.6572 38.4719 20.375C39.2897 20.0928 40.0207 19.6042 40.594 18.9563C41.1674 18.3085 41.5636 17.5235 41.7443 16.6775C41.7706 16.5504 41.7683 16.419 41.7375 16.2929C41.7067 16.1669 41.6481 16.0492 41.5661 15.9486C41.4841 15.848 41.3806 15.767 41.2633 15.7114C41.146 15.6558 41.0178 15.6271 40.888 15.6274L40.8891 15.6259Z" fill="white"/>
</g>
<defs>
<clipPath id="clip0_1004_4071">
<rect y="0.520142" width="48" height="48" rx="8" fill="white"/>
</clipPath>
</defs>
</svg>
