<svg width="24" height="24" viewBox="0 0 24 24" fill="none" xmlns="http://www.w3.org/2000/svg">
<path d="M1.93538 11.977C1.93538 9.60033 1.93538 7.21862 1.93538 4.84194C1.93538 3.19538 3.16614 1.96677 4.82058 1.96677C6.16734 1.96677 7.50906 1.96677 8.85582 1.96677C9.23917 1.96677 9.51659 2.16817 9.62251 2.5005C9.71835 2.80262 9.6326 3.15511 9.36022 3.32631C9.19882 3.42701 8.98696 3.48743 8.79528 3.49246C7.49392 3.50757 6.18751 3.49751 4.88615 3.50254C3.99335 3.50254 3.45869 4.03629 3.45869 4.92251C3.45869 9.63559 3.45869 14.3537 3.45869 19.0668C3.45869 19.9681 3.99839 20.5069 4.90128 20.5069C6.22786 20.5069 7.55949 20.5069 8.88608 20.5069C9.2442 20.5069 9.50145 20.6932 9.61746 21.0155C9.72843 21.3125 9.64773 21.66 9.3804 21.8463C9.24421 21.942 9.05757 22.0125 8.89616 22.0175C7.47374 22.0276 6.05636 22.0477 4.63394 22.0175C3.13082 21.9873 1.94547 20.7435 1.94043 19.2481C1.93034 16.816 1.93538 14.399 1.93538 11.977Z" fill="#37403E"/>
<path d="M19.4331 11.2369C19.3121 11.106 19.2515 11.0405 19.186 10.9751C17.9956 9.79178 16.8102 8.60343 15.6198 7.42013C15.3928 7.19354 15.3021 6.92667 15.3979 6.61951C15.4887 6.31739 15.7056 6.14619 16.0133 6.0908C16.3159 6.04045 16.5479 6.17641 16.7547 6.38286C17.8241 7.45035 18.8934 8.51784 19.9628 9.5803C20.5579 10.1745 21.1531 10.7636 21.7483 11.3578C22.167 11.7757 22.172 12.1936 21.7635 12.6015C20.0889 14.2732 18.4142 15.945 16.7346 17.6117C16.3764 17.9692 15.9124 17.9943 15.5946 17.6822C15.2667 17.3649 15.292 16.8916 15.6551 16.524C16.8304 15.3508 18.0107 14.1776 19.186 13.0094C19.2515 12.9439 19.3322 12.8935 19.4029 12.8382C19.3928 12.8079 19.3776 12.7777 19.3676 12.7526C19.2768 12.7526 19.1809 12.7526 19.0901 12.7526C15.7207 12.7526 12.3462 12.7526 8.97682 12.7526C8.42197 12.7526 8.08402 12.4001 8.14455 11.8915C8.1849 11.5441 8.45728 11.2772 8.80532 11.242C8.91125 11.2319 9.02222 11.2319 9.13319 11.2319C12.4471 11.2319 15.756 11.2319 19.07 11.2319C19.1608 11.2369 19.2616 11.2369 19.4331 11.2369Z" fill="#37403E"/>
</svg>
