<svg width="24" height="24" viewBox="0 0 24 24" fill="none" xmlns="http://www.w3.org/2000/svg">
<mask id="mask0_3476_10005" style="mask-type:alpha" maskUnits="userSpaceOnUse" x="0" y="0" width="24" height="24">
<path fill-rule="evenodd" clip-rule="evenodd" d="M7.1758 4.05803V2.81719C7.1758 2.34305 7.50311 1.99501 7.94118 2.00005C8.37925 2.0051 8.68137 2.33296 8.6864 2.8071C8.69144 3.20054 8.69145 3.59397 8.69648 3.98741C8.69648 4.00254 8.71157 4.01767 8.72667 4.04289H15.4035C15.4035 3.64946 15.3935 3.26611 15.4086 2.88276C15.4136 2.72135 15.4337 2.54481 15.4992 2.39853C15.6402 2.09085 16.0028 1.94457 16.325 2.02023C16.6775 2.10598 16.9141 2.37836 16.9192 2.73144C16.9293 3.16018 16.9192 3.58388 16.9192 4.04289C17.0249 4.04794 17.1105 4.05803 17.2012 4.05803H19.1599C20.8518 4.06811 22.0703 5.29382 22.0703 6.98357V19.1649C22.0703 20.8446 20.882 22.0754 19.2052 22.0804C14.4216 22.0955 9.63808 22.0905 4.8545 22.0804C3.22809 22.0754 2.01457 20.8547 2.00953 19.2204C1.99443 15.1247 1.99946 11.0289 2.00953 6.93818C2.01457 5.27364 3.25328 4.06811 4.91998 4.05803H7.1758ZM7.00456 11.7805H12.05H17.0249C17.1357 11.7805 17.2464 11.7805 17.3522 11.7603C17.7701 11.6846 18.0319 11.2761 17.9413 10.8624C17.8507 10.464 17.5586 10.2521 17.0853 10.2521H7.01461C6.94915 10.2521 6.87866 10.2471 6.8132 10.2572C6.32477 10.3227 6.01761 10.8221 6.18378 11.2861C6.29959 11.6039 6.58662 11.7805 7.00456 11.7805Z" fill="#1B2437"/>
</mask>
<g mask="url(#mask0_3476_10005)">
<rect width="24" height="24" fill="#37403E"/>
</g>
</svg>
