<svg width="24" height="24" viewBox="0 0 24 24" fill="none" xmlns="http://www.w3.org/2000/svg">
<path d="M21.4219 5.67188H20.25V22.0781H21.4219C22.8435 22.0781 24 20.9216 24 19.5V8.25C24 6.82842 22.8435 5.67188 21.4219 5.67188Z" fill="#37403E"/>
<path d="M0 8.25V19.5C0 20.9216 1.15655 22.0781 2.57812 22.0781H3.75V5.67188H2.57812C1.15655 5.67188 0 6.82842 0 8.25Z" fill="#37403E"/>
<path d="M16.4531 4.03125C16.4531 2.86814 15.5069 1.92188 14.3438 1.92188H9.65625C8.49314 1.92188 7.54688 2.86814 7.54688 4.03125V5.67188H5.15625V22.0781H18.8438V5.67188H16.4531V4.03125ZM13.4898 15.4214L10.2422 17.2964C9.90591 17.4906 9.47587 17.3753 9.28172 17.0391L6.70359 12.5736C6.59292 12.3819 6.57895 12.1494 6.66591 11.9459L7.41825 10.1846C7.1122 9.76627 6.70144 9.03825 6.70927 8.15006C6.70931 8.14655 6.70936 8.14308 6.70945 8.13952C6.72417 7.51898 6.91805 6.95203 7.30209 6.40631C7.4813 6.15169 7.70142 5.90677 7.96055 5.67183H8.95312V4.03125C8.95312 3.64355 9.26855 3.32812 9.65625 3.32812H14.3438C14.7315 3.32812 15.0469 3.64355 15.0469 4.03125V5.67188H10.5594C9.43008 6.19702 8.14608 7.04016 8.11542 8.16778C8.1127 8.70295 8.40516 9.16556 8.58689 9.40111L10.6442 9.64898C10.8639 9.67547 11.0584 9.80386 11.169 9.99548L13.7472 14.4609C13.9413 14.7972 13.8261 15.2272 13.4898 15.4214ZM17.3906 10.5938C17.3906 11.7569 16.4444 12.7031 15.2812 12.7031C14.1181 12.7031 13.1719 11.7569 13.1719 10.5938C13.1719 9.43064 14.1181 8.48438 15.2812 8.48438C16.4444 8.48438 17.3906 9.43064 17.3906 10.5938Z" fill="#37403E"/>
<path d="M8.67261 10.8279L8.09717 12.1749L10.1479 15.727L12.1777 14.5551L10.1269 11.0031L8.67261 10.8279Z" fill="#37403E"/>
<path d="M15.2812 11.2969C15.6696 11.2969 15.9844 10.9821 15.9844 10.5938C15.9844 10.2054 15.6696 9.89062 15.2812 9.89062C14.8929 9.89062 14.5781 10.2054 14.5781 10.5938C14.5781 10.9821 14.8929 11.2969 15.2812 11.2969Z" fill="#37403E"/>
</svg>
