<svg width="24" height="24" viewBox="0 0 24 24" fill="none" xmlns="http://www.w3.org/2000/svg">
<path d="M10.6247 0C9.94864 0 9.33298 0.262218 8.87309 0.689811C8.80517 0.652593 8.73331 0.62053 8.65747 0.594983C7.95805 0.359249 7.19774 0.736592 6.9621 1.43573C6.84093 1.79545 6.79738 3.05788 6.78219 4.0536L6.74854 6.26033L8.05719 4.48321C8.18319 4.31202 8.31556 4.13043 8.447 3.9471C8.90366 4.6693 9.70883 5.15029 10.6247 5.15029C12.0446 5.15029 13.1998 3.9951 13.1998 2.57517C13.1998 1.15523 12.0446 0 10.6247 0Z" fill="#37403E"/>
<path d="M17.2515 13.2822C17.2515 11.4692 16.0461 9.93252 14.3946 9.43162C14.4366 9.2842 14.4579 9.13443 14.4588 8.98166C14.4622 8.47626 14.2369 7.99298 13.7892 7.54528L13.7501 7.50609L11.685 6.00426C11.5643 5.91642 11.4188 5.86917 11.2696 5.86917C9.60622 5.86917 8.22936 7.1175 8.06656 8.77706L7.15686 18.6469H9.87504V24H11.2877V18.6469H15.3899L15.058 16.8664C16.3916 16.1883 17.2515 14.8159 17.2515 13.2822ZM14.5718 13.9375H13.8238C11.5945 13.9375 9.78087 12.1238 9.78087 9.89455V7.62304H11.1935V9.89455C11.1935 11.3449 12.3735 12.5248 13.8238 12.5248H14.5718V13.9375Z" fill="#37403E"/>
</svg>
