<svg width="24" height="24" viewBox="0 0 24 24" fill="none" xmlns="http://www.w3.org/2000/svg">
<path fill-rule="evenodd" clip-rule="evenodd" d="M3.49254 8.14289C2.69952 8.76011 2.34912 9.56617 2.34912 10.5565C2.35085 11.5809 2.35063 12.6047 2.35042 13.6276C2.35006 15.332 2.3497 17.0339 2.35834 18.7322C2.35834 19.3449 2.37217 19.9667 2.67647 20.524C3.25279 21.5926 4.19796 21.998 5.36443 21.998H12.0129C12.7446 21.998 13.4758 21.9985 14.2068 21.999C15.6684 22 17.1292 22.001 18.5922 21.998C19.3252 21.998 20.026 21.8782 20.6162 21.39C21.2294 20.8833 21.566 20.2384 21.6121 19.4462C21.6351 19.0409 21.649 18.6355 21.649 18.2302C21.649 17.6005 21.6495 16.9704 21.6501 16.3403C21.6518 14.4492 21.6536 12.5568 21.6397 10.667C21.6397 10.2341 21.566 9.79647 21.4461 9.38193C21.2847 8.83841 20.8928 8.44229 20.4456 8.09683C18.8442 6.85623 17.2427 5.61153 15.6412 4.36683C14.8406 3.74454 14.0399 3.12224 13.2393 2.50046C12.3909 1.8464 11.6302 1.82797 10.7865 2.47743C9.46882 3.49461 8.15388 4.51854 6.83872 5.54264C5.72408 6.4106 4.60928 7.27869 3.49254 8.14289ZM10.0577 18.0916H12.0126C12.3299 18.0916 12.6468 18.0914 12.9635 18.0911C13.9124 18.0902 14.8588 18.0893 15.8025 18.0963C16.1252 18.0963 16.4065 18.0087 16.5955 17.7232C16.8998 17.2718 16.6739 16.6453 16.1483 16.5026C16.0469 16.4749 15.9362 16.4657 15.8302 16.4657H8.15357C7.65102 16.4657 7.296 16.7651 7.26373 17.2073C7.22223 17.7047 7.59108 18.087 8.12591 18.0916C8.55606 18.0947 8.98416 18.0937 9.41294 18.0927C9.62759 18.0922 9.8424 18.0916 10.0577 18.0916Z" fill="#37403E"/>
</svg>
