<svg width="24" height="24" viewBox="0 0 24 24" fill="none" xmlns="http://www.w3.org/2000/svg">
<g clip-path="url(#clip0_3476_9781)">
<path d="M2.95502 23.8538L4.51361 23.2898C5.19752 23.0423 5.94611 23.0423 6.63002 23.2898L8.0808 23.8148C8.7647 24.0623 9.5133 24.0623 10.1972 23.8148L11.648 23.2898C12.3319 23.0423 13.0805 23.0423 13.7644 23.2898L15.2152 23.8148C15.8991 24.0623 16.6477 24.0623 17.3316 23.8148L18.7824 23.2898C19.4663 23.0423 20.2149 23.0423 20.8988 23.2898L22.4574 23.8538C22.733 23.9536 23.0466 23.8725 23.2275 23.6419C23.7338 22.9959 23.707 21.9839 22.8877 21.4617C19.9495 19.5591 16.456 18.1397 12.7069 18.1547C8.9583 18.1397 5.46423 19.5586 2.52611 21.4617C1.70673 21.9834 1.68002 22.9959 2.18627 23.6419C2.3672 23.8725 2.6808 23.9536 2.95642 23.8538H2.95502Z" fill="#37403E"/>
<path d="M5.15528 4.49251C5.31371 3.17391 5.64043 1.89423 6.12934 0.675476C2.82934 2.08454 0.658088 5.32079 0.439182 8.67891C0.425119 8.90344 0.506682 9.13173 0.662775 9.31641C0.824494 9.50766 0.986213 9.69938 1.14793 9.89251C1.37387 10.1611 1.72449 10.3041 2.05684 10.2572C2.93668 10.1334 3.81418 9.99329 4.68793 9.83673C5.00949 9.77954 5.2584 9.54282 5.33996 9.22313C5.0259 7.65844 4.96543 6.07829 5.15574 4.49204L5.15528 4.49251Z" fill="#37403E"/>
<path d="M17.4591 4.3739C15.6698 1.5239 12.2213 -0.291096 8.64844 0.0384349C10.8938 1.90875 12.5428 4.36265 13.4067 7.18312C13.6308 7.42593 13.9617 7.515 14.272 7.41281C15.1153 7.13531 15.9539 6.8414 16.7869 6.53156C17.1009 6.41437 17.3419 6.12187 17.4131 5.77828C17.4638 5.53172 17.5148 5.28609 17.5664 5.04093C17.6156 4.80422 17.5791 4.56468 17.46 4.3739H17.4591Z" fill="#37403E"/>
<path d="M12.5132 17.4384L10.2768 8.59734C10.7882 8.46187 11.2977 8.32124 11.8059 8.17452C12.1274 8.08124 12.3731 7.80187 12.4434 7.45359C12.4537 7.4039 12.4635 7.35421 12.4738 7.30452C11.557 4.45593 9.78369 2.0053 7.38884 0.256866C7.38087 0.258741 7.37243 0.260616 7.36447 0.26296C7.3565 0.264835 7.34806 0.267179 7.34009 0.269523C6.06462 2.94609 5.66993 5.94562 6.21743 8.88702C6.24978 8.92593 6.28259 8.9653 6.31493 9.00421C6.54228 9.27749 6.8915 9.4064 7.21868 9.33515C7.73572 9.22265 8.25087 9.10405 8.76509 8.9803L10.9284 17.5326C11.4599 17.4745 11.9887 17.4436 12.5137 17.4389L12.5132 17.4384Z" fill="#37403E"/>
<path d="M18.7556 9.53156C17.1449 9.53156 15.839 10.8375 15.839 12.4481C15.839 14.0587 17.1449 15.3647 18.7556 15.3647C20.3662 15.3647 21.6721 14.0587 21.6721 12.4481C21.6721 10.8375 20.3662 9.53156 18.7556 9.53156Z" fill="#37403E"/>
</g>
<defs>
<clipPath id="clip0_3476_9781">
<rect width="24" height="24" fill="white"/>
</clipPath>
</defs>
</svg>
