<svg width="24" height="24" viewBox="0 0 24 24" fill="none" xmlns="http://www.w3.org/2000/svg">
<g clip-path="url(#clip0_3476_9771)">
<path d="M22.5938 7.73438C22.5938 7.08717 22.0691 6.5625 21.4219 6.5625H21.1875V8.90625H21.4219C22.0691 8.90625 22.5938 8.38158 22.5938 7.73438Z" fill="#37403E"/>
<path d="M6.09375 1.40625C6.09375 0.629578 5.46417 0 4.6875 0H1.40625C0.629578 0 0 0.629578 0 1.40625V2.8125H6.09375V1.40625Z" fill="#37403E"/>
<path d="M3.75 18.0469V12.6562H3.98438C4.37269 12.6562 4.6875 12.3414 4.6875 11.9531C4.6875 11.5648 4.37269 11.25 3.98438 11.25H3.75V9.84375H4.6875C5.46417 9.84375 6.09375 9.21417 6.09375 8.4375V4.21875H0V8.4375C0 9.21417 0.629578 9.84375 1.40625 9.84375H2.34375V11.25H2.10938C1.72106 11.25 1.40625 11.5648 1.40625 11.9531C1.40625 12.3414 1.72106 12.6562 2.10938 12.6562H2.34375V18.0469C2.34375 19.9854 3.92086 21.5625 5.85938 21.5625H6.1875V20.8594C6.1875 20.6231 6.20002 20.3885 6.22392 20.1562H5.85938C4.69627 20.1562 3.75 19.21 3.75 18.0469Z" fill="#37403E"/>
<path d="M10.1719 8.90625H10.4062V6.5625H10.1719C9.52467 6.5625 9 7.08717 9 7.73438C9 8.38158 9.52467 8.90625 10.1719 8.90625Z" fill="#37403E"/>
<path d="M18.8436 15.4742C18.8407 17.1518 17.4751 18.5156 15.7969 18.5156C14.1187 18.5156 12.7531 17.1518 12.7501 15.4742C9.88603 15.5973 7.59375 17.9655 7.59375 20.8594V23.2969C7.59375 23.6852 7.90856 24 8.29688 24H23.2969C23.6852 24 24 23.6852 24 23.2969V20.8594C24 17.9655 21.7077 15.5973 18.8436 15.4742Z" fill="#37403E"/>
<path d="M14.1562 14.2757V15.4687C14.1562 16.3748 14.8908 17.1094 15.7969 17.1094C16.703 17.1094 17.4375 16.3748 17.4375 15.4687V14.2756C16.92 14.4414 16.3687 14.5312 15.7969 14.5312C15.225 14.5312 14.6738 14.4414 14.1562 14.2757Z" fill="#37403E"/>
<path d="M19.7812 9.14061V6.86066L16.9442 4.9693C16.1787 5.96731 14.9937 6.56249 13.7006 6.56249H11.8125V9.14061C11.8125 11.3411 13.5964 13.125 15.7969 13.125C17.9974 13.125 19.7812 11.3411 19.7812 9.14061Z" fill="#37403E"/>
<path d="M16.1055 3.66994C16.2946 3.29166 16.7725 3.16472 17.1244 3.39933L19.7598 5.15625H20.7188V3.51562C20.7188 1.57711 19.1416 0 17.2031 0H14.3906C12.4521 0 10.875 1.57711 10.875 3.51562V5.15625H13.7006C14.7256 5.15625 15.6471 4.58672 16.1055 3.66994Z" fill="#37403E"/>
</g>
<defs>
<clipPath id="clip0_3476_9771">
<rect width="24" height="24" fill="white"/>
</clipPath>
</defs>
</svg>
