<svg width="40" height="40" viewBox="0 0 40 40" fill="none" xmlns="http://www.w3.org/2000/svg">
<path fill-rule="evenodd" clip-rule="evenodd" d="M2.35938 24.5764C2.35938 30.1671 5.95666 33.9227 11.3114 33.9227H19.3432C18.9207 32.8144 18.6693 31.6216 18.6212 30.3767H11.3434C10.0257 30.3767 8.85977 30.0702 7.90393 29.4952C7.30514 29.1349 7.19929 28.3055 7.64324 27.7652C8.3858 26.8646 9.11888 25.9609 9.85827 25.0493C11.2676 23.3051 12.2171 22.7995 13.2725 23.2435C13.7006 23.4267 14.1303 23.7032 14.5727 23.9939C15.7513 24.7744 17.3897 25.8456 19.5478 24.6828C19.7504 24.572 19.9414 24.4504 20.1219 24.3199C20.7628 23.2174 21.5865 22.2343 22.5516 21.4122L22.6247 21.2944L22.6397 21.2702C22.6899 21.1897 22.7396 21.1094 22.7892 21.0293C23.0426 20.6197 23.2923 20.2164 23.575 19.8451C23.9258 19.3853 25.2276 17.9476 26.9102 18.9714C26.9679 19.006 27.025 19.0413 27.0817 19.0772C27.9538 18.8591 28.8666 18.7433 29.8063 18.7433C31.2731 18.7433 32.6739 19.0254 33.9575 19.5383V11.6724C33.9575 6.08172 30.3603 2.32452 25.0055 2.32452H11.3114C5.95666 2.32452 2.35938 6.08172 2.35938 11.6724V24.5764ZM16.9656 12.8704C16.9656 10.7059 15.2041 8.94276 13.0396 8.94276C10.8735 8.94276 9.1135 10.7059 9.1135 12.8704C9.1135 15.0349 10.8735 16.7965 13.0396 16.7965C15.2041 16.7965 16.9656 15.0349 16.9656 12.8704Z" fill="white"/>
<path d="M13.0396 8.94276C15.2041 8.94276 16.9656 10.7059 16.9656 12.8704C16.9656 15.0349 15.2041 16.7965 13.0396 16.7965C10.8735 16.7965 9.1135 15.0349 9.1135 12.8704C9.1135 10.7059 10.8735 8.94276 13.0396 8.94276Z" fill="#FF5F53"/>
<path d="M7.90393 29.4952C8.85977 30.0702 10.0257 30.3767 11.3434 30.3767H18.6212C18.6156 30.2308 18.6127 30.0842 18.6127 29.9369C18.6127 27.8897 19.1623 25.9709 20.1219 24.3199C19.9414 24.4504 19.7504 24.572 19.5478 24.6828C17.3897 25.8456 15.7513 24.7744 14.5727 23.9939C14.1303 23.7032 13.7006 23.4267 13.2725 23.2435C12.2171 22.7995 11.2676 23.3051 9.85827 25.0493C9.11888 25.9609 8.3858 26.8646 7.64324 27.7652C7.19929 28.3055 7.30514 29.1349 7.90393 29.4952Z" fill="url(#paint0_linear_3420_746)"/>
<path d="M26.9102 18.9714C25.2276 17.9476 23.9258 19.3853 23.575 19.8451C23.2923 20.2164 23.0426 20.6197 22.7892 21.0293C22.7396 21.1094 22.6899 21.1897 22.6397 21.2702L22.6247 21.2944L22.5516 21.4122C23.842 20.3129 25.3851 19.5015 27.0817 19.0772C27.025 19.0413 26.9679 19.006 26.9102 18.9714Z" fill="url(#paint1_linear_3420_746)"/>
<path fill-rule="evenodd" clip-rule="evenodd" d="M37.641 29.8208C37.641 34.1588 34.1243 37.6755 29.7863 37.6755C26.9516 37.6755 24.4677 36.1739 23.0865 33.9227C22.4451 32.8773 22.0415 31.6702 21.951 30.3767C21.9382 30.1931 21.9317 30.0077 21.9317 29.8208C21.9317 25.4828 25.4483 21.9662 29.7863 21.9662C29.9659 21.9662 30.1441 21.9722 30.3206 21.9841C31.6509 22.0734 32.8905 22.494 33.9575 23.164C36.1702 24.5534 37.641 27.0154 37.641 29.8208ZM29.1039 26.883C29.1039 26.5207 29.3953 26.2293 29.7576 26.2293C30.0618 26.2293 30.3161 26.4349 30.3897 26.7153C30.4038 26.7688 30.4112 26.825 30.4112 26.883V29.1039H32.6479C32.7671 29.1039 32.8786 29.1354 32.9746 29.1907C33.1704 29.3033 33.3016 29.5145 33.3016 29.7576C33.3016 30.1198 33.0102 30.4112 32.6479 30.4191H30.4112V32.6479C30.4112 33.0102 30.1198 33.3016 29.7576 33.3016C29.5275 33.3016 29.3259 33.184 29.2095 33.0054C29.1427 32.9028 29.1039 32.7801 29.1039 32.6479V30.4191H26.8751C26.6695 30.4146 26.4867 30.3188 26.3671 30.1706C26.2759 30.0576 26.2214 29.9142 26.2214 29.7576C26.2214 29.5835 26.2923 29.4189 26.4105 29.2929C26.5365 29.1748 26.7018 29.1039 26.8751 29.1039H29.1039V26.883Z" fill="url(#paint2_linear_3420_746)"/>
<path d="M29.7576 26.2293C29.3953 26.2293 29.1039 26.5207 29.1039 26.883V29.1039H26.8751C26.7018 29.1039 26.5365 29.1748 26.4105 29.2929C26.2923 29.4189 26.2214 29.5835 26.2214 29.7576C26.2214 29.9142 26.2759 30.0576 26.3671 30.1706C26.4867 30.3188 26.6695 30.4146 26.8751 30.4191H29.1039V32.6479C29.1039 32.7801 29.1427 32.9028 29.2095 33.0054C29.3259 33.184 29.5275 33.3016 29.7576 33.3016C30.1198 33.3016 30.4112 33.0102 30.4112 32.6479V30.4191H32.6479C33.0102 30.4112 33.3016 30.1198 33.3016 29.7576C33.3016 29.5145 33.1704 29.3033 32.9746 29.1907C32.8786 29.1354 32.7671 29.1039 32.6479 29.1039H30.4112V26.883C30.4112 26.825 30.4038 26.7688 30.3897 26.7153C30.3161 26.4349 30.0618 26.2293 29.7576 26.2293Z" fill="white"/>
<defs>
<linearGradient id="paint0_linear_3420_746" x1="2.35938" y1="20" x2="37.641" y2="20" gradientUnits="userSpaceOnUse">
<stop offset="0.4375" stop-color="#0D99FF"/>
<stop offset="1" stop-color="#0556AF"/>
</linearGradient>
<linearGradient id="paint1_linear_3420_746" x1="2.35938" y1="20" x2="37.641" y2="20" gradientUnits="userSpaceOnUse">
<stop offset="0.4375" stop-color="#0D99FF"/>
<stop offset="1" stop-color="#0556AF"/>
</linearGradient>
<linearGradient id="paint2_linear_3420_746" x1="2.35938" y1="20" x2="37.641" y2="20" gradientUnits="userSpaceOnUse">
<stop offset="0.4375" stop-color="#0D99FF"/>
<stop offset="1" stop-color="#0556AF"/>
</linearGradient>
</defs>
</svg>
