<svg width="24" height="24" viewBox="0 0 24 24" fill="none" xmlns="http://www.w3.org/2000/svg">
<mask id="mask0_3708_3030" style="mask-type:alpha" maskUnits="userSpaceOnUse" x="0" y="0" width="24" height="24">
<path d="M2 19.6C2 20.9255 3.07452 22 4.4 22L19.6 22C20.9255 22 22 20.9255 22 19.6V16.22L2 16.22L2 19.6Z" fill="#1B2437"/>
<path d="M22 15L22 4.4C22 3.07452 20.9255 2 19.6 2L10 2L10 15L22 15Z" fill="#1B2437"/>
<path d="M2 15L2 4.4C2 3.07452 3.07452 2 4.4 2H9L9 15L2 15Z" fill="#1B2437"/>
</mask>
<g mask="url(#mask0_3708_3030)">
<rect width="24" height="24" fill="#37403E"/>
</g>
</svg>
