<svg width="24" height="24" viewBox="0 0 24 24" fill="none" xmlns="http://www.w3.org/2000/svg">
<path d="M2.25 8.25V7.125C2.25109 6.23023 2.60702 5.37242 3.23972 4.73972C3.87242 4.10702 4.73023 3.75109 5.625 3.75H6.75V4.875C6.75 5.27282 6.90804 5.65436 7.18934 5.93566C7.47064 6.21696 7.85218 6.375 8.25 6.375C8.64782 6.375 9.02936 6.21696 9.31066 5.93566C9.59196 5.65436 9.75 5.27282 9.75 4.875V3.75H14.25V4.875C14.25 5.27282 14.408 5.65436 14.6893 5.93566C14.9706 6.21696 15.3522 6.375 15.75 6.375C16.1478 6.375 16.5294 6.21696 16.8107 5.93566C17.092 5.65436 17.25 5.27282 17.25 4.875V3.75H18.375C19.2698 3.75109 20.1276 4.10702 20.7603 4.73972C21.393 5.37242 21.7489 6.23023 21.75 7.125V8.25H2.25ZM7.5 4.875C7.5 5.07391 7.57902 5.26468 7.71967 5.40533C7.86032 5.54598 8.05109 5.625 8.25 5.625C8.44891 5.625 8.63968 5.54598 8.78033 5.40533C8.92098 5.26468 9 5.07391 9 4.875V3C9 2.80109 8.92098 2.61032 8.78033 2.46967C8.63968 2.32902 8.44891 2.25 8.25 2.25C8.05109 2.25 7.86032 2.32902 7.71967 2.46967C7.57902 2.61032 7.5 2.80109 7.5 3V4.875ZM15 3V4.875C15 5.07391 15.079 5.26468 15.2197 5.40533C15.3603 5.54598 15.5511 5.625 15.75 5.625C15.9489 5.625 16.1397 5.54598 16.2803 5.40533C16.421 5.26468 16.5 5.07391 16.5 4.875V3C16.5 2.80109 16.421 2.61032 16.2803 2.46967C16.1397 2.32902 15.9489 2.25 15.75 2.25C15.5511 2.25 15.3603 2.32902 15.2197 2.46967C15.079 2.61032 15 2.80109 15 3ZM21.75 9V16.875C21.7489 17.7698 21.393 18.6276 20.7603 19.2603C20.1276 19.893 19.2698 20.2489 18.375 20.25H5.625C4.73023 20.2489 3.87242 19.893 3.23972 19.2603C2.60702 18.6276 2.25109 17.7698 2.25 16.875V9H21.75ZM14.7401 13.2409H13.1918L12.7125 11.7682C12.6632 11.6182 12.5677 11.4875 12.4398 11.3949C12.3119 11.3023 12.1579 11.2524 12 11.2524C11.8421 11.2524 11.6881 11.3023 11.5602 11.3949C11.4323 11.4875 11.3368 11.6182 11.2875 11.7682L10.809 13.2409H9.25988C9.10148 13.2408 8.94714 13.291 8.81898 13.384C8.69083 13.4771 8.59543 13.6084 8.54646 13.759C8.4975 13.9097 8.49749 14.0719 8.54642 14.2226C8.59536 14.3732 8.69073 14.5045 8.81888 14.5976L10.0717 15.5078L9.59325 16.9804C9.54428 17.131 9.54427 17.2933 9.59322 17.444C9.64217 17.5946 9.73756 17.7259 9.86572 17.819C9.99388 17.9121 10.1482 17.9622 10.3066 17.9622C10.465 17.9622 10.6194 17.912 10.7475 17.8189L12 16.9088L13.2525 17.8189C13.3806 17.912 13.535 17.9622 13.6934 17.9622C13.8518 17.9622 14.0061 17.9121 14.1343 17.819C14.2624 17.7259 14.3578 17.5946 14.4068 17.444C14.4557 17.2933 14.4557 17.131 14.4067 16.9804L13.9282 15.5078L15.1811 14.5976C15.3093 14.5045 15.4046 14.3732 15.4536 14.2226C15.5025 14.0719 15.5025 13.9097 15.4535 13.759C15.4046 13.6084 15.3092 13.4771 15.181 13.384C15.0529 13.291 14.8985 13.2408 14.7401 13.2409Z" fill="#37403E"/>
</svg>
