<svg width="24" height="24" viewBox="0 0 24 24" fill="none" xmlns="http://www.w3.org/2000/svg">
<mask id="mask0_3476_9975" style="mask-type:alpha" maskUnits="userSpaceOnUse" x="0" y="0" width="24" height="24">
<path fill-rule="evenodd" clip-rule="evenodd" d="M2 7.28571C2 4.92378 3.92378 3 6.28571 3H17.7143C20.0762 3 22 4.92378 22 7.28571V17.2857C22 19.6476 20.0762 21.5714 17.7143 21.5714H14.8571H6.28571C3.92378 21.5714 2 19.6476 2 17.2857V7.28571ZM7.20921 11.7625C7.34316 11.6285 7.52485 11.5533 7.71429 11.5533C7.90373 11.5533 8.08541 11.6285 8.21936 11.7625C8.35332 11.8965 8.42857 12.0781 8.42857 12.2676V17.2857C8.42857 17.4752 8.35332 17.6568 8.21936 17.7908C8.08541 17.9247 7.90373 18 7.71429 18C7.52485 18 7.34316 17.9247 7.20921 17.7908C7.07526 17.6568 7 17.4752 7 17.2857V12.2676C7 12.0781 7.07526 11.8965 7.20921 11.7625ZM12 6.57143C11.8106 6.57143 11.6289 6.64668 11.4949 6.78064C11.361 6.91459 11.2857 7.09627 11.2857 7.28571V17.2857C11.2857 17.4752 11.361 17.6568 11.4949 17.7908C11.6289 17.9247 11.8106 18 12 18C12.1894 18 12.3711 17.9247 12.5051 17.7908C12.639 17.6568 12.7143 17.4752 12.7143 17.2857V7.28571C12.7143 7.09627 12.639 6.91459 12.5051 6.78064C12.3711 6.64668 12.1894 6.57143 12 6.57143ZM15.7806 9.63778C15.9146 9.50383 16.0963 9.42857 16.2857 9.42857C16.4752 9.42857 16.6568 9.50383 16.7908 9.63778C16.9247 9.77174 17 9.95342 17 10.1429V17.2857C17 17.4752 16.9247 17.6568 16.7908 17.7908C16.6568 17.9247 16.4752 18 16.2857 18C16.0963 18 15.9146 17.9247 15.7806 17.7908C15.6467 17.6568 15.5714 17.4752 15.5714 17.2857V10.1429C15.5714 9.95342 15.6467 9.77174 15.7806 9.63778Z" fill="#1B2437"/>
</mask>
<g mask="url(#mask0_3476_9975)">
<rect width="24" height="24" fill="#37403E"/>
</g>
</svg>
