<svg width="45" height="44" viewBox="0 0 45 44" fill="none" xmlns="http://www.w3.org/2000/svg">
<g clip-path="url(#clip0_3476_2326)">
<path d="M0.5 13.2V40.2508C0.5 42.2766 2.13995 43.9174 4.1667 43.9174H40.8334C42.8583 43.9174 44.5001 42.2766 44.5001 40.2508V13.2H0.5Z" fill="white"/>
<path d="M40.8333 2.61389H4.1667C2.14175 2.61389 0.5 4.25564 0.5 6.28059V13.283H44.5V6.28059C44.5 4.25564 42.8582 2.61389 40.8333 2.61389Z" fill="url(#paint0_linear_3476_2326)"/>
<path d="M38.6748 7.9471C38.6748 9.37985 37.5143 10.5413 36.0806 10.5413C34.6478 10.5413 33.4883 9.37985 33.4883 7.9471C33.4883 6.51435 34.6488 5.35291 36.0806 5.35291C37.5143 5.35291 38.6748 6.51435 38.6748 7.9471Z" fill="white"/>
<path d="M11.5146 7.9471C11.5146 9.37985 10.3523 10.5413 8.92043 10.5413C7.48854 10.5413 6.32812 9.37985 6.32812 7.9471C6.32812 6.51435 7.48863 5.35291 8.92043 5.35291C10.3522 5.35291 11.5146 6.51435 11.5146 7.9471Z" fill="white"/>
<path d="M36.1071 0.00512695C35.1547 0.00512695 34.381 0.776932 34.381 1.73118L34.3545 7.32649C34.3545 8.27979 35.1282 9.05254 36.0824 9.05254C37.0349 9.05254 37.8085 8.27979 37.8085 7.32649L37.835 1.73118C37.835 0.776932 37.0614 0.00512695 36.1071 0.00512695Z" fill="url(#paint1_linear_3476_2326)"/>
<path d="M8.94695 0.00512695C7.9945 0.00512695 7.22089 0.776931 7.22089 1.73118L7.19434 7.32563C7.19434 8.27893 7.96803 9.05168 8.92039 9.05168C9.87464 9.05168 10.6464 8.27893 10.6464 7.32563L10.673 1.73032C10.6731 0.776932 9.9012 0.00512695 8.94695 0.00512695Z" fill="url(#paint2_linear_3476_2326)"/>
<g clip-path="url(#clip1_3476_2326)">
<path d="M31.3192 20.5113C26.637 15.8301 19.0224 15.8301 14.3402 20.5113C9.66003 25.1925 9.66003 32.809 14.3402 37.4902C16.6813 39.8303 19.7557 40.9999 22.8302 40.9999C25.9047 40.9999 28.9781 39.8303 31.3192 37.4902C36.0004 32.8091 36.0004 25.1925 31.3192 20.5113ZM27.7815 32.5379C28.1727 32.9291 28.1727 33.5614 27.7815 33.9526C27.5864 34.1476 27.3303 34.2457 27.0742 34.2457C26.818 34.2457 26.5619 34.1476 26.3668 33.9526L22.8302 30.4149L19.2945 33.9515C19.0984 34.1466 18.8423 34.2447 18.5872 34.2447C18.3311 34.2447 18.0749 34.1466 17.8798 33.9515C17.4886 33.5604 17.4886 32.9271 17.8798 32.5369L21.4155 29.0002L17.8788 25.4636C17.4877 25.0724 17.4877 24.4391 17.8788 24.0489C18.269 23.6578 18.9023 23.6578 19.2935 24.0489L22.8301 27.5856L26.3668 24.0489C26.7579 23.6578 27.3902 23.6578 27.7814 24.0489C28.1726 24.4391 28.1726 25.0724 27.7814 25.4636L24.2448 29.0002L27.7815 32.5379Z" fill="#D92C2C"/>
</g>
</g>
<defs>
<linearGradient id="paint0_linear_3476_2326" x1="0.5" y1="7.94846" x2="59.515" y2="7.94846" gradientUnits="userSpaceOnUse">
<stop stop-color="#0F295C"/>
<stop offset="1" stop-color="#3490FA"/>
</linearGradient>
<linearGradient id="paint1_linear_3476_2326" x1="34.3545" y1="4.52883" x2="39.0228" y2="4.52883" gradientUnits="userSpaceOnUse">
<stop stop-color="#0F295C"/>
<stop offset="1" stop-color="#3490FA"/>
</linearGradient>
<linearGradient id="paint2_linear_3476_2326" x1="7.19434" y1="4.5284" x2="11.8601" y2="4.5284" gradientUnits="userSpaceOnUse">
<stop stop-color="#0F295C"/>
<stop offset="1" stop-color="#3490FA"/>
</linearGradient>
<clipPath id="clip0_3476_2326">
<rect width="44" height="44" fill="white" transform="translate(0.5)"/>
</clipPath>
<clipPath id="clip1_3476_2326">
<rect width="24" height="24" fill="white" transform="translate(10.8301 17)"/>
</clipPath>
</defs>
</svg>
