<svg width="24" height="24" viewBox="0 0 24 24" fill="none" xmlns="http://www.w3.org/2000/svg">
<mask id="mask0_3476_9985" style="mask-type:alpha" maskUnits="userSpaceOnUse" x="0" y="0" width="24" height="24">
<path fill-rule="evenodd" clip-rule="evenodd" d="M16.0353 18.1759C16.1008 20.7181 14.1722 22.4079 12.1128 22.4684C9.96269 22.534 7.86797 20.7534 7.96868 18.1759H7.67664H3.55774C3.08442 18.1759 2.76214 17.9691 2.66143 17.5958C2.58087 17.2882 2.65136 17.0158 2.88298 16.7888C2.99989 16.6717 3.11649 16.5546 3.23301 16.4375C3.58322 16.0858 3.93271 15.7347 4.28786 15.3865C4.61516 15.0637 4.78131 14.6854 4.77628 14.2163C4.7746 14.0331 4.77264 13.8498 4.77068 13.6665C4.76089 12.7502 4.7511 11.8339 4.77628 10.9175C4.85684 7.99198 6.19624 5.82808 8.77937 4.45105C8.97072 4.35017 9.07646 4.24929 9.10667 4.01222C9.30305 2.5898 10.5971 1.51038 12.0423 1.53055C13.5076 1.55577 14.7463 2.67051 14.9225 4.11815C14.9326 4.21398 15.0333 4.33504 15.1239 4.38548C17.4301 5.57083 18.7846 7.43713 19.1673 9.99951C19.2221 10.3565 19.2282 10.7258 19.2282 11.0929L19.228 11.2502L19.2277 11.4068C19.2378 12.3635 19.2328 13.3152 19.2277 14.2718L19.2277 14.2769C19.2277 14.6955 19.3737 15.0436 19.6658 15.3361C19.7997 15.4702 19.9331 15.6047 20.0665 15.7392C20.3998 16.0751 20.7326 16.4106 21.0706 16.7384C21.3476 17.0057 21.4483 17.3134 21.3073 17.6715C21.1613 18.0347 20.8592 18.1759 20.4865 18.1759H16.3425H16.0353ZM10.6928 20.476C9.87204 19.9514 9.53468 19.1696 9.59007 18.191H14.419C14.4743 19.1545 14.142 19.9363 13.3414 20.4609C12.4753 21.0258 11.5639 21.0359 10.6928 20.476Z" fill="#1B2437"/>
</mask>
<g mask="url(#mask0_3476_9985)">
<rect width="24" height="24" fill="#37403E"/>
</g>
</svg>
