<svg width="24" height="24" viewBox="0 0 24 24" fill="none" xmlns="http://www.w3.org/2000/svg">
<path d="M17.0186 18.0843C12.7838 21.5798 6.9378 20.7627 3.76554 16.9847C0.668804 13.2975 0.850073 7.8903 4.15326 4.43513C7.58736 0.843765 13.1061 0.611739 16.8272 3.62304C20.7447 6.7907 21.5906 12.7982 18.1112 16.9847C18.1767 17.0503 18.2421 17.1259 18.3076 17.1915C19.5866 18.4727 20.8656 19.7539 22.1445 21.0351C22.3661 21.257 22.497 21.5092 22.4265 21.827C22.2956 22.4171 21.6209 22.6593 21.1475 22.281C21.0619 22.2154 20.9864 22.1347 20.9058 22.059C19.6671 20.8182 18.4284 19.5824 17.1948 18.3365C17.1293 18.2709 17.084 18.1751 17.0186 18.0843ZM10.9258 3.12872C6.65079 3.12872 3.15626 6.60911 3.15123 10.8713C3.14619 15.2193 6.61051 18.7199 10.9208 18.7199C15.231 18.7199 18.7054 15.2344 18.7104 10.9117C18.7155 6.6192 15.226 3.13376 10.9258 3.12872Z" fill="#37403E"/>
</svg>
