<svg width="18" height="19" viewBox="0 0 18 19" fill="none" xmlns="http://www.w3.org/2000/svg">
<path d="M14.5259 0.653643C14.5759 0.692643 16.2489 1.99264 16.2489 1.99264C16.8569 2.35464 17.3319 3.00164 17.5119 3.76764C17.6909 4.52564 17.5609 5.30764 17.1439 5.96864C17.1412 5.97305 17.1384 5.97741 17.1287 5.99037L17.1212 6.00038C17.0535 6.08958 16.7593 6.46164 15.2742 8.32223C15.2604 8.34661 15.2448 8.36945 15.2277 8.39164C15.2027 8.42435 15.1754 8.45442 15.1464 8.4818C15.0451 8.60934 14.9381 8.74335 14.8256 8.88424L14.5977 9.1697C14.1274 9.75868 13.5695 10.4571 12.9077 11.2855L12.5681 11.7106C11.2904 13.3097 9.6541 15.3572 7.55794 17.9796C7.09894 18.5516 6.41094 18.8846 5.67194 18.8936L2.03294 18.9396H2.02294C1.67594 18.9396 1.37394 18.7016 1.29294 18.3626L0.473942 14.8916C0.304942 14.1726 0.472942 13.4306 0.933942 12.8546L4.75367 8.07715L7.4749 4.67358C7.58416 4.62512 7.71518 4.63702 7.81095 4.7114L10.5838 6.99128C10.7633 7.14397 11.012 7.22831 11.2736 7.19731C11.8308 7.1358 12.2126 6.63287 12.1634 6.08924C12.1333 5.81157 12.0003 5.57867 11.821 5.40289C11.7649 5.3559 9.12702 3.17032 9.12702 3.17032C9.0118 3.07384 8.96115 2.92415 8.9851 2.78471L10.3539 1.07264C10.3559 1.07064 10.3577 1.06839 10.3594 1.06614C10.3612 1.06389 10.3629 1.06164 10.3649 1.05964C10.4818 0.919969 10.6093 0.793764 10.7454 0.68123C11.8127 -0.201265 13.4084 -0.243017 14.5259 0.653643Z" fill="white" fill-opacity="0.95"/>
</svg>
