<svg width="24" height="24" viewBox="0 0 24 24" fill="none" xmlns="http://www.w3.org/2000/svg">
<path d="M21.1764 12.0071V15.5365H19.0588V13.0659H13.4117V15.5365H11.2941V13.0659H4.94113V15.5365H2.82349V12.0071C2.82349 11.4212 3.29643 10.9482 3.88231 10.9482H11.2941V8.46353H13.4117V10.9482H20.1176C20.7035 10.9482 21.1764 11.4212 21.1764 12.0071Z" fill="#37403E"/>
<path d="M7.05875 17.6541V21.1835C7.05875 21.7624 6.58581 22.2424 5.99993 22.2424H1.76463C1.17875 22.2424 0.705811 21.7624 0.705811 21.1835V17.6541C0.705811 17.0682 1.17875 16.5953 1.76463 16.5953H5.99993C6.58581 16.5953 7.05875 17.0682 7.05875 17.6541Z" fill="#37403E"/>
<path d="M15.5295 17.6541V21.1835C15.5295 21.7624 15.0565 22.2424 14.4706 22.2424H10.2353C9.64945 22.2424 9.17651 21.7624 9.17651 21.1835V17.6541C9.17651 17.0682 9.64945 16.5953 10.2353 16.5953H14.4706C15.0565 16.5953 15.5295 17.0682 15.5295 17.6541Z" fill="#37403E"/>
<path d="M23.2941 17.6541V21.1835C23.2941 21.7624 22.8212 22.2424 22.2353 22.2424H18C17.4141 22.2424 16.9412 21.7624 16.9412 21.1835V17.6541C16.9412 17.0682 17.4141 16.5953 18 16.5953H22.2353C22.8212 16.5953 23.2941 17.0682 23.2941 17.6541Z" fill="#37403E"/>
<path d="M15.5295 2.81647V6.34588C15.5295 6.93176 15.0565 7.4047 14.4706 7.4047H10.2353C9.64945 7.4047 9.17651 6.93176 9.17651 6.34588V2.81647C9.17651 2.23059 9.64945 1.75764 10.2353 1.75764H14.4706C15.0565 1.75764 15.5295 2.23059 15.5295 2.81647Z" fill="#37403E"/>
</svg>
