<svg width="24" height="24" viewBox="0 0 24 24" fill="none" xmlns="http://www.w3.org/2000/svg">
<mask id="mask0_3476_9995" style="mask-type:alpha" maskUnits="userSpaceOnUse" x="0" y="0" width="24" height="24">
<path fill-rule="evenodd" clip-rule="evenodd" d="M14.448 2.00031C14.4909 2.00031 14.533 2.00392 14.574 2.01087L14.7109 2.01171C14.9149 2.01171 15.1099 2.09471 15.2519 2.24171L20.3169 7.51871C20.4509 7.65771 20.526 7.84471 20.526 8.03771V17.2037C20.5439 19.7127 18.5899 21.7627 16.0769 21.8647L8.05788 21.8657H7.94888C5.49893 21.8103 3.53404 19.8289 3.47418 17.4029L3.47388 6.49071C3.53188 4.00971 5.58088 2.01171 8.04388 2.01171L14.3219 2.01087C14.3629 2.00392 14.405 2.00031 14.448 2.00031ZM15.0112 15.3584C15.0112 14.9444 14.6752 14.6084 14.2612 14.6084H8.86118C8.44718 14.6084 8.11118 14.9444 8.11118 15.3584C8.11118 15.7724 8.44718 16.1084 8.86118 16.1084H14.2612C14.6752 16.1084 15.0112 15.7724 15.0112 15.3584ZM12.9663 11.6064C12.9663 11.1924 12.6303 10.8564 12.2163 10.8564H8.86028C8.44628 10.8564 8.11028 11.1924 8.11028 11.6064C8.11028 12.0204 8.44628 12.3564 8.86028 12.3564H12.2163C12.6303 12.3564 12.9663 12.0204 12.9663 11.6064ZM15.198 5.65931L15.1979 4.35231L18.2039 7.48331L17.018 7.48431C16.015 7.48131 15.198 6.66331 15.198 5.65931Z" fill="#1B2437"/>
</mask>
<g mask="url(#mask0_3476_9995)">
<rect width="24" height="24" fill="#37403E"/>
</g>
</svg>
