<svg width="24" height="24" viewBox="0 0 24 24" fill="none" xmlns="http://www.w3.org/2000/svg">
<path fill-rule="evenodd" clip-rule="evenodd" d="M7.01193 20.3792C6.32211 19.9677 5.68739 19.4733 5.12146 18.9099C6.72464 17.5995 9.20996 16.7583 12.0001 16.7583C14.7902 16.7583 17.2755 17.5995 18.8787 18.9099C20.6523 17.1443 21.75 14.7003 21.75 12C21.75 6.61522 17.3848 2.25 12 2.25C6.61522 2.25 2.25 6.61522 2.25 12C2.25 15.562 4.16012 18.6779 7.01193 20.3792ZM15.9945 20.8968C15.9945 20.8968 15.9945 20.8968 15.9945 20.8968ZM15.6942 9.97713C15.6942 12.0174 14.0403 13.6714 12 13.6714C9.95975 13.6714 8.30579 12.0174 8.30579 9.97713C8.30579 7.93686 9.95975 6.2829 12 6.2829C14.0403 6.2829 15.6942 7.93686 15.6942 9.97713Z" fill="#37403E"/>
</svg>
