<svg xmlns="http://www.w3.org/2000/svg" xmlns:xlink="http://www.w3.org/1999/xlink" version="1.1" x="0px" y="0px" viewBox="0 0 95.166 296.47749999999996" style="enable-background:new 0 0 95.166 237.182;" xml:space="preserve"><g><path d="M16.965,97.809c0.841-8.17,2.146-14.326,3.577-18.867v15.262c4.858-4.437,13.005-13.137,20.75-21.649   c8.659-9.515,16.837-18.785,19.679-21.856H29.563c-0.341-0.044-0.808-0.084-1.396-0.084c-1.798-0.011-4.868,0.405-8.222,2.28   c-5.095,2.813-10.225,8.633-13.831,18.767C2.47,81.848,0.013,96.591,0,118.935c0,6.038,0.184,12.629,0.582,19.835   c0.236,4.261,3.765,7.558,7.981,7.559c0.149,0,0.298-0.004,0.449-0.013c0.755-0.042,1.477-0.194,2.158-0.428   c0.456-14.918,1.362-29.444,3.078-38.944C15.012,102.925,15.792,99.828,16.965,97.809z"/><path d="M75.271,52.922c7.391,23.06,9.51,61.082,9.829,93.257c0.348,0.065,0.7,0.118,1.064,0.138   c0.148,0.008,0.298,0.012,0.445,0.012c4.218,0,7.748-3.3,7.981-7.563c0.395-7.206,0.576-13.795,0.576-19.831   c-0.045-29.771-4.315-46.111-10.169-56.015C82.077,58.022,78.617,54.782,75.271,52.922z"/><path d="M20.542,224.818c0,6.83,5.537,12.363,12.363,12.363c6.828,0,12.365-5.533,12.365-12.363v-17.195   c-8.236-0.161-17.913-1.27-24.729-2.197V224.818z"/><path d="M49.905,224.818c0,6.83,5.537,12.363,12.363,12.363c6.828,0,12.365-5.533,12.365-12.363v-18.961   c-6.771,0.714-16.47,1.588-24.728,1.758V224.818z"/><circle cx="47.587" cy="22.5" r="22.5"/><path d="M63.299,51.153v0.002c-0.021,0.022-0.058,0.057-0.101,0.1c-0.09,0.091-0.216,0.22-0.369,0.382   c-0.309,0.326-0.731,0.787-1.253,1.361c-1.045,1.147-2.479,2.747-4.195,4.666c-3.434,3.835-7.989,8.935-12.797,14.238   C34.949,82.523,24.384,93.888,19.569,97.68c-1.072,0.731-2.456,4.372-3.354,9.62c-0.954,5.261-1.659,12.197-2.173,19.916   c-1.029,15.444-1.293,34.045-1.291,48.961c-0.001,13.022,0.199,23.221,0.263,26.114c1.711,0.276,5.966,0.942,11.289,1.609   c6.956,0.874,15.726,1.743,22.898,1.743c7.188,0,16.107-0.684,23.216-1.37c5.451-0.526,9.828-1.051,11.579-1.269   c0.094-1.809,0.322-6.481,0.551-13.194c0.301-8.735,0.599-20.904,0.599-34.638c0.011-34.361-1.896-78.594-10.244-103.07   c-1.508-1.005-4.082-1.475-6.227-1.459c-1.713-0.038-3.293,0.369-3.372,0.508l-0.6-0.8l0,0L63.299,51.153z"/></g><text x="0" y="252.182" fill="#000000" font-size="5px" font-weight="bold" font-family="'Helvetica Neue', Helvetica, Arial-Unicode, Arial, Sans-serif">Created by Gan Khoon Lay</text><text x="0" y="257.182" fill="#000000" font-size="5px" font-weight="bold" font-family="'Helvetica Neue', Helvetica, Arial-Unicode, Arial, Sans-serif">from the Noun Project</text></svg>