<svg width="32" height="32" viewBox="0 0 32 32" fill="none" xmlns="http://www.w3.org/2000/svg">
<path d="M15.9716 2.66669C19.1284 2.66669 21.918 4.61613 22.9477 7.50385C23.0561 7.7954 23.029 8.11346 22.8935 8.39176C22.758 8.67007 22.5155 8.88211 22.2161 8.9762C21.6064 9.18691 20.929 8.87018 20.6986 8.26056C20.0077 6.29787 18.1122 4.98587 15.9986 4.98587C13.2334 4.98587 10.9992 7.16061 10.9843 9.82303V11.6121L10.9681 11.6148H21.6416C24.7849 11.6148 27.3333 14.1076 27.3333 17.1821V23.766C27.3333 26.8406 24.7849 29.3334 21.6416 29.3334H10.357C7.21515 29.3334 4.66667 26.8406 4.66667 23.766V17.1821C4.66667 14.6536 6.40088 12.5424 8.76103 11.8639L8.61335 11.8811V9.84954C8.64045 5.88837 11.9341 2.66669 15.9716 2.66669ZM15.9932 17.8434C15.3429 17.8434 14.8145 18.3603 14.8145 18.9964V21.9385C14.8145 22.5878 15.3429 23.1047 15.9932 23.1047C16.6571 23.1047 17.1855 22.5878 17.1855 21.9385V18.9964C17.1855 18.3603 16.6571 17.8434 15.9932 17.8434Z" fill="#37403E"/>
</svg>
