<svg width="418" height="83" viewBox="0 0 418 83" fill="none" xmlns="http://www.w3.org/2000/svg">
<g clip-path="url(#clip0_2297_5738)">
<path fill-rule="evenodd" clip-rule="evenodd" d="M65.6648 3.41462C65.7229 5.2705 62.944 8.49754 61.7588 10.7435C63.7591 12.8102 66.0416 16.937 66.6392 23.4342C67.3281 30.8544 70.7975 39.0233 69.5724 43.4538C68.4071 47.647 61.3322 50.4208 58.3408 45.894C61.8019 34.1711 48.0306 36.6694 46.6246 28.3163C42.7933 33.0921 48.0322 36.7391 50.5289 39.5462C53.9767 43.4206 57.5806 47.4727 57.8528 54.6821C58.306 66.6341 51.4402 76.194 44.1827 83C43.0738 82.4804 43.9968 79.929 43.693 78.6043C36.2761 62.1189 10.6557 59.3118 13.4229 33.1983C14.8854 19.3954 26.9917 6.1171 41.7408 4.8804C44.0516 4.68452 46.852 5.73364 49.0648 5.37176C53.165 4.69614 54.8781 0.84992 59.805 0C61.7837 0.32702 58.6695 3.2038 58.8272 4.8804C59.9129 5.13438 63.7226 3.92922 65.6631 3.41462H65.6648Z" fill="#F3BF17"/>
</g>
<path d="M99.6412 61.6597V59.3612C101.758 59.1795 102.975 59.0069 103.284 58.8434C103.484 58.7343 103.63 58.5617 103.72 58.3255C103.902 57.8894 104.029 56.4086 104.102 53.8921C104.193 49.9855 104.238 46.9058 104.238 44.6618C104.238 41.6274 104.202 37.7754 104.129 33.1057C104.056 29.6171 103.884 27.4821 103.611 26.7008C103.539 26.4646 103.393 26.2829 103.175 26.1557C102.885 25.974 101.703 25.7742 99.6412 25.5561V23.2576C103.421 23.3848 105.855 23.4484 106.955 23.4484L120.673 23.2576C123.653 23.2576 125.815 23.5484 127.178 24.1207C128.54 24.6931 129.612 25.6197 130.412 26.8825C131.202 28.1453 131.602 29.6353 131.602 31.3523C131.602 33.5418 130.966 35.4587 129.694 37.1122C128.422 38.7656 126.224 40.2283 123.08 41.5002L128.913 50.2944L133.455 57.0355C134.309 58.1257 134.954 58.7889 135.372 59.0251C135.79 59.2522 136.481 59.3794 137.425 59.3975V61.5052L135.808 61.5325C131.175 61.5688 128.186 61.6234 126.851 61.696C125.261 59.1613 122.89 55.4819 119.728 50.6578L114.086 42.0816C114.25 41.7727 114.386 41.4457 114.495 41.1005C115.222 41.1913 115.767 41.2367 116.112 41.2367C117.811 41.2367 119.483 40.5463 121.127 39.1745C122.771 37.8026 123.589 35.8494 123.589 33.3056C123.589 31.0889 122.935 29.3718 121.636 28.1453C120.337 26.9189 118.383 26.3102 115.785 26.3102C114.958 26.3102 113.841 26.3738 112.433 26.501L112.251 34.5866L112.024 44.8344C112.024 47.151 112.115 50.1218 112.297 53.7467C112.442 56.4722 112.587 57.9984 112.733 58.3255C112.842 58.5617 113.042 58.7525 113.332 58.8979C113.714 59.1159 114.949 59.2794 117.039 59.3885V61.6869C113.759 61.5598 110.852 61.4962 108.317 61.4962C105.619 61.4962 102.721 61.5598 99.623 61.6869L99.6412 61.6597Z" fill="white"/>
<path d="M139.896 61.6598V59.4158C141.959 59.3431 143.149 59.2159 143.467 59.0342C143.785 58.8525 143.994 58.3437 144.085 57.4988C144.23 56.3451 144.303 53.8013 144.303 49.8766C144.303 48.1777 144.275 46.606 144.221 45.1615L144.139 41.9545C144.139 40.8916 144.021 40.2375 143.794 39.9922C143.567 39.7469 142.949 39.6015 141.95 39.5652L139.896 39.4834V37.3757C144.294 37.0396 147.918 36.2583 150.771 35.0227L151.453 35.5678C151.18 39.0655 151.044 44.1531 151.044 50.8305C151.044 54.6916 151.107 57.0264 151.234 57.8259C151.325 58.3892 151.489 58.7617 151.734 58.9252C151.979 59.0887 153.17 59.2522 155.314 59.4158V61.6598C152.025 61.5507 149.472 61.4962 147.673 61.4962C146.71 61.4962 144.112 61.5507 139.896 61.6598ZM147.51 21.9222C148.682 21.9222 149.681 22.3401 150.508 23.1669C151.334 23.9936 151.752 25.0111 151.752 26.1921C151.752 27.3732 151.334 28.3635 150.508 29.1902C149.681 30.0169 148.663 30.4348 147.482 30.4348C146.301 30.4348 145.311 30.0169 144.484 29.1902C143.658 28.3635 143.24 27.3641 143.24 26.1921C143.24 25.0202 143.658 23.9936 144.484 23.1669C145.311 22.3401 146.32 21.9222 147.51 21.9222Z" fill="white"/>
<path d="M179.116 36.1944V31.4702C179.116 28.5358 179.053 26.8369 178.925 26.3645C178.835 26.0193 178.662 25.774 178.398 25.6377C178.135 25.5014 176.909 25.4015 174.71 25.347V23.3755C179.053 22.9031 182.696 22.0219 185.639 20.75L186.348 21.4041C186.175 24.3476 186.075 27.1276 186.039 29.7622L185.857 51.2754C185.857 54.873 185.921 57.0625 186.048 57.8529C186.121 58.3435 186.302 58.6887 186.584 58.8795C186.866 59.0703 187.983 59.252 189.936 59.4155V61.6595C187.701 61.5505 185.53 61.496 183.404 61.496C181.869 61.496 180.434 61.5505 179.098 61.6595L178.635 61.3324C178.871 59.4882 179.034 57.9982 179.125 56.8717C177.881 57.7984 175.9 59.3973 173.184 61.6686C172.139 62.0501 171.167 62.2409 170.249 62.2409C167.215 62.2409 164.689 61.1144 162.682 58.8522C160.665 56.5901 159.656 53.5921 159.656 49.8491C159.656 48.023 159.865 46.3604 160.274 44.8705C160.683 43.3806 161.164 42.2631 161.728 41.5091C162.291 40.755 163.399 39.8011 165.08 38.6292C167.36 37.0393 169.032 36.04 170.077 35.6311C171.121 35.2223 172.275 35.0133 173.511 35.0133C174.401 35.0133 175.319 35.1133 176.245 35.3041C177.172 35.4948 178.135 35.7947 179.125 36.1944H179.116ZM179.116 42.0633C178.262 40.8368 177.281 39.9283 176.182 39.3196C175.082 38.72 173.874 38.4111 172.539 38.4111C170.658 38.4111 169.214 39.0834 168.214 40.428C167.215 41.7726 166.706 44.0256 166.706 47.1872C166.706 50.3487 167.324 52.8744 168.559 54.4824C169.795 56.0904 171.367 56.899 173.284 56.899C174.583 56.899 175.782 56.5265 176.881 55.7724C177.99 55.0275 178.635 54.337 178.825 53.7193C179.016 53.1015 179.116 50.7394 179.116 46.6421V42.0633Z" fill="white"/>
<path d="M215.565 56.3723L216.355 57.1718L215.129 59.7973C213.811 60.615 212.403 61.2237 210.895 61.6325C209.387 62.0413 207.788 62.2412 206.089 62.2412C202.11 62.2412 198.976 61.0874 196.677 58.7708C194.379 56.4541 193.243 53.2108 193.243 49.0226C193.243 46.3698 193.579 44.1803 194.261 42.4451C194.806 41.0369 195.705 39.8741 196.959 38.9383C198.213 38.0026 199.648 37.1213 201.283 36.2764C202.919 35.4315 204.708 35.0136 206.662 35.0136C209.66 35.0136 212.131 35.8494 214.084 37.5302C216.037 39.2018 217.018 41.9 217.018 45.6157C217.018 46.07 216.982 46.7695 216.909 47.7053L212.421 48.5229C211.041 48.6138 209.033 48.6592 206.407 48.6592H200.475C200.747 51.8117 201.692 54.1828 203.3 55.7727C204.908 57.3626 206.952 58.162 209.433 58.162C210.477 58.162 211.504 58.0076 212.53 57.7078C213.557 57.408 214.566 56.9628 215.574 56.3723H215.565ZM200.311 45.752C201.956 45.8974 203.6 45.97 205.244 45.97C206.689 45.97 208.206 45.8974 209.787 45.752L209.814 44.462C209.814 42.2089 209.405 40.5645 208.579 39.5288C207.761 38.4931 206.643 37.9753 205.235 37.9753C204.254 37.9753 203.4 38.2206 202.692 38.7021C201.983 39.1927 201.447 39.8741 201.102 40.7462C200.756 41.6184 200.493 43.29 200.311 45.752Z" fill="white"/>
<path d="M219.726 61.6598V59.4158C221.57 59.3249 222.633 59.2159 222.906 59.0887C223.124 58.9797 223.297 58.8071 223.424 58.5709C223.624 58.1348 223.742 57.1627 223.778 55.6637C223.851 52.9927 223.887 50.567 223.887 48.3685C223.887 44.144 223.833 41.6456 223.724 40.8552C223.669 40.401 223.506 40.0739 223.233 39.8832C222.96 39.6924 221.788 39.5561 219.726 39.4834V37.3757C223.406 37.0214 226.04 36.5944 227.621 36.0766L230.437 35.0227C230.692 35.0227 230.819 35.1953 230.819 35.5406L230.801 35.9221C230.746 37.0759 230.71 38.7294 230.71 40.8825C231.637 39.9922 232.672 38.8565 233.808 37.4847C234.644 36.4581 235.38 35.7949 235.997 35.486C236.615 35.1772 237.451 35.0227 238.487 35.0227C239.068 35.0227 239.668 35.1227 240.267 35.3225C240.104 37.1486 239.995 39.6379 239.94 42.7722L238.705 43.2082C238.287 42.4905 237.823 41.9909 237.324 41.7092C236.824 41.4276 236.17 41.2822 235.361 41.2822C234.262 41.2822 233.326 41.5639 232.545 42.1362C231.764 42.6995 231.255 43.3536 231.037 44.0895C230.892 44.6346 230.819 46.5061 230.819 49.6949C230.819 54.3282 230.882 57.0264 231.01 57.7987C231.082 58.3074 231.255 58.6617 231.528 58.8434C231.945 59.116 233.326 59.3068 235.661 59.4249V61.6688L232.59 61.5871C230.637 61.5326 228.947 61.5053 227.521 61.5053C226.095 61.5053 224.596 61.5326 222.806 61.5871L219.708 61.6688L219.726 61.6598Z" fill="white"/>
<path d="M256.975 61.6597V59.3612C259.482 59.234 260.899 59.025 261.226 58.7343C261.553 58.4436 261.753 57.7168 261.826 56.5721C261.971 54.1646 262.044 49.6675 262.044 43.0991C262.044 40.5826 262.008 36.9305 261.935 32.1427C261.899 28.8721 261.826 27.0824 261.717 26.7644C261.608 26.4464 261.417 26.2102 261.145 26.0649C260.745 25.865 259.355 25.6924 256.984 25.547V23.2485C260.745 23.3757 263.625 23.4393 265.614 23.4393C269.048 23.4393 272.146 23.3757 274.926 23.2485V25.547C272.428 25.6924 271.02 25.8922 270.702 26.1375C270.384 26.3828 270.175 26.9552 270.084 27.8455C269.939 29.5989 269.866 33.1511 269.866 38.5022C269.866 45.6248 269.893 50.5851 269.948 53.3833C270.002 56.1905 270.166 57.8531 270.438 58.38C270.548 58.6162 270.784 58.807 271.138 58.9433C271.492 59.0795 272.755 59.2249 274.936 59.3702V61.6688L271.701 61.587C269.657 61.5143 267.831 61.478 266.223 61.478L256.993 61.6688L256.975 61.6597Z" fill="white"/>
<path d="M278.388 61.6598V59.4158C280.377 59.3068 281.504 59.1432 281.758 58.9343C282.013 58.7253 282.167 58.2529 282.222 57.5261C282.331 55.6818 282.385 52.4294 282.385 47.7598C282.385 45.4522 282.349 43.4717 282.276 41.8092C282.24 40.7826 282.167 40.183 282.058 40.0013C281.967 39.8559 281.822 39.7469 281.622 39.6742C281.422 39.6015 280.341 39.5379 278.388 39.4834V37.3757C279.378 37.3757 280.913 37.1668 283.012 36.7398C285.111 36.3128 286.873 35.8222 288.299 35.268L289.044 35.0136C289.299 35.0136 289.426 35.2226 289.426 35.6405L289.399 35.8858C289.344 36.3945 289.317 37.7119 289.317 39.8286L293.55 36.2673C294.077 35.8131 294.622 35.5042 295.195 35.3407C295.994 35.1226 296.975 35.0136 298.12 35.0136C300.055 35.0136 301.636 35.3498 302.863 36.013C304.089 36.6852 304.997 37.6028 305.57 38.7839C306.142 39.9649 306.433 41.8001 306.433 44.2894C306.433 45.3886 306.406 46.6605 306.351 48.105C306.26 51.0667 306.215 53.6287 306.215 55.7909C306.215 57.0174 306.315 57.8713 306.515 58.3438C306.66 58.6708 306.869 58.8889 307.132 58.9979C307.396 59.1069 308.395 59.2432 310.13 59.4067V61.6507L306.76 61.5416L304.598 61.4871L298.956 61.6507L298.656 61.2964C299.129 57.8259 299.365 54.2555 299.365 50.6034C299.365 45.961 299.083 43.0992 298.52 42.0181C297.793 40.6281 296.458 39.9377 294.523 39.9377C293.278 39.9377 292.206 40.2556 291.288 40.8825C290.371 41.5094 289.78 42.1907 289.508 42.8994C289.38 43.1901 289.317 44.1167 289.317 45.6703C289.317 52.3023 289.344 56.0907 289.399 57.0537C289.453 58.0167 289.608 58.6072 289.862 58.8253C290.189 59.0978 291.416 59.2886 293.532 59.4067V61.6507C290.353 61.5416 287.673 61.4871 285.483 61.4871C284.184 61.4871 281.822 61.5416 278.388 61.6507V61.6598Z" fill="white"/>
<path d="M316.044 52.7928C316.135 55.1458 316.253 56.4632 316.399 56.7357C316.798 57.4807 317.552 58.1439 318.652 58.7072C319.751 59.2704 321.032 59.5611 322.495 59.5611C324.284 59.5611 325.611 59.1887 326.501 58.4528C327.382 57.7169 327.827 56.7357 327.827 55.5274C327.827 54.4827 327.509 53.6468 326.873 53.0382C326.238 52.4386 324.866 51.9116 322.767 51.4483C319.587 50.7578 317.525 50.1491 316.562 49.6313C315.599 49.1135 314.845 48.3412 314.273 47.3146C313.709 46.2971 313.428 45.0706 313.428 43.6443C313.428 41.9636 313.846 40.4737 314.681 39.1836C315.517 37.8845 316.726 36.8669 318.306 36.1311C319.887 35.3952 321.968 35.0227 324.557 35.0227C327.146 35.0227 329.762 35.4588 332.079 36.34C331.834 37.8209 331.67 40.1375 331.589 43.2718H329.426C329.317 41.3004 329.163 40.1375 328.963 39.7923C328.69 39.2654 328.173 38.8202 327.4 38.4477C326.337 37.9571 325.211 37.7118 324.003 37.7118C322.467 37.7118 321.277 38.0571 320.432 38.7384C319.587 39.4198 319.16 40.2829 319.16 41.3186C319.16 42.2816 319.542 43.0447 320.314 43.608C321.077 44.1894 322.903 44.7436 325.792 45.2705C327.782 45.6339 329.163 45.9701 329.926 46.288C331.207 46.8331 332.179 47.6326 332.842 48.6865C333.505 49.7403 333.842 51.0667 333.842 52.6747C333.842 55.7636 332.651 58.1348 330.262 59.7792C327.873 61.4235 325.029 62.2503 321.731 62.2503C320.641 62.2503 319.424 62.1231 318.097 61.8687C316.771 61.6143 315.317 61.2419 313.746 60.7604L313.337 60.297C313.555 58.7072 313.691 56.2088 313.746 52.8019H316.071L316.044 52.7928Z" fill="white"/>
<path d="M337.049 39.4564V37.3487C339.965 37.0762 342.7 36.5493 345.234 35.7861L347.951 34.8231C348.278 34.8231 348.441 35.0321 348.441 35.4591L348.332 37.0762C348.023 41.2825 347.869 45.3344 347.869 49.25C347.869 51.7756 347.996 53.4473 348.251 54.2831C348.505 55.1189 348.968 55.7548 349.631 56.2182C350.295 56.6724 351.185 56.9086 352.302 56.9086C353.602 56.9086 354.737 56.5543 355.709 55.8366C356.69 55.128 357.29 54.3376 357.517 53.4745C357.744 52.6205 357.862 50.1676 357.862 46.1248C357.862 42.8906 357.808 40.9918 357.699 40.4467C357.626 40.156 357.499 39.9561 357.317 39.8471C357.045 39.7017 355.8 39.5746 353.592 39.4655V37.3578C357.326 36.9399 360.07 36.4493 361.814 35.877L364.712 34.8322C365.021 34.8322 365.176 35.023 365.176 35.4136L365.121 36.1586C364.831 39.3383 364.685 45.1164 364.685 53.4745C364.685 56.0365 364.758 57.6445 364.903 58.3077C364.994 58.6166 365.139 58.8346 365.339 58.9618C365.63 59.1253 366.775 59.2798 368.764 59.4252V61.6691C366.675 61.5601 364.603 61.5056 362.55 61.5056C360.879 61.5056 359.325 61.5601 357.89 61.6691L357.644 61.1785C357.726 60.27 357.799 58.8346 357.862 56.8814C356.164 58.2532 354.519 59.7613 352.929 61.3966C351.63 61.9598 350.358 62.2506 349.095 62.2506C347.415 62.2506 345.952 61.9144 344.717 61.2331C343.472 60.5608 342.554 59.6704 341.964 58.5893C341.373 57.4991 341.073 55.9729 341.073 54.0014L341.128 51.0125C341.182 49.1682 341.21 47.6692 341.21 46.5154C341.21 43.263 341.146 41.3189 341.019 40.6738C340.928 40.2559 340.737 39.9561 340.447 39.7835C340.156 39.6109 339.02 39.5019 337.049 39.4655V39.4564Z" fill="white"/>
<path d="M370.818 61.6598V59.4158C372.662 59.3249 373.725 59.2159 373.998 59.0887C374.216 58.9797 374.388 58.8071 374.516 58.5709C374.715 58.1348 374.834 57.1627 374.87 55.6637C374.943 52.9927 374.979 50.567 374.979 48.3685C374.979 44.144 374.924 41.6456 374.815 40.8552C374.761 40.401 374.597 40.0739 374.325 39.8832C374.052 39.6924 372.88 39.5561 370.818 39.4834V37.3757C374.497 37.0214 377.132 36.5944 378.713 36.0766L381.529 35.0227C381.783 35.0227 381.911 35.1953 381.911 35.5406L381.893 35.9221C381.838 37.0759 381.802 38.7294 381.802 40.8825C382.728 39.9922 383.764 38.8565 384.9 37.4847C385.735 36.4581 386.471 35.7949 387.089 35.486C387.707 35.1772 388.543 35.0227 389.578 35.0227C390.16 35.0227 390.759 35.1227 391.359 35.3225C391.195 37.1486 391.086 39.6379 391.032 42.7722L389.796 43.2082C389.379 42.4905 388.915 41.9909 388.416 41.7092C387.916 41.4276 387.262 41.2822 386.453 41.2822C385.354 41.2822 384.418 41.5639 383.628 42.1362C382.846 42.6995 382.338 43.3536 382.12 44.0895C381.974 44.6346 381.902 46.5061 381.902 49.6949C381.902 54.3282 381.965 57.0264 382.092 57.7987C382.165 58.3074 382.338 58.6617 382.61 58.8434C383.028 59.116 384.409 59.3068 386.744 59.4249V61.6688L383.673 61.5871C381.72 61.5326 380.03 61.5053 378.604 61.5053C377.25 61.5053 375.688 61.5326 373.898 61.5871L370.8 61.6688L370.818 61.6598Z" fill="white"/>
<path d="M416.524 56.3723L417.314 57.1718L416.088 59.7973C414.77 60.615 413.362 61.2237 411.854 61.6325C410.346 62.0413 408.747 62.2412 407.048 62.2412C403.069 62.2412 399.926 61.0874 397.636 58.7708C395.347 56.4541 394.202 53.2108 394.202 49.0226C394.202 46.3698 394.538 44.1803 395.22 42.4451C395.765 41.0369 396.664 39.8741 397.918 38.9383C399.172 38.0026 400.616 37.1213 402.242 36.2764C403.878 35.4315 405.667 35.0136 407.621 35.0136C410.619 35.0136 413.09 35.8494 415.043 37.5302C416.996 39.2018 417.977 41.9 417.977 45.6157C417.977 46.07 417.941 46.7695 417.868 47.7053L413.39 48.5229C412.009 48.6138 410.001 48.6592 407.375 48.6592H401.443C401.715 51.8117 402.66 54.1828 404.268 55.7727C405.876 57.3626 407.92 58.162 410.401 58.162C411.436 58.162 412.472 58.0076 413.499 57.7078C414.516 57.408 415.534 56.9628 416.542 56.3723H416.524ZM401.27 45.752C402.915 45.8974 404.559 45.97 406.203 45.97C407.648 45.97 409.165 45.8974 410.746 45.752L410.773 44.462C410.773 42.2089 410.364 40.5645 409.538 39.5288C408.72 38.4931 407.602 37.9753 406.194 37.9753C405.213 37.9753 404.359 38.2206 403.65 38.7021C402.942 39.1927 402.406 39.8741 402.061 40.7462C401.715 41.6184 401.452 43.29 401.27 45.752Z" fill="white"/>
<defs>
<clipPath id="clip0_2297_5738">
<rect width="83" height="83" fill="white" transform="translate(0.0234375)"/>
</clipPath>
</defs>
</svg>
