<svg width="24" height="24" viewBox="0 0 24 24" fill="none" xmlns="http://www.w3.org/2000/svg">
<path fill-rule="evenodd" clip-rule="evenodd" d="M10.57,9.04883c0.5,-0.4 1.16,-0.6 1.97,-0.6c0.35,0 0.69,0.02 1.02,0.07c0.33,0.05 0.6,0.1 0.82,0.17l-0.15,3.10997c-0.06,1.11 -0.3,2.01 -0.72,2.71c-0.4,0.7 -1.06,1.05 -1.99,1.05c-0.72,0 -1.29,-0.24 -1.72,-0.72c-0.41,-0.49 -0.62,-1.26 -0.62,-2.32c0,-0.68 0.1,-1.33 0.32,-1.94c0.21,-0.62997 0.57,-1.13997 1.07,-1.53997z" fill="#1B2437"/>
<path fill-rule="evenodd" clip-rule="evenodd" d="M19.34,16.5888c0.53,-0.37 1.34,-1.42 1.34,-1.42c0,0 0.5,-0.65 1.31,-2.64c-0.25,5.29 -4.63,9.51 -9.99,9.51c-6.5,0 -10,-3.48 -10,-9c0,-5.51997 4.48,-10.99997 10,-10.99997c4.02,-0.34 7.37,1.58 9.01,4.69c0.54,1.03 0.89,2.05 1.01,3.30997c-0.4,4.12 -3.11,5.45 -4.41,5.52c-0.42,0 -0.78,-0.14 -1.1,-0.42c-0.3,-0.28 -0.45,-0.86 -0.45,-1.72v-0.25c0,-0.14 0,-0.35 0.02,-0.65l0.25,-5.05997c-0.4,-0.15 -0.96,-0.28 -1.67,-0.4c-0.7,-0.13 -1.41,-0.2 -2.14,-0.2c-1.07,0 -2.01,0.24 -2.81,0.72c-0.78,0.48 -1.39,1.14 -1.82,1.99c-0.43,0.82997 -0.65,1.78997 -0.65,2.88997c0,1.39 0.34,2.51 1.02,3.36c0.7,0.85 1.68,1.27 2.94,1.27c0.88,0 1.61,-0.2 2.19,-0.62c0.58,-0.41 1.02,-0.93 1.32,-1.54h0.12c0.1,0.57 0.37,1.07 0.8,1.52c0.45,0.43 1.09,0.65 1.82,0.65c0.73,0 1.36,-0.17 1.89,-0.52z" fill="#1B2437"/>
</svg>
