<svg width="24" height="24" viewBox="0 0 24 24" fill="none" xmlns="http://www.w3.org/2000/svg">
<path d="M21.7509,10.8917c0,0.7638 -0.0913,1.511 -0.274,2.2416c-0.166,0.7305 -0.4317,1.3947 -0.797,1.9925c-0.3653,0.5811 -0.8136,1.0544 -1.3449,1.4197c-0.5314,0.3486 -1.1624,0.523 -1.8929,0.523c-0.7639,0 -1.3699,-0.2159 -1.8182,-0.6476c-0.4317,-0.4483 -0.6974,-0.9547 -0.797,-1.5193h-0.1246c-0.2989,0.6144 -0.7389,1.1291 -1.32,1.5442c-0.5812,0.4151 -1.3118,0.6227 -2.1918,0.6227c-1.26194,0 -2.2416,-0.4234 -2.93899,-1.2702c-0.68078,-0.8469 -1.02117,-1.9677 -1.02117,-3.3624c0,-1.0959 0.21586,-2.059 0.64758,-2.8892c0.43171,-0.84682 1.03777,-1.511 1.81818,-1.99253c0.797,-0.48153 1.7352,-0.72229 2.8144,-0.72229c0.7306,0 1.4446,0.06642 2.142,0.19925c0.714,0.11623 1.2702,0.24907 1.6688,0.39851l-0.2491,5.05606c-0.0166,0.2989 -0.0249,0.5147 -0.0249,0.6476c0,0.1162 0,0.1992 0,0.249c0,0.8634 0.1494,1.4363 0.4483,1.7186c0.3155,0.2822 0.6808,0.4234 1.0959,0.4234c0.5147,0 0.9464,-0.2076 1.2951,-0.6227c0.3653,-0.4317 0.6393,-0.9962 0.822,-1.6936c0.1992,-0.714 0.2988,-1.4944 0.2988,-2.3413c0,-1.54416 -0.3155,-2.84761 -0.9464,-3.91029c-0.6144,-1.07928 -1.4695,-1.9012 -2.5654,-2.46575c-1.0793,-0.56455 -2.308,-0.84682 -3.6862,-0.84682c-1.4114,0 -2.665,0.22416 -3.76087,0.67247c-1.09589,0.44832 -2.01744,1.07929 -2.76464,1.89291c-0.73059,0.81361 -1.28684,1.77667 -1.66874,2.88916c-0.3819,1.09592 -0.57285,2.30802 -0.57285,3.63632c0,1.6273 0.29058,3.0137 0.87173,4.1594c0.58115,1.1291 1.42798,1.9926 2.54047,2.5903c1.1291,0.5812 2.50727,0.8718 4.1345,0.8718c1.0129,0 1.9759,-0.1163 2.8892,-0.3487c0.9298,-0.2159 1.7517,-0.4567 2.4657,-0.7223v1.6936c-0.714,0.2989 -1.5193,0.5397 -2.4159,0.7223c-0.8801,0.1993 -1.8597,0.2989 -2.939,0.2989c-1.95932,0 -3.63636,-0.3653 -5.03113,-1.0959c-1.39477,-0.7306 -2.46576,-1.7767 -3.21296,-3.1382c-0.73059,-1.3782 -1.09589,-3.0303 -1.09589,-4.9564c0,-1.5442 0.24077,-2.97222 0.72229,-4.28397c0.48153,-1.32835 1.17892,-2.47406 2.09216,-3.43711c0.91324,-0.97966 2.01743,-1.73516 3.31258,-2.2665c1.31175,-0.54795 2.78955,-0.82192 4.43335,-0.82192c1.2952,0 2.4824,0.20756 3.5617,0.62267c1.0959,0.3985 2.0423,0.98796 2.8393,1.76836c0.8136,0.76381 1.4363,1.69365 1.868,2.78954c0.4483,1.09589 0.6725,2.33292 0.6725,3.71113zM9.17306,12.4857c0,1.0627 0.20755,1.8348 0.62266,2.3163c0.43168,0.4815 1.00458,0.7223 1.71858,0.7223c0.9298,0 1.594,-0.3487 1.9925,-1.0461c0.4151,-0.6974 0.6559,-1.6023 0.7223,-2.7148l0.1494,-3.11334c-0.2158,-0.06642 -0.4898,-0.12453 -0.8219,-0.17434c-0.3321,-0.04982 -0.6725,-0.07472 -1.0212,-0.07472c-0.8136,0 -1.4694,0.19925 -1.9676,0.59775c-0.4981,0.39851 -0.8551,0.91325 -1.07096,1.54425c-0.21585,0.6143 -0.32378,1.2619 -0.32378,1.9427z" fill="#1B2437"/>
</svg>
