<svg width="24" height="24" viewBox="0 0 24 24" fill="none" xmlns="http://www.w3.org/2000/svg">
<path d="M11.4461,15.6771c0,0.1311 0,0.232 0,0.3329c0,1.4022 0.0051,2.8045 0,4.2017c-0.01,1.5334 -1.2034,2.7288 -2.70393,2.7238c-1.10778,-0.0051 -2.11988,-0.7062 -2.48746,-1.7554c-0.72509,-2.0428 -1.43004,-4.0957 -2.15512,-6.1386c-0.03525,-0.1059 -0.12589,-0.2169 -0.2266,-0.2723c-1.86307,-1.0593 -2.91042,-3.2282 -2.53277,-5.28117c0.40786,-2.22442 2.08967,-3.88391 4.26493,-4.20673c0.28702,-0.04035 0.5841,-0.05044 0.87615,-0.06053c1.30415,-0.03531 2.61334,-0.00504 3.9125,-0.11601c2.1198,-0.18159 4.1591,-0.68599 5.9819,-1.85117c0.4029,-0.25724 0.7604,-0.60024 1.1179,-0.92306c0.3323,-0.30768 0.6294,-0.41361 0.9718,-0.26229c0.3676,0.16646 0.4884,0.4691 0.4884,0.85749c-0.005,1.07438 0,2.14877 -0.005,3.22315c0,0.17654 0.0504,0.24211 0.2216,0.28751c1.7774,0.47414 2.996,2.05292 3.001,3.87891c0.0051,1.8209 -1.2135,3.4148 -2.9859,3.8889c-0.1863,0.0505 -0.2317,0.1211 -0.2317,0.3027c0.0101,1.0743 0.0051,2.1487 0.0051,3.2231c0,0.4388 -0.1813,0.7314 -0.5187,0.8625c-0.3323,0.1261 -0.6445,0.0253 -0.9365,-0.2925c-0.6949,-0.7415 -1.556,-1.2358 -2.4724,-1.6393c-1.0725,-0.4691 -2.1954,-0.7617 -3.3435,-0.9634c-0.0705,-0.0202 -0.1409,-0.0152 -0.2417,-0.0202zM17.3425,4.54487c-0.2064,0.1261 -0.3877,0.23707 -0.579,0.343c-1.5811,0.88775 -3.2931,1.37702 -5.0706,1.66453c-0.2065,0.03531 -0.2568,0.10592 -0.2568,0.2976c0.005,2.20425 0.005,4.4135 0.005,6.6178c0,0.5649 0,0.5599 0.564,0.6608c1.6314,0.2925 3.2024,0.7566 4.6627,1.5636c0.2215,0.1211 0.4381,0.2522 0.6697,0.3884c0.005,-3.8587 0.005,-7.68208 0.005,-11.53573zM9.83484,13.8612c0,-2.3707 0,-4.7212 0,-7.03138c-1.28401,0 -2.55292,-0.07566 -3.81176,0.01514c-2.0242,0.15132 -3.41395,2.00752 -3.11183,4.01504c0.2568,1.6999 1.70698,2.9407 3.47438,2.9609c0.92147,0.0101 1.84293,0.005 2.7644,0.0101c0.22659,0 0.44815,0.0201 0.68481,0.0302zM9.85498,15.4451c-1.31926,0 -2.60831,0 -3.90743,0c0,0.005 -0.00503,0.0302 0.00504,0.0554c0.5992,1.715 1.18834,3.43 1.79762,5.145c0.05539,0.1563 0.17623,0.3076 0.30212,0.4186c0.33737,0.2926 0.73515,0.3531 1.14805,0.1715c0.44311,-0.2017 0.64956,-0.5649 0.64956,-1.0441c0.00504,-1.0391 0,-2.0781 0,-3.1223c0.00504,-0.5145 0.00504,-1.034 0.00504,-1.6241zM18.9639,12.5649c0.8862,-0.1513 1.6415,-1.2711 1.6063,-2.3707c-0.0302,-0.96341 -0.8409,-2.03779 -1.6063,-2.1185c0,1.49808 0,2.9911 0,4.4892z" fill="#1B2437"/>
</svg>
