<svg width="24" height="24" viewBox="0 0 24 24" fill="none" xmlns="http://www.w3.org/2000/svg">
<path fill-rule="evenodd" clip-rule="evenodd" d="M11.4473,17.4126c0.0011,0.9343 0.0022,1.8678 -0.0012,2.7991c-0.01,1.5334 -1.2034,2.7288 -2.70393,2.7238c-1.10778,-0.0051 -2.11988,-0.7062 -2.48746,-1.7554c-0.36251,-1.0213 -0.7201,-2.0454 -1.07756,-3.0693c-0.35751,-1.0239 -0.71502,-2.0478 -1.07756,-3.0693c-0.03525,-0.1059 -0.12589,-0.2169 -0.2266,-0.2723c-1.86307,-1.0593 -2.91042,-3.2282 -2.53277,-5.28117c0.40786,-2.22442 2.08967,-3.88391 4.26493,-4.20673c0.2854,-0.04012 0.58075,-0.05033 0.87121,-0.06036l0.00494,-0.00017c0.41353,-0.01119 0.82757,-0.0158 1.24163,-0.0204c0.89176,-0.00991 1.78365,-0.01983 2.67087,-0.09561c0.3545,-0.03037 0.7068,-0.06977 1.0562,-0.11978l-0.0039,10.53842v0.1537v0.3329c0,0.4676 0.0006,0.9352 0.0012,1.4026zM13.45,16.0963v-11.53482c1.0192,-0.29514 2.0004,-0.71636 2.9257,-1.30789c0.3477,-0.22199 0.6615,-0.50783 0.9708,-0.78947l0.001,-0.00092c0.0488,-0.04442 0.0974,-0.08873 0.1461,-0.13267c0.3323,-0.30768 0.6294,-0.41361 0.9718,-0.26229c0.3676,0.16646 0.4884,0.4691 0.4884,0.85749c-0.0025,0.53719 -0.0025,1.07438 -0.0025,1.61157c0,0.5372 0,1.07439 -0.0025,1.61158c0,0.17654 0.0504,0.24211 0.2216,0.28751c1.7774,0.47414 2.996,2.05292 3.001,3.87891c0.0051,1.8209 -1.2135,3.4148 -2.9859,3.8889c-0.1863,0.0505 -0.2317,0.1211 -0.2317,0.3027c0.0076,0.8055 0.0066,1.6116 0.0057,2.4172c-0.0003,0.2686 -0.0006,0.5373 -0.0006,0.8059c0,0.4388 -0.1813,0.7314 -0.5187,0.8625c-0.3323,0.1261 -0.6445,0.0253 -0.9365,-0.2925c-0.6949,-0.7415 -1.556,-1.2358 -2.4724,-1.6393c-0.5164,-0.2259 -1.0444,-0.4108 -1.5813,-0.5644z" fill="#1B2437"/>
</svg>
