<svg width="24" height="24" viewBox="0 0 24 24" fill="none" xmlns="http://www.w3.org/2000/svg">
<path d="M7,11.5041c0,-0.1361 0.0373,-0.2722 0.10998,-0.3916l4.78272,-7.76983c0.132,-0.21343 0.3605,-0.34267 0.6073,-0.34267c0.2467,0 0.4753,0.12924 0.6073,0.34267l4.7827,7.76983c0.1386,0.2261 0.1472,0.512 0.0201,0.746c-0.1253,0.234 -0.3654,0.3799 -0.6274,0.3799h-4.0655v8.0273c0,0.4053 -0.3213,0.7343 -0.7172,0.7343c-0.396,0 -0.7173,-0.329 -0.7173,-0.7343v-8.0273h-4.06544c-0.26108,0 -0.50112,-0.1459 -0.62736,-0.3799c-0.0593,-0.1106 -0.0899,-0.233 -0.0899,-0.3544z" fill="#1B2437"/>
</svg>
