<svg width="24" height="24" viewBox="0 0 24 24" fill="none" xmlns="http://www.w3.org/2000/svg">
<path d="M18,12.4959c0,0.1361 -0.0373,0.2722 -0.11,0.3916l-4.7827,7.7698c-0.132,0.2135 -0.3605,0.3427 -0.6073,0.3427c-0.2467,0 -0.4753,-0.1292 -0.6073,-0.3427l-4.78267,-7.7698c-0.13867,-0.2261 -0.14728,-0.512 -0.02008,-0.746c0.12528,-0.234 0.36532,-0.3799 0.62736,-0.3799h4.06549v-8.02731c0,-0.40533 0.3213,-0.73429 0.7172,-0.73429c0.396,0 0.7173,0.32896 0.7173,0.73429v8.02731h4.0654c0.2611,0 0.5012,0.1459 0.6274,0.3799c0.0593,0.1106 0.0899,0.233 0.0899,0.3544z" fill="#1B2437"/>
</svg>
