<svg width="24" height="24" viewBox="0 0 24 24" fill="none" xmlns="http://www.w3.org/2000/svg">
<path d="M19.3484,12.7524c-0.1009,0 -0.1967,0 -0.2976,0c-5.3921,0 -10.78921,0 -16.1813,0c-0.26733,0 -0.51954,-0.0302 -0.71121,-0.2417c-0.20176,-0.2266 -0.2522,-0.4935 -0.15636,-0.7704c0.10088,-0.292 0.31777,-0.4683 0.63554,-0.4985c0.10593,-0.0101 0.2169,-0.005 0.32787,-0.005c5.36182,0 10.72366,0 16.08046,0c0.1008,0 0.1967,0 0.3631,0c-0.1008,-0.1058 -0.1513,-0.1712 -0.2118,-0.2317c-0.8373,-0.8358 -1.6696,-1.67168 -2.512,-2.50251c-0.2118,-0.21149 -0.348,-0.45823 -0.2824,-0.76538c0.0605,-0.29205 0.2421,-0.49849 0.5296,-0.5841c0.2976,-0.0856 0.5599,-0.01007 0.7818,0.21149c0.8172,0.82076 1.6343,1.63648 2.4565,2.4522c0.5347,0.5338 1.0693,1.0625 1.5989,1.6012c0.3683,0.3727 0.3683,0.7956 -0.005,1.1682c-1.3316,1.3344 -2.6683,2.6637 -4.005,3.9981c-0.3682,0.3676 -0.8322,0.3978 -1.1551,0.0705c-0.3278,-0.3323 -0.2976,-0.7754 0.0807,-1.1531c0.8273,-0.8308 1.6595,-1.6566 2.4918,-2.4875c0.0656,-0.0654 0.1463,-0.1057 0.2219,-0.1611c-0.01,-0.0352 -0.0302,-0.0705 -0.0504,-0.1007z" fill="#1B2437"/>
</svg>
