<svg width="24" height="24" viewBox="0 0 24 24" fill="none" xmlns="http://www.w3.org/2000/svg">
<path d="M4.59343,12.7642c0.11601,0.1209 0.17654,0.1914 0.24211,0.2518c0.83227,0.8308 1.6595,1.6566 2.49176,2.4874c0.23708,0.2317 0.36317,0.4985 0.25725,0.8359c-0.16645,0.5287 -0.79191,0.715 -1.22066,0.3626c-0.07061,-0.0605 -0.13619,-0.1259 -0.20176,-0.1914c-1.27614,-1.2739 -2.55229,-2.5479 -3.82843,-3.8218c-0.50441,-0.5035 -0.50441,-0.8762 -0.01009,-1.3747c1.28623,-1.284 2.57246,-2.57302 3.86878,-3.852c0.15133,-0.15106 0.36318,-0.27694 0.56998,-0.32729c0.31778,-0.08057 0.6406,0.12587 0.78183,0.42296c0.14123,0.29708 0.0807,0.62439 -0.16645,0.87616c-0.85245,0.856 -1.70489,1.70697 -2.56238,2.55797c-0.06557,0.0604 -0.16141,0.0906 -0.24211,0.1359c0.02522,0.0353 0.05044,0.0756 0.07061,0.1108c0.09584,0 0.19168,0 0.28751,0c5.41222,0 10.81952,0 16.23172,0c0.4994,0 0.7869,0.2065 0.8676,0.6244c0.0858,0.423 -0.2118,0.8359 -0.6406,0.8862c-0.116,0.0151 -0.232,0.0101 -0.3531,0.0101c-5.3618,0 -10.7236,0 -16.0804,0c-0.09079,0.005 -0.19167,0.005 -0.36317,0.005z" fill="#1B2437"/>
</svg>
