<svg width="24" height="24" viewBox="0 0 24 24" fill="none" xmlns="http://www.w3.org/2000/svg">
<path d="M11.5041,17.5c-0.1361,0 -0.2722,-0.0373 -0.3916,-0.11l-7.76983,-4.7827c-0.21343,-0.132 -0.34267,-0.3605 -0.34267,-0.6073c0,-0.2467 0.12924,-0.4753 0.34267,-0.6073l7.76983,-4.78267c0.2261,-0.13867 0.512,-0.14728 0.746,-0.02008c0.234,0.12528 0.3799,0.36532 0.3799,0.62736v4.06549h8.0273c0.4053,0 0.7343,0.3213 0.7343,0.7172c0,0.396 -0.329,0.7173 -0.7343,0.7173h-8.0273v4.0654c0,0.2611 -0.1459,0.5012 -0.3799,0.6274c-0.1106,0.0593 -0.233,0.0899 -0.3544,0.0899z" fill="#1B2437"/>
</svg>
