<svg width="24" height="24" viewBox="0 0 24 24" fill="none" xmlns="http://www.w3.org/2000/svg">
<path d="M11.2353,4.59341c-0.1208,0.11601 -0.1913,0.17654 -0.2517,0.24211c-0.8309,0.83227 -1.65665,1.65949 -2.48748,2.49176c-0.23163,0.23707 -0.49851,0.36317 -0.83587,0.25725c-0.52871,-0.16646 -0.71502,-0.79192 -0.36255,-1.22066c0.06043,-0.07062 0.12589,-0.13619 0.19135,-0.20176c1.27394,-1.27615 2.54785,-2.55229 3.82185,-3.82843c0.5035,-0.50441 0.8761,-0.50441 1.3746,-0.01009c1.284,1.28623 2.5731,2.57246 3.8521,3.86878c0.151,0.15132 0.2769,0.36317 0.3273,0.56998c0.0805,0.31777 -0.1259,0.64059 -0.423,0.78183c-0.2971,0.14123 -0.6244,0.0807 -0.8762,-0.16646c-0.856,-0.85244 -1.707,-1.70488 -2.5579,-2.56237c-0.0604,-0.06558 -0.0907,-0.16141 -0.136,-0.24212c-0.0352,0.02522 -0.0755,0.05044 -0.1108,0.07062c0,0.09584 0,0.19167 0,0.28751c0,5.41224 0,10.81944 0,16.23174c0,0.4994 -0.2064,0.7869 -0.6243,0.8676c-0.423,0.0857 -0.8359,-0.2119 -0.8863,-0.6406c-0.0151,-0.116 -0.01,-0.232 -0.01,-0.3531c0,-5.3618 0,-10.7236 0,-16.08042c-0.0051,-0.09079 -0.0051,-0.19167 -0.0051,-0.36317z" fill="#1B2437"/>
</svg>
