<svg width="24" height="24" viewBox="0 0 24 24" fill="none" xmlns="http://www.w3.org/2000/svg">
<path d="M11.2477,19.3485c0,-0.1009 0,-0.1967 0,-0.2976c0,-5.3921 0,-10.78924 0,-16.18133c0,-0.26733 0.0303,-0.51954 0.2417,-0.71121c0.2266,-0.20176 0.4935,-0.2522 0.7705,-0.15637c0.292,0.10089 0.4682,0.31778 0.4984,0.63555c0.0101,0.10593 0.0051,0.2169 0.0051,0.32787c0,5.36182 0,10.72359 0,16.08039c0,0.1009 0,0.1967 0,0.3632c0.1057,-0.1009 0.1712,-0.1513 0.2316,-0.2119c0.8359,-0.8373 1.6717,-1.6695 2.5026,-2.5119c0.2114,-0.2118 0.4582,-0.348 0.7653,-0.2825c0.2921,0.0606 0.4985,0.2422 0.5841,0.5297c0.0856,0.2976 0.0101,0.5599 -0.2114,0.7818c-0.8208,0.8171 -1.6365,1.6343 -2.4523,2.4565c-0.5337,0.5346 -1.0624,1.0693 -1.6012,1.5989c-0.3726,0.3682 -0.7956,0.3682 -1.1682,-0.005c-1.3344,-1.3317 -2.66369,-2.6683 -3.99806,-4.005c-0.36758,-0.3682 -0.39778,-0.8323 -0.07049,-1.1551c0.33234,-0.3279 0.77544,-0.2976 1.15309,0.0807c0.83083,0.8272 1.65666,1.6595 2.48746,2.4918c0.0655,0.0655 0.1057,0.1462 0.1611,0.2219c0.0353,-0.0101 0.0705,-0.0303 0.1007,-0.0504z" fill="#1B2437"/>
</svg>
