<svg width="24" height="24" viewBox="0 0 24 24" fill="none" xmlns="http://www.w3.org/2000/svg">
<path d="M12.0049,2c2.68,0 4.8833,2.10591 4.9951,4.77432h-0.0261c0.0031,0.07757 -0.0118,0.15481 -0.0436,0.22568h0.1562c1.217,0 2.4913,0.84351 3.0023,2.8798l0.0556,0.2403l0.7689,6.1946c0.5533,3.951 -1.6083,5.6126 -4.5571,5.683l-0.1977,0.0023h-8.28997c-2.99675,0 -5.30599,-1.092 -4.79825,-5.4164l0.03462,-0.2689l0.77774,-6.1946c0.3835,-2.19291 1.67097,-3.05785 2.91148,-3.11684l0.13759,-0.00326h0.07818c-0.01319,-0.07465 -0.01319,-0.15102 0,-0.22568c0.11183,-2.66841 2.31511,-4.77432 4.99501,-4.77432zM9.097,10.3293c-0.48811,0 -0.88379,0.4073 -0.88379,0.9096c0,0.5024 0.39568,0.9097 0.88379,0.9097c0.4881,0 0.88379,-0.4073 0.88379,-0.9097l-0.00689,-0.1141c-0.05454,-0.4485 -0.42635,-0.7955 -0.8769,-0.7955zM14.8858,10.3293c-0.4881,0 -0.8838,0.4073 -0.8838,0.9096c0,0.5024 0.3957,0.9097 0.8838,0.9097c0.4881,0 0.8838,-0.4073 0.8838,-0.9097c0,-0.5023 -0.3957,-0.9096 -0.8838,-0.9096zM11.9657,3.30238c-1.9241,0 -3.48386,1.55444 -3.48386,3.47194c0.01318,0.07466 0.01318,0.15103 0,0.22568h7.01136c-0.0278,-0.07206 -0.0426,-0.14847 -0.0435,-0.22568c0,-1.9175 -1.5598,-3.47194 -3.484,-3.47194z" fill="#1B2437"/>
</svg>
