<svg width="24" height="24" viewBox="0 0 24 24" fill="none" xmlns="http://www.w3.org/2000/svg">
<path fill-rule="evenodd" clip-rule="evenodd" d="M11.7808,2.0003c2.6138,0 4.7731,1.99166 5.0394,4.53892l0.0743,0.00088c1.45,0 3.213,0.963 3.808,3.664l0.789,6.107c0.283,1.971 -0.071,3.552 -1.054,4.686c-0.978,1.128 -2.526,1.725 -4.477,1.725h-8.34803c-2.143,0 -3.636,-0.525 -4.565,-1.604c-0.933,-1.082 -1.245,-2.705 -0.927,-4.823l0.776,-6.026c0.51,-2.763 2.375,-3.729 3.819,-3.729c0.12466,-1.14953 0.643,-2.2431 1.4653,-3.0628c0.945,-0.939 2.24803,-1.477 3.57903,-1.477zM16.8945,8.0401h-10.17903c-0.441,0 -1.915,0.178 -2.338,2.462l-0.772,6c-0.251,1.683 -0.057,2.901 0.578,3.638c0.627,0.728 1.749,1.082 3.429,1.082h8.34803c1.048,0 2.479,-0.209 3.343,-1.207c0.686,-0.791 0.922,-1.969 0.702,-3.502l-0.779,-6.052c-0.332,-1.491 -1.208,-2.421 -2.332,-2.421zM14.6973,10.8242c0.414,0 0.773,0.336 0.773,0.75c0,0.414 -0.313,0.75 -0.727,0.75h-0.046c-0.414,0 -0.75,-0.336 -0.75,-0.75c0,-0.414 0.336,-0.75 0.75,-0.75zM8.86717,10.8242c0.414,0 0.773,0.336 0.773,0.75c0,0.414 -0.314,0.75 -0.728,0.75h-0.045c-0.414,0 -0.75,-0.336 -0.75,-0.75c0,-0.414 0.336,-0.75 0.75,-0.75zM11.7778,3.5003h-0.015c-0.941,0 -1.85803,0.379 -2.52303,1.04c-0.5417,0.53926 -0.89598,1.24819 -1.01059,1.99933l7.07932,0.00028c-0.257,-1.71823 -1.7428,-3.03961 -3.5307,-3.03961z" fill="#1B2437"/>
</svg>
