<svg width="24" height="24" viewBox="0 0 24 24" fill="none" xmlns="http://www.w3.org/2000/svg">
<path d="M5,22.2501c-0.27017,-0.0011 -0.53669,-0.0626 -0.78,-0.18c-0.29824,-0.1402 -0.55056,-0.3621 -0.72759,-0.6401c-0.17703,-0.2779 -0.2715,-0.6004 -0.27241,-0.9299v-17.00003c0.0013,-0.23198 0.04845,-0.46141 0.13874,-0.6751c0.09028,-0.21369 0.22192,-0.40742 0.38735,-0.57005c0.16542,-0.16264 0.36136,-0.29097 0.57655,-0.37761c0.2152,-0.08664 0.4454,-0.12988 0.67736,-0.12724h14c0.4633,0.00262 0.9069,0.18784 1.2345,0.51546c0.3277,0.32762 0.5129,0.77122 0.5155,1.23454v17.00003c-0.0065,0.3166 -0.0988,0.6256 -0.2671,0.894c-0.1683,0.2683 -0.4063,0.4859 -0.6886,0.6296c-0.2823,0.1437 -0.5982,0.2081 -0.9142,0.1863c-0.316,-0.0217 -0.6202,-0.1289 -0.8801,-0.3099l-5.8,-4.35c-0.0426,-0.0341 -0.0955,-0.0527 -0.15,-0.0527c-0.0545,0 -0.1074,0.0186 -0.15,0.0527l-5.85,4.35c-0.30359,0.2259 -0.67158,0.3485 -1.05,0.35zM5,3.25007c-0.0663,0 -0.12989,0.02634 -0.17678,0.07322c-0.04688,0.04689 -0.07322,0.11047 -0.07322,0.17678v17.00003c-0.00035,0.0462 0.01268,0.0916 0.03752,0.1306c0.02483,0.0391 0.06042,0.0701 0.10248,0.0894c0.03828,0.0262 0.0836,0.0402 0.13,0.0402c0.0464,0 0.09172,-0.014 0.13,-0.0402l5.85,-4.37c0.3042,-0.2242 0.6721,-0.3451 1.05,-0.3451c0.3779,0 0.7458,0.1209 1.05,0.3451l5.8,4.35c0.0383,0.0262 0.0836,0.0402 0.13,0.0402c0.0464,0 0.0917,-0.014 0.13,-0.0402c0.0421,-0.0193 0.0776,-0.0503 0.1025,-0.0894c0.0248,-0.039 0.0379,-0.0844 0.0375,-0.1306v-16.98003c0.0008,-0.0375 -0.0069,-0.07468 -0.0225,-0.1088c-0.0156,-0.03413 -0.0386,-0.06431 -0.0674,-0.08832c-0.0288,-0.02401 -0.0627,-0.04123 -0.099,-0.05038c-0.0364,-0.00916 -0.0744,-0.01001 -0.1111,-0.0025z" fill="#1B2437"/>
</svg>
