<svg width="24" height="24" viewBox="0 0 24 24" fill="none" xmlns="http://www.w3.org/2000/svg">
<path d="M20.2978,2.19641c0.2769,0.28074 0.4322,0.65927 0.4322,1.05365v17.25004c0,0.325 -0.0905,0.6435 -0.2614,0.92c-0.1708,0.2764 -0.4153,0.4999 -0.706,0.6452c-0.2907,0.1454 -0.6161,0.2069 -0.9398,0.1777c-0.3236,-0.0292 -0.6328,-0.1479 -0.8928,-0.3429l-5.35,-4c-0.1731,-0.1299 -0.3836,-0.2 -0.6,-0.2c-0.2164,0 -0.4269,0.0701 -0.6,0.2l-5.35,4c-0.28978,0.216 -0.63875,0.3381 -1,0.35c-0.27163,0.0014 -0.53946,-0.0638 -0.78,-0.19c-0.2982,-0.1375 -0.55083,-0.3574 -0.72803,-0.6339c-0.17721,-0.2764 -0.27158,-0.5978 -0.27197,-0.9261v-17.25004c0,-0.39782 0.15804,-0.77935 0.43934,-1.06066c0.2813,-0.2813 0.66284,-0.43934 1.06066,-0.43934h14.5c0.3943,0.00526 0.7708,0.16561 1.0478,0.44635z" fill="#1B2437"/>
</svg>
