<svg width="24" height="24" viewBox="0 0 24 24" fill="none" xmlns="http://www.w3.org/2000/svg">
<path fill-rule="evenodd" clip-rule="evenodd" d="M9.04363,8.42661c-0.00985,-0.43854 0.30058,-0.76375 0.77854,-0.76375c0.55663,-0.0037 1.11333,-0.00601 1.66973,-0.00693c-0.5554,0.00092 -1.1105,0.00323 -1.6648,0.00693c-0.47797,0.00492 -0.78839,0.32521 -0.77854,0.76375c0.00986,0.43854 0.32521,0.72433 0.81303,0.72926h-0.00493c-0.48781,0 -0.80317,-0.28579 -0.81303,-0.72926z" fill="#1B2437"/>
<path fill-rule="evenodd" clip-rule="evenodd" d="M15.065,17.4685c0.0024,0.2104 -0.0736,0.3947 -0.2081,0.5278c0.1315,-0.1327 0.2055,-0.3151 0.2031,-0.5229c-0.0049,-0.4336 -0.3301,-0.7342 -0.8081,-0.7342c-0.7342,-0.0049 -1.4683,-0.0049 -2.2075,-0.0049h-2.21238c-0.16495,0 -0.31094,0.0367 -0.43106,0.103c0.12105,-0.068 0.26877,-0.1062 0.43599,-0.108c0.36645,0 0.73295,0.0013 1.10005,0.0025c0.3683,0.0012 0.7373,0.0025 1.1074,0.0025h2.2125c0.4779,0 0.8031,0.3005 0.8081,0.7342z" fill="#1B2437"/>
<path fill-rule="evenodd" clip-rule="evenodd" d="M15.065,12.9391c0.0024,0.2104 -0.0736,0.3948 -0.208,0.5279c0.1314,-0.1327 0.2054,-0.3151 0.203,-0.523c-0.0049,-0.4336 -0.3301,-0.7341 -0.8081,-0.7341c-0.7341,-0.005 -1.4683,-0.005 -2.2075,-0.005h-2.21237c-0.16496,0 -0.31095,0.0367 -0.43107,0.1031c0.12105,-0.068 0.26878,-0.1062 0.436,-0.108c0.36644,0 0.73294,0.0012 1.10004,0.0025c0.3683,0.0012 0.7373,0.0024 1.1074,0.0024h2.2125c0.4779,0 0.8031,0.3006 0.8081,0.7342z" fill="#1B2437"/>
<path fill-rule="evenodd" clip-rule="evenodd" d="M5.16082,5.8397c0,-2.10401 1.56199,-3.76948 3.66108,-3.8089c2.1287,-0.03942 4.2622,-0.04435 6.3909,0.00492c2.0646,0.04435 3.6216,1.7049 3.6216,3.76949c0.0033,3.17984 0.0022,6.35969 0.0011,9.53949c-0.0005,1.5899 -0.0011,3.1799 -0.0011,4.7698v0.3646c0.0461,0.0019 0.0884,0.0046 0.1287,0.0071c0.0633,0.004 0.1216,0.0077 0.1818,0.0077c0.2923,0 0.5847,-0.0006 0.8771,-0.0011c0.5847,-0.0011 1.1694,-0.0022 1.7541,0.0011c0.3942,0 0.68,0.2217 0.7687,0.5667c0.0838,0.3153 -0.0493,0.6652 -0.3449,0.8179c-0.1429,0.0739 -0.3252,0.1084 -0.4928,0.1133c-1.5422,0.0099 -3.0796,0.0099 -4.6219,0.005c-4.9028,0 -9.80066,0 -14.70346,-0.005c-0.13797,0 -0.28086,-0.0049 -0.4139,-0.0394c-0.32521,-0.0837 -0.54202,-0.3843 -0.53709,-0.7095c0.00492,-0.34 0.23159,-0.6357 0.56172,-0.7145c0.10229,-0.0244 0.20939,-0.0295 0.31178,-0.0343l0.00358,-0.0002c0.5683,-0.0033 1.1366,-0.0022 1.70489,-0.0011c0.28415,0.0005 0.5683,0.0011 0.85245,0.0011c0.08869,-0.0049 0.17739,-0.0049 0.29565,-0.0049v-0.34zM15.06,8.41675c0.005,-0.42868 -0.3153,-0.74897 -0.7933,-0.75389c-0.3573,-0.00239 -0.7149,-0.0042 -1.0727,-0.00543c-0.5676,-0.00195 -1.1351,-0.00245 -1.7021,-0.0015c-0.5554,0.00092 -1.1105,0.00323 -1.6648,0.00693c-0.47797,0.00492 -0.78839,0.32521 -0.77854,0.76375c0.00986,0.43854 0.32521,0.72433 0.81303,0.72926h2.18281h2.1829c0.4927,0 0.8278,-0.30057 0.8327,-0.73912zM12.0444,16.7343h-2.21238c-0.16495,0 -0.31094,0.0367 -0.43106,0.103c-0.21781,0.1223 -0.34923,0.3408 -0.3524,0.6164c-0.00493,0.4434 0.30058,0.7637 0.77854,0.7637c1.4782,0.0049 2.9614,0.0049 4.4445,0c0.2434,0 0.4459,-0.083 0.5853,-0.2211c0.1315,-0.1327 0.2055,-0.3151 0.2031,-0.5229c-0.0049,-0.4336 -0.3301,-0.7342 -0.8081,-0.7342c-0.7342,-0.0049 -1.4683,-0.0049 -2.2075,-0.0049zM9.40096,12.308c-0.2178,0.1222 -0.34923,0.3408 -0.35239,0.6163c-0.00493,0.4435 0.30057,0.7638 0.77853,0.7638c1.4782,0.0049 2.9614,0.0049 4.4445,0c0.2434,0 0.4459,-0.083 0.5854,-0.2211c0.1314,-0.1327 0.2054,-0.3151 0.203,-0.523c-0.0049,-0.4336 -0.3301,-0.7341 -0.8081,-0.7341c-0.7341,-0.005 -1.4683,-0.005 -2.2075,-0.005h-2.21237c-0.16496,0 -0.31095,0.0367 -0.43107,0.1031z" fill="#1B2437"/>
</svg>
