<svg width="24" height="24" viewBox="0 0 24 24" fill="none" xmlns="http://www.w3.org/2000/svg">
<path d="M5.16082,20.489c0,-0.1331 0,-0.2365 0,-0.34c0,-4.7698 0,-9.5395 0,-14.3093c0,-2.10401 1.56199,-3.76948 3.66108,-3.8089c2.1287,-0.03942 4.2622,-0.04435 6.3909,0.00492c2.0646,0.04435 3.6216,1.7049 3.6216,3.76949c0.005,4.76979 0,9.53949 0,14.30929c0,0.1133 0,0.2266 0,0.3646c0.1183,0.0049 0.2119,0.0148 0.3105,0.0148c0.8771,0 1.7541,-0.0049 2.6312,0c0.3942,0 0.68,0.2217 0.7687,0.5667c0.0838,0.3153 -0.0493,0.6652 -0.3449,0.8179c-0.1429,0.0739 -0.3252,0.1084 -0.4928,0.1133c-1.5422,0.0099 -3.0796,0.0099 -4.6219,0.005c-4.9028,0 -9.80066,0 -14.70346,-0.005c-0.13797,0 -0.28086,-0.0049 -0.4139,-0.0394c-0.32521,-0.0837 -0.54202,-0.3843 -0.53709,-0.7095c0.00492,-0.34 0.23159,-0.6357 0.56172,-0.7145c0.10348,-0.0246 0.21188,-0.0296 0.31536,-0.0345c0.85245,-0.0049 1.70489,0 2.55734,0c0.08869,-0.0049 0.17739,-0.0049 0.29565,-0.0049zM17.3513,20.4742c0,-0.1183 0,-0.207 0,-0.2957c0,-4.7796 0,-9.5543 0,-14.33387c0,-1.34519 -0.9954,-2.34053 -2.3455,-2.34053c-2.0005,0 -4.001,-0.00493 -5.99666,0.00493c-0.21188,0 -0.42869,0.01971 -0.63071,0.07391c-1.08896,0.27594 -1.7246,1.17273 -1.72953,2.40951c0,4.73035 0,9.45575 0,14.18605c0,0.0937 0,0.1922 0,0.3006c3.5724,-0.0049 7.1201,-0.0049 10.7024,-0.0049z" fill="#1B2437"/>
<path d="M12.0444,9.15587c-0.7292,0 -1.4585,0 -2.18774,0c-0.48781,0 -0.80317,-0.28579 -0.81303,-0.72926c-0.00985,-0.43854 0.30058,-0.76375 0.77854,-0.76375c1.48313,-0.00986 2.96633,-0.00986 4.44453,0c0.478,0.00492 0.7983,0.32521 0.7933,0.75389c-0.0049,0.43855 -0.34,0.73912 -0.8327,0.73912c-0.7243,0 -1.4536,0 -2.1829,0z" fill="#1B2437"/>
<path d="M12.0642,12.201c0.7391,0 1.4733,0 2.2124,0c0.4632,0 0.7834,0.3006 0.7884,0.7244c0.0098,0.4385 -0.3203,0.7539 -0.7884,0.7539c-1.4832,0 -2.9663,0 -4.44458,0c-0.47303,0 -0.78839,-0.3105 -0.78839,-0.749c0.00493,-0.4287 0.32029,-0.7243 0.78347,-0.7293c0.744,0 1.4881,0 2.2371,0z" fill="#1B2437"/>
<path d="M12.0444,16.7343c0.7392,0 1.4733,0 2.2125,0c0.4779,0 0.8031,0.3005 0.8081,0.7342c0.0049,0.4286 -0.3154,0.7489 -0.7934,0.7489c-1.4831,0.0049 -2.9663,0.0049 -4.4445,0c-0.47796,0 -0.78347,-0.3203 -0.77854,-0.7637c0.00493,-0.4287 0.32029,-0.7194 0.78839,-0.7244c0.73415,0 1.46835,0.005 2.20745,0.005z" fill="#1B2437"/>
</svg>
