<svg width="24" height="24" viewBox="0 0 24 24" fill="none" xmlns="http://www.w3.org/2000/svg">
<path fill-rule="evenodd" clip-rule="evenodd" d="M9.6345,5.8845c0,-0.40125 0.159,-0.96825 0.408,-1.5585c0.4972,-1.17375 1.3245,-2.478 1.3245,-2.478c0.1372,-0.21675 0.3765,-0.348 0.633,-0.348c0.2565,0 0.4958,0.13125 0.633,0.348c0,0 0.8273,1.30425 1.3245,2.478c0.249,0.59025 0.408,1.15725 0.408,1.5585c0,1.04325 -0.6773,1.92975 -1.6155,2.244v0.8715h6c0.597,0 1.1693,0.237 1.5908,0.65925c0.4222,0.42145 0.6592,0.99375 0.6592,1.59075v9.75h0.75c0.414,0 0.75,0.336 0.75,0.75c0,0.414 -0.336,0.75 -0.75,0.75h-19.5c-0.414,0 -0.75,-0.336 -0.75,-0.75c0,-0.414 0.336,-0.75 0.75,-0.75h0.75v-9.75c0,-0.597 0.237,-1.1693 0.65925,-1.59075c0.4215,-0.42225 0.99375,-0.65925 1.59075,-0.65925h6v-0.8715c-0.9382,-0.31425 -1.6155,-1.20075 -1.6155,-2.244zM19.5,16.9005l-3.7545,-2.5088c-0.2767,-0.1852 -0.6428,-0.1657 -0.8978,0.0481l-1.7632,1.4744c-0.8355,0.6983 -2.0513,0.6983 -2.8867,0l-1.7453,-1.4602c-0.2595,-0.2168 -0.63225,-0.2333 -0.90975,-0.0398l-3.04275,2.1211v4.4647h15zM19.5,15.0968v-3.8468c0,-0.1987 -0.0787,-0.39 -0.2197,-0.5302c-0.1403,-0.141 -0.3316,-0.2198 -0.5303,-0.2198h-13.5c-0.19875,0 -0.39,0.0788 -0.53025,0.2198c-0.141,0.1402 -0.21975,0.3315 -0.21975,0.5302v3.4567l2.18475,-1.5232c0.83325,-0.5805 1.9515,-0.531 2.73,0.12l1.74525,1.4603c0.279,0.2324 0.684,0.2325 0.9623,-0.0008l1.7632,-1.4738c0.7657,-0.6412 1.863,-0.6997 2.6933,-0.1447zM11.6295,4.45875c-0.2543,0.5295 -0.495,1.068 -0.495,1.42575c0,0.47775 0.3878,0.8655 0.8655,0.8655c0.4777,0 0.8655,-0.38775 0.8655,-0.8655c0,-0.35775 -0.2407,-0.89625 -0.495,-1.42575c-0.1192,-0.249 -0.2475,-0.495 -0.3705,-0.7215c-0.123,0.2265 -0.2513,0.4725 -0.3705,0.7215z" fill="black"/>
</svg>
