<svg width="24" height="24" viewBox="0 0 24 24" fill="none" xmlns="http://www.w3.org/2000/svg">
<path fill-rule="evenodd" clip-rule="evenodd" d="M7.1758,4.05803v-1.24084c0,-0.47414 0.32731,-0.82218 0.76538,-0.81714c0.43807,0.00505 0.74019,0.33291 0.74522,0.80705c0.00504,0.39344 0.00505,0.78687 0.01008,1.18031c0,0.01513 0.01509,0.03026 0.03019,0.05548h6.67683c0,-0.39343 -0.01,-0.77678 0.0051,-1.16013c0.005,-0.16141 0.0251,-0.33795 0.0906,-0.48423c0.141,-0.30768 0.5036,-0.45396 0.8258,-0.3783c0.3525,0.08575 0.5891,0.35813 0.5942,0.71121c0.0101,0.42874 0,0.85244 0,1.31145c0.1057,0.00505 0.1913,0.01514 0.282,0.01514h1.9587c1.6919,0.01008 2.9104,1.23579 2.9104,2.92554v12.18133c0,1.6797 -1.1883,2.9105 -2.8651,2.9155c-4.7836,0.0151 -9.56713,0.0101 -14.3507,0c-1.62641,-0.005 -2.83993,-1.2257 -2.84497,-2.86c-0.0151,-4.0957 -0.01007,-8.1915 0,-12.28222c0.00504,-1.66454 1.24375,-2.87007 2.91045,-2.88015zM7.00456,11.7805h5.04544h4.9749c0.1108,0 0.2215,0 0.3273,-0.0202c0.4179,-0.0757 0.6797,-0.4842 0.5891,-0.8979c-0.0906,-0.3984 -0.3827,-0.6103 -0.856,-0.6103h-10.07069c-0.06546,0 -0.13595,-0.005 -0.20141,0.0051c-0.48843,0.0655 -0.79559,0.5649 -0.62942,1.0289c0.11581,0.3178 0.40284,0.4944 0.82078,0.4944z" fill="#1B2437"/>
</svg>
