<svg width="24" height="24" viewBox="0 0 24 24" fill="none" xmlns="http://www.w3.org/2000/svg">
<path d="M7.14064,4.0131c0,-0.43883 0,-0.84235 0,-1.24083c0,-0.47414 0.32731,-0.82218 0.76538,-0.81714c0.43808,0.00505 0.74019,0.33291 0.74522,0.80705c0.00504,0.39344 0.00505,0.78687 0.01009,1.18031c0,0.01513 0.01508,0.03026 0.03019,0.05548c2.21048,0 4.42608,0 6.67688,0c0,-0.39343 -0.0101,-0.77678 0.005,-1.16013c0.0051,-0.16141 0.0252,-0.33795 0.0907,-0.48423c0.1409,-0.30769 0.5035,-0.45396 0.8258,-0.3783c0.3524,0.08575 0.5891,0.35813 0.5941,0.71121c0.0101,0.42874 0,0.85244 0,1.31145c0.1058,0.00505 0.1914,0.01513 0.282,0.01513c0.6546,0 1.3092,0 1.9588,0c1.6918,0.01009 2.9104,1.23579 2.9104,2.92555c0,4.06045 0,8.12095 0,12.18135c0,1.6797 -1.1884,2.9104 -2.8651,2.9155c-4.7836,0.0151 -9.56718,0.0101 -14.35075,0c-1.62642,-0.0051 -2.83994,-1.2257 -2.84497,-2.86c-0.01511,-4.0958 -0.01007,-8.1915 0,-12.28225c0.00503,-1.66453 1.24374,-2.87006 2.91044,-2.88015c0.74523,0 1.48038,0 2.25582,0zM7.14064,5.55154c-0.79055,0 -1.54585,-0.00505 -2.29612,0c-0.79558,0.01009 -1.32428,0.55484 -1.32428,1.36189c0,4.07557 0,8.15117 0,12.23177c0,0.8222 0.54883,1.3771 1.36959,1.3771c4.74833,0 9.49667,0 14.24497,0c0.8409,0 1.3848,-0.5498 1.3848,-1.3821c0,-4.0705 0,-8.136 0,-12.20659c0,-0.83227 -0.5288,-1.37198 -1.3596,-1.37703c-0.6697,-0.00504 -1.3394,0 -2.0091,0c-0.0806,0 -0.1611,0.01009 -0.2568,0.02018c0,0.45396 0.0101,0.88271 0,1.30641c-0.0151,0.48927 -0.4683,0.82218 -0.9416,0.70616c-0.3475,-0.08575 -0.564,-0.35813 -0.574,-0.7566c-0.0101,-0.41866 0,-0.83227 0,-1.25597c-2.2559,0 -4.4714,0 -6.71717,0c0,0.38335 0,0.74652 0,1.11473c0,0.58007 -0.282,0.93315 -0.75029,0.93315c-0.34744,0 -0.81068,-0.25725 -0.76536,-0.91802c0.01007,-0.3783 -0.00504,-0.74651 -0.00504,-1.15508z" fill="#1B2437"/>
<path d="M12.0148,11.7355c-1.6818,0 -3.3636,0 -5.0454,0c-0.41793,0 -0.70496,-0.1765 -0.82078,-0.4943c-0.16616,-0.464 0.14099,-0.9634 0.62942,-1.029c0.06546,-0.0101 0.13596,-0.005 0.20142,-0.005c3.35854,0 6.71214,0 10.07064,0c0.4734,0 0.7654,0.2118 0.856,0.6103c0.0907,0.4136 -0.1711,0.8222 -0.5891,0.8979c-0.1057,0.0201 -0.2165,0.0201 -0.3273,0.0201c-1.6616,0 -3.3183,0 -4.9749,0z" fill="#1B2437"/>
</svg>
