<svg width="24" height="24" viewBox="0 0 24 24" fill="none" xmlns="http://www.w3.org/2000/svg">
<path d="M2.00033,6.91369c0.00908,-1.65 0.87408,-2.495 1.19908,-2.812c0.01459,-0.01802 0.05939,-0.06256 0.08443,-0.08747l0.01057,-0.01053c1.434,-1.435 2.401,-2.015 3.363,-2.00415c1.117,0.01515 1.912,0.85115 2.918,1.91015l0.03641,0.03832c0.23888,0.25139 0.49718,0.52325 0.78358,0.80868c1.46,1.46 1.044,2.651 0.71,3.607l-0.0004,0.00111c-0.3638,1.04253 -0.6779,1.9426 1.2074,3.8279c1.888,1.886 2.788,1.571 3.827,1.204l0.0049,-0.0017c0.9562,-0.3337 2.1426,-0.7478 3.6021,0.7097c0.2776,0.2776 0.5419,0.5296 0.7873,0.7636l0.0002,0.0001l0.0485,0.0463c1.064,1.011 1.904,1.81 1.9182,2.93c0.0118,0.955 -0.5682,1.928 -2.0002,3.361l-0.098,0.094l-0.0004,0.0004c-0.3173,0.3253 -1.1613,1.1906 -2.8116,1.1996h-0.028c-2.492,0 -5.741,-1.984 -9.65799,-5.899c-3.932,-3.931 -5.919,-7.19001 -5.90408,-9.68701z" fill="#1B2437"/>
</svg>
