<svg width="24" height="24" viewBox="0 0 24 24" fill="none" xmlns="http://www.w3.org/2000/svg">
<path fill-rule="evenodd" clip-rule="evenodd" d="M4.3595,5.06069c0.002,0 -0.048,0.052 -0.111,0.114c-0.242,0.235 -0.743,0.724 -0.74805,1.747c-0.00795,1.431 0.93305,4.08801 5.46405,8.61801c4.51,4.508 7.163,5.46 8.597,5.46h0.021c1.023,-0.005 1.511,-0.507 1.747,-0.748c0.072,-0.074 0.13,-0.128 0.171,-0.162c0.996,-1.002 1.506,-1.748 1.501,-2.226c-0.007,-0.488 -0.614,-1.065 -1.453,-1.863c-0.267,-0.254 -0.557,-0.53 -0.863,-0.836c-0.793,-0.791 -1.186,-0.656 -2.05,-0.352c-1.195,0.419 -2.835,0.989 -5.383,-1.56c-2.552,-2.55 -1.981,-4.18801 -1.563,-5.38301c0.302,-0.864 0.44,-1.258 -0.354,-2.052c-0.311,-0.31 -0.59,-0.604 -0.847,-0.874c-0.793,-0.834 -1.365,-1.437 -1.85,-1.444h-0.008c-0.479,0 -1.223,0.512 -2.276,1.565c0.003,-0.003 0.004,-0.004 0.005,-0.004zM17.5625,22.4997c-2.492,0 -5.741,-1.984 -9.658,-5.899c-3.932,-3.931 -5.919,-7.19001 -5.90408,-9.68701c0.00908,-1.65 0.87408,-2.495 1.19908,-2.812c0.017,-0.021 0.075,-0.078 0.095,-0.098c1.434,-1.435 2.401,-2.015 3.363,-2.00415c1.117,0.01515 1.912,0.85115 2.918,1.91015c0.249,0.262 0.519,0.547 0.82,0.847c1.46,1.46 1.044,2.651 0.71,3.607c-0.364,1.043 -0.679,1.94301 1.207,3.82901c1.888,1.886 2.788,1.571 3.827,1.204c0.957,-0.334 2.145,-0.752 3.607,0.708c0.296,0.296 0.577,0.563 0.836,0.81c1.064,1.011 1.904,1.81 1.9182,2.93c0.0118,0.955 -0.5682,1.928 -2.0002,3.361l-0.634,-0.43l0.536,0.524c-0.317,0.325 -1.161,1.191 -2.812,1.2z" fill="#1B2437"/>
</svg>
