<svg width="24" height="24" viewBox="0 0 24 24" fill="none" xmlns="http://www.w3.org/2000/svg">
<path d="M18.0688,15.8c0.3179,0.3197 0.4964,0.7522 0.4964,1.2031c0,0.4509 -0.1785,0.8834 -0.4964,1.2031l-1.6375,1.6313c-0.39,0.3959 -0.891,0.6641 -1.4368,0.769c-0.5457,0.1049 -1.1105,0.0416 -1.6195,-0.1815c-4.40912,-1.8889 -7.91954,-5.406 -9.79996,-9.8188c-0.2205,-0.5094 -0.28239,-1.07352 -0.17759,-1.61869c0.10479,-0.54516 0.37141,-1.0461 0.76509,-1.43752l1.63125,-1.6375c0.3197,-0.31792 0.75225,-0.49638 1.20312,-0.49638c0.45087,0 0.88342,0.17846 1.20313,0.49638l1.87496,1.90625c0.3176,0.31864 0.4959,0.75015 0.4959,1.2c0,0.44985 -0.1783,0.88136 -0.4959,1.19996l-0.86246,0.8625c0.33477,0.8295 0.83326,1.583 1.46576,2.2155c0.6325,0.6325 1.386,1.131 2.2155,1.4658l0.8875,-0.8875c0.3186,-0.3175 0.7501,-0.4958 1.2,-0.4958c0.4498,0 0.8813,0.1783 1.2,0.4958zM17.2,16.6875l-1.875,-1.875c-0.0839,-0.081 -0.1959,-0.1262 -0.3125,-0.1262c-0.1165,0 -0.2286,0.0452 -0.3125,0.1262l-1.1437,1.1375c-0.0808,0.0793 -0.1817,0.1351 -0.2918,0.1615c-0.11,0.0264 -0.2252,0.0224 -0.3332,-0.0115c-1.1525,-0.3878 -2.1996,-1.037 -3.05944,-1.8968c-0.85982,-0.8599 -1.50903,-1.907 -1.89682,-3.0595c-0.03395,-0.108 -0.03792,-0.2231 -0.0115,-0.3332c0.02642,-0.1101 0.08224,-0.2109 0.1615,-0.2918l1.1375,-1.14371c0.04157,-0.04073 0.0746,-0.08935 0.09715,-0.14301c0.02255,-0.05366 0.03416,-0.11128 0.03416,-0.16949c0,-0.0582 -0.01161,-0.11582 -0.03416,-0.16948c-0.02255,-0.05366 -0.05558,-0.10228 -0.09715,-0.14302l-1.875,-1.875c-0.04116,-0.06503 -0.09853,-0.11823 -0.16646,-0.15439c-0.06794,-0.03616 -0.14411,-0.05403 -0.22104,-0.05186c-0.11933,0.00039 -0.23376,0.0475 -0.31875,0.13125l-1.6375,1.63125c-0.21879,0.21654 -0.36692,0.49422 -0.42493,0.79652c-0.05801,0.30231 -0.02317,0.6151 0.09993,0.89724c1.76047,4.1164 5.03987,7.3958 9.15621,9.1562c0.2806,0.1204 0.5908,0.1537 0.8906,0.0958c0.2997,-0.058 0.5752,-0.2045 0.7907,-0.4208l1.6312,-1.6312c0.0428,-0.041 0.0771,-0.09 0.1009,-0.1443c0.0238,-0.0542 0.0366,-0.1126 0.0378,-0.1719c0.0011,-0.0592 -0.0094,-0.1181 -0.0311,-0.1732c-0.0216,-0.0552 -0.0539,-0.1055 -0.0951,-0.1481z" fill="black"/>
<path d="M17.2951,16.8356c0.0217,0.0551 0.0322,0.114 0.0311,0.1732c-0.0012,0.0593 -0.014,0.1177 -0.0378,0.1719c-0.0238,0.0543 -0.0581,0.1033 -0.1009,0.1443l-1.6312,1.6312c-0.2155,0.2163 -0.491,0.3628 -0.7907,0.4208c-0.2998,0.0579 -0.61,0.0246 -0.8906,-0.0958c-4.11634,-1.7604 -7.39574,-5.0398 -9.15621,-9.1562c-0.1231,-0.28214 -0.15794,-0.59493 -0.09993,-0.89724c0.05801,-0.3023 0.20614,-0.57998 0.42493,-0.79652l1.6375,-1.63125c0.08499,-0.08375 0.19942,-0.13086 0.31875,-0.13125c0.07693,-0.00217 0.1531,0.0157 0.22104,0.05186c0.06793,0.03616 0.1253,0.08936 0.16646,0.15439l1.875,1.875c0.04157,0.04074 0.0746,0.08936 0.09715,0.14302c0.02255,0.05366 0.03416,0.11128 0.03416,0.16948c0,0.05821 -0.01161,0.11583 -0.03416,0.16949c-0.02255,0.05366 -0.05558,0.10228 -0.09715,0.14301l-1.1375,1.14371c-0.07926,0.0809 -0.13508,0.1817 -0.1615,0.2918c-0.02642,0.1101 -0.02245,0.2252 0.0115,0.3332c0.38779,1.1525 1.037,2.1996 1.89682,3.0595c0.85984,0.8598 1.90694,1.509 3.05944,1.8968c0.108,0.0339 0.2232,0.0379 0.3332,0.0115c0.1101,-0.0264 0.211,-0.0822 0.2918,-0.1615l1.1437,-1.1375c0.0839,-0.081 0.196,-0.1262 0.3125,-0.1262c0.1166,0 0.2286,0.0452 0.3125,0.1262l1.875,1.875c0.0412,0.0426 0.0735,0.0929 0.0951,0.1481z" fill="black"/>
<path d="M16.3775,4.50003c-0.1658,0 -0.3248,-0.06585 -0.442,-0.18306c-0.1172,-0.11721 -0.183,-0.27618 -0.183,-0.44194c0,-0.16576 0.0658,-0.32473 0.183,-0.44194c0.1172,-0.11721 0.2762,-0.18306 0.442,-0.18306h3.75c0.1657,0 0.3247,0.06585 0.4419,0.18306c0.1172,0.11721 0.1831,0.27618 0.1831,0.44194v3.75c0,0.16576 -0.0659,0.32473 -0.1831,0.44194c-0.1172,0.11721 -0.2762,0.18306 -0.4419,0.18306c-0.1658,0 -0.3248,-0.06585 -0.442,-0.18306c-0.1172,-0.11721 -0.183,-0.27618 -0.183,-0.44194v-2.24375l-3.9313,3.9375c-0.1177,0.11769 -0.2773,0.18381 -0.4437,0.18381c-0.1665,0 -0.3261,-0.06612 -0.4438,-0.18381c-0.1177,-0.11769 -0.1838,-0.27731 -0.1838,-0.44375c0,-0.16644 0.0661,-0.32606 0.1838,-0.44375l3.9375,-3.93125z" fill="black"/>
</svg>
