<svg width="24" height="24" viewBox="0 0 24 24" fill="none" xmlns="http://www.w3.org/2000/svg">
<path d="M20.5688,4.31874l-3.9375,3.93125h2.2437c0.1658,0 0.3247,0.06585 0.4419,0.18306c0.1173,0.11721 0.1831,0.27618 0.1831,0.44194c0,0.16576 -0.0658,0.32474 -0.1831,0.44195c-0.1172,0.11721 -0.2761,0.18305 -0.4419,0.18305h-3.75c-0.1658,0 -0.3247,-0.06584 -0.4419,-0.18305c-0.1172,-0.11721 -0.1831,-0.27619 -0.1831,-0.44195v-3.75c0,-0.16576 0.0659,-0.32473 0.1831,-0.44194c0.1172,-0.11721 0.2761,-0.18306 0.4419,-0.18306c0.1658,0 0.3247,0.06585 0.4419,0.18306c0.1173,0.11721 0.1831,0.27618 0.1831,0.44194v2.24375l3.9313,-3.9375c0.1176,-0.11769 0.2773,-0.1838 0.4437,-0.1838c0.1664,0 0.3261,0.06611 0.4438,0.1838c0.1176,0.11769 0.1838,0.27732 0.1838,0.44375c0,0.16644 -0.0662,0.32606 -0.1838,0.44375zM18.0688,15.8c0.3179,0.3197 0.4963,0.7522 0.4963,1.2031c0,0.4509 -0.1784,0.8834 -0.4963,1.2031l-1.6375,1.6313c-0.39,0.3959 -0.8911,0.6641 -1.4368,0.769c-0.5458,0.1049 -1.1105,0.0416 -1.6195,-0.1815c-4.40915,-1.8889 -7.91957,-5.406 -9.79999,-9.8188c-0.2205,-0.5094 -0.28239,-1.07352 -0.17759,-1.61869c0.10479,-0.54516 0.37141,-1.0461 0.76509,-1.43752l1.63125,-1.6375c0.3197,-0.31792 0.75225,-0.49638 1.20312,-0.49638c0.45087,0 0.88342,0.17846 1.20313,0.49638l1.87499,1.90625c0.3175,0.31865 0.4958,0.75015 0.4958,1.2c0,0.44985 -0.1783,0.88136 -0.4958,1.19996l-0.86249,0.8625c0.33477,0.8295 0.83329,1.583 1.46579,2.2155c0.6325,0.6325 1.386,1.131 2.2155,1.4658l0.8875,-0.8875c0.3186,-0.3175 0.7501,-0.4958 1.2,-0.4958c0.4498,0 0.8813,0.1783 1.2,0.4958zM17.2,16.6875l-1.875,-1.875c-0.0839,-0.081 -0.1959,-0.1262 -0.3125,-0.1262c-0.1166,0 -0.2286,0.0452 -0.3125,0.1262l-1.1437,1.1375c-0.0809,0.0793 -0.1817,0.1351 -0.2918,0.1615c-0.1101,0.0264 -0.2252,0.0224 -0.3332,-0.0115c-1.1525,-0.3878 -2.1996,-1.037 -3.05947,-1.8968c-0.85982,-0.8599 -1.50903,-1.907 -1.89682,-3.0595c-0.03395,-0.108 -0.03792,-0.2231 -0.0115,-0.3332c0.02642,-0.1101 0.08224,-0.2109 0.1615,-0.2918l1.1375,-1.14371c0.04157,-0.04073 0.0746,-0.08935 0.09715,-0.14301c0.02255,-0.05366 0.03416,-0.11128 0.03416,-0.16949c0,-0.0582 -0.01161,-0.11582 -0.03416,-0.16948c-0.02255,-0.05366 -0.05558,-0.10228 -0.09715,-0.14302l-1.875,-1.875c-0.04116,-0.06503 -0.09853,-0.11823 -0.16646,-0.15439c-0.06794,-0.03616 -0.14411,-0.05403 -0.22104,-0.05186c-0.11933,0.00039 -0.23376,0.04751 -0.31875,0.13125l-1.6375,1.63125c-0.21879,0.21654 -0.36693,0.49422 -0.42493,0.79652c-0.05801,0.30231 -0.02317,0.6151 0.09993,0.89724c1.76047,4.1164 5.03987,7.3958 9.15624,9.1562c0.2806,0.1204 0.5908,0.1537 0.8906,0.0958c0.2997,-0.0579 0.5751,-0.2045 0.7907,-0.4208l1.6312,-1.6312c0.0428,-0.041 0.0771,-0.09 0.1008,-0.1443c0.0238,-0.0542 0.0367,-0.1126 0.0378,-0.1719c0.0012,-0.0592 -0.0093,-0.1181 -0.031,-0.1732c-0.0216,-0.0552 -0.054,-0.1055 -0.0951,-0.1481z" fill="black"/>
</svg>
