<svg width="24" height="24" viewBox="0 0 24 24" fill="none" xmlns="http://www.w3.org/2000/svg">
<path d="M15.3176,3.35448c0.5836,0.23231 0.9963,0.65103 1.3662,1.2649l0.1219,0.21186l0.4523,0.86715l0.0148,0.02421l0.0136,0.02108l0.0384,0.05251c0.206,0.2245 0.5508,0.36013 0.7784,0.36013c2.0848,0 3.7875,1.63726 3.8919,3.69554l0.0051,0.20044v5.795c0,2.672 -2.1102,4.8525 -4.7545,4.9654l-0.2155,0.0046h-10.06c-2.67266,0 -4.85253,-2.1099 -4.96541,-4.7544l-0.00459,-0.2156v-5.795c0,-2.15139 1.74498,-3.89598 3.897,-3.89598c0.22677,0 0.57208,-0.13583 0.77844,-0.36013l0.00711,-0.00838l0.0089,-0.01166l0.05142,-0.07888l0.45095,-0.86575c0.40195,-0.73053 0.83921,-1.21887 1.48806,-1.47713c1.18901,-0.47278 5.44742,-0.47278 6.63552,0.00009zM9.23655,4.74815c-0.22139,0.08812 -0.42183,0.29208 -0.63573,0.64567l-0.0926,0.1608l-0.38486,0.7441l-0.09473,0.17143c-0.07907,0.13153 -0.15817,0.24255 -0.24848,0.34096c-0.46042,0.50046 -1.12148,0.78951 -1.70913,0.83793l-0.17382,0.00728l-0.1641,0.00553c-1.19293,0.08066 -2.14669,1.03419 -2.22737,2.22646l-0.00553,0.16399v5.795c0,1.8523 1.45174,3.366 3.27961,3.4649l0.19039,0.0051h10.06c1.8519,0 3.366,-1.4523 3.4649,-3.2797l0.0051,-0.1903v-5.795c0,-1.26777 -0.9857,-2.30613 -2.2329,-2.39045l-0.1641,-0.00553l-0.1741,-0.00728c-0.5886,-0.04843 -1.2496,-0.33756 -1.7095,-0.8386c-0.0891,-0.0971 -0.1677,-0.20734 -0.2464,-0.33775l-0.0188,-0.03233l-0.0225,-0.04016l-0.1161,-0.21774l-0.3239,-0.62756c-0.2188,-0.39711 -0.4191,-0.6398 -0.6353,-0.76177l-0.0938,-0.04498l-0.1193,-0.03967c-1.0291,-0.29088 -4.6089,-0.27766 -5.40695,0.03967zM11.9999,9.19902c2.1702,0 3.929,1.75878 3.929,3.92898c0,2.1702 -1.7588,3.929 -3.929,3.929c-2.17021,0 -3.929,-1.7588 -3.929,-3.929c0,-2.1702 1.75879,-3.92898 3.929,-3.92898zM11.9999,10.699c-1.3418,0 -2.429,1.0872 -2.429,2.429c0,1.3418 1.0872,2.429 2.429,2.429c1.3418,0 2.429,-1.0872 2.429,-2.429c0,-1.3418 -1.0872,-2.429 -2.429,-2.429zM17.5045,8.50002c0.5523,0 1,0.44771 1,1c0,0.51288 -0.386,0.93548 -0.8834,0.99328l-0.1166,0.0067c-0.5613,0 -1.009,-0.4477 -1.009,-0.99998c0,-0.51284 0.386,-0.93551 0.8834,-0.99328z" fill="#1B2437"/>
</svg>
