<svg width="24" height="24" viewBox="0 0 24 24" fill="none" xmlns="http://www.w3.org/2000/svg">
<path fill-rule="evenodd" clip-rule="evenodd" d="M16.8058,4.83124l0.4522,0.86715l0.0149,0.02421l0.0135,0.02108l0.0384,0.05251c0.206,0.2245 0.5509,0.36013 0.7784,0.36013c2.0848,0 3.7876,1.63726 3.892,3.69554l0.005,0.20044v5.795c0,2.672 -2.1101,4.8525 -4.7544,4.9654l-0.2156,0.0046h-10.05996c-2.67266,0 -4.85253,-2.1099 -4.9654,-4.7544l-0.0046,-0.2156v-5.795c0,-2.15139 1.74498,-3.89598 3.897,-3.89598c0.22678,0 0.57208,-0.13583 0.77844,-0.36013l0.00712,-0.00838l0.00889,-0.01166l0.05143,-0.07888l0.45094,-0.86575c0.40195,-0.73053 0.83922,-1.21887 1.48807,-1.47713c1.18901,-0.47278 5.44737,-0.47278 6.63547,0.00009c0.5836,0.23231 0.9963,0.65103 1.3663,1.2649zM17.3789,8.50674c-0.4973,0.05777 -0.8834,0.48044 -0.8834,0.99328c0,0.55228 0.4478,0.99998 1.009,0.99998l0.1167,-0.0067c0.4973,-0.0578 0.8833,-0.4804 0.8833,-0.99328c0,-0.55229 -0.4477,-1 -1,-1zM15.9289,13.128c0,-2.1702 -1.7587,-3.92898 -3.929,-3.92898c-2.17017,0 -3.92896,1.75878 -3.92896,3.92898c0,2.1702 1.75879,3.929 3.92896,3.929c2.1703,0 3.929,-1.7588 3.929,-3.929zM14.4289,13.128c0,1.3418 -1.0872,2.429 -2.429,2.429c-1.3417,0 -2.42896,-1.0872 -2.42896,-2.429c0,-1.3418 1.08726,-2.429 2.42896,-2.429c1.3418,0 2.429,1.0872 2.429,2.429z" fill="#1B2437"/>
</svg>
