<svg width="24" height="24" viewBox="0 0 24 24" fill="none" xmlns="http://www.w3.org/2000/svg">
<path d="M2.25,3c0,-0.41421 0.33579,-0.75 0.75,-0.75h2c0.35751,0 0.66532,0.25234 0.73544,0.60291l0.27941,1.39709h14.98515c0.2599,0 0.5013,0.13459 0.638,0.3557c0.1366,0.22111 0.1491,0.49722 0.0328,0.72971l-4,7.99999c-0.127,0.2541 -0.3867,0.4146 -0.6708,0.4146h-9.68934l-2.07333,2.0733c-0.15762,0.1577 -0.04602,0.4267 0.17667,0.4267h11.586c0.7293,0 1.4288,0.2897 1.9445,0.8055c0.5158,0.5157 0.8055,1.2152 0.8055,1.9445c0,0.7293 -0.2897,1.4288 -0.8055,1.9445c-0.5157,0.5158 -1.2152,0.8055 -1.9445,0.8055c-0.7293,0 -1.4288,-0.2897 -1.9445,-0.8055c-0.5158,-0.5157 -0.8055,-1.2152 -0.8055,-1.9445c0,-0.4386 0.1048,-0.8665 0.3005,-1.25h-5.10101c0.19572,0.3835 0.30051,0.8114 0.30051,1.25c0,0.7293 -0.28973,1.4288 -0.80546,1.9445c-0.51572,0.5158 -1.21519,0.8055 -1.94454,0.8055c-0.72935,0 -1.42882,-0.2897 -1.94454,-0.8055c-0.51573,-0.5157 -0.80546,-1.2152 -0.80546,-1.9445c0,-0.5053 0.13904,-0.9962 0.39593,-1.4216c-1.01312,-0.4893 -1.37079,-1.9142 -0.46926,-2.8157l2.00918,-2.0092l-1.8007,-9.0035h-1.38515c-0.41421,0 -0.75,-0.33579 -0.75,-0.75z" fill="#1B2437"/>
</svg>
