<svg width="24" height="24" viewBox="0 0 24 24" fill="none" xmlns="http://www.w3.org/2000/svg">
<path d="M13.9362,2.9332c1.1239,0.54001 2.1123,1.32539 2.8923,2.29825c0.78,0.97286 1.3318,2.1084 1.6146,3.3229c0.2828,1.21451 0.2895,2.47705 0.0196,3.69445c-0.2699,1.2174 -0.8096,2.3588 -1.5793,3.3398c-0.7697,0.9811 -1.7497,1.7769 -2.8678,2.3288c-1.1181,0.5519 -2.3458,0.8458 -3.5925,0.86c-1.24682,0.0143 -2.4809,-0.2515 -3.6113,-0.7777l-3.81289,0.7616c-0.13441,0.0268 -0.27334,0.02 -0.40449,-0.0198c-0.13115,-0.0398 -0.25047,-0.1113 -0.34738,-0.2082c-0.0969,-0.0969 -0.16841,-0.2163 -0.20819,-0.3474c-0.03977,-0.1312 -0.04658,-0.2702 -0.01982,-0.4046l0.76158,-3.815c-0.59216,-1.2701 -0.85449,-2.669 -0.76272,-4.06738c0.09176,-1.39838 0.53466,-2.75103 1.28771,-3.93283c0.75305,-1.18179 1.79194,-2.15458 3.02057,-2.82836c1.22863,-0.67378 2.60732,-1.0268 4.00853,-1.0264c1.2469,0.00101 2.4776,0.28187 3.6015,0.82187zM4.39542,13.4747c0.0852,0.1669 0.11162,0.3578 0.07499,0.5416l-0.57327,2.8667l2.86466,-0.5733c0.18436,-0.0371 0.37583,-0.0106 0.54327,0.075c1.29385,0.6602 2.76793,0.8797 4.19803,0.6251c1.43,-0.2546 2.7378,-0.9694 3.7243,-2.0357c0.9865,-1.0663 1.5978,-2.4257 1.7408,-3.8713c0.143,-1.44566 -0.19,-2.89847 -0.9485,-4.13743c-0.7584,-1.23896 -1.9007,-2.19624 -3.2532,-2.72621c-1.3524,-0.52998 -2.8409,-0.60364 -4.23904,-0.20978c-1.39814,0.39386 -2.62938,1.23368 -3.50641,2.3917c-0.87703,1.15803 -1.35185,2.57086 -1.35222,4.02362c-0.00179,1.0533 0.24727,2.092 0.72659,3.03zM13.6676,22.1113c-1.9044,0.0032 -3.75195,-0.6489 -5.23266,-1.8466c1.2337,0.2376 2.50106,0.2416 3.73626,0.0116c1.5274,0.3506 3.1296,0.153 4.5261,-0.5583c0.1674,-0.0856 0.3589,-0.112 0.5433,-0.075l2.8646,0.5733l-0.5732,-2.8666c-0.0367,-0.1839 -0.0103,-0.3747 0.0749,-0.5417c0.7106,-1.3969 0.9081,-2.999 0.5583,-4.5267c0.2292,-1.2342 0.2252,-2.5005 -0.0117,-3.73331c1.1971,1.47991 1.849,3.32651 1.8465,5.23001c0.001,1.2172 -0.2647,2.4198 -0.7782,3.5233l0.7615,3.8134c0.0268,0.1344 0.02,0.2733 -0.0198,0.4045c-0.0398,0.1312 -0.1113,0.2505 -0.2082,0.3474c-0.0969,0.0969 -0.2162,0.1684 -0.3474,0.2082c-0.1311,0.0398 -0.27,0.0466 -0.4045,0.0199l-3.8145,-0.7617c-1.1025,0.5144 -2.3046,0.7801 -3.5213,0.7783z" fill="#1B2437"/>
<path d="M8.5,10.6113c0,0.5523 -0.44772,1 -1,1c-0.55228,0 -1,-0.4477 -1,-1c0,-0.5523 0.44772,-0.99997 1,-0.99997c0.55228,0 1,0.44767 1,0.99997z" fill="#1B2437"/>
<path d="M11.5,10.6113c0,0.5523 -0.4477,1 -1,1c-0.55228,0 -1,-0.4477 -1,-1c0,-0.5523 0.44772,-0.99997 1,-0.99997c0.5523,0 1,0.44767 1,0.99997z" fill="#1B2437"/>
<path d="M14.5,10.6113c0,0.5523 -0.4477,1 -1,1c-0.5523,0 -1,-0.4477 -1,-1c0,-0.5523 0.4477,-0.99997 1,-0.99997c0.5523,0 1,0.44767 1,0.99997z" fill="#1B2437"/>
</svg>
