<svg width="24" height="24" viewBox="0 0 24 24" fill="none" xmlns="http://www.w3.org/2000/svg">
<path fill-rule="evenodd" clip-rule="evenodd" d="M10.2622,19.8887c5.2467,0 9.5,-4.2533 9.5,-9.5c0,-0.89596 -0.124,-1.76292 -0.3558,-2.58468c0.3928,0.40436 0.745,0.84905 1.0502,1.32809c0.7531,1.18179 1.196,2.53449 1.2877,3.93279c0.0918,1.3984 -0.1705,2.7973 -0.7627,4.0674l0.7616,3.815c0.0267,0.1345 0.0199,0.2734 -0.0198,0.4046c-0.0398,0.1311 -0.1113,0.2505 -0.2082,0.3474c-0.0969,0.0969 -0.2163,0.1684 -0.3474,0.2082c-0.1312,0.0398 -0.2701,0.0466 -0.4045,0.0198l-3.8129,-0.7616c-1.1304,0.5262 -2.3645,0.792 -3.6113,0.7778c-1.2467,-0.0143 -2.4744,-0.3082 -3.59253,-0.8601c-0.82391,-0.4066 -1.57282,-0.9458 -2.21784,-1.5939c0.86566,0.2597 1.78328,0.3992 2.73347,0.3992z" fill="#1B2437"/>
<path fill-rule="evenodd" clip-rule="evenodd" d="M6.08838,2.91508c1.22863,-0.67379 2.60732,-1.02681 4.00852,-1.02641c1.2469,0.00101 2.4776,0.28187 3.6015,0.82188c1.1239,0.54 2.1123,1.32538 2.8923,2.29824c0.78,0.97287 1.3318,2.1084 1.6146,3.32291c0.2828,1.2145 0.2895,2.477 0.0196,3.6944c-0.2699,1.2175 -0.8096,2.3588 -1.5793,3.3399c-0.7697,0.9811 -1.7497,1.7769 -2.8678,2.3288c-1.1181,0.5519 -2.3458,0.8458 -3.5925,0.86c-1.24681,0.0142 -2.48089,-0.2516 -3.6113,-0.7778l-3.81288,0.7617c-0.13441,0.0267 -0.27335,0.0199 -0.4045,-0.0199c-0.13115,-0.0397 -0.25046,-0.1113 -0.34737,-0.2082c-0.09691,-0.0969 -0.16842,-0.2162 -0.20819,-0.3474c-0.03977,-0.1312 -0.04658,-0.2701 -0.01982,-0.4045l0.76157,-3.815c-0.59215,-1.2701 -0.85448,-2.6691 -0.76271,-4.06744c0.09176,-1.39837 0.53465,-2.75102 1.28771,-3.93282c0.75305,-1.1818 1.79194,-2.15458 3.02057,-2.82836zM13.2622,11.3887c0.5523,0 1,-0.4477 1,-1c0,-0.55231 -0.4477,-1.00003 -1,-1.00003c-0.5523,0 -1,0.44772 -1,1.00003c0,0.5523 0.4477,1 1,1zM10.2622,9.38867c-0.55228,0 -0.99999,0.44772 -0.99999,1.00003c0,0.5523 0.44771,1 0.99999,1c0.5523,0 1,-0.4477 1,-1c0,-0.55231 -0.4477,-1.00003 -1,-1.00003zM7.26221,11.3887c0.55228,0 1,-0.4477 1,-1c0,-0.55231 -0.44772,-1.00003 -1,-1.00003c-0.55229,0 -1,0.44772 -1,1.00003c0,0.5523 0.44771,1 1,1z" fill="#1B2437"/>
</svg>
