<svg width="24" height="24" viewBox="0 0 24 24" fill="none" xmlns="http://www.w3.org/2000/svg">
<path d="M8.88079,16.1916c0.09706,-0.1328 0.14815,-0.2248 0.21967,-0.2963c3.19284,-3.198 6.39084,-6.39592 9.58874,-9.58877c0.3321,-0.33206 0.6846,-0.39336 1.0319,-0.18391c0.3883,0.2401 0.4854,0.77139 0.1942,1.12899c-0.0511,0.06641 -0.1175,0.12261 -0.1737,0.18391c-3.4074,3.40738 -6.8097,6.80968 -10.21713,10.21708c-0.46488,0.4649 -0.84802,0.4598 -1.3129,-0.0051c-1.34355,-1.3435 -2.69221,-2.6922 -4.03576,-4.0357c-0.27586,-0.2759 -0.33206,-0.6131 -0.16858,-0.9298c0.15325,-0.2912 0.47509,-0.4751 0.80715,-0.3934c0.18391,0.046 0.37292,0.1635 0.51085,0.3015c1.11367,1.0983 2.21712,2.2068 3.32057,3.3103c0.06641,0.0664 0.11749,0.143 0.23499,0.2912z" fill="#1B2437"/>
</svg>
