<svg width="24" height="24" viewBox="0 0 24 24" fill="none" xmlns="http://www.w3.org/2000/svg">
<path fill-rule="evenodd" clip-rule="evenodd" d="M16.1064,8.20449c-0.441,-0.335 -1.068,-0.249 -1.402,0.19l-3.784,4.96901l-1.63303,-2.086c-0.34,-0.436 -0.97,-0.512 -1.404,-0.171c-0.435,0.34 -0.511,0.969 -0.171,1.403l2.43203,3.107c0.19,0.242 0.48,0.384 0.787,0.384h0.007c0.31,-0.002 0.601,-0.148 0.789,-0.395l4.568,-6.00001c0.335,-0.439 0.25,-1.066 -0.189,-1.401zM22.0004,12.0005c0,5.522 -4.477,10 -10,10c-5.52303,0 -10.00003,-4.478 -10.00003,-10c0,-5.52301 4.477,-10.00001 10.00003,-10.00001c5.523,0 10,4.477 10,10.00001z" fill="#1B2437"/>
</svg>
