<svg width="24" height="24" viewBox="0 0 24 24" fill="none" xmlns="http://www.w3.org/2000/svg">
<path fill-rule="evenodd" clip-rule="evenodd" d="M22,12c0,5.514 -4.486,10 -10,10c-5.514,0 -10,-4.486 -10,-10c0,-5.515 4.486,-10 10,-10c5.514,0 10,4.485 10,10zM7.9981,12.9135c-0.146,0.146 -0.219,0.338 -0.219,0.529c0,0.192 0.073,0.385 0.221,0.531c0.294,0.292 0.768,0.291 1.06,-0.002l2.94,-2.953l2.94,2.953c0.292,0.293 0.767,0.294 1.061,0.002c0.294,-0.293 0.294,-0.767 0.002,-1.06l-3.472,-3.487c-0.141,-0.141 -0.332,-0.22 -0.531,-0.22c-0.2,0 -0.391,0.079 -0.532,0.22z" fill="#1B2437"/>
</svg>
