<svg width="24" height="24" viewBox="0 0 24 24" fill="none" xmlns="http://www.w3.org/2000/svg">
<path fill-rule="evenodd" clip-rule="evenodd" d="M2,12c0,-5.514 4.486,-10 10,-10c5.514,0 10,4.486 10,10c0,5.515 -4.486,10 -10,10c-5.514,0 -10,-4.485 -10,-10zM16.0019,11.0865c0.146,-0.146 0.219,-0.338 0.219,-0.529c0,-0.192 -0.073,-0.385 -0.221,-0.531c-0.294,-0.292 -0.768,-0.291 -1.06,0.002l-2.94,2.953l-2.94,-2.953c-0.292,-0.293 -0.767,-0.294 -1.061,-0.002c-0.294,0.293 -0.294,0.767 -0.002,1.06l3.472,3.487c0.141,0.141 0.332,0.22 0.531,0.22c0.2,0 0.391,-0.079 0.532,-0.22z" fill="#1B2437"/>
</svg>
