<svg width="24" height="24" viewBox="0 0 24 24" fill="none" xmlns="http://www.w3.org/2000/svg">
<path d="M9.89977,12l-5.76226,-5.76256c-0.6219,-0.62192 -0.67746,-1.5937 -0.16859,-2.27952l0.022,-0.02965l0.12068,-0.1398l0.02591,-0.02591c0.62191,-0.62191 1.59369,-0.67746 2.27952,-0.16859l0.02965,0.022l0.13979,0.12069l7.02593,7.02594c0.6219,0.6219 0.6774,1.5937 0.1686,2.2795l-0.022,0.0296l-0.1207,0.1398l-7.02592,7.0259c-0.68342,0.6835 -1.79146,0.6835 -2.47487,0c-0.62192,-0.6219 -0.67747,-1.5937 -0.16859,-2.2795l0.022,-0.0296l0.12067,-0.1398z" fill="#1B2437"/>
<path d="M16.1498,12l-5.7623,-5.76256c-0.62189,-0.62192 -0.67745,-1.5937 -0.1686,-2.27952l0.022,-0.02965l0.1207,-0.1398l0.0259,-0.02591c0.6219,-0.62191 1.5937,-0.67746 2.2795,-0.16859l0.0297,0.022l0.1398,0.12069l7.0259,7.02594c0.6219,0.6219 0.6774,1.5937 0.1686,2.2795l-0.022,0.0296l-0.1207,0.1398l-7.0259,7.0259c-0.6834,0.6835 -1.7915,0.6835 -2.4749,0c-0.62191,-0.6219 -0.67746,-1.5937 -0.1686,-2.2795l0.022,-0.0296l0.1207,-0.1398z" fill="#1B2437"/>
</svg>
