<svg width="24" height="24" viewBox="0 0 24 24" fill="none" xmlns="http://www.w3.org/2000/svg">
<path d="M4.84467,19.5303c-0.26627,-0.2662 -0.29047,-0.6829 -0.07262,-0.9765l0.07262,-0.0841l6.46933,-6.4697l-6.46933,-6.46967c-0.26627,-0.26627 -0.29047,-0.68293 -0.07262,-0.97654l0.07262,-0.08412c0.26627,-0.26627 0.68293,-0.29047 0.97654,-0.07262l0.08412,0.07262l6.99997,7.00003c0.2663,0.2662 0.2905,0.6829 0.0726,0.9765l-0.0726,0.0841l-6.99997,7c-0.29289,0.2929 -0.76777,0.2929 -1.06066,0z" fill="#1B2437"/>
<path d="M11.0947,19.5303c-0.2663,-0.2662 -0.2905,-0.6829 -0.0726,-0.9765l0.0726,-0.0841l6.4693,-6.4697l-6.4693,-6.46967c-0.2663,-0.26627 -0.2905,-0.68293 -0.0726,-0.97654l0.0726,-0.08412c0.2662,-0.26627 0.6829,-0.29047 0.9765,-0.07262l0.0841,0.07262l7,7.00003c0.2663,0.2662 0.2905,0.6829 0.0726,0.9765l-0.0726,0.0841l-7,7c-0.2929,0.2929 -0.7677,0.2929 -1.0606,0z" fill="#1B2437"/>
</svg>
