<svg width="24" height="24" viewBox="0 0 24 24" fill="none" xmlns="http://www.w3.org/2000/svg">
<path fill-rule="evenodd" clip-rule="evenodd" d="M12,22c-5.514,0 -10,-4.486 -10,-10c0,-5.514 4.486,-10 10,-10c5.515,0 10,4.486 10,10c0,5.514 -4.485,10 -10,10zM11.0865,7.9981c-0.146,-0.146 -0.338,-0.219 -0.529,-0.219c-0.192,0 -0.385,0.073 -0.531,0.221c-0.292,0.294 -0.291,0.768 0.002,1.06l2.953,2.94l-2.953,2.94c-0.293,0.292 -0.294,0.767 -0.002,1.061c0.293,0.294 0.767,0.294 1.06,0.002l3.487,-3.472c0.141,-0.141 0.22,-0.332 0.22,-0.531c0,-0.2 -0.079,-0.391 -0.22,-0.532z" fill="#1B2437"/>
</svg>
