<svg width="20" height="20" viewBox="0 0 20 20" fill="none" xmlns="http://www.w3.org/2000/svg">
<path d="M19.9867,10.5599c-0.0391,0.2938 -0.0704,0.5914 -0.1134,0.8852c-0.2894,1.9859 -1.1027,3.7329 -2.4439,5.2253c-1.5328,1.7117 -3.4332,2.7968 -5.6972,3.1728c-3.13214,0.521 -5.9397,-0.2546 -8.33668,-2.3502c-1.96294,-1.7196 -3.08518,-3.9131 -3.33153,-6.514c-0.27763,-2.95733 0.59436,-5.56214 2.5964,-7.75567c1.59538,-1.7509 3.58961,-2.81241 5.93185,-3.12185c3.12426,-0.4152 5.88496,0.44262 8.20756,2.59306c1.8457,1.70781 2.8662,3.85041 3.1361,6.34946c0.0156,0.12926 0.0312,0.25461 0.0469,0.38387c0.0039,0.37603 0.0039,0.75203 0.0039,1.13203z" fill="#1B2437"/>
</svg>
