<svg width="24" height="24" viewBox="0 0 24 24" fill="none" xmlns="http://www.w3.org/2000/svg">
<path fill-rule="evenodd" clip-rule="evenodd" d="M12,2c5.514,0 10,4.486 10,10c0,5.514 -4.486,10 -10,10c-5.514,0 -10,-4.486 -10,-10c0,-5.514 4.486,-10 10,-10zM12,3.5c-4.687,0 -8.5,3.813 -8.5,8.5c0,4.687 3.813,8.5 8.5,8.5c4.687,0 8.5,-3.813 8.5,-8.5c0,-4.687 -3.813,-8.5 -8.5,-8.5zM11.6612,7.0954c0.415,0 0.75,0.336 0.75,0.75v4.422l3.405,2.03c0.355,0.213 0.472,0.673 0.26,1.029c-0.141,0.235 -0.39,0.366 -0.645,0.366c-0.131,0 -0.263,-0.034 -0.384,-0.105l-3.77,-2.249c-0.226,-0.136 -0.366,-0.381 -0.366,-0.645v-4.848c0,-0.414 0.336,-0.75 0.75,-0.75z" fill="#1B2437"/>
</svg>
