<svg width="24" height="24" viewBox="0 0 24 24" fill="none" xmlns="http://www.w3.org/2000/svg">
<path fill-rule="evenodd" clip-rule="evenodd" d="M12,2c5.514,0 10,4.486 10,10c0,5.514 -4.486,10 -10,10c-5.514,0 -10,-4.486 -10,-10c0,-5.514 4.486,-10 10,-10zM12.4112,7.8454c0,-0.414 -0.335,-0.75 -0.75,-0.75c-0.414,0 -0.75,0.336 -0.75,0.75v4.848c0,0.264 0.14,0.509 0.366,0.645l3.77,2.249c0.121,0.071 0.253,0.105 0.384,0.105c0.255,0 0.504,-0.131 0.645,-0.366c0.212,-0.356 0.095,-0.816 -0.26,-1.029l-3.405,-2.03z" fill="#1B2437"/>
</svg>
