<svg width="24" height="24" viewBox="0 0 24 24" fill="none" xmlns="http://www.w3.org/2000/svg">
<path d="M12.0165,13.1756c-0.145,0.1856 -0.2088,0.2841 -0.2901,0.3653c-2.0478,2.0469 -4.08983,4.088 -6.13767,6.1348c-0.53371,0.5335 -1.31688,0.3885 -1.53732,-0.2841c-0.12763,-0.3885 0.0116,-0.7132 0.29586,-0.9915c1.25306,-1.2467 2.50033,-2.4934 3.74759,-3.7401c0.81218,-0.8118 1.62435,-1.6236 2.43654,-2.4353c0.0696,-0.0696 0.1334,-0.1392 0.2552,-0.2668c-0.1044,-0.0696 -0.2088,-0.1275 -0.29,-0.2087c-2.04786,-2.0353 -4.0957,-4.07057 -6.12033,-6.12324c-0.16823,-0.17396 -0.30746,-0.42909 -0.35387,-0.66683c-0.07542,-0.3711 0.12183,-0.66683 0.4583,-0.85238c0.31906,-0.17975 0.71355,-0.12756 0.99781,0.12177c0.05801,0.05219 0.11022,0.11017 0.16243,0.16236c2.04204,2.04107 4.07827,4.07634 6.12026,6.11742c0.0755,0.0754 0.1509,0.145 0.2379,0.2261c0.087,-0.0811 0.1624,-0.1507 0.2378,-0.2261c2.0537,-2.04687 4.1073,-4.09954 6.161,-6.15801c0.2552,-0.25513 0.5395,-0.4059 0.9049,-0.32472c0.6672,0.14497 0.9224,0.93356 0.4815,1.45543c-0.0986,0.11597 -0.2146,0.22034 -0.3248,0.33051c-1.984,1.98309 -3.9681,3.96618 -5.9579,5.94929c-0.0754,0.0754 -0.1682,0.1275 -0.2726,0.1971c0.116,0.1276 0.1856,0.203 0.261,0.2726c2.0594,2.0584 4.1189,4.1169 6.1783,6.1754c0.3945,0.3943 0.4409,0.8987 0.1276,1.264c-0.3248,0.3769 -0.8527,0.4349 -1.2414,0.1218c-0.0812,-0.0638 -0.1566,-0.145 -0.2321,-0.2203c-2.0188,-2.0179 -4.0376,-4.0358 -6.0565,-6.0537c-0.0754,-0.0696 -0.1334,-0.1739 -0.2494,-0.3421z" fill="#1B2437"/>
</svg>
