<svg width="24" height="24" viewBox="0 0 24 24" fill="none" xmlns="http://www.w3.org/2000/svg">
<path fill-rule="evenodd" clip-rule="evenodd" d="M22.0004,12.0005c0,5.522 -4.477,10 -10,10c-5.52303,0 -10.00003,-4.478 -10.00003,-10c0,-5.52301 4.477,-10.00001 10.00003,-10.00001c5.523,0 10,4.477 10,10.00001zM16.1871,7.70426c-0.3889,-0.38896 -1.0195,-0.38896 -1.4085,0l-2.8329,2.83294l-2.8329,-2.83294c-0.38895,-0.38896 -1.01958,-0.38896 -1.40853,0c-0.38896,0.38895 -0.38896,1.01958 0,1.40854l2.83293,2.8329l-2.83299,2.833c-0.38896,0.3889 -0.38896,1.0195 0,1.4085c0.38895,0.389 1.01958,0.389 1.40853,0l2.83296,-2.833l2.833,2.833c0.3889,0.389 1.0195,0.389 1.4085,0c0.389,-0.389 0.389,-1.0196 0,-1.4085l-2.833,-2.833l2.8329,-2.8329c0.389,-0.38896 0.389,-1.01959 0,-1.40854z" fill="#1B2437"/>
</svg>
