<svg width="24" height="24" viewBox="0 0 24 24" fill="none" xmlns="http://www.w3.org/2000/svg">
<path d="M11.9923,22.7336c-5.91657,0 -10.71022,-4.812 -10.70519,-10.7438c0.00504,-5.93182 4.79868,-10.73376 10.72529,-10.72367c6.0726,0.01513 10.7605,5.01882 10.7001,10.87997c-0.0554,5.7906 -4.8641,10.5824 -10.7202,10.5875zM2.87325,11.9797c-0.02518,4.9785 4.0484,9.1196 8.97795,9.16c5.2066,0.0403 9.1644,-4.1261 9.26,-8.9532c0.1007,-5.03901 -3.9124,-9.28105 -9.0031,-9.32645c-5.12099,-0.04035 -9.20968,4.01505 -9.23485,9.11965z" fill="#1B2437"/>
<path d="M14.1071,11.6871c0.005,0.5448 -0.0806,1.0744 -0.3374,1.5536c-0.5186,0.9583 -1.3948,1.2358 -2.4019,1.1651c-1.38469,-0.0958 -2.13495,-0.8171 -2.28601,-2.2042c-0.05035,-0.459 -0.02516,-0.9432 0.06044,-1.3972c0.19638,-1.04917 0.90637,-1.68473 1.97387,-1.81083c1.0524,-0.1261 1.9889,0.06558 2.6032,1.04913c0.2518,0.4086 0.3878,1.0089 0.3878,1.6444zM12.6468,11.6921c-0.0604,-0.3026 -0.0906,-0.5952 -0.1863,-0.8726c-0.141,-0.4186 -0.4028,-0.575 -0.8661,-0.5801c-0.4683,-0.005 -0.7704,0.1665 -0.9114,0.5599c-0.2165,0.5952 -0.2165,1.2005 0.0151,1.7907c0.1561,0.3985 0.4885,0.5447 0.9064,0.5397c0.3978,-0.0051 0.71,-0.1564 0.8409,-0.5448c0.1007,-0.2824 0.136,-0.5901 0.2014,-0.8928z" fill="#1B2437"/>
<path d="M14.7264,14.3755c0,-1.8158 0,-3.561 0,-5.29116c0.7856,0 1.561,-0.03026 2.3364,0.01514c0.3122,0.01513 0.6395,0.15132 0.9215,0.30264c0.7805,0.41361 1.138,1.11978 1.1783,1.97218c0.0201,0.4036 -0.0151,0.8273 -0.1158,1.2157c-0.2518,0.9684 -0.9467,1.5283 -1.9034,1.6645c-0.7905,0.116 -1.5962,0.0908 -2.417,0.121zM16.1716,13.054c0.8359,0.1362 1.3948,-0.232 1.4904,-1.0189c0.0353,-0.2925 0.0152,-0.6053 -0.0352,-0.8978c-0.0806,-0.4893 -0.3676,-0.7516 -0.851,-0.8172c-0.1963,-0.0252 -0.3927,-0.005 -0.6042,-0.005c0,0.9281 0,1.836 0,2.7389z" fill="#1B2437"/>
<path d="M8.99121,9.44756c-0.16113,0.39848 -0.31219,0.78684 -0.47332,1.18034c-0.2568,-0.1009 -0.4834,-0.2018 -0.72007,-0.2825c-0.80061,-0.2724 -1.37463,0.0656 -1.47534,0.9079c-0.04532,0.3682 -0.02015,0.7566 0.04027,1.1249c0.0856,0.5195 0.4129,0.7868 0.93154,0.7515c0.39276,-0.0302 0.78049,-0.1513 1.17325,-0.232c0.0856,-0.0202 0.17119,-0.0555 0.29204,-0.0908c0,0.4136 0.00503,0.797 -0.00504,1.1803c0,0.0555 -0.06545,0.1362 -0.1158,0.1564c-0.79559,0.3177 -1.60629,0.3985 -2.42705,0.1109c-0.58913,-0.2068 -0.97685,-0.6405 -1.1833,-1.2206c-0.28198,-0.7869 -0.31218,-1.5939 -0.06545,-2.3959c0.37765,-1.22574 1.40988,-1.74024 2.55794,-1.65449c0.58914,0.04035 1.138,0.22698 1.47033,0.46405z" fill="#1B2437"/>
</svg>
