<svg width="24" height="24" viewBox="0 0 24 24" fill="none" xmlns="http://www.w3.org/2000/svg">
<path fill-rule="evenodd" clip-rule="evenodd" d="M11.9923,22.7336c-5.91657,0 -10.71022,-4.812 -10.70519,-10.7438c0.00504,-5.93182 4.79868,-10.73376 10.72529,-10.72367c6.0726,0.01513 10.7605,5.01882 10.7001,10.87997c-0.0554,5.7906 -4.8641,10.5824 -10.7202,10.5875zM13.7697,13.2407c0.2568,-0.4792 0.3424,-1.0088 0.3374,-1.5536c0,-0.6355 -0.136,-1.2358 -0.3878,-1.6444c-0.6143,-0.98355 -1.5508,-1.17523 -2.6032,-1.04913c-1.0675,0.1261 -1.77749,0.76166 -1.97387,1.81083c-0.0856,0.454 -0.11079,0.9382 -0.06044,1.3972c0.15106,1.3871 0.90132,2.1084 2.28601,2.2042c1.0071,0.0707 1.8833,-0.2068 2.4019,-1.1651zM14.7264,9.08434v5.29116c0.8208,-0.0302 1.6265,-0.005 2.417,-0.121c0.9567,-0.1362 1.6516,-0.6961 1.9034,-1.6645c0.1007,-0.3884 0.1359,-0.8121 0.1158,-1.2157c-0.0403,-0.8524 -0.3978,-1.55857 -1.1783,-1.97218c-0.282,-0.15132 -0.6093,-0.28751 -0.9215,-0.30264c-0.7754,-0.0454 -1.5508,-0.01514 -2.3364,-0.01514zM8.51789,10.6279c0.16113,-0.3935 0.31219,-0.78186 0.47332,-1.18034c-0.33233,-0.23707 -0.88119,-0.4237 -1.47033,-0.46405c-1.14806,-0.08575 -2.18029,0.42875 -2.55794,1.65449c-0.24673,0.802 -0.21653,1.609 0.06545,2.3959c0.20645,0.5801 0.59417,1.0138 1.1833,1.2206c0.82076,0.2876 1.63146,0.2068 2.42705,-0.1109c0.05035,-0.0202 0.1158,-0.1009 0.1158,-0.1564c0.01007,-0.3833 0.00504,-0.7667 0.00504,-1.1803c-0.12085,0.0353 -0.20644,0.0706 -0.29204,0.0908c-0.39276,0.0807 -0.78049,0.2018 -1.17325,0.232c-0.51864,0.0353 -0.84594,-0.232 -0.93154,-0.7515c-0.06042,-0.3683 -0.08559,-0.7567 -0.04027,-1.1249c0.10071,-0.8423 0.67473,-1.1803 1.47534,-0.9079c0.23667,0.0807 0.46327,0.1816 0.72007,0.2825z" fill="#1B2437"/>
<path d="M12.4454,12.5849c-0.1309,0.3884 -0.4431,0.5397 -0.8409,0.5448c-0.4179,0.005 -0.7503,-0.1412 -0.9064,-0.5397c-0.2316,-0.5902 -0.2316,-1.1955 -0.0151,-1.7907c0.141,-0.3934 0.4431,-0.5649 0.9114,-0.5599c0.4633,0.0051 0.7251,0.1615 0.8661,0.5801c0.0957,0.2774 0.1259,0.57 0.1863,0.8726c-0.0654,0.3027 -0.1007,0.6104 -0.2014,0.8928z" fill="#1B2437"/>
<path d="M16.1716,10.3151c0.2115,0 0.4079,-0.0202 0.6042,0.005c0.4834,0.0656 0.7704,0.3279 0.851,0.8172c0.0504,0.2925 0.0705,0.6053 0.0352,0.8978c-0.0956,0.7869 -0.6545,1.1551 -1.4904,1.0189z" fill="#1B2437"/>
</svg>
