<svg width="24" height="24" viewBox="0 0 24 24" fill="none" xmlns="http://www.w3.org/2000/svg">
<path d="M14.3001,6.80029h-6.30004c-0.13894,0 -0.27567,0.00945 -0.40959,0.02773l0.00017,-0.17893l0.00008,-0.09624c0.00053,-0.68389 0.00106,-1.36681 0.01855,-2.05185c0.02405,-1.03006 0.50902,-1.78757 1.43086,-2.2525c0.45291,-0.22846 0.95391,-0.2485 1.44687,-0.2485c2.9058,0 5.8116,0 8.7215,0.00802c0.5851,0 1.1543,0.07615 1.6593,0.42084c0.7695,0.52505 1.1062,1.27054 1.1262,2.18036c0,0.04409 0.001,0.08717 0.002,0.13026c0.001,0.04309 0.002,0.08617 0.002,0.13026c0,0.72837 0.0003,1.45674 0.0005,2.18511c0.0008,2.18546 0.0016,4.37095 -0.0045,6.55635c0,0.5411 -0.0521,1.0782 -0.3487,1.5591c-0.4649,0.7576 -1.1422,1.1904 -2.032,1.2225c-0.6518,0.0214 -1.3055,0.0249 -1.9585,0.0285v0c-0.1399,0.0007 -0.2798,0.0015 -0.4196,0.0024c0.0425,-0.2011 0.0649,-0.4096 0.0649,-0.6234v-6.00001c0,-1.65685 -1.3432,-3 -3,-3z" fill="#1B2437"/>
<path d="M16.4094,17.4601v0.0001c-0.0001,0.1579 -0.0003,0.3159 -0.0006,0.4739c-0.0011,0.5313 -0.0045,1.0628 -0.018,1.593c-0.024,1.002 -0.497,1.7515 -1.3907,2.2204c-0.3848,0.2004 -0.8137,0.2565 -1.2425,0.2565c-2.9339,0.008 -5.86777,0.008 -8.80164,0.008c-0.26052,0 -0.52104,-0.02 -0.77755,-0.0441c-1.11423,-0.1082 -2.0481,-1.0501 -2.14028,-2.1683c-0.02806,-0.3166 -0.04008,-0.6373 -0.04008,-0.9579c0.002,-1.4113 0.003,-2.8196 0.004,-4.2265c0.001,-1.4098 0.00201,-2.8181 0.00401,-4.2264c0,-0.66936 0.11223,-1.31064 0.55712,-1.85573c0.54108,-0.65732 1.2505,-0.92986 2.07615,-0.93387c0.44274,-0.00397 0.88549,-0.00499 1.32823,-0.0055l0.28089,-0.00027c0.35741,-0.00032 0.71483,-0.00065 1.07224,-0.00225h0.26854l1.40681,0.00802h0.24048c0.39379,0 0.78788,-0.00066 1.18218,-0.00131c0.9861,-0.00164 1.9731,-0.00327 2.9581,0.00532c0.3928,0.004 0.7896,0.01603 1.1703,0.1042c1.0862,0.24449 1.8317,1.21043 1.8518,2.40479c0.0174,1.131 0.018,2.2599 0.0185,3.3898c0.0002,0.4237 0.0004,0.8475 0.0015,1.2715c-0.004,0.0762 -0.004,0.1604 -0.004,0.2886l-0.004,1.3668v0.2565c-0.0011,0.258 -0.0013,0.5162 -0.0015,0.7747z" fill="#1B2437"/>
</svg>
