<svg width="24" height="24" viewBox="0 0 24 24" fill="none" xmlns="http://www.w3.org/2000/svg">
<path d="M7.58917,7.59118c0,-0.11222 0,-0.19238 0,-0.26853c0.00401,-0.94189 -0.00401,-1.87976 0.02004,-2.82165c0.02405,-1.03006 0.50902,-1.78757 1.43086,-2.2525c0.45291,-0.22846 0.95391,-0.2485 1.44693,-0.2485c2.9058,0 5.8116,0 8.7214,0.00802c0.5852,0 1.1543,0.07615 1.6593,0.42084c0.7696,0.52505 1.1062,1.27054 1.1263,2.18036c0,0.08817 0.004,0.17234 0.004,0.26052c0,2.91383 0.004,5.82766 -0.004,8.74146c0,0.5411 -0.0521,1.0782 -0.3487,1.5591c-0.4649,0.7576 -1.1423,1.1904 -2.0321,1.2225c-0.9779,0.032 -1.9599,0.024 -2.9379,0.0361c-0.0801,0 -0.1563,0 -0.2645,0c0,0.1002 0,0.1763 0,0.2565c-0.004,0.9459 0.004,1.8958 -0.02,2.8417c-0.0241,1.002 -0.497,1.7515 -1.3908,2.2204c-0.3848,0.2004 -0.8136,0.2565 -1.2425,0.2565c-2.9339,0.008 -5.86773,0.008 -8.8016,0.008c-0.26052,0 -0.52104,-0.02 -0.77755,-0.0441c-1.11423,-0.1082 -2.0481,-1.0501 -2.14028,-2.1683c-0.02806,-0.3166 -0.04008,-0.6373 -0.04008,-0.9579c0.004,-2.8257 0.004,-5.6393 0.00801,-8.4529c0,-0.66936 0.11223,-1.31064 0.55712,-1.85573c0.54108,-0.65732 1.2505,-0.92986 2.07615,-0.93387c0.89379,-0.00802 1.78757,-0.00401 2.68136,-0.00802c0.08016,0 0.15631,0 0.26854,0zM15.0321,14.8056c0.004,0 0.004,0 0.008,0c0,-0.8256 0.004,-1.6553 0,-2.481c-0.004,-0.7615 -0.008,-1.519 -0.0321,-2.2805c-0.016,-0.56113 -0.3727,-0.94991 -0.9299,-1.02606c-0.2805,-0.04008 -0.5731,-0.04008 -0.8577,-0.04008c-2.4729,-0.00401 -4.94586,-0.00401 -7.41881,0c-0.42084,0 -0.84168,0.004 -1.25851,0.01603c-0.26453,0.00801 -0.50902,0.06813 -0.72545,0.24048c-0.32465,0.26453 -0.41684,0.62124 -0.41684,1.01803c-0.00401,2.9138 -0.00801,5.8277 -0.00801,8.7415c0,0.2405 0.01603,0.4809 0.04408,0.7174c0.05612,0.4329 0.39279,0.7936 0.82966,0.8577c0.31664,0.0441 0.63728,0.0602 0.95391,0.0602c2.66132,0.004 5.31867,0.004 7.97997,0c0.2525,0 0.505,-0.0121 0.7575,-0.0281c0.6092,-0.0441 1.006,-0.4489 1.0461,-1.0541c0.008,-0.1483 0.024,-0.2926 0.024,-0.4409c0.0041,-1.4349 0.0041,-2.8657 0.0041,-4.3006zM16.4148,15.0621c1.1223,-0.024 2.2124,-0.036 3.3026,-0.0801c0.1804,-0.0081 0.3688,-0.1403 0.5251,-0.2606c0.3166,-0.2404 0.3647,-0.6052 0.3687,-0.9739c0.004,-2.9138 0.008,-5.82766 0.008,-8.74149c0,-0.24048 -0.016,-0.48096 -0.0481,-0.71743c-0.0601,-0.43287 -0.4288,-0.79359 -0.8617,-0.85371c-0.1844,-0.02405 -0.3727,-0.04008 -0.5571,-0.04008c-2.8657,-0.00401 -5.7355,-0.00401 -8.6012,0c-0.1804,0 -0.3607,0.00802 -0.5371,0.03206c-0.62122,0.07215 -0.99397,0.4489 -1.01,1.08217c-0.02405,0.99399 -0.02405,1.98797 -0.03207,2.97795c0,0.03207 0.01203,0.06413 0.02405,0.11223c0.08417,0 0.16433,0 0.24048,0c1.37874,0 2.76154,-0.00802 4.14024,0.00401c0.3928,0.004 0.7896,0.01603 1.1704,0.1042c1.0862,0.24449 1.8316,1.21043 1.8517,2.40479c0.024,1.5551 0.016,3.1062 0.02,4.6613c-0.004,0.0762 -0.004,0.1604 -0.004,0.2886z" fill="#1B2437"/>
</svg>
