<svg width="24" height="24" viewBox="0 0 24 24" fill="none" xmlns="http://www.w3.org/2000/svg">
<path d="M10.8459,9.95813c0,0.76487 -0.0046,1.46597 0,2.16257c0.0046,0.3687 0.0137,0.742 0.0501,1.1108c0.0956,0.9151 0.8058,1.6299 1.7255,1.73c0.519,0.0547 1.0425,0.0456 1.5615,0.0456c0.6374,0 1.2702,0 1.9076,0c0.4735,0 0.8058,0.3004 0.7967,0.7147c-0.0091,0.4052 -0.3323,0.6921 -0.7921,0.6875c-1.1337,-0.0137 -2.2673,0.0319 -3.4055,-0.041c-1.5661,-0.1001 -2.81352,-1.1427 -3.12766,-2.6496c-0.13203,-0.6238 -0.11837,-1.2657 -0.11837,-1.8985c0,-0.601 0,-1.2065 0,-1.86663c-0.38243,0.38243 -0.72843,0.72393 -1.06988,1.06993c-0.11837,0.1183 -0.24585,0.223 -0.41885,0.2549c-0.30503,0.0592 -0.60551,-0.0819 -0.7512,-0.346c-0.14568,-0.2595 -0.11381,-0.5873 0.10927,-0.8149c0.52811,-0.5418 1.06533,-1.07447 1.60255,-1.61169c0.22763,-0.23218 0.45982,-0.46437 0.69201,-0.68745c0.34145,-0.33235 0.72843,-0.3369 1.06073,-0.00911c0.7558,0.7512 1.5115,1.50695 2.2627,2.26265c0.3096,0.3142 0.3142,0.7194 0.0274,1.0107c-0.2823,0.2869 -0.6966,0.2869 -1.0107,-0.0182c-0.3552,-0.346 -0.7012,-0.7056 -1.1018,-1.10627z" fill="#1B2437"/>
<path d="M2.86502,9.47554c0.43251,-0.00455 0.76941,0.37787 0.69201,0.81496c-0.20487,1.129 -0.20942,2.2536 0,3.3781c0.07285,0.4006 -0.16845,0.7512 -0.55543,0.8286c-0.37332,0.0728 -0.73753,-0.1821 -0.81493,-0.5782c-0.09561,-0.4917 -0.15479,-0.9834 -0.17755,-1.4842c-0.03187,-0.7876 0.02276,-1.5707 0.173,-2.3446c0.06829,-0.36426 0.34145,-0.60556 0.6829,-0.61466z" fill="#1B2437"/>
<path d="M11.9886,22c-0.61,-0.0136 -1.2338,-0.0637 -1.8529,-0.1775c-0.45074,-0.0865 -0.71024,-0.4234 -0.6374,-0.8332c0.06829,-0.3961 0.42796,-0.6192 0.8741,-0.5372c1.0972,0.1958 2.1944,0.2003 3.2916,-0.0091c0.4052,-0.0774 0.7558,0.1548 0.8332,0.5372c0.0819,0.3961 -0.1594,0.7512 -0.5737,0.8332c-0.6328,0.1183 -1.2747,0.173 -1.9349,0.1866z" fill="#1B2437"/>
<path d="M16.4776,19.7328c-0.0046,-0.2459 0.1001,-0.4416 0.3005,-0.5782c0.9424,-0.6374 1.73,-1.4296 2.3765,-2.3674c0.2413,-0.3506 0.651,-0.4234 0.9743,-0.2049c0.3323,0.2276 0.4097,0.6465 0.1684,0.997c-0.7284,1.0745 -1.6299,1.9759 -2.7043,2.7043c-0.2413,0.1639 -0.4917,0.1913 -0.7466,0.0547c-0.2413,-0.1275 -0.3688,-0.3324 -0.3688,-0.6055z" fill="#1B2437"/>
<path d="M4.25815,7.51788c-0.26861,0.00455 -0.47348,-0.12292 -0.60096,-0.35966c-0.13658,-0.25496 -0.11381,-0.50991 0.05008,-0.7512c0.64649,-0.96062 1.4341,-1.78466 2.37196,-2.47211c0.12747,-0.09561 0.25495,-0.19122 0.39153,-0.27317c0.33235,-0.20031 0.74664,-0.10015 0.95607,0.22309c0.20031,0.31869 0.12747,0.72388 -0.19122,0.9424c-0.95606,0.64649 -1.75279,1.45232 -2.40382,2.40383c-0.13658,0.19577 -0.33235,0.28682 -0.57364,0.28682z" fill="#1B2437"/>
<path d="M22,12.0023c0,0.6419 -0.0501,1.2838 -0.1866,1.9121c-0.0866,0.4098 -0.4235,0.6511 -0.8059,0.5828c-0.387,-0.0638 -0.6328,-0.428 -0.56,-0.8468c0.0683,-0.3961 0.123,-0.7922 0.1457,-1.1928c0.041,-0.6966 -0.0091,-1.3886 -0.1366,-2.0761c-0.0865,-0.4598 0.1275,-0.8058 0.5464,-0.88775c0.4006,-0.08195 0.7284,0.15934 0.8195,0.61005c0.1274,0.6283 0.1775,1.2611 0.1775,1.8985z" fill="#1B2437"/>
<path d="M6.78034,20.4248c-0.10926,0 -0.24584,-0.0547 -0.37332,-0.1412c-1.07443,-0.7284 -1.98042,-1.6298 -2.7043,-2.7088c-0.22308,-0.3369 -0.15934,-0.7512 0.14569,-0.9697c0.33234,-0.2413 0.75574,-0.1821 0.99704,0.173c0.64648,0.9515 1.43865,1.7437 2.39016,2.3856c0.27316,0.1866 0.36422,0.5144 0.25951,0.8013c-0.10016,0.2731 -0.37332,0.4598 -0.71478,0.4598z" fill="#1B2437"/>
<path d="M19.71,7.51333c-0.2322,0.00455 -0.4234,-0.11382 -0.5554,-0.30959c-0.6374,-0.94696 -1.4341,-1.73002 -2.372,-2.37195c-0.3414,-0.23674 -0.4052,-0.64649 -0.1821,-0.97428c0.214,-0.31414 0.6283,-0.39608 0.9606,-0.173c1.1018,0.73298 2.0169,1.65263 2.7499,2.75438c0.1548,0.23674 0.1684,0.48714 0.0273,0.72843c-0.1275,0.23219 -0.3369,0.35511 -0.6283,0.34601z" fill="#1B2437"/>
<path d="M11.9522,2.00456c0.7011,-0.0091 1.3522,0.04553 1.9986,0.18666c0.4007,0.09106 0.6238,0.43251 0.5418,0.82859c-0.0728,0.36877 -0.4279,0.60551 -0.8195,0.53267c-0.8012,-0.15024 -1.6025,-0.20942 -2.4129,-0.12748c-0.2914,0.02732 -0.5827,0.06829 -0.8741,0.12293c-0.43253,0.07739 -0.8104,-0.14569 -0.8878,-0.53267c-0.07739,-0.40519 0.16845,-0.75575 0.6055,-0.84225c0.6237,-0.12292 1.252,-0.18666 1.8484,-0.16845z" fill="#1B2437"/>
</svg>
