<svg width="24" height="24" viewBox="0 0 24 24" fill="none" xmlns="http://www.w3.org/2000/svg">
<path d="M2.8649,9.47554c0.43251,-0.00455 0.76941,0.37787 0.69201,0.81496c-0.20487,1.129 -0.20942,2.2536 0,3.3781c0.07284,0.4006 -0.16845,0.7512 -0.55543,0.8286c-0.37332,0.0728 -0.73754,-0.1821 -0.81493,-0.5782c-0.09561,-0.4917 -0.15479,-0.9834 -0.17756,-1.4842c-0.03186,-0.7876 0.02277,-1.5707 0.17301,-2.3446c0.06829,-0.36426 0.34145,-0.60556 0.6829,-0.61466z" fill="#1B2437"/>
<path d="M11.9885,22c-0.6101,-0.0136 -1.2338,-0.0637 -1.8529,-0.1775c-0.45076,-0.0865 -0.71026,-0.4234 -0.63742,-0.8332c0.06829,-0.3961 0.42796,-0.6192 0.87412,-0.5372c1.0972,0.1958 2.1944,0.2003 3.2916,-0.0091c0.4052,-0.0774 0.7557,0.1548 0.8331,0.5372c0.082,0.3961 -0.1593,0.7512 -0.5736,0.8332c-0.6328,0.1183 -1.2748,0.173 -1.9349,0.1866z" fill="#1B2437"/>
<path d="M16.4775,19.7328c-0.0046,-0.2459 0.1001,-0.4416 0.3004,-0.5782c0.9425,-0.6374 1.7301,-1.4296 2.3766,-2.3674c0.2412,-0.3506 0.651,-0.4234 0.9742,-0.2049c0.3324,0.2276 0.4098,0.6465 0.1685,0.997c-0.7285,1.0745 -1.6299,1.9759 -2.7043,2.7043c-0.2413,0.1639 -0.4917,0.1913 -0.7467,0.0547c-0.2413,-0.1275 -0.3687,-0.3324 -0.3687,-0.6055z" fill="#1B2437"/>
<path d="M4.25803,7.51788c-0.26861,0.00455 -0.47348,-0.12292 -0.60096,-0.35966c-0.13658,-0.25496 -0.11382,-0.50991 0.05008,-0.7512c0.64648,-0.96062 1.4341,-1.78466 2.37196,-2.47211c0.12747,-0.09561 0.25495,-0.19122 0.39153,-0.27317c0.33234,-0.20031 0.74664,-0.10015 0.95606,0.22309c0.20032,0.31869 0.12748,0.72388 -0.19121,0.9424c-0.95607,0.64649 -1.75279,1.45232 -2.40382,2.40383c-0.13658,0.19577 -0.33235,0.28682 -0.57364,0.28682z" fill="#1B2437"/>
<path d="M21.9999,12.0023c0,0.6419 -0.0501,1.2838 -0.1867,1.9121c-0.0865,0.4098 -0.4234,0.6511 -0.8058,0.5828c-0.387,-0.0638 -0.6328,-0.428 -0.56,-0.8468c0.0683,-0.3961 0.1229,-0.7922 0.1457,-1.1928c0.041,-0.6966 -0.0091,-1.3886 -0.1366,-2.0761c-0.0865,-0.4598 0.1275,-0.8058 0.5463,-0.88775c0.4007,-0.08195 0.7285,0.15934 0.8195,0.61005c0.1275,0.6283 0.1776,1.2611 0.1776,1.8985z" fill="#1B2437"/>
<path d="M6.78022,20.4248c-0.10926,0 -0.24584,-0.0547 -0.37332,-0.1412c-1.07444,-0.7284 -1.98042,-1.6298 -2.7043,-2.7088c-0.22308,-0.3369 -0.15935,-0.7512 0.14568,-0.9697c0.33235,-0.2413 0.75575,-0.1821 0.99704,0.173c0.64649,0.9515 1.43866,1.7437 2.39017,2.3856c0.27316,0.1866 0.36422,0.5144 0.2595,0.8013c-0.10016,0.2731 -0.37332,0.4598 -0.71477,0.4598z" fill="#1B2437"/>
<path d="M19.7099,7.51333c-0.2322,0.00455 -0.4234,-0.11382 -0.5554,-0.30959c-0.6374,-0.94696 -1.4341,-1.73002 -2.372,-2.37195c-0.3415,-0.23674 -0.4052,-0.64649 -0.1821,-0.97428c0.214,-0.31414 0.6283,-0.39608 0.9606,-0.173c1.1018,0.73298 2.0169,1.65263 2.7498,2.75438c0.1548,0.23674 0.1685,0.48714 0.0274,0.72843c-0.1275,0.23219 -0.3369,0.35511 -0.6283,0.34601z" fill="#1B2437"/>
<path d="M11.9521,2.00456c0.7011,-0.0091 1.3521,0.04553 1.9986,0.18666c0.4007,0.09106 0.6237,0.43251 0.5418,0.82859c-0.0729,0.36877 -0.428,0.60551 -0.8195,0.53267c-0.8013,-0.15024 -1.6025,-0.20942 -2.4129,-0.12748c-0.2914,0.02732 -0.5828,0.06829 -0.8741,0.12293c-0.43255,0.07739 -0.81042,-0.14569 -0.88782,-0.53267c-0.0774,-0.40519 0.16845,-0.75575 0.60552,-0.84225c0.6237,-0.12292 1.252,-0.18666 1.8484,-0.16845z" fill="#1B2437"/>
<path fill-rule="evenodd" clip-rule="evenodd" d="M4.99989,11.8003c0,-3.86599 3.134,-7 7.00001,-7c3.866,0 7,3.13401 7,7c0,3.866 -3.134,7 -7,7c-3.86601,0 -7.00001,-3.134 -7.00001,-7zM10.8447,10.7185c0.0006,-0.2477 0.0011,-0.5003 0.0011,-0.76037c0.1548,0.15487 0.3015,0.30357 0.4437,0.44767c0.2257,0.2289 0.4402,0.4463 0.658,0.6586c0.3142,0.3051 0.7285,0.3051 1.0107,0.0182c0.2869,-0.2913 0.2823,-0.6965 -0.0273,-1.0107c-0.7512,-0.7557 -1.5069,-1.51145 -2.2627,-2.26265c-0.3323,-0.32779 -0.7193,-0.32324 -1.06075,0.00911c-0.23219,0.22308 -0.46438,0.45527 -0.69201,0.68745c-0.10752,0.10752 -0.21503,0.21485 -0.32247,0.3221c-0.42941,0.42869 -0.85766,0.85621 -1.28008,1.28959c-0.22309,0.2276 -0.25495,0.5554 -0.10927,0.8149c0.14569,0.2641 0.44617,0.4052 0.7512,0.346c0.173,-0.0319 0.30048,-0.1366 0.41885,-0.2549c0.22495,-0.228 0.45188,-0.454 0.6899,-0.691c0.12326,-0.1227 0.2495,-0.2484 0.37998,-0.37893v1.86663c0,0.0542 -0.0001,0.1084 -0.0002,0.1627c-0.00107,0.5799 -0.00215,1.1654 0.11857,1.7358c0.31414,1.5069 1.56158,2.5495 3.12768,2.6496c0.7589,0.0486 1.5157,0.0445 2.2718,0.0405c0.378,-0.002 0.7558,-0.0041 1.1336,0.0005c0.4599,0.0046 0.7831,-0.2823 0.7922,-0.6875c0.0091,-0.4143 -0.3232,-0.7147 -0.7967,-0.7147h-1.9076c-0.0648,0 -0.1297,0.0001 -0.1947,0.0003c-0.455,0.0009 -0.9127,0.0019 -1.3669,-0.0459c-0.9196,-0.1001 -1.6298,-0.8149 -1.7254,-1.73c-0.0365,-0.3688 -0.0456,-0.7421 -0.0501,-1.1108c-0.003,-0.4598 -0.0021,-0.9215 -0.0011,-1.4022z" fill="#1B2437"/>
</svg>
