<svg width="24" height="24" viewBox="0 0 24 24" fill="none" xmlns="http://www.w3.org/2000/svg">
<path d="M13.0613,19.443c2.3776,-1.6199 3.9387,-4.3491 3.9387,-7.443c0,-3.09388 -1.5611,-5.82314 -3.9387,-7.44302c0.9098,-0.35947 1.9012,-0.55698 2.9387,-0.55698c4.4183,0 8,3.58172 8,8c0,4.4183 -3.5817,8 -8,8c-1.0375,0 -2.0289,-0.1975 -2.9387,-0.557z" fill="#1B2437"/>
<path d="M16,12c0,4.4183 -3.5817,8 -8,8c-4.41828,0 -8,-3.5817 -8,-8c0,-4.41828 3.58172,-8 8,-8c4.4183,0 8,3.58172 8,8z" fill="#1B2437"/>
<path d="M8,12.0001c0,-2.96118 1.6088,-5.54655 4,-6.92979c2.3912,1.38324 4,3.96856 4,6.92969c0,2.9611 -1.6088,5.5466 -4,6.9298c-2.3912,-1.3832 -4,-3.9686 -4,-6.9297z" fill="#1B2437"/>
</svg>
