<svg width="24" height="24" viewBox="0 0 24 24" fill="none" xmlns="http://www.w3.org/2000/svg">
<path fill-rule="evenodd" clip-rule="evenodd" d="M24,12.451c0,4.4183 -3.5817,8 -8,8c-1.4571,0 -2.8233,-0.3895 -4,-1.0702c-1.1767,0.6807 -2.54285,1.0702 -4,1.0702c-4.41828,0 -8,-3.5817 -8,-8c0,-4.41823 3.58172,-7.99995 8,-7.99995c1.45715,0 2.8233,0.38958 4,1.07026c1.1767,-0.68068 2.5428,-1.07026 4,-1.07026c4.4183,0 8,3.58172 8,7.99995zM16,19.0511c3.6451,0 6.6,-2.955 6.6,-6.6001c0,-3.64503 -2.9549,-6.59995 -6.6,-6.59995c-0.9712,0 -1.8934,0.20977 -2.7237,0.58646c1.6697,1.46621 2.7237,3.61679 2.7237,6.01349c0,2.3398 -1.0044,4.4449 -2.6056,5.9078c0.8193,0.3431 1.8408,0.6923 2.6056,0.6923zM8,5.85105c-3.64508,0 -6.6,2.95492 -6.6,6.59995c0,3.6451 2.95492,6.6001 6.6,6.6001c0.97118,0 1.89337,-0.2098 2.7237,-0.5865c0.4554,-0.2066 1.2763,-0.7633 1.2763,-0.7633c0,0 2.6,-3.109 2.6,-5.2503c0,-2.1412 -1.0197,-4.04432 -2.6,-5.25015c-0.3931,-0.29994 -0.8209,-0.55675 -1.2763,-0.76334c-0.83033,-0.37669 -1.75252,-0.58646 -2.7237,-0.58646z" fill="#1B2437"/>
</svg>
