<svg width="24" height="24" viewBox="0 0 24 24" fill="none" xmlns="http://www.w3.org/2000/svg">
<path d="M10.591,2.51189c0.9036,-0.36636 1.9144,-0.36636 2.818,0l7.498,3.04c0.323,0.13082 0.5995,0.35508 0.7943,0.64405c0.1947,0.28897 0.2987,0.6295 0.2987,0.97795v9.65301c-0.0002,0.3483 -0.1043,0.6886 -0.299,0.9774c-0.1947,0.2887 -0.4712,0.5128 -0.794,0.6436l-7.498,3.04c-0.9036,0.3664 -1.9144,0.3664 -2.818,0l-7.498,-3.04c-0.32297,-0.1308 -0.59953,-0.3551 -0.79425,-0.6441c-0.19473,-0.2889 -0.29875,-0.6295 -0.29875,-0.9779v-9.65101c0,-0.34845 0.10402,-0.68898 0.29875,-0.97795c0.19472,-0.28897 0.47128,-0.51323 0.79425,-0.64405l7.498,-3.04zM12.845,3.90189c-0.5419,-0.2196 -1.1481,-0.2196 -1.69,0l-1.915,0.777l7.527,2.927l2.669,-1.03l-6.592,-2.673zM14.691,8.40689l-7.476,-2.908l-2.625,1.064l7.411,2.882zM3.5,16.8269c0.00013,0.0496 0.01504,0.0981 0.04282,0.1393c0.02778,0.0411 0.06718,0.073 0.11318,0.0917l7.499,3.04c0.031,0.013 0.063,0.025 0.095,0.036v-9.371l-7.75,-3.01401zM12.845,20.0979l7.499,-3.04c0.0462,-0.0187 0.0857,-0.0508 0.1135,-0.0922c0.0278,-0.0413 0.0426,-0.09 0.0425,-0.1398v-9.05301l-7.75,2.99201v9.37c0.0319,-0.0113 0.0636,-0.0233 0.095,-0.036z" fill="#1B2437"/>
</svg>
