<svg width="24" height="24" viewBox="0 0 24 24" fill="none" xmlns="http://www.w3.org/2000/svg">
<path fill-rule="evenodd" clip-rule="evenodd" d="M10.8548,2.1124l2.6097,1.56121l-8.46086,5.06162v3.75067c0,0.1499 0.0717,0.2786 0.19698,0.3535l1.96122,1.1733c0.06262,0.0375 0.13431,0.0375 0.19697,0c0.06262,-0.0375 0.09847,-0.1018 0.09847,-0.1767v-3.6329l8.46092,-5.06162l2.6097,1.56121c0.2505,0.14987 0.3939,0.40724 0.3939,0.70698v4.69163c-0.7085,-0.2476 -1.4581,-0.3812 -2.2069,-0.4285v-0.3146c0,-0.3427 -0.1888,-0.65 -0.4885,-0.7949c-0.2996,-0.145 -0.6482,-0.0978 -0.9018,0.1221l-3.004,2.6052c-0.2492,0.2161 -0.3854,0.5312 -0.375,0.8677c0.0104,0.3379 0.1647,0.6412 0.4277,0.8412l2.9939,2.276c0.2586,0.1965 0.5976,0.2254 0.8836,0.0752c0.2864,-0.1503 0.4641,-0.4501 0.4641,-0.7826v-0.3473c0.6231,0.077 1.2399,0.2755 1.7464,0.6554c0.0983,0.0737 0.1914,0.154 0.2781,0.2403c-0.058,0.0704 -0.1289,0.1314 -0.2114,0.1808l-7.6732,4.5903c-0.2505,0.1499 -0.5373,0.1499 -0.7878,0l-7.67305,-4.5903c-0.25056,-0.1499 -0.39395,-0.4072 -0.39395,-0.707v-9.18058c0,-0.29979 0.14339,-0.55716 0.39395,-0.70699l7.67305,-4.59033c0.2505,-0.14987 0.5373,-0.14987 0.7878,0zM16.0697,16.5681c0,0.0807 -0.041,0.1499 -0.1105,0.1863c-0.0695,0.0365 -0.1475,0.0299 -0.2104,-0.0179l-2.9938,-2.2759c-0.1033,-0.0786 -0.1604,-0.1909 -0.1646,-0.3236c-0.004,-0.1326 0.0461,-0.2485 0.1443,-0.3337l3.004,-2.6053c0.0615,-0.0533 0.1421,-0.0642 0.2147,-0.029c0.0726,0.0351 0.1163,0.1062 0.1163,0.1892v0.963c7.3228,0 7.7248,7.8486 1.9749,9.3141c-0.0193,0.005 -0.0386,-0.005 -0.0467,-0.0238c-0.0087,-0.0203 -0.0006,-0.0438 0.0184,-0.054c3.4608,-1.8742 2.2667,-6.044 -1.9466,-6.044z" fill="#1B2437"/>
</svg>
