<svg width="24" height="24" viewBox="0 0 24 24" fill="none" xmlns="http://www.w3.org/2000/svg">
<path d="M21.0117,19.4375c-0.7969,0.9883 -1.9805,1.6602 -3.4258,1.9453c-0.0195,0.0078 -0.039,0.0078 -0.0586,0.0078c-0.1328,0 -0.2539,-0.0859 -0.2968,-0.2187c-0.0508,-0.1485 0.0234,-0.3125 0.1679,-0.3789c1.5078,-0.6797 2.2852,-1.8477 2.0274,-3.0469c-0.0703,-0.3281 -0.2149,-0.6367 -0.4297,-0.9102c-0.0235,0.0704 -0.0742,0.125 -0.1367,0.1641l-8.1953,4.7305c-0.0469,0.0273 -0.1016,0.0429 -0.1563,0.0429c-0.0547,0 -0.1094,-0.0156 -0.1562,-0.0429l-8.19536,-4.7305c-0.09766,-0.0547 -0.15625,-0.1562 -0.15625,-0.2695v-9.46487c0,-0.10938 0.05859,-0.21485 0.15625,-0.26953l8.19536,-4.73047c0.0976,-0.05469 0.2148,-0.05469 0.3125,0l8.1992,4.73437c0.0976,0.05469 0.1562,0.15625 0.1562,0.26953v5.27737c0.4688,0.1953 0.8985,0.4453 1.2735,0.7383c0.9726,0.7617 1.5742,1.8281 1.6875,3c0.1093,1.1211 -0.2344,2.2421 -0.9688,3.1523zM18.0781,7.26953l-2.2851,-1.32031l-7.57036,4.37108l2.28516,1.3203zM7.59764,9.96094l7.57426,-4.37109l-1.7539,-1.01172l-7.57036,4.37109zM5.53514,9.48828v3.00392l1.75,1.0117v-3.0039zM2.93749,7.26953l2.28515,1.31641l7.57036,-4.37109l-2.2852,-1.32032zM2.62499,16.5508l7.57031,4.3711v-8.7422l-2.28516,-1.3203v3.1875c0,0.1094 -0.05859,0.2148 -0.15625,0.2695c-0.04687,0.0274 -0.10156,0.043 -0.15625,0.043c-0.05468,0 -0.10937,-0.0156 -0.15625,-0.043l-2.375,-1.3711c-0.09765,-0.0547 -0.15625,-0.1562 -0.15625,-0.2695v-3.54689l-2.28515,-1.32031zM18.3906,16.5586v-0.2813c-0.0039,-0.0039 -0.0117,-0.0117 -0.0195,-0.0156c-0.5625,-0.3867 -1.2891,-0.6094 -2.1172,-0.6523v1.0508c0,0.1171 -0.0664,0.2226 -0.1719,0.2773c-0.1015,0.0508 -0.2304,0.043 -0.3242,-0.0273l-3.6133,-2.6524c-0.0781,-0.0586 -0.125,-0.1445 -0.1289,-0.2422c0,-0.0976 0.0391,-0.1875 0.1133,-0.25l3.6133,-3.0234c0.0937,-0.0781 0.2226,-0.0938 0.332,-0.043c0.1094,0.0508 0.1797,0.1602 0.1797,0.2813v1.0117c0.7695,0.0234 1.4883,0.1367 2.1367,0.332v-4.5156l-7.5703,4.3711v8.7422zM21.3555,16.3398c-0.1641,-1.7226 -1.6836,-3.7343 -5.4141,-3.7343c-0.1719,0 -0.3125,-0.1407 -0.3125,-0.3125v-0.6485l-2.793,2.3399l2.793,2.0508v-0.7539c0,-0.1719 0.1406,-0.3125 0.3125,-0.3125c1.082,0 2.043,0.2617 2.7812,0.7656c0.6915,0.4726 1.1563,1.1367 1.3165,1.8789c0.1484,0.707 0.0234,1.4258 -0.3711,2.0781c-0.0625,0.1094 -0.1329,0.2109 -0.211,0.3125c1.4492,-0.9258 2.0235,-2.3945 1.8985,-3.6641z" fill="#1B2437"/>
<path fill-rule="evenodd" clip-rule="evenodd" d="M19.0195,12.5469v-5.27737c0,-0.11328 -0.0586,-0.21484 -0.1562,-0.26953l-8.1992,-4.73437c-0.0977,-0.05469 -0.2149,-0.05469 -0.3125,0l-8.19536,4.73047c-0.09766,0.05468 -0.15625,0.16015 -0.15625,0.26953v9.46487c0,0.1133 0.05859,0.2148 0.15625,0.2695l8.19536,4.7305c0.0468,0.0273 0.1015,0.0429 0.1562,0.0429c0.0547,0 0.1094,-0.0156 0.1563,-0.0429l8.1953,-4.7305c0.0023,-0.0015 0.0047,-0.003 0.0071,-0.0045c0.0592,-0.0388 0.107,-0.0919 0.1296,-0.1596c0.0466,0.0594 0.0899,0.1204 0.1299,0.1828c0.1442,0.2255 0.2447,0.4705 0.2998,0.7274c0.2578,1.1992 -0.5196,2.3672 -2.0274,3.0469c-0.1445,0.0664 -0.2187,0.2304 -0.1679,0.3789c0.0429,0.1328 0.164,0.2187 0.2968,0.2187c0.0196,0 0.0391,0 0.0586,-0.0078c1.4453,-0.2851 2.6289,-0.957 3.4258,-1.9453c0.7344,-0.9102 1.0781,-2.0312 0.9688,-3.1523c-0.1133,-1.1719 -0.7149,-2.2383 -1.6875,-3c-0.375,-0.293 -0.8047,-0.543 -1.2735,-0.7383zM19.2195,12.4151c0.437,0.1935 0.84,0.4339 1.1966,0.7125c1.0131,0.7934 1.6445,1.9087 1.7634,3.1383M22.1795,16.2659c0.1146,1.1752 -0.2462,2.3479 -1.0121,3.2971c-0.8286,1.0277 -2.0521,1.7193 -3.5299,2.0135c-0.048,0.0146 -0.0907,0.0143 -0.1069,0.0141c-0.0012,0 -0.0023,0 -0.0033,0c-0.2193,0 -0.4166,-0.1414 -0.4866,-0.3556c-0.0846,-0.2499 0.0416,-0.5169 0.2742,-0.6238l0.0013,-0.0006c1.4619,-0.6589 2.1441,-1.7525 1.914,-2.8226c-0.0472,-0.2203 -0.1313,-0.4312 -0.2512,-0.6272c-0.0046,0.003 -0.0091,0.006 -0.0136,0.0088l-0.0061,0.0036l-8.1949,4.7303c0.0002,-0.0001 -0.0001,0 0,0c-0.0757,0.044 -0.1648,0.0699 -0.2566,0.0699c-0.0918,0 -0.1813,-0.0261 -0.257,-0.0702c0.0001,0.0001 -0.0002,-0.0001 0,0l-8.19228,-4.7287c-0.00042,-0.0002 -0.00083,-0.0005 -0.00124,-0.0007c-0.16151,-0.091 -0.25729,-0.2598 -0.25729,-0.4433v-9.46487c0,-0.17822 0.09457,-0.35159 0.25725,-0.44331l8.19656,-4.73119c0.1584,-0.08869 0.3496,-0.08869 0.508,0l0.0023,0.0013l8.1969,4.73307c0.0004,0.00025 0.0009,0.00049 0.0013,0.00074c0.1615,0.09104 0.2572,0.25978 0.2572,0.44329v5.14557M15.6141,10.5885c0.1541,-0.1283 0.3658,-0.1536 0.5443,-0.0707c0.1797,0.0834 0.2955,0.2633 0.2955,0.4627v0.8196c0.6138,0.0309 1.1961,0.1186 1.7367,0.2602v-3.90528l-7.1703,4.14018v8.2806l7.1703,-4.1328v-0.0613c-0.4689,-0.3034 -1.0592,-0.4949 -1.7367,-0.5575v0.836c0,0.1951 -0.111,0.3673 -0.2798,0.4549l-0.0026,0.0013c-0.1655,0.0827 -0.3754,0.0719 -0.5328,-0.0456c-0.0003,-0.0002 -0.0006,-0.0004 -0.0009,-0.0006l-3.6133,-2.6524c-0.1243,-0.0932 -0.2023,-0.234 -0.2087,-0.3942l-0.0003,-0.008c0,-0.1524 0.0621,-0.2998 0.1846,-0.403zM16.082,16.9375c0.1055,-0.0547 0.1719,-0.1602 0.1719,-0.2773v-1.0508c0.0673,0.0035 0.134,0.0082 0.2,0.014c0.7452,0.0662 1.4004,0.2831 1.9172,0.6383c0.0078,0.0039 0.0156,0.0117 0.0195,0.0156v0.2813l-7.5703,4.3633v-8.7422l7.5703,-4.3711v4.5156c-0.0659,-0.0198 -0.1326,-0.0389 -0.2,-0.057c-0.5951,-0.1604 -1.2454,-0.254 -1.9367,-0.275v-1.0117c0,-0.1211 -0.0703,-0.2305 -0.1797,-0.2813c-0.1094,-0.0508 -0.2383,-0.0351 -0.332,0.043l-3.6133,3.0234c-0.0742,0.0625 -0.1133,0.1524 -0.1133,0.25c0.0039,0.0977 0.0508,0.1836 0.1289,0.2422l3.6133,2.6524c0.0938,0.0703 0.2227,0.0781 0.3242,0.0273zM18.7226,15.7344c-0.7382,-0.5039 -1.6992,-0.7656 -2.7812,-0.7656c-0.1719,0 -0.3125,0.1406 -0.3125,0.3125v0.7539l-2.793,-2.0508l2.793,-2.3399v0.6485c0,0.1718 0.1406,0.3125 0.3125,0.3125c3.7305,0 5.25,2.0117 5.4141,3.7343c0.1111,1.1287 -0.3304,2.4147 -1.448,3.3368c-0.0362,0.0298 -0.0731,0.0593 -0.1107,0.0884c-0.0011,0.0008 -0.0021,0.0016 -0.0032,0.0024c-0.1064,0.0822 -0.2186,0.1611 -0.3366,0.2365c0.0781,-0.1016 0.1485,-0.2031 0.211,-0.3125c0.029,-0.0479 0.0565,-0.0962 0.0826,-0.1449c0.3288,-0.613 0.426,-1.2782 0.2885,-1.9332c-0.1602,-0.7422 -0.625,-1.4063 -1.3165,-1.8789zM15.4289,15.6402v-0.3589c0,-0.2824 0.2302,-0.5125 0.5125,-0.5125c1.113,0 2.1156,0.2691 2.894,0.8004c0.729,0.4983 1.2271,1.2044 1.3992,2.0019l0.0002,0.0011c0.1156,0.5505 0.076,1.1071 -0.1148,1.6363c0.8142,-0.8424 1.1291,-1.9077 1.0364,-2.8491c-0.0772,-0.8108 -0.474,-1.6957 -1.2982,-2.3787c-0.8236,-0.6826 -2.0879,-1.1752 -3.9168,-1.1752c-0.2823,0 -0.5125,-0.2302 -0.5125,-0.5125v-0.22l-2.2692,1.901zM17.6782,7.26948l-1.8853,-1.08929l-7.17038,4.14021l1.88528,1.0893zM18.0781,7.26953l-7.5703,4.37107l-2.28516,-1.3203l7.57036,-4.37108zM13.418,4.57813l1.7539,1.01172l-7.57426,4.37109l-1.75,-1.01172zM7.59773,9.72997l7.17397,-4.14008l-1.3537,-0.78085l-7.17057,4.14029zM7.08514,10.6154l-1.35,-0.78047v2.54187l1.35,0.7805zM7.28514,13.5039l-1.75,-1.0117v-3.00392l1.75,1.01172zM3.33767,7.26926l1.88486,1.0858l7.17057,-4.14027l-1.8853,-1.08927zM2.93749,7.26953l7.57031,-4.375l2.2852,1.32032l-7.57036,4.37109zM4.91014,9.12891v3.54689c0,0.1133 0.0586,0.2148 0.15625,0.2695l2.375,1.3711c0.04688,0.0274 0.10157,0.043 0.15625,0.043c0.05469,0 0.10938,-0.0156 0.15625,-0.043c0.09766,-0.0547 0.15625,-0.1601 0.15625,-0.2695v-3.1875l2.28516,1.3203v8.7422l-7.57031,-4.3711v-8.7422zM2.82499,8.15514v8.28016l7.17031,4.1402v-8.2804l-1.88516,-1.0892v2.841c0,0.1781 -0.09446,0.3514 -0.25697,0.4431c-0.07547,0.0437 -0.16415,0.0694 -0.25553,0.0694c-0.0918,0 -0.18088,-0.0259 -0.25658,-0.07c-0.00015,-0.0001 0.00015,0.0001 0,0l-2.37369,-1.3703c-0.16147,-0.0911 -0.25723,-0.2598 -0.25723,-0.4433v-3.43146z" fill="#1B2437"/>
</svg>
