<svg width="24" height="24" viewBox="0 0 24 24" fill="none" xmlns="http://www.w3.org/2000/svg">
<path d="M22.4895,6.819c0.0073,0.06976 0.0108,0.13986 0.0105,0.21v9.939c0.0001,0.4547 -0.1377,0.8987 -0.395,1.2736c-0.2573,0.3749 -0.6222,0.663 -1.0465,0.8264l-7.443,2.8635c-0.2799,0.1077 -0.5698,0.1871 -0.8655,0.237v-11.175l9.741,-4.1745zM10.3845,21.9315l-7.4415,-2.8635c-0.42461,-0.1631 -0.7898,-0.4512 -1.0474,-0.8261c-0.25761,-0.3749 -0.39554,-0.819 -0.3956,-1.2739v-9.939c0.00024,-0.07013 0.00374,-0.1402 0.0105,-0.21l9.7395,4.1745v11.175c-0.294,-0.0495 -0.5835,-0.129 -0.8655,-0.237z" fill="#1B2437"/>
<path fill-rule="evenodd" clip-rule="evenodd" d="M6.054,3.73227l9.9165,4.2495l-3.9705,1.701l-9.8595,-4.2255c0.222,-0.2265 0.4935,-0.4095 0.8025,-0.528zM8.061,2.96127l2.325,-0.894c1.0394,-0.39959 2.1901,-0.39959 3.2295,0l7.443,2.862c0.3075,0.12 0.579,0.3 0.801,0.528l-3.984,1.707z" fill="#1B2437"/>
</svg>
