<svg width="24" height="24" viewBox="0 0 24 24" fill="none" xmlns="http://www.w3.org/2000/svg">
<path fill-rule="evenodd" clip-rule="evenodd" d="M2,7.28571c0,-2.36193 1.92378,-4.28571 4.28571,-4.28571h11.42859c2.3619,0 4.2857,1.92378 4.2857,4.28571v9.99999c0,2.3619 -1.9238,4.2857 -4.2857,4.2857h-2.8572h-8.57139c-2.36193,0 -4.28571,-1.9238 -4.28571,-4.2857zM7,12.2676v5.0181c0,0.1895 0.07526,0.3711 0.20921,0.5051c0.13395,0.1339 0.31564,0.2092 0.50508,0.2092c0.18944,0 0.37112,-0.0753 0.50507,-0.2092c0.13396,-0.134 0.20921,-0.3156 0.20921,-0.5051v-5.0181c0,-0.1895 -0.07525,-0.3711 -0.20921,-0.5051c-0.13395,-0.134 -0.31563,-0.2092 -0.50507,-0.2092c-0.18944,0 -0.37113,0.0752 -0.50508,0.2092c-0.13395,0.134 -0.20921,0.3156 -0.20921,0.5051zM12,6.57143c-0.1894,0 -0.3711,0.07525 -0.5051,0.20921c-0.1339,0.13395 -0.2092,0.31563 -0.2092,0.50507v9.99999c0,0.1895 0.0753,0.3711 0.2092,0.5051c0.134,0.1339 0.3157,0.2092 0.5051,0.2092c0.1894,0 0.3711,-0.0753 0.5051,-0.2092c0.1339,-0.134 0.2092,-0.3156 0.2092,-0.5051v-9.99999c0,-0.18944 -0.0753,-0.37112 -0.2092,-0.50507c-0.134,-0.13396 -0.3157,-0.20921 -0.5051,-0.20921zM15.5714,10.1429v7.1428c0,0.1895 0.0753,0.3711 0.2092,0.5051c0.134,0.1339 0.3157,0.2092 0.5051,0.2092c0.1895,0 0.3711,-0.0753 0.5051,-0.2092c0.1339,-0.134 0.2092,-0.3156 0.2092,-0.5051v-7.1428c0,-0.18948 -0.0753,-0.37116 -0.2092,-0.50512c-0.134,-0.13395 -0.3156,-0.20921 -0.5051,-0.20921c-0.1894,0 -0.3711,0.07526 -0.5051,0.20921c-0.1339,0.13396 -0.2092,0.31564 -0.2092,0.50512z" fill="#1B2437"/>
</svg>
