<svg width="24" height="24" viewBox="0 0 24 24" fill="none" xmlns="http://www.w3.org/2000/svg">
<path d="M17.7143,3c2.3619,0 4.2857,1.92378 4.2857,4.28571v9.99999c0,2.3619 -1.9238,4.2857 -4.2857,4.2857c-0.1895,0 -0.3711,-0.0752 -0.5051,-0.2092c-0.1339,-0.1339 -0.2092,-0.3156 -0.2092,-0.5051c0,-0.1894 0.0753,-0.3711 0.2092,-0.505c0.134,-0.134 0.3156,-0.2092 0.5051,-0.2092c1.5952,0 2.8571,-1.262 2.8571,-2.8572v-9.99999c0,-1.59521 -1.2619,-2.85714 -2.8571,-2.85714h-11.42859c-1.59521,0 -2.85714,1.26193 -2.85714,2.85714v9.99999c0,1.5952 1.26193,2.8572 2.85714,2.8572h8.57139c0.1895,0 0.3712,0.0752 0.5051,0.2092c0.134,0.1339 0.2092,0.3156 0.2092,0.505c0,0.1895 -0.0752,0.3712 -0.2092,0.5051c-0.1339,0.134 -0.3156,0.2092 -0.5051,0.2092h-8.57139c-2.36193,0 -4.28571,-1.9238 -4.28571,-4.2857v-9.99999c0,-2.36193 1.92378,-4.28571 4.28571,-4.28571z" fill="#1B2437"/>
<path d="M8.21936,11.7625c0.13396,0.134 0.20921,0.3156 0.20921,0.5051v5.0181c0,0.1895 -0.07525,0.3711 -0.20921,0.5051c-0.13395,0.1339 -0.31563,0.2092 -0.50507,0.2092c-0.18944,0 -0.37113,-0.0753 -0.50508,-0.2092c-0.13395,-0.134 -0.20921,-0.3156 -0.20921,-0.5051v-5.0181c0,-0.1895 0.07526,-0.3711 0.20921,-0.5051c0.13395,-0.134 0.31564,-0.2092 0.50508,-0.2092c0.18944,0 0.37112,0.0752 0.50507,0.2092z" fill="#1B2437"/>
<path d="M12.5051,6.78064c0.1339,0.13395 0.2092,0.31563 0.2092,0.50507v9.99999c0,0.1895 -0.0753,0.3711 -0.2092,0.5051c-0.134,0.1339 -0.3157,0.2092 -0.5051,0.2092c-0.1894,0 -0.3711,-0.0753 -0.5051,-0.2092c-0.1339,-0.134 -0.2092,-0.3156 -0.2092,-0.5051v-9.99999c0,-0.18944 0.0753,-0.37112 0.2092,-0.50507c0.134,-0.13396 0.3157,-0.20921 0.5051,-0.20921c0.1894,0 0.3711,0.07525 0.5051,0.20921z" fill="#1B2437"/>
<path d="M16.7908,9.63778c0.1339,0.13396 0.2092,0.31564 0.2092,0.50512v7.1428c0,0.1895 -0.0753,0.3711 -0.2092,0.5051c-0.134,0.1339 -0.3156,0.2092 -0.5051,0.2092c-0.1894,0 -0.3711,-0.0753 -0.5051,-0.2092c-0.1339,-0.134 -0.2092,-0.3156 -0.2092,-0.5051v-7.1428c0,-0.18948 0.0753,-0.37116 0.2092,-0.50512c0.134,-0.13395 0.3157,-0.20921 0.5051,-0.20921c0.1895,0 0.3711,0.07526 0.5051,0.20921z" fill="#1B2437"/>
</svg>
