<svg width="24" height="24" viewBox="0 0 24 24" fill="none" xmlns="http://www.w3.org/2000/svg">
<g clip-path="url(#clip0_1065_3142)">
<path fill-rule="evenodd" clip-rule="evenodd" d="M24.0001,5.25v13.5c0,1.24 -1.01,2.25 -2.25,2.25h-13.54004c-0.68,0 -1.31,-0.3 -1.74,-0.82l-6.3,-7.71c-0.23,-0.28 -0.23,-0.67 0,-0.95l6.3,-7.69c0.43,-0.53 1.06,-0.83 1.74,-0.83h13.54004c1.24,0 2.25,1.01 2.25,2.25zM14.5601,12l3.22,-3.22l-1.06,-1.06l-3.22,3.22l-3.22,-3.22l-1.06004,1.06l3.22004,3.22l-3.22004,3.22l1.06004,1.06l3.22,-3.22l3.22,3.22l1.06,-1.06z" fill="#1B2437"/>
</g>
<defs>
<clipPath id="clip0_1065_3142">
<rect width="24" height="24" fill="white"/>
</clipPath>
</defs>
</svg>
