<svg width="24" height="24" viewBox="0 0 24 24" fill="none" xmlns="http://www.w3.org/2000/svg">
<path fill-rule="evenodd" clip-rule="evenodd" d="M19.3846,8.72001c0.413,0.03399 0.721,0.395 0.688,0.808c-0.006,0.06799 -0.548,6.77899 -0.86,9.59399c-0.194,1.747 -1.348,2.81 -3.09,2.842c-1.333,0.023 -2.619,0.036 -3.876,0.036c-1.355,0 -2.676,-0.015 -3.983,-0.042c-1.672,-0.033 -2.829,-1.117 -3.018,-2.829c-0.315,-2.84 -0.854,-9.53399 -0.859,-9.60099c-0.034,-0.413 0.274,-0.775 0.687,-0.808c0.407,-0.01101 0.775,0.275 0.808,0.687c0.00319,0.0434 0.22354,2.77699 0.46366,5.48169l0.04823,0.5398c0.12094,1.3443 0.24354,2.6361 0.34311,3.5355c0.107,0.973 0.632,1.475 1.558,1.494c2.5,0.053 5.051,0.056 7.801,0.006c0.984,-0.019 1.516,-0.511 1.626,-1.507c0.31,-2.794 0.85,-9.48199 0.856,-9.54999c0.033,-0.412 0.398,-0.7 0.807,-0.687zM14.3454,2.00031c0.918,0 1.725,0.619 1.962,1.506l0.254,1.261c0.0821,0.41337 0.4448,0.71525 0.8649,0.72188l3.2817,0.00012c0.414,0 0.75,0.33599 0.75,0.75c0,0.414 -0.336,0.75 -0.75,0.75l-3.2524,-0.00016c-0.0051,0.0001 -0.0101,0.00016 -0.0152,0.00016l-0.0244,-0.001l-10.37438,0.00087c-0.00807,0.00008 -0.01614,0.00013 -0.02422,0.00013l-0.0154,-0.001l-3.252,0.001c-0.414,0 -0.75,-0.336 -0.75,-0.75c0,-0.41401 0.336,-0.75 0.75,-0.75l3.281,-0.001l0.10102,-0.0064c0.37629,-0.04882 0.68902,-0.3346 0.76538,-0.7146l0.243,-1.216c0.247,-0.932 1.054,-1.551 1.972,-1.551zM14.3454,3.50031h-4.233c-0.24,0 -0.451,0.161 -0.512,0.392l-0.233,1.17c-0.02961,0.14819 -0.07273,0.29101 -0.12792,0.42726h5.97912c-0.0552,-0.13625 -0.0985,-0.27907 -0.1282,-0.42726l-0.243,-1.216c-0.051,-0.185 -0.262,-0.346 -0.502,-0.346z" fill="#1B2437"/>
</svg>
