<svg width="24" height="24" viewBox="0 0 24 24" fill="none" xmlns="http://www.w3.org/2000/svg">
<g clip-path="url(#clip0_1065_3132)">
<path d="M24,5.25v13.5c0,1.24 -1.01,2.25 -2.25,2.25h-13.54c-0.68,0 -1.31,-0.3 -1.74,-0.82l-6.3,-7.71c-0.23,-0.27 -0.23,-0.67 0,-0.94l6.3,-7.7c0.43,-0.53 1.06,-0.83 1.74,-0.83h13.54c1.24,0 2.25,1.01 2.25,2.25zM22.5,5.25c0,-0.41 -0.34,-0.75 -0.75,-0.75h-13.54c-0.23,0 -0.44,0.1 -0.58,0.28l-5.91,7.22l5.91,7.23c0.14,0.17 0.35,0.27 0.58,0.27h13.54c0.41,0 0.75,-0.34 0.75,-0.75z" fill="#1B2437"/>
<path d="M14.56,12l3.22,3.22l-1.06,1.06l-3.22,-3.22l-3.22,3.22l-1.06,-1.06l3.22,-3.22l-3.22,-3.22l1.06,-1.06l3.22,3.22l3.22,-3.22l1.06,1.06z" fill="#1B2437"/>
</g>
<defs>
<clipPath id="clip0_1065_3132">
<rect width="24" height="24" fill="white"/>
</clipPath>
</defs>
</svg>
