<svg width="24" height="24" viewBox="0 0 24 24" fill="none" xmlns="http://www.w3.org/2000/svg">
<path fill-rule="evenodd" clip-rule="evenodd" d="M19.3314,8.72001c0.0177,-0.00057 0.0354,-0.00057 0.0532,0zM5.0736,8.72001c0.01518,-0.00042 0.03031,-0.00041 0.04537,0z" fill="#1B2437"/>
<path d="M14.3454,2.00031c0.918,0 1.725,0.619 1.962,1.506l0.254,1.261c0.0821,0.41337 0.4448,0.71525 0.8649,0.72188l3.2817,0.00012c0.414,0 0.75,0.33599 0.75,0.75c0,0.414 -0.336,0.75 -0.75,0.75l-3.2524,-0.00016l-0.0152,0.00016l-0.0244,-0.001l-10.37438,0.00087l-0.02422,0.00013l-0.0154,-0.001l-3.252,0.001c-0.414,0 -0.75,-0.336 -0.75,-0.75c0,-0.41401 0.336,-0.75 0.75,-0.75l3.281,-0.001l0.10102,-0.0064c0.37629,-0.04882 0.68902,-0.3346 0.76538,-0.7146l0.243,-1.216c0.247,-0.932 1.054,-1.551 1.972,-1.551z" fill="#1B2437"/>
<path d="M19.2126,19.122c-0.194,1.747 -1.348,2.81 -3.09,2.842c-1.333,0.023 -2.619,0.036 -3.876,0.036c-1.355,0 -2.676,-0.015 -3.983,-0.042c-1.672,-0.033 -2.829,-1.117 -3.018,-2.829c-0.315,-2.84 -0.854,-9.53399 -0.859,-9.60099c-0.034,-0.413 0.274,-0.775 0.687,-0.808h0.04537h14.21243h0.0532c0.413,0.03399 0.721,0.395 0.688,0.808c-0.006,0.06799 -0.548,6.77899 -0.86,9.59399z" fill="#1B2437"/>
</svg>
