<svg width="24" height="24" viewBox="0 0 24 24" fill="none" xmlns="http://www.w3.org/2000/svg">
<path d="M10.2047,4.76185c0.0101,-0.97854 0.8258,-1.78054 1.8077,-1.7755c0.9819,0.01009 1.7976,0.8373 1.7775,1.80576c-0.0202,0.99872 -0.8107,1.79064 -1.7977,1.7856c-0.9919,0.00504 -1.7976,-0.81209 -1.7875,-1.81586z" fill="#1B2437"/>
<path d="M12.0274,10.2094c0.992,0.0202 1.7876,0.8374 1.7675,1.8159c-0.0202,1.0038 -0.841,1.8007 -1.8329,1.7755c-0.9819,-0.0202 -1.7674,-0.8424 -1.7523,-1.831c0.0101,-0.9836 0.8308,-1.7755 1.8177,-1.7604z" fill="#1B2437"/>
<path d="M11.9872,21.0139c-0.9919,-0.0051 -1.7825,-0.8071 -1.7825,-1.7957c0,-0.9987 0.8107,-1.8007 1.8178,-1.7856c0.9919,0.0101 1.7875,0.8222 1.7724,1.8058c-0.0201,0.9987 -0.8157,1.7805 -1.8077,1.7755z" fill="#1B2437"/>
</svg>
