<svg width="24" height="24" viewBox="0 0 24 24" fill="none" xmlns="http://www.w3.org/2000/svg">
<path d="M4.76662,12.0101c-0.00503,-1.029 0.82581,-1.8714 1.85805,-1.8815c1.01714,-0.0101 1.87315,0.8373 1.87819,1.8663c0.00503,1.029 -0.83587,1.8815 -1.86308,1.8815c-1.02217,0.005 -1.87316,-0.8374 -1.87316,-1.8663z" fill="#1B2437"/>
<path d="M19.2281,12.01c0,1.0239 -0.856,1.8713 -1.8782,1.8663c-1.0272,-0.0051 -1.8631,-0.8525 -1.8631,-1.8814c0.0051,-1.0341 0.8409,-1.8663 1.8732,-1.8663c1.0221,-0.0051 1.8681,0.8524 1.8681,1.8814z" fill="#1B2437"/>
<path d="M17.3549,6.34556c-1.0373,0 -1.8631,-0.82721 -1.8631,-1.87133c0,-1.03403 0.8409,-1.87134 1.8732,-1.8663c1.0272,0.00505 1.8681,0.8474 1.8681,1.87639c-0.0101,1.03403 -0.8409,1.86124 -1.8782,1.86124z" fill="#1B2437"/>
<path d="M17.3549,21.3919c-1.0322,0 -1.8681,-0.8423 -1.8631,-1.8713c0.0051,-1.0391 0.8359,-1.8663 1.8732,-1.8663c1.0222,0 1.858,0.8272 1.8681,1.8461c0,1.0441 -0.8359,1.8865 -1.8782,1.8915z" fill="#1B2437"/>
<path d="M6.64985,17.6544c1.03728,0.0101 1.86308,0.8524 1.85301,1.8814c-0.01007,1.0441 -0.86105,1.8663 -1.9084,1.8512c-1.01211,-0.0152 -1.83287,-0.8626 -1.82784,-1.8865c0.00504,-1.0239 0.85098,-1.8562 1.88323,-1.8461z" fill="#1B2437"/>
<path d="M6.64481,6.34556c-1.03728,0.00505 -1.87315,-0.82217 -1.87819,-1.8562c-0.00503,-1.02898 0.83084,-1.87638 1.86308,-1.88143c1.03224,-0.00504 1.87315,0.83227 1.87818,1.86125c0,1.03908 -0.82579,1.87134 -1.86307,1.87638z" fill="#1B2437"/>
</svg>
