<svg width="24" height="24" viewBox="0 0 24 24" fill="none" xmlns="http://www.w3.org/2000/svg">
<path d="M4.76167,13.7953c-0.97854,-0.01 -1.78055,-0.8258 -1.7755,-1.8077c0.01009,-0.9818 0.8373,-1.7976 1.80576,-1.7774c0.99872,0.0201 1.79064,0.8107 1.7856,1.7976c0.00504,0.9919 -0.81209,1.7976 -1.81586,1.7875z" fill="#1B2437"/>
<path d="M10.2093,11.9726c0.0201,-0.992 0.8373,-1.7876 1.8158,-1.7674c1.0038,0.0201 1.8007,0.8409 1.7755,1.8328c-0.0202,0.9819 -0.8423,1.7674 -1.831,1.7523c-0.9836,-0.01 -1.7755,-0.8308 -1.7603,-1.8177z" fill="#1B2437"/>
<path d="M21.0137,12.0128c-0.0051,0.992 -0.8071,1.7825 -1.7957,1.7825c-0.9987,0 -1.8007,-0.8107 -1.7856,-1.8178c0.0101,-0.9919 0.8222,-1.7875 1.8058,-1.7724c0.9987,0.0201 1.7805,0.8157 1.7755,1.8077z" fill="#1B2437"/>
</svg>
