<svg width="24" height="24" viewBox="0 0 24 24" fill="none" xmlns="http://www.w3.org/2000/svg">
<path d="M11.977,22.0649c-2.37664,0 -4.75835,0 -7.13503,0c-1.64656,0 -2.87517,-1.2308 -2.87517,-2.8852c0,-1.3468 0,-2.6885 0,-4.0353c0,-0.3833 0.2014,-0.6607 0.53374,-0.7667c0.30212,-0.0958 0.6546,-0.0101 0.8258,0.2623c0.10071,0.1614 0.16112,0.3733 0.16616,0.565c0.0151,1.3013 0.00504,2.6077 0.01008,3.9091c0,0.8928 0.53374,1.4275 1.41996,1.4275c4.71308,0 9.43116,0 14.14426,0c0.9013,0 1.4401,-0.5398 1.4401,-1.4426c0,-1.3266 0,-2.6582 0,-3.9848c0,-0.3582 0.1863,-0.6154 0.5086,-0.7314c0.2971,-0.111 0.6445,-0.0303 0.8308,0.237c0.0957,0.1362 0.1662,0.3229 0.1712,0.4843c0.0101,1.4224 0.0302,2.8398 0,4.2622c-0.0302,1.5031 -1.2739,2.6885 -2.7694,2.6935c-2.4321,0.0101 -4.8491,0.0051 -7.2711,0.0051z" fill="#1B2437"/>
<path d="M12.7444,13.2291c0.131,-0.121 0.1964,-0.1815 0.2619,-0.2471c1.1833,-1.1904 2.3716,-2.3758 3.5549,-3.56615c0.2266,-0.22699 0.4935,-0.31777 0.8006,-0.22194c0.3022,0.0908 0.4734,0.30769 0.5288,0.61537c0.0503,0.30262 -0.0856,0.53462 -0.2921,0.74152c-1.0675,1.0693 -2.135,2.1386 -3.1974,3.208c-0.5942,0.5952 -1.1833,1.1904 -1.7775,1.7856c-0.4179,0.4186 -0.8359,0.4237 -1.2437,0.0151c-1.67177,-1.6746 -3.34351,-3.3492 -5.0102,-5.0289c-0.35751,-0.3581 -0.38269,-0.8222 -0.07049,-1.13997c0.31722,-0.32787 0.79054,-0.30265 1.15812,0.06052c1.17324,1.17525 2.34648,2.35555 3.51467,3.53085c0.0655,0.0656 0.1158,0.1463 0.1712,0.2169c0.0302,-0.0101 0.0604,-0.0252 0.0856,-0.0353c0,-0.0908 0,-0.1867 0,-0.2774c0,-3.36947 0,-6.74394 0,-10.11336c0,-0.55485 0.3525,-0.8928 0.861,-0.83227c0.3475,0.04035 0.6144,0.31274 0.6496,0.66078c0.0101,0.10592 0.0101,0.21689 0.0101,0.32786c0,3.31394 0,6.62283 0,9.93679c-0.0051,0.0908 -0.0051,0.1917 -0.0051,0.3631z" fill="#1B2437"/>
</svg>
