<svg width="24" height="24" viewBox="0 0 24 24" fill="none" xmlns="http://www.w3.org/2000/svg">
<path d="M17.5259,3.65364c0.05,0.039 1.723,1.339 1.723,1.339c0.608,0.362 1.083,1.009 1.263,1.775c0.179,0.758 0.049,1.54 -0.368,2.201c-0.0027,0.00441 -0.0055,0.00877 -0.0152,0.02173l-0.0075,0.01001c-0.0677,0.0892 -0.3619,0.46126 -1.847,2.32182c-0.0138,0.0244 -0.0294,0.0473 -0.0465,0.0694c-0.025,0.0328 -0.0523,0.0628 -0.0813,0.0902c-0.1013,0.1275 -0.2083,0.2615 -0.3208,0.4024l-0.2279,0.2855c-0.4703,0.589 -1.0282,1.2874 -1.69,2.1158l-0.3396,0.4251c-1.2777,1.5991 -2.914,3.6466 -5.0102,6.269c-0.459,0.572 -1.14696,0.905 -1.88596,0.914l-3.639,0.046h-0.01c-0.347,0 -0.649,-0.238 -0.73,-0.577l-0.819,-3.471c-0.169,-0.719 -0.001,-1.461 0.46,-2.037l3.81973,-4.7775l2.72123,-3.40352c0.1093,-0.04846 0.2403,-0.03656 0.336,0.03782l2.7729,2.27988c0.1795,0.15272 0.4282,0.23702 0.6898,0.20602c0.5572,-0.0615 0.939,-0.56443 0.8898,-1.10806c-0.0301,-0.27767 -0.1631,-0.51057 -0.3424,-0.68635c-0.0561,-0.04699 -2.694,-2.23257 -2.694,-2.23257c-0.1152,-0.09648 -0.1659,-0.24617 -0.1419,-0.38561l1.3688,-1.71207c0.002,-0.002 0.0038,-0.00425 0.0055,-0.0065c0.0018,-0.00225 0.0035,-0.0045 0.0055,-0.0065c0.1169,-0.13967 0.2444,-0.26588 0.3805,-0.37841c1.0673,-0.8825 2.663,-0.92425 3.7805,-0.02759z" fill="#1B2437"/>
</svg>
