<svg width="24" height="24" viewBox="0 0 24 24" fill="none" xmlns="http://www.w3.org/2000/svg">
<path fill-rule="evenodd" clip-rule="evenodd" d="M11.4921,2.03671c0.414,0 0.75,0.336 0.75,0.75c0,0.414 -0.336,0.75 -0.75,0.75h-3.73901c-2.584,0 -4.253,1.77 -4.253,4.509v8.31399c0,2.739 1.669,4.509 4.253,4.509h8.82401c2.584,0 4.254,-1.77 4.254,-4.509v-4.028c0,-0.414 0.336,-0.75 0.75,-0.75c0.414,0 0.75,0.336 0.75,0.75v4.028c0,3.594 -2.313,6.009 -5.754,6.009h-8.82401c-3.441,0 -5.753,-2.415 -5.753,-6.009v-8.31399c0,-3.594 2.312,-6.009 5.753,-6.009zM20.2017,2.91531l1.217,1.217c0.593,0.592 0.919,1.379 0.918,2.217c0,0.83799 -0.326,1.624 -0.918,2.215l-7.509,7.50899c-0.551,0.551 -1.285,0.855 -2.065,0.855h-3.74601c-0.202,0 -0.396,-0.082 -0.537,-0.227c-0.141,-0.144 -0.218,-0.339 -0.213,-0.542l0.094,-3.779c0.019,-0.752 0.322,-1.459 0.854,-1.992h0.001l7.47301,-7.47299c1.222,-1.22 3.209,-1.22 4.431,0zM15.1551,5.65131l-5.79741,5.79799c-0.259,0.259 -0.406,0.603 -0.415,0.968l-0.075,3.011h2.97701c0.38,0 0.736,-0.147 1.005,-0.416l5.8324,-5.83399zM16.8307,3.97631l-0.6156,0.614l3.527,3.528l0.6166,-0.615c0.308,-0.308 0.478,-0.718 0.478,-1.154c0,-0.437 -0.17,-0.848 -0.478,-1.156l-1.217,-1.217c-0.637,-0.635 -1.673,-0.635 -2.311,0z" fill="#1B2437"/>
</svg>
