<svg width="24" height="24" viewBox="0 0 24 24" fill="none" xmlns="http://www.w3.org/2000/svg">
<path d="M16.6653,2.12166c1.4385,-0.0899 2.8571,0.40958 3.926,1.38857c0.979,1.06889 1.4784,2.48742 1.3985,3.93592v9.33035c0.0899,1.4485 -0.4195,2.867 -1.3885,3.9359c-1.069,0.979 -2.4975,1.4785 -3.936,1.3886h-9.33043c-1.44851,0.0899 -2.86706,-0.4096 -3.93596,-1.3886c-0.979,-1.0689 -1.47848,-2.4874 -1.38857,-3.9359v-9.33035c-0.08991,-1.4485 0.40957,-2.86703 1.38857,-3.93592c1.0689,-0.97899 2.48745,-1.47847 3.93596,-1.38857zM16.4056,6.68694c-0.6194,-0.61936 -1.6184,-0.61936 -2.2377,0l-0.6694,0.6793c-0.0999,0.09989 -0.0999,0.26972 0,0.36962c0,0 0.0197,0.01948 0.0546,0.05418l0.2457,0.24437c0.1421,0.14142 0.3195,0.31803 0.4977,0.49562l0.6041,0.6038c0.126,0.12662 0.2096,0.21147 0.2163,0.22035c0.1099,0.11988 0.1798,0.27971 0.1798,0.45953c0,0.35959 -0.2897,0.65929 -0.6593,0.65929c-0.1699,0 -0.3297,-0.0699 -0.4396,-0.1798l-1.6683,-1.65828c-0.0799,-0.07991 -0.2197,-0.07991 -0.2997,0l-4.76506,4.76508c-0.32967,0.3297 -0.51947,0.7692 -0.52946,1.2387l-0.05994,2.3676c0,0.1298 0.03996,0.2497 0.12987,0.3396c0.08991,0.0899 0.20978,0.1399 0.33965,0.1399h2.34759c0.47955,0 0.93905,-0.1898 1.28865,-0.5295l6.7231,-6.743c0.6094,-0.61937 0.6094,-1.61833 0,-2.2277z" fill="#1B2437"/>
</svg>
