<svg width="24" height="24" viewBox="0 0 24 24" fill="none" xmlns="http://www.w3.org/2000/svg">
<path fill-rule="evenodd" clip-rule="evenodd" d="M17.5259,3.65364c0.05,0.039 1.723,1.339 1.723,1.339c0.608,0.362 1.083,1.009 1.263,1.775c0.179,0.758 0.049,1.54 -0.368,2.201c-0.0027,0.00441 -0.0055,0.00877 -0.0152,0.02173l-0.0075,0.01001c-0.0677,0.0892 -0.3619,0.46126 -1.847,2.32182c-0.0138,0.0244 -0.0294,0.0473 -0.0465,0.0694c-0.025,0.0328 -0.0523,0.0628 -0.0813,0.0902c-0.1013,0.1275 -0.2083,0.2615 -0.3208,0.4024l-0.2279,0.2855c-0.4703,0.589 -1.0282,1.2874 -1.69,2.1158l-0.3396,0.4251c-1.2777,1.5991 -2.914,3.6466 -5.0102,6.269c-0.459,0.572 -1.14696,0.905 -1.88596,0.914l-3.639,0.046h-0.01c-0.347,0 -0.649,-0.238 -0.73,-0.577l-0.819,-3.471c-0.169,-0.719 -0.001,-1.461 0.46,-2.037l9.41996,-11.78196c0.004,-0.004 0.007,-0.009 0.011,-0.013c1.033,-1.235 2.901,-1.417 4.161,-0.406zM12.3037,7.787l-7.19876,9.0046c-0.171,0.214 -0.234,0.49 -0.171,0.755l0.681,2.885l3.039,-0.038c0.289,-0.003 0.556,-0.132 0.733,-0.352c0.91146,-1.1404 2.05706,-2.5737 3.23486,-4.0476l0.4167,-0.5214l0.4174,-0.5224c1.1046,-1.3823 2.1958,-2.7481 3.1089,-3.8913zM14.5199,5.01664l-1.2792,1.59836l4.2607,3.27093c0.8202,-1.02723 1.3597,-1.70379 1.4095,-1.76829c0.164,-0.266 0.228,-0.642 0.142,-1.004c-0.088,-0.371 -0.319,-0.686 -0.652,-0.887c-0.071,-0.049 -1.756,-1.357 -1.808,-1.398c-0.634,-0.508 -1.559,-0.42 -2.073,0.188z" fill="#1B2437"/>
</svg>
