<svg width="24" height="24" viewBox="0 0 24 24" fill="none" xmlns="http://www.w3.org/2000/svg">
<path d="M18.3887,4.50528c-0.1662,0 -0.2568,0 -0.3475,0c-0.6344,0 -1.2739,0.00504 -1.9083,0c-0.4532,-0.00505 -0.7704,-0.31778 -0.7755,-0.74652c-0.005,-0.44388 0.3223,-0.7667 0.7855,-0.7667c1.3545,-0.00504 2.7141,-0.00504 4.0686,0c0.4733,0 0.7805,0.31778 0.7805,0.79192c0,1.3518 0,2.69856 0,4.05037c0,0.46909 -0.3122,0.79696 -0.7503,0.802c-0.4431,0.00504 -0.7603,-0.31777 -0.7654,-0.78183c-0.005,-0.63555 0,-1.27614 0,-1.91169c0,-0.09079 0,-0.17654 0,-0.343c-0.1208,0.11602 -0.1863,0.17655 -0.2467,0.23707c-1.1984,1.19544 -2.3918,2.39593 -3.5902,3.59137c-0.2216,0.22193 -0.4733,0.30264 -0.7754,0.21185c-0.2921,-0.0908 -0.4633,-0.29256 -0.5237,-0.58511c-0.0655,-0.2976 0.0604,-0.53467 0.2669,-0.74148c1.1782,-1.1803 2.3565,-2.36061 3.5348,-3.54092c0.0654,-0.07061 0.1259,-0.14123 0.2467,-0.26733z" fill="#1B2437"/>
<path d="M5.60902,4.62129c0.08057,0.0454 0.17626,0.07566 0.24171,0.14123c1.18834,1.18536 2.37163,2.37071 3.55494,3.55606c0.22155,0.22194 0.33234,0.47918 0.23667,0.79696c-0.0856,0.29255 -0.28198,0.46909 -0.57403,0.53971c-0.32226,0.07566 -0.56396,-0.07062 -0.78552,-0.29255c-1.16316,-1.17022 -2.33136,-2.3354 -3.49956,-3.50562c-0.06546,-0.06557 -0.13091,-0.1261 -0.24168,-0.23202c-0.00504,0.13618 -0.01512,0.21689 -0.01512,0.30264c0,0.66077 0.00503,1.32658 -0.00504,1.98735c-0.01008,0.38335 -0.28701,0.67086 -0.64956,0.71121c-0.38772,0.0454 -0.72005,-0.16645 -0.83083,-0.53466c-0.03021,-0.09584 -0.03022,-0.19672 -0.03022,-0.2976c0,-1.32659 -0.00503,-2.64813 0,-3.97471c0,-0.52458 0.30214,-0.82722 0.82582,-0.82722c1.32933,0 2.66368,0 3.99301,0c0.48843,0 0.81574,0.30768 0.81574,0.7566c0,0.45901 -0.31723,0.75661 -0.8107,0.76165c-0.62941,0.00505 -1.25379,0 -1.88321,0c-0.0856,0 -0.17625,0.01009 -0.26185,0.01009c-0.03524,0.03027 -0.06043,0.06557 -0.08057,0.10088z" fill="#1B2437"/>
<path d="M19.4663,18.3259c0.005,-0.0857 0.01,-0.1765 0.01,-0.2622c0,-0.6205 0,-1.2409 0,-1.8613c0,-0.5145 0.2971,-0.8373 0.7604,-0.8373c0.4632,0.005 0.7553,0.3329 0.7553,0.8474c0,1.3165 0,2.633 0,3.9495c0,0.5447 -0.2921,0.8474 -0.8309,0.8474c-1.3494,0 -2.6939,0.005 -4.0433,0c-0.3726,0 -0.6798,-0.2522 -0.7453,-0.5902c-0.0755,-0.3884 0.1007,-0.7364 0.4633,-0.8726c0.1208,-0.0454 0.2618,-0.0555 0.3927,-0.0555c0.6043,-0.005 1.2035,0 1.8077,-0.005c0.0907,0 0.1763,-0.0051 0.3273,-0.0152c-0.1007,-0.1059 -0.1561,-0.1664 -0.2215,-0.232c-1.1733,-1.1752 -2.3415,-2.3505 -3.5197,-3.5207c-0.2065,-0.2068 -0.3475,-0.4389 -0.2971,-0.7365c0.0453,-0.2824 0.2014,-0.4993 0.4733,-0.6002c0.2921,-0.111 0.5589,-0.0605 0.7956,0.1513c0.1309,0.116 0.2518,0.2472 0.3726,0.3733c1.0826,1.0845 2.1702,2.1689 3.2478,3.2584c0.0604,0.0656 0.0906,0.1614 0.1359,0.2422c0.0454,-0.0303 0.0806,-0.0555 0.1159,-0.0808z" fill="#1B2437"/>
<path d="M5.69466,19.4861c0.10071,0 0.19638,0 0.29708,0c0.6546,0 1.30919,-0.0101 1.95875,0.01c0.40786,0.0152 0.68985,0.343 0.68985,0.7516c0,0.4035 -0.29206,0.7516 -0.68985,0.7516c-1.41493,0.0101 -2.82985,0.0101 -4.24478,0c-0.37766,0 -0.68986,-0.3178 -0.68986,-0.6961c-0.01007,-1.4073 -0.01007,-2.8196 0,-4.2269c0.00504,-0.4136 0.34241,-0.7112 0.76035,-0.7112c0.41289,0 0.74019,0.2976 0.75026,0.7162c0.0151,0.6558 0.00504,1.3064 0.00504,1.9622c0,0.0908 0,0.1765 0,0.343c0.11581,-0.106 0.18126,-0.1615 0.24168,-0.222c1.18834,-1.1904 2.38174,-2.3858 3.57008,-3.5762c0.22659,-0.227 0.48338,-0.3279 0.79557,-0.227c0.28702,0.0908 0.46829,0.2875 0.52871,0.5851c0.06043,0.2875 -0.05035,0.5196 -0.25176,0.7264c-1.18834,1.1853 -2.37165,2.3707 -3.55496,3.556c-0.06546,0.0656 -0.15608,0.0958 -0.23664,0.1463c0.0151,0.0353 0.04027,0.0706 0.07048,0.111z" fill="#1B2437"/>
</svg>
