<svg width="24" height="24" viewBox="0 0 24 24" fill="none" xmlns="http://www.w3.org/2000/svg">
<path d="M18.7706,17.6968c0.3877,0.3884 0.7654,0.7667 1.148,1.145c0.6244,0.6205 1.2488,1.2409 1.8631,1.8714c0.2921,0.2976 0.3273,0.7061 0.1058,1.0088c-0.2317,0.3127 -0.6446,0.4136 -0.9819,0.227c-0.1007,-0.0555 -0.1863,-0.1413 -0.2669,-0.222c-6.123,-6.1285 -12.24092,-12.257 -18.35886,-18.38551c-0.37765,-0.37831 -0.40786,-0.82723 -0.0856,-1.1551c0.3273,-0.3329 0.78552,-0.30264 1.17324,0.08575c1.00707,1.00881 2.01917,2.01257 3.01616,3.02643c0.12085,0.12106 0.20645,0.14124 0.36255,0.05549c1.96378,-1.05925 4.05851,-1.50817 6.27401,-1.28623c3.3536,0.33795 6.0223,1.9016 8.0062,4.62538c0.6345,0.87262 1.1028,1.83609 1.4603,2.85499c0.1057,0.2975 0.1107,0.575 0.01,0.8776c-0.6948,2.0126 -1.858,3.7023 -3.4995,5.0592c-0.0605,0.0504 -0.1158,0.0958 -0.1763,0.1463c-0.01,0.0101 -0.0201,0.0252 -0.0503,0.0655zM17.6729,16.5619c0.0403,-0.0252 0.0755,-0.0403 0.1107,-0.0655c1.4653,-1.135 2.5328,-2.5675 3.1622,-4.3177c0.0454,-0.1261 0.0303,-0.2976 -0.0201,-0.4288c-1.7624,-4.68086 -6.7423,-7.20288 -11.55107,-5.83595c-0.57403,0.16141 -1.12288,0.40856 -1.69691,0.62041c0.05036,0.0807 0.05539,0.10593 0.07553,0.12106c0.6697,0.67086 1.33941,1.33667 2.00407,2.01257c0.10574,0.11097 0.18128,0.06557 0.28198,0.01009c0.7805,-0.45396 1.6113,-0.61033 2.5126,-0.49936c1.9638,0.24212 3.4996,2.17908 3.2931,4.14118c-0.0705,0.6557 -0.2719,1.256 -0.6092,1.7906c0.8157,0.8222 1.6163,1.6292 2.4371,2.4514zM14.1028,12.9504c0.4482,-0.8222 0.2216,-1.9672 -0.5438,-2.6733c-0.6848,-0.6356 -1.853,-0.80205 -2.5076,-0.37835c1.0171,1.01385 2.0292,2.02775 3.0514,3.05165z" fill="#1B2437"/>
<path d="M12.003,20.0271c-4.77853,-0.0403 -9.01326,-3.1121 -10.50875,-7.6568c-0.0856,-0.2623 -0.0856,-0.4994 0.00504,-0.7566c0.39275,-1.1501 0.94161,-2.21941 1.67677,-3.18786c0.21148,-0.27742 0.49849,-0.36317 0.82579,-0.28246c0.30212,0.07566 0.47836,0.29759 0.54382,0.60024c0.05035,0.24715 -0.04028,0.459 -0.18631,0.65572c-0.53878,0.72126 -0.97182,1.50816 -1.27394,2.35556c-0.05539,0.1463 -0.05539,0.3531 0,0.4994c1.44514,3.5359 4.05345,5.5888 7.82998,6.1386c0.9013,0.1311 1.8026,0.0857 2.6989,-0.0757c0.5388,-0.0958 0.9064,0.0656 1.0423,0.454c0.1662,0.4741 -0.1107,0.9483 -0.6294,1.0239c-0.6798,0.0959 -1.3545,0.1564 -2.0242,0.232z" fill="#1B2437"/>
</svg>
