<svg width="24" height="24" viewBox="0 0 24 24" fill="none" xmlns="http://www.w3.org/2000/svg">
<path d="M12,4.11133c2.0683,0 4.0293,0.71757 5.7366,2.04606c1.7073,1.31879 3.161,3.24848 4.2049,5.66301c0.078,0.1843 0.078,0.3976 0,0.5721c-2.0878,4.8291 -5.8049,7.7188 -9.9415,7.7188h-0.0098c-4.12679,0 -7.84386,-2.8897 -9.93166,-7.7188c-0.07805,-0.1745 -0.07805,-0.3878 0,-0.5721c2.0878,-4.82907 5.80487,-7.70907 9.93166,-7.70907zM12,8.23254c-2.1561,0 -3.90244,1.73576 -3.90244,3.87876c0,2.1334 1.74634,3.8691 3.90244,3.8691c2.1463,0 3.8927,-1.7357 3.8927,-3.8691c0,-2.143 -1.7464,-3.87876 -3.8927,-3.87876zM12.0012,9.68495c1.3366,0 2.4292,1.08605 2.4292,2.42425c0,1.3285 -1.0926,2.4145 -2.4292,2.4145c-1.3464,0 -2.43905,-1.086 -2.43905,-2.4145c0,-0.1649 0.01951,-0.32 0.04878,-0.4752h0.04878c1.08289,0 1.96099,-0.8533 1.99999,-1.91996c0.1073,-0.01939 0.2244,-0.02909 0.3415,-0.02909z" fill="#1B2437"/>
</svg>
