<svg width="24" height="24" viewBox="0 0 24 24" fill="none" xmlns="http://www.w3.org/2000/svg">
<path fill-rule="evenodd" clip-rule="evenodd" d="M12.0029,4.00049c4.136,0.003 7.85,2.902 9.936,7.75601c0.082,0.189 0.082,0.403 0,0.592c-2.085,4.855 -5.8,7.754 -9.936,7.757h-0.006c-4.13603,-0.003 -7.85003,-2.902 -9.93603,-7.757c-0.081,-0.189 -0.081,-0.403 0,-0.592c2.086,-4.85401 5.801,-7.75301 9.93603,-7.75601zM11.9999,5.50049c-3.43603,0.001 -6.57003,2.444 -8.43003,6.55201c1.86,4.109 4.993,6.552 8.43003,6.553c3.437,-0.001 6.57,-2.444 8.43,-6.553c-1.86,-4.10801 -4.993,-6.55101 -8.43,-6.55201zM11.9996,8.14129c2.157,0 3.912,1.755 3.912,3.91201c0,2.156 -1.755,3.91 -3.912,3.91c-2.15703,0 -3.91103,-1.754 -3.91103,-3.91c0,-2.15701 1.754,-3.91201 3.91103,-3.91201zM11.9996,9.64129c-1.33,0 -2.41103,1.08201 -2.41103,2.41201c0,1.329 1.08103,2.41 2.41103,2.41c1.33,0 2.412,-1.081 2.412,-2.41c0,-1.33 -1.082,-2.41201 -2.412,-2.41201z" fill="#1B2437"/>
</svg>
