<svg width="24" height="24" viewBox="0 0 24 24" fill="none" xmlns="http://www.w3.org/2000/svg">
<path fill-rule="evenodd" clip-rule="evenodd" d="M8.86352,18.5928l-0.01126,-0.0095c-1.95481,-1.6659 -3.66601,-3.1241 -4.86089,-4.5659c-1.3471,-1.6255 -1.99137,-3.1892 -1.99137,-4.9095c0,-1.65864 0.56898,-3.19854 1.61249,-4.33045c1.05681,-1.14623 2.50807,-1.77745 4.0823,-1.77745c1.18144,0 2.26519,0.3747 3.21501,1.10926c0.3967,0.30693 0.7613,0.66983 1.0902,1.08361c0.329,-0.41375 0.6935,-0.77666 1.0904,-1.08361c0.9498,-0.73456 2.0335,-1.10926 3.215,-1.10926c1.574,0 3.0254,0.63121 4.0823,1.77744c1.0435,1.13192 1.6123,2.67183 1.6123,4.33046c0,1.7202 -0.6441,3.284 -1.9912,4.9094c-1.1946,1.4415 -2.905,2.8992 -4.8589,4.5643l-0.0147,0.0125c-0.6717,0.5723 -1.4318,1.2201 -2.2204,1.9098c-0.2531,0.2215 -0.5782,0.3435 -0.9148,0.3435c-0.3368,0 -0.6618,-0.122 -0.915,-0.3438c-0.7869,-0.6881 -1.54565,-1.3348 -2.2162,-1.9062l-0.00185,-0.0016l-0.00158,-0.0014zM5.24691,12.9769c1.10112,1.3287 2.74445,2.7302 4.67505,4.3756l0.00253,0.0021l0.00206,0.0017c0.62755,0.5349 1.33445,1.1373 2.07215,1.7803c0.7417,-0.6442 1.4497,-1.2477 2.0788,-1.7836c1.9309,-1.6457 3.5744,-3.0472 4.6757,-4.3761c1.1314,-1.3653 1.6161,-2.5534 1.6161,-3.869c0,-1.26142 -0.4239,-2.40423 -1.1806,-3.22511c-0.7442,-0.80715 -1.7666,-1.25199 -2.8833,-1.25199c-0.8119,0 -1.556,0.25689 -2.2175,0.76841c-0.5935,0.45911 -1.0114,1.04383 -1.2587,1.45824c-0.1756,0.29411 -0.4867,0.47096 -0.8292,0.47096c-0.3425,0 -0.6536,-0.17685 -0.8292,-0.47096c-0.2471,-0.41436 -0.6651,-0.99914 -1.2587,-1.45826c-0.66152,-0.5115 -1.40561,-0.76839 -2.21731,-0.76839c-1.11692,0 -2.13915,0.44482 -2.88345,1.25199c-0.75675,0.82088 -1.18069,1.9637 -1.18069,3.22511c0,1.3156 0.48474,2.5037 1.61626,3.869z" fill="#1B2437"/>
</svg>
