<svg width="26" height="24" viewBox="0 0 26 24" fill="none" xmlns="http://www.w3.org/2000/svg">
<path d="M22.9219,11.3501c-0.7651,0.7822 -1.5643,1.5346 -2.3464,2.2997c-0.3741,0.3656 -0.7482,0.7311 -1.1265,1.0925c-0.1063,0.102 -0.136,0.2125 -0.1105,0.3613c0.272,1.5685 0.5526,3.1413 0.8034,4.7141c0.119,0.7354 -0.1488,1.356 -0.7567,1.7938c-0.6376,0.4676 -1.3305,0.5059 -2.0318,0.1403c-1.3688,-0.7141 -2.7333,-1.4325 -4.0978,-2.1551c-0.1913,-0.0978 -0.3401,-0.0936 -0.5314,0.0085c-1.3857,0.7396 -2.77148,1.4792 -4.17424,2.1891c-1.24124,0.6291 -2.72051,-0.3018 -2.72051,-1.8023c0.03825,-0.4081 0.14878,-0.9139 0.23379,-1.4198c0.19554,-1.1689 0.39958,-2.3337 0.60361,-3.5026c0.02551,-0.1446 -0.034,-0.2423 -0.13177,-0.3358c-0.90967,-0.8885 -1.82359,-1.7726 -2.73326,-2.661c-0.2338,-0.2253 -0.47609,-0.4421 -0.69713,-0.6802c-0.5101,-0.5483 -0.66313,-1.1902 -0.42933,-1.90008c0.23379,-0.70563 0.72688,-1.15622 1.47077,-1.27524c1.52604,-0.23804 3.05633,-0.45909 4.58661,-0.66738c0.2678,-0.03825 0.42083,-0.14027 0.53985,-0.38682c0.66313,-1.37726 1.33901,-2.75026 2.02761,-4.11477c0.3528,-0.69713 0.9437,-1.05845 1.7258,-1.04569c0.7609,0.01275 1.3305,0.36981 1.6791,1.06269c0.2083,0.41658 0.4166,0.82891 0.6249,1.24549c0.4888,0.99468 0.9777,1.98512 1.4623,2.97981c0.0765,0.15302 0.187,0.21679 0.3443,0.23804c1.1094,0.15728 2.2189,0.31881 3.3283,0.48034c0.4846,0.06801 0.9692,0.11902 1.4453,0.21679c0.7056,0.14453 1.186,0.58236 1.4113,1.26249c0.2253,0.68863 0.1105,1.34323 -0.3996,1.86183zM21.7784,9.99411c-0.0425,-0.14452 -0.17,-0.17853 -0.2975,-0.19553c-1.4793,-0.21679 -2.9586,-0.44634 -4.4421,-0.63762c-0.8247,-0.10627 -1.3943,-0.49735 -1.7556,-1.24549c-0.6504,-1.3475 -1.322,-2.68225 -1.9809,-4.02125c-0.068,-0.13603 -0.1275,-0.27205 -0.3145,-0.2678c-0.1785,0.00425 -0.2296,0.14028 -0.2933,0.2678c-0.6929,1.39851 -1.3773,2.79277 -2.0744,4.18703c-0.2891,0.58236 -0.7609,0.93518 -1.40702,1.03295c-1.55579,0.23379 -3.11583,0.45483 -4.67162,0.68013c-0.14028,0.02125 -0.2678,0.05101 -0.31881,0.20403c-0.05101,0.15304 0.034,0.25504 0.13602,0.35284c1.11371,1.0839 2.22742,2.1679 3.34113,3.2518c0.48034,0.4634 0.68013,1.033 0.57811,1.6919c-0.11903,0.7736 -0.2678,1.543 -0.39958,2.3166c-0.13602,0.7992 -0.27205,1.5983 -0.40807,2.3975c-0.03401,0.204 0.07651,0.3486 0.2763,0.3486c0.05526,0.0042 0.11477,-0.0341 0.17853,-0.0681c1.37726,-0.7268 2.75451,-1.4495 4.13601,-2.1721c0.5951,-0.3146 1.203,-0.3401 1.8066,-0.0255c1.39,0.7226 2.7715,1.4538 4.1573,2.1806c0.1318,0.0681 0.255,0.1318 0.3953,0.034c0.136,-0.0935 0.119,-0.2252 0.0935,-0.3613c-0.2593,-1.5218 -0.5228,-3.0478 -0.7821,-4.5696c-0.119,-0.7099 0.0765,-1.305 0.5951,-1.8066c1.1137,-1.0754 2.2189,-2.1551 3.3284,-3.2348c0.0977,-0.0978 0.1615,-0.1956 0.1232,-0.34009z" fill="#1B2437"/>
</svg>
