<svg width="26" height="24" viewBox="0 0 26 24" fill="none" xmlns="http://www.w3.org/2000/svg">
<path d="M5.83315,19.9894c0.03401,-0.4081 0.14878,-0.9097 0.23379,-1.4198c0.19554,-1.169 0.39958,-2.3337 0.60362,-3.5026c0.0255,-0.1446 -0.03826,-0.2423 -0.13178,-0.3359c-0.91392,-0.8841 -1.82784,-1.7683 -2.73751,-2.6567c-0.2338,-0.2253 -0.47609,-0.4463 -0.69713,-0.6801c-0.5101,-0.5484 -0.66313,-1.1903 -0.42933,-1.90014c0.23379,-0.70563 0.72688,-1.16047 1.47077,-1.27524c1.52604,-0.23804 3.05633,-0.45908 4.58661,-0.67162c0.2678,-0.03826 0.42083,-0.14453 0.53985,-0.38683c0.66738,-1.37725 1.34326,-2.74601 2.02766,-4.11477c0.3528,-0.69713 0.9479,-1.05845 1.7258,-1.04569c0.7609,0.01275 1.3305,0.36982 1.6748,1.0627c0.2083,0.41657 0.4208,0.8289 0.6249,1.24973c0.4888,0.99044 0.9819,1.98512 1.4623,2.97981c0.0765,0.15303 0.187,0.21679 0.3443,0.23804c1.1094,0.15728 2.2189,0.31881 3.3326,0.48034c0.4803,0.06802 0.9692,0.11902 1.4453,0.21679c0.7098,0.14453 1.1859,0.57811 1.4112,1.26249c0.2253,0.68859 0.1105,1.34329 -0.4038,1.86609c-0.7651,0.7822 -1.56,1.5345 -2.3464,2.2997c-0.3741,0.3656 -0.7482,0.7311 -1.1265,1.0924c-0.1063,0.1021 -0.136,0.2126 -0.1105,0.3614c0.272,1.5685 0.5526,3.1413 0.8034,4.7141c0.119,0.7354 -0.1488,1.356 -0.7567,1.7938c-0.6418,0.4676 -1.3305,0.5059 -2.0318,0.1403c-1.3688,-0.7141 -2.7333,-1.4325 -4.0978,-2.1551c-0.1913,-0.1021 -0.3401,-0.0936 -0.5314,0.0085c-1.3857,0.7353 -2.77573,1.475 -4.17424,2.1891c-1.23698,0.6206 -2.71201,-0.3103 -2.71201,-1.8108z" fill="#1B2437"/>
</svg>
