<svg width="24" height="24" viewBox="0 0 24 24" fill="none" xmlns="http://www.w3.org/2000/svg">
<path fill-rule="evenodd" clip-rule="evenodd" d="M8.86352,18.5928l-0.01126,-0.0095c-1.95481,-1.6659 -3.66601,-3.1241 -4.86089,-4.5659c-1.3471,-1.6255 -1.99137,-3.1892 -1.99137,-4.9095c0,-1.65865 0.56898,-3.19854 1.61249,-4.33045c1.05681,-1.14623 2.50807,-1.77745 4.0823,-1.77745c1.18144,0 2.26519,0.3747 3.21501,1.10926c0.3967,0.30693 0.7613,0.66983 1.0902,1.08361c0.329,-0.41375 0.6935,-0.77666 1.0904,-1.08361c0.9498,-0.73456 2.0335,-1.10926 3.215,-1.10926c1.574,0 3.0254,0.63121 4.0823,1.77744c1.0435,1.13192 1.6123,2.67183 1.6123,4.33046c0,1.7202 -0.6441,3.284 -1.9912,4.9094c-1.1946,1.4415 -2.905,2.8992 -4.8589,4.5643l-0.0147,0.0125c-0.6717,0.5723 -1.4318,1.2201 -2.2204,1.9098c-0.2531,0.2215 -0.5782,0.3435 -0.9148,0.3435c-0.3368,0 -0.6618,-0.122 -0.915,-0.3438c-0.7869,-0.6881 -1.54565,-1.3348 -2.2162,-1.9062l-0.00185,-0.0016l-0.00158,-0.0014z" fill="#1B2437"/>
</svg>
