<svg width="24" height="24" viewBox="0 0 24 24" fill="none" xmlns="http://www.w3.org/2000/svg">
<path d="M11.9996,6.57766c-2.47233,0 -4.93965,0 -7.41201,0c-0.5841,0 -0.94663,-0.48423 -0.77039,-1.01385c0.0856,-0.25725 0.26686,-0.42875 0.53374,-0.48423c0.13091,-0.03026 0.26688,-0.03026 0.39779,-0.03026c4.82386,0 9.64767,0 14.47157,0c0.1158,0 0.2367,-0.00001 0.3525,0.01512c0.3877,0.05549 0.6646,0.38336 0.6546,0.7667c-0.0101,0.39344 -0.3173,0.71626 -0.715,0.74148c-0.1561,0.01008 -0.3173,0.00504 -0.4784,0.00504c-2.3414,0 -4.6879,0 -7.0344,0z" fill="#1B2437"/>
<path d="M11.9745,12.7667c-1.7724,0 -3.54993,0 -5.32237,0c-0.5841,0 -0.95671,-0.4893 -0.77544,-1.0088c0.0856,-0.2572 0.26687,-0.4237 0.52871,-0.4893c0.11078,-0.0302 0.23162,-0.0353 0.34743,-0.0353c3.49957,0 6.99407,-0.005 10.49367,0.0051c0.2215,0 0.4683,0.0756 0.6495,0.1967c0.2669,0.1715 0.3324,0.5397 0.2216,0.8373c-0.1158,0.3077 -0.3978,0.4943 -0.7704,0.4994c-1.425,0 -2.845,0 -4.27,0c-0.3676,-0.0051 -0.7351,-0.0051 -1.1027,-0.0051z" fill="#1B2437"/>
<path d="M11.9946,17.4124c1.0977,0 2.1903,0 3.288,0c0.3173,0 0.569,0.1261 0.7302,0.4085c0.146,0.2573 0.1309,0.5145 -0.0202,0.7617c-0.1712,0.2774 -0.433,0.3732 -0.7452,0.3682c-1.6466,-0.0051 -3.2982,0 -4.9447,0c-0.51865,0 -1.03729,0 -1.55593,0c-0.4985,0 -0.84593,-0.3127 -0.85096,-0.7667c-0.00504,-0.4489 0.3424,-0.7717 0.8409,-0.7717c1.08259,0 2.17019,0 3.25789,0z" fill="#1B2437"/>
</svg>
