<svg width="24" height="24" viewBox="0 0 24 24" fill="none" xmlns="http://www.w3.org/2000/svg">
<path fill-rule="evenodd" clip-rule="evenodd" d="M17.3879,14.0342c1.716,0 3.112,1.389 3.112,3.096c0,1.707 -1.396,3.096 -3.112,3.096c-1.717,0 -3.114,-1.389 -3.114,-3.096c0,-1.707 1.397,-3.096 3.114,-3.096zM17.3879,15.5342c-0.89,0 -1.614,0.716 -1.614,1.596c0,0.881 0.724,1.596 1.614,1.596c0.889,0 1.612,-0.715 1.612,-1.596c0,-0.88 -0.723,-1.596 -1.612,-1.596zM10.0803,16.419c0.414,0 0.75,0.336 0.75,0.75c0,0.414 -0.336,0.75 -0.75,0.75h-6.301c-0.414,0 -0.75,-0.336 -0.75,-0.75c0,-0.414 0.336,-0.75 0.75,-0.75zM6.113,4.32617c1.717,0 3.113,1.39 3.113,3.097c0,1.707 -1.396,3.09503 -3.113,3.09503c-1.716,0 -3.113,-1.38803 -3.113,-3.09503c0,-1.707 1.397,-3.097 3.113,-3.097zM6.113,5.82617c-0.889,0 -1.613,0.716 -1.613,1.597c0,0.88 0.724,1.595 1.613,1.595c0.89,0 1.613,-0.715 1.613,-1.595c0,-0.881 -0.723,-1.597 -1.613,-1.597zM19.1911,6.72657c0.414,0 0.75,0.336 0.75,0.75c0,0.414 -0.336,0.75 -0.75,0.75h-6.3c-0.414,0 -0.75,-0.336 -0.75,-0.75c0,-0.414 0.336,-0.75 0.75,-0.75z" fill="#1B2437"/>
</svg>
