<svg width="24" height="24" viewBox="0 0 24 24" fill="none" xmlns="http://www.w3.org/2000/svg">
<path d="M18.5611,14.1309c1.9,0 3.4389,1.513 3.4389,3.3796c0,1.8656 -1.5389,3.3786 -3.4389,3.3786c-1.8988,0 -3.4388,-1.513 -3.4388,-3.3786c0,-1.8666 1.54,-3.3796 3.4388,-3.3796zM10.0833,16.0693c0.8322,0 1.5078,0.6637 1.5078,1.4813c0,0.8165 -0.6756,1.4813 -1.5078,1.4813h-6.57553c-0.83222,0 -1.50777,-0.6648 -1.50777,-1.4813c0,-0.8176 0.67555,-1.4813 1.50777,-1.4813zM5.43887,3.11133c1.89999,0 3.43887,1.51298 3.43887,3.37856c0,1.86667 -1.53888,3.37965 -3.43887,3.37965c-1.89888,0 -3.43887,-1.51298 -3.43887,-3.37965c0,-1.86558 1.53999,-3.37856 3.43887,-3.37856zM20.4933,5.00965c0.8311,0 1.5067,0.66371 1.5067,1.48024c0,0.81762 -0.6756,1.48133 -1.5067,1.48133h-6.5755c-0.8322,0 -1.5077,-0.66371 -1.5077,-1.48133c0,-0.81653 0.6755,-1.48024 1.5077,-1.48024z" fill="#1B2437"/>
</svg>
