<svg width="24" height="24" viewBox="0 0 24 24" fill="none" xmlns="http://www.w3.org/2000/svg">
<path fill-rule="evenodd" clip-rule="evenodd" d="M6.30676,4.43332c-0.09705,0.04856 -0.17869,0.12316 -0.23579,0.21546c-0.05709,0.09229 -0.08739,0.19865 -0.08751,0.30718v8.33844c0.98604,-0.4371 2.06278,-0.6306 3.13932,-0.5642c1.07652,0.0665 2.12132,0.391 3.04612,0.946c0.5862,0.3518 1.2416,0.5725 1.9212,0.6471c0.6796,0.0747 1.3673,0.0014 2.0159,-0.2147l2.4516,-0.8172l-1.5263,-3.81414c-0.1304,-0.3266 -0.141,-0.68885 -0.0297,-1.02248l1.2972,-3.8965l-1.567,0.52264c-0.9201,0.30672 -1.8957,0.41075 -2.8598,0.30496c-0.9641,-0.10579 -1.8939,-0.4189 -2.7256,-0.91785c-1.5342,-0.92033 -3.28559,-0.81124 -4.83964,-0.03471zM4,6.95727v-2.00131c0,-0.9719 0.54942,-1.86148 1.41917,-2.29685c2.158,-1.079 4.63533,-1.15933 6.74773,0.1081c0.5863,0.35172 1.2417,0.57247 1.9213,0.64711c0.6795,0.07463 1.3672,0.00139 2.0159,-0.21471l3.2618,-1.08694c0.192,-0.06381 0.398,-0.07295 0.5949,-0.0264c0.1969,0.04654 0.377,0.14695 0.5202,0.28998c0.1431,0.14304 0.2436,0.32306 0.2903,0.51996c0.0467,0.19689 0.0377,0.40289 -0.0259,0.59496l-1.805,5.41882l1.8089,4.52331c0.0552,0.138 0.0817,0.2858 0.0777,0.4343c-0.004,0.1486 -0.0383,0.2948 -0.1008,0.4296c-0.0625,0.1349 -0.1519,0.2555 -0.2627,0.3546c-0.1108,0.099 -0.2406,0.1744 -0.3816,0.2215l-3.3501,1.1166c-0.9201,0.3068 -1.8957,0.4108 -2.8598,0.305c-0.9641,-0.1058 -1.8939,-0.4189 -2.7256,-0.9178c-0.6838,-0.4104 -1.46008,-0.6417 -2.25698,-0.6723c-0.7969,-0.0307 -1.58866,0.1401 -2.302,0.4967l-0.60396,0.3025v5.3375c0,0.263 -0.10449,0.5153 -0.29047,0.7012c-0.18599,0.186 -0.43824,0.2905 -0.70126,0.2905c-0.26302,0 -0.51527,-0.1045 -0.70126,-0.2905c-0.18598,-0.1859 -0.29047,-0.4382 -0.29047,-0.7012z" fill="#1B2437"/>
</svg>
