<svg width="24" height="24" viewBox="0 0 24 24" fill="none" xmlns="http://www.w3.org/2000/svg">
<path fill-rule="evenodd" clip-rule="evenodd" d="M4,7.14253v-1.99882c0,-0.97069 0.54874,-1.85917 1.4174,-2.294l0.2813,-0.14065c1.0104,-0.50523 2.13193,-0.74741 3.26077,-0.70413c1.12883,0.04329 2.22853,0.37064 3.19723,0.95176c0.5855,0.35145 1.2401,0.5721 1.9188,0.64681c0.6788,0.07471 1.3656,0.00172 2.0135,-0.21396l3.2578,-1.08559c0.1919,-0.06384 0.3977,-0.07301 0.5946,-0.02649c0.1968,0.04652 0.3767,0.1469 0.5197,0.2899c0.143,0.143 0.2434,0.32298 0.29,0.51979c0.0465,0.19681 0.0373,0.40269 -0.0265,0.59458l-1.8027,5.41109l1.8066,4.51768c0.0552,0.1378 0.0816,0.2854 0.0776,0.4338c-0.004,0.1484 -0.0382,0.2944 -0.1006,0.4291c-0.0625,0.1347 -0.1518,0.2552 -0.2624,0.3541c-0.1107,0.0989 -0.2404,0.1742 -0.3812,0.2212l-3.3459,1.1153c-0.919,0.3063 -1.8933,0.4102 -2.8562,0.3046c-0.9629,-0.1057 -1.8916,-0.4184 -2.7223,-0.9167c-0.6829,-0.4099 -1.45824,-0.6409 -2.25415,-0.6715c-0.79592,-0.0306 -1.5867,0.14 -2.29914,0.4961l-0.60321,0.3021v5.3309c0,0.2627 -0.10436,0.5146 -0.29011,0.7004c-0.18576,0.1857 -0.4377,0.2901 -0.70039,0.2901c-0.2627,0 -0.51464,-0.1044 -0.70039,-0.2901c-0.18575,-0.1858 -0.29011,-0.4377 -0.29011,-0.7004z" fill="#1B2437"/>
</svg>
