<svg width="24" height="24" viewBox="0 0 24 24" fill="none" xmlns="http://www.w3.org/2000/svg">
<path d="M16.905,7.74667c0,1.89378 -0.9302,3.57423 -2.3527,4.62053c0.5762,0.2151 1.1352,0.464 1.651,0.7831l0.0319,0.0337c-0.6839,0.2286 -1.3071,0.5896 -1.8394,1.0525c-1.1445,0.9956 -1.868,2.4627 -1.868,4.0987c0,1.3908 0.5228,2.6594 1.3827,3.6201h-10.7074h-0.59554c-0.34061,-0.1057 -0.61795,-0.3993 -0.60726,-0.8807c0,-3.9136 2.43304,-7.2686 5.86326,-8.6437c-1.47359,-1.041 -2.44288,-2.75204 -2.44288,-4.68423c0,-3.15997 2.58485,-5.74667 5.74482,-5.74667c3.16,0 5.7395,2.5867 5.7395,5.74667z" fill="#1B2437"/>
<path d="M21.1382,14.8341c0.1452,0.0829 0.2646,0.2044 0.345,0.3511c0.0804,0.1467 0.1186,0.3127 0.1103,0.4798c-0.0083,0.167 -0.0626,0.3285 -0.1571,0.4665l-3.6219,5.4319c-0.0657,0.0992 -0.1502,0.1844 -0.2488,0.2509c-0.0987,0.0664 -0.2094,0.1128 -0.326,0.1364c-0.1165,0.0236 -0.2366,0.0241 -0.3533,0.0014c-0.1167,-0.0228 -0.2278,-0.0684 -0.3269,-0.1342l-2.7204,-1.8101c-0.0996,-0.0661 -0.1853,-0.1512 -0.2519,-0.2504c-0.0667,-0.0992 -0.1132,-0.2107 -0.1367,-0.3279c-0.0235,-0.1172 -0.0237,-0.238 -0.0005,-0.3553c0.0232,-0.1173 0.0694,-0.2288 0.1358,-0.3282c0.0664,-0.0994 0.1517,-0.1848 0.2512,-0.2512c0.0994,-0.0663 0.211,-0.1125 0.3283,-0.1357c0.1173,-0.0232 0.238,-0.0229 0.3553,0.0006c0.1172,0.0236 0.2286,0.0701 0.3278,0.1368l1.9568,1.3099l3.1199,-4.6755c0.0795,-0.1238 0.1881,-0.2264 0.3162,-0.2987c0.1282,-0.0724 0.272,-0.1124 0.4191,-0.1166c0.1672,-0.0054 0.3325,0.0356 0.4778,0.1185z" fill="#1B2437"/>
</svg>
