<svg width="24" height="24" viewBox="0 0 24 24" fill="none" xmlns="http://www.w3.org/2000/svg">
<path d="M16.9419,7.75816c0,1.89694 -0.9346,3.57964 -2.361,4.62814c0.579,0.2157 1.1405,0.4663 1.6578,0.7864c0.102,0.0627 0.1905,0.1448 0.2607,0.2417c0.0701,0.097 0.1205,0.2068 0.1481,0.3232c0.0276,0.1165 0.0321,0.2372 0.013,0.3554c-0.0191,0.1181 -0.0613,0.2313 -0.1242,0.3331c-0.0629,0.1018 -0.1453,0.1901 -0.2424,0.26c-0.0971,0.07 -0.207,0.1201 -0.3235,0.1474c-0.1165,0.0274 -0.2372,0.0315 -0.3553,0.0122c-0.1181,-0.0194 -0.2312,-0.0618 -0.3328,-0.1249c-1.148,-0.7105 -2.4968,-1.1248 -3.9498,-1.1248c-4.16256,0 -7.51879,3.3545 -7.51879,7.517c-0.00526,0.237 -0.10311,0.4626 -0.27261,0.6283c-0.16949,0.1658 -0.39716,0.2587 -0.63424,0.2587c-0.23709,0 -0.46475,-0.0929 -0.63425,-0.2587c-0.1695,-0.1657 -0.26735,-0.3913 -0.27261,-0.6283c0,-3.9222 2.43891,-7.2836 5.87686,-8.6612c-1.47397,-1.0431 -2.44249,-2.75807 -2.44249,-4.69364c0,-3.16635 2.58296,-5.75816 5.74933,-5.75816c3.1664,0 5.7582,2.59181 5.7582,5.75816zM7.24808,7.75816c0,2.18615 1.74946,3.93564 3.93562,3.93564c2.1862,0 3.9445,-1.74949 3.9445,-3.93564c0,-2.18616 -1.7583,-3.94275 -3.9445,-3.94275c-2.18616,0 -3.93562,1.75659 -3.93562,3.94275zM20.8408,14.8184c0.1455,0.083 0.2652,0.2048 0.3457,0.3517c0.0806,0.147 0.1188,0.3134 0.1105,0.4808c-0.0082,0.1673 -0.0627,0.3291 -0.1574,0.4674l-3.6292,5.4429c-0.0658,0.0994 -0.1505,0.1848 -0.2493,0.2514c-0.0988,0.0666 -0.2098,0.113 -0.3266,0.1367c-0.1168,0.0237 -0.2371,0.0242 -0.3541,0.0013c-0.1169,-0.0228 -0.2282,-0.0685 -0.3275,-0.1344l-2.7259,-1.8137c-0.0998,-0.0663 -0.1856,-0.1515 -0.2524,-0.251c-0.0668,-0.0994 -0.1134,-0.211 -0.137,-0.3285c-0.0235,-0.1175 -0.0237,-0.2385 -0.0005,-0.3561c0.0233,-0.1175 0.0695,-0.2292 0.1361,-0.3288c0.0665,-0.0996 0.152,-0.1852 0.2517,-0.2517c0.0996,-0.0665 0.2114,-0.1127 0.329,-0.136c0.1175,-0.0232 0.2385,-0.0229 0.3559,0.0007c0.1175,0.0236 0.2291,0.0702 0.3286,0.137l1.9607,1.3125l3.1262,-4.6849c0.0797,-0.124 0.1885,-0.2268 0.3168,-0.2993c0.1284,-0.0726 0.2726,-0.1126 0.42,-0.1169c0.1675,-0.0053 0.3332,0.0358 0.4787,0.1189z" fill="#1B2437"/>
</svg>
