<svg width="24" height="24" viewBox="0 0 24 24" fill="none" xmlns="http://www.w3.org/2000/svg">
<path d="M14.9076,19.2115c-1.2079,0.0578 -1.2945,-1.7539 -0.0433,-1.8117h1.8534v-1.8101c-0.0052,-0.4422 0.3075,-0.815 0.7256,-0.8984c0.0552,-0.011 0.1122,-0.0169 0.1706,-0.0173c0.5074,-0.005 0.9197,0.4083 0.9138,0.9157v1.0349v0.7752h0.3263h1.4856c1.2078,0 1.2078,1.8117 0,1.8117h-0.9198h-0.8921v1.8101c-0.0262,1.1802 -1.7838,1.1802 -1.81,0v-1.8101z" fill="#1B2437"/>
<path d="M16.905,7.74667c0,1.89378 -0.9302,3.57423 -2.3527,4.62053c0.5762,0.2151 1.1352,0.464 1.651,0.7831l0.0319,0.0337c-0.6839,0.2286 -1.3071,0.5896 -1.8394,1.0525c-1.1445,0.9956 -1.868,2.4627 -1.868,4.0987c0,1.3908 0.5228,2.6594 1.3827,3.6201h-10.7074h-0.59554c-0.34061,-0.1057 -0.61795,-0.3993 -0.60726,-0.8807c0,-3.9136 2.43304,-7.2686 5.86326,-8.6437c-1.47359,-1.041 -2.44288,-2.75204 -2.44288,-4.68423c0,-3.15997 2.58485,-5.74667 5.74482,-5.74667c3.16,0 5.7395,2.5867 5.7395,5.74667z" fill="#1B2437"/>
</svg>
