<svg width="24" height="24" viewBox="0 0 24 24" fill="none" xmlns="http://www.w3.org/2000/svg">
<path d="M16.2725,6.69736c0,1.89377 -0.9302,3.57424 -2.3527,4.62054c0.5762,0.2151 1.1351,0.464 1.651,0.7831c1.0299,0.6317 0.0825,2.1765 -0.9475,1.5449c-1.1457,-0.7091 -2.4917,-1.1224 -3.9418,-1.1224c-4.15417,0 -7.50365,3.3477 -7.50365,7.5018c0.02739,1.2338 -1.83744,1.2338 -1.81006,0c0,-3.9136 2.43304,-7.2686 5.86326,-8.6437c-1.47358,-1.041 -2.44288,-2.75205 -2.44288,-4.68424c0,-3.15998 2.58485,-5.74668 5.74483,-5.74668c3.16,0 5.7395,2.5867 5.7395,5.74668zM6.59824,6.69736c0,2.18175 1.75301,3.92764 3.93476,3.92764c2.1818,0 3.9295,-1.74589 3.9295,-3.92764c0,-2.18176 -1.7477,-3.93481 -3.9295,-3.93481c-2.18175,0 -3.93476,1.75305 -3.93476,3.93481zM14.2751,18.1622c-1.2079,0.0577 -1.2945,-1.7539 -0.0433,-1.8118h1.8534v-1.81c-0.0059,-0.5005 0.3956,-0.9123 0.8962,-0.9157c0.5074,-0.005 0.9197,0.4082 0.9138,0.9157v1.81h1.8119c1.2078,0 1.2078,1.8118 0,1.8118h-1.8119v1.8101c-0.0262,1.1802 -1.7838,1.1802 -1.81,0v-1.8101z" fill="#1B2437"/>
</svg>
