<svg width="24" height="24" viewBox="0 0 24 24" fill="none" xmlns="http://www.w3.org/2000/svg">
<path fill-rule="evenodd" clip-rule="evenodd" d="M12.833,4.54992c3.475,0.38333 6.2333,3.14166 6.6167,6.61668h1.7166v1.6667h-1.7166c-0.3834,3.475 -3.1417,6.2333 -6.6167,6.6166v1.7167h-1.6667v-1.7167c-3.47496,-0.3833 -6.23329,-3.1416 -6.61663,-6.6166h-1.71666v-1.6667h1.71666c0.38334,-3.47502 3.14167,-6.23335 6.61663,-6.61668v-1.71667h1.6667zM6.16634,11.9999c0,3.225 2.60833,5.8334 5.83336,5.8334c3.225,0 5.8333,-2.6084 5.8333,-5.8334c0,-3.22498 -2.6083,-5.83331 -5.8333,-5.83331c-3.22503,0 -5.83336,2.60833 -5.83336,5.83331z" fill="#1B2437"/>
</svg>
