<svg width="24" height="24" viewBox="0 0 24 24" fill="none" xmlns="http://www.w3.org/2000/svg">
<path d="M6.7594,9.36928c0,-0.16425 0,-0.29565 0,-0.42705c0,-1.11689 0,-2.23379 0,-3.34599c0,-1.70819 1.53925,-2.75938 3.1395,-2.14462c0.02816,0.00938 0.05632,0.01877 0.08448,0.02346c0.89162,-1.59556 3.10192,-1.62841 4.03112,0.0047c0.4036,-0.16895 0.826,-0.24872 1.2718,-0.1971c1.0418,0.12201 1.9006,1.02773 1.9428,2.07892c0.0141,0.33319 0,0.66638 0,1.02304c0.4599,-0.12671 0.8776,-0.15956 1.3046,-0.05632c0.948,0.22995 1.6801,1.07936 1.6847,2.05546c0.0141,1.91002 0.0751,3.82932 -0.0234,5.73462c-0.1877,3.5197 -2.8016,6.5512 -6.2368,7.3819c-3.7636,0.9057 -7.62116,-0.887 -9.34343,-4.3503c-0.56783,-1.1404 -0.8494,-2.3558 -0.85409,-3.6323c0,-0.7555 -0.03754,-1.5157 0.02816,-2.2713c0.11262,-1.33275 1.40315,-2.23377 2.70307,-1.93813c0.07508,0.02347 0.15486,0.03755 0.26749,0.06101zM8.24233,9.76817c0,1.37503 0.0047,2.74533 -0.00469,4.12033c0,0.1642 -0.03285,0.3472 -0.10793,0.4927c-0.15956,0.3004 -0.49744,0.4177 -0.82594,0.3285c-0.32381,-0.0844 -0.53968,-0.3613 -0.53968,-0.7321c-0.00469,-0.7743 0,-1.5439 -0.00469,-2.3182c0,-0.1408 -0.00469,-0.2863 -0.04693,-0.413c-0.10793,-0.3379 -0.47398,-0.549 -0.81186,-0.4927c-0.3895,0.0657 -0.64761,0.3566 -0.6523,0.7649c-0.0047,0.6805 -0.00939,1.3562 0,2.0367c0.00938,1.0559 0.24872,2.0554 0.73208,2.994c1.75981,3.4305 5.93641,4.7257 9.30121,2.8345c2.1493,-1.2108 3.3319,-3.102 3.4398,-5.5704c0.0798,-1.7504 0.0235,-3.5102 0.0235,-5.27006c0,-0.04693 -0.0047,-0.09386 -0.0094,-0.14078c-0.0281,-0.25342 -0.1595,-0.43644 -0.3754,-0.55845c-0.5209,-0.29565 -1.1216,0.07039 -1.1263,0.69454c-0.0094,0.81186 0,1.62375 -0.0047,2.43555c-0.0047,0.4318 -0.2956,0.7415 -0.6945,0.765c-0.4552,0.0281 -0.7837,-0.3145 -0.7837,-0.8213c0,-1.73164 0,-3.46799 0,-5.19964c0,-0.10325 0,-0.2018 -0.0094,-0.30504c-0.0235,-0.2628 -0.1643,-0.4552 -0.3895,-0.57722c-0.5209,-0.28626 -1.1122,0.08917 -1.1169,0.71331c-0.0047,1.14506 0,2.2948 0,3.44454c0,0.67108 0.0094,1.34215 -0.0047,2.01325c-0.0094,0.5115 -0.4787,0.84 -0.962,0.6945c-0.3285,-0.0985 -0.5163,-0.3848 -0.5163,-0.8025c0,-2.0695 0,-4.13903 0,-6.20388c0,-0.10794 0,-0.22056 -0.014,-0.3285c-0.047,-0.28626 -0.2159,-0.47867 -0.4881,-0.57722c-0.5256,-0.18771 -1.0089,0.19241 -1.0136,0.78371c0,1.94283 0,3.88566 0,5.82849c0,0.2206 0.0093,0.4364 -0.0047,0.657c-0.0235,0.413 -0.3942,0.7133 -0.8025,0.6711c-0.4224,-0.0423 -0.67108,-0.352 -0.67108,-0.8353c0,-1.75048 0.00469,-3.49621 -0.00939,-5.24664c0,-0.20648 -0.061,-0.43643 -0.16424,-0.61476c-0.16895,-0.27687 -0.5303,-0.35665 -0.83064,-0.25341c-0.31911,0.11263 -0.50682,0.38951 -0.50682,0.76493c-0.00939,1.41254 -0.0047,2.8157 -0.0047,4.22355z" fill="#1B2437"/>
</svg>
