<svg width="24" height="24" viewBox="0 0 24 24" fill="none" xmlns="http://www.w3.org/2000/svg">
<path d="M6.7594,5.59624c0,-1.70819 1.53925,-2.75938 3.1395,-2.14462h0.00001c0.02816,0.00939 0.05631,0.01877 0.08447,0.02346c0.89162,-1.59556 3.10192,-1.62841 4.03112,0.0047c0.4036,-0.16895 0.826,-0.24872 1.2718,-0.1971c1.0418,0.12201 1.9006,1.02773 1.9428,2.07892c0.0141,0.33319 0,0.66638 0,1.02304c0.4599,-0.12671 0.8776,-0.15956 1.3046,-0.05632c0.948,0.22995 1.6801,1.07936 1.6847,2.05546c0.0141,1.91002 0.0751,3.82932 -0.0234,5.73462c-0.1877,3.5197 -2.8016,6.5512 -6.2368,7.3819c-3.7636,0.9057 -7.62116,-0.887 -9.34343,-4.3503c-0.56783,-1.1404 -0.8494,-2.3558 -0.85409,-3.6323c0,-0.7555 -0.03754,-1.5157 0.02816,-2.2713c0.11262,-1.33275 1.40315,-2.23377 2.70307,-1.93813c0.07508,0.02347 0.15486,0.03755 0.26749,0.06101v-0.42705z" fill="#1B2437"/>
</svg>
