<svg width="24" height="24" viewBox="0 0 24 24" fill="none" xmlns="http://www.w3.org/2000/svg">
<path fill-rule="evenodd" clip-rule="evenodd" d="M12.0152,2c5.5679,0 10.0159,4.47782 9.9886,10.1024c-0.0228,5.4926 -4.5618,9.9295 -10.0842,9.8976c-5.48139,-0.0319 -9.92024,-4.5142 -9.91569,-10.0751c0.00455,-5.46984 4.49804,-9.9249 10.01129,-9.9249zM15.4084,9.90776c-0.0079,-0.08996 -0.0176,-0.20093 -0.0292,-0.30821c-0.2321,-1.59272 -1.5336,-2.79409 -3.1946,-2.94881c-1.5108,-0.14107 -3.04434,0.85552 -3.53125,2.31172c-0.05461,0.16382 -0.03186,0.38225 0.0273,0.54607c0.09556,0.27304 0.33675,0.40501 0.62799,0.39591c0.31854,-0.00455 0.53242,-0.17748 0.65529,-0.47327c0.38677,-0.93288 1.13767,-1.42434 2.09787,-1.38339c0.8418,0.03641 1.6018,0.62799 1.8657,1.4562c0.2458,0.78722 0.0455,1.40162 -0.7417,1.95682c-0.3954,0.2795 -0.8399,0.496 -1.2811,0.7109c-0.0615,0.03 -0.123,0.0599 -0.1842,0.09c-0.3914,0.1911 -0.5825,0.5415 -0.4414,0.9146c0.141,0.3777 0.5278,0.5461 0.9328,0.3959c0.7327,-0.2775 1.4244,-0.637 2.0205,-1.1513c0.7008,-0.6098 1.1786,-1.3333 1.1877,-2.3845c-0.0033,-0.033 -0.0072,-0.07742 -0.0117,-0.12864zM12.0163,17.3493c0.3822,-0.0046 0.6917,-0.3231 0.6917,-0.7008c0,-0.3914 -0.3186,-0.7054 -0.719,-0.7008c-0.3823,0.0045 -0.6826,0.314 -0.6872,0.7008c0,0.3868 0.3277,0.7099 0.7145,0.7008z" fill="#1B2437"/>
</svg>
