<svg width="24" height="24" viewBox="0 0 24 24" fill="none" xmlns="http://www.w3.org/2000/svg">
<path d="M12.0152,2c5.5679,0 10.0159,4.47782 9.9886,10.1024c-0.0228,5.4926 -4.5618,9.9295 -10.0842,9.8976c-5.48139,-0.0319 -9.92024,-4.5142 -9.91569,-10.0751c0.00455,-5.46984 4.49804,-9.9249 10.01129,-9.9249zM3.39703,11.9932c0,4.7326 3.83334,8.6007 8.53627,8.6052c4.8349,0.0046 8.691,-3.8225 8.6819,-8.6189c-0.0091,-4.74628 -3.8606,-8.58701 -8.6045,-8.59156c-4.75756,0 -8.61367,3.84983 -8.61367,8.60526z" fill="#1B2437"/>
<path d="M15.4201,10.0364c-0.0091,1.0512 -0.4869,1.7747 -1.1877,2.3845c-0.5961,0.5143 -1.2878,0.8738 -2.0205,1.1513c-0.405,0.1502 -0.7918,-0.0182 -0.9328,-0.3959c-0.1411,-0.3731 0.05,-0.7235 0.4414,-0.9146c0.5005,-0.2458 1.0148,-0.4824 1.4653,-0.8009c0.7872,-0.5552 0.9875,-1.1696 0.7417,-1.95682c-0.2639,-0.82821 -1.0239,-1.41979 -1.8657,-1.4562c-0.9602,-0.04095 -1.7111,0.45051 -2.09787,1.38339c-0.12287,0.29579 -0.33675,0.46872 -0.65529,0.47327c-0.29124,0.0091 -0.53243,-0.12287 -0.62799,-0.39591c-0.05916,-0.16382 -0.08191,-0.38225 -0.0273,-0.54607c0.48691,-1.4562 2.02045,-2.45279 3.53125,-2.31172c1.661,0.15472 2.9625,1.35609 3.1946,2.94881c0.0182,0.16837 0.0318,0.34584 0.0409,0.43685z" fill="#1B2437"/>
<path d="M12.708,16.6485c0,0.3777 -0.3095,0.6962 -0.6917,0.7008c-0.3868,0.0091 -0.7145,-0.314 -0.7145,-0.7008c0.0046,-0.3868 0.3049,-0.6963 0.6872,-0.7008c0.4004,-0.0046 0.719,0.3094 0.719,0.7008z" fill="#1B2437"/>
</svg>
