<svg width="24" height="24" viewBox="0 0 24 24" fill="none" xmlns="http://www.w3.org/2000/svg">
<path fill-rule="evenodd" clip-rule="evenodd" d="M7.48218,11.5155l0.2336,-0.0936l-0.20542,-0.1454c-1.45002,-1.0262 -2.40182,-2.7125 -2.40182,-4.61486c0,-3.10524 2.52705,-5.64857 5.62876,-5.66162c3.1018,0.01305 5.6289,2.55638 5.6289,5.66162c0,1.40569 -0.5197,2.6934 -1.3761,3.68396c-0.3026,0.35 -0.6472,0.663 -1.0258,0.9309l-0.2054,0.1454l0.2336,0.0936c0.7336,0.2939 1.4214,0.6789 2.0491,1.1408l0.0433,0.0321l-0.0264,0.0051c-2.3051,0.4557 -4.0433,2.4885 -4.0433,4.9274c0,1.2374 0.4475,2.3703 1.1895,3.2458h-10.77843c-0.20292,0 -0.39781,-0.0795 -0.54292,-0.2215c-0.14404,-0.1409 -0.22764,-0.3321 -0.23325,-0.5334c0.00705,-1.4653 0.50406,-3.8302 2.30161,-6.0971c0.95653,-1.0883 2.16392,-1.9517 3.53047,-2.4992z" fill="#1B2437"/>
<path fill-rule="evenodd" clip-rule="evenodd" d="M20.5444,17.5069c0,1.929 -1.5641,3.4931 -3.4932,3.4931c-1.929,0 -3.4931,-1.5641 -3.4931,-3.4931c0,-1.9291 1.5641,-3.4932 3.4931,-3.4932c1.9291,0 3.4932,1.5641 3.4932,3.4932zM14.9029,17.5069c0,1.1861 0.9622,2.1483 2.1483,2.1483c0.3483,0 0.6771,-0.0828 0.9679,-0.2299l-2.8863,-2.8863c-0.1471,0.2908 -0.2299,0.6195 -0.2299,0.9679zM18.9697,18.4747c0.1471,-0.2907 0.2299,-0.6195 0.2299,-0.9678c0,-1.1862 -0.9622,-2.1484 -2.1484,-2.1484c-0.3483,0 -0.6771,0.0828 -0.9678,0.2299z" fill="#1B2437"/>
</svg>
