<svg width="24" height="24" viewBox="0 0 24 24" fill="none" xmlns="http://www.w3.org/2000/svg">
<path fill-rule="evenodd" clip-rule="evenodd" d="M5.73253,7.66168c0,-3.11324 2.54008,-5.66168 5.65277,-5.66168c3.113,0 5.6617,2.54871 5.6617,5.66168c0,1.86412 -0.9183,3.51872 -2.3217,4.55032l-0.2044,0.1503l0.2377,0.0885c0.578,0.2152 1.1349,0.4642 1.6456,0.7802c0.0873,0.0537 0.1631,0.124 0.2232,0.207c0.0601,0.0831 0.1032,0.1772 0.1269,0.2769c0.0237,0.0997 0.0274,0.2031 0.0111,0.3043c-0.0164,0.1012 -0.0525,0.1982 -0.1064,0.2853c-0.0538,0.0872 -0.1243,0.1628 -0.2075,0.2227c-0.0832,0.0599 -0.1774,0.1028 -0.2771,0.1263c-0.0998,0.0234 -0.2032,0.0269 -0.3043,0.0104c-0.1012,-0.0166 -0.1983,-0.0531 -0.2853,-0.1071c-1.1768,-0.7284 -2.5599,-1.1532 -4.0497,-1.1532c-4.26686,0 -7.70774,3.4385 -7.70859,7.7053c-0.00487,0.2023 -0.08858,0.3948 -0.23333,0.5364c-0.14511,0.1419 -0.34,0.2214 -0.54293,0.2214c-0.20292,0 -0.39781,-0.0795 -0.54292,-0.2214c-0.14475,-0.1416 -0.22845,-0.334 -0.23333,-0.5364c0.00066,-3.8909 2.42034,-7.2263 5.83217,-8.5934l0.23359,-0.0936l-0.20541,-0.1454c-1.45003,-1.0262 -2.40182,-2.71246 -2.40182,-4.61482zM11.3853,3.55421c-2.2775,0 -4.10027,1.8306 -4.10027,4.10747c0,2.27719 1.8231,4.10032 4.10027,4.10032c2.2768,0 4.1092,-1.82273 4.1092,-4.10032c0,-2.27727 -1.8321,-4.10747 -4.1092,-4.10747z" fill="#1B2437"/>
<path fill-rule="evenodd" clip-rule="evenodd" d="M21.1684,18.5069c0,1.929 -1.5641,3.4931 -3.4932,3.4931c-1.929,0 -3.4931,-1.5641 -3.4931,-3.4931c0,-1.929 1.5641,-3.4931 3.4931,-3.4931c1.9291,0 3.4932,1.5641 3.4932,3.4931zM15.5269,18.5069c0,1.1861 0.9622,2.1483 2.1483,2.1483c0.3483,0 0.6771,-0.0828 0.9679,-0.2298l-2.8863,-2.8864c-0.1471,0.2908 -0.2299,0.6196 -0.2299,0.9679zM19.5937,19.4747c0.1471,-0.2907 0.2299,-0.6195 0.2299,-0.9678c0,-1.1862 -0.9622,-2.1484 -2.1484,-2.1484c-0.3483,0 -0.6771,0.0828 -0.9678,0.2299z" fill="#1B2437"/>
</svg>
