<svg width="24" height="24" viewBox="0 0 24 24" fill="none" xmlns="http://www.w3.org/2000/svg">
<path d="M2.34924,10.5565c0,-0.99033 0.35041,-1.79639 1.14342,-2.41361c2.43438,-1.88388 4.85954,-3.78619 7.29394,-5.66546c0.8437,-0.64946 1.6045,-0.63103 2.4528,0.02303c2.4021,1.86546 4.8042,3.73552 7.2063,5.59637c0.4473,0.34546 0.8391,0.74158 1.0005,1.2851c0.1199,0.41454 0.1937,0.85207 0.1937,1.28507c0.0184,2.5195 0.0092,5.0437 0.0092,7.5632c0,0.4053 -0.0138,0.8107 -0.0369,1.216c-0.0461,0.7922 -0.3827,1.4371 -0.9959,1.9438c-0.5901,0.4882 -1.2909,0.608 -2.024,0.608c-2.1947,0.0046 -4.3847,0 -6.5793,0c-2.21769,0 -4.43076,0 -6.64845,0c-1.16647,0 -2.11164,-0.4054 -2.68796,-1.474c-0.30429,-0.5573 -0.31813,-1.1791 -0.31813,-1.7917c-0.01383,-2.7176 -0.00461,-5.4444 -0.00922,-8.1758zM3.9906,19.1192c0,0.2303 0.04611,0.479 0.14293,0.6863c0.17059,0.3546 0.48872,0.5435 0.88984,0.5527c0.64548,0.0138 1.28635,0.0322 1.93183,0.0368c1.67825,0.0046 3.3611,0 5.0394,0v-0.0092c2.1393,0 4.2786,0 6.4179,0c0.1521,0 0.3043,-0.0138 0.461,-0.023c0.7239,-0.0461 1.1019,-0.4238 1.1342,-1.1469c0.0139,-0.3593 0.0139,-0.7186 0.0139,-1.0824c0,-2.5196 -0.0093,-5.0437 0,-7.5632c0.0046,-0.5113 -0.1753,-0.88898 -0.5764,-1.20219c-2.4067,-1.86085 -4.8088,-3.73092 -7.2063,-5.60098c-0.1752,-0.13358 -0.2997,-0.14279 -0.4795,0c-2.42515,1.8977 -4.85953,3.78619 -7.2893,5.67468c-0.33196,0.25794 -0.49333,0.58499 -0.48872,1.00869c0.00461,2.888 0,5.776 0.00922,8.6687z" fill="#1B2437"/>
<path d="M10.0635,18.087c-0.64546,0 -1.28633,0.0046 -1.93181,0c-0.53483,-0.0046 -0.89906,-0.3869 -0.86218,-0.8844c0.03228,-0.4422 0.38729,-0.7416 0.88984,-0.7416c2.55885,-0.0046 5.11775,0 7.67655,0c0.1061,0 0.2167,0.0092 0.3182,0.0369c0.521,0.1474 0.7469,0.7692 0.4472,1.2206c-0.189,0.2856 -0.4657,0.3731 -0.793,0.3731c-1.2633,0 -2.5312,0 -3.7945,0c-0.6501,0 -1.3002,0 -1.9503,-0.0046z" fill="#1B2437"/>
</svg>
