<svg width="24" height="24" viewBox="0 0 24 24" fill="none" xmlns="http://www.w3.org/2000/svg">
<path fill-rule="evenodd" clip-rule="evenodd" d="M6.83872,5.54264c1.31516,-1.0241 2.6301,-2.04803 3.94778,-3.06521c0.8437,-0.64946 1.6044,-0.63103 2.4528,0.02303c0.8006,0.62178 1.6013,1.24408 2.4019,1.86637c1.6015,1.2447 3.203,2.4894 4.8044,3.73c0.4472,0.34546 0.8391,0.74158 1.0005,1.2851c0.1199,0.41454 0.1936,0.85217 0.1936,1.28507c0.0139,1.8898 0.0121,3.7822 0.0104,5.6733c-0.0006,0.6301 -0.0011,1.2602 -0.0011,1.8899c0,0.4053 -0.0139,0.8107 -0.0369,1.216c-0.0461,0.7922 -0.3827,1.4371 -0.9959,1.9438c-0.5902,0.4882 -1.291,0.608 -2.024,0.608c-1.463,0.003 -2.9238,0.002 -4.3854,0.001c-0.731,-0.0005 -1.4622,-0.001 -2.1939,-0.001h-6.64847c-1.16647,0 -2.11164,-0.4054 -2.68796,-1.474c-0.3043,-0.5573 -0.31813,-1.1791 -0.31813,-1.7918c-0.00864,-1.6983 -0.00828,-3.4002 -0.00792,-5.1046c0.00021,-1.0229 0.00043,-2.0467 -0.0013,-3.0711c0,-0.99033 0.3504,-1.79639 1.14342,-2.41361c1.11674,-0.8642 2.23154,-1.73229 3.34618,-2.60025zM10.0577,18.0916h1.9549c0.3173,0 0.6342,-0.0002 0.9509,-0.0005c0.9489,-0.0009 1.8953,-0.0018 2.839,0.0052c0.3227,0 0.604,-0.0876 0.793,-0.3731c0.3043,-0.4514 0.0784,-1.0779 -0.4472,-1.2206c-0.1014,-0.0277 -0.2121,-0.0369 -0.3181,-0.0369h-7.67663c-0.50255,0 -0.85757,0.2994 -0.88984,0.7416c-0.0415,0.4974 0.32735,0.8797 0.86218,0.8843c0.43015,0.0031 0.85825,0.0021 1.28703,0.0011c0.21464,-0.0005 0.42946,-0.0011 0.64476,-0.0011z" fill="#1B2437"/>
</svg>
