<svg width="24" height="24" viewBox="0 0 24 24" fill="none" xmlns="http://www.w3.org/2000/svg">
<path d="M13.8461,1.17303c1.3554,0 2.7107,-0.00901 4.0661,0.0045c2.5035,0.02252 4.5298,1.81013 4.8,4.30918c0.1125,1.03115 0.09,2.0803 0.0945,3.12045c0.0045,1.93174 0,3.86794 -0.036,5.79964c-0.045,2.2334 -1.3959,3.8994 -3.3186,4.5118c-0.3152,0.1035 -0.4863,0.2656 -0.5943,0.5853c-0.716,2.1073 -2.3955,3.3006 -4.7415,3.3231c-2.6566,0.027 -5.31779,0.027 -7.97445,-0.0045c-2.70618,-0.036 -4.6559,-1.8642 -4.89454,-4.5613c-0.06755,-0.7565 -0.05404,-1.5265 -0.05404,-2.2875c0,-2.0307 0.0045,-4.0615 0.01801,-6.09225c0.00901,-1.07617 0.22514,-2.10281 0.86004,-2.99436c0.63039,-0.89156 1.45891,-1.51295 2.51706,-1.81013c0.28818,-0.08105 0.45479,-0.24315 0.54034,-0.53584c0.56285,-1.89568 2.10731,-3.16096 4.08855,-3.32306c0.72044,-0.05854 1.44993,-0.04953 2.17483,-0.05854c0.815,-0.00901 1.6345,0 2.4495,0c0.0045,0.0045 0.0045,0.00901 0.0045,0.01351zM2.83679,18.797c0.02702,0.009 0.05404,0.018 0.08106,0.027c0.07204,-0.081 0.14408,-0.1621 0.21163,-0.2476c0.39624,-0.4953 0.77898,-1.0042 1.19324,-1.486c0.99962,-1.1662 1.94071,-1.4003 3.38611,-0.8645c0.52682,0.1936 1.04915,0.3962 1.57147,0.5944c0.61239,0.2296 0.9546,0.1396 1.3599,-0.3738c0.5988,-0.7564 1.1707,-1.5354 1.7831,-2.2829c0.797,-0.9726 1.7335,-1.2247 2.9313,-0.8555c0.761,0.2341 1.4229,0.6529 2.0488,1.1392c0.0765,0.0585 0.1621,0.1126 0.2746,0.1891c0.009,-0.1306 0.0135,-0.2071 0.0135,-0.2882c0,-1.1707 0.009,-2.3369 -0.0045,-3.5077c-0.0045,-0.5313 -0.009,-1.06712 -0.09,-1.58944c-0.1711,-1.07167 -0.7025,-1.93171 -1.6571,-2.49005c-0.6258,-0.36473 -1.3238,-0.45028 -2.0352,-0.45028c-1.9407,-0.00451 -3.8769,-0.00901 -5.81764,-0.00451c-0.70243,0 -1.40937,-0.0045 -2.11181,0.03152c-1.69756,0.09006 -2.99887,1.30131 -3.206,2.99437c-0.07654,0.6439 -0.07204,1.30129 -0.07654,1.94969c-0.00451,2.0443 -0.00451,4.0886 0.0135,6.1328c0.00451,0.4638 0.08556,0.9231 0.13058,1.3824zM10.1854,21.3141c1.2788,-0.0045 2.5621,0 3.8409,-0.0045c1.3328,-0.009 2.4225,-0.4818 3.1249,-1.6706c0.3737,-0.6304 0.4728,-1.3328 0.5403,-2.0443c0.0496,-0.5493 -0.0585,-1.0266 -0.5583,-1.3508c-0.0676,-0.045 -0.1171,-0.1171 -0.1756,-0.1711c-0.6304,-0.5719 -1.2923,-1.0942 -2.1298,-1.3373c-0.4908,-0.1441 -0.8961,-0.0315 -1.2203,0.3737c-0.7114,0.8871 -1.4184,1.7786 -2.1478,2.6522c-0.5179,0.6123 -1.1888,0.806 -1.98127,0.6484c-0.85103,-0.1666 -1.65253,-0.4683 -2.44502,-0.8015c-0.53133,-0.2252 -0.96811,-0.1216 -1.36435,0.2791c-0.68443,0.6845 -1.24278,1.4589 -1.77411,2.2604c-0.10806,0.1576 -0.07204,0.2657 0.07205,0.3783c0.70694,0.5763 1.53095,0.788 2.42251,0.788c1.26528,0 2.53057,0 3.79589,0zM6.65967,4.77977c0.13509,0 0.22514,0 0.3152,0c2.02176,0 4.04353,0 6.06523,0c0.5314,0 1.0672,-0.009 1.594,0.03603c1.4049,0.12157 2.5891,0.69343 3.4717,1.81913c0.5809,0.74296 0.8916,1.603 1.0176,2.53057c0.0496,0.36473 0.2297,0.6304 0.5584,0.81501c0.4322,0.23869 0.8465,0.50429 1.2698,0.76099c0.1035,0.063 0.2071,0.1261 0.3242,0.1981c0.009,-0.0585 0.018,-0.0765 0.018,-0.0991c-0.0135,-1.63447 0.0045,-3.26449 -0.0496,-4.899c-0.0585,-1.84165 -1.4634,-3.22401 -3.3005,-3.24202c-2.7602,-0.02702 -5.5249,-0.01801 -8.28966,0c-0.83302,0.0045 -1.58499,0.29268 -2.19737,0.87805c-0.34221,0.3332 -0.61238,0.71594 -0.797,1.20224zM19.2315,17.3606c0.1261,-0.0495 0.2251,-0.081 0.3152,-0.1306c0.4097,-0.2206 0.7475,-0.5223 1.0176,-0.9005c0.6349,-0.8916 0.7745,-1.9092 0.725,-2.9674c-0.009,-0.1486 -0.1036,-0.3197 -0.2162,-0.4232c-0.4412,-0.4098 -0.905,-0.806 -1.3643,-1.1933c-0.1351,-0.1126 -0.2972,-0.1891 -0.4728,-0.2972c-0.0045,1.9858 -0.0045,3.9265 -0.0045,5.9122z" fill="#1B2437"/>
<path d="M7.40714,8.53061c1.32833,0 2.418,1.08517 2.418,2.40899c0,1.3463 -1.07617,2.418 -2.42701,2.4135c-1.33283,0 -2.409,-1.0762 -2.409,-2.4135c-0.0045,-1.31931 1.08968,-2.40899 2.41801,-2.40899zM7.41164,11.8402c0.48631,-0.0045 0.88705,-0.4053 0.88255,-0.8871c0,-0.4863 -0.40075,-0.8825 -0.88255,-0.887c-0.4908,0 -0.89606,0.3962 -0.89606,0.8735c-0.0045,0.4953 0.40526,0.9006 0.89606,0.9006z" fill="#1B2437"/>
</svg>
