<svg width="24" height="24" viewBox="0 0 24 24" fill="none" xmlns="http://www.w3.org/2000/svg">
<path fill-rule="evenodd" clip-rule="evenodd" d="M22,16.0833c0,3.5386 -2.2769,5.9167 -5.6672,5.9167h-8.66662c-3.38928,0 -5.66618,-2.3781 -5.66618,-5.9167v-8.16658c0,-3.53861 2.2769,-5.91672 5.66618,-5.91672h8.66762c3.3893,0 5.6662,2.37811 5.6662,5.91672zM8.49886,6c-1.37865,0 -2.49886,1.12173 -2.49886,2.5c0,1.37827 1.12021,2.5 2.49886,2.5c1.37764,0 2.49884,-1.12173 2.49884,-2.5c0,-1.37827 -1.1212,-2.5 -2.49884,-2.5zM14.8188,13.8852c-0.0333,0.055 -0.0666,0.1102 -0.1003,0.1654l-0.0079,0.0131c-0.4748,0.7864 -1.02,1.6895 -1.96,2.216c-1.3736,0.7605 -2.4164,0.0598 -3.16656,-0.45c-0.28156,-0.1899 -0.55507,-0.3694 -0.82759,-0.4891c-0.67172,-0.29 -1.27607,0.0402 -2.17305,1.1795c-0.47061,0.5955 -0.9372,1.1858 -1.40982,1.774c-0.28256,0.3519 -0.21519,0.8948 0.16592,1.13c0.60838,0.3747 1.35049,0.5759 2.18914,0.5759h8.42776c0.4756,0 0.9523,-0.065 1.4068,-0.2136c1.0237,-0.3344 1.8362,-1.1001 2.2605,-2.1115c0.358,-0.8503 0.532,-1.8823 0.1971,-2.7409c-0.1116,-0.2849 -0.2785,-0.5501 -0.5128,-0.7833c-0.6144,-0.6099 -1.1886,-1.1796 -1.8714,-1.6006c-1.072,-0.6688 -1.8995,0.2703 -2.1228,0.5706c-0.1781,0.24 -0.3355,0.5005 -0.495,0.7645z" fill="#1B2437"/>
</svg>
