<svg width="24" height="24" viewBox="0 0 24 24" fill="none" xmlns="http://www.w3.org/2000/svg">
<path d="M11.9735,22.3086c-2.52469,0 -5.04939,0 -7.57408,0c-1.41652,0 -2.39942,-0.988 -2.39942,-2.4096c0,-5.0603 0,-10.12052 0,-15.17594c0,-1.42651 0.98771,-2.41447 2.42351,-2.41447c5.04457,0 10.08429,0 15.12889,0c1.4743,0 2.4476,0.97832 2.4476,2.45783c0,5.03615 0,10.07228 0,15.10358c0,1.4506 -0.9781,2.4338 -2.4235,2.4338c-2.5343,0.0048 -5.0687,0.0048 -7.603,0.0048zM10.1956,20.7857c0.1156,0 0.2024,0 0.2891,0c3.0306,0 6.0612,0 9.0918,0c0.6071,0 0.8962,-0.294 0.8962,-0.9012c0,-3.3253 0,-6.6554 0,-9.98072c0,-0.08675 0,-0.16868 0,-0.28434c-0.1253,0 -0.2169,0 -0.3132,0c-3.2137,0 -6.4274,0 -9.6411,0c-0.3228,0 -0.3228,0 -0.3228,0.32771c0,3.50365 0,7.00725 0,10.51085c0,0.0916 0,0.1879 0,0.3277zM20.4727,8.08691c0,-0.09639 0,-0.16868 0,-0.24097c0,-1.0506 0,-2.1012 0,-3.1518c0,-0.5494 -0.3132,-0.86265 -0.8673,-0.86265c-5.0735,0 -10.14696,0 -15.22043,0c-0.54927,0 -0.85763,0.31325 -0.86245,0.86747c0,1.04096 0,2.08192 0,3.12771c0,0.08674 0,0.16867 0,0.26024c5.66611,0 11.28888,0 16.95018,0zM3.52734,9.61462c0,0.12048 0,0.20723 0,0.29398c0,3.3253 0,6.6506 0,9.9759c0,0.6024 0.28909,0.8916 0.90099,0.8916c1.32016,0 2.64515,0 3.96531,0c0.08673,0 0.16863,-0.0049 0.26981,-0.0097c0.00482,-0.1012 0.01446,-0.1783 0.01446,-0.2554c0,-3.5422 0,-7.0843 0.00482,-10.6265c0,-0.23132 -0.07227,-0.27952 -0.28909,-0.2747c-1.53216,0.00964 -3.05951,0.00482 -4.59167,0.00482c-0.07709,0 -0.15899,0 -0.27463,0z" fill="#1B2437"/>
</svg>
