<svg width="24" height="24" viewBox="0 0 24 24" fill="none" xmlns="http://www.w3.org/2000/svg">
<path fill-rule="evenodd" clip-rule="evenodd" d="M6.25,13c4.069,0 4.25,1.38 4.25,4.25c0,1.438 0,2.461 -0.604,3.21c-0.695,0.863 -1.96,1.04 -3.646,1.04c-1.686,0 -2.951,-0.177 -3.646,-1.04c-0.604,-0.749 -0.604,-1.771 -0.604,-3.185l0.75,-0.025h-0.75c0,-2.87 0.181,-4.25 4.25,-4.25zM17.25,13c4.069,0 4.25,1.38 4.25,4.25c0,1.438 0,2.461 -0.604,3.21c-0.695,0.863 -1.96,1.04 -3.646,1.04c-1.686,0 -2.951,-0.177 -3.646,-1.04c-0.604,-0.749 -0.604,-1.771 -0.604,-3.185l0.75,-0.025h-0.75c0,-2.87 0.181,-4.25 4.25,-4.25zM6.45616,14.5004l-0.20616,-0.0004c-2.60897,0 -2.74277,0.1872 -2.74963,2.3771l0.00042,0.8531c0.00474,0.8709 0.03792,1.5001 0.27021,1.7898c0.265,0.328 1.052,0.48 2.479,0.48c1.427,0 2.214,-0.153 2.479,-0.481c0.271,-0.337 0.271,-1.137 0.271,-2.245c0,-2.5002 0,-2.7618 -2.54384,-2.7736zM17.4562,14.5004l-0.2062,-0.0004c-2.609,0 -2.7428,0.1872 -2.7496,2.3771l0.0004,0.8531c0.0047,0.8709 0.0379,1.5001 0.2702,1.7898c0.265,0.328 1.052,0.48 2.479,0.48c1.427,0 2.214,-0.153 2.479,-0.481c0.271,-0.337 0.271,-1.137 0.271,-2.245c0,-2.5002 0,-2.7618 -2.5438,-2.7736zM6.25,2c4.069,0 4.25,1.38 4.25,4.25c0,1.438 0,2.461 -0.604,3.21c-0.695,0.863 -1.96,1.04 -3.646,1.04c-1.686,0 -2.951,-0.177 -3.646,-1.04c-0.604,-0.749 -0.604,-1.771 -0.604,-3.185l0.75,-0.025h-0.75c0,-2.87 0.181,-4.25 4.25,-4.25zM17.25,2c4.069,0 4.25,1.38 4.25,4.25c0,1.438 0,2.461 -0.604,3.21c-0.695,0.863 -1.96,1.04 -3.646,1.04c-1.686,0 -2.951,-0.177 -3.646,-1.04c-0.604,-0.749 -0.604,-1.771 -0.604,-3.185l0.75,-0.025h-0.75c0,-2.87 0.181,-4.25 4.25,-4.25zM6.45616,3.50045l-0.20616,-0.00045c-2.60897,0 -2.74277,0.18721 -2.74963,2.37705l0.00042,0.85313c0.00474,0.87096 0.03792,1.50011 0.27021,1.78982c0.265,0.328 1.052,0.48 2.479,0.48c1.427,0 2.214,-0.153 2.479,-0.481c0.271,-0.337 0.271,-1.137 0.271,-2.245c0,-2.5002 0,-2.76178 -2.54384,-2.77355zM17.4562,3.50045l-0.2062,-0.00045c-2.609,0 -2.7428,0.18721 -2.7496,2.37705l0.0004,0.85313c0.0047,0.87096 0.0379,1.50011 0.2702,1.78982c0.265,0.328 1.052,0.48 2.479,0.48c1.427,0 2.214,-0.153 2.479,-0.481c0.271,-0.337 0.271,-1.137 0.271,-2.245c0,-2.5002 0,-2.76178 -2.5438,-2.77355z" fill="#1B2437"/>
</svg>
