<svg width="24" height="24" viewBox="0 0 24 24" fill="none" xmlns="http://www.w3.org/2000/svg">
<path d="M16.0755,2h3.386c1.4022,0 2.5385,1.14585 2.5385,2.55996v3.41456c0,1.41412 -1.1363,2.55998 -2.5385,2.55998h-3.386c-1.4023,0 -2.5385,-1.14586 -2.5385,-2.55998v-3.41456c0,-1.41411 1.1362,-2.55996 2.5385,-2.55996z" fill="#1B2437"/>
<path d="M7.92449,13.4655c1.40227,0 2.53851,1.1459 2.53851,2.56v3.4145c0,1.4132 -1.13624,2.56 -2.53851,2.56h-3.38597c-1.40226,0 -2.53852,-1.1468 -2.53852,-2.56v-3.4145c0,-1.4141 1.13626,-2.56 2.53852,-2.56zM19.4615,13.4655c1.4022,0 2.5385,1.1459 2.5385,2.56v3.4145c0,1.4132 -1.1363,2.56 -2.5385,2.56h-3.386c-1.4023,0 -2.5385,-1.1468 -2.5385,-2.56v-3.4145c0,-1.4141 1.1362,-2.56 2.5385,-2.56zM7.92449,2c1.40227,0 2.53851,1.14585 2.53851,2.55996v3.41456c0,1.41412 -1.13624,2.55998 -2.53851,2.55998h-3.38597c-1.40226,0 -2.53852,-1.14586 -2.53852,-2.55998v-3.41456c0,-1.41411 1.13626,-2.55996 2.53852,-2.55996z" fill="#1B2437"/>
</svg>
