<svg width="24" height="24" viewBox="0 0 24 24" fill="none" xmlns="http://www.w3.org/2000/svg">
<path d="M16.2554,4.35883c-0.4735,0.00456 -1.193,0.296 -1.785,0.88343c-0.6375,0.63752 -1.2751,1.27504 -1.9126,1.91257c-0.2368,0.23679 -0.5055,0.33697 -0.8242,0.20492c-0.4326,-0.1776 -0.5829,-0.73771 -0.255,-1.07469c0.7513,-0.76958 1.4754,-1.57559 2.2951,-2.26776c2.5501,-2.15847 6.4207,-0.83788 7.1448,2.42259c0.3369,1.5255 -0.0683,2.88251 -1.143,4.02091c-0.633,0.6694 -1.3024,1.3115 -1.9581,1.9627c-0.3279,0.3279 -0.7605,0.3506 -1.0474,0.0546c-0.2778,-0.2868 -0.255,-0.7103 0.0638,-1.0291c0.6375,-0.6375 1.275,-1.275 1.9125,-1.91257c0.888,-0.88798 1.1339,-2.18579 0.6421,-3.3561c-0.4508,-1.0929 -1.5619,-1.81694 -3.133,-1.8215z" fill="#1B2437"/>
<path d="M2.98131,16.6084c0.01366,-1.2022 0.42805,-2.2405 1.26594,-3.0966c0.64663,-0.6603 1.30237,-1.3069 1.9581,-1.9626c0.31421,-0.3142 0.71949,-0.3324 1.01093,-0.0501c0.28689,0.2778 0.28689,0.7013 -0.01821,1.0109c-0.63297,0.6421 -1.27505,1.2751 -1.90802,1.9126c-0.84699,0.8606 -1.13843,1.8852 -0.78779,3.0419c0.34153,1.1475 1.13843,1.8579 2.31329,2.0993c1.03826,0.214 1.95356,-0.0775 2.70948,-0.8106c0.66487,-0.6421 1.30687,-1.3069 1.96267,-1.9581c0.2869,-0.2823 0.6557,-0.3142 0.9426,-0.0865c0.3188,0.255 0.3734,0.7149 0.0865,1.0063c-0.7604,0.7696 -1.4936,1.5802 -2.3178,2.2723c-1.28873,1.0884 -2.79601,1.3206 -4.36705,0.7241c-1.56193,-0.592 -2.48634,-1.7669 -2.78689,-3.4199c-0.01366,-0.0819 -0.03187,-0.1639 -0.03643,-0.2459c-0.01821,-0.1411 -0.02277,-0.2914 -0.02732,-0.4371z" fill="#1B2437"/>
<path d="M15.4904,20.388c0,0.296 0.0046,0.592 0,0.888c-0.0045,0.4189 -0.296,0.724 -0.6876,0.724c-0.3871,0.0046 -0.6922,-0.3051 -0.6967,-0.7149c-0.0091,-0.6057 -0.0046,-1.2113 0,-1.817c0.0045,-0.4098 0.3142,-0.7195 0.6967,-0.7149c0.3871,0.0045 0.6831,0.3142 0.6876,0.7286c0,0.3005 0,0.6011 0,0.9062z" fill="#1B2437"/>
<path d="M9.90299,3.63934c0,0.296 0.00455,0.59199 0,0.88798c-0.00456,0.40529 -0.28689,0.69672 -0.67396,0.70583c-0.39162,0.00456 -0.69672,-0.26867 -0.70127,-0.67395c-0.01366,-0.62842 -0.01366,-1.25683 0,-1.88525c0.00911,-0.40528 0.31421,-0.6785 0.70583,-0.6694c0.38707,0.00911 0.66484,0.30055 0.6694,0.71039c0,0.3051 0,0.61475 0,0.9244z" fill="#1B2437"/>
<path d="M3.63249,8.51184c0.296,0 0.59199,-0.00455 0.88798,0c0.41895,0.00455 0.72405,0.29144 0.7286,0.68306c0.00455,0.40073 -0.29599,0.69672 -0.73315,0.69672c-0.59199,0.00455 -1.17942,0.00455 -1.7714,0c-0.43716,-0.00455 -0.74226,-0.29599 -0.74226,-0.69217c0,-0.39617 0.31421,-0.68761 0.74226,-0.68761c0.29599,-0.00455 0.59198,0 0.88797,0z" fill="#1B2437"/>
<path d="M20.3766,15.4699c-0.3324,0 -0.6694,0.0183 -0.9973,-0.0045c-0.3734,-0.0273 -0.6147,-0.3188 -0.6147,-0.6876c0.0045,-0.3689 0.2823,-0.6694 0.6557,-0.674c0.6421,-0.0091 1.2887,-0.0091 1.9308,0c0.3506,0.0046 0.6284,0.296 0.6466,0.6375c0.0182,0.3735 -0.2186,0.6922 -0.5783,0.7195c-0.3461,0.0274 -0.6922,0.0046 -1.0428,0.0091z" fill="#1B2437"/>
<path d="M6.1416,5.37887c-0.0592,0.30966 -0.18215,0.51913 -0.44171,0.64208c-0.25956,0.12295 -0.51913,0.10929 -0.71949,-0.08652c-0.48725,-0.46448 -0.96995,-0.93807 -1.42987,-1.42988c-0.2459,-0.25956 -0.19581,-0.6785 0.06375,-0.9244c0.26867,-0.25046 0.67851,-0.25957 0.94718,0c0.45082,0.43715 0.89708,0.87887 1.32969,1.33879c0.11384,0.12295 0.16849,0.3051 0.25045,0.45993z" fill="#1B2437"/>
<path d="M18.6188,17.8607c0.1549,0.0819 0.337,0.132 0.46,0.2504c0.4508,0.4281 0.8834,0.8698 1.3205,1.3115c0.2687,0.2732 0.2687,0.6967 0.0183,0.9608c-0.2551,0.2687 -0.6831,0.3006 -0.9609,0.0365c-0.4645,-0.4463 -0.9198,-0.9017 -1.3661,-1.3662c-0.2095,-0.214 -0.2459,-0.4872 -0.1138,-0.7604c0.1229,-0.2505 0.3324,-0.3826 0.642,-0.4326z" fill="#1B2437"/>
</svg>
