<svg width="24" height="24" viewBox="0 0 24 24" fill="none" xmlns="http://www.w3.org/2000/svg">
<path d="M15.4904,20.388c0,0.296 0.0045,0.592 0,0.888c-0.0046,0.4189 -0.296,0.724 -0.6877,0.724c-0.387,0.0046 -0.6921,-0.3051 -0.6967,-0.7149c-0.0091,-0.6057 -0.0045,-1.2113 0,-1.817c0.0046,-0.4098 0.3142,-0.7195 0.6967,-0.7149c0.3871,0.0045 0.6831,0.3142 0.6877,0.7286c0,0.3005 0,0.6011 0,0.9062z" fill="#1B2437"/>
<path d="M9.90293,3.63934c0,0.296 0.00455,0.59199 0,0.88798c-0.00456,0.40529 -0.28689,0.69672 -0.67396,0.70583c-0.39162,0.00456 -0.69672,-0.26867 -0.70127,-0.67395c-0.01366,-0.62842 -0.01366,-1.25683 0,-1.88525c0.00911,-0.40528 0.31421,-0.6785 0.70583,-0.6694c0.38706,0.00911 0.66484,0.30055 0.6694,0.71039c0,0.3051 0,0.61475 0,0.9244z" fill="#1B2437"/>
<path d="M3.63243,8.51184c0.296,0 0.59199,-0.00455 0.88798,0c0.41895,0.00455 0.72405,0.29144 0.7286,0.68306c0.00455,0.40073 -0.29599,0.69672 -0.73315,0.69672c-0.59199,0.00455 -1.17942,0.00455 -1.7714,0c-0.43716,-0.00455 -0.74226,-0.29599 -0.74226,-0.69217c0,-0.39617 0.3142,-0.68761 0.74226,-0.68761c0.29599,-0.00455 0.59198,0 0.88797,0z" fill="#1B2437"/>
<path d="M20.3765,15.4699c-0.3324,0 -0.6694,0.0183 -0.9973,-0.0045c-0.3734,-0.0273 -0.6147,-0.3188 -0.6147,-0.6876c0.0045,-0.3689 0.2823,-0.6694 0.6557,-0.674c0.6421,-0.0091 1.2887,-0.0091 1.9308,0c0.3507,0.0046 0.6284,0.296 0.6466,0.6375c0.0183,0.3735 -0.2185,0.6922 -0.5783,0.7195c-0.3461,0.0274 -0.6921,0.0046 -1.0428,0.0091z" fill="#1B2437"/>
<path d="M6.14154,5.37887c-0.0592,0.30966 -0.18215,0.51913 -0.44171,0.64208c-0.25956,0.12295 -0.51913,0.10929 -0.71949,-0.08652c-0.48725,-0.46448 -0.96995,-0.93807 -1.42987,-1.42988c-0.2459,-0.25956 -0.19581,-0.6785 0.06375,-0.9244c0.26867,-0.25046 0.67851,-0.25957 0.94718,0c0.45082,0.43715 0.89708,0.87887 1.32969,1.33879c0.11384,0.12295 0.16848,0.3051 0.25045,0.45993z" fill="#1B2437"/>
<path d="M18.6188,17.8607c0.1548,0.0819 0.3369,0.132 0.4599,0.2504c0.4508,0.4281 0.8834,0.8698 1.3206,1.3115c0.2687,0.2732 0.2687,0.6967 0.0182,0.9608c-0.255,0.2687 -0.6831,0.3006 -0.9608,0.0365c-0.4645,-0.4463 -0.9199,-0.9017 -1.3662,-1.3662c-0.2094,-0.214 -0.2459,-0.4872 -0.1138,-0.7604c0.1229,-0.2505 0.3324,-0.3826 0.6421,-0.4326z" fill="#1B2437"/>
<path fill-rule="evenodd" clip-rule="evenodd" d="M7.21622,11.4991c0.0059,0.0057 0.01168,0.0115 0.01734,0.0173z" fill="#1B2437"/>
<path fill-rule="evenodd" clip-rule="evenodd" d="M13.7736,4.0173c2.5501,-2.15847 6.4208,-0.83788 7.1448,2.42259c0.337,1.5255 -0.0683,2.88251 -1.143,4.02091c-0.4664,0.4933 -0.9527,0.9718 -1.4387,1.45c-0.1735,0.1707 -0.3469,0.3414 -0.5194,0.5127c-0.3279,0.3279 -0.7605,0.3506 -1.0473,0.0546l-1.3771,-1.3994c0.5669,-0.7466 0.5077,-1.81584 -0.1754,-2.49485c-0.6801,-0.67604 -1.7433,-0.73134 -2.4861,-0.16799l-1.2951,-1.28802c-0.1822,-0.24766 -0.1919,-0.60212 0.0422,-0.84278c0.1751,-0.17936 0.3489,-0.36082 0.5226,-0.54224c0.5716,-0.59694 1.1439,-1.1947 1.7725,-1.72552zM8.44688,15.395c0.73983,0.7354 1.93302,0.7363 2.67392,0.0053l1.3094,1.3083c0.3188,0.255 0.3735,0.7149 0.0866,1.0063c-0.1869,0.1891 -0.3721,0.3807 -0.5574,0.5723c-0.5689,0.5885 -1.1388,1.1779 -1.7605,1.7c-1.28869,1.0884 -2.79597,1.3206 -4.36701,0.7241c-1.56193,-0.592 -2.48634,-1.7669 -2.78689,-3.4199c-0.00341,-0.0205 -0.00711,-0.0409 -0.01081,-0.0614c-0.0111,-0.0615 -0.0222,-0.123 -0.02562,-0.1845c-0.01803,-0.1397 -0.02267,-0.2884 -0.02718,-0.4327l-0.00014,-0.0044c0.01366,-1.2022 0.42805,-2.2405 1.26594,-3.0966c0.46167,-0.4714 0.92798,-0.9358 1.39561,-1.4016c0.18736,-0.1866 0.37493,-0.3735 0.56249,-0.561c0.31421,-0.3142 0.71949,-0.3324 1.01093,-0.0501l0.01734,0.0173l1.19889,1.1979c-0.73341,0.7447 -0.72769,1.943 0.01443,2.6807z" fill="#1B2437"/>
</svg>
