<svg width="24" height="24" viewBox="0 0 24 24" fill="none" xmlns="http://www.w3.org/2000/svg">
<path d="M16.3185,3.50721c-1.2527,0.02447 -2.2559,0.43064 -3.0878,1.25765c-0.4502,0.44531 -0.8955,0.90042 -1.3457,1.34573c-0.3524,0.34744 -0.7928,0.3768 -1.106,0.0734c-0.3181,-0.30829 -0.2936,-0.77318 0.0588,-1.12552c0.5676,-0.56765 1.1059,-1.17935 1.7274,-1.68828c1.7127,-1.39956 3.6555,-1.74211 5.7206,-0.95914c2.0161,0.7634 3.2444,2.27062 3.6114,4.40421c0.3377,1.94275 -0.2398,3.63104 -1.6198,5.04034c-0.4453,0.4551 -0.8955,0.9005 -1.3457,1.3458c-0.3328,0.3278 -0.783,0.3474 -1.0864,0.0489c-0.3034,-0.2985 -0.2985,-0.7536 0.0294,-1.0913c0.5432,-0.5578 1.1353,-1.0765 1.6344,-1.6785c1.0473,-1.2576 1.2871,-2.7061 0.7047,-4.23289c-0.5774,-1.51701 -1.7225,-2.40763 -3.3227,-2.68657c-0.2153,-0.03425 -0.4404,-0.03915 -0.5726,-0.05383z" fill="#1B2437"/>
<path d="M7.7597,22c-3.40592,0 -6.04845,-2.9068 -5.72058,-6.298c0.13213,-1.3506 0.6851,-2.5153 1.63445,-3.4842c0.4551,-0.4649 0.91999,-0.9249 1.37999,-1.38c0.34744,-0.3426 0.79276,-0.3622 1.10594,-0.0539c0.3034,0.3034 0.28383,0.7634 -0.05383,1.106c-0.53339,0.5481 -1.11573,1.057 -1.60019,1.6393c-1.07169,1.2919 -1.31637,2.7698 -0.6851,4.3211c0.62638,1.5512 1.8253,2.4418 3.49401,2.6376c1.34083,0.1566 2.50061,-0.279 3.45971,-1.2234c0.4698,-0.46 0.9249,-0.9396 1.4045,-1.3947c0.4013,-0.3817 1.0081,-0.2642 1.2185,0.2251c0.1125,0.2643 0.0979,0.5432 -0.0979,0.7341c-0.7536,0.7487 -1.4338,1.5855 -2.3195,2.1923c-0.9739,0.6557 -2.05044,0.9787 -3.22,0.9787z" fill="#1B2437"/>
<path d="M16.2892,8.5329c-0.0881,0.16639 -0.1419,0.36702 -0.2692,0.49425c-2.3293,2.34405 -4.6684,4.68315 -7.00755,7.01735c-0.29851,0.2985 -0.74382,0.2887 -1.03254,0.0049c-0.30829,-0.3034 -0.31319,-0.7487 0.00489,-1.0668c1.28212,-1.287 2.5642,-2.5691 3.8512,-3.8512c1.0424,-1.0423 2.0847,-2.08467 3.127,-3.127c0.2398,-0.23979 0.5236,-0.29362 0.8319,-0.17128c0.2888,0.11745 0.4356,0.35723 0.4943,0.69978z" fill="#1B2437"/>
</svg>
