<svg width="24" height="24" viewBox="0 0 24 24" fill="none" xmlns="http://www.w3.org/2000/svg">
<path fill-rule="evenodd" clip-rule="evenodd" d="M20.322,11.6796l-8.5251,8.5251c-2.238,2.238 -5.8665,2.238 -8.10449,0c-2.23799,-2.238 -2.23799,-5.8665 0,-8.1045l8.52509,-8.52507c2.238,-2.23799 5.8665,-2.23799 8.1045,0c2.2379,2.23799 2.2379,5.86648 0,8.10447zM16.0342,7.86995c-0.2824,-0.28239 -0.7402,-0.28239 -1.0226,0l-7.04999,7.04995c-0.28238,0.2824 -0.28238,0.7402 0,1.0226c0.28239,0.2824 0.74024,0.2824 1.02263,0l7.04996,-7.04993c0.2824,-0.28239 0.2824,-0.74023 0,-1.02262z" fill="#1B2437"/>
</svg>
