<svg width="24" height="24" viewBox="0 0 24 24" fill="none" xmlns="http://www.w3.org/2000/svg">
<path fill-rule="evenodd" clip-rule="evenodd" d="M6.11243,13.1909c1.717,0 3.113,1.39 3.113,3.097c0,1.707 -1.396,3.095 -3.113,3.095c-1.716,0 -3.113,-1.388 -3.113,-3.095c0,-1.707 1.397,-3.097 3.113,-3.097zM6.11243,14.6909c-0.889,0 -1.613,0.716 -1.613,1.597c0,0.88 0.724,1.595 1.613,1.595c0.89,0 1.613,-0.715 1.613,-1.595c0,-0.881 -0.723,-1.597 -1.613,-1.597zM19.1905,15.5913c0.414,0 0.75,0.336 0.75,0.75c0,0.414 -0.336,0.75 -0.75,0.75h-6.3c-0.414,0 -0.75,-0.336 -0.75,-0.75c0,-0.414 0.336,-0.75 0.75,-0.75z" fill="#1B2437"/>
<path fill-rule="evenodd" clip-rule="evenodd" d="M6.113,4c1.717,0 3.113,1.39 3.113,3.097c0,1.707 -1.396,3.095 -3.113,3.095c-1.716,0 -3.113,-1.388 -3.113,-3.095c0,-1.707 1.397,-3.097 3.113,-3.097zM6.113,5.5c-0.889,0 -1.613,0.716 -1.613,1.597c0,0.88 0.724,1.595 1.613,1.595c0.89,0 1.613,-0.715 1.613,-1.595c0,-0.881 -0.723,-1.597 -1.613,-1.597zM19.1911,6.4004c0.414,0 0.75,0.336 0.75,0.75c0,0.414 -0.336,0.75 -0.75,0.75h-6.3c-0.414,0 -0.75,-0.336 -0.75,-0.75c0,-0.414 0.336,-0.75 0.75,-0.75z" fill="#1B2437"/>
</svg>
