<svg width="24" height="24" viewBox="0 0 24 24" fill="none" xmlns="http://www.w3.org/2000/svg">
<path fill-rule="evenodd" clip-rule="evenodd" d="M11,3.75c-0.3315,0 -0.6495,0.1317 -0.8839,0.36612c-0.2344,0.23442 -0.3661,0.55236 -0.3661,0.88388c0,0.33152 0.1317,0.64946 0.3661,0.88388c0.2344,0.23442 0.5524,0.36612 0.8839,0.36612h2c0.3315,0 0.6495,-0.1317 0.8839,-0.36612c0.2344,-0.23442 0.3661,-0.55236 0.3661,-0.88388c0,-0.33152 -0.1317,-0.64946 -0.3661,-0.88388c-0.2344,-0.23442 -0.5524,-0.36612 -0.8839,-0.36612zM9.05546,3.05546c0.51572,-0.51573 1.21524,-0.80546 1.94454,-0.80546h2c0.7293,0 1.4288,0.28973 1.9445,0.80546c0.3348,0.33478 0.5744,0.74699 0.7013,1.19454h1.3542c0.7293,0 1.4288,0.28973 1.9445,0.80546c0.5158,0.51572 0.8055,1.21519 0.8055,1.94454v12c0,0.7293 -0.2897,1.4288 -0.8055,1.9445c-0.5157,0.5158 -1.2152,0.8055 -1.9445,0.8055h-10c-0.72935,0 -1.42882,-0.2897 -1.94454,-0.8055c-0.51573,-0.5157 -0.80546,-1.2152 -0.80546,-1.9445v-12c0,-0.72935 0.28973,-1.42882 0.80546,-1.94454c0.51572,-0.51573 1.21519,-0.80546 1.94454,-0.80546h1.35424c0.12689,-0.44755 0.36643,-0.85976 0.70122,-1.19454zM8.35424,5.75h-1.35424c-0.33152,0 -0.64946,0.1317 -0.88388,0.36612c-0.23442,0.23442 -0.36612,0.55236 -0.36612,0.88388v12c0,0.3315 0.1317,0.6495 0.36612,0.8839c0.23442,0.2344 0.55236,0.3661 0.88388,0.3661h10c0.3315,0 0.6495,-0.1317 0.8839,-0.3661c0.2344,-0.2344 0.3661,-0.5524 0.3661,-0.8839v-12c0,-0.33152 -0.1317,-0.64946 -0.3661,-0.88388c-0.2344,-0.23442 -0.5524,-0.36612 -0.8839,-0.36612h-1.3542c-0.1269,0.44755 -0.3665,0.85976 -0.7013,1.19454c-0.5157,0.51573 -1.2152,0.80546 -1.9445,0.80546h-2c-0.7293,0 -1.42882,-0.28973 -1.94454,-0.80546c-0.33479,-0.33478 -0.57433,-0.74699 -0.70122,-1.19454zM8.25,12c0,-0.4142 0.33579,-0.75 0.75,-0.75h0.01c0.41421,0 0.75,0.3358 0.75,0.75c0,0.4142 -0.33579,0.75 -0.75,0.75h-0.01c-0.41421,0 -0.75,-0.3358 -0.75,-0.75zM11.25,12c0,-0.4142 0.3358,-0.75 0.75,-0.75h3c0.4142,0 0.75,0.3358 0.75,0.75c0,0.4142 -0.3358,0.75 -0.75,0.75h-3c-0.4142,0 -0.75,-0.3358 -0.75,-0.75zM8.25,16c0,-0.4142 0.33579,-0.75 0.75,-0.75h0.01c0.41421,0 0.75,0.3358 0.75,0.75c0,0.4142 -0.33579,0.75 -0.75,0.75h-0.01c-0.41421,0 -0.75,-0.3358 -0.75,-0.75zM11.25,16c0,-0.4142 0.3358,-0.75 0.75,-0.75h3c0.4142,0 0.75,0.3358 0.75,0.75c0,0.4142 -0.3358,0.75 -0.75,0.75h-3c-0.4142,0 -0.75,-0.3358 -0.75,-0.75z" fill="#1B2437"/>
</svg>
