<svg width="24" height="24" viewBox="0 0 24 24" fill="none" xmlns="http://www.w3.org/2000/svg">
<path fill-rule="evenodd" clip-rule="evenodd" d="M11,3.75c-0.3315,0 -0.6495,0.1317 -0.8839,0.36612c-0.0717,0.07173 -0.13383,0.15128 -0.18549,0.23665c-0.00694,0.01184 -0.01369,0.0238 -0.02025,0.03588c-0.1039,0.18519 -0.16036,0.39525 -0.16036,0.61135c0,0.33152 0.1317,0.64946 0.3661,0.88388c0.0341,0.03409 0.0699,0.066 0.1073,0.09565c0.2199,0.17428 0.4933,0.27047 0.7766,0.27047h2c0.3315,0 0.6495,-0.1317 0.8839,-0.36612c0.2344,-0.23442 0.3661,-0.55236 0.3661,-0.88388c0,-0.33152 -0.1317,-0.64946 -0.3661,-0.88388c-0.2344,-0.23442 -0.5524,-0.36612 -0.8839,-0.36612zM9.05546,3.05546c0.51572,-0.51573 1.21524,-0.80546 1.94454,-0.80546h2c0.7293,0 1.4288,0.28973 1.9445,0.80546c0.3348,0.33478 0.5744,0.74699 0.7013,1.19454h1.3542c0.7293,0 1.4288,0.28973 1.9445,0.80546c0.5158,0.51572 0.8055,1.21519 0.8055,1.94454v12c0,0.7293 -0.2897,1.4288 -0.8055,1.9445c-0.5157,0.5158 -1.2152,0.8055 -1.9445,0.8055h-10c-0.72935,0 -1.42882,-0.2897 -1.94454,-0.8055c-0.51573,-0.5157 -0.80546,-1.2152 -0.80546,-1.9445v-12c0,-0.72935 0.28973,-1.42882 0.80546,-1.94454c0.51572,-0.51573 1.21519,-0.80546 1.94454,-0.80546h1.35424c0.12689,-0.44755 0.36643,-0.85976 0.70122,-1.19454zM9,11.25c-0.41421,0 -0.75,0.3358 -0.75,0.75c0,0.231 0.10439,0.4375 0.26856,0.5751c0.13027,0.1092 0.29818,0.1749 0.48144,0.1749h0.01c0.28308,0 0.52953,-0.1568 0.6572,-0.3883c0.05915,-0.1073 0.0928,-0.2306 0.0928,-0.3617c0,-0.4142 -0.33579,-0.75 -0.75,-0.75zM8.57592,16.6187c0.12062,0.0828 0.26669,0.1313 0.42408,0.1313h0.01c0.25964,0 0.48847,-0.1319 0.62309,-0.3324c0.0052,-0.0079 0.01026,-0.0159 0.01517,-0.0239c0.07073,-0.1145 0.11174,-0.2493 0.11174,-0.3937c0,-0.4142 -0.33579,-0.75 -0.75,-0.75h-0.01c-0.41421,0 -0.75,0.3358 -0.75,0.75c0,0.2568 0.12909,0.4835 0.32592,0.6187zM12,15.25c-0.1373,0 -0.266,0.0369 -0.3768,0.1014c-0.2232,0.1299 -0.3732,0.3717 -0.3732,0.6486c0,0.4142 0.3358,0.75 0.75,0.75h3c0.4142,0 0.75,-0.3358 0.75,-0.75c0,-0.1429 -0.04,-0.2764 -0.1093,-0.3901c-0.1317,-0.2158 -0.3694,-0.3599 -0.6407,-0.3599zM12,12.75h3c0.4142,0 0.75,-0.3358 0.75,-0.75c0,-0.4142 -0.3358,-0.75 -0.75,-0.75h-3c-0.4142,0 -0.75,0.3358 -0.75,0.75c0,0.4142 0.3358,0.75 0.75,0.75z" fill="#1B2437"/>
<path fill-rule="evenodd" clip-rule="evenodd" d="M9.91036,4.38865c0.00656,-0.01208 0.01331,-0.02404 0.02025,-0.03588c0.22079,-0.37678 0.62999,-0.6298 1.09819,-0.6298h1.9788c0.7025,0 1.2719,0.56948 1.2719,1.27198c0,0.70249 -0.5694,1.27197 -1.2719,1.27197h-1.9788c-0.3056,0 -0.586,-0.10778 -0.8054,-0.28739M10.2234,5.97953c0.2199,0.17428 0.4933,0.27047 0.7766,0.27047h2c0.3315,0 0.6495,-0.1317 0.8839,-0.36612c0.2344,-0.23442 0.3661,-0.55236 0.3661,-0.88388c0,-0.33152 -0.1317,-0.64946 -0.3661,-0.88388c-0.2344,-0.23442 -0.5524,-0.36612 -0.8839,-0.36612h-2c-0.3315,0 -0.6495,0.1317 -0.8839,0.36612c-0.0717,0.07173 -0.13383,0.15128 -0.18549,0.23665" fill="#1B2437"/>
<path fill-rule="evenodd" clip-rule="evenodd" d="M12,11.25c-0.4142,0 -0.75,0.3358 -0.75,0.75c0,0.4142 0.3358,0.75 0.75,0.75h-0.0083c-0.4142,0 -0.75,-0.3358 -0.75,-0.75c0,-0.4142 0.3358,-0.75 0.75,-0.75zM15.0029,11.25c0.4142,0 0.75,0.3358 0.75,0.75c0,0.4142 -0.3358,0.75 -0.75,0.75h-0.0029c0.4142,0 0.75,-0.3358 0.75,-0.75c0,-0.4142 -0.3358,-0.75 -0.75,-0.75z" fill="#1B2437"/>
<path fill-rule="evenodd" clip-rule="evenodd" d="M9.00684,12.7558c0.28543,0 0.53363,-0.1595 0.66036,-0.3941c-0.12767,0.2315 -0.37412,0.3883 -0.6572,0.3883h-0.01c-0.18326,0 -0.35117,-0.0657 -0.48144,-0.1749M9.00684,12.7558c-0.18649,0 -0.35707,-0.0681 -0.48828,-0.1807z" fill="#1B2437"/>
<path fill-rule="evenodd" clip-rule="evenodd" d="M8.57592,16.6187c0.12062,0.0828 0.26669,0.1313 0.42408,0.1313h0.01c0.25964,0 0.48847,-0.1319 0.62309,-0.3324c-0.13418,0.2031 -0.36457,0.3372 -0.62625,0.3372c-0.16038,0 -0.309,-0.0504 -0.43092,-0.1361z" fill="#1B2437"/>
</svg>
