<svg width="24" height="24" viewBox="0 0 24 24" fill="none" xmlns="http://www.w3.org/2000/svg">
<path d="M5.43887,3.30859c1.89999,0 3.43887,1.51299 3.43887,3.37856c0,1.86667 -1.53888,3.37965 -3.43887,3.37965c-1.89888,0 -3.43887,-1.51298 -3.43887,-3.37965c0,-1.86557 1.53999,-3.37856 3.43887,-3.37856zM20.4933,5.20692c0.8311,0 1.5067,0.6637 1.5067,1.48023c0,0.81763 -0.6756,1.48133 -1.5067,1.48133h-6.5755c-0.8322,0 -1.5077,-0.6637 -1.5077,-1.48133c0,-0.81653 0.6755,-1.48023 1.5077,-1.48023z" fill="#1B2437"/>
<path d="M5.43887,3.30859c1.89999,0 3.43887,1.51299 3.43887,3.37856c0,1.86667 -1.53888,3.37965 -3.43887,3.37965c-1.89888,0 -3.43887,-1.51298 -3.43887,-3.37965c0,-1.86557 1.53999,-3.37856 3.43887,-3.37856zM20.4933,5.20692c0.8311,0 1.5067,0.6637 1.5067,1.48023c0,0.81763 -0.6756,1.48133 -1.5067,1.48133h-6.5755c-0.8322,0 -1.5077,-0.6637 -1.5077,-1.48133c0,-0.81653 0.6755,-1.48023 1.5077,-1.48023z" fill="#1B2437"/>
<path d="M5.43887,3.30859c1.89999,0 3.43887,1.51299 3.43887,3.37856c0,1.86667 -1.53888,3.37965 -3.43887,3.37965c-1.89888,0 -3.43887,-1.51298 -3.43887,-3.37965c0,-1.86557 1.53999,-3.37856 3.43887,-3.37856zM20.4933,5.20692c0.8311,0 1.5067,0.6637 1.5067,1.48023c0,0.81763 -0.6756,1.48133 -1.5067,1.48133h-6.5755c-0.8322,0 -1.5077,-0.6637 -1.5077,-1.48133c0,-0.81653 0.6755,-1.48023 1.5077,-1.48023z" fill="#1B2437"/>
<path d="M5.43887,14c1.89999,0 3.43887,1.513 3.43887,3.3786c0,1.8666 -1.53888,3.3796 -3.43887,3.3796c-1.89888,0 -3.43887,-1.513 -3.43887,-3.3796c0,-1.8656 1.53999,-3.3786 3.43887,-3.3786zM20.4933,15.8983c0.8311,0 1.5067,0.6637 1.5067,1.4803c0,0.8176 -0.6756,1.4813 -1.5067,1.4813h-6.5755c-0.8322,0 -1.5077,-0.6637 -1.5077,-1.4813c0,-0.8166 0.6755,-1.4803 1.5077,-1.4803z" fill="#1B2437"/>
<path d="M5.43887,14c1.89999,0 3.43887,1.513 3.43887,3.3786c0,1.8666 -1.53888,3.3796 -3.43887,3.3796c-1.89888,0 -3.43887,-1.513 -3.43887,-3.3796c0,-1.8656 1.53999,-3.3786 3.43887,-3.3786zM20.4933,15.8983c0.8311,0 1.5067,0.6637 1.5067,1.4803c0,0.8176 -0.6756,1.4813 -1.5067,1.4813h-6.5755c-0.8322,0 -1.5077,-0.6637 -1.5077,-1.4813c0,-0.8166 0.6755,-1.4803 1.5077,-1.4803z" fill="#1B2437"/>
<path d="M5.43887,14c1.89999,0 3.43887,1.513 3.43887,3.3786c0,1.8666 -1.53888,3.3796 -3.43887,3.3796c-1.89888,0 -3.43887,-1.513 -3.43887,-3.3796c0,-1.8656 1.53999,-3.3786 3.43887,-3.3786zM20.4933,15.8983c0.8311,0 1.5067,0.6637 1.5067,1.4803c0,0.8176 -0.6756,1.4813 -1.5067,1.4813h-6.5755c-0.8322,0 -1.5077,-0.6637 -1.5077,-1.4813c0,-0.8166 0.6755,-1.4803 1.5077,-1.4803z" fill="#1B2437"/>
</svg>
