<svg width="24" height="24" viewBox="0 0 24 24" fill="none" xmlns="http://www.w3.org/2000/svg">
<path fill-rule="evenodd" clip-rule="evenodd" d="M15.4712,20.4694l-0.0009,0.0008c-0.4518,0.4513 -0.9038,0.9026 -1.3553,1.3549c-1.2135,1.2156 -3.0262,1.2105 -4.24475,-0.0101c-0.4186,-0.4193 -0.83835,-0.8375 -1.2583,-1.2556l-0.18039,-0.1796c-1.04054,-1.0358 -2.08145,-2.0719 -3.10822,-3.1246c-1.91343,-1.9622 -2.82483,-4.3329 -2.6788,-7.0718c0.23666,-4.41857 3.37368,-7.95949 7.71916,-8.76654c4.0937,-0.76165 8.3285,1.43251 10.0959,5.21555c0.5992,1.28118 0.9013,2.6229 0.9114,4.29749c-0.0453,2.3153 -0.9366,4.5397 -2.7443,6.3707c-1.0467,1.0627 -2.1009,2.1155 -3.1555,3.1688zM12.0053,8.2415c-1.3494,0 -2.43204,1.07438 -2.43204,2.4211c0.00504,1.3468 1.07254,2.4212 2.40694,2.4262c1.3545,0.0051 2.432,-1.0693 2.432,-2.4211c0,-1.33669 -1.0775,-2.42116 -2.4069,-2.4262z" fill="#1B2437"/>
</svg>
