<svg width="24" height="24" viewBox="0 0 24 24" fill="none" xmlns="http://www.w3.org/2000/svg">
<path d="M21.371,10.9299c-0.0453,2.3153 -0.9366,4.5397 -2.7443,6.3707c-1.4955,1.5182 -3.0061,3.0163 -4.5117,4.5245c-1.2135,1.2156 -3.0262,1.2105 -4.24475,-0.0101c-1.51564,-1.5183 -3.04638,-3.0214 -4.54691,-4.5598c-1.91343,-1.9622 -2.82483,-4.3329 -2.6788,-7.0718c0.23666,-4.41857 3.37368,-7.95949 7.71916,-8.76654c4.0937,-0.76165 8.3285,1.43251 10.0959,5.21555c0.5992,1.28118 0.9013,2.6229 0.9114,4.29749zM12.0052,2.86451c-2.12487,-0.00505 -4.12894,0.86252 -5.66976,2.45644c-2.78454,2.88015 -2.84999,7.67205 -0.09566,10.57735c1.56095,1.6494 3.1924,3.2333 4.80372,4.8373c0.5791,0.575 1.3746,0.5397 1.9688,-0.0555c1.4955,-1.4931 3.0061,-2.971 4.4714,-4.4892c1.8782,-1.942 2.6284,-4.2673 2.1551,-6.94063c-0.6546,-3.6872 -3.8873,-6.37568 -7.6336,-6.38576z" fill="#1B2437"/>
<path d="M11.9953,14.6878c-2.2156,0 -4.0132,-1.7957 -4.01824,-4.01c-0.00503,-2.22445 1.79761,-4.03022 4.02324,-4.03022c2.2055,0 4.0031,1.80577 4.0081,4.02512c0.0051,2.2043 -1.8026,4.0151 -4.0131,4.0151zM11.9802,13.0888c1.3545,0.0051 2.432,-1.0693 2.432,-2.4211c0,-1.33669 -1.0775,-2.42116 -2.4069,-2.4262c-1.3494,0 -2.43204,1.07438 -2.43204,2.4211c0.00504,1.3468 1.07254,2.4212 2.40694,2.4262z" fill="#1B2437"/>
</svg>
