<svg width="24" height="24" viewBox="0 0 24 24" fill="none" xmlns="http://www.w3.org/2000/svg">
<path d="M11.977,22.0649c-2.37664,0 -4.75835,0 -7.13503,0c-1.64656,0 -2.87517,-1.2308 -2.87517,-2.8852c0,-1.3468 0,-2.6885 0,-4.0353c0,-0.3833 0.2014,-0.6607 0.53374,-0.7667c0.30212,-0.0958 0.6546,-0.0101 0.8258,0.2623c0.10071,0.1614 0.16112,0.3733 0.16616,0.565c0.0151,1.3013 0.00504,2.6077 0.01008,3.9091c0,0.8928 0.53374,1.4275 1.41996,1.4275c4.71308,0 9.43116,0 14.14426,0c0.9013,0 1.4401,-0.5398 1.4401,-1.4426c0,-1.3266 0,-2.6582 0,-3.9848c0,-0.3582 0.1863,-0.6154 0.5086,-0.7314c0.2971,-0.111 0.6445,-0.0303 0.8308,0.237c0.0957,0.1362 0.1662,0.3229 0.1712,0.4843c0.0101,1.4224 0.0302,2.8398 0,4.2622c-0.0302,1.5031 -1.2739,2.6885 -2.7694,2.6935c-2.4321,0.0101 -4.8491,0.0051 -7.2711,0.0051z" fill="#1B2437"/>
<path d="M11.2369,4.56712c-0.1309,0.12105 -0.1963,0.18159 -0.2618,0.24716c-1.18329,1.1904 -2.37164,2.37575 -3.55494,3.56614c-0.22659,0.22698 -0.49346,0.31777 -0.80062,0.22193c-0.30212,-0.09079 -0.47332,-0.30768 -0.52871,-0.61537c-0.05035,-0.30264 0.08561,-0.53466 0.29206,-0.74147c1.06749,-1.06934 2.13498,-2.13868 3.19744,-3.20802c0.59417,-0.5952 1.18327,-1.19039 1.77747,-1.78559c0.4179,-0.41865 0.8359,-0.4237 1.2437,-0.01513c1.6718,1.67462 3.3435,3.34924 5.0102,5.02891c0.3575,0.35813 0.3827,0.82219 0.0705,1.13996c-0.3172,0.32786 -0.7906,0.30265 -1.1581,-0.06052c-1.1733,-1.17527 -2.3465,-2.35557 -3.5147,-3.53084c-0.0655,-0.06557 -0.1158,-0.14628 -0.1712,-0.21689c-0.0302,0.01008 -0.0604,0.02521 -0.0856,0.0353c0,0.09079 0,0.18663 0,0.27742c0,3.36943 0,6.74389 0,10.11329c0,0.5549 -0.3525,0.8928 -0.8611,0.8323c-0.3474,-0.0404 -0.6143,-0.3127 -0.6495,-0.6608c-0.0101,-0.1059 -0.0101,-0.2169 -0.0101,-0.3278c0,-3.314 0,-6.62288 0,-9.93681c0.0051,-0.0908 0.005,-0.19168 0.005,-0.36317z" fill="#1B2437"/>
</svg>
