<svg width="24" height="24" viewBox="0 0 24 24" fill="none" xmlns="http://www.w3.org/2000/svg">
<path d="M11.7125,2.6702c2.4117,0 4.3912,1.87791 4.5024,4.23116l0.0049,0.20884v4.79h-6.1047c-0.43745,0 -0.78338,0.34 -0.78338,0.77c0,0.385 0.29068,0.7112 0.67608,0.7629l0.1073,0.0071h6.1047v4.78c0,2.38 -1.9107,4.3353 -4.3143,4.4451l-0.2133,0.0049h-4.95496c-2.42151,0 -4.40136,-1.8779 -4.51252,-4.2312l-0.00492,-0.2088v-11.11c0,-2.38972 1.92027,-4.33591 4.31511,-4.44517l0.21251,-0.00483zM18.76,9.2204c0.2727,-0.28182 0.7025,-0.30744 1.0038,-0.08438l0.0862,0.07438l2.92,2.91c0.15,0.15 0.23,0.34 0.23,0.55c0,0.16 -0.0512,0.32 -0.1485,0.4493l-0.0815,0.0907l-2.92,2.91c-0.15,0.15 -0.35,0.23 -0.54,0.23c-0.2,0 -0.4,-0.08 -0.55,-0.23c-0.2727,-0.2727 -0.2975,-0.7025 -0.0744,-1.0038l0.0744,-0.0862l1.6,-1.59l-4.1402,-0.0002v-1.54l4.1402,0.0002l-1.6,-1.59c-0.3,-0.3 -0.3,-0.79 0,-1.09z" fill="#1B2437"/>
</svg>
