<svg width="24" height="24" viewBox="0 0 24 24" fill="none" xmlns="http://www.w3.org/2000/svg">
<path d="M1.93538,11.977c0,-2.37667 0,-4.75838 0,-7.13506c0,-1.64656 1.23076,-2.87517 2.8852,-2.87517c1.34676,0 2.68848,0 4.03524,0c0.38335,0 0.66077,0.2014 0.76669,0.53373c0.09584,0.30212 0.01009,0.65461 -0.26229,0.82581c-0.1614,0.1007 -0.37326,0.16112 -0.56494,0.16615c-1.30136,0.01511 -2.60777,0.00505 -3.90913,0.01008c-0.8928,0 -1.42746,0.53375 -1.42746,1.41997c0,4.71308 0,9.43119 0,14.14429c0,0.9013 0.53971,1.4401 1.44259,1.4401c1.32658,0 2.65821,0 3.9848,0c0.35812,0 0.61537,0.1863 0.73138,0.5086c0.11097,0.297 0.03027,0.6445 -0.23706,0.8308c-0.13619,0.0957 -0.32283,0.1662 -0.48424,0.1712c-1.42242,0.0101 -2.8398,0.0302 -4.26222,0c-1.50312,-0.0302 -2.68847,-1.274 -2.69351,-2.7694c-0.01009,-2.4321 -0.00505,-4.8491 -0.00505,-7.2711z" fill="#1B2437"/>
<path d="M19.4331,11.2369c-0.121,-0.1309 -0.1816,-0.1964 -0.2471,-0.2618c-1.1904,-1.18332 -2.3758,-2.37167 -3.5662,-3.55497c-0.227,-0.22659 -0.3177,-0.49346 -0.2219,-0.80062c0.0908,-0.30212 0.3077,-0.47332 0.6154,-0.52871c0.3026,-0.05035 0.5346,0.08561 0.7414,0.29206c1.0694,1.06749 2.1387,2.13498 3.2081,3.19744c0.5951,0.5942 1.1903,1.1833 1.7855,1.7775c0.4187,0.4179 0.4237,0.8358 0.0152,1.2437c-1.6746,1.6717 -3.3493,3.3435 -5.0289,5.0102c-0.3582,0.3575 -0.8222,0.3826 -1.14,0.0705c-0.3279,-0.3173 -0.3026,-0.7906 0.0605,-1.1582c1.1753,-1.1732 2.3556,-2.3464 3.5309,-3.5146c0.0655,-0.0655 0.1462,-0.1159 0.2169,-0.1712c-0.0101,-0.0303 -0.0253,-0.0605 -0.0353,-0.0856c-0.0908,0 -0.1867,0 -0.2775,0c-3.3694,0 -6.7439,0 -10.11328,0c-0.55485,0 -0.8928,-0.3525 -0.83227,-0.8611c0.04035,-0.3474 0.31273,-0.6143 0.66077,-0.6495c0.10593,-0.0101 0.2169,-0.0101 0.32787,-0.0101c3.31391,0 6.62281,0 9.93681,0c0.0908,0.005 0.1916,0.005 0.3631,0.005z" fill="#1B2437"/>
</svg>
