<svg width="24" height="24" viewBox="0 0 24 24" fill="none" xmlns="http://www.w3.org/2000/svg">
<path d="M2,12.5961c0,-2.4117 1.87791,-4.39124 4.23116,-4.50238l0.20884,-0.00493h4.79v6.10461c0,0.4375 0.34,0.7835 0.77,0.7835c0.385,0 0.7112,-0.2907 0.7629,-0.6761l0.0071,-0.1074v-6.10461h4.78c2.38,0 4.3353,1.91067 4.4451,4.31431l0.0049,0.2133v4.955c0,2.4215 -1.8779,4.4013 -4.2312,4.5125l-0.2088,0.0049h-11.11c-2.38971,0 -4.3359,-1.9203 -4.44516,-4.3151l-0.00484,-0.2125zM8.5502,5.54859c-0.28182,-0.27272 -0.30744,-0.70248 -0.08437,-1.00375l0.07437,-0.08625l2.91,-2.92c0.15,-0.15 0.34,-0.23 0.55,-0.23c0.16,0 0.32,0.0512 0.4493,0.14848l0.0907,0.08152l2.91,2.92c0.15,0.15 0.23,0.35 0.23,0.54c0,0.2 -0.08,0.4 -0.23,0.55c-0.2727,0.27273 -0.7025,0.29752 -1.0038,0.07438l-0.0862,-0.07438l-1.59,-1.6l-0.0002,4.1402h-1.54l0.0002,-4.1402l-1.59,1.6c-0.3,0.3 -0.79,0.3 -1.09,0z" fill="#1B2437"/>
</svg>
