<svg width="24" height="24" viewBox="0 0 24 24" fill="none" xmlns="http://www.w3.org/2000/svg">
<path d="M12.0076,1.53614c5.7755,0.00504 10.4433,4.70105 10.4382,10.50676c-0.005,5.7704 -4.708,10.426 -10.5188,10.421c-5.72014,-0.005 -10.37783,-4.7313 -10.3728,-10.5219c0.00504,-5.72499 4.70805,-10.41091 10.4534,-10.40586zM9.56543,11.1804c1.64657,0 3.23777,0 4.83397,0c0,-0.1211 0.01,-0.222 0,-0.3229c-0.0957,-0.97346 -0.1612,-1.95705 -0.2921,-2.92551c-0.1561,-1.145 -0.433,-2.26982 -0.9013,-3.33916c-0.2115,-0.48422 -0.4482,-0.95837 -0.8711,-1.30641c-0.2568,-0.21185 -0.4129,-0.20681 -0.6697,0c-0.0756,0.06053 -0.1511,0.13115 -0.2166,0.21186c-0.4078,0.47918 -0.6545,1.04916 -0.866,1.63426c-0.4582,1.25093 -0.69491,2.55229 -0.84093,3.86879c-0.08057,0.71121 -0.11581,1.43247 -0.17624,2.17907zM9.60571,12.8096c0,0.1664 -0.01007,0.3127 0,0.4489c0.05539,0.7011 0.09567,1.4073 0.18127,2.1034c0.16114,1.3316 0.42802,2.6431 0.94662,3.894c0.2165,0.5296 0.4683,1.039 0.9014,1.4325c0.2668,0.2421 0.4833,0.2572 0.725,-0.0051c0.2367,-0.2572 0.4734,-0.5346 0.6194,-0.8423c0.2618,-0.5498 0.4935,-1.1198 0.6697,-1.6999c0.423,-1.377 0.5992,-2.7994 0.71,-4.2319c0.0251,-0.3632 0.0352,-0.7264 0.0503,-1.0996c-1.6214,0 -3.2024,0 -4.80369,0zM20.8194,11.1904c-0.2266,-2.17393 -1.0977,-4.01502 -2.6284,-5.52823c-1.0474,-1.03403 -2.2861,-1.76037 -3.7363,-2.17903c1.1531,2.47663 1.4351,5.07432 1.561,7.70726c1.5962,0 3.1773,0 4.8037,0zM3.18565,11.1854c1.61635,0 3.20248,0 4.80372,0c0.12085,-2.64308 0.4129,-5.24076 1.56095,-7.71234c-1.83286,0.55989 -3.31829,1.54347 -4.48145,3.01129c-1.08763,1.37198 -1.71201,2.93563 -1.88322,4.70105zM3.20076,12.8096c0.10071,1.72 0.9114,3.8385 2.52774,5.4476c1.06749,1.0693 2.32633,1.8209 3.81679,2.2546c-1.14806,-2.4766 -1.43507,-5.0743 -1.55592,-7.7073c-1.61131,0.0051 -3.18737,0.0051 -4.78861,0.0051zM16.0107,12.8096c-0.1209,2.6531 -0.4129,5.2408 -1.556,7.7123c1.9789,-0.6052 3.5349,-1.6998 4.7182,-3.324c0.9466,-1.3064 1.4904,-2.7641 1.6465,-4.3934c-1.6264,0.0051 -3.2025,0.0051 -4.8087,0.0051z" fill="#1B2437"/>
</svg>
