<svg width="24" height="24" viewBox="0 0 24 24" fill="none" xmlns="http://www.w3.org/2000/svg">
<path d="M9.76941,8.24033c0.17232,-1.55053 0.45159,-3.08323 0.99239,-4.55652c0.2495,-0.68913 0.5407,-1.36042 1.022,-1.92479c0.0773,-0.09505 0.1664,-0.17823 0.2555,-0.24952c0.3031,-0.24357 0.4873,-0.24951 0.7903,0c0.4992,0.40991 0.7785,0.96834 1.0281,1.53865c0.5526,1.25943 0.8794,2.58421 1.0636,3.93275c0.1545,1.14062 0.2318,2.29906 0.3447,3.4456c0.0118,0.1188 0,0.2376 0,0.3802h-5.70457c0.0713,-0.87921 0.1129,-1.72873 0.20798,-2.56637z" fill="#1B2437"/>
<path d="M4.25502,5.27592c1.37265,-1.72875 3.12561,-2.88718 5.28858,-3.5466c-1.35483,2.91095 -1.69948,5.97041 -1.84209,9.08338h-5.66888c0.20204,-2.07929 0.93887,-3.92091 2.22239,-5.53678z" fill="#1B2437"/>
<path d="M17.1734,10.8186c-0.1485,-3.10104 -0.4813,-6.16051 -1.8421,-9.0774c1.7114,0.49307 3.1732,1.34853 4.4092,2.56638c1.8064,1.78221 2.8344,3.95058 3.1018,6.51102z" fill="#1B2437"/>
<path d="M17.176,12.7256c1.8927,0 3.7499,0 5.6663,-0.006c-0.1842,1.9189 -0.826,3.6357 -1.9431,5.1744c-1.3964,1.9129 -3.2326,3.202 -5.5679,3.9149c1.3489,-2.9109 1.6936,-5.9585 1.8362,-9.0833z" fill="#1B2437"/>
<path d="M15.2778,12.7256c-0.0178,0.4396 -0.0297,0.8673 -0.0594,1.295c-0.1307,1.6872 -0.3387,3.3625 -0.8378,4.9843c-0.208,0.6832 -0.4814,1.3545 -0.7903,2.002c-0.1724,0.3624 -0.4517,0.6892 -0.7309,0.9921c-0.2853,0.3089 -0.5408,0.2911 -0.8557,0.006c-0.5111,-0.4634 -0.8082,-1.0634 -1.0637,-1.6872c-0.612,-1.4733 -0.927,-3.0179 -1.11712,-4.5862c-0.10101,-0.8198 -0.14855,-1.6515 -0.21392,-2.4773c-0.01188,-0.1604 0,-0.3327 0,-0.5287z" fill="#1B2437"/>
<path d="M2.05901,12.7256c1.88668,0 3.74386,0 5.6425,-0.006c0.14261,3.1011 0.48132,6.1605 1.83615,9.0774c-1.7589,-0.5109 -3.24446,-1.396 -4.50421,-2.6555c-1.90745,-1.895 -2.86415,-4.3902 -2.98299,-6.4159z" fill="#1B2437"/>
</svg>
