<svg width="24" height="24" viewBox="0 0 24 24" fill="none" xmlns="http://www.w3.org/2000/svg">
<path fill-rule="evenodd" clip-rule="evenodd" d="M19.6538,20.4806c-1.219,-0.6061 -2.4381,-1.2161 -3.6538,-1.83v-15.74425c1.3086,0.65839 2.6194,1.31449 3.929,1.96997l0.0017,0.00086l0.0017,0.00087l1.4133,0.70752c0.7402,0.37326 1.1027,0.97351 1.1027,1.79569v11.37434c0,1.5233 -1.43,2.406 -2.7946,1.725z" fill="#1B2437"/>
<path d="M12.1071,19.8117c-0.8529,0.4272 -1.7059,0.8544 -2.5571,1.2844v-15.73213c0.5523,-0.27749 1.1054,-0.55457 1.658,-0.83139c1.0818,-0.54196 2.1634,-1.0838 3.242,-1.63005v15.73287c-0.7784,0.3927 -1.5582,0.7832 -2.3379,1.1738l-0.0012,0.0006l-0.0017,0.0008z" fill="#1B2437"/>
<path d="M1.56183,10.9171v-5.66444c0,-1.54348 1.41997,-2.42113 2.79965,-1.7301c1.21125,0.6045 2.42624,1.21275 3.63852,1.82474v15.744c-1.76842,-0.8919 -3.53708,-1.7752 -5.31026,-2.6585c-0.76537,-0.3834 -1.13798,-0.9937 -1.13798,-1.8563c0.01007,-1.8809 0.01007,-3.7669 0.01007,-5.658z" fill="#1B2437"/>
</svg>
