<svg width="24" height="24" viewBox="0 0 24 24" fill="none" xmlns="http://www.w3.org/2000/svg">
<path d="M1.56183,10.9171c0,-1.88646 0,-3.77293 0,-5.66445c0,-1.54348 1.41997,-2.42113 2.79965,-1.7301c1.40486,0.70112 2.81475,1.40729 4.21961,2.1185c0.15106,0.07566 0.26688,0.07566 0.41794,0c1.91347,-0.96341 3.83187,-1.91675 5.74027,-2.8852c0.3273,-0.16646 0.6244,-0.16645 0.9517,-0.00504c1.8832,0.94828 3.7715,1.89151 5.6547,2.83475c0.7402,0.37326 1.1027,0.97351 1.1027,1.79569c0,3.79315 0,7.58125 0,11.37435c0,1.5233 -1.43,2.406 -2.7946,1.725c-1.3998,-0.696 -2.7996,-1.3972 -4.1944,-2.1033c-0.1763,-0.0858 -0.3072,-0.0959 -0.4885,-0.0051c-1.9033,0.9634 -3.8167,1.9117 -5.72011,2.8751c-0.33233,0.1665 -0.62941,0.1614 -0.95168,-0.005c-1.86811,-0.9433 -3.73622,-1.8764 -5.60937,-2.8096c-0.76537,-0.3833 -1.13798,-0.9936 -1.13798,-1.8562c0.01007,-1.8814 0.01007,-3.7679 0.01007,-5.6594zM9.58816,19.2902c0.11078,-0.0504 0.18631,-0.0857 0.26184,-0.121c1.4451,-0.7213 2.8853,-1.4477 4.3304,-2.1639c0.1813,-0.0908 0.2518,-0.1866 0.2518,-0.3934c-0.0051,-3.8638 -0.0051,-7.73258 -0.0051,-11.59632c0,-0.08575 0,-0.17654 0,-0.29759c-0.1108,0.05044 -0.1863,0.08574 -0.2618,0.12105c-1.4452,0.7213 -2.8853,1.44765 -4.33041,2.1639c-0.18127,0.0908 -0.25176,0.18662 -0.25176,0.39343c0.00503,3.86373 0.00503,7.73253 0.00503,11.59623c0,0.0807 0,0.1614 0,0.2976zM7.98189,19.2902c0.00503,-0.0857 0.01007,-0.1261 0.01007,-0.1664c0,-3.9344 0,-7.8637 0.00503,-11.79804c0,-0.16141 -0.06042,-0.23707 -0.19638,-0.30265c-1.36457,-0.6759 -2.72411,-1.36189 -4.08869,-2.04283c-0.40283,-0.20177 -0.55892,-0.10593 -0.55892,0.33794c0,3.73764 -0.00001,7.48038 -0.00504,11.21798c0,0.2572 0.09567,0.3934 0.31723,0.5044c1.425,0.7062 2.84496,1.4174 4.26493,2.1286c0.07049,0.0403 0.14602,0.0706 0.25177,0.121zM16.0183,4.71294c0,0.09079 0,0.13115 0,0.1715c0,3.93436 0,7.86366 -0.005,11.79806c0,0.1614 0.0604,0.237 0.1963,0.3026c1.3646,0.6759 2.7242,1.3619 4.0837,2.0378c0.4028,0.2018 0.5589,0.1059 0.5589,-0.338c0,-3.7376 0,-7.4803 0.0051,-11.21791c0,-0.25724 -0.0856,-0.39343 -0.3122,-0.5044c-1.425,-0.70617 -2.845,-1.41738 -4.265,-2.12859c-0.0705,-0.04035 -0.146,-0.07062 -0.2618,-0.12106z" fill="#1B2437"/>
</svg>
