<svg width="24" height="24" viewBox="0 0 24 24" fill="none" xmlns="http://www.w3.org/2000/svg">
<path fill-rule="evenodd" clip-rule="evenodd" d="M2,6c0,-0.55228 0.44772,-1 1,-1h18c0.5523,0 1,0.44772 1,1c0,0.55228 -0.4477,1 -1,1h-18c-0.55228,0 -1,-0.44772 -1,-1zM2,12c0,-0.5523 0.44772,-1 1,-1h12c0.5523,0 1,0.4477 1,1c0,0.5523 -0.4477,1 -1,1h-12c-0.55228,0 -1,-0.4477 -1,-1zM2,18c0,-0.5523 0.44772,-1 1,-1h18c0.5523,0 1,0.4477 1,1c0,0.5523 -0.4477,1 -1,1h-18c-0.55228,0 -1,-0.4477 -1,-1z" fill="#1B2437"/>
</svg>
