<svg width="24" height="24" viewBox="0 0 24 24" fill="none" xmlns="http://www.w3.org/2000/svg">
<path fill-rule="evenodd" clip-rule="evenodd" d="M2,6c0,-2.20914 1.79086,-4 4,-4h12c2.2091,0 4,1.79086 4,4v12c0,2.2091 -1.7909,4 -4,4h-12c-2.20914,0 -4,-1.7909 -4,-4zM6,9c0,0.55228 0.44772,1 1,1h10c0.5523,0 1,-0.44772 1,-1c0,-0.55228 -0.4477,-1 -1,-1h-10c-0.55228,0 -1,0.44772 -1,1zM17,14h-10c-0.55228,0 -1,0.4477 -1,1c0,0.5523 0.44772,1 1,1h10c0.5523,0 1,-0.4477 1,-1c0,-0.5523 -0.4477,-1 -1,-1z" fill="#1B2437"/>
</svg>
