<svg width="24" height="24" viewBox="0 0 24 24" fill="none" xmlns="http://www.w3.org/2000/svg">
<path d="M22,7.53516c0,2.96484 0,5.92574 0,8.89064c-0.0234,0.1445 -0.0508,0.289 -0.0742,0.4375c-0.4453,2.9336 -2.9531,5.0937 -5.9141,5.0937c-2.664,0 -5.3281,0 -7.99217,0c-0.2539,0 -0.50781,-0.0117 -0.75781,-0.0468c-3.02734,-0.4141 -5.21875,-2.9297 -5.21875,-5.9883c0,-2.6133 -0.00391,-5.2227 0.00391,-7.83596c0,-0.33594 0.02734,-0.67578 0.07421,-1.00782c0.33203,-2.38281 2.21094,-4.40624 4.5586,-4.91796c0.29687,-0.06641 0.59765,-0.10938 0.89453,-0.16016c2.96488,0 5.92578,0 8.89058,0c0.1524,0.02734 0.3008,0.05469 0.4532,0.07812c2.4023,0.34766 4.4023,2.20704 4.9258,4.58594c0.0624,0.28516 0.1054,0.58203 0.1562,0.8711zM20.5156,11.9648c0,-1.3007 0.0039,-2.59761 0,-3.89839c0,-0.22657 -0.0117,-0.45704 -0.0429,-0.67969c-0.3321,-2.27735 -2.211,-3.89844 -4.5196,-3.89844c-2.6172,0 -5.2383,0 -7.85544,0c-0.22657,0 -0.45704,0.01172 -0.67969,0.04297c-2.29297,0.35156 -3.89063,2.21484 -3.89063,4.52734c0,2.61331 0,5.22261 0,7.83591c0,0.2188 0.01172,0.4414 0.03907,0.6602c0.29296,2.2383 2.1914,3.9101 4.46484,3.918c2.65625,0.0078 5.31645,0.0039 7.97265,0c0.7266,0 1.4258,-0.1524 2.0625,-0.5c1.6094,-0.8829 2.4258,-2.2579 2.4453,-4.0899c0.0156,-1.3086 0.0039,-2.6133 0.0039,-3.918z" fill="#1B2437"/>
<path d="M5.54297,11.9805c0,-1.3125 0,-2.62503 0,-3.93753c0,-1.46875 1.07422,-2.53906 2.54687,-2.53906c0.47266,0 0.94922,0 1.42188,0c1.41018,0.0039 2.49998,1.09765 2.49998,2.51171c0.0039,2.64848 0.0039,5.30078 0,7.94918c0,1.3868 -1.1015,2.4844 -2.48436,2.4883c-0.5,0.0039 -1,0.0039 -1.5,0c-1.40234,-0.0078 -2.48437,-1.0937 -2.48437,-2.5039c0,-1.3203 0,-2.6445 0,-3.9687z" fill="#1B2437"/>
<path d="M15.8477,11.9805c0.4453,0.4648 0.8789,0.914 1.3085,1.3633c0.3946,0.4101 0.7969,0.8203 1.1836,1.2382c0.2696,0.293 0.2852,0.7344 0.0586,1.043c-0.2265,0.3047 -0.6289,0.4297 -0.9687,0.2773c-0.1172,-0.0507 -0.2266,-0.1328 -0.3125,-0.2226c-0.9883,-1.0195 -1.9727,-2.0469 -2.957,-3.0742c-0.3711,-0.3867 -0.375,-0.8633 -0.0039,-1.25c0.9882,-1.0313 1.9765,-2.06253 2.9687,-3.08988c0.332,-0.34374 0.8242,-0.36718 1.1523,-0.0664c0.3555,0.32422 0.3829,0.83984 0.043,1.19922c-0.707,0.74996 -1.4297,1.48826 -2.1445,2.23436c-0.1055,0.1133 -0.207,0.2188 -0.3281,0.3477z" fill="#1B2437"/>
</svg>
