<svg width="24" height="24" viewBox="0 0 24 24" fill="none" xmlns="http://www.w3.org/2000/svg">
<path fill-rule="evenodd" clip-rule="evenodd" d="M9.51172,5.50391c1.41018,0.0039 2.49998,1.09765 2.49998,2.51171c0.001,0.66472 0.0017,1.32968 0.0022,1.99478c-0.0005,-0.6625 -0.0012,-1.32486 -0.0022,-1.98696c0,-1.41406 -1.0898,-2.50781 -2.49998,-2.51172h-1.42188c-1.47265,0 -2.54687,1.07031 -2.54687,2.53906v-0.00781c0,-1.46875 1.07422,-2.53906 2.54687,-2.53906z" fill="#1B2437"/>
<path fill-rule="evenodd" clip-rule="evenodd" d="M17.4548,13.6531l0.0009,0.001c0.2969,0.3071 0.5949,0.6153 0.8841,0.9279c0.1454,0.158 0.2169,0.3591 0.2164,0.5593c-0.0005,-0.1989 -0.072,-0.3984 -0.2164,-0.5554c-0.2463,-0.2662 -0.4989,-0.5276 -0.7519,-0.7894c-0.1441,-0.1492 -0.2884,-0.2985 -0.4317,-0.4488c-0.2333,-0.2461 -0.4665,-0.4901 -0.703,-0.7365c0.2363,0.2458 0.4703,0.4892 0.703,0.7326c0.0992,0.103 0.1989,0.2061 0.2986,0.3093zM17.125,8.26562c0.332,-0.34374 0.8242,-0.36718 1.1523,-0.0664c0.1873,0.17076 0.2835,0.39462 0.2829,0.62078c-0.0005,-0.22483 -0.0967,-0.4471 -0.2829,-0.61688c-0.3281,-0.30078 -0.8203,-0.27734 -1.1523,0.06641c-0.9922,1.02735 -1.9805,2.05467 -2.9687,3.08987c-0.1841,0.1917 -0.2759,0.4056 -0.2764,0.6196c-0.0006,-0.2153 0.0912,-0.4306 0.2764,-0.6235c0.9882,-1.0313 1.9765,-2.06253 2.9687,-3.08988zM15.9966,11.8229l-0.0232,0.0244c0.0096,-0.0101 0.0191,-0.0202 0.0285,-0.0302c0.0323,-0.0344 0.0637,-0.0678 0.0951,-0.1003z" fill="#1B2437"/>
<path fill-rule="evenodd" clip-rule="evenodd" d="M16.0019,11.8171l0.0951,-0.1003l-0.1004,0.1061z" fill="#1B2437"/>
<path fill-rule="evenodd" clip-rule="evenodd" d="M21.9659,16.6256l-0.0061,0.034c-0.0116,0.0668 -0.0232,0.1333 -0.034,0.1998c-0.4453,2.9336 -2.9492,5.0937 -5.9141,5.0937c-2.664,0.0039 -5.3281,0.0039 -7.99217,0c-0.25391,0 -0.50781,-0.0117 -0.75781,-0.0469c-2.09227,-0.2834 -3.78527,-1.5726 -4.63151,-3.3516c-0.02906,-0.0611 -0.05711,-0.1228 -0.08416,-0.185c-0.03636,-0.0837 -0.0709,-0.1684 -0.10354,-0.254c-0.02729,-0.0716 -0.05326,-0.1438 -0.07789,-0.2167c-0.20918,-0.6191 -0.32165,-1.2841 -0.32165,-1.977c0,-2.6133 -0.00391,-5.2227 0.00391,-7.83596c0.0039,-0.33594 0.02734,-0.67578 0.07421,-1.00782c0.33203,-2.38281 2.21094,-4.40624 4.5586,-4.91796c0.18405,-0.03875 0.36959,-0.06999 0.55478,-0.10117c0.11353,-0.01911 0.22692,-0.03821 0.33975,-0.05899h8.89058c0.1485,0.02734 0.3008,0.05469 0.4532,0.07812c0.3003,0.04346 0.5943,0.11054 0.8799,0.1993c1.9993,0.62132 3.5878,2.3051 4.0459,4.38664c0.0624,0.28516 0.1054,0.58203 0.1562,0.8711v8.88674c-0.0108,0.0686 -0.0223,0.1363 -0.0341,0.2037zM5.54297,15.957c0,1.4063 1.08203,2.4961 2.48437,2.5039c0.5,0.0039 1,0.0039 1.5,0c1.38286,-0.0078 2.48436,-1.1054 2.48436,-2.4882c0.0011,-0.7465 0.0019,-1.4934 0.0024,-2.2403c0.0008,-1.2406 0.0007,-2.4815 -0.0002,-3.722c-0.0005,-0.6651 -0.0012,-1.33006 -0.0022,-1.99478c0,-1.41406 -1.0898,-2.50781 -2.49998,-2.51171h-1.42188c-1.47265,0 -2.54687,1.07031 -2.54687,2.53906v0.00781v3.92972v3.9687zM17.4297,15.9062c0.3437,0.1524 0.7461,0.0313 0.9687,-0.2773c0.0992,-0.135 0.1519,-0.2954 0.1574,-0.4577c0.0001,-0.0051 0.0002,-0.0101 0.0003,-0.0152c0.0001,-0.0049 0.0001,-0.0098 0.0001,-0.0147c0.0005,-0.2002 -0.071,-0.4013 -0.2164,-0.5593c-0.2892,-0.3126 -0.5872,-0.6208 -0.8841,-0.9279l-0.0009,-0.001c-0.0997,-0.1032 -0.1994,-0.2063 -0.2986,-0.3093c-0.2327,-0.2434 -0.4667,-0.4868 -0.703,-0.7326l-0.2619,-0.2726l-0.3436,-0.3581c0.0377,-0.0402 0.0735,-0.0782 0.1082,-0.1148c0.0059,-0.0061 0.0117,-0.0123 0.0175,-0.0184l0.0232,-0.0244l0.1004,-0.1061c0.0263,-0.0271 0.0524,-0.0537 0.0788,-0.0801l0.4355,-0.4518c0.5707,-0.5919 1.1423,-1.1847 1.709,-1.78256c0.1619,-0.17118 0.2405,-0.37782 0.2399,-0.58234c0.0006,-0.22616 -0.0956,-0.45002 -0.2829,-0.62078c-0.3281,-0.30078 -0.8203,-0.27734 -1.1523,0.0664c-0.9922,1.02735 -1.9805,2.05858 -2.9687,3.08988c-0.1852,0.1929 -0.277,0.4082 -0.2764,0.6235c-0.0006,0.2176 0.0932,0.4354 0.2803,0.6304c0.9843,1.0273 1.9687,2.0508 2.957,3.0742c0.0898,0.0898 0.1992,0.1719 0.3125,0.2226z" fill="#1B2437"/>
<path fill-rule="evenodd" clip-rule="evenodd" d="M21.9659,16.6256c0.0118,-0.0674 0.0233,-0.1351 0.0341,-0.2037v0.0039c-0.0108,0.0664 -0.0224,0.1329 -0.0341,0.1998zM21.9258,16.8633c-0.4453,2.9336 -2.9531,5.0937 -5.9141,5.0937h-7.99217c-0.2539,0 -0.50781,-0.0117 -0.75781,-0.0468c-2.09231,-0.2862 -3.78529,-1.5762 -4.63151,-3.3556c0.84624,1.779 2.53924,3.0682 4.63151,3.3516c0.25,0.0352 0.5039,0.0469 0.75781,0.0469c2.66407,0.0039 5.32817,0.0039 7.99217,0c2.9649,0 5.4688,-2.1601 5.9141,-5.0937c0.0108,-0.0665 0.0224,-0.133 0.034,-0.1998l0.0061,-0.034c-0.0137,0.0785 -0.0275,0.1575 -0.0401,0.2377zM2.04688,8.08594c0,-0.33594 0.02734,-0.67578 0.07421,-1.00782c-0.04687,0.33204 -0.07031,0.67188 -0.07421,1.00782zM7.34216,2.03855c0.07752,-0.01269 0.15492,-0.02536 0.23206,-0.03855c-0.11283,0.02078 -0.22622,0.03988 -0.33975,0.05899c-0.18519,0.03118 -0.37073,0.06242 -0.55478,0.10117c0.21974,-0.04916 0.44162,-0.08547 0.66247,-0.12161zM16.918,2.07812c-0.1524,-0.02343 -0.3047,-0.05078 -0.4532,-0.07812l0.0604,0.01085c0.1314,0.02367 0.2606,0.04694 0.3928,0.06727zM8.02734,18.4531c0.5,0.0039 1,0.0039 1.5,0c1.38286,-0.0039 2.48436,-1.1015 2.48436,-2.4883c0.0011,-0.7439 0.0019,-1.4881 0.0024,-2.2324c-0.0005,0.7469 -0.0013,1.4938 -0.0024,2.2403c0,1.3828 -1.1015,2.4804 -2.48436,2.4882c-0.5,0.0039 -1,0.0039 -1.5,0c-1.40234,-0.0078 -2.48437,-1.0976 -2.48437,-2.5039v-0.0078c0,1.4102 1.08203,2.4961 2.48437,2.5039zM9.51172,5.50391c1.41018,0.0039 2.49998,1.09765 2.49998,2.51171c0.001,0.66472 0.0017,1.32968 0.0022,1.99478c-0.0005,-0.6625 -0.0012,-1.32486 -0.0022,-1.98696c0,-1.41406 -1.0898,-2.50781 -2.49998,-2.51172h-1.42188c-1.47265,0 -2.54687,1.07031 -2.54687,2.53906v-0.00781c0,-1.46875 1.07422,-2.53906 2.54687,-2.53906zM16.097,11.7168l-0.1004,0.1061l-0.0232,0.0244c-0.0401,0.0423 -0.0816,0.0862 -0.1257,0.1332l0.0489,-0.0522c0.0201,-0.0214 0.0399,-0.0422 0.0593,-0.0626c0.0059,-0.0061 0.0117,-0.0123 0.0175,-0.0184l0.0285,-0.0302c0.0323,-0.0344 0.0637,-0.0678 0.0951,-0.1003c0.0263,-0.0278 0.0524,-0.0557 0.0788,-0.084c0.2595,-0.2709 0.5201,-0.5407 0.7805,-0.8105c0.457,-0.4732 0.9137,-0.94616 1.364,-1.42386c0.1609,-0.1701 0.2395,-0.3752 0.2399,-0.57844c-0.0005,-0.22483 -0.0967,-0.4471 -0.2829,-0.61688c-0.3281,-0.30078 -0.8203,-0.27734 -1.1523,0.06641c-0.9922,1.02735 -1.9805,2.05467 -2.9687,3.08987c-0.1841,0.1917 -0.2759,0.4056 -0.2764,0.6196c0.0005,0.2163 0.0943,0.4327 0.2803,0.6265c0.9843,1.0273 1.9687,2.0547 2.957,3.0742c0.0859,0.0898 0.1953,0.1719 0.3125,0.2226c0.3398,0.1524 0.7422,0.0274 0.9687,-0.2773c0.0984,-0.1339 0.1512,-0.2929 0.1574,-0.4538c-0.0055,0.1623 -0.0582,0.3227 -0.1574,0.4577c-0.2226,0.3086 -0.625,0.4297 -0.9687,0.2773c-0.1133,-0.0507 -0.2227,-0.1328 -0.3125,-0.2226c-0.9883,-1.0234 -1.9727,-2.0469 -2.957,-3.0742c-0.1871,-0.195 -0.2809,-0.4128 -0.2803,-0.6304c-0.0006,-0.2153 0.0912,-0.4306 0.2764,-0.6235c0.9882,-1.0313 1.9765,-2.06253 2.9687,-3.08988c0.332,-0.34374 0.8242,-0.36718 1.1523,-0.0664c0.1873,0.17076 0.2835,0.39462 0.2829,0.62078c0.0006,0.20452 -0.078,0.41116 -0.2399,0.58234c-0.5667,0.59786 -1.1383,1.19066 -1.709,1.78256l-0.4355,0.4518c-0.0264,0.0264 -0.0525,0.053 -0.0788,0.0801zM16.4532,12.6112c0.2363,0.2458 0.4703,0.4892 0.703,0.7326c0.0992,0.103 0.1989,0.2061 0.2986,0.3093l0.0009,0.001c0.2969,0.3071 0.5949,0.6153 0.8841,0.9279c0.1454,0.158 0.2169,0.3591 0.2164,0.5593c-0.0005,-0.1989 -0.072,-0.3984 -0.2164,-0.5554c-0.2463,-0.2662 -0.4989,-0.5276 -0.7519,-0.7894c-0.1441,-0.1492 -0.2884,-0.2985 -0.4317,-0.4488c-0.2333,-0.2461 -0.4665,-0.4901 -0.703,-0.7365l-0.2274,-0.2366l-0.0345,-0.036z" fill="#1B2437"/>
</svg>
