<svg width="24" height="24" viewBox="0 0 24 24" fill="none" xmlns="http://www.w3.org/2000/svg">
<path d="M11.9942,15.4993c2.8299,0 5.6597,0 8.4896,0c0.5992,0 0.9718,0.4237 0.861,0.9635c-0.0705,0.343 -0.3575,0.5952 -0.7251,0.6305c-0.0604,0.005 -0.1158,0 -0.1762,0c-5.6346,0 -11.26909,0 -16.90364,0c-0.49346,0 -0.81574,-0.2321 -0.8963,-0.6305c-0.10071,-0.5044 0.2417,-0.9534 0.76034,-0.9635c0.51864,-0.01 1.03727,-0.005 1.55591,-0.005c2.34647,0.005 4.68791,0.005 7.03439,0.005z" fill="#1B2437"/>
<path d="M11.969,8.49822c-2.82985,0 -5.65972,0 -8.48958,0c-0.57403,0 -0.94161,-0.43379 -0.83083,-0.96342c0.06546,-0.31273 0.30716,-0.5498 0.62942,-0.61033c0.09063,-0.01513 0.18127,-0.02017 0.27694,-0.02017c5.63455,0 11.26915,0 16.90365,0c0.5136,0 0.8409,0.24716 0.9064,0.68599c0.0705,0.45901 -0.2619,0.87262 -0.7251,0.90793c-0.0907,0.00504 -0.1864,0.00504 -0.277,0.00504c-2.8047,-0.00504 -5.5993,-0.00504 -8.3939,-0.00504z" fill="#1B2437"/>
</svg>
