<svg width="24" height="24" viewBox="0 0 24 24" fill="none" xmlns="http://www.w3.org/2000/svg">
<path fill-rule="evenodd" clip-rule="evenodd" d="M16.6589,2c3.33,0 5.841,2.717 5.841,6.32v6.868c0,1.844 -0.652,3.51 -1.837,4.692c-1.063,1.059 -2.442,1.62 -3.988,1.62h-9.85302c-1.543,0 -2.921,-0.56 -3.985,-1.62c-1.185,-1.182 -1.837,-2.848 -1.837,-4.692v-6.868c0,-3.603 2.511,-6.32 5.841,-6.32zM18.1259,9.1838c0.321,-0.262 0.37,-0.734 0.109,-1.055c-0.262,-0.322 -0.734,-0.372 -1.056,-0.109l-4.436,3.606c-0.567,0.45 -1.36,0.45 -1.923,0.004l-4.48102,-3.612c-0.322,-0.259 -0.794,-0.208 -1.055,0.113c-0.259,0.322 -0.209,0.795 0.114,1.055l4.485,3.616c0.55802,0.442 1.22502,0.663 1.89402,0.663c0.671,0 1.343,-0.223 1.905,-0.669z" fill="#1B2437"/>
</svg>
