<svg width="24" height="24" viewBox="0 0 24 24" fill="none" xmlns="http://www.w3.org/2000/svg">
<path fill-rule="evenodd" clip-rule="evenodd" d="M16.6589,2c3.33,0 5.841,2.717 5.841,6.32v6.868c0,1.844 -0.652,3.51 -1.837,4.692c-1.063,1.059 -2.442,1.62 -3.988,1.62h-9.853c-1.543,0 -2.921,-0.56 -3.985,-1.62c-1.185,-1.182 -1.837,-2.848 -1.837,-4.692v-6.868c0,-3.603 2.511,-6.32 5.841,-6.32zM16.6589,3.5h-9.818c-2.515,0 -4.341,2.027 -4.341,4.82v6.868c0,1.443 0.496,2.732 1.396,3.629c0.776,0.775 1.789,1.183 2.929,1.183h9.834c0.002,-0.002 0.01,0 0.016,0c1.141,0 2.153,-0.408 2.929,-1.183c0.901,-0.897 1.396,-2.186 1.396,-3.629v-6.868c0,-2.793 -1.826,-4.82 -4.341,-4.82zM18.2349,8.1288c0.261,0.321 0.212,0.793 -0.109,1.055l-4.444,3.612c-0.562,0.446 -1.234,0.669 -1.905,0.669c-0.669,0 -1.336,-0.221 -1.894,-0.663l-4.485,-3.616c-0.323,-0.26 -0.373,-0.733 -0.114,-1.055c0.261,-0.321 0.733,-0.372 1.055,-0.113l4.481,3.612c0.563,0.446 1.356,0.446 1.923,-0.004l4.436,-3.606c0.322,-0.263 0.794,-0.213 1.056,0.109z" fill="#1B2437"/>
</svg>
