<svg width="24" height="24" viewBox="0 0 24 24" fill="none" xmlns="http://www.w3.org/2000/svg">
<path fill-rule="evenodd" clip-rule="evenodd" d="M11.8892,15.1241v0.0048z" fill="#1B2437"/>
<path d="M10.2795,8.94697c-0.0005,-0.07679 0.0166,-0.10369 0.0992,-0.10313c0.3711,0.00129 0.7423,0.00122 1.1135,0.00115c0.5962,-0.00012 1.1924,-0.00023 1.7886,0.00529c0.3863,0.00365 0.7449,0.11491 1.0503,0.36546c0.556,0.4557 0.5537,1.09436 -0.0059,1.54586c-0.3116,0.2514 -0.6749,0.3484 -1.0675,0.3546c-0.1691,0.0027 -0.3384,0.0028 -0.5077,0.0028l-0.1793,0.0003c-0.1522,0.0003 -0.3042,0.0002 -0.4562,0.0001h-0.0018l-0.2291,-0.0001c-0.1302,0 -0.2604,-0.0003 -0.3906,-0.0006l-0.0677,-0.0001c-0.338,-0.0006 -0.6759,-0.001 -1.0138,0.0035c-0.1072,0.0014 -0.1297,-0.0292 -0.1291,-0.1318c0.0036,-0.681 0.0011,-1.3623 -0.0029,-2.04333z" fill="#1B2437"/>
<path d="M10.2824,12.9774c-0.0006,-0.0987 0.0278,-0.1236 0.1249,-0.1231c0.4187,0.0016 0.8374,0.0014 1.2561,0.0011c0.5296,-0.0003 1.0592,-0.0006 1.5887,0.0029c0.481,0.003 0.9078,0.1558 1.2396,0.5198c0.3415,0.3745 0.3423,0.8442 0.0071,1.2236c-0.2951,0.3341 -0.6753,0.4997 -1.1108,0.5157c-0.3479,0.0127 -0.6963,0.0098 -1.0446,0.0068c-0.1515,-0.0013 -0.303,-0.0026 -0.4544,-0.0026l0.0002,0.0025v0.0048l-0.3798,-0.0003c-0.3639,-0.0004 -0.7278,-0.0008 -1.0917,0.0023c-0.096,0.0008 -0.1373,-0.0112 -0.1362,-0.125c0.0065,-0.6763 0.0051,-1.3526 0.0009,-2.0285z" fill="#1B2437"/>
<path fill-rule="evenodd" clip-rule="evenodd" d="M12.0944,1.00002c5.9917,0.00517 10.9082,4.9624 10.9082,10.99998c-0.0104,6.0945 -4.9268,11.0052 -11.0323,11c-6.04865,-0.0052 -10.96511,-4.921 -10.97028,-10.9845c-0.01034,-6.12545 4.9268,-11.02582 11.09438,-11.01548zM9.54949,7.11177c-0.6017,0.00561 -1.00742,0.41759 -1.00798,1.0179c-0.00079,0.89852 -0.00061,1.79717 -0.00043,2.69573l0.00015,1.1553h-0.00618l-0.00003,0.6255c-0.00008,1.0426 -0.00015,2.0851 0.00172,3.1274c0.00028,0.1208 0.0028,0.2447 0.02807,0.3618c0.098,0.4535 0.4456,0.7517 0.91168,0.7637c0.48705,0.0126 0.97461,0.0088 1.46191,0.0051l0.109,-0.0008c0.1031,-0.0006 0.1365,0.0241 0.1348,0.1314l-0.0004,0.0243l-0.002,0.1265c-0.0045,0.2951 -0.0069,0.5905 0.0075,0.885c0.0202,0.4114 0.3647,0.7402 0.7738,0.7651c0.534,0.0325 0.9201,-0.3413 0.9291,-0.9052c0.0047,-0.3035 0.005,-0.607 -0.0014,-0.9103c-0.0023,-0.1006 0.0308,-0.1281 0.1272,-0.1227c0.1257,0.0067 0.2526,0.005 0.3784,-0.0031c0.8455,-0.0544 1.6094,-0.3117 2.2316,-0.9103c1.2574,-1.2093 1.0471,-2.9433 0.0186,-3.8648c-0.0795,-0.0711 -0.0736,-0.1056 0.0019,-0.1776c0.5293,-0.5059 0.8314,-1.1239 0.8412,-1.8593c0.0141,-1.05598 -0.4967,-1.83258 -1.3614,-2.38973c-0.6169,-0.39769 -1.3079,-0.55519 -2.0396,-0.54258c-0.1932,0.00331 -0.1932,0.00037 -0.1964,-0.19105l-0.0001,-0.00849c-0.002,-0.11032 -0.0003,-0.22076 0.0014,-0.33121c0.0033,-0.22093 0.0067,-0.44193 -0.0191,-0.66203c-0.0416,-0.35312 -0.3667,-0.70177 -0.6865,-0.74156c-0.5571,-0.06923 -1.0018,0.31977 -1.0066,0.88281l-0.0007,0.07751l-0.0004,0.05208c-0.0022,0.26032 -0.0039,0.52061 0.0033,0.78069c0.0031,0.11547 -0.0269,0.14882 -0.1454,0.14685c-0.4956,-0.00756 -0.9911,-0.00868 -1.48671,-0.00392zM10.2824,12.9774c-0.0006,-0.0987 0.0278,-0.1236 0.1249,-0.1231c0.4187,0.0016 0.8374,0.0014 1.2561,0.0011c0.5296,-0.0003 1.0592,-0.0006 1.5887,0.0029c0.481,0.003 0.9078,0.1558 1.2396,0.5198c0.3415,0.3745 0.3423,0.8442 0.0071,1.2236c-0.2951,0.3341 -0.6753,0.4997 -1.1108,0.5157c-0.3479,0.0127 -0.6963,0.0098 -1.0446,0.0068c-0.1515,-0.0013 -0.303,-0.0026 -0.4544,-0.0026l0.0002,0.0025v0.0048l-0.3798,-0.0003c-0.3639,-0.0004 -0.7278,-0.0008 -1.0917,0.0023c-0.096,0.0008 -0.1373,-0.0112 -0.1362,-0.125c0.0065,-0.6763 0.0051,-1.3526 0.0009,-2.0285zM10.2795,8.94697c-0.0005,-0.07679 0.0166,-0.10369 0.0992,-0.10313c0.3711,0.00129 0.7423,0.00122 1.1135,0.00115c0.5962,-0.00012 1.1924,-0.00023 1.7886,0.00529c0.3863,0.00365 0.7449,0.11491 1.0503,0.36546c0.556,0.4557 0.5537,1.09436 -0.0059,1.54586c-0.3116,0.2514 -0.6749,0.3484 -1.0675,0.3546c-0.1691,0.0027 -0.3384,0.0028 -0.5077,0.0028l-0.1793,0.0003c-0.1522,0.0003 -0.3042,0.0002 -0.4562,0.0001h-0.0018l-0.2291,-0.0001c-0.1302,0 -0.2604,-0.0003 -0.3906,-0.0006l-0.0677,-0.0001c-0.338,-0.0006 -0.6759,-0.001 -1.0138,0.0035c-0.1072,0.0014 -0.1297,-0.0292 -0.1291,-0.1318c0.0036,-0.681 0.0011,-1.3623 -0.0029,-2.04333z" fill="#1B2437"/>
</svg>
