<svg width="24" height="24" viewBox="0 0 24 24" fill="none" xmlns="http://www.w3.org/2000/svg">
<path d="M11.9703,23c-6.04865,-0.0052 -10.96511,-4.921 -10.97028,-10.9845c-0.01034,-6.12545 4.9268,-11.02582 11.09438,-11.01548c5.9917,0.00517 10.9082,4.9624 10.9082,10.99998c-0.0104,6.0945 -4.9268,11.0052 -11.0323,11zM11.9806,21.3665c5.1853,0.0052 9.3728,-4.1818 9.3832,-9.3768c0.0155,-5.12268 -4.1876,-9.35106 -9.3005,-9.35622c-5.24212,-0.00517 -9.4348,4.16118 -9.43997,9.37172c0.00517,5.1536 4.2082,9.3613 9.35727,9.3613z" fill="#1B2437"/>
<path fill-rule="evenodd" clip-rule="evenodd" d="M8.54151,8.12967c0.00056,-0.60031 0.40628,-1.01229 1.00798,-1.0179c0.49561,-0.00476 0.99111,-0.00364 1.48671,0.00392c0.1185,0.00197 0.1485,-0.03138 0.1454,-0.14685c-0.0077,-0.27743 -0.0053,-0.55509 -0.0029,-0.83277l0.0007,-0.07751c0.0048,-0.56304 0.4495,-0.95204 1.0066,-0.88281c0.3198,0.03979 0.6449,0.38844 0.6865,0.74156c0.0258,0.2201 0.0224,0.4411 0.0191,0.66203c-0.0017,0.11045 -0.0034,0.22089 -0.0014,0.33121l0.0001,0.00849c0.0032,0.19142 0.0032,0.19436 0.1964,0.19105c0.7317,-0.01261 1.4227,0.14489 2.0396,0.54258c0.8647,0.55715 1.3755,1.33375 1.3614,2.38973c-0.0098,0.7354 -0.3119,1.3534 -0.8412,1.8593c-0.0755,0.072 -0.0814,0.1065 -0.0019,0.1776c1.0285,0.9215 1.2388,2.6555 -0.0186,3.8648c-0.6222,0.5986 -1.3861,0.8559 -2.2316,0.9103c-0.1258,0.0081 -0.2527,0.0098 -0.3785,0.0031c-0.0963,-0.0054 -0.1294,0.0221 -0.1271,0.1227c0.0064,0.3033 0.0061,0.6068 0.0014,0.9103c-0.009,0.5639 -0.3951,0.9377 -0.9291,0.9052c-0.4091,-0.0249 -0.7536,-0.3537 -0.7738,-0.7651c-0.0165,-0.3366 -0.011,-0.6743 -0.0055,-1.0115l0.0004,-0.0243c0.0017,-0.1073 -0.0317,-0.132 -0.1348,-0.1314l-0.109,0.0008c-0.4873,0.0037 -0.97486,0.0075 -1.46191,-0.0051c-0.46609,-0.012 -0.81369,-0.3102 -0.91168,-0.7637c-0.02527,-0.1171 -0.02779,-0.241 -0.02807,-0.3618c-0.00188,-1.0423 -0.0018,-2.0848 -0.00172,-3.1274l0.00003,-0.6255h0.00618l-0.00015,-1.1553c-0.00018,-0.89856 -0.00036,-1.79721 0.00043,-2.69573zM10.2815,15.0059c-0.0011,0.1138 0.0402,0.1258 0.1362,0.125c0.3639,-0.0031 0.7278,-0.0027 1.0917,-0.0023l0.3798,0.0003c0,-0.0025 0,-0.005 -0.0002,-0.0073c0.1514,0 0.3029,0.0013 0.4544,0.0026c0.3483,0.003 0.6967,0.0059 1.0446,-0.0068c0.4355,-0.016 0.8157,-0.1816 1.1108,-0.5157c0.3352,-0.3794 0.3344,-0.8491 -0.0071,-1.2236c-0.3318,-0.364 -0.7586,-0.5168 -1.2396,-0.5198c-0.5295,-0.0035 -1.0591,-0.0032 -1.5887,-0.0029c-0.4187,0.0003 -0.8374,0.0005 -1.2561,-0.0011c-0.0971,-0.0005 -0.1255,0.0244 -0.1249,0.1231c0.0042,0.6759 0.0056,1.3522 -0.0009,2.0285zM10.2824,10.9903c-0.0006,0.1026 0.0219,0.1332 0.1291,0.1318c0.3604,-0.0048 0.7209,-0.0041 1.0815,-0.0034c0.1302,0.0003 0.2604,0.0006 0.3906,0.0006l0.2291,0.0001c0.1526,0.0001 0.3052,0.0002 0.458,-0.0001l0.1793,-0.0003c0.1693,0 0.3386,-0.0001 0.5077,-0.0028c0.3926,-0.0062 0.7559,-0.1032 1.0675,-0.3546c0.5596,-0.4515 0.5619,-1.09016 0.0059,-1.54586c-0.3054,-0.25055 -0.664,-0.36181 -1.0503,-0.36546c-0.5962,-0.00552 -1.1924,-0.00541 -1.7886,-0.00529c-0.3712,0.00007 -0.7424,0.00014 -1.1135,-0.00115c-0.0826,-0.00056 -0.0997,0.02634 -0.0992,0.10313c0.004,0.68103 0.0065,1.36233 0.0029,2.04333z" fill="#1B2437"/>
</svg>
