<svg width="24" height="24" viewBox="0 0 24 24" fill="none" xmlns="http://www.w3.org/2000/svg">
<path fill-rule="evenodd" clip-rule="evenodd" d="M16.0353,18.1759c0.0655,2.5422 -1.8631,4.232 -3.9225,4.2925c-2.15011,0.0656 -4.24483,-1.715 -4.14412,-4.2925h-0.29204h-4.1189c-0.47332,0 -0.7956,-0.2068 -0.89631,-0.5801c-0.08056,-0.3076 -0.01007,-0.58 0.22155,-0.807c0.11691,-0.1171 0.23351,-0.2342 0.35003,-0.3513c0.35021,-0.3517 0.6997,-0.7028 1.05485,-1.051c0.3273,-0.3228 0.49345,-0.7011 0.48842,-1.1702c-0.00168,-0.1832 -0.00364,-0.3665 -0.0056,-0.5498c-0.00979,-0.9163 -0.01958,-1.8326 0.0056,-2.749c0.08056,-2.92552 1.41996,-5.08942 4.00309,-6.46645c0.19135,-0.10088 0.29709,-0.20176 0.3273,-0.43883c0.19638,-1.42242 1.49043,-2.50184 2.93563,-2.48167c1.4653,0.02522 2.704,1.13996 2.8802,2.5876c0.0101,0.09583 0.1108,0.21689 0.2014,0.26733c2.3062,1.18535 3.6607,3.05165 4.0434,5.61403c0.0548,0.35699 0.0609,0.72629 0.0609,1.09339l-0.0002,0.1573l-0.0003,0.1566c0.0101,0.9567 0.0051,1.9084 0,2.865v0.0051c0,0.4186 0.146,0.7667 0.4381,1.0592c0.1339,0.1341 0.2673,0.2686 0.4007,0.4031c0.3333,0.3359 0.6661,0.6714 1.0041,0.9992c0.277,0.2673 0.3777,0.575 0.2367,0.9331c-0.146,0.3632 -0.4481,0.5044 -0.8208,0.5044h-4.144zM13.3414,20.4609c0.8006,-0.5246 1.1329,-1.3064 1.0776,-2.2699h-4.82893c-0.05539,0.9786 0.28197,1.7604 1.10273,2.285c0.8711,0.5599 1.7825,0.5498 2.6486,-0.0151z" fill="#1B2437"/>
</svg>
