<svg width="24" height="24" viewBox="0 0 24 24" fill="none" xmlns="http://www.w3.org/2000/svg">
<path d="M16.0353,18.1759c0.0655,2.5422 -1.8631,4.232 -3.9225,4.2925c-2.15011,0.0656 -4.24483,-1.715 -4.14412,-4.2925c-0.09567,0 -0.19637,0 -0.29204,0c-1.37465,0 -2.74929,0 -4.1189,0c-0.47332,0 -0.7956,-0.2068 -0.89631,-0.5801c-0.08056,-0.3076 -0.01007,-0.58 0.22155,-0.807c0.46829,-0.4691 0.93156,-0.9382 1.40488,-1.4023c0.3273,-0.3228 0.49345,-0.7011 0.48842,-1.1702c-0.01007,-1.0996 -0.03022,-2.1992 0,-3.2988c0.08056,-2.92552 1.41996,-5.08942 4.00309,-6.46645c0.19135,-0.10088 0.29709,-0.20176 0.3273,-0.43883c0.19638,-1.42242 1.49043,-2.50184 2.93563,-2.48167c1.4653,0.02522 2.704,1.13996 2.8802,2.5876c0.0101,0.09583 0.1108,0.21689 0.2014,0.26733c2.3062,1.18535 3.6607,3.05165 4.0434,5.61403c0.0705,0.45899 0.0604,0.93819 0.0604,1.40729c0.0101,0.9584 0.005,1.9117 0,2.8701c0,0.4186 0.146,0.7667 0.4381,1.0592c0.4683,0.4691 0.9315,0.9432 1.4048,1.4023c0.277,0.2673 0.3777,0.575 0.2367,0.9331c-0.146,0.3632 -0.4481,0.5044 -0.8208,0.5044c-1.3796,0 -2.7644,0 -4.144,0c-0.0907,0 -0.1914,0 -0.3072,0zM18.6386,16.5719c-0.0604,-0.0706 -0.0856,-0.1059 -0.1158,-0.1362c-0.6093,-0.6154 -0.8863,-1.3619 -0.8812,-2.2295c0.005,-1.0743 0,-2.1487 0,-3.2231c0,-2.42115 -1.4099,-4.47912 -3.6657,-5.35174c-0.4633,-0.18158 -0.6144,-0.39848 -0.6194,-0.88775c0,-0.10088 0.005,-0.20176 0,-0.30264c-0.0504,-0.91802 -0.9215,-1.52835 -1.7775,-1.24588c-0.6042,0.20176 -0.9315,0.71625 -0.9315,1.4779c0,0.58511 -0.1259,0.7667 -0.6697,0.9735c-2.15513,0.82218 -3.60532,2.92555 -3.61035,5.24081c0,1.1399 0.00503,2.2799 0,3.4249c-0.00504,0.7868 -0.27694,1.4728 -0.82075,2.0529c-0.05036,0.0555 -0.10073,0.116 -0.17122,0.2018c4.44117,0.005 8.82692,0.005 13.26312,0.005zM9.59007,18.191c-0.05539,0.9786 0.28197,1.7604 1.10273,2.285c0.8711,0.5599 1.7825,0.5498 2.6486,-0.0151c0.8006,-0.5246 1.1329,-1.3064 1.0776,-2.2699c-1.6164,0 -3.2126,0 -4.82893,0z" fill="#1B2437"/>
</svg>
