<svg width="24" height="24" viewBox="0 0 24 24" fill="none" xmlns="http://www.w3.org/2000/svg">
<path fill-rule="evenodd" clip-rule="evenodd" d="M13.9739,2.00043c0.043,0 0.0852,0.00363 0.1263,0.0106l0.1363,0.0007c0.204,0 0.399,0.083 0.541,0.23l5.065,5.279c0.134,0.139 0.209,0.326 0.209,0.519v9.29997c0.005,2.469 -2.001,4.5 -4.471,4.526l-8.00899,0.001h-0.029c-1.2,0 -2.335,-0.465 -3.192,-1.313c-0.864,-0.854 -1.344,-1.994 -1.351,-3.21v-10.85297c0,-2.469 2.009,-4.479 4.479,-4.479l6.36909,-0.0007c0.0411,-0.00697 0.0833,-0.0106 0.1263,-0.0106zM11.3425,11.8564l-1.2033,-1.2039c-0.29299,-0.293 -0.76699,-0.293 -1.05999,0c-0.293,0.293 -0.293,0.767 0,1.06l1.20329,1.2039l-1.20209,1.2021c-0.293,0.293 -0.293,0.767 0,1.06c0.146,0.147 0.338,0.22 0.53,0.22c0.192,0 0.384,-0.073 0.52999,-0.22l1.2021,-1.2021l1.2027,1.2021c0.146,0.147 0.338,0.22 0.53,0.22c0.192,0 0.384,-0.073 0.53,-0.22c0.293,-0.293 0.293,-0.767 0,-1.06l-1.2027,-1.2021l1.2039,-1.2039c0.293,-0.293 0.293,-0.767 0,-1.06c-0.293,-0.293 -0.767,-0.293 -1.06,0zM16.5429,7.48443l1.1856,-0.001l-3.005,-3.131l0.0004,1.307c0,1.004 0.816,1.822 1.819,1.825z" fill="#1B2437"/>
</svg>
