<svg width="24" height="24" viewBox="0 0 24 24" fill="none" xmlns="http://www.w3.org/2000/svg">
<path fill-rule="evenodd" clip-rule="evenodd" d="M14.448,2.00031c0.0429,0 0.085,0.00361 0.126,0.01056l0.1369,0.00084c0.204,0 0.399,0.083 0.541,0.23l5.065,5.277c0.134,0.139 0.2091,0.326 0.2091,0.519v9.16599c0.0179,2.509 -1.9361,4.559 -4.4491,4.661l-8.01902,0.001h-0.109c-2.44995,-0.0554 -4.41484,-2.0368 -4.4747,-4.4628l-0.0003,-10.91219c0.058,-2.481 2.107,-4.479 4.57,-4.479l6.27802,-0.00084c0.041,-0.00695 0.0831,-0.01056 0.1261,-0.01056zM15.0112,15.3584c0,-0.414 -0.336,-0.75 -0.75,-0.75h-5.40002c-0.414,0 -0.75,0.336 -0.75,0.75c0,0.414 0.336,0.75 0.75,0.75h5.40002c0.414,0 0.75,-0.336 0.75,-0.75zM12.9663,11.6064c0,-0.414 -0.336,-0.75 -0.75,-0.75h-3.35602c-0.414,0 -0.75,0.336 -0.75,0.75c0,0.414 0.336,0.75 0.75,0.75h3.35602c0.414,0 0.75,-0.336 0.75,-0.75zM17.018,7.48431l1.1859,-0.001l-3.006,-3.131l0.0001,1.307c0,1.004 0.817,1.822 1.82,1.825z" fill="#1B2437"/>
</svg>
