<svg width="24" height="24" viewBox="0 0 24 24" fill="none" xmlns="http://www.w3.org/2000/svg">
<path fill-rule="evenodd" clip-rule="evenodd" d="M14.448,2.00031c0.043,0 0.0851,0.00361 0.1261,0.01056l0.1368,0.00084c0.204,0 0.399,0.083 0.541,0.23l5.065,5.277c0.134,0.139 0.2092,0.326 0.2092,0.519v9.16599c0.0178,2.509 -1.9362,4.559 -4.4492,4.661l-8.01896,0.001h-0.109c-2.44994,-0.0554 -4.41484,-2.0368 -4.4747,-4.4628l-0.0003,-10.91219c0.058,-2.481 2.107,-4.479 4.57,-4.479l6.27806,-0.00084c0.041,-0.00695 0.0831,-0.01056 0.126,-0.01056zM13.6979,3.51131l-5.65196,0.0004c-1.657,0 -3.033,1.342 -3.072,2.997v10.69499c-0.037,1.713 1.313,3.124 3.009,3.162h8.06396c1.669,-0.069 2.991,-1.456 2.9791,-3.156l-0.0001,-8.22639l-2.0099,0.001c-1.83,-0.005 -3.318,-1.497 -3.318,-3.325zM14.2612,14.6084c0.414,0 0.75,0.336 0.75,0.75c0,0.414 -0.336,0.75 -0.75,0.75h-5.39996c-0.414,0 -0.75,-0.336 -0.75,-0.75c0,-0.414 0.336,-0.75 0.75,-0.75zM12.2163,10.8564c0.414,0 0.75,0.336 0.75,0.75c0,0.414 -0.336,0.75 -0.75,0.75h-3.35596c-0.414,0 -0.75,-0.336 -0.75,-0.75c0,-0.414 0.336,-0.75 0.75,-0.75zM15.1979,4.35231l0.0001,1.307c0,1.004 0.817,1.822 1.82,1.825l1.1859,-0.001z" fill="#1B2437"/>
</svg>
