<svg width="24" height="24" viewBox="0 0 24 24" fill="none" xmlns="http://www.w3.org/2000/svg">
<path fill-rule="evenodd" clip-rule="evenodd" d="M13.9739,2.00043c0.043,0 0.0852,0.00363 0.1263,0.0106l0.1363,0.0007c0.204,0 0.399,0.083 0.541,0.23l5.065,5.279c0.134,0.139 0.209,0.326 0.209,0.519v9.29997c0.005,2.469 -2.001,4.5 -4.471,4.526l-8.00899,0.001h-0.029c-1.2,0 -2.335,-0.465 -3.192,-1.313c-0.864,-0.854 -1.344,-1.994 -1.351,-3.21v-10.85297c0,-2.469 2.009,-4.479 4.479,-4.479l6.36909,-0.0007c0.0411,-0.00697 0.0833,-0.0106 0.1263,-0.0106zM13.2235,3.51143l-5.74499,0.0003c-1.643,0 -2.979,1.337 -2.979,2.979v10.84897c0.005,0.811 0.327,1.575 0.906,2.148c0.578,0.571 1.375,0.899 2.161,0.879c0.0035,0 0.03275,-0.0002 0.06188,-0.0005l7.94411,-0.0005c1.642,-0.018 2.982,-1.375 2.979,-3.025v-8.35727l-2.0106,0.001c-1.83,-0.005 -3.317,-1.497 -3.317,-3.325zM10.1392,10.6525l1.2033,1.2039l1.2039,-1.2039c0.293,-0.293 0.767,-0.293 1.06,0c0.293,0.293 0.293,0.767 0,1.06l-1.2039,1.2039l1.2027,1.2021c0.293,0.293 0.293,0.767 0,1.06c-0.146,0.147 -0.338,0.22 -0.53,0.22c-0.192,0 -0.384,-0.073 -0.53,-0.22l-1.2027,-1.2021l-1.2021,1.2021c-0.14599,0.147 -0.33799,0.22 -0.52999,0.22c-0.192,0 -0.384,-0.073 -0.53,-0.22c-0.293,-0.293 -0.293,-0.767 0,-1.06l1.20209,-1.2021l-1.20329,-1.2039c-0.293,-0.293 -0.293,-0.767 0,-1.06c0.293,-0.293 0.767,-0.293 1.05999,0zM14.7235,4.35243l0.0004,1.307c0,1.004 0.816,1.822 1.819,1.825l1.1856,-0.001z" fill="#1B2437"/>
</svg>
