<svg width="24" height="24" viewBox="0 0 24 24" fill="none" xmlns="http://www.w3.org/2000/svg">
<path d="M11.9787,2c2.3676,0 4.4598,1.46208 5.2321,3.62787c0.0813,0.21867 0.0609,0.45721 -0.0407,0.66594c-0.1016,0.20872 -0.2835,0.36775 -0.5081,0.43832c-0.4572,0.15804 -0.9653,-0.07951 -1.138,-0.53672c-0.5183,-1.47202 -1.9398,-2.45602 -3.525,-2.45602c-2.07396,0 -3.74957,1.63105 -3.76075,3.62787v1.34181l-0.01219,0.00199h8.00514c2.3574,0 4.2688,1.86964 4.2688,4.17554v4.9379c0,2.3059 -1.9114,4.1755 -4.2688,4.1755h-8.46342c-2.35642,0 -4.26778,-1.8696 -4.26778,-4.1755v-4.9379c0,-1.8964 1.30066,-3.47978 3.07077,-3.98868l-0.11076,0.01292v-1.5237c0.02032,-2.97088 2.49056,-5.38714 5.51869,-5.38714zM11.9949,13.3826c-0.4877,0 -0.884,0.3876 -0.884,0.8647v2.2065c0,0.4871 0.3963,0.8747 0.884,0.8747c0.4979,0 0.8942,-0.3876 0.8942,-0.8747v-2.2065c0,-0.4771 -0.3963,-0.8647 -0.8942,-0.8647z" fill="#1B2437"/>
</svg>
