<svg width="24" height="24" viewBox="0 0 24 24" fill="none" xmlns="http://www.w3.org/2000/svg">
<path fill-rule="evenodd" clip-rule="evenodd" d="M12.3747,2.0003c2.256,0 4.27,1.433 5.009,3.567c0.136,0.391 -0.072,0.818 -0.464,0.954c-0.391,0.137 -0.818,-0.072 -0.954,-0.464c-0.529,-1.529 -1.974,-2.557 -3.594,-2.557h-0.014c-2.092,0 -3.796,1.694 -3.805,3.784l-0.0007,1.342l7.632,0.0007c2.504,0 4.542,2.038 4.542,4.543v4.288c0,2.505 -2.038,4.543 -4.542,4.543h-7.642c-2.505,0 -4.542,-2.038 -4.542,-4.543v-4.288c0,-1.9834 1.277,-3.67402 3.05221,-4.29209l0.00049,-1.57661c0.013,-2.938 2.389,-5.301 5.302,-5.301zM16.184,10.127h-7.642c-1.678,0 -3.042,1.365 -3.042,3.043v4.288c0,1.678 1.364,3.043 3.042,3.043h7.642c1.677,0 3.042,-1.365 3.042,-3.043v-4.288c0,-1.678 -1.365,-3.043 -3.042,-3.043zM12.3633,13.4528c0.414,0 0.75,0.336 0.75,0.75v2.222c0,0.414 -0.336,0.75 -0.75,0.75c-0.414,0 -0.75,-0.336 -0.75,-0.75v-2.222c0,-0.414 0.336,-0.75 0.75,-0.75z" fill="#1B2437"/>
</svg>
