<svg width="24" height="24" viewBox="0 0 24 24" fill="none" xmlns="http://www.w3.org/2000/svg">
<path fill-rule="evenodd" clip-rule="evenodd" d="M12.25,2c5.652,0 10.25,4.598 10.25,10.25c0,5.652 -4.598,10.25 -10.25,10.25c-5.652,0 -10.25,-4.598 -10.25,-10.25c0,-5.652 4.598,-10.25 10.25,-10.25zM12.25,3.5c-4.825,0 -8.75,3.925 -8.75,8.75c0,4.825 3.925,8.75 8.75,8.75c4.825,0 8.75,-3.925 8.75,-8.75c0,-4.825 -3.925,-8.75 -8.75,-8.75zM11.8308,8.7614c0.52,0.217 4.169,2.086 4.169,3.484c0,1.31 -3.284,3.142 -4.123,3.492c-0.327,0.136 -0.7,0.264 -1.049,0.264c-0.27,0 -0.526,-0.077 -0.735,-0.285c-0.161,-0.159 -0.591,-0.584 -0.593,-3.383c-0.001,-2.972 0.446,-3.414 0.593,-3.561c0.523,-0.518 1.375,-0.163 1.738,-0.011zM11.1338,10.0864c-0.177,1.001 -0.18,3.392 -0.003,4.342c0.878,-0.31 2.78,-1.56 3.292,-2.179c-0.51,-0.601 -2.388,-1.825 -3.289,-2.163z" fill="#1B2437"/>
</svg>
