<svg width="24" height="24" viewBox="0 0 24 24" fill="none" xmlns="http://www.w3.org/2000/svg">
<path fill-rule="evenodd" clip-rule="evenodd" d="M2,12.0048c0,-5.51855 4.48842,-10.0048 10,-10.0048c5.5116,0 10,4.48625 10,10.0048c0,5.5089 -4.4884,9.9952 -10,9.9952c-5.51158,0 -10,-4.4863 -10,-9.9952zM15.7614,12.7145c0.1591,-0.2032 0.2386,-0.4569 0.2386,-0.7096c0,-0.2819 -0.0895,-0.5444 -0.2585,-0.7582c-0.015,-0.0143 -0.0455,-0.0468 -0.0852,-0.0891c-0.0656,-0.0698 -0.1562,-0.1663 -0.2429,-0.2512c-0.8154,-0.8554 -2.9432,-2.25512 -4.0569,-2.68283c-0.169,-0.06804 -0.5966,-0.21288 -0.8253,-0.22357c-0.2187,0 -0.4275,0.04957 -0.62637,0.14581c-0.24858,0.13609 -0.44744,0.35091 -0.55682,0.60267c-0.0696,0.17497 -0.17898,0.69988 -0.17898,0.7096c-0.10937,0.57352 -0.16903,1.50762 -0.16903,2.53702c0,0.9818 0.05966,1.8761 0.14915,2.4603c0.00248,0.0022 0.01119,0.0446 0.02473,0.1105c0.04056,0.1974 0.12443,0.6057 0.2139,0.7741c0.21875,0.4082 0.64632,0.66 1.10372,0.66h0.0397c0.2983,-0.0087 0.9248,-0.2625 0.9248,-0.2722c1.0539,-0.4267 3.1321,-1.7584 3.9673,-2.644l0.0597,-0.0583c0.1093,-0.1069 0.2485,-0.2712 0.2784,-0.311z" fill="#1B2437"/>
</svg>
