<svg width="24" height="24" viewBox="0 0 24 24" fill="none" xmlns="http://www.w3.org/2000/svg">
<path d="M16.66,1.82031c3.4,0 5.34,1.92 5.34,5.33v9.33999c0,3.39 -1.93,5.33 -5.33,5.33h-9.34c-3.41,0 -5.33,-1.94 -5.33,-5.33v-9.33999c0,-3.41 1.92,-5.33 5.33,-5.33zM11.99,7.33031c-0.46,0 -0.83,0.37 -0.83,0.83v2.81999h-2.83c-0.22,0 -0.43,0.09 -0.59,0.24c-0.15,0.16 -0.24,0.369 -0.24,0.59c0,0.46 0.37,0.83 0.83,0.84h2.83v2.83c0,0.46 0.37,0.83 0.83,0.83c0.46,0 0.83,-0.37 0.83,-0.83v-2.83h2.84c0.46,-0.01 0.83,-0.38 0.83,-0.84c0,-0.46 -0.37,-0.83 -0.83,-0.83h-2.84v-2.81999c0,-0.46 -0.37,-0.83 -0.83,-0.83z" fill="#1B2437"/>
</svg>
