<svg width="24" height="24" viewBox="0 0 24 24" fill="none" xmlns="http://www.w3.org/2000/svg">
<path d="M11.2207,12.7436c-0.1067,0 -0.1928,0 -0.283,0c-2.69897,0.0041 -5.39791,0.0041 -8.09684,0.0082c-0.43888,0 -0.7178,-0.1931 -0.81624,-0.5669c-0.11895,-0.4479 0.20919,-0.9039 0.67268,-0.9244c0.21329,-0.0082 0.42248,-0.0041 0.63577,-0.0041c2.54306,0 5.08613,-0.0041 7.62513,-0.0041c0.0779,0 0.1599,0 0.2584,0c0,-0.1028 0,-0.1849 0,-0.263c0,-2.72801 0,-5.45192 0,-8.17994c0,-0.41906 0.2256,-0.71077 0.6029,-0.79293c0.4061,-0.09039 0.8122,0.18488 0.8819,0.59572c0.0164,0.10682 0.0205,0.21775 0.0205,0.32457c0,2.6705 0,5.341 0,8.01558c0,0.0863 0,0.1767 0,0.3c0.0985,0 0.1846,0 0.2707,0c2.7277,0 5.4553,-0.0042 8.1789,-0.0042c0.4101,0 0.689,0.189 0.7875,0.5218c0.1477,0.493 -0.201,0.9655 -0.726,0.9696c-0.8614,0.0041 -1.7227,0.0041 -2.5841,0.0041c-1.8663,0 -3.7326,0 -5.5989,0c-0.3732,0 -0.3322,-0.0493 -0.3322,0.3205c0,2.6787 0,5.3574 0,8.0361c0,0.263 -0.0369,0.5054 -0.242,0.6903c-0.2297,0.2095 -0.4922,0.267 -0.7793,0.1561c-0.283,-0.1109 -0.4471,-0.3246 -0.4799,-0.6327c-0.0082,-0.0658 -0.0041,-0.1356 -0.0041,-0.2054c0,-2.6993 0,-5.3986 0,-8.0978c0.0082,-0.0822 0.0082,-0.1603 0.0082,-0.2671z" fill="#1B2437"/>
</svg>
