<svg width="24" height="24" viewBox="0 0 24 24" fill="none" xmlns="http://www.w3.org/2000/svg">
<path fill-rule="evenodd" clip-rule="evenodd" d="M12,2.75c-5.10863,0 -9.25,4.14137 -9.25,9.25c0,5.1086 4.14137,9.25 9.25,9.25c5.1086,0 9.25,-4.1414 9.25,-9.25c0,-5.10863 -4.1414,-9.25 -9.25,-9.25zM1.25,12c0,-5.93706 4.81294,-10.75 10.75,-10.75c5.9371,0 10.75,4.81294 10.75,10.75c0,5.9371 -4.8129,10.75 -10.75,10.75c-5.93706,0 -10.75,-4.8129 -10.75,-10.75zM12,7.25c0.4142,0 0.75,0.33579 0.75,0.75v3.25h3.25c0.4142,0 0.75,0.3358 0.75,0.75c0,0.4142 -0.3358,0.75 -0.75,0.75h-3.25v3.25c0,0.4142 -0.3358,0.75 -0.75,0.75c-0.4142,0 -0.75,-0.3358 -0.75,-0.75v-3.25h-3.25c-0.41421,0 -0.75,-0.3358 -0.75,-0.75c0,-0.4142 0.33579,-0.75 0.75,-0.75h3.25v-3.25c0,-0.41421 0.3358,-0.75 0.75,-0.75z" fill="#1B2437"/>
</svg>
