<svg width="24" height="24" viewBox="0 0 24 24" fill="none" xmlns="http://www.w3.org/2000/svg">
<path d="M18,4.875v1.125h0.75c0.9946,0 1.9484,0.39509 2.6516,1.09835c0.7033,0.70326 1.0984,1.65709 1.0984,2.65165v5.625c0,0.6962 -0.2766,1.3639 -0.7688,1.8562c-0.4923,0.4922 -1.16,0.7688 -1.8562,0.7688h-1.125v1.125c0,0.6962 -0.2766,1.3639 -0.7688,1.8562c-0.4923,0.4922 -1.16,0.7688 -1.8562,0.7688h-8.25c-0.69619,0 -1.36387,-0.2766 -1.85616,-0.7688c-0.49228,-0.4923 -0.76884,-1.16 -0.76884,-1.8562v-1.125h-1.125c-0.69619,0 -1.36387,-0.2766 -1.85616,-0.7688c-0.49228,-0.4923 -0.76884,-1.16 -0.76884,-1.8562v-5.625c0,-0.99456 0.39509,-1.94839 1.09835,-2.65165c0.70326,-0.70326 1.65709,-1.09835 2.65165,-1.09835h0.75v-1.125c0,-0.69619 0.27656,-1.36387 0.76884,-1.85616c0.49229,-0.49228 1.15997,-0.76884 1.85616,-0.76884h6.75c0.6962,0 1.3639,0.27656 1.8562,0.76884c0.4922,0.49229 0.7688,1.15997 0.7688,1.85616zM7.5,4.875v1.125h9v-1.125c0,-0.29837 -0.1185,-0.58452 -0.3295,-0.7955c-0.211,-0.21097 -0.4971,-0.3295 -0.7955,-0.3295h-6.75c-0.29837,0 -0.58452,0.11853 -0.7955,0.3295c-0.21097,0.21098 -0.3295,0.49713 -0.3295,0.7955zM6.75,19.125c0,0.2984 0.11853,0.5845 0.3295,0.7955c0.21098,0.211 0.49713,0.3295 0.7955,0.3295h8.25c0.2984,0 0.5845,-0.1185 0.7955,-0.3295c0.211,-0.211 0.3295,-0.4971 0.3295,-0.7955v-4.5c0,-0.2984 -0.1185,-0.5845 -0.3295,-0.7955c-0.211,-0.211 -0.4971,-0.3295 -0.7955,-0.3295h-8.25c-0.29837,0 -0.58452,0.1185 -0.7955,0.3295c-0.21097,0.211 -0.3295,0.4971 -0.3295,0.7955zM18.75,16.5h1.125c0.2984,0 0.5845,-0.1185 0.7955,-0.3295c0.211,-0.211 0.3295,-0.4971 0.3295,-0.7955v-5.625c0,-0.59674 -0.2371,-1.16903 -0.659,-1.59099c-0.422,-0.42196 -0.9943,-0.65901 -1.591,-0.65901h-13.5c-0.59674,0 -1.16903,0.23705 -1.59099,0.65901c-0.42196,0.42196 -0.65901,0.99425 -0.65901,1.59099v5.625c0,0.2984 0.11853,0.5845 0.3295,0.7955c0.21098,0.211 0.49713,0.3295 0.7955,0.3295h1.125v-1.875c0,-0.6962 0.27656,-1.3639 0.76884,-1.8562c0.49229,-0.4922 1.15997,-0.7688 1.85616,-0.7688h8.25c0.6962,0 1.3639,0.2766 1.8562,0.7688c0.4922,0.4923 0.7688,1.16 0.7688,1.8562z" fill="#1B2437"/>
</svg>
