<svg width="24" height="24" viewBox="0 0 24 24" fill="none" xmlns="http://www.w3.org/2000/svg">
<path fill-rule="evenodd" clip-rule="evenodd" d="M2.25,12c0,-5.38478 4.36522,-9.75 9.75,-9.75c5.3848,0 9.75,4.36522 9.75,9.75c0,2.7003 -1.0977,5.1443 -2.8713,6.9099c-1.6032,-1.3104 -4.0885,-2.1516 -6.8786,-2.1516c-2.79014,0 -5.27546,0.8412 -6.87864,2.1516c0.56593,0.5634 1.20065,1.0578 1.89047,1.4693c-2.85181,-1.7013 -4.76193,-4.8172 -4.76193,-8.3792zM15.9945,20.8968zM12,6.2829c-2.04025,0 -3.69421,1.65396 -3.69421,3.69423c0,2.04027 1.65396,3.69427 3.69421,3.69427c2.0403,0 3.6942,-1.654 3.6942,-3.69427c0,-2.04027 -1.6539,-3.69423 -3.6942,-3.69423z" fill="#1B2437"/>
</svg>
