<svg width="24" height="24" viewBox="0 0 24 24" fill="none" xmlns="http://www.w3.org/2000/svg">
<path d="M21.55,12.0236c-0.0269,5.4052 -4.313,9.7498 -9.596,9.7263c-5.25616,-0.0235 -9.53085,-4.415 -9.50401,-9.7616c0.02683,-5.42482 4.32452,-9.7733 9.62281,-9.73808c5.237,0.03523 9.504,4.4346 9.4772,9.77338zM5.45185,16.8495c0.29137,-0.1369 0.55974,-0.27 0.83194,-0.3914c2.4613,-1.0763 5.02231,-1.4247 7.67141,-1.0685c1.5527,0.2075 3.0326,0.6771 4.4357,1.3856c0.1074,0.0548 0.1687,0.0626 0.2454,-0.0548c1.2651,-1.9022 1.7252,-3.9923 1.3073,-6.2468c-0.6977,-3.77704 -3.7418,-6.49729 -7.5027,-6.71648c-2.308,-0.13307 -4.33989,0.61059 -5.99609,2.24666c-2.22744,2.20751 -2.9712,4.90822 -2.28878,8.00032c0.23002,1.0372 0.67858,1.9765 1.29582,2.8454zM6.46781,17.9924c1.11947,1.2017 3.50409,2.5168 6.28359,2.231c1.8326,-0.1878 3.4198,-0.9198 4.8076,-2.2231c-3.7303,-1.6713 -7.3992,-1.6752 -11.09119,-0.0079z" fill="#1B2437"/>
<path d="M12.0038,6.25035c2.0396,0.01174 3.6766,1.69869 3.6651,3.78485c-0.0115,2.0705 -1.6715,3.7223 -3.7303,3.7066c-1.99736,-0.0157 -3.61906,-1.7143 -3.60756,-3.77703c0.0115,-2.04313 1.67536,-3.72225 3.67276,-3.71442zM12.0077,7.74943c-1.2269,-0.00392 -2.21982,1.00199 -2.22365,2.25056c-0.00383,1.23291 0.98915,2.25451 2.19675,2.25841c1.2268,0.0039 2.2236,-0.9942 2.2313,-2.2428c0.0115,-1.24461 -0.9815,-2.26226 -2.2044,-2.26617z" fill="#1B2437"/>
</svg>
