<svg width="24" height="24" viewBox="0 0 24 24" fill="none" xmlns="http://www.w3.org/2000/svg">
<path d="M18.31,17.2605c0,2.1758 -2.911,2.7395 -6.361,2.7395c-3.43115,0 -6.36091,-0.5439 -6.36091,-2.7206c0,-2.1757 2.91095,-2.7395 6.36091,-2.7395c3.4312,0 6.361,0.544 6.361,2.7206z" fill="#1B2437"/>
<path d="M7.73974,8.23351c0,-2.35045 1.87318,-4.23351 4.20926,-4.23351c2.3361,0 4.2093,1.88306 4.2093,4.23351c0,2.34959 -1.8732,4.23349 -4.2093,4.23349c-2.33608,0 -4.20926,-1.8839 -4.20926,-4.23349z" fill="#1B2437"/>
<path d="M17.5628,11.8417c-0.1648,-0.0045 -0.326,-0.0189 -0.4836,-0.0468c-0.1137,-0.0199 -0.171,-0.1486 -0.1065,-0.2441c0.6268,-0.9267 0.984,-2.04336 0.984,-3.2411c0,-1.24997 -0.3895,-2.41439 -1.0673,-3.37078c-0.0224,-0.02972 -0.0376,-0.07565 -0.017,-0.10987c0.0179,-0.02701 0.0519,-0.04232 0.0824,-0.04953c0.2292,-0.04593 0.4638,-0.07294 0.7091,-0.07294c2.2565,0 4.0285,2.13521 3.4241,4.51268c-0.4075,1.60214 -1.8822,2.66564 -3.5252,2.62244z" fill="#1B2437"/>
<path d="M22.8093,16.4866c-0.4603,0.9987 -1.9439,1.3193 -2.5206,1.4021c-0.1191,0.018 -0.2149,-0.0855 -0.2023,-0.2053c0.2945,-2.7674 -2.0487,-4.0795 -2.6549,-4.3812c-0.026,-0.0135 -0.0313,-0.0351 -0.0287,-0.0477c0.0018,-0.009 0.0126,-0.0225 0.0323,-0.0252c1.3117,-0.0244 2.722,0.1558 3.2431,0.2836c1.1041,0.2171 1.8302,0.6592 2.1311,1.304c0.2543,0.5287 0.2543,1.1419 0,1.6697z" fill="#1B2437"/>
<path d="M7.1272,4.82932c0.02149,0.03422 0.00537,0.08015 -0.01612,0.10987c-0.67782,0.95549 -1.06822,2.11991 -1.06822,3.37078c0,1.19774 0.35727,2.31353 0.98405,3.24113c0.06447,0.0954 0.00716,0.2242 -0.10655,0.244c-0.1567,0.027 -0.31877,0.0423 -0.48352,0.0469c-1.64306,0.0432 -3.11779,-1.0204 -3.5243,-2.62247c-0.6053,-2.37747 1.16671,-4.51268 3.42312,-4.51268c0.24534,0 0.48083,0.02611 0.70916,0.07294c0.03134,0.00721 0.06447,0.02161 0.08238,0.04953z" fill="#1B2437"/>
<path d="M6.5656,13.2299c0.0197,0.0018 0.02955,0.0153 0.03134,0.0243c0.00268,0.0135 -0.00269,0.0342 -0.02776,0.0486c-0.60708,0.3017 -2.95035,1.6138 -2.65576,4.3803c0.01253,0.1207 -0.08238,0.2234 -0.20147,0.2054c-0.57664,-0.082 -2.06032,-0.4035 -2.52056,-1.4013c-0.25519,-0.5286 -0.25519,-1.1419 0,-1.6705c0.30086,-0.6448 1.02613,-1.087 2.13017,-1.304c0.52202,-0.1279 1.93138,-0.308 3.24404,-0.2828z" fill="#1B2437"/>
</svg>
