<svg width="24" height="24" viewBox="0 0 24 24" fill="none" xmlns="http://www.w3.org/2000/svg">
<path fill-rule="evenodd" clip-rule="evenodd" d="M11.8867,14.414h0.1129l0.2526,0.0009c1.9306,0.0127 6.3425,0.2077 6.3425,3.1981c0,2.9707 -4.2581,3.1645 -6.3124,3.1771h-0.7611c-1.93069,-0.0127 -6.34348,-0.2075 -6.34348,-3.1941c0,-2.9745 4.41279,-3.1685 6.34348,-3.1811l0.2526,-0.0009c0.0392,0 0.0769,0 0.1129,0zM11.8867,15.914c-2.37598,0 -5.20898,0.292 -5.20898,1.682c0,1.3585 2.66391,1.6762 4.99188,1.6942l0.2171,0.0008c2.376,0 5.208,-0.291 5.208,-1.678c0,-1.404 -2.832,-1.699 -5.208,-1.699zM19.8403,14.0082c2.423,0.363 2.932,1.501 2.932,2.392c0,0.544 -0.214,1.537 -1.644,2.082c-0.088,0.033 -0.178,0.049 -0.267,0.049c-0.302,0 -0.587,-0.184 -0.701,-0.483c-0.148,-0.387 0.047,-0.821 0.434,-0.968c0.678,-0.258 0.678,-0.543 0.678,-0.68c0,-0.438 -0.557,-0.744 -1.655,-0.908c-0.409,-0.062 -0.692,-0.443 -0.631,-0.854c0.061,-0.41 0.441,-0.683 0.854,-0.63zM4.78612,14.6382c0.061,0.411 -0.222,0.792 -0.631,0.854c-1.098,0.164 -1.655,0.47 -1.655,0.908c0,0.137 0,0.421 0.679,0.68c0.387,0.147 0.582,0.581 0.434,0.968c-0.114,0.299 -0.399,0.483 -0.701,0.483c-0.089,0 -0.179,-0.016 -0.267,-0.049c-1.431,-0.546 -1.645,-1.539 -1.645,-2.082c0,-0.89 0.509,-2.029 2.933,-2.392c0.413,-0.052 0.791,0.22 0.853,0.63zM11.8867,4c2.52,0 4.569,2.05 4.569,4.569c0,2.519 -2.049,4.569 -4.569,4.569h-0.027c-1.22,-0.004 -2.36298,-0.482 -3.21898,-1.346c-0.858,-0.863 -1.327,-2.009 -1.32204,-3.226c0,-2.516 2.04904,-4.566 4.56802,-4.566zM11.8867,5.5c-1.692,0 -3.068,1.377 -3.068,3.069c-0.00298,0.82 0.31102,1.587 0.88602,2.166c0.57498,0.579 1.34098,0.9 2.15698,0.903l0.025,0.75v-0.75c1.692,0 3.069,-1.376 3.069,-3.069c0,-1.692 -1.377,-3.069 -3.069,-3.069zM18.0757,4.9795c1.758,0.289 3.035,1.793 3.035,3.576c-0.004,1.795 -1.345,3.335 -3.12,3.584c-0.035,0.005 -0.07,0.007 -0.104,0.007c-0.368,0 -0.689,-0.271 -0.742,-0.646c-0.057,-0.411 0.228,-0.79 0.639,-0.847c1.04,-0.146 1.825,-1.048 1.827,-2.1c0,-1.043 -0.748,-1.925 -1.779,-2.094c-0.408,-0.067 -0.685,-0.453 -0.618,-0.862c0.068,-0.409 0.451,-0.683 0.862,-0.618zM6.55972,5.5975c0.067,0.409 -0.21,0.795 -0.618,0.862c-1.031,0.169 -1.779,1.051 -1.779,2.096c0.002,1.05 0.787,1.953 1.826,2.098c0.411,0.057 0.696,0.436 0.639,0.847c-0.053,0.375 -0.374,0.646 -0.742,0.646c-0.034,0 -0.069,-0.002 -0.104,-0.007c-1.775,-0.249 -3.115,-1.789 -3.119,-3.582c0,-1.785 1.277,-3.289 3.035,-3.578c0.421,-0.066 0.794,0.211 0.862,0.618z" fill="#1B2437"/>
</svg>
