<svg width="24" height="24" viewBox="0 0 24 24" fill="none" xmlns="http://www.w3.org/2000/svg">
<path d="M21.4834,8.16652c0,-0.2458 0,-0.45648 0,-0.66215c0,-1.21896 0,-2.43793 0,-3.65689c0,-0.31602 0.1304,-0.56684 0.4163,-0.71733c0.2659,-0.13544 0.5368,-0.11036 0.7826,0.05518c0.2257,0.15049 0.326,0.38124 0.326,0.64209c0.005,2.03662 0.005,4.07324 0,6.10985c0,0.47153 -0.326,0.78253 -0.7976,0.78253c-2.0266,0.005 -4.0582,0.005 -6.0848,0c-0.4564,0 -0.7925,-0.3361 -0.7975,-0.76246c-0.0051,-0.4314 0.3411,-0.76248 0.8176,-0.76248c1.2792,-0.00501 2.5533,0 3.8325,0c0.0903,0 0.1755,0 0.3411,0c-0.3762,-0.36117 -0.6973,-0.66717 -1.0233,-0.96814c-0.9832,-0.91799 -1.9263,-1.8761 -2.9496,-2.73891c-3.3058,-2.78404 -8.28195,-2.53825 -11.3419,0.51668c-2.59844,2.59845 -3.27564,6.47601 -1.62026,9.76171c1.33434,2.6536 3.52144,4.2438 6.47605,4.6301c4.01801,0.5267 7.62481,-1.6955 9.06441,-5.4829c0.1656,-0.4364 0.4666,-0.632 0.8779,-0.5718c0.4765,0.0702 0.7424,0.5568 0.5668,1.0534c-0.5066,1.4196 -1.2942,2.6687 -2.3777,3.7171c-2.1269,2.0667 -4.6802,3.0198 -7.6348,2.8743c-4.43441,-0.2157 -8.307,-3.5816 -9.16479,-7.9307c-0.86782,-4.39432 1.06346,-8.65316 4.99624,-10.80014c2.89942,-1.58014 5.90415,-1.65036 8.93405,-0.32606c1.2591,0.54678 2.2975,1.39955 3.2706,2.34763c0.9832,0.9531 1.9915,1.88111 2.9847,2.81415c0.0201,0.02006 0.0401,0.03009 0.1054,0.07524z" fill="#1B2437"/>
</svg>
