<svg width="24" height="24" viewBox="0 0 24 24" fill="none" xmlns="http://www.w3.org/2000/svg">
<path d="M4.54616,6.93327c0.11078,-0.14628 0.18631,-0.24211 0.26184,-0.33795c2.02924,-2.58255 4.69294,-3.80826 7.9609,-3.57119c4.2095,0.30769 7.6386,3.63172 8.1673,7.82337c0.0554,0.4438 -0.2316,0.8221 -0.6697,0.8776c-0.433,0.0555 -0.7956,-0.2421 -0.856,-0.7213c-0.1007,-0.7616 -0.3021,-1.49302 -0.6445,-2.18406c-1.2639,-2.53211 -3.2931,-4.01506 -6.1079,-4.25717c-2.9205,-0.2522 -5.22165,0.93315 -6.89842,3.33411c-0.03021,0.04036 -0.05539,0.08575 -0.08057,0.12611c-0.01007,0.02017 -0.02014,0.04539 -0.05035,0.11601c0.10574,0 0.19134,0 0.2719,0c1.00707,0 2.00911,-0.00505 3.01618,0c0.38268,0 0.6697,0.24211 0.7553,0.61537c0.07049,0.31778 -0.0856,0.6759 -0.39276,0.82218c-0.12588,0.06053 -0.27191,0.09079 -0.41289,0.09079c-1.67677,0.00505 -3.34851,0.00505 -5.02528,0c-0.52871,0 -0.82579,-0.30264 -0.82579,-0.83226c-0.00503,-1.67967 0,-3.35429 0,-5.03396c0,-0.48423 0.31723,-0.81714 0.76537,-0.81209c0.44311,0 0.75027,0.31777 0.7553,0.79696c0.00504,0.93819 -0.00001,1.88142 0.00503,2.81962c-0.01007,0.09583 0,0.18158 0.00504,0.32786z" fill="#1B2437"/>
<path d="M19.466,17.0617c-0.0957,0.1261 -0.146,0.1967 -0.2014,0.2623c-1.8732,2.4564 -4.3657,3.7023 -7.4473,3.6821c-4.0887,-0.0252 -7.75442,-3.0567 -8.60036,-7.0667c-0.05035,-0.227 -0.0856,-0.459 -0.12085,-0.691c-0.0856,-0.5044 0.17624,-0.908 0.62439,-0.9735c0.45318,-0.0656 0.81572,0.2421 0.88118,0.7515c0.12085,0.8827 0.37765,1.7201 0.81068,2.4918c1.2538,2.2547 3.15717,3.6115 5.72016,3.894c2.9557,0.3228 5.3072,-0.8121 7.0545,-3.2181c0.0554,-0.0757 0.1007,-0.1564 0.146,-0.232c0.0101,-0.0202 0.0151,-0.0454 0.0302,-0.111c-0.1007,0 -0.1863,0 -0.2769,0c-1.0071,0 -2.0091,0.005 -3.0162,-0.005c-0.4028,-0.0051 -0.7049,-0.2825 -0.7502,-0.6759c-0.0453,-0.3632 0.2014,-0.7213 0.5639,-0.8172c0.0856,-0.0252 0.1813,-0.0252 0.2719,-0.0252c1.6667,0 3.3334,0 5.0001,0c0.5237,0 0.8309,0.3026 0.8309,0.8222c0,1.6796 0,3.3543 0,5.0339c0,0.4792 -0.3223,0.8273 -0.7553,0.8273c-0.4432,0 -0.7554,-0.338 -0.7604,-0.8222c-0.005,-0.9332 0,-1.8613 0,-2.7944c0.0101,-0.0807 0.0051,-0.1715 -0.005,-0.3329z" fill="#1B2437"/>
</svg>
