<svg width="24" height="24" viewBox="0 0 24 24" fill="none" xmlns="http://www.w3.org/2000/svg">
<path d="M21.4834,8.16652c0,-0.2458 0,-0.45648 0,-0.66215c0,-1.21896 0,-2.43793 0,-3.65689c0,-0.31602 0.1304,-0.56684 0.4164,-0.71733c0.2658,-0.13544 0.5367,-0.11036 0.7825,0.05518c0.2258,0.15049 0.3261,0.38124 0.3261,0.64209c0.005,2.03662 0.005,4.07324 0,6.10985c0,0.47153 -0.3261,0.78253 -0.7976,0.78253c-2.0266,0.005 -4.0582,0.005 -6.0848,0c-0.4565,0 -0.7926,-0.3361 -0.7976,-0.76246c-0.005,-0.4314 0.3411,-0.76248 0.8177,-0.76248c1.2791,-0.00501 2.5533,0 3.8324,0c0.0903,0 0.1756,0 0.3411,0c-0.3762,-0.36117 -0.6972,-0.66717 -1.0233,-0.96814c-0.9832,-0.91799 -1.9262,-1.8761 -2.9496,-2.73891c-3.3057,-2.78404 -8.28189,-2.53825 -11.34183,0.51668c-2.59845,2.59845 -3.27565,6.47601 -1.62027,9.76171c1.33434,2.6536 3.52144,4.2438 6.47605,4.6301c4.01805,0.5267 7.62475,-1.6955 9.06445,-5.4829c0.1655,-0.4364 0.4665,-0.632 0.8779,-0.5718c0.4765,0.0702 0.7424,0.5568 0.5668,1.0534c-0.5066,1.4196 -1.2942,2.6687 -2.3777,3.7171c-2.1269,2.0667 -4.6802,3.0198 -7.6348,2.8743c-4.43445,-0.2157 -8.30704,-3.5816 -9.16482,-7.9307c-0.86782,-4.39432 1.06345,-8.65316 4.99623,-10.80014c2.89943,-1.58014 5.90419,-1.65036 8.93399,-0.32606c1.2591,0.54678 2.2975,1.39955 3.2707,2.34763c0.9832,0.9531 1.9914,1.88111 2.9847,2.81415c0.02,0.02006 0.0401,0.03009 0.1053,0.07524z" fill="#1B2437"/>
</svg>
