<svg width="24" height="24" viewBox="0 0 24 24" fill="none" xmlns="http://www.w3.org/2000/svg">
<path d="M4.22328,9.1946c0.12854,0 0.21424,0 0.29517,0c1.32349,0 2.65175,0 3.97524,0c0.45704,0 0.73792,0.23483 0.80933,0.64452c0.07141,0.41968 -0.21423,0.82938 -0.6189,0.87438c-0.07617,0.01 -0.1571,0.01 -0.23804,0.01c-1.8567,0 -3.7134,0 -5.5701,0c-0.60938,0 -0.87598,-0.2798 -0.87598,-0.90936c0,-1.98351 0,-3.96203 0,-5.94554c0,-0.33975 0.13806,-0.59955 0.42847,-0.74444c0.2666,-0.1299 0.52845,-0.08993 0.76172,0.09992c0.219,0.17987 0.28089,0.43468 0.28089,0.70947c0,1.13915 0,2.28329 0,3.42243c0,0.08494 0,0.17487 0,0.32476c0.41419,-0.51461 0.78076,-0.97926 1.15211,-1.43892c0.97119,-1.18911 2.0138,-2.31327 3.37538,-3.02773c3.22303,-1.70372 6.41753,-1.62878 9.50253,0.33475c2.3708,1.50887 3.7991,3.77217 4.3323,6.63506c0.2999,1.6088 0.1999,3.1976 -0.2571,4.7614c-0.1428,0.4896 -0.5237,0.7294 -0.9426,0.5995c-0.4095,-0.1299 -0.5951,-0.5545 -0.4571,-1.0492c1.0807,-3.7971 -0.4142,-7.81411 -3.642,-9.78263c-3.2611,-1.98851 -7.37916,-1.35399 -9.94522,1.56382c-0.76172,0.86935 -1.47107,1.78866 -2.20423,2.68299c-0.04761,0.05996 -0.09046,0.12491 -0.16187,0.23482z" fill="#1B2437"/>
<path d="M17.2535,20.5361c-0.319,-0.03 -0.576,-0.2198 -0.6855,-0.5196c-0.1095,-0.3148 -0.0334,-0.6395 0.2142,-0.8544c0.5142,-0.4496 1.0331,-0.8993 1.552,-1.344c0.2999,-0.2548 0.7332,-0.2298 0.9902,0.06c0.2619,0.2848 0.3,0.7644 0.0143,1.0342c-0.5522,0.5196 -1.1378,1.0043 -1.7186,1.4889c-0.0952,0.0749 -0.2428,0.0899 -0.3666,0.1349z" fill="#1B2437"/>
<path d="M12.4737,22c-0.319,-0.02 -0.6332,-0.03 -0.9522,-0.06c-0.4475,-0.0449 -0.7426,-0.3997 -0.7093,-0.8343c0.0333,-0.4297 0.3808,-0.7095 0.8331,-0.6995c0.5999,0.01 1.2045,0 1.8044,-0.005c0.3523,-0.005 0.6427,0.2048 0.7426,0.5446c0.0952,0.3297 -0.0238,0.6945 -0.3189,0.8643c-0.1333,0.08 -0.2952,0.11 -0.4523,0.1349c-0.1952,0.03 -0.3952,0.035 -0.5951,0.045c-0.119,0.005 -0.238,0 -0.3571,0c0.0048,0 0.0048,0.005 0.0048,0.01z" fill="#1B2437"/>
<path d="M8.71745,19.9266c0,0.5645 -0.58558,0.9742 -1.03785,0.6695c-0.60462,-0.4047 -1.17115,-0.8744 -1.72816,-1.354c-0.28565,-0.2448 -0.26184,-0.7195 -0.01904,-1.0193c0.23804,-0.2947 0.66651,-0.3547 0.96643,-0.1199c0.51417,0.3997 1.03785,0.7944 1.52821,1.2191c0.15711,0.1349 0.23328,0.3697 0.34278,0.5596c-0.00952,0.02 -0.02857,0.035 -0.05237,0.045z" fill="#1B2437"/>
<path d="M4.25661,16.2643c-0.19044,-0.005 -0.42371,-0.1349 -0.53797,-0.4047c-0.14759,-0.3647 -0.28089,-0.7394 -0.3761,-1.1242c-0.10474,-0.4096 0.1333,-0.7944 0.51416,-0.9093c0.36658,-0.1049 0.73792,0.095 0.87598,0.4847c0.11426,0.3197 0.22376,0.6395 0.31897,0.9642c0.15235,0.5047 -0.19519,0.9893 -0.79504,0.9893z" fill="#1B2437"/>
</svg>
