<svg width="24" height="24" viewBox="0 0 24 24" fill="none" xmlns="http://www.w3.org/2000/svg">
<path d="M4.28123,10.631c0.12085,0.1261 0.18127,0.1917 0.2417,0.2573c1.57102,1.5737 3.13701,3.1525 4.71307,4.7263c0.25177,0.2522 0.41794,0.5245 0.30716,0.8978c-0.16616,0.5599 -0.82579,0.7616 -1.27394,0.3934c-0.06042,-0.0454 -0.11078,-0.1059 -0.16113,-0.1563c-2.06953,-2.0731 -4.13402,-4.1513 -6.20354,-6.2244c-0.47332,-0.4792 -0.47836,-0.89783 -0.01007,-1.36692c2.06952,-2.07815 4.13401,-4.15125 6.20354,-6.22436c0.19638,-0.19671 0.40786,-0.35812 0.69991,-0.34299c0.33233,0.01513 0.57906,0.1715 0.71502,0.47414c0.13595,0.30264 0.08056,0.59015 -0.13092,0.8474c-0.05539,0.06557 -0.11581,0.12106 -0.17624,0.18158c-1.55088,1.55861 -3.10177,3.11722 -4.65769,4.67079c-0.07049,0.07062 -0.16113,0.12106 -0.24169,0.18159c0.0151,0.03026 0.02517,0.05548 0.04028,0.08575c0.09063,0.00504 0.18631,0.01513 0.27694,0.01513c2.71405,0 5.42807,0.01513 8.14217,-0.00505c2.1904,-0.01513 4.1944,0.55989 5.9366,1.90164c2.422,1.8663 3.6557,4.358 3.7413,7.4198c0.0201,0.7213 0.005,1.4476 0,2.1689c0,0.5195 -0.3374,0.8827 -0.8006,0.8777c-0.4683,-0.0051 -0.7855,-0.3632 -0.7956,-0.8878c-0.0151,-0.9584 0.0453,-1.9218 -0.0554,-2.87c-0.282,-2.6532 -1.6214,-4.6557 -3.9074,-5.9974c-1.2035,-0.7062 -2.5227,-1.0139 -3.9175,-1.0139c-2.7795,0 -5.56406,0 -8.34357,0c-0.09063,-0.0101 -0.18127,-0.0101 -0.3424,-0.0101z" fill="#1B2437"/>
</svg>
