<svg width="24" height="24" viewBox="0 0 24 24" fill="none" xmlns="http://www.w3.org/2000/svg">
<path fill-rule="evenodd" clip-rule="evenodd" d="M3.87803,9.80772l3.18756,3.18758c0.2243,0.2243 0.52853,0.3503 0.84575,0.3503c0.31723,0 0.62145,-0.126 0.84576,-0.3503l4.8372,-4.8372c0.2521,-0.25217 0.4661,-0.5298 0.6413,-0.82506c0.5392,-0.74288 0.6146,-1.62979 0.5875,-2.094h0.717c3.5622,0 6.4599,2.89776 6.4599,6.45996c0,3.5622 -2.8977,6.4599 -6.4599,6.4599h-0.2699v3.6032c0,0.078 -0.0462,0.1486 -0.1178,0.1797c-0.0715,0.0312 -0.1547,0.017 -0.2118,-0.0362l-4.0258,-3.7467h-0.859c-3.56217,0 -6.45993,-2.8977 -6.45993,-6.4599c0,-0.6458 0.09592,-1.2825 0.28216,-1.89128z" fill="#1B2437"/>
<path fill-rule="evenodd" clip-rule="evenodd" d="M12.8871,2.93407c0.6347,0.63475 0.9451,1.47223 0.933,2.30497c0.0309,0.2907 -0.01,1.00607 -0.4202,1.54201c-0.1374,0.23989 -0.3083,0.46553 -0.5127,0.66994l-4.8372,4.83721c-0.03677,0.0367 -0.08664,0.0574 -0.13864,0.0574c-0.05201,0 -0.10188,-0.0207 -0.13865,-0.0574l-4.83721,-4.8372c-0.60303,-0.60299 -0.9355,-1.40571 -0.9355,-2.25845c0,-0.85274 0.3325,-1.65549 0.93549,-2.25844c1.24542,-1.24545 3.27146,-1.2455 4.51692,-0.00004l0.45889,0.4589l0.4589,-0.4589c1.24546,-1.24538 3.2715,-1.24538 4.5169,0z" fill="#1B2437"/>
</svg>
