<svg width="24" height="24" viewBox="0 0 24 24" fill="none" xmlns="http://www.w3.org/2000/svg">
<path fill-rule="evenodd" clip-rule="evenodd" d="M7.9113,3.39297l0.4589,-0.4589c1.24546,-1.24538 3.2715,-1.24538 4.5169,0c0.6347,0.63475 0.9451,1.47223 0.933,2.30497h1.72c3.5621,0 6.4599,2.89776 6.4599,6.45996c0,3.5622 -2.8977,6.4599 -6.4599,6.4599h-0.2699v3.6032c0,0.078 -0.0462,0.1486 -0.1178,0.1797c-0.0715,0.0312 -0.1547,0.017 -0.2118,-0.0362l-4.0258,-3.7467h-0.859c-3.56218,0 -6.45994,-2.8977 -6.45994,-6.4599c0,-1.0135 0.23626,-2.00454 0.68705,-2.90059l-1.34741,-1.34741c-0.60303,-0.60299 -0.9355,-1.40571 -0.9355,-2.25845c0,-0.85274 0.3325,-1.65549 0.93549,-2.25844c1.24542,-1.24545 3.27146,-1.2455 4.51692,-0.00004zM9.46052,4.02445l-1.41061,1.41061c-0.03677,0.03677 -0.08664,0.05743 -0.13864,0.05743c-0.05201,0 -0.10188,-0.02066 -0.13865,-0.05743l-1.41062,-1.41062c-0.32185,-0.32185 -0.74461,-0.48297 -1.16807,-0.48297c-0.42356,0 -0.84614,0.16105 -1.16806,0.48297c-0.64394,0.64398 -0.64394,1.6922 0,2.33618l3.88543,3.88548l3.8854,-3.88548c0.3123,-0.31226 0.4838,-0.72646 0.4838,-1.16807c0,-0.44164 -0.1715,-0.85581 -0.4838,-1.16806c-0.644,-0.64398 -1.6922,-0.64394 -2.33618,-0.00004zM13.7282,16.813c0,-0.1083 0.0878,-0.1961 0.196,-0.1961h1.6159c2.7115,0 4.9179,-2.2063 4.9179,-4.9179c0,-2.71161 -2.2063,-4.91795 -4.9179,-4.91795h-2.1402c-0.1374,0.23989 -0.3083,0.46553 -0.5127,0.66994l-4.83721,4.83721c-0.03677,0.0367 -0.08664,0.0574 -0.13865,0.0574c-0.052,0 -0.10187,-0.0207 -0.13865,-0.0574l-2.32079,-2.32084c-0.20671,0.54974 -0.31399,1.13534 -0.31399,1.73164c0,2.7116 2.20633,4.9179 4.91789,4.9179h1.3885c0.0495,0 0.0973,0.0188 0.1336,0.0526l2.1503,2.0013z" fill="#1B2437"/>
</svg>
