<svg width="24" height="24" viewBox="0 0 24 24" fill="none" xmlns="http://www.w3.org/2000/svg">
<path d="M20.6911,19.2116c-0.1067,0.1727 -0.2953,0.278 -0.4984,0.278h-2.845l-1.7071,2.276c-0.1112,0.1483 -0.2853,0.2344 -0.4686,0.2344c-0.2432,0 -0.4349,-0.1453 -0.5241,-0.3239l-2.3511,-4.702c-0.0873,0.003 -0.1749,0.0051 -0.2629,0.0051c-0.0881,0 -0.1757,-0.0021 -0.2629,-0.0051l-2.35111,4.702c-0.08957,0.1789 -0.28107,0.3239 -0.52414,0.3239c-0.18341,0 -0.35736,-0.0861 -0.46875,-0.2344l-1.707,-2.276h-2.845c-0.20309,0 -0.39169,-0.1053 -0.49851,-0.278c-0.10665,-0.1727 -0.11642,-0.3883 -0.02563,-0.5701l2.47986,-4.9592c-0.81177,-1.1972 -1.28647,-2.6406 -1.28647,-4.19268c0,-4.12979 3.35983,-7.48962 7.48965,-7.48962c4.1298,0 7.4896,3.35983 7.4896,7.48962c0,1.55208 -0.4747,2.99528 -1.2863,4.19238l2.4795,4.9595c0.091,0.1818 0.0812,0.3974 -0.0256,0.5701zM10.5336,16.8282c-1.51227,-0.3087 -2.85992,-1.0748 -3.89233,-2.1466l-1.81824,3.6361h2.18994c0.18448,0 0.35812,0.0869 0.46875,0.2344l1.31409,1.7519zM12.0339,15.8074c3.4836,0 6.3177,-2.8342 6.3177,-6.31778c0,-3.48358 -2.8341,-6.31774 -6.3177,-6.31774c-3.48361,0 -6.31777,2.83416 -6.31777,6.31774c0,3.48358 2.83416,6.31778 6.31777,6.31778zM19.2446,18.3176l-1.818,-3.6363c-1.0324,1.0721 -2.3802,1.838 -3.8926,2.1469l1.7379,3.4758l1.314,-1.7519c0.1108,-0.1475 0.2844,-0.2344 0.4687,-0.2344z" fill="#1B2437"/>
<path d="M15.2007,13.0033c0.0139,0.2014 -0.0768,0.3958 -0.2402,0.5145c-0.1633,0.1186 -0.3761,0.1448 -0.5633,0.0694l-2.3633,-0.9526l-2.36331,0.9525c-0.06332,0.0254 -0.31555,0.1107 -0.5635,-0.0695c-0.16327,-0.1187 -0.25391,-0.3131 -0.24003,-0.5145l0.17609,-2.5416l-1.63635,-1.95317c-0.1297,-0.15472 -0.17044,-0.36529 -0.10819,-0.5574c0.06241,-0.19196 0.21927,-0.33829 0.4152,-0.38727l2.47159,-0.61829l1.3518,-2.15988c0.1071,-0.1712 0.2948,-0.27511 0.4967,-0.27511c0.2018,0 0.3895,0.10391 0.4966,0.27511l1.3521,2.15988l2.4718,0.61829c0.1958,0.04898 0.3526,0.19531 0.415,0.38742c0.0624,0.19196 0.0216,0.40253 -0.1081,0.55725l-1.6364,1.95317zM15.1619,8.47339l-1.7927,-0.44846c-0.1471,-0.03677 -0.2741,-0.12909 -0.3545,-0.25757l-0.9807,-1.56662l-0.9805,1.56662c-0.0804,0.12848 -0.2074,0.2208 -0.3545,0.25757l-1.79272,0.44846l1.18682,1.41647c0.0974,0.11624 0.1459,0.26564 0.1355,0.41684l-0.1277,1.8436l1.714,-0.6909c0.0815,-0.033 0.2481,-0.0766 0.4381,0l1.714,0.6909l-0.1274,-1.8437c-0.0105,-0.1512 0.038,-0.3005 0.1353,-0.41674z" fill="#1B2437"/>
</svg>
