<svg width="24" height="24" viewBox="0 0 24 24" fill="none" xmlns="http://www.w3.org/2000/svg">
<path fill-rule="evenodd" clip-rule="evenodd" d="M20.6911,19.2116c-0.1066,0.1727 -0.2952,0.278 -0.4983,0.278h-2.845l-1.7072,2.276c-0.1112,0.1483 -0.2853,0.2344 -0.4686,0.2344c-0.2432,0 -0.4349,-0.1453 -0.5241,-0.3239l-2.3511,-4.702c-0.0873,0.003 -0.1749,0.0051 -0.2629,0.0051c-0.088,0 -0.1756,-0.0021 -0.2629,-0.0051l-2.35109,4.702c-0.08957,0.1789 -0.28106,0.3239 -0.52414,0.3239c-0.18341,0 -0.35736,-0.0861 -0.46875,-0.2344l-1.707,-2.276h-2.845c-0.20309,0 -0.39169,-0.1053 -0.4985,-0.278c-0.10666,-0.1727 -0.11643,-0.3883 -0.02564,-0.5701l2.47986,-4.9592c-0.81177,-1.1972 -1.28647,-2.6406 -1.28647,-4.19268c0,-4.12979 3.35984,-7.48962 7.48963,-7.48962c4.1298,0 7.4896,3.35983 7.4896,7.48962c0,1.55208 -0.4747,2.99528 -1.2863,4.19238l2.4796,4.9595c0.0909,0.1818 0.0811,0.3974 -0.0257,0.5701zM12.0339,3.17188c-3.48358,0 -6.31775,2.83416 -6.31775,6.31774c0,3.48358 2.83417,6.31778 6.31775,6.31778c3.4836,0 6.3177,-2.8342 6.3177,-6.31778c0,-3.48358 -2.8341,-6.31774 -6.3177,-6.31774z" fill="#1B2437"/>
<path d="M15.2007,13.0033c0.0139,0.2014 -0.0767,0.3958 -0.2402,0.5145c-0.1632,0.1186 -0.3761,0.1448 -0.5633,0.0694l-2.3633,-0.9526l-2.36328,0.9525c-0.06333,0.0254 -0.31556,0.1107 -0.56351,-0.0695c-0.16327,-0.1187 -0.25391,-0.3131 -0.24002,-0.5145l0.17608,-2.5416l-1.63635,-1.95317c-0.1297,-0.15472 -0.17044,-0.36529 -0.10818,-0.5574c0.06241,-0.19196 0.21927,-0.33829 0.41519,-0.38727l2.47157,-0.61829l1.3518,-2.15988c0.1071,-0.1712 0.2948,-0.27511 0.4967,-0.27511c0.2019,0 0.3896,0.10391 0.4967,0.27511l1.3521,2.15988l2.4717,0.61829c0.1958,0.04898 0.3527,0.19531 0.4151,0.38742c0.0624,0.19196 0.0215,0.40253 -0.1082,0.55725l-1.6364,1.95317z" fill="#1B2437"/>
</svg>
