<svg width="24" height="24" viewBox="0 0 24 24" fill="none" xmlns="http://www.w3.org/2000/svg">
<path d="M22.4689,17.2184c0.5391,1.0182 0.5091,2.2161 -0.0798,3.2044c-0.589,0.9882 -1.6372,1.5772 -2.7852,1.5772h-14.35483c-1.14799,0 -2.19616,-0.589 -2.78513,-1.5772c-0.58897,-0.9883 -0.61892,-2.1862 -0.07986,-3.2044c0.12977,-0.1797 0.21962,-0.3794 0.33941,-0.6189c0.50911,-1.0382 1.43748,-2.905 3.87322,-3.9831c-0.17969,-0.2595 -0.34939,-0.5191 -0.49913,-0.7786c-0.07986,-0.1398 -0.11979,-0.2995 -0.09982,-0.4592c0.03993,-0.1897 0.06988,-0.4193 0.1098,-0.7088c0.24957,-1.77686 0.76866,-5.48038 3.18443,-7.51682c1.84681,-1.53731 4.42231,-1.53731 6.26901,0c2.3858,2.01647 3.0946,6.02945 3.3042,8.23562c0,0.0998 0.01,0.2695 -0.0998,0.4592c-0.1497,0.2595 -0.3194,0.5191 -0.4991,0.7786c2.4557,1.0781 3.3841,2.9648 3.8932,4.013c0.1098,0.2296 0.1996,0.4093 0.2795,0.5291l0.0399,0.0598zM16.4095,10.2506c0,0.1796 0,0.3094 0,0.3893c0,0.7686 -0.3294,1.6671 -0.9882,2.6653h0.4791c0.5491,-0.6389 1.0482,-1.2977 1.4675,-1.9765c-0.1098,-0.4093 -0.4493,-0.7787 -0.9584,-1.0781zM10.2503,4.29099c-1.0781,0.90841 -1.84675,2.42576 -2.34588,4.61193c1.35762,-0.72873 3.13448,-0.90841 4.54208,-0.90841c1.4075,0 3.1844,0.1697 4.542,0.90841c-0.4991,-2.18617 -1.2777,-3.70352 -2.3559,-4.62191c-1.2877,-1.07812 -3.0945,-1.07812 -4.3823,0zM14.9321,9.7115c-0.7287,-0.1697 -1.5473,-0.24956 -2.4856,-0.24956c-1.1181,0 -1.9566,0.12977 -2.49566,0.24956v0.3494c-0.00998,0.2795 -0.00998,0.5091 -0.00998,0.589c0,0.6388 0.46914,1.5872 1.33764,2.6653h2.3359c0.8585,-1.0881 1.3377,-2.0265 1.3377,-2.6653c0,-0.1498 0,-0.4792 -0.02,-0.9384zM8.48341,10.2506c-0.57899,0.3294 -0.79861,0.6888 -0.94834,1.108c0.41926,0.6788 0.90841,1.3277 1.44746,1.9566h0.47916c-0.65884,-1.0082 -0.98827,-1.8967 -0.98827,-2.6653c0,-0.0699 0,-0.2197 0,-0.3993zM7.59496,20.5525l-1.4874,-4.1727c-0.22959,-0.6289 -0.1697,-1.2977 0.14974,-1.8767c-1.26778,0.8685 -1.8268,2.0165 -2.20614,2.7851c-0.14973,0.2895 -0.25954,0.5191 -0.38931,0.6988c-0.25955,0.4991 -0.24957,1.158 0.07986,1.6971c0.31944,0.549 0.89842,0.8684 1.52732,0.8684zM9.13227,20.5525h6.60843l1.6671,-4.6618c0.0998,-0.2596 0.0599,-0.5391 -0.0998,-0.7587c-0.1598,-0.2196 -0.4093,-0.3494 -0.6788,-0.3494h-8.36541c-0.26953,0 -0.51909,0.1298 -0.67881,0.3494c-0.14974,0.2196 -0.18967,0.4991 -0.09983,0.7587l1.6571,4.6618zM21.1612,19.6841c0.3195,-0.5391 0.3394,-1.198 0.0399,-1.757c-0.0698,-0.0898 -0.1896,-0.3094 -0.3294,-0.5989c-0.3793,-0.7787 -0.9583,-1.9466 -2.2261,-2.8251c0.3195,0.569 0.3694,1.2478 0.1498,1.8767l-1.4874,4.1727h2.3159c0.6289,0 1.1979,-0.3294 1.5273,-0.8684z" fill="#1B2437"/>
<path d="M14.4629,17.6576c0,1.118 -0.9084,2.0265 -2.0264,2.0265c-1.1181,0 -2.0265,-0.9085 -2.0265,-2.0265c0,-1.118 0.9084,-2.0265 2.0265,-2.0265c1.118,0 2.0264,0.9085 2.0264,2.0265zM12.9955,17.6576c0,-0.3095 -0.2496,-0.559 -0.559,-0.559c-0.3095,0 -0.559,0.2495 -0.559,0.559c0,0.3095 0.2495,0.559 0.559,0.559c0.3094,0 0.559,-0.2495 0.559,-0.559z" fill="#1B2437"/>
</svg>
