<svg width="24" height="24" viewBox="0 0 24 24" fill="none" xmlns="http://www.w3.org/2000/svg">
<path d="M22.3892,20.4331c-0.5888,0.9881 -1.6367,1.5769 -2.7844,1.5769h-14.35129c-1.14771,0 -2.19561,-0.5888 -2.78443,-1.5769c-0.59881,-0.988 -0.62875,-2.1856 -0.08982,-3.2035c0.12974,-0.1797 0.22954,-0.3793 0.33932,-0.6188c0.51896,-1.0379 1.43712,-2.9042 3.87225,-3.982c-0.17964,-0.2595 -0.33932,-0.529 -0.499,-0.7785c-0.07984,-0.1397 -0.10978,-0.2994 -0.08982,-0.4591c0.03992,-0.1996 0.06986,-0.4191 0.10978,-0.7185c0.2495,-1.77648 0.76846,-5.47907 3.18363,-7.515c1.84628,-1.53693 4.42118,-1.53693 6.25748,0c2.3852,2.01597 3.0938,6.02794 3.3034,8.2335c0.01,0.0998 0.02,0.2695 -0.0998,0.4591c-0.1497,0.2595 -0.3194,0.519 -0.499,0.7785c2.4551,1.0878 3.3832,2.964 3.8922,4.0119c0.1098,0.2296 0.1996,0.4192 0.2795,0.529l0.0399,0.0599c0.5389,1.0179 0.509,2.2155 -0.0799,3.2035zM7.56888,20.5429l-1.48703,-4.1616c-0.21956,-0.6388 -0.16966,-1.3074 0.1497,-1.8863c-1.25748,0.8683 -1.82635,2.016 -2.20559,2.7845c-0.13972,0.2894 -0.25948,0.5189 -0.37924,0.6986c-0.26946,0.499 -0.2495,1.1576 0.07984,1.6966c0.31936,0.5489 0.89821,0.8682 1.52695,0.8682zM9.44512,13.3074c-0.65868,-0.998 -0.98802,-1.8962 -0.98802,-2.6647v-0.3992c-0.56886,0.3294 -0.78842,0.6986 -0.93812,1.1078c0.41916,0.6787 0.90818,1.3274 1.4471,1.9561zM14.4551,17.6587c0,-1.1178 -0.9082,-2.026 -2.0259,-2.026c-1.1178,0 -2.026,0.9082 -2.026,2.026c0,1.1178 0.9082,2.0259 2.026,2.0259c1.1177,0 2.0259,-0.9081 2.0259,-2.0259zM14.9341,10.6427c0,-0.1497 -0.0099,-0.479 -0.0199,-0.93809c-0.7286,-0.16967 -1.5469,-0.24951 -2.485,-0.24951c-1.1278,0 -1.9661,0.12974 -2.49505,0.24951v0.35929c-0.00998,0.2694 -0.00998,0.499 -0.00998,0.5788c0,0.6487 0.46903,1.5869 1.33733,2.6647h2.3353c0.8583,-1.0778 1.3373,-2.016 1.3373,-2.6647zM15.8922,13.3074c0.5489,-0.6387 1.0479,-1.2974 1.4671,-1.976c-0.1198,-0.3992 -0.4591,-0.7685 -0.9681,-1.0779c0.01,0.1796 0.01,0.3094 0.01,0.3892c0,0.7685 -0.3293,1.6667 -0.988,2.6647zM21.1717,17.9182c-0.0699,-0.0799 -0.1797,-0.3094 -0.3194,-0.5988c-0.3892,-0.7785 -0.9581,-1.9461 -2.2355,-2.8244c0.3193,0.5789 0.3792,1.2575 0.1497,1.8863l-1.4771,4.1616h2.3154c0.6287,0 1.1976,-0.3193 1.527,-0.8682c0.3193,-0.539 0.3393,-1.1976 0.0399,-1.7565zM12.988,17.6587c0,0.3094 -0.2495,0.5589 -0.5588,0.5589c-0.3094,0 -0.5589,-0.2495 -0.5589,-0.5589c0,-0.3094 0.2495,-0.5589 0.5589,-0.5589c0.3093,0 0.5588,0.2495 0.5588,0.5589z" fill="#1B2437"/>
</svg>
