<svg width="25" height="24" viewBox="0 0 25 24" fill="none" xmlns="http://www.w3.org/2000/svg">
<path d="M22.9331,5.26061c0,1.51603 -1.2327,2.74936 -2.7478,2.74936c-0.8296,0 -1.5739,-0.37037 -2.0781,-0.95387l-3.5263,1.76444c0.0414,0.18936 0.0638,0.38579 0.0638,0.58741c0,0.81285 -0.3546,1.54415 -0.917,2.04785l1.6877,2.5336c0.2011,-0.047 0.4104,-0.0728 0.6257,-0.0728c1.5152,0 2.7479,1.2332 2.7479,2.7491c0,1.5159 -1.2327,2.7492 -2.7479,2.7492c-0.8596,0 -1.6279,-0.3972 -2.1321,-1.0175l-5.54317,0.9246c-0.26794,1.237 -1.36976,2.1666 -2.68498,2.1666c-1.51508,0 -2.74774,-1.2332 -2.74774,-2.7493c0,-1.5159 1.23266,-2.7491 2.74774,-2.7491c1.24471,0 2.29811,0.8326 2.63468,1.9703l5.01677,-0.8367c-0.0251,-0.149 -0.0389,-0.302 -0.0389,-0.4581c0,-0.8128 0.3547,-1.5441 0.9171,-2.0479l-1.6877,-2.5334c-0.2011,0.0471 -0.4105,0.0728 -0.6258,0.0728c-1.5151,0 -2.74767,-1.2333 -2.74767,-2.74925c0,-1.51596 1.23257,-2.74923 2.74767,-2.74923c0.8296,0 1.574,0.37037 2.0782,0.95381l3.5263,-1.76438c-0.0414,-0.18943 -0.0638,-0.38593 -0.0638,-0.58754c0,-1.51596 1.2326,-2.74923 2.7476,-2.74923c1.5151,0 2.7478,1.23327 2.7478,2.74923zM7.07721,18.7393c0,-0.7708 -0.62639,-1.398 -1.39636,-1.398c-0.76997,0 -1.39643,0.6272 -1.39643,1.398c0,0.7709 0.6264,1.3981 1.39643,1.3981c0.76997,0 1.39636,-0.6272 1.39636,-1.3981zM16.0411,15.2678c-0.7699,0 -1.3963,0.6272 -1.3963,1.3979c0,0.7709 0.6263,1.3979 1.3963,1.3979c0.7701,0 1.3967,-0.627 1.3967,-1.3979c0,-0.7707 -0.6266,-1.3979 -1.3967,-1.3979zM11.897,10.8059c0.77,0 1.3964,-0.6271 1.3964,-1.39795c0,-0.77084 -0.6264,-1.39798 -1.3964,-1.39798c-0.77,0 -1.3964,0.62714 -1.3964,1.39798c0,0.77085 0.6264,1.39795 1.3964,1.39795zM21.5818,5.26061c0,-0.77091 -0.6264,-1.39798 -1.3965,-1.39798c-0.7699,0 -1.3963,0.62714 -1.3963,1.39798c0,0.77091 0.6263,1.39811 1.3963,1.39811c0.7701,0 1.3966,-0.62727 1.3965,-1.39811z" fill="#1B2437"/>
</svg>
