<svg width="24" height="24" viewBox="0 0 24 24" fill="none" xmlns="http://www.w3.org/2000/svg">
<path d="M11.7437,20.5169c0.8007,0 1.5509,-0.0051 2.3062,0c0.6194,0.005 0.9819,0.6456 0.6647,1.1601c-0.1259,0.2068 -0.3072,0.3279 -0.5489,0.3531c-0.1007,0.0101 -0.2014,0.0101 -0.3021,0.0101c-3.4441,0 -6.88328,-0.0151 -10.32746,0.0101c-0.93657,0.005 -1.57606,-0.6104 -1.57102,-1.5788c0.0151,-3.4653 0.00503,-6.9305 0.00503,-10.3907c0,-0.54985 0.29709,-0.89284 0.76537,-0.89788c0.43808,-0.00505 0.76538,0.32282 0.77041,0.78687c0.00504,0.75661 0,1.50821 0,2.30511c0.11078,0 0.20645,0 0.30212,0c2.14506,0 4.28508,0 6.43015,0c0.9265,0 1.5055,0.575 1.5055,1.5031c0,2.1387 0,4.2774 0,6.4161c0,0.0958 0,0.1916 0,0.3228z" fill="#1B2437"/>
<path d="M13.3047,10.7012c-0.1309,0 -0.2215,0 -0.3071,0c-0.6848,0 -1.3747,0.005 -2.0595,-0.005c-0.4028,-0.0051 -0.7251,-0.3531 -0.7301,-0.75161c0,-0.39343 0.2971,-0.75156 0.6949,-0.75661c1.0775,-0.01513 2.1601,-0.01513 3.2377,0c0.3928,0.00505 0.6747,0.33291 0.6798,0.73139c0.005,1.03903 0.005,2.07813 0,3.12223c0,0.4288 -0.3273,0.7466 -0.7503,0.7516c-0.4129,0.005 -0.7553,-0.3178 -0.7603,-0.7415c-0.0051,-0.6809 0,-1.3568 0,-2.0378c-0.0051,-0.0857 -0.0051,-0.1765 -0.0051,-0.3127z" fill="#1B2437"/>
<path d="M3.50599,3.49319c0,0.78687 0.00503,1.54348 0,2.29504c-0.00504,0.48423 -0.34241,0.80705 -0.81573,0.78687c-0.3273,-0.01513 -0.60928,-0.24211 -0.68481,-0.56493c-0.02517,-0.10592 -0.03524,-0.21689 -0.03524,-0.32282c-0.00504,-0.74652 -0.00504,-1.49304 0,-2.23956c0.00503,-0.90793 0.58913,-1.49303 1.49549,-1.49303c0.78048,0 1.55592,-0.00505 2.3364,0c0.38269,0.00504 0.68481,0.23707 0.76537,0.56998c0.08057,0.32786 -0.05035,0.69607 -0.3424,0.84739c-0.15106,0.07566 -0.33233,0.11097 -0.50353,0.11602c-0.73013,0.01009 -1.45522,0.00504 -2.21555,0.00504z" fill="#1B2437"/>
<path d="M20.5003,3.49326c-0.1158,0 -0.2065,0 -0.2971,0c-0.6596,0 -1.3243,0.00504 -1.9839,0c-0.4683,-0.00504 -0.7956,-0.32282 -0.8007,-0.75661c-0.005,-0.43883 0.3122,-0.77174 0.7805,-0.77678c0.8208,-0.01009 1.6415,-0.01513 2.4623,0c0.7754,0.01513 1.3444,0.58511 1.3595,1.36189c0.0202,0.82218 0.0101,1.64436 0,2.46654c-0.005,0.48423 -0.3373,0.79696 -0.7905,0.78687c-0.433,-0.01009 -0.7301,-0.33795 -0.7352,-0.82218c-0.005,-0.65572 0,-1.3064 0,-1.96213c0.0051,-0.09079 0.0051,-0.18159 0.0051,-0.2976z" fill="#1B2437"/>
<path d="M20.5002,20.5169c0,-0.7919 -0.0051,-1.5385 0,-2.285c0,-0.3884 0.2215,-0.691 0.5539,-0.7818c0.4632,-0.1261 0.9466,0.1664 0.9617,0.6507c0.0252,0.923 0.0302,1.8461 -0.0151,2.7641c-0.0302,0.6204 -0.5841,1.1349 -1.1984,1.1551c-0.8963,0.0303 -1.7926,0.0202 -2.6889,0.005c-0.3978,-0.005 -0.6898,-0.348 -0.6898,-0.7515c0,-0.4086 0.3071,-0.7465 0.715,-0.7566c0.6848,-0.0101 1.3747,-0.0051 2.0595,-0.0051c0.0906,0.0051 0.1812,0.0051 0.3021,0.0051z" fill="#1B2437"/>
<path d="M20.5003,11.9824c0,-0.6809 -0.0051,-1.3568 0,-2.03779c0.005,-0.34804 0.2115,-0.63051 0.5136,-0.73139c0.3071,-0.10592 0.6697,-0.01009 0.8459,0.26733c0.0957,0.14628 0.1561,0.33796 0.1561,0.5145c0.0151,1.33165 0.0101,2.66325 0.005,3.99995c0,0.5044 -0.3172,0.8373 -0.7754,0.8322c-0.4381,-0.005 -0.7503,-0.343 -0.7503,-0.8322c0.0051,-0.6709 0.0051,-1.3417 0.0051,-2.0126z" fill="#1B2437"/>
<path d="M12.0056,1.95475c0.6798,0 1.3545,-0.00504 2.0343,0c0.3726,0.00504 0.6647,0.22698 0.7553,0.5498c0.0907,0.31778 -0.0151,0.66582 -0.3021,0.83731c-0.141,0.08575 -0.3273,0.14124 -0.4935,0.14124c-1.3293,0.01009 -2.6586,0.01009 -3.993,0.00504c-0.48842,0 -0.81572,-0.31273 -0.82075,-0.76165c-0.00504,-0.44892 0.33736,-0.77174 0.83585,-0.77678c0.6596,0 1.3193,0.00504 1.9839,0.00504z" fill="#1B2437"/>
</svg>
