<svg width="24" height="24" viewBox="0 0 24 24" fill="none" xmlns="http://www.w3.org/2000/svg">
<path d="M4.15326,4.43513c3.4341,-3.59136 8.95284,-3.82339 12.67394,-0.81209c3.9175,3.16766 4.7634,9.17516 1.284,13.36166c0.0655,0.0656 0.1309,0.1412 0.1964,0.2068l3.8369,3.8436c0.2216,0.2219 0.3525,0.4741 0.282,0.7919c-0.1309,0.5901 -0.8056,0.8323 -1.279,0.454c-0.0856,-0.0656 -0.1611,-0.1463 -0.2417,-0.222c-1.2387,-1.2408 -2.4774,-2.4766 -3.711,-3.7225c-0.0655,-0.0656 -0.1108,-0.1614 -0.1762,-0.2522c-4.2348,3.4955 -10.0808,2.6784 -13.25306,-1.0996c-3.09674,-3.6872 -2.91547,-9.0944 0.38772,-12.54957z" fill="#1B2437"/>
</svg>
