<svg width="24" height="24" viewBox="0 0 24 24" fill="none" xmlns="http://www.w3.org/2000/svg">
<path d="M17.0186,18.0843c-4.2348,3.4955 -10.0808,2.6784 -13.25306,-1.0996c-3.09674,-3.6872 -2.91547,-9.0944 0.38772,-12.54957c3.4341,-3.59136 8.95284,-3.82339 12.67394,-0.81209c3.9175,3.16766 4.7634,9.17516 1.284,13.36166c0.0655,0.0656 0.1309,0.1412 0.1964,0.2068c1.279,1.2812 2.558,2.5624 3.8369,3.8436c0.2216,0.2219 0.3525,0.4741 0.282,0.7919c-0.1309,0.5901 -0.8056,0.8323 -1.279,0.454c-0.0856,-0.0656 -0.1611,-0.1463 -0.2417,-0.222c-1.2387,-1.2408 -2.4774,-2.4766 -3.711,-3.7225c-0.0655,-0.0656 -0.1108,-0.1614 -0.1762,-0.2522zM10.9258,3.12872c-4.27501,0 -7.76954,3.48039 -7.77457,7.74258c-0.00504,4.348 3.45928,7.8486 7.76957,7.8486c4.3102,0 7.7846,-3.4855 7.7896,-7.8082c0.0051,-4.2925 -3.4844,-7.77794 -7.7846,-7.78298z" fill="#1B2437"/>
</svg>
