<svg width="24" height="24" viewBox="0 0 24 24" fill="none" xmlns="http://www.w3.org/2000/svg">
<path d="M19.9337,21.699c-0.1643,0 -0.3287,-0.0205 -0.4931,-0.0616l-7.3872,-1.7569l-7.50011,1.726c-0.81166,0.185 -1.62332,-0.113 -2.12676,-0.7705c-0.50343,-0.6576 -0.56508,-1.5309 -0.16438,-2.2501l7.93165,-14.50711c0.3596,-0.66782 1.0583,-1.07879 1.8185,-1.07879c0.7603,0 1.4693,0.42124 1.8288,1.08906l7.9009,14.53794c0.4007,0.7295 0.3288,1.5925 -0.1747,2.2603c-0.4007,0.524 -0.9966,0.8117 -1.6336,0.8117zM12.8343,18.4935l6.9659,1.6541c0.2979,0.0719 0.4829,-0.113 0.5445,-0.1952c0.0616,-0.0822 0.1952,-0.3082 0.0411,-0.5856l-7.8906,-14.538c-0.1438,-0.25685 -0.3801,-0.28767 -0.4726,-0.28767c-0.0616,0 -0.3288,0.03082 -0.4726,0.2774l-7.94194,14.51737c-0.15411,0.2774 -0.02054,0.5035 0.0411,0.5857c0.06165,0.0822 0.24658,0.2671 0.55481,0.2055l7.08923,-1.6336l-0.0411,-7.7468c0,-0.4212 0.339,-0.77053 0.7705,-0.77053c0.4213,0 0.7706,0.33903 0.7706,0.77053l0.0411,7.757z" fill="#1B2437"/>
</svg>
