<svg width="24" height="24" viewBox="0 0 24 24" fill="none" xmlns="http://www.w3.org/2000/svg">
<path d="M13.7671,4.03042l7.9932,14.73598c0.3702,0.7003 0.3101,1.5206 -0.17,2.1409c-0.0501,0.06 -0.1101,0.12 -0.1701,0.18c-0.4802,0.4902 -1.1605,0.6803 -1.8408,0.5103l-5.7723,-1.4206c-0.5902,-0.1401 -1.0104,-0.6703 -1.0104,-1.2805l-0.02,-8.1834c0,-0.4101 -0.3402,-0.75027 -0.7503,-0.75027c-0.4202,-0.01001 -0.7503,0.33017 -0.7503,0.75027l0.03,8.1834c0,0.6002 -0.4102,1.1304 -1.0004,1.2705l-5.75237,1.3705c-0.7403,0.1701 -1.77072,-0.15 -2.20089,-0.7803c-0.43018,-0.6202 -0.47019,-1.3906 -0.10004,-2.0508l8.0833,-14.69599c0.3401,-0.63026 1.0004,-1.01041 1.7207,-1.01041c0.7103,0 1.3705,0.40016 1.7107,1.03042z" fill="#1B2437"/>
</svg>
