<svg width="24" height="24" viewBox="0 0 24 24" fill="none" xmlns="http://www.w3.org/2000/svg">
<path d="M3.82013,17.4225c0.01007,-0.3884 0.14602,-0.8222 0.37765,-1.2308c0.39779,-0.7061 0.1007,-1.4174 -0.67977,-1.6292c-1.18834,-0.3228 -1.96379,-1.3215 -1.96379,-2.5473c-0.00503,-1.2206 0.75027,-2.22942 1.91343,-2.56233c0.86105,-0.24212 1.13296,-0.91297 0.69992,-1.70489c-0.47836,-0.87262 -0.4834,-1.75533 0.03524,-2.60777c0.52368,-0.86758 1.30919,-1.32658 2.33137,-1.33162c0.45318,-0.00505 0.89125,0.11601 1.25883,0.36821c0.57403,0.39343 1.46529,0.13619 1.6667,-0.69608c0.28701,-1.1803 1.31419,-1.94196 2.52779,-1.947c1.2286,-0.00505 2.2407,0.76165 2.5629,1.94195c0.2266,0.82723 0.9114,1.1097 1.6718,0.69104c0.8761,-0.48423 1.7674,-0.49936 2.6234,0.02018c0.8661,0.52458 1.3243,1.31145 1.3293,2.33539c0,0.46405 -0.151,0.88775 -0.3776,1.29127c-0.3978,0.70617 -0.1007,1.41738 0.6797,1.62923c1.1884,0.32282 1.9638,1.32152 1.9689,2.54722c0.005,1.2308 -0.7604,2.2446 -1.9387,2.5674c-0.8257,0.227 -1.1077,0.913 -0.6898,1.6747c0.4834,0.8776 0.4985,1.7704 -0.0201,2.6279c-0.5237,0.8676 -1.3092,1.3266 -2.3314,1.3316c-0.4633,0.0051 -0.8862,-0.1513 -1.289,-0.3783c-0.705,-0.3984 -1.415,-0.1008 -1.6265,0.681c-0.3222,1.1904 -1.3192,1.9672 -2.5428,1.9722c-1.2186,0.0051 -2.22563,-0.7516 -2.55796,-1.9167c-0.2417,-0.8626 -0.91643,-1.14 -1.70195,-0.7011c-1.74726,0.9835 -3.9477,-0.3279 -3.92756,-2.4262zM8.40229,18.0429c1.21351,-0.0051 2.20551,0.7717 2.57301,2.0075c0.1561,0.5347 0.5187,0.8222 1.0323,0.8171c0.4985,-0.005 0.8711,-0.2925 1.0121,-0.812c0.4834,-1.8159 2.4875,-2.5221 3.9527,-1.6242c0.4432,0.2723 0.9416,0.1916 1.2891,-0.1614c0.3474,-0.3531 0.4028,-0.8373 0.151,-1.2964c-0.8962,-1.6191 -0.156,-3.4249 1.6114,-3.9494c0.5387,-0.1564 0.8258,-0.5196 0.8258,-1.029c0,-0.5095 -0.2921,-0.8777 -0.8258,-1.029c-1.7624,-0.5145 -2.5076,-2.33541 -1.6114,-3.94446c0.2568,-0.45901 0.2015,-0.94323 -0.146,-1.29632c-0.3474,-0.35308 -0.8358,-0.41361 -1.289,-0.16141c-1.6466,0.90793 -3.4241,0.1715 -3.9628,-1.64436c-0.1511,-0.50945 -0.5187,-0.79695 -1.0272,-0.79191c-0.4885,0.00504 -0.8762,0.28751 -1.0021,0.78687c-0.4532,1.81081 -2.4824,2.56237 -3.95776,1.6494c-0.44311,-0.27238 -0.94161,-0.19167 -1.28905,0.15636c-0.34744,0.35309 -0.40283,0.83228 -0.15106,1.29633c0.89126,1.61914 0.1561,3.4249 -1.61131,3.9495c-0.53878,0.1614 -0.82579,0.5145 -0.82579,1.029c0,0.5094 0.29205,0.8776 0.82076,1.029c1.7674,0.5144 2.50256,2.3303 1.62642,3.9494c-0.11582,0.2119 -0.17625,0.5044 -0.13596,0.7415c0.12085,0.7365 0.90636,1.0845 1.56095,0.7112c0.42801,-0.2421 0.88622,-0.3833 1.37969,-0.3833z" fill="#1B2437"/>
<path d="M12.0227,7.98008c2.2055,0.01008 3.998,1.82594 3.988,4.04032c-0.0101,2.2193 -1.8329,4.0201 -4.0535,4.0049c-2.20547,-0.0151 -3.98798,-1.836 -3.97791,-4.0554c0.02014,-2.20928 1.83287,-4.00496 4.04341,-3.98982zM11.9975,9.57904c-1.3344,0 -2.41193,1.07946 -2.41193,2.41606c-0.00504,1.3518 1.07753,2.4313 2.42203,2.4313c1.3343,0 2.4119,-1.0795 2.4169,-2.4161c-0.005,-1.3518 -1.0826,-2.43631 -2.427,-2.43126z" fill="#1B2437"/>
</svg>
