<svg width="24" height="24" viewBox="0 0 24 24" fill="none" xmlns="http://www.w3.org/2000/svg">
<path d="M14.4245,12.0103c-0.005,1.3366 -1.0826,2.4161 -2.4169,2.4161c-1.3445,0 -2.42707,-1.0795 -2.42203,-2.4313c0,-1.3366 1.07753,-2.41606 2.41193,-2.41606c1.3444,-0.00505 2.422,1.07946 2.427,2.43126z" fill="#1B2437"/>
<path fill-rule="evenodd" clip-rule="evenodd" d="M3.82013,17.4225c0.01007,-0.3884 0.14602,-0.8222 0.37765,-1.2308c0.39779,-0.7061 0.1007,-1.4174 -0.67977,-1.6292c-1.18834,-0.3228 -1.96379,-1.3215 -1.96379,-2.5473c-0.00503,-1.2206 0.75027,-2.22942 1.91343,-2.56233c0.86105,-0.24212 1.13296,-0.91297 0.69992,-1.70489c-0.47836,-0.87262 -0.4834,-1.75533 0.03524,-2.60777c0.52368,-0.86758 1.30919,-1.32658 2.33137,-1.33162c0.45318,-0.00505 0.89125,0.11601 1.25883,0.36821c0.57403,0.39343 1.46529,0.13619 1.6667,-0.69608c0.28701,-1.1803 1.31419,-1.94196 2.52779,-1.947c1.2286,-0.00505 2.2407,0.76165 2.5629,1.94195c0.2266,0.82723 0.9114,1.1097 1.6718,0.69104c0.8761,-0.48423 1.7674,-0.49936 2.6234,0.02018c0.8661,0.52458 1.3243,1.31145 1.3293,2.33539c0,0.46405 -0.151,0.88775 -0.3776,1.29127c-0.3978,0.70617 -0.1007,1.41738 0.6797,1.62923c1.1884,0.32282 1.9638,1.32152 1.9689,2.54722c0.005,1.2308 -0.7604,2.2446 -1.9387,2.5674c-0.8257,0.227 -1.1077,0.913 -0.6898,1.6747c0.4834,0.8776 0.4985,1.7704 -0.0201,2.6279c-0.5237,0.8676 -1.3092,1.3266 -2.3314,1.3316c-0.4633,0.0051 -0.8862,-0.1513 -1.289,-0.3783c-0.705,-0.3984 -1.415,-0.1008 -1.6265,0.681c-0.3222,1.1904 -1.3192,1.9672 -2.5428,1.9722c-1.2186,0.0051 -2.22563,-0.7516 -2.55796,-1.9167c-0.2417,-0.8626 -0.91643,-1.14 -1.70195,-0.7011c-1.74726,0.9835 -3.9477,-0.3279 -3.92756,-2.4262zM16.0107,12.0204c0.01,-2.21438 -1.7825,-4.03024 -3.988,-4.04032c-2.21054,-0.01514 -4.02327,1.78054 -4.04341,3.98982c-0.01007,2.2194 1.77244,4.0403 3.97791,4.0554c2.2206,0.0152 4.0434,-1.7856 4.0535,-4.0049z" fill="#1B2437"/>
<path fill-rule="evenodd" clip-rule="evenodd" d="M14.4245,12.0103c-0.005,1.3366 -1.0826,2.4161 -2.4169,2.4161c-1.3445,0 -2.42707,-1.0795 -2.42203,-2.4313c0,-1.3366 1.07753,-2.41606 2.41193,-2.41606c1.3444,-0.00505 2.422,1.07946 2.427,2.43126z" fill="#1B2437"/>
</svg>
