<svg width="24" height="24" viewBox="0 0 24 24" fill="none" xmlns="http://www.w3.org/2000/svg">
<path d="M2.96317,12.5009c-0.23602,-1.9756 0.9965,-3.64514 2.96328,-3.94234c1.11452,-0.17046 2.09791,0.17045 2.91521,0.9528c0.14424,0.13986 0.23165,0.13986 0.39773,0.0437c1.61281,-0.95279 3.23431,-1.89248 4.85141,-2.83217c0.1163,-0.06694 0.1587,-0.1282 0.1479,-0.23644c0.1636,0.54325 0.4562,1.03062 0.8422,1.42655c-0.1144,-0.08086 -0.2054,-0.06524 -0.352,0.02056c-1.6084,0.94843 -3.2212,1.88811 -4.83391,2.82344c-0.13112,0.0743 -0.18357,0.1355 -0.13549,0.3016c0.18793,0.6293 0.17919,1.2631 -0.00437,1.8924c-0.03934,0.1312 -0.01312,0.188 0.10052,0.2535c1.65205,0.9572 3.29985,1.9187 4.94755,2.8847c0.1311,0.0786 0.2054,0.0655 0.3147,-0.0394c0.9921,-0.9528 2.1591,-1.2675 3.4746,-0.8654c1.3287,0.4065 2.1329,1.3374 2.4083,2.7011c0.3889,1.9231 -1.014,3.833 -2.9721,4.0734c-2.1765,0.2666 -4.0297,-1.4379 -3.9335,-3.6232c0.0131,-0.271 0.0961,-0.542 0.1311,-0.8174c0.0087,-0.0655 -0.0219,-0.1748 -0.07,-0.2054c-1.7045,-1.0008 -3.409,-1.993 -5.11796,-2.9851c-0.00437,0.0087 -0.01311,0.0087 -0.03933,0.0044c-0.6556,0.6949 -1.45105,1.0751 -2.39948,1.1494c-1.75262,0.1312 -3.42657,-1.2369 -3.63636,-2.9807z" fill="#1B2437"/>
<path d="M21.0662,5.48511c0,1.92598 -1.5613,3.4873 -3.4873,3.4873c-1.926,0 -3.4873,-1.56132 -3.4873,-3.4873c0,-1.92599 1.5613,-3.48731 3.4873,-3.48731c1.926,0 3.4873,1.56132 3.4873,3.48731z" fill="#1B2437"/>
</svg>
