<svg width="24" height="24" viewBox="0 0 24 24" fill="none" xmlns="http://www.w3.org/2000/svg">
<path d="M11,2.05v2.012c-2.01729,0.25668 -3.86115,1.27187 -5.15681,2.83922c-1.29567,1.56735 -1.94591,3.56928 -1.81857,5.59878c0.12734,2.0296 1.02271,3.9345 2.50412,5.3276c1.48142,1.3931 3.43771,2.1699 5.47126,2.1724c1.9486,0 3.8302,-0.7112 5.2917,-2c1.4616,-1.2888 2.4025,-3.0667 2.6463,-5h2.013c-0.502,5.053 -4.766,9 -9.951,9c-5.523,0 -10,-4.477 -10,-10c0,-5.185 3.947,-9.449 9,-9.95zM20,5.414l-8,8l-1.414,-1.414l8,-8h-4.586v-2h8v8h-2z" fill="#1B2437"/>
</svg>
