<svg width="24" height="24" viewBox="0 0 24 24" fill="none" xmlns="http://www.w3.org/2000/svg">
<path d="M8.99956,14.3383c-0.6556,0.6949 -1.45105,1.0752 -2.39948,1.1495c-1.75262,0.1311 -3.42657,-1.2369 -3.63636,-2.9808c-0.23602,-1.9755 0.9965,-3.64511 2.96328,-3.94231c1.11451,-0.17046 2.09791,0.17045 2.91521,0.95279c0.14423,0.13986 0.23165,0.13986 0.39773,0.04371c1.61276,-0.9528 3.23426,-1.89248 4.85136,-2.83217c0.1443,-0.08304 0.1749,-0.15734 0.1312,-0.32343c-0.5245,-1.92307 0.6468,-3.868 2.583,-4.31818c1.9187,-0.4458 3.8287,0.81731 4.2002,2.77098c0.2753,1.44668 -0.4458,2.9764 -1.7352,3.67133c-1.368,0.73864 -3.0288,0.52885 -4.1084,-0.54196c-0.1573,-0.15297 -0.2535,-0.15297 -0.4326,-0.04807c-1.6084,0.94842 -3.2212,1.88811 -4.83397,2.82341c-0.13111,0.0743 -0.18356,0.1355 -0.13548,0.3016c0.18793,0.6294 0.17919,1.2631 -0.00438,1.8925c-0.03933,0.1311 -0.01311,0.1879 0.10053,0.2535c1.6521,0.9571 3.2998,1.9187 4.9476,2.8846c0.1311,0.0787 0.2054,0.0655 0.3146,-0.0394c0.9922,-0.9528 2.1591,-1.2674 3.4747,-0.8653c1.3287,0.4064 2.1329,1.3374 2.4082,2.701c0.389,1.9231 -1.014,3.833 -2.972,4.0734c-2.1766,0.2666 -4.0297,-1.4379 -3.9336,-3.6232c0.0131,-0.271 0.0962,-0.542 0.1311,-0.8173c0.0088,-0.0656 -0.0218,-0.1748 -0.0699,-0.2054c-1.7045,-1.0009 -3.4091,-1.9931 -5.11801,-2.9852c-0.00437,0.0088 -0.01311,0.0088 -0.03933,0.0044zM17.5529,7.59004c1.1276,0.02185 2.0979,-0.90472 2.1197,-2.02361c0.0263,-1.20192 -0.8872,-2.15909 -2.076,-2.18094c-1.132,-0.02185 -2.1023,0.91783 -2.1198,2.04982c-0.0175,1.18445 0.8916,2.13287 2.0761,2.15473zM6.42088,9.91084c-1.16695,-0.00437 -2.10664,0.91786 -2.11101,2.07166c-0.00437,1.1713 0.92657,2.1198 2.08479,2.1285c1.14948,0.0088 2.10664,-0.9353 2.11101,-2.0804c0.00875,-1.1801 -0.91783,-2.11539 -2.08479,-2.11976zM19.677,18.5254c0.0044,-1.1583 -0.9309,-2.1023 -2.0804,-2.1067c-1.167,-0.0044 -2.1154,0.931 -2.1154,2.0935c0,1.1583 0.9309,2.0979 2.0848,2.1023c1.1669,0.0088 2.1066,-0.9222 2.111,-2.0891z" fill="#1B2437"/>
</svg>
