<svg width="24" height="24" viewBox="0 0 24 24" fill="none" xmlns="http://www.w3.org/2000/svg">
<path fill-rule="evenodd" clip-rule="evenodd" d="M20.5782,5.23506c0.3564,-0.01893 0.6767,0.21586 0.766,0.56137c0.2646,1.02445 0.4058,2.09745 0.4058,3.20357c0,5.9425 -4.0637,10.9331 -9.5631,12.3483c-0.1226,0.0316 -0.2512,0.0316 -0.3738,0c-5.49941,-1.4152 -9.5631,-6.4069 -9.5631,-12.3483c-0.00082,-1.08073 0.13555,-2.15719 0.40584,-3.20358c0.08925,-0.34551 0.40959,-0.58029 0.76594,-0.56136c2.96353,0.15738 5.86846,-0.86734 8.07732,-2.84929c0.285,-0.25569 0.7168,-0.25569 1.0018,0c2.2089,1.98195 5.1138,3.00667 8.0773,2.84929zM14.4697,9.46967l-3.4697,3.46963l-1.46967,-1.4696c-0.29289,-0.2929 -0.76776,-0.2929 -1.06066,0c-0.29289,0.2929 -0.29289,0.7677 0,1.0606l2.00003,2c0.2929,0.2929 0.7677,0.2929 1.0606,0l4,-4c0.2929,-0.2929 0.2929,-0.76774 0,-1.06063c-0.2929,-0.29289 -0.7677,-0.29289 -1.0606,0z" fill="#1B2437"/>
</svg>
