<svg width="24" height="24" viewBox="0 0 24 24" fill="none" xmlns="http://www.w3.org/2000/svg">
<path fill-rule="evenodd" clip-rule="evenodd" d="M11.4991,2.38577c0.285,-0.25569 0.7168,-0.25569 1.0018,0c2.2089,1.98195 5.1138,3.00667 8.0773,2.84929c0.3564,-0.01893 0.6767,0.21586 0.766,0.56137c0.2646,1.02445 0.4058,2.09745 0.4058,3.20357c0,5.9425 -4.0637,10.9331 -9.5631,12.3483c-0.1226,0.0316 -0.2512,0.0316 -0.3738,0c-5.49941,-1.4152 -9.5631,-6.4069 -9.5631,-12.3483h0.75l-0.75,0.00061c0,-0.0002 0,-0.00041 0,-0.00061c-0.00082,-1.08073 0.13555,-2.15719 0.40584,-3.20358c0.08925,-0.34551 0.40959,-0.58029 0.76594,-0.56136c2.96353,0.15738 5.86846,-0.86734 8.07732,-2.84929zM3.97474,6.75077c-0.14996,0.73963 -0.22535,1.49294 -0.22474,2.24862v0.00061c0,5.173 3.49256,9.5332 8.25,10.8458c4.7575,-1.3126 8.25,-5.6718 8.25,-10.8458c0,-0.77099 -0.0776,-1.52279 -0.2248,-2.24923c-2.9197,0.00958 -5.7544,-0.98739 -8.0252,-2.82199c-2.27076,1.83461 -5.1055,2.83158 -8.02526,2.82199zM15.5303,9.46967c0.2929,0.29289 0.2929,0.76773 0,1.06063l-4,4c-0.2929,0.2929 -0.7677,0.2929 -1.0606,0l-2.00003,-2c-0.29289,-0.2929 -0.29289,-0.7677 0,-1.0606c0.2929,-0.2929 0.76777,-0.2929 1.06066,0l1.46967,1.4696l3.4697,-3.46963c0.2929,-0.29289 0.7677,-0.29289 1.0606,0z" fill="#1B2437"/>
</svg>
