<svg width="24" height="24" viewBox="0 0 24 24" fill="none" xmlns="http://www.w3.org/2000/svg">
<path d="M19.6566,16.125v0.4297c0,1.9249 -1.0508,3.8672 -3.3985,3.8672c-0.924,0 -1.6888,-0.3293 -2.2731,-0.9788c-0.4686,-0.5208 -0.754,-1.1688 -1.0058,-1.7406c-0.3911,-0.8878 -0.6011,-1.2455 -0.9333,-1.325c-0.3031,0.0786 -0.5044,0.4289 -0.8852,1.2967c-0.2531,0.5766 -0.5398,1.2302 -1.0116,1.7568c-0.58887,0.6575 -1.35914,0.9909 -2.28942,0.9909c-1.04343,0 -1.97707,-0.5558 -2.62894,-1.5651c-0.50629,-0.7839 -0.80856,-1.8052 -0.80856,-2.7318c0,-0.9693 0.78856,-1.7578 1.75781,-1.7578c0.04801,0 0.09598,0.0044 0.14321,0.0132l0.36066,0.0673c1.2425,0.2317 2.51344,0.3492 3.77744,0.3492h1.4218h0.3125h1.4218c1.264,0 2.535,-0.1175 3.7776,-0.3492l0.3605,-0.0673c0.0472,-0.0088 0.0952,-0.0132 0.1432,-0.0132c0.9694,0 1.7579,0.7885 1.7579,1.7578zM10.0484,16.3555c-1.22325,-0.023 -2.44954,-0.1477 -3.65098,-0.3718l-0.26207,-0.0489c-0.08625,0.0203 -0.15067,0.0979 -0.15067,0.1902c0,1.1418 0.71332,2.7344 1.875,2.7344c1.02465,0 1.36204,-0.6551 1.8702,-1.8131c0.10121,-0.2305 0.20399,-0.4648 0.31852,-0.6908zM18.0941,16.125c0,-0.0923 -0.0644,-0.1699 -0.1507,-0.1902l-0.2619,0.0489c-1.1868,0.2213 -2.3977,0.3458 -3.606,0.3709c0.1208,0.2347 0.2281,0.4784 0.3336,0.7181c0.5026,1.1411 0.8363,1.7867 1.849,1.7867c1.7035,0 1.836,-1.764 1.836,-2.3047z" fill="#1B2437"/>
<path d="M21.415,12.3891c-0.1331,0.0345 -3.3282,0.8453 -9.2195,0.8453c-5.88077,0 -9.44104,-0.806 -9.58976,-0.8403c-0.42043,-0.0971 -0.68261,-0.5165 -0.58554,-0.9369c0.09691,-0.4203 0.51625,-0.6826 0.93644,-0.5857c0.01434,0.0033 0.61758,0.1391 1.71751,0.2979c0.1196,-0.5403 0.49687,-2.15057 1.08285,-3.78467c0.42371,-1.18156 0.87125,-2.13234 1.33019,-2.82606c0.68422,-1.03426 1.44352,-1.55867 2.25673,-1.55867c0.54449,0 1.15108,0.21488 1.85438,0.65699c0.507,0.31875 1.167,0.3202 1.6812,0.00387c0.7227,-0.44469 1.3167,-0.66086 1.816,-0.66086c0.9069,0 1.7448,0.65289 2.4901,1.94059c0.4825,0.83355 0.9471,1.95484 1.3809,3.33262c0.1295,0.41156 -0.0991,0.85023 -0.5106,0.9798c-0.4116,0.1295 -0.8503,-0.09906 -0.9798,-0.51058c-1.0388,-3.29958 -1.9852,-4.17993 -2.3806,-4.17993c-0.0307,0 -0.3194,0.01203 -0.9971,0.4291c-1.0171,0.62579 -2.3248,0.62118 -3.3317,-0.01175c-0.57767,-0.36313 -0.88876,-0.41735 -1.02278,-0.41735c-0.33985,0 -1.16801,0.70551 -2.11618,3.34965c-0.50711,1.41422 -0.85582,2.84105 -0.99566,3.45255c1.53117,0.1647 3.55227,0.3072 5.96342,0.3072c5.6684,0 8.7972,-0.7876 8.8281,-0.7955c0.4178,-0.1073 0.8437,0.1438 0.9514,0.5612c0.1078,0.4175 -0.1426,0.8433 -0.56,0.9515z" fill="#1B2437"/>
</svg>
