<svg width="24" height="24" viewBox="0 0 24 24" fill="none" xmlns="http://www.w3.org/2000/svg">
<path d="M19.6565,16.125v0.4297c0,1.9249 -1.0508,3.8672 -3.3984,3.8672c-0.924,0 -1.6888,-0.3293 -2.2731,-0.9788c-0.4686,-0.5208 -0.754,-1.1688 -1.0059,-1.7406c-0.391,-0.8878 -0.601,-1.2455 -0.9332,-1.325c-0.3032,0.0786 -0.5044,0.4289 -0.8853,1.2967c-0.253,0.5766 -0.5398,1.2302 -1.0115,1.7568c-0.58893,0.6575 -1.3592,0.9909 -2.28948,0.9909c-1.04344,0 -1.97707,-0.5558 -2.62895,-1.5651c-0.50628,-0.7839 -0.80855,-1.8052 -0.80855,-2.7318c0,-0.9693 0.78855,-1.7578 1.75781,-1.7578c0.04801,0 0.09598,0.0044 0.14321,0.0132l0.36066,0.0673c1.2425,0.2317 2.51344,0.3492 3.7775,0.3492h1.4217h0.3125h1.4218c1.264,0 2.535,-0.1175 3.7776,-0.3492l0.3605,-0.0673c0.0472,-0.0088 0.0952,-0.0132 0.1433,-0.0132c0.9693,0 1.7578,0.7885 1.7578,1.7578zM9.73112,17.0434c0.10079,-0.2296 0.20317,-0.4628 0.31718,-0.6879c-1.22321,-0.023 -2.4495,-0.1477 -3.65094,-0.3718l-0.26208,-0.0489c-0.08625,0.0203 -0.15066,0.0979 -0.15066,0.1902c0,1.1418 0.71332,2.7344 1.875,2.7344c1.02465,0 1.36203,-0.6551 1.8702,-1.8131c0.00043,-0.001 0.00086,-0.0019 0.0013,-0.0029zM18.094,16.125c0,-0.0923 -0.0644,-0.1699 -0.1507,-0.1902l-0.2618,0.0489c-1.1868,0.2213 -2.3978,0.3458 -3.6061,0.3709c0.1208,0.2347 0.2281,0.4784 0.3337,0.7181c0.5025,1.1411 0.8362,1.7867 1.849,1.7867c1.7035,0 1.8359,-1.764 1.8359,-2.3047z" fill="#1B2437"/>
<path d="M9.72982,17.0463c-0.50817,1.158 -0.84555,1.8131 -1.8702,1.8131c-1.16168,0 -1.875,-1.5926 -1.875,-2.7344c0,-0.0923 0.06441,-0.1699 0.15066,-0.1902l0.26208,0.0489c1.20144,0.2241 2.42773,0.3488 3.65094,0.3718c-0.11401,0.2251 -0.21639,0.4583 -0.31718,0.6879z" fill="#1B2437"/>
<path d="M18.094,16.5547c0,0.5407 -0.1324,2.3047 -1.8359,2.3047c-1.0128,0 -1.3465,-0.6456 -1.849,-1.7867c-0.1056,-0.2397 -0.2129,-0.4834 -0.3337,-0.7181c1.2083,-0.0251 2.4193,-0.1496 3.6061,-0.3709l0.2618,-0.0489c0.0863,0.0203 0.1507,0.0979 0.1507,0.1902z" fill="#1B2437"/>
<path d="M21.415,12.3891c-0.1331,0.0345 -3.3282,0.8453 -9.2195,0.8453c-5.88077,0 -9.44104,-0.806 -9.58976,-0.8403c-0.42043,-0.0971 -0.68261,-0.5165 -0.58554,-0.9369c0.09691,-0.4203 0.51625,-0.6826 0.93644,-0.5857c0.01434,0.0033 0.61758,0.1391 1.7175,0.2979c0.11961,-0.5403 0.49688,-2.15057 1.08286,-3.78467c0.42371,-1.18156 0.87125,-2.13234 1.33019,-2.82606c0.68422,-1.03426 1.44352,-1.55867 2.25672,-1.55867c0.5445,0 1.15109,0.21488 1.85439,0.65699c0.507,0.31875 1.167,0.3202 1.6812,0.00387c0.7227,-0.44469 1.3167,-0.66086 1.816,-0.66086c0.9069,0 1.7448,0.65289 2.4901,1.94059c0.4825,0.83355 0.9471,1.95484 1.3809,3.33262c0.1295,0.41156 -0.0991,0.85023 -0.5106,0.9798c-0.4116,0.1295 -0.8503,-0.09906 -0.9798,-0.51058c-1.0388,-3.29958 -1.9852,-4.17993 -2.3806,-4.17993c-0.0307,0 -0.3194,0.01203 -0.9971,0.4291c-1.0171,0.62579 -2.3248,0.62118 -3.3317,-0.01175c-0.57767,-0.36313 -0.88876,-0.41735 -1.02279,-0.41735c-0.33984,0 -1.168,0.70551 -2.11617,3.34965c-0.50711,1.41422 -0.85582,2.84105 -0.99566,3.45255c1.53117,0.1647 3.55227,0.3072 5.96342,0.3072c3.3832,0 5.8617,-0.2806 7.3168,-0.5085c0.9829,-0.1539 1.4988,-0.2838 1.5113,-0.287c0.4178,-0.1073 0.8436,0.1438 0.9514,0.5612c0.1078,0.4175 -0.1426,0.8433 -0.56,0.9515z" fill="#1B2437"/>
<path d="M6.23208,11.3647c0.13984,-0.6115 0.48855,-2.03833 0.99566,-3.45255c0.94817,-2.64414 1.77633,-3.34965 2.11617,-3.34965c0.13403,0 0.44512,0.05422 1.02279,0.41735c1.0069,0.63293 2.3146,0.63754 3.3317,0.01175c0.6777,-0.41707 0.9664,-0.4291 0.9971,-0.4291c0.3954,0 1.3418,0.88035 2.3806,4.17993c0.1295,0.41152 0.5682,0.64008 0.9798,0.51058c0.4115,-0.12957 0.6401,-0.56824 0.5106,-0.9798l0.9458,2.89019c-1.4551,0.2279 -3.9336,0.5085 -7.3168,0.5085c-2.41115,0 -4.43225,-0.1425 -5.96342,-0.3072z" fill="#1B2437"/>
</svg>
