<svg width="24" height="24" viewBox="0 0 24 24" fill="none" xmlns="http://www.w3.org/2000/svg">
<path fill-rule="evenodd" clip-rule="evenodd" d="M10.7618,3.68381c0.2495,-0.68913 0.5407,-1.36042 1.022,-1.92479c0.0773,-0.09505 0.1664,-0.17823 0.2555,-0.24952c0.3031,-0.24357 0.4873,-0.24951 0.7903,0c0.4992,0.40991 0.7785,0.96834 1.0281,1.53865c0.5526,1.25943 0.8794,2.58421 1.0636,3.93275c0.0458,0.33839 0.0849,0.67835 0.1201,1.0191h-5.24439c0.1743,-1.46851 0.45199,-2.91906 0.96479,-4.31619zM5,10.8127h-2.96737c0.20204,-2.07929 0.93887,-3.92091 2.22239,-5.53678c1.37265,-1.72875 3.12561,-2.88718 5.28858,-3.5466c-0.94426,2.02881 -1.39782,4.12976 -1.63429,6.27068h-0.90931c-1.10457,0 -2,0.89543 -2,2zM22.8423,10.8186h-2.8423v-0.8186c0,-1.10457 -0.8954,-2 -2,-2h-1.0374c-0.2357,-2.13258 -0.6849,-4.23018 -1.6313,-6.2588c1.7114,0.49307 3.1732,1.34853 4.4092,2.56638c1.8064,1.78221 2.8344,3.95058 3.1018,6.51102zM22.8423,12.7196c-0.1842,1.9189 -0.826,3.6357 -1.9431,5.1744c-1.3964,1.9129 -3.2326,3.202 -5.5679,3.9149c0.8732,-1.8844 1.3256,-3.8261 1.5747,-5.8089h1.094c1.1046,0 2,-0.8954 2,-2v-1.2752c0.9405,-0.0007 1.884,-0.0022 2.8423,-0.0052z" fill="#1B2437"/>
<path d="M2.05901,12.7256c0.985,0 1.96197,0 2.94099,-0.0009v1.2753c0,1.1046 0.89543,2 2,2h0.96396c0.24839,1.9736 0.69954,3.915 1.5737,5.797c-1.7589,-0.5109 -3.24446,-1.396 -4.50421,-2.6555c-1.90745,-1.895 -2.86415,-4.3901 -2.98299,-6.4159z" fill="#1B2437"/>
<path d="M9.85671,16h5.15909c-0.1363,1.0151 -0.3321,2.0199 -0.6352,3.0049c-0.208,0.6832 -0.4814,1.3545 -0.7903,2.002c-0.1724,0.3624 -0.4517,0.6892 -0.7309,0.9921c-0.2853,0.3089 -0.5408,0.2911 -0.8557,0.006c-0.5111,-0.4634 -0.8082,-1.0634 -1.0637,-1.6872c-0.5771,-1.3892 -0.89,-2.8417 -1.08329,-4.3178z" fill="#1B2437"/>
<path d="M7,14.3438v-4.68755c0,-0.32359 0.26234,-0.58594 0.58594,-0.58594c0.32359,0 0.58594,0.26235 0.58594,0.58594v4.68755c0,0.3235 -0.26235,0.5859 -0.58594,0.5859c-0.3236,0 -0.58594,-0.2624 -0.58594,-0.5859z" fill="#1B2437"/>
<path d="M10,10.7578c0,-0.96924 0.7886,-1.7578 1.7578,-1.7578c0.4695,0 0.9109,0.18281 1.243,0.51484c0.2288,0.22883 0.2288,0.59976 0,0.82866c-0.2288,0.2288 -0.5998,0.2288 -0.8287,0c-0.1106,-0.1107 -0.2577,-0.1716 -0.4142,-0.1716c-0.3231,0 -0.586,0.2628 -0.586,0.5859c0,0.3231 0.2629,0.586 0.586,0.586c0.9692,0 1.7578,0.7885 1.7578,1.7578c0,0.9692 -0.7886,1.7578 -1.7578,1.7578c-0.4696,0 -0.911,-0.1828 -1.243,-0.5149c-0.2288,-0.2288 -0.2288,-0.5998 0,-0.8286c0.2288,-0.2288 0.5998,-0.2288 0.8286,0c0.1107,0.1107 0.2578,0.1716 0.4143,0.1716c0.3231,0 0.586,-0.2629 0.586,-0.5859c0,-0.3231 -0.2629,-0.586 -0.586,-0.586c-0.9692,0 -1.7578,-0.7885 -1.7578,-1.7578z" fill="#1B2437"/>
<path d="M15,13.1719v-2.3438c0,-0.96923 0.7886,-1.75779 1.7578,-1.75779c0.9693,0 1.7578,0.78856 1.7578,1.75779v2.3438c0,0.9692 -0.7885,1.7578 -1.7578,1.7578c-0.9692,0 -1.7578,-0.7886 -1.7578,-1.7578zM16.1719,13.1719c0,0.3231 0.2628,0.5859 0.5859,0.5859c0.3231,0 0.586,-0.2628 0.586,-0.5859v-2.3438c0,-0.3231 -0.2629,-0.5859 -0.586,-0.5859c-0.3231,0 -0.5859,0.2628 -0.5859,0.5859z" fill="#1B2437"/>
</svg>
