<svg width="24" height="24" viewBox="0 0 24 24" fill="none" xmlns="http://www.w3.org/2000/svg">
<path d="M22,12c0,5.5059 -4.4938,10 -10,10c-5.5059,0 -10,-4.4938 -10,-10c0,-5.5059 4.49379,-10 10,-10c5.5059,0 10,4.49379 10,10zM14.1875,3.44633c0.6298,0.94109 1.0543,2.18558 1.3232,3.28023h3.5651c-1.1907,-1.59359 -2.9063,-2.77308 -4.8883,-3.28023zM10.7134,4.21027c-0.3969,0.63129 -0.74328,1.49211 -1.01516,2.51629h4.60356c-0.2719,-1.02414 -0.6183,-1.885 -1.0152,-2.51629c-0.4209,-0.66961 -0.8779,-1.03839 -1.2866,-1.03839c-0.4087,0 -0.8656,0.36878 -1.2866,1.03839zM4.92418,6.72656h3.56508c0.26894,-1.09449 0.69344,-2.33922 1.32324,-3.28023c-1.98195,0.50715 -3.69758,1.68664 -4.88832,3.28023zM3.17188,12c0,1.4798 0.36652,2.8753 1.01269,4.1016c0.77348,0 14.44043,0 15.63093,0c0.6461,-1.2263 1.0126,-2.6218 1.0126,-4.1016c0,-1.4798 -0.3665,-2.87527 -1.0127,-4.10156h-15.63087c-0.64613,1.22629 -1.01265,2.62176 -1.01265,4.10156zM13.2866,19.7897c0.3969,-0.6313 0.7433,-1.4921 1.0152,-2.5163h-4.6036c0.27188,1.0242 0.6182,1.885 1.0152,2.5163c0.421,0.6697 0.8779,1.0384 1.2866,1.0384c0.4087,0 0.8657,-0.3687 1.2866,-1.0384zM9.8125,20.5537c-0.62977,-0.9412 -1.05406,-2.1847 -1.32324,-3.2803h-3.56508c1.19074,1.5936 2.90637,2.7731 4.88832,3.2803zM19.0758,17.2734h-3.5651c-0.2691,1.0952 -0.6936,2.3394 -1.3232,3.2803c1.982,-0.5072 3.6976,-1.6867 4.8883,-3.2803z" fill="#1B2437"/>
<path d="M6.72656,14.3438v-4.68755c0,-0.32359 0.26235,-0.58594 0.58594,-0.58594c0.32359,0 0.58594,0.26235 0.58594,0.58594v4.68755c0,0.3235 -0.26235,0.5859 -0.58594,0.5859c-0.32359,0 -0.58594,-0.2624 -0.58594,-0.5859z" fill="#1B2437"/>
<path d="M9.09098,10.8281c0,-0.96923 0.78855,-1.75779 1.75782,-1.75779c0.4695,0 0.9109,0.18281 1.243,0.51485c0.2288,0.22882 0.2288,0.59984 0,0.82864c-0.2289,0.2288 -0.5998,0.2288 -0.8287,0c-0.1106,-0.1107 -0.2577,-0.1716 -0.4143,-0.1716c-0.3231,0 -0.5859,0.2628 -0.5859,0.5859c0,0.3231 0.2628,0.586 0.5859,0.586c0.9693,0 1.7578,0.7885 1.7578,1.7578c0,0.9692 -0.7885,1.7578 -1.7578,1.7578c-0.4695,0 -0.91091,-0.1828 -1.24294,-0.5149c-0.22883,-0.2288 -0.22883,-0.5998 0,-0.8286c0.22883,-0.2288 0.59984,-0.2288 0.82864,0c0.1107,0.1107 0.2578,0.1716 0.4143,0.1716c0.3231,0 0.5859,-0.2628 0.5859,-0.5859c0,-0.3231 -0.2628,-0.586 -0.5859,-0.586c-0.96927,0 -1.75782,-0.7885 -1.75782,-1.7578z" fill="#1B2437"/>
<path d="M13.7785,13.1719v-2.3438c0,-0.96923 0.7885,-1.75779 1.7578,-1.75779c0.9692,0 1.7578,0.78856 1.7578,1.75779v2.3438c0,0.9692 -0.7886,1.7578 -1.7578,1.7578c-0.9693,0 -1.7578,-0.7886 -1.7578,-1.7578zM14.9504,13.1719c0,0.3231 0.2628,0.5859 0.5859,0.5859c0.3231,0 0.5859,-0.2628 0.5859,-0.5859v-2.3438c0,-0.3231 -0.2628,-0.5859 -0.5859,-0.5859c-0.3231,0 -0.5859,0.2628 -0.5859,0.5859z" fill="#1B2437"/>
</svg>
