<svg width="24" height="24" viewBox="0 0 24 24" fill="none" xmlns="http://www.w3.org/2000/svg">
<path d="M12.0064,21.9958c-1.9552,0 -3.90617,0.0042 -5.86134,0c-1.38231,-0.0041 -2.52802,-0.8883 -2.8601,-2.2208c-0.05812,-0.2324 -0.07888,-0.4774 -0.08303,-0.7181c-0.0083,-1.6563 -0.00415,-3.3126 0,-4.9689c0,-0.137 -0.04151,-0.2242 -0.14529,-0.3155c-0.88833,-0.7845 -1.36156,-1.7683 -1.38231,-2.9597c-0.00415,-0.2574 0.0249,-0.5148 -0.00415,-0.7638c-0.09963,-0.83439 0.19095,-1.58574 0.47322,-2.34124c0.46908,-1.24533 0.91324,-2.49896 1.36987,-3.74844c0.42756,-1.17891 1.49439,-1.95102 2.75633,-1.95517c3.8232,-0.0083 7.6505,-0.0083 11.4736,0c1.2703,0 2.3247,0.7472 2.7605,1.93857c0.6019,1.63553 1.1955,3.27521 1.7891,4.9149c0.0291,0.07887 0.0582,0.16189 0.0582,0.24076c-0.0042,0.70569 0.0249,1.41142 -0.0332,2.10872c-0.0831,1.0295 -0.5687,1.8763 -1.3409,2.553c-0.1079,0.0954 -0.1535,0.1868 -0.1535,0.3321c0.0041,1.6479 0.0041,3.3001 0.0041,4.9481c0,1.6604 -1.2868,2.9514 -2.9514,2.9514c-1.9593,0.0083 -3.9145,0.0041 -5.8697,0.0041zM4.80426,14.665c-0.00415,0.0457 -0.01246,0.0789 -0.01246,0.1121c0,1.4487 -0.00415,2.9016 0.00416,4.3503c0,0.1744 0.04981,0.3612 0.12868,0.5148c0.26567,0.5396 0.72229,0.7596 1.3159,0.7596c1.93856,-0.0041 3.88126,-0.0041 5.81986,-0.0041c1.9053,0 3.8107,0 5.716,0c0.9216,0 1.4529,-0.5355 1.4529,-1.4529c0,-1.3408 0,-2.6775 0,-4.0183c0,-0.083 0,-0.1619 0,-0.2656c-1.6438,0.2698 -2.9846,-0.2242 -4.0348,-1.4861c-1.6522,2.0963 -4.7738,2.0631 -6.37198,0c-1.05023,1.266 -2.39103,1.76 -4.01826,1.4902zM3.62119,8.35949c5.60399,0 11.18721,0 16.78291,0c-0.0166,-0.04982 -0.0249,-0.09133 -0.0374,-0.12869c-0.4524,-1.24118 -0.9008,-2.48651 -1.3574,-3.72769c-0.2241,-0.5936 -0.6725,-0.89663 -1.3034,-0.90079c-3.79,0 -7.5799,0 -11.36989,0c-0.66417,0 -1.10419,0.31549 -1.3325,0.93815c-0.42756,1.16646 -0.85513,2.33292 -1.27854,3.49938c-0.03736,0.09963 -0.06642,0.20341 -0.10378,0.31964zM3.27665,9.97842c-0.0083,0.03318 -0.01245,0.05398 -0.01245,0.07468c0,0.2408 -0.00415,0.4816 0,0.7223c0.0083,1.0918 0.76795,2.0424 1.83063,2.2956c1.06269,0.2532 2.16273,-0.2574 2.67331,-1.2246c0.31134,-0.5936 0.25737,-1.2287 0.24907,-1.87214c-1.58987,0.00416 -3.16314,0.00416 -4.74056,0.00416zM14.3891,9.97842c-1.594,0 -3.1672,0 -4.75711,0c0,0.27808 0,0.53968 0,0.80118c0.0083,1.1125 0.79701,2.0797 1.87211,2.3038c1.1208,0.2325 2.225,-0.3362 2.6899,-1.3698c0.245,-0.5521 0.1951,-1.1333 0.1951,-1.73518zM18.3825,9.96181c-0.7264,0 -1.4487,0.00415 -2.1752,-0.00415c-0.1743,-0.00415 -0.2283,0.05394 -0.2158,0.22414c0.0124,0.1993 0,0.3985 0.0041,0.6019c0.0125,1.1665 0.8427,2.1212 2.0216,2.3246c1.0834,0.191 2.1918,-0.4649 2.5944,-1.5151c0.1744,-0.4608 0.137,-0.9382 0.1495,-1.4114c0.0041,-0.1702 -0.0415,-0.22414 -0.22,-0.22414c-0.7223,0.01245 -1.4405,0.00415 -2.1586,0.00415z" fill="#1B2437"/>
</svg>
