<svg width="24" height="24" viewBox="0 0 24 24" fill="none" xmlns="http://www.w3.org/2000/svg">
<path fill-rule="evenodd" clip-rule="evenodd" d="M12.0064,21.9958c-0.6519,0 -1.3033,0.0005 -1.9546,0.001c-1.30203,0.0009 -2.60348,0.0018 -3.90677,-0.001c-1.38231,-0.0041 -2.52802,-0.8883 -2.86011,-2.2208c-0.05811,-0.2325 -0.07887,-0.4774 -0.08302,-0.7181c-0.0083,-1.6563 -0.00415,-3.3126 0,-4.9689c0,-0.137 -0.04151,-0.2242 -0.14529,-0.3155c-0.88833,-0.7845 -1.36156,-1.7683 -1.38231,-2.9597c-0.00152,-0.0939 0.00139,-0.1877 0.00428,-0.2812c0.00503,-0.1628 0.01003,-0.3244 -0.00843,-0.4826c-0.09735,-0.81531 0.17787,-1.55134 0.45386,-2.28943l0.01936,-0.05181c0.31272,-0.83022 0.61436,-1.66413 0.91601,-2.49803c0.15082,-0.41696 0.30165,-0.83392 0.45386,-1.25041c0.42756,-1.17891 1.49439,-1.95102 2.75633,-1.95517c3.82313,-0.0083 7.65043,-0.0083 11.47363,0c1.2702,0 2.3246,0.7472 2.7605,1.93857c0.6019,1.63553 1.1955,3.27521 1.7891,4.9149c0.0291,0.07887 0.0581,0.16189 0.0581,0.24076c-0.0011,0.19476 0.0003,0.38953 0.0017,0.58411c0.0036,0.51051 0.0072,1.01971 -0.0349,1.52461c-0.083,1.0295 -0.5687,1.8763 -1.3408,2.553c-0.1079,0.0954 -0.1536,0.1868 -0.1536,0.3321c0.0042,1.6479 0.0042,3.3001 0.0042,4.9481c0,1.6604 -1.2869,2.9514 -2.9515,2.9514c-1.4691,0.0062 -2.936,0.0054 -4.4022,0.0047h-0.001c-0.4888,-0.0003 -0.9776,-0.0006 -1.4664,-0.0006zM9.63196,10.7796c0.0083,1.1125 0.79704,2.0797 1.87214,2.3038c1.1208,0.2325 2.225,-0.3362 2.6899,-1.3698c0.2093,-0.4719 0.2034,-0.9649 0.1972,-1.4741c-0.001,-0.0865 -0.0021,-0.1736 -0.0021,-0.26108h-4.75714zM17.8379,9.96233c-0.5435,0.00078 -1.0859,0.00155 -1.6306,-0.00467c-0.1743,-0.00415 -0.2283,0.05394 -0.2159,0.22414c0.0075,0.1194 0.006,0.2388 0.0045,0.3591c-0.001,0.0805 -0.002,0.1613 -0.0003,0.2428c0.0124,1.1665 0.8427,2.1212 2.0216,2.3246c1.0834,0.191 2.1918,-0.4649 2.5944,-1.5151c0.1412,-0.373 0.1436,-0.7569 0.146,-1.1406c0.0005,-0.0903 0.0011,-0.1806 0.0035,-0.2708c0.0041,-0.1702 -0.0416,-0.22414 -0.2201,-0.22414c-0.516,0.0089 -1.0299,0.0072 -1.5432,0.00551c-0.2052,-0.00068 -0.4102,-0.00136 -0.6153,-0.00136c-0.1818,0 -0.3632,0.00026 -0.5446,0.00052zM3.26325,10.2939c-0.00093,0.1605 -0.00185,0.321 0.00092,0.4815c0.0083,1.0918 0.76795,2.0424 1.83063,2.2956c1.06269,0.2532 2.16273,-0.2574 2.67331,-1.2246c0.27655,-0.5273 0.26487,-1.0873 0.25299,-1.6568c-0.0015,-0.0717 -0.00299,-0.1435 -0.00392,-0.21534c-1.58987,0.00416 -3.16314,0.00416 -4.74056,0.00416c-0.0083,0.03318 -0.01245,0.05398 -0.01245,0.07468c0,0.0803 -0.00046,0.1605 -0.00092,0.2408z" fill="#1B2437"/>
</svg>
