<svg width="24" height="24" viewBox="0 0 24 24" fill="none" xmlns="http://www.w3.org/2000/svg">
<path d="M7.84738,2.9375h8.30512l4.196,3.94559h-16.69698z" fill="#1B2437"/>
<path fill-rule="evenodd" clip-rule="evenodd" d="M4.84375,21.0625v-10.0153c0.27838,-0.0237 0.54912,-0.1033 0.79609,-0.2339c0.24697,-0.1306 0.46511,-0.3096 0.64141,-0.5264c0.19501,0.24 0.4411,0.4336 0.72034,0.5665c0.27925,0.1329 0.58462,0.2018 0.89388,0.2018h0.58406c0.30926,0 0.61464,-0.0689 0.89388,-0.2018c0.27925,-0.1329 0.52534,-0.3265 0.72039,-0.5665c0.1949,0.24 0.441,0.4336 0.7203,0.5665c0.2792,0.1329 0.5846,0.2018 0.8938,0.2018h0.5842c0.3092,0 0.6146,-0.0689 0.8938,-0.2018c0.2793,-0.1329 0.5254,-0.3265 0.7203,-0.5665c0.1951,0.24 0.4411,0.4336 0.7204,0.5665c0.2792,0.1329 0.5846,0.2018 0.8939,0.2018h0.584c0.3093,0 0.6147,-0.0689 0.8939,-0.2018c0.2793,-0.1329 0.5253,-0.3265 0.7204,-0.5665c0.1762,0.2168 0.3944,0.3958 0.6414,0.5264c0.2469,0.1306 0.5177,0.2102 0.796,0.2339v10.0153zM11.5791,13.3812c-0.3673,-0.3673 -0.8654,-0.5736 -1.3848,-0.5736c-0.51935,0 -1.01747,0.2063 -1.38473,0.5736c-0.36726,0.3672 -0.57359,0.8653 -0.57359,1.3847c0,0.5194 0.20633,1.0175 0.57359,1.3848l2.85893,2.8589c0.0879,0.0879 0.2071,0.1373 0.3315,0.1373c0.1243,0 0.2435,-0.0494 0.3314,-0.1373l2.8589,-2.8589c0.1819,-0.1818 0.3261,-0.3977 0.4245,-0.6353c0.0984,-0.2376 0.1491,-0.4923 0.1491,-0.7495c0,-0.2571 -0.0507,-0.5118 -0.1491,-0.7494c-0.0984,-0.2376 -0.2426,-0.4535 -0.4245,-0.6353c-0.1818,-0.1819 -0.3977,-0.3261 -0.6353,-0.4245c-0.2376,-0.0985 -0.4923,-0.1491 -0.7495,-0.1491c-0.2571,0 -0.5118,0.0506 -0.7494,0.1491c-0.2376,0.0984 -0.4533,0.2426 -0.6352,0.4245l-0.4209,0.4209z" fill="#1B2437"/>
<path fill-rule="evenodd" clip-rule="evenodd" d="M21.9626,7.16874c0.0254,0.05986 0.0381,0.12434 0.0372,0.18935l0.0002,1.61418c-0.0007,0.52159 -0.1968,1.02399 -0.5497,1.40813c-0.3529,0.3841 -0.8369,0.622 -1.3565,0.6668v10.484c0,0.1244 -0.0494,0.2436 -0.1373,0.3315c-0.088,0.0879 -0.2072,0.1373 -0.3315,0.1373h-15.25c-0.12432,0 -0.24355,-0.0494 -0.33146,-0.1373c-0.0879,-0.0879 -0.13729,-0.2071 -0.13729,-0.3315v-10.484c-0.51966,-0.0448 -1.00367,-0.2827 -1.35655,-0.6668c-0.35288,-0.38414 -0.54901,-0.88654 -0.5497,-1.40813l0.00023,-1.61426c-0.0009,-0.06501 0.01175,-0.12949 0.03713,-0.18935c0.02538,-0.05985 0.06294,-0.11376 0.1103,-0.15831l5.19277,-4.88305c0.08694,-0.08177 0.20181,-0.1273 0.32117,-0.1273h8.6767c0.1193,0.00001 0.2342,0.04552 0.3211,0.12727l5.1929,4.88316c0.0474,0.04454 0.085,0.09846 0.1103,0.15831zM16.1525,2.9375h-8.30512l-4.19586,3.94559h16.69698zM9.625,7.82059h-2.875v1.15168c0.00034,0.30368 0.12113,0.59484 0.33588,0.80957c0.21474,0.21474 0.5059,0.33556 0.80959,0.33586h0.58406c0.30369,-0.0003 0.59484,-0.12113 0.80958,-0.33587c0.21474,-0.21473 0.33554,-0.50588 0.33589,-0.80956zM13.4375,7.82059h-2.875v1.15168c0.0003,0.30368 0.1211,0.59482 0.3359,0.80956c0.2147,0.21474 0.5058,0.33557 0.8095,0.33587h0.5842c0.3037,-0.0003 0.5948,-0.12113 0.8095,-0.33587c0.2148,-0.21474 0.3356,-0.50588 0.3359,-0.80956zM17.25,7.82059h-2.875v1.15168c0.0004,0.30368 0.1211,0.59483 0.3359,0.80956c0.2147,0.21474 0.5059,0.33557 0.8096,0.33587h0.584c0.3037,-0.0003 0.5949,-0.12113 0.8096,-0.33587c0.2148,-0.21473 0.3355,-0.50588 0.3359,-0.80956zM2.9375,7.82059v1.15168c0.00035,0.30368 0.12115,0.59483 0.33589,0.80956c0.21474,0.21474 0.50589,0.33557 0.80958,0.33587h0.58406c0.30369,-0.0003 0.59484,-0.12113 0.80958,-0.33587c0.21474,-0.21473 0.33554,-0.50588 0.33589,-0.80956v-1.15168zM4.84375,11.0472v10.0153h14.31245v-10.0153c-0.2783,-0.0237 -0.5491,-0.1033 -0.796,-0.2339c-0.247,-0.1306 -0.4652,-0.3096 -0.6414,-0.5264c-0.1951,0.24 -0.4411,0.4336 -0.7204,0.5665c-0.2792,0.1329 -0.5846,0.2018 -0.8939,0.2018h-0.584c-0.3093,0 -0.6147,-0.0689 -0.8939,-0.2018c-0.2793,-0.1329 -0.5253,-0.3265 -0.7204,-0.5665c-0.1949,0.24 -0.441,0.4336 -0.7203,0.5665c-0.2792,0.1329 -0.5846,0.2018 -0.8938,0.2018h-0.5842c-0.3092,0 -0.6146,-0.0689 -0.8938,-0.2018c-0.2793,-0.1329 -0.5254,-0.3265 -0.7203,-0.5665c-0.19505,0.24 -0.44114,0.4336 -0.72039,0.5665c-0.27924,0.1329 -0.58462,0.2018 -0.89388,0.2018h-0.58406c-0.30926,0 -0.61463,-0.0689 -0.89388,-0.2018c-0.27924,-0.1329 -0.52533,-0.3265 -0.72034,-0.5665c-0.1763,0.2168 -0.39444,0.3958 -0.64141,0.5264c-0.24697,0.1306 -0.51771,0.2102 -0.79609,0.2339zM19.333,10.1177h0.584c0.3037,-0.0003 0.5949,-0.12113 0.8096,-0.33587c0.2148,-0.21473 0.3355,-0.50588 0.3359,-0.80956v-1.15168h-2.875v1.15168c0.0004,0.30368 0.1211,0.59483 0.3359,0.80956c0.2147,0.21474 0.5059,0.33557 0.8096,0.33587z" fill="#1B2437"/>
</svg>
