<svg width="24" height="24" viewBox="0 0 24 24" fill="none" xmlns="http://www.w3.org/2000/svg">
<path d="M5.43092,4.93155c-0.13423,0.12349 -0.20939,0.19329 -0.28456,0.26845c-0.93423,0.93423 -1.86846,1.86846 -2.80805,2.80269c-0.24698,0.24698 -0.54766,0.33825 -0.88054,0.23624c-0.31678,-0.09664 -0.51007,-0.31678 -0.57987,-0.64429c-0.06443,-0.30605 0.03221,-0.56913 0.24698,-0.7839c1.5141,-1.51946 3.02819,-3.03355 4.54765,-4.54765c0.37047,-0.3651 0.8698,-0.34899 1.24027,0.02685c1.50336,1.50335 3.00671,3.00671 4.5101,4.51006c0.3758,0.37584 0.3758,0.89128 0.0214,1.24027c-0.3436,0.33289 -0.859,0.31678 -1.2241,-0.04832c-0.94498,-0.9396 -1.88458,-1.87919 -2.82418,-2.82416c-0.0698,-0.0698 -0.13959,-0.13423 -0.27382,-0.25772c0,0.16644 0,0.26309 0,0.35973c0,3.73155 0,7.4685 0,11.2c0,0.6067 -0.35436,0.9772 -0.90738,0.945c-0.37584,-0.0215 -0.69799,-0.3007 -0.76242,-0.6765c-0.02148,-0.1396 -0.02685,-0.2846 -0.02685,-0.4242c0,-3.651 0,-7.30738 0,-10.95839c0.00537,-0.11275 0.00537,-0.23087 0.00537,-0.42416z" fill="#1B2437"/>
<path d="M18.6766,19.0631c0.0644,-0.0859 0.1181,-0.1826 0.1932,-0.2577c0.9289,-0.9289 1.8524,-1.8577 2.7866,-2.7866c0.3759,-0.3758 0.902,-0.3866 1.2403,-0.043c0.3436,0.349 0.3275,0.8645 -0.0483,1.2403c-1.4873,1.4926 -2.9799,2.9799 -4.4725,4.4725c-0.4188,0.4188 -0.902,0.4134 -1.3154,0c-1.4927,-1.4873 -2.9799,-2.9799 -4.4725,-4.4725c-0.3759,-0.3758 -0.392,-0.8966 -0.0484,-1.2403c0.3437,-0.3436 0.8698,-0.3328 1.2403,0.0376c0.945,0.9396 1.8846,1.8792 2.8242,2.8242c0.0698,0.0698 0.1181,0.1557 0.1772,0.2309c0.0322,-0.0161 0.059,-0.0269 0.0912,-0.043c0,-0.102 0,-0.1986 0,-0.3007c0,-3.7422 0,-7.4845 0,-11.22681c0,-0.49396 0.29,-0.85906 0.7195,-0.91275c0.4886,-0.05906 0.8805,0.23624 0.9611,0.71946c0.0161,0.11275 0.0161,0.23087 0.0161,0.349c0,3.6778 0,7.3611 0,11.0389c0,0.102 0,0.204 0,0.3061c0.0376,0.0268 0.0751,0.0429 0.1074,0.0644z" fill="#1B2437"/>
</svg>
