<svg width="24" height="24" viewBox="0 0 24 24" fill="none" xmlns="http://www.w3.org/2000/svg">
<path d="M17.3,12.8294c1.2124,0 2.3102,0.0689 2.9855,0.1971c0.0105,0 0.6284,0.1271 0.8344,0.2091c0.2973,0.1283 0.5489,0.3599 0.7092,0.6497c0.1147,0.2316 0.1709,0.4763 0.1709,0.7317c-0.0105,0.266 -0.1826,0.7661 -0.2633,0.9632c-0.5021,1.2995 -2.1499,3.7831 -3.1552,4.7356c-0.1604,0.1616 -0.3546,0.3362 -0.4003,0.3825c-0.2528,0.1972 -0.5606,0.3017 -0.8918,0.3017c-0.2984,0 -0.5957,-0.0926 -0.8356,-0.2791c-0.1246,-0.0891 -0.3065,-0.2664 -0.3897,-0.3494l-0.0445,-0.045c-1.0416,-0.9739 -2.6075,-3.4005 -3.1107,-4.631c-0.0107,0 -0.2614,-0.6139 -0.3121,-0.9842l-0.0086,-0.0943v-0.0464c0,-0.5345 0.2973,-1.0333 0.7783,-1.2887c0.2633,-0.139 1.0287,-0.2672 1.0404,-0.2791c0.6858,-0.1045 1.738,-0.1734 2.8931,-0.1734zM6.70553,12.8905c0.47925,0 0.87373,0.3656 0.92764,0.8372l0.00628,0.1106l0.2563,4.5788c0,0.6675 -0.5325,1.2079 -1.19022,1.2079c-0.61661,0 -1.1242,-0.475 -1.18524,-1.0844l-0.00615,-0.1235l0.25747,-4.5788c0,-0.5237 0.41781,-0.9478 0.93392,-0.9478zM6.71173,3c0.2961,0 0.59336,0.09264 0.83445,0.27793c0.10386,0.07498 0.2475,0.21073 0.34063,0.302l0.09356,0.09352c1.04042,0.97513 2.60753,3.40049 3.11073,4.63099c0.0096,0 0.2612,0.61478 0.3121,0.9853l0.0086,0.09435v0.04632c0,0.5333 -0.2985,1.03219 -0.7783,1.28749c-0.2633,0.1402 -1.02872,0.2673 -1.04042,0.2791c-0.68581,0.1046 -1.73794,0.1734 -2.89305,0.1734c-1.21246,0 -2.31022,-0.0688 -2.9855,-0.1971c-0.01171,0 -0.62847,-0.1271 -0.83444,-0.2091c-0.29727,-0.127 -0.54889,-0.3598 -0.70922,-0.6497c-0.11469,-0.23156 -0.17087,-0.47623 -0.17087,-0.73041c0.01053,-0.26724 0.18257,-0.76609 0.26215,-0.96326c0.50324,-1.30057 2.14989,-3.78413 3.15637,-4.73551c0.16034,-0.16272 0.35461,-0.33731 0.40025,-0.38363c0.25162,-0.19717 0.56059,-0.30169 0.89296,-0.30169zM17.2947,4.375c0.6166,0 1.1232,0.47499 1.1841,1.08438l0.0061,0.12357l-0.2563,4.57885c0,0.5238 -0.4178,0.9478 -0.9339,0.9478c-0.4792,0 -0.8737,-0.3656 -0.9276,-0.8372l-0.0063,-0.1106l-0.2575,-4.57885c0,-0.66752 0.5337,-1.20795 1.1914,-1.20795z" fill="#1B2437"/>
</svg>
