<svg width="24" height="24" viewBox="0 0 24 24" fill="none" xmlns="http://www.w3.org/2000/svg">
<path d="M19.75,2c0.5967,0 1.169,0.23705 1.591,0.65901c0.4219,0.42196 0.659,0.99425 0.659,1.59099v5.462c-0.0001,0.8619 -0.3425,1.6885 -0.952,2.298l-8.5,8.503c-0.61,0.6087 -1.4366,0.9506 -2.2983,0.9507c-0.86175,0.0002 -1.6884,-0.3413 -2.29871,-0.9497l-4.462,-4.454c-0.60996,-0.609 -0.95305,-1.4353 -0.9538,-2.2972c-0.00075,-0.8619 0.3409,-1.6888 0.9498,-2.2988l8.50001,-8.51c0.3019,-0.30222 0.6605,-0.54194 1.0551,-0.70547c0.3947,-0.16352 0.8177,-0.24764 1.2449,-0.24753zM19.75,3.5h-5.466c-0.464,0 -0.91,0.185 -1.238,0.513l-8.51201,8.523c-0.32228,0.3296 -0.50148,0.7731 -0.49867,1.2341c0.00281,0.461 0.1874,0.9022 0.51367,1.2279l4.461,4.454c0.32893,0.3276 0.77426,0.5116 1.23851,0.5116c0.4642,0 0.9096,-0.184 1.2385,-0.5116l8.5,-8.503c0.3282,-0.328 0.5128,-0.773 0.513,-1.237v-5.462c0,-0.19891 -0.079,-0.38968 -0.2197,-0.53033c-0.1406,-0.14065 -0.3314,-0.21967 -0.5303,-0.21967zM17,5.502c0.197,0 0.392,0.0388 0.574,0.11418c0.182,0.07538 0.3474,0.18587 0.4867,0.32516c0.1392,0.13929 0.2497,0.30465 0.3251,0.48663c0.0754,0.18199 0.1142,0.37705 0.1142,0.57403c0,0.19698 -0.0388,0.39204 -0.1142,0.57403c-0.0754,0.18198 -0.1859,0.34734 -0.3251,0.48663c-0.1393,0.13929 -0.3047,0.24978 -0.4867,0.32516c-0.182,0.07538 -0.377,0.11418 -0.574,0.11418c-0.3978,0 -0.7794,-0.15804 -1.0607,-0.43934c-0.2813,-0.2813 -0.4393,-0.66284 -0.4393,-1.06066c0,-0.39782 0.158,-0.77936 0.4393,-1.06066c0.2813,-0.2813 0.6629,-0.43934 1.0607,-0.43934z" fill="#1B2437"/>
</svg>
