<svg width="24" height="24" viewBox="0 0 24 24" fill="none" xmlns="http://www.w3.org/2000/svg">
<path fill-rule="evenodd" clip-rule="evenodd" d="M19.75,2c0.5967,0 1.169,0.23705 1.591,0.65901c0.4219,0.42196 0.659,0.99425 0.659,1.59099v5.462c-0.0001,0.8619 -0.3425,1.6885 -0.952,2.298l-8.5,8.503c-0.6101,0.6087 -1.4366,0.9506 -2.2983,0.9507c-0.86178,0.0002 -1.68843,-0.3413 -2.29874,-0.9497l-4.462,-4.454c-0.60996,-0.609 -0.95305,-1.4353 -0.9538,-2.2972c-0.00075,-0.8619 0.3409,-1.6888 0.9498,-2.2988l8.50004,-8.51c0.3019,-0.30222 0.6604,-0.54194 1.0551,-0.70547c0.3946,-0.16352 0.8177,-0.24764 1.2449,-0.24753zM17.574,5.61618c-0.182,-0.07538 -0.3771,-0.11418 -0.574,-0.11418c-0.3979,0 -0.7794,0.15804 -1.0607,0.43934c-0.2813,0.2813 -0.4393,0.66284 -0.4393,1.06066c0,0.39782 0.158,0.77936 0.4393,1.06066c0.2813,0.2813 0.6628,0.43934 1.0607,0.43934c0.1969,0 0.392,-0.0388 0.574,-0.11418c0.182,-0.07538 0.3473,-0.18587 0.4866,-0.32516c0.1393,-0.13929 0.2498,-0.30465 0.3252,-0.48663c0.0754,-0.18199 0.1142,-0.37705 0.1142,-0.57403c0,-0.19698 -0.0388,-0.39204 -0.1142,-0.57403c-0.0754,-0.18198 -0.1859,-0.34734 -0.3252,-0.48663c-0.1393,-0.13929 -0.3046,-0.24978 -0.4866,-0.32516z" fill="#1B2437"/>
</svg>
