<svg width="24" height="24" viewBox="0 0 24 24" fill="none" xmlns="http://www.w3.org/2000/svg">
<path d="M22.2457,16.3389c-0.0391,0.1561 -0.0683,0.3122 -0.122,0.4683c-0.239,0.7318 -0.9025,1.2196 -1.6976,1.2294c-0.283,0.0048 -0.4391,0.1073 -0.5561,0.3658c-0.522,1.1513 -1.4196,1.7611 -2.688,1.7367c-1.2439,-0.0244 -2.1123,-0.6537 -2.5952,-1.8001c-0.0878,-0.2097 -0.2098,-0.2829 -0.439,-0.3024c-0.3025,-0.0293 -0.5952,-0.1317 -0.8928,-0.1854c-0.1268,-0.0244 -0.2829,-0.0634 -0.3853,-0.0146c-0.444,0.2097 -0.9074,0.2341 -1.3757,0.2048c0.1219,-0.4829 0.2439,-0.961 0.3756,-1.4342c0.0146,-0.0487 0.0976,-0.1024 0.1561,-0.1122c0.1561,-0.0292 0.2293,-0.1122 0.239,-0.2634c0.0049,-0.1073 0.0147,-0.2098 0.0147,-0.3171c0,-3.3074 0,-6.61977 0,-9.92723c0,-0.03902 0,-0.08293 0,-0.12195c-0.0098,-0.38539 -0.0781,-0.45368 -0.4635,-0.45368c-2.68299,0 -5.36603,0 -8.04907,0c-0.37563,0 -0.4488,0.07805 -0.4488,0.46343c0,0.47807 0,0.95614 0,1.42933c-0.52686,0.10732 -1.02932,0.20977 -1.54641,0.31709c0,-0.69759 -0.05854,-1.40006 0.01463,-2.0879c0.10245,-1.02931 0.90248,-1.67812 1.97082,-1.67324c1.13176,0 2.25863,0.02927 3.39039,0.02927c1.52201,0 3.03914,-0.01463 4.56114,-0.02927c1.0001,-0.00975 1.7464,0.4488 2.0147,1.25859c0.0635,0.19025 0.083,0.39514 0.0879,0.59515c0.0048,0.20001 0.0634,0.2683 0.2683,0.26343c0.9122,-0.00488 1.8196,0.00487 2.7318,0c0.5659,-0.00488 1.0147,0.22439 1.4049,0.62441c0.9952,1.00492 1.9855,2.01472 2.9953,3.00501c0.478,0.47316 0.9464,0.94146 1.039,1.64886c-0.0048,1.6976 -0.0048,3.3904 -0.0048,5.0831zM13.8063,11.9924h0.0049c0,1.3659 0,2.7318 0,4.0977c0,0.2 0.039,0.3757 0.2878,0.4049c0.2195,0.0244 0.3854,-0.0048 0.478,-0.2536c0.3854,-1.0733 1.4294,-1.8147 2.566,-1.8489c1.2391,-0.0341 2.2879,0.6683 2.7952,1.8928c0.0732,0.1756 0.1757,0.2683 0.3659,0.2536c0.1854,-0.0146 0.3025,-0.1219 0.3415,-0.2975c0.0244,-0.1074 0.0293,-0.2244 0.0293,-0.3366c0,-1.4001 -0.0098,-2.7953 -0.0049,-4.1953c0,-0.2976 -0.1025,-0.5269 -0.3122,-0.7318c-1.0391,-1.02928 -2.0782,-2.0586 -3.1026,-3.10742c-0.2439,-0.24879 -0.5025,-0.35611 -0.8391,-0.35611c-0.7073,0.00975 -1.4146,0 -2.122,0.00487c-0.4244,0 -0.4976,0.07806 -0.4976,0.49759c0.0098,1.32688 0.0098,2.65377 0.0098,3.97577zM17.2552,18.5976c0.7415,-0.0049 1.3415,-0.6098 1.3269,-1.3367c-0.0146,-0.7366 -0.6147,-1.322 -1.3513,-1.3171c-0.722,0.0049 -1.3074,0.6 -1.3122,1.3269c-0.0049,0.7366 0.5951,1.3317 1.3366,1.3269z" fill="#1B2437"/>
<path fill-rule="evenodd" clip-rule="evenodd" d="M2.3722,10.2594c0.00054,-0.58582 0.39571,-0.98783 0.98177,-0.9933c0.48268,-0.00465 0.96536,-0.00355 1.44805,0.00383c0.1154,0.00191 0.14466,-0.03063 0.14165,-0.1433c-0.0075,-0.27071 -0.00516,-0.54165 -0.00283,-0.81261l0.00065,-0.07563c0.00465,-0.54941 0.43783,-0.929 0.9804,-0.86145c0.31149,0.03883 0.62817,0.37904 0.66865,0.72361c0.02516,0.21478 0.02188,0.43043 0.01859,0.64601c-0.00164,0.10778 -0.00328,0.21554 -0.00136,0.32319l0.00013,0.00829c0.00311,0.18678 0.00316,0.18965 0.1913,0.18642c0.71267,-0.01231 1.38569,0.14139 1.98652,0.52945c0.8423,0.54369 1.33978,1.30149 1.32608,2.33189c-0.0096,0.7176 -0.30384,1.3206 -0.81934,1.8143c-0.07356,0.0702 -0.0793,0.1039 -0.00191,0.1733c1.00175,0.8992 1.20655,2.5912 -0.01805,3.7712c-0.60602,0.5842 -1.35014,0.8352 -2.17357,0.8883c-0.12252,0.0079 -0.24613,0.0096 -0.36865,0.003c-0.0938,-0.0052 -0.12607,0.0216 -0.12388,0.1198c0.00629,0.2959 0.00602,0.5921 0.00137,0.8882c-0.00875,0.5503 -0.38478,0.9151 -0.90493,0.8833c-0.39845,-0.0243 -0.73401,-0.3451 -0.7537,-0.7465c-0.01602,-0.3285 -0.01066,-0.658 -0.0053,-0.9871l0.00038,-0.0237c0.00164,-0.1047 -0.0309,-0.1288 -0.13127,-0.1283l-0.10617,0.0009c-0.47467,0.0036 -0.94953,0.0073 -1.42391,-0.005c-0.45397,-0.0117 -0.79253,-0.3027 -0.88798,-0.7452c-0.02461,-0.1143 -0.02707,-0.2352 -0.02734,-0.353c-0.00183,-1.0171 -0.00175,-2.0344 -0.00167,-3.0517l0.00003,-0.6104h0.00601l-0.00015,-1.1273c-0.00017,-0.8769 -0.00034,-1.7538 0.00043,-2.6305zM4.06695,16.9691c-0.00109,0.1111 0.03911,0.1228 0.13264,0.122c0.35445,-0.003 0.70889,-0.0026 1.06334,-0.0022l0.36994,0.0003c0,-0.0025 0,-0.0049 -0.00028,-0.0071c0.14752,0 0.29506,0.0012 0.44259,0.0025c0.33932,0.0029 0.6786,0.0058 1.01749,-0.0066c0.42416,-0.0156 0.79445,-0.1772 1.08187,-0.5032c0.32653,-0.3703 0.3257,-0.8287 -0.00684,-1.194c-0.32325,-0.3553 -0.73893,-0.5043 -1.20739,-0.5073c-0.51573,-0.0034 -1.03156,-0.0031 -1.54737,-0.0028c-0.40784,0.0003 -0.81568,0.0005 -1.22347,-0.001c-0.09462,-0.0006 -0.12224,0.0238 -0.1217,0.12c0.0041,0.6596 0.00547,1.3195 -0.00082,1.9794zM4.06777,13.0508c-0.00055,0.1001 0.02133,0.1299 0.1258,0.1285c0.351,-0.0046 0.70214,-0.0039 1.05333,-0.0032c0.12683,0.0002 0.25366,0.0005 0.3805,0.0005l0.22311,0.0001c0.14868,0.0001 0.29732,0.0002 0.44608,-0.0001l0.17467,-0.0002c0.16491,-0.0001 0.32979,-0.0002 0.49452,-0.0028c0.38232,-0.006 0.73619,-0.1007 1.03975,-0.346c0.54503,-0.4405 0.54722,-1.0638 0.00574,-1.5085c-0.29754,-0.2444 -0.64677,-0.353 -1.02307,-0.3566c-0.5806,-0.0054 -1.16132,-0.0052 -1.74201,-0.0051c-0.36156,0 -0.72311,0.0001 -1.08462,-0.0012c-0.0804,-0.0005 -0.09708,0.0258 -0.09653,0.1007c0.00383,0.6645 0.00629,1.3293 0.00273,1.9939z" fill="#1B2437"/>
</svg>
