<svg width="24" height="24" viewBox="0 0 24 24" fill="none" xmlns="http://www.w3.org/2000/svg">
<path fill-rule="evenodd" clip-rule="evenodd" d="M17.3087,5.88152c0.3726,0.06053 0.6899,0.25221 0.9567,0.51954l3.6255,3.63174c0.2256,0.2259 0.3829,0.4825 0.473,0.7675h-7.3439v-4.96577c0.4969,-0.00088 0.9917,-0.00128 1.4881,0.0016c0.2669,0 0.5388,-0.00001 0.8006,0.04539zM15.02,12.1003h7.4351l0.0009,0.9232v0.0011c0.0011,1.0744 0.0022,2.1496 -0.0012,3.2224c0,1.1097 -0.8107,1.9218 -1.9235,1.9168c-0.2568,0 -0.3575,0.0807 -0.4481,0.3077c-0.4482,1.1399 -1.5257,1.8562 -2.7392,1.8461c-1.0849,-0.0089 -2.0402,-0.5841 -2.547,-1.5173c-0.0672,-0.1237 -0.1265,-0.2536 -0.1772,-0.3894c-0.0704,-0.1916 -0.1661,-0.2522 -0.3625,-0.2421c-0.1849,0.0099 -0.3638,-0.0068 -0.5373,-0.0478c-0.1807,-0.0427 -0.3556,-0.1117 -0.5251,-0.2044c-0.0655,-0.0353 -0.1763,-0.0353 -0.2418,0c-0.3424,0.1866 -0.6999,0.2623 -1.0876,0.2573c-0.3086,-0.0022 -0.6172,-0.0016 -0.9257,-0.001c-0.4115,0.0009 -0.823,0.0017 -1.23445,-0.0041c-0.1712,0 -0.24673,0.0505 -0.30716,0.2119c-0.46325,1.2055 -1.51562,1.9369 -2.75431,1.9369c-1.2538,0 -2.31123,-0.7364 -2.76944,-1.9521c-0.06043,-0.1614 -0.14101,-0.2017 -0.29207,-0.1916c-1.23365,0.0655 -2.04938,-0.908 -2.03931,-2.0681c0.03021,-3.4653 0.02518,-6.93051 0,-10.39577c-0.01007,-1.145 0.83085,-2.04284 2.0343,-2.02771c2.75433,0.03026 5.51368,0.03026 8.26804,0c0.8998,-0.01082 1.5836,0.48356 1.8746,1.13673v5.98125v1.3zM6.60862,18.7186c0.74019,0.0202 1.36457,-0.57 1.37968,-1.3013c0.0151,-0.7516 -0.55387,-1.372 -1.28903,-1.3922c-0.77041,-0.0252 -1.38474,0.5599 -1.40488,1.3266c-0.01511,0.7415 0.569,1.3467 1.31423,1.3669zM18.7136,17.3668c-0.0051,-0.7415 -0.6043,-1.3417 -1.3444,-1.3417c-0.7554,0 -1.3546,0.6002 -1.3495,1.3568c0.005,0.7415 0.5992,1.3367 1.3394,1.3418c0.7553,0 1.3595,-0.6053 1.3545,-1.3569z" fill="#1B2437"/>
</svg>
