<svg width="24" height="24" viewBox="0 0 24 24" fill="none" xmlns="http://www.w3.org/2000/svg">
<g clip-path="url(#clip0_1017_3233)">
<path d="M22.98,9.73c0.48,0.47 0.95,0.94 1.04,1.65c0,1.69 0,3.39 0,5.08c-0.04,0.16 -0.07,0.31 -0.12,0.47c-0.24,0.73 -0.9,1.23 -1.7,1.23c-0.29,0.01 -0.44,0.11 -0.56,0.37c-0.52,1.15 -1.42,1.76 -2.69,1.74c-1.25,-0.02 -2.12,-0.65 -2.6,-1.8c-0.09,-0.21 -0.21,-0.28 -0.44,-0.3c-0.3,-0.03 -0.59,-0.14 -0.89,-0.19c-0.13,-0.01 -0.29,-0.06 -0.39,-0.01c-0.45,0.2 -0.91,0.23 -1.38,0.2c0.13,-0.48 0.25,-0.96 0.38,-1.43c0.02,-0.05 0.1,-0.11 0.16,-0.11c0.16,-0.03 0.24,-0.11 0.24,-0.26c0.01,-0.11 0.01,-0.21 0.01,-0.32v-10.05c-0.01,-0.38 -0.07,-0.45 -0.46,-0.45h-8.05001c-0.38,0 -0.45,0.07 -0.45,0.46v1.43c-0.53,0.11 -1.03,0.21 -1.55,0.32c0,-0.7 -0.06,-1.4 0.01,-2.09c0.1,-1.03 0.9,-1.67 1.97,-1.67c1.13,0 2.26,0.03 3.39,0.03c1.52001,0 3.04001,-0.02 4.56001,-0.03c1,0 1.74,0.45 2.01,1.26c0.07,0.2 0.08,0.4 0.09,0.6c0.01,0.2 0.07,0.26 0.27,0.26c0.91,0 1.82,0 2.73,0c0.56,-0.01 1.01,0.22 1.4,0.62c1,1.01 1.99,2.02 3,3.01zM18.99,18.74c0.74,-0.01 1.34,-0.61 1.33,-1.34c-0.01,-0.74 -0.61,-1.32 -1.35,-1.32c-0.72,0.01 -1.31,0.6 -1.31,1.33c0,0.74 0.6,1.33 1.34,1.33zM22.38,16.4c0.03,-0.11 0.03,-0.23 0.03,-0.34c0,-1.4 0,-2.8 0,-4.2c0,-0.3 -0.1,-0.53 -0.31,-0.73c-1.04,-1.03 -2.08,-2.06 -3.1,-3.11c-0.24,-0.25 -0.5,-0.36 -0.84,-0.36c-0.71,0 -1.41,0 -2.12,0c-0.43,0 -0.5,0.08 -0.5,0.5c0,1.33 0,2.66 0,3.98v4.1c0,0.2 0.04,0.37 0.29,0.4c0.22,0.03 0.39,0 0.48,-0.25c0.39,-1.07 1.43,-1.82 2.57,-1.85c1.24,-0.04 2.29,0.67 2.8,1.89c0.08,0.17 0.18,0.26 0.37,0.25c0.18,-0.02 0.3,-0.12 0.34,-0.3z" fill="#1B2437"/>
<path d="M11.37,11.67c0.23,0.29 0.37,0.62 0.37,0.99c0,1.79 0.02,3.58 0,5.37c-0.01,0.87 -0.69,1.55 -1.55,1.62c-0.22001,0.03 -0.44001,0.03 -0.66001,0.03h-7.29c-0.22,0 -0.44,-0.02 -0.66,-0.03c-0.84,-0.08 -1.49,-0.7 -1.54,-1.53c-0.03,-0.63 -0.03,-1.27 -0.03,-1.9c0,-1.18 -0.02,-2.36 0.03,-3.54c0.04,-1 0.72,-1.62 1.72,-1.66c0.45,-0.01 0.9,0 1.35,0c0.12,-0.79 0.48,-1.39 1.16,-1.77c0.21,-0.11 0.44,-0.23 0.66,-0.23c0.6,-0.04 1.22,-0.09 1.82,-0.02c0.98,0.1 1.71,0.85 1.89,1.83c0.01,0.05 0.03,0.11 0.05,0.19c0.42,0 0.83,0 1.24,0c0.58001,0.01 1.08001,0.19 1.45001,0.66zM2.81999,18.23c0.24,0.02 0.29,-0.07 0.29,-0.3c0,-1.73 0,-3.45 0,-5.17v-0.29h-1.14c-0.43,0.01 -0.5,0.06 -0.5,0.47c0,1.6 0,3.2 0,4.8c0,0.05 0,0.1 0,0.15c0.01,0.22 0.13,0.33 0.34,0.33c0.33,0.01 0.67,-0.01 1,0.01zM5.25999,10.42c-0.34,0.02 -0.62,0.29 -0.64,0.58c0.84,0 1.68,0 2.52,0c-0.06,-0.32 -0.32,-0.57 -0.64,-0.57c-0.42,-0.01 -0.83,-0.02 -1.24,0zM7.17999,18.21v-5.73c-0.88,0 -1.74,0 -2.62,0c-0.02,0.04 -0.02,0.06 -0.02,0.07c0,1.83 0,3.66 0,5.48c0,0.19 0.1,0.19 0.23,0.19c0.72,0 1.44,0 2.17,0c0.08,0 0.16,-0.01 0.25,-0.01zM10.28,17.69c0,-1.46 0,-2.93 0,-4.39c0,-0.18 0,-0.36 0,-0.54c0,-0.16 -0.08,-0.28 -0.24,-0.28c-0.45001,0 -0.90001,0 -1.36001,0c0,1.92 0,3.82 0,5.75c0.37,0 0.72,0 1.08,0c0.48001,0 0.53001,-0.05 0.53001,-0.53z" fill="#1B2437"/>
</g>
<defs>
<clipPath id="clip0_1017_3233">
<rect width="24" height="24" fill="white"/>
</clipPath>
</defs>
</svg>
