<svg width="24" height="24" viewBox="0 0 24 24" fill="none" xmlns="http://www.w3.org/2000/svg">
<path d="M13.8897,5.83613c0.8812,0 1.7473,-0.00505 2.6184,0c0.2669,0 0.5388,-0.00001 0.8006,0.04539c0.3726,0.06053 0.6899,0.25221 0.9567,0.51954c1.2085,1.21057 2.417,2.42114 3.6255,3.63174c0.3776,0.3783 0.5639,0.8423 0.5639,1.382c0,1.6091 0.0051,3.2232 0,4.8322c0,1.1097 -0.8107,1.9218 -1.9235,1.9168c-0.2568,0 -0.3575,0.0807 -0.4481,0.3077c-0.4482,1.1399 -1.5257,1.8562 -2.7392,1.8461c-1.2286,-0.0101 -2.2911,-0.7465 -2.7241,-1.9067c-0.0705,-0.1916 -0.1662,-0.2522 -0.3626,-0.2421c-0.3777,0.0202 -0.7301,-0.0706 -1.0624,-0.2522c-0.0655,-0.0353 -0.1763,-0.0353 -0.2418,0c-0.3424,0.1866 -0.6999,0.2623 -1.0876,0.2573c-0.72,-0.0051 -1.4401,0.005 -2.16015,-0.0051c-0.1712,0 -0.24673,0.0505 -0.30716,0.2119c-0.46325,1.2055 -1.51562,1.9369 -2.75431,1.9369c-1.2538,0 -2.31123,-0.7364 -2.76944,-1.9521c-0.06043,-0.1614 -0.14101,-0.2017 -0.29207,-0.1916c-1.23365,0.0655 -2.04938,-0.908 -2.03931,-2.0681c0.03021,-3.4653 0.02518,-6.93052 0,-10.39578c-0.01007,-1.14499 0.83085,-2.04283 2.0343,-2.0277c2.75433,0.03026 5.51368,0.03026 8.26804,0c1.2588,-0.01513 2.0947,0.95837 2.0242,1.97222c0,0.05548 0.0151,0.11097 0.0201,0.18159zM3.15437,10.9205c0,1.14 0,2.2799 0,3.4249c0,0.6356 0,1.2762 0,1.9117c0,0.1766 0.07553,0.3077 0.25177,0.3128c0.16616,0.005 0.3676,0.1109 0.47334,-0.1766c0.43807,-1.2055 1.52066,-1.9621 2.75936,-1.9672c1.23365,-0.005 2.30617,0.7466 2.75935,1.937c0.06546,0.1765 0.15106,0.2219 0.3273,0.2219c0.69491,-0.0101 1.38981,-0.0051 2.08461,-0.0051c0.4079,0 0.4734,-0.0605 0.4734,-0.459c0,-3.4652 0,-6.93048 0,-10.39574c0,-0.37831 -0.0605,-0.44388 -0.4381,-0.44388c-2.75436,0 -5.51371,0 -8.26804,0c-0.35751,0 -0.42299,0.07062 -0.42299,0.42874c0,1.73516 0,3.47031 0,5.21048zM13.8696,11.9848c0,0.2119 0,0.4187 0,0.6305c0,1.1904 0,2.3808 0,3.5712c0,0.1967 0.0453,0.3632 0.2669,0.3834c0.1963,0.0201 0.3978,0.0655 0.4884,-0.2321c0.1561,-0.5245 0.4985,-0.9482 0.9265,-1.2812c1.571,-1.2257 3.852,-0.5851 4.5671,1.2863c0.0302,0.0807 0.0654,0.1916 0.1309,0.227c0.3071,0.1462 0.6042,-0.0454 0.6042,-0.3834c0,-1.5586 0.005,-3.1223 -0.005,-4.6809c0,-0.1412 -0.0756,-0.3127 -0.1763,-0.4136c-1.1531,-1.1702 -2.3112,-2.33537 -3.4844,-3.48541c-0.1007,-0.10089 -0.2719,-0.16646 -0.4129,-0.1715c-0.8309,-0.01513 -1.6567,-0.01009 -2.4875,-0.00505c-0.3424,0 -0.423,0.08071 -0.423,0.43379c0.0051,1.37198 0.0051,2.74897 0.0051,4.12097zM6.60862,18.7186c0.74019,0.0202 1.36457,-0.57 1.37968,-1.3013c0.0151,-0.7516 -0.55387,-1.372 -1.28903,-1.3922c-0.77041,-0.0252 -1.38474,0.5599 -1.40488,1.3266c-0.01511,0.7415 0.569,1.3467 1.31423,1.3669zM18.7136,17.3668c-0.0051,-0.7415 -0.6043,-1.3417 -1.3444,-1.3417c-0.7553,0 -1.3546,0.6002 -1.3495,1.3568c0.005,0.7415 0.5992,1.3367 1.3394,1.3418c0.7553,0 1.3595,-0.6053 1.3545,-1.3569z" fill="#1B2437"/>
</svg>
