<svg width="24" height="24" viewBox="0 0 24 24" fill="none" xmlns="http://www.w3.org/2000/svg">
<path d="M3.23412,11.5209c0.11708,-0.7854 0.47807,-1.3903 1.15615,-1.76589c0.20488,-0.1122 0.43416,-0.2244 0.65856,-0.23415c0.6049,-0.03903 1.22444,-0.08781 1.82447,-0.01952c0.98541,0.10733 1.71227,0.85366 1.89276,1.83426c0.00976,0.0536 0.02927,0.1073 0.04879,0.1902c0.41465,0 0.82442,-0.0049 1.23905,0c0.5805,0.0049 1.083,0.1903 1.4537,0.6586c0.2293,0.2878 0.3659,0.6195 0.3659,0.9854c0.0049,1.7903 0.0195,3.5758 -0.0049,5.3661c-0.0097,0.8732 -0.6878,1.5464 -1.5513,1.6196c-0.2195,0.0195 -0.439,0.0292 -0.65852,0.0292c-2.42937,0 -4.86362,0 -7.29299,0c-0.21952,0 -0.43904,-0.0146 -0.65857,-0.0292c-0.83418,-0.0732 -1.48299,-0.6976 -1.53665,-1.5269c-0.03903,-0.6342 -0.03415,-1.2684 -0.03415,-1.9026c0,-1.1805 0.02927,-3.5367 0.02927,-3.5367c0,0 0.7171,-1.6196 1.72203,-1.6586c0.4488,-0.0244 0.8976,-0.0098 1.3464,-0.0098zM4.70735,12.9844c-0.00975,0.0439 -0.01951,0.0586 -0.01951,0.0732c0,1.8293 0,3.6587 -0.00488,5.4832c0,0.1853 0.09757,0.1902 0.22928,0.1853c0.72198,-0.0049 1.44396,0 2.17082,0c0.07806,0 0.15611,-0.0097 0.24879,-0.0146c0,-1.9172 0,-3.8246 0,-5.732c-0.88296,0.0049 -1.74641,0.0049 -2.6245,0.0049zM3.23412,12.9747c-0.40977,0 -0.77564,0 -1.13664,0c-0.4244,0.0048 -0.4927,0.0536 -0.49758,0.4683c-0.00488,1.6 -0.00488,3.2001 0,4.8002c0,0.0488 0.00976,0.0975 0.00976,0.1463c0.00488,0.2195 0.12196,0.322 0.3366,0.3269c0.33172,0.0049 0.66832,-0.0049 1.00004,0.0146c0.23904,0.0146 0.29758,-0.0683 0.2927,-0.3024c-0.00976,-1.7221 -0.00488,-3.4441 -0.00488,-5.1661c0,-0.0829 0,-0.1708 0,-0.2878zM8.81972,18.731c0.37075,0 0.72199,0.0049 1.0781,0c0.48298,-0.0049 0.53168,-0.0537 0.53168,-0.5317c0.0049,-1.4635 0,-2.927 0,-4.3905c0,-0.1758 -0.0046,-0.3471 -0.0093,-0.5227c-0.0002,-0.0046 -0.0003,-0.0092 -0.0004,-0.0139c0,-0.1658 -0.0878,-0.278 -0.2439,-0.2829c-0.4537,-0.0098 -0.9025,-0.0049 -1.36105,-0.0049c0.00487,1.9172 0.00487,3.8148 0.00487,5.7466zM7.28307,11.5014c-0.06829,-0.3219 -0.32684,-0.561 -0.64393,-0.5707c-0.41465,-0.0147 -0.8293,-0.0195 -1.23908,0c-0.33659,0.0146 -0.61953,0.2829 -0.63905,0.5756c0.84394,-0.0049 1.683,-0.0049 2.52206,-0.0049z" fill="#1B2437"/>
<path d="M18.8781,6.65336c0.3634,0.05923 0.6729,0.24681 0.9332,0.50843l3.5363,3.55411c0.22,0.2211 0.3735,0.4722 0.4614,0.7511h-7.1634v-4.85963c0.4847,-0.00085 0.9673,-0.00125 1.4515,0.00157c0.2604,0 0.5256,-0.00001 0.781,0.04442z" fill="#1B2437"/>
<path fill-rule="evenodd" clip-rule="evenodd" d="M12.8787,16.9297l-0.0001,-0.2042c0,-0.2601 0.0009,-0.5204 0.0019,-0.7829v-0.0109c0.0034,-0.9107 0.0068,-1.8469 -0.0321,-2.7839l-0.0001,-0.0024c-0.0317,-0.7228 -0.2992,-1.3841 -0.8104,-1.8704c-0.5045,-0.4797 -1.1673,-0.7146 -1.8637,-0.7432c-0.21368,-0.0115 -0.42551,-0.0149 -0.62901,-0.0152c-0.26334,-0.67106 -0.72601,-1.2431 -1.43588,-1.63634l-0.00426,-0.00234l-0.00107,-0.00059c-0.19277,-0.10557 -0.60325,-0.33035 -1.08115,-0.3549l-0.1196,-0.0078l-0.03626,-0.00238c-0.53974,-0.03543 -1.18935,-0.07808 -1.83604,-0.00475c-0.13052,0.01431 -0.25768,0.03618 -0.38122,0.0651c-0.42454,0.09938 -0.80629,0.28204 -1.13495,0.52775c-0.00346,-0.87161 -0.00848,-1.74321 -0.01479,-2.61482c-0.00982,-1.12053 0.81043,-1.99918 1.98429,-1.98437c2.68662,0.02962 5.37814,0.02962 8.06474,0c0.8778,-0.01058 1.5447,0.47322 1.8286,1.11244v7.1256h8.5204l0.0008,0.9035v0.0011c0.0011,1.0514 0.0022,2.1036 -0.0011,3.1535c0,1.086 -0.7908,1.8807 -1.8762,1.8758c-0.2505,0 -0.3487,0.079 -0.4372,0.3011c-0.4371,1.1156 -1.4881,1.8165 -2.6718,1.8067c-1.0582,-0.0087 -1.9901,-0.5717 -2.4844,-1.4849c-0.0655,-0.121 -0.1234,-0.2482 -0.1728,-0.381c-0.0688,-0.1876 -0.1621,-0.2468 -0.3536,-0.237c-0.1804,0.0097 -0.3549,-0.0067 -0.5241,-0.0468c-0.1763,-0.0418 -0.3468,-0.1093 -0.5123,-0.2c-0.0638,-0.0345 -0.1719,-0.0345 -0.2357,0c-0.334,0.1827 -0.6827,0.2567 -1.0609,0.2518c-0.2419,-0.0017 -0.4838,-0.0017 -0.7256,-0.0013c0.0365,-0.5991 0.036,-1.1931 0.0356,-1.752zM17.6207,17.908c0.0049,0.7256 0.5845,1.3081 1.3065,1.313c0.7367,0 1.3261,-0.5923 1.3212,-1.3278c-0.0049,-0.7257 -0.5894,-1.3131 -1.3114,-1.3131c-0.7367,0 -1.3212,0.5874 -1.3163,1.3279z" fill="#1B2437"/>
</svg>
