<svg width="24" height="24" viewBox="0 0 24 24" fill="none" xmlns="http://www.w3.org/2000/svg">
<path fill-rule="evenodd" clip-rule="evenodd" d="M2.37207,10.2594c0.00055,-0.58581 0.39572,-0.98782 0.98177,-0.99329c0.48269,-0.00465 0.96537,-0.00356 1.44805,0.00383c0.11541,0.00191 0.14467,-0.03063 0.14166,-0.1433c-0.00751,-0.27071 -0.00517,-0.54165 -0.00283,-0.81261l0.00064,-0.07564c0.00465,-0.54941 0.43783,-0.92899 0.98041,-0.86144c0.31149,0.03883 0.62817,0.37903 0.66864,0.72361c0.02516,0.21477 0.02188,0.43043 0.0186,0.64601c-0.00164,0.10778 -0.00328,0.21554 -0.00137,0.32318l0.00014,0.00829c0.0031,0.18679 0.00315,0.18966 0.19129,0.18643c0.71268,-0.01231 1.3857,0.14138 1.98652,0.52944c0.8423,0.54369 1.33971,1.30149 1.32611,2.33189c-0.0096,0.7176 -0.30386,1.3206 -0.81936,1.8143c-0.07357,0.0702 -0.07931,0.1039 -0.00192,0.1733c1.00178,0.8992 1.20658,2.5912 -0.01804,3.7713c-0.60602,0.5841 -1.35015,0.8351 -2.17358,0.8882c-0.12252,0.0079 -0.24613,0.0096 -0.36864,0.003c-0.0938,-0.0052 -0.12607,0.0216 -0.12389,0.1198c0.00629,0.2959 0.00602,0.5921 0.00137,0.8882c-0.00875,0.5503 -0.38478,0.9151 -0.90493,0.8834c-0.39845,-0.0244 -0.734,-0.3452 -0.75369,-0.7466c-0.01602,-0.3285 -0.01066,-0.658 -0.00531,-0.9871l0.00039,-0.0237c0.00164,-0.1047 -0.03091,-0.1288 -0.13127,-0.1283l-0.10618,0.0009c-0.47467,0.0036 -0.94953,0.0073 -1.42391,-0.005c-0.45397,-0.0117 -0.79253,-0.3027 -0.88797,-0.7452c-0.02461,-0.1143 -0.02708,-0.2352 -0.02735,-0.353c-0.00182,-1.0171 -0.00175,-2.0344 -0.00167,-3.0517l0.00003,-0.6104h0.00602l-0.00015,-1.1273c-0.00017,-0.8769 -0.00035,-1.7538 0.00042,-2.6305zM4.06683,16.9691c-0.0011,0.1111 0.0391,0.1228 0.13263,0.122c0.35445,-0.003 0.7089,-0.0026 1.06335,-0.0022l0.36993,0.0003c0,-0.0025 0,-0.0049 -0.00027,-0.0071c0.14751,0 0.29505,0.0012 0.44259,0.0025c0.33931,0.0029 0.6786,0.0058 1.01749,-0.0066c0.42416,-0.0156 0.79444,-0.1772 1.08186,-0.5032c0.32653,-0.3703 0.32571,-0.8286 -0.00684,-1.194c-0.32324,-0.3553 -0.73892,-0.5043 -1.20738,-0.5073c-0.51574,-0.0034 -1.03156,-0.0031 -1.54737,-0.0027c-0.40785,0.0002 -0.81569,0.0004 -1.22348,-0.0011c-0.09462,-0.0006 -0.12224,0.0238 -0.12169,0.12c0.0041,0.6596 0.00547,1.3195 -0.00082,1.9794zM4.06765,13.0508c-0.00055,0.1001 0.02133,0.1299 0.1258,0.1285c0.35099,-0.0046 0.70214,-0.0039 1.05332,-0.0032c0.12683,0.0002 0.25367,0.0005 0.3805,0.0005l0.22312,0.0001c0.14867,0.0001 0.29731,0.0003 0.44607,-0.0001l0.17467,-0.0002c0.16492,-0.0001 0.3298,-0.0002 0.49452,-0.0028c0.38232,-0.006 0.7362,-0.1007 1.03975,-0.346c0.54504,-0.4405 0.54723,-1.0638 0.00575,-1.5084c-0.29754,-0.2445 -0.64677,-0.3531 -1.02307,-0.3567c-0.58061,-0.0054 -1.16132,-0.0052 -1.74201,-0.0051c-0.36156,0 -0.72311,0.0001 -1.08462,-0.0011c-0.0804,-0.0006 -0.09708,0.0257 -0.09654,0.1006c0.00383,0.6645 0.00629,1.3293 0.00274,1.9939z" fill="#1B2437"/>
<path d="M17.3087,6.08123c0.3726,0.06053 0.6899,0.2522 0.9567,0.51954l3.6255,3.63173c0.2255,0.2259 0.3829,0.4825 0.473,0.7675h-7.3439v-4.96576c0.4969,-0.00088 0.9917,-0.00128 1.4881,0.00159c0.2669,0 0.5388,0 0.8006,0.0454z" fill="#1B2437"/>
<path fill-rule="evenodd" clip-rule="evenodd" d="M1.93163,8.8427c-0.15731,0.1594 -0.28044,0.34061 -0.37066,0.53549c-0.00335,-1.15615 -0.00951,-2.3123 -0.01791,-3.46846c-0.01007,-1.145 0.83085,-2.04284 2.0343,-2.02771c2.75433,0.03027 5.51368,0.03027 8.26804,0c0.8998,-0.01081 1.5836,0.48356 1.8746,1.13674v7.28124h8.7351l0.0009,0.9232v0.0011c0.0011,1.0744 0.0022,2.1496 -0.0012,3.2224c0,1.1097 -0.8107,1.9218 -1.9235,1.9168c-0.2568,0 -0.3575,0.0807 -0.4481,0.3077c-0.4482,1.1399 -1.5257,1.8562 -2.7392,1.8461c-1.0849,-0.0089 -2.0402,-0.5841 -2.547,-1.5173c-0.0672,-0.1237 -0.1265,-0.2536 -0.1772,-0.3894c-0.0704,-0.1916 -0.1661,-0.2522 -0.3625,-0.2421c-0.185,0.0099 -0.3639,-0.0068 -0.5373,-0.0478c-0.1807,-0.0427 -0.3556,-0.1117 -0.5251,-0.2044c-0.0655,-0.0353 -0.1763,-0.0353 -0.2418,0c-0.3424,0.1867 -0.6999,0.2623 -1.0876,0.2573c-0.3086,-0.0022 -0.6172,-0.0016 -0.9257,-0.001c-0.2502,0.0005 -0.5004,0.001 -0.7506,0.0001c1.1871,-1.3367 1.1655,-3.1024 0.3353,-4.3486c0.3639,-0.5403 0.5776,-1.1718 0.5871,-1.8849c0.019,-1.4348 -0.7064,-2.49004 -1.78345,-3.18531c-0.54515,-0.35204 -1.12772,-0.55205 -1.72032,-0.63842c-0.00371,-0.10634 -0.01099,-0.21839 -0.02425,-0.33157c-0.04953,-0.42168 -0.25432,-0.78249 -0.49221,-1.03932c-0.23268,-0.25122 -0.59195,-0.50336 -1.04606,-0.55997c-1.13836,-0.14172 -2.09419,0.70056 -2.10391,1.84532l-0.00029,0.03339l-0.5969,0.00284c-0.52545,0.00497 -1.03374,0.19266 -1.41258,0.57654z" fill="#1B2437"/>
</svg>
