<svg width="24" height="24" viewBox="0 0 24 24" fill="none" xmlns="http://www.w3.org/2000/svg">
<path d="M16.905,7.74667c0,1.89378 -0.9302,3.57423 -2.3527,4.62053c0.5762,0.2151 1.1352,0.464 1.651,0.7831l0.0319,0.0337c-0.6839,0.2286 -1.3071,0.5896 -1.8394,1.0525c-1.1445,0.9956 -1.868,2.4627 -1.868,4.0987c0,1.3908 0.5228,2.6594 1.3827,3.6201h-10.7074h-0.59554c-0.34061,-0.1057 -0.61795,-0.3993 -0.60726,-0.8807c0,-3.9136 2.43304,-7.2686 5.86326,-8.6437c-1.47358,-1.041 -2.44288,-2.75204 -2.44288,-4.68423c0,-3.15997 2.58485,-5.74667 5.74482,-5.74667c3.16,0 5.7395,2.5867 5.7395,5.74667z" fill="#1B2437"/>
<path d="M16.5033,15.6925c0.1111,0.047 0.2117,0.1158 0.2958,0.2023l1.6245,1.6227l1.6226,-1.6227c0.164,-0.1687 0.3871,-0.267 0.6223,-0.2741c0.1833,-0.0069 0.3644,0.0422 0.5193,0.1406c0.1549,0.0983 0.2763,0.2414 0.348,0.4103c0.0717,0.1689 0.0903,0.3556 0.0535,0.5353c-0.0368,0.1798 -0.1274,0.3441 -0.2597,0.4712l-1.6227,1.6208l1.6227,1.6193c0.1696,0.1703 0.2648,0.4009 0.2646,0.6413c-0.0003,0.2404 -0.0958,0.4708 -0.2658,0.6408c-0.17,0.17 -0.4005,0.2656 -0.6408,0.2658c-0.2404,0.0002 -0.4711,-0.095 -0.6414,-0.2646l-1.6226,-1.6228l-1.6245,1.6228c-0.0836,0.0866 -0.1837,0.1557 -0.2944,0.2031c-0.1106,0.0474 -0.2296,0.0723 -0.35,0.0732c-0.1204,0.0009 -0.2398,-0.0223 -0.3511,-0.0681c-0.1114,-0.0458 -0.2124,-0.1134 -0.2973,-0.1987c-0.0849,-0.0854 -0.152,-0.1869 -0.1972,-0.2985c-0.0452,-0.1116 -0.0677,-0.2311 -0.0661,-0.3515c0.0015,-0.1203 0.0271,-0.2392 0.0751,-0.3496c0.0481,-0.1103 0.1177,-0.21 0.2048,-0.2932l1.6209,-1.6193l-1.6209,-1.6208c-0.1302,-0.1252 -0.2199,-0.2866 -0.2576,-0.4633c-0.0377,-0.1766 -0.0217,-0.3605 0.046,-0.528c0.0677,-0.1674 0.1839,-0.3109 0.3337,-0.4118c0.1499,-0.1008 0.3265,-0.1546 0.5071,-0.1543c0.1207,0.0003 0.2401,0.0247 0.3512,0.0718z" fill="#1B2437"/>
</svg>
