<svg width="24" height="24" viewBox="0 0 24 24" fill="none" xmlns="http://www.w3.org/2000/svg">
<path d="M16.2989,6.73109c0,1.89694 -0.9346,3.57971 -2.361,4.62821c0.579,0.2156 1.1406,0.4662 1.6579,0.7863c0.1019,0.0628 0.1905,0.1451 0.2606,0.2422c0.0701,0.097 0.1203,0.2069 0.1479,0.3234c0.0275,0.1165 0.0319,0.2374 0.0127,0.3555c-0.0192,0.1182 -0.0615,0.2314 -0.1246,0.3332c-0.063,0.1018 -0.1454,0.1901 -0.2426,0.26c-0.0973,0.0699 -0.2073,0.1199 -0.3239,0.1472c-0.1165,0.0273 -0.2373,0.0314 -0.3555,0.0119c-0.1181,-0.0195 -0.2312,-0.0621 -0.3329,-0.1253c-1.148,-0.7105 -2.4967,-1.1248 -3.9497,-1.1248c-4.16257,0 -7.51703,3.3545 -7.51703,7.517c-0.00526,0.2371 -0.10312,0.4626 -0.27261,0.6284c-0.1695,0.1657 -0.39716,0.2586 -0.63425,0.2586c-0.23708,0 -0.46475,-0.0929 -0.63424,-0.2586c-0.1695,-0.1658 -0.26735,-0.3913 -0.27261,-0.6284c0,-3.9221 2.4389,-7.2836 5.87685,-8.6612c-1.47461,-1.043 -2.44249,-2.75753 -2.44249,-4.69361c0,-3.16635 2.58297,-5.75816 5.74938,-5.75816c3.1663,0 5.7581,2.59181 5.7581,5.75816zM6.60513,6.73109c0,2.18615 1.74947,3.93561 3.93567,3.93561c2.1861,0 3.9427,-1.74946 3.9427,-3.93561c0,-2.18616 -1.7566,-3.94274 -3.9427,-3.94274c-2.1862,0 -3.93567,1.75658 -3.93567,3.94274zM15.5456,14.6511c0.1113,0.0471 0.2121,0.116 0.2964,0.2027l1.6277,1.626l1.626,-1.626c0.1642,-0.169 0.3878,-0.2675 0.6234,-0.2746c0.1838,-0.0069 0.3652,0.0423 0.5204,0.1408c0.1553,0.0986 0.2768,0.242 0.3487,0.4112c0.0718,0.1692 0.0905,0.3563 0.0536,0.5364c-0.0369,0.1801 -0.1276,0.3448 -0.2602,0.4721l-1.626,1.6241l1.626,1.6226c0.17,0.1706 0.2653,0.4017 0.2651,0.6425c-0.0002,0.2409 -0.096,0.4718 -0.2663,0.6422c-0.1703,0.1703 -0.4013,0.266 -0.6421,0.2663c-0.2409,0.0002 -0.472,-0.0952 -0.6426,-0.2652l-1.626,-1.626l-1.6277,1.626c-0.0838,0.0868 -0.1841,0.156 -0.295,0.2036c-0.1109,0.0475 -0.2301,0.0724 -0.3508,0.0733c-0.1206,0.0009 -0.2402,-0.0223 -0.3518,-0.0682c-0.1115,-0.0459 -0.2128,-0.1136 -0.2979,-0.1992c-0.085,-0.0855 -0.1522,-0.1872 -0.1975,-0.299c-0.0453,-0.1118 -0.0678,-0.2316 -0.0663,-0.3522c0.0016,-0.1206 0.0272,-0.2397 0.0753,-0.3503c0.0482,-0.1106 0.1179,-0.2105 0.2052,-0.2938l1.6242,-1.6226l-1.6242,-1.6241c-0.1305,-0.1255 -0.2203,-0.2872 -0.2581,-0.4642c-0.0378,-0.177 -0.0218,-0.3612 0.0461,-0.529c0.0678,-0.1678 0.1842,-0.3116 0.3344,-0.4127c0.1501,-0.101 0.3271,-0.1549 0.5081,-0.1546c0.1209,0.0003 0.2405,0.0247 0.3519,0.0719z" fill="#1B2437"/>
</svg>
