<svg width="24" height="24" viewBox="0 0 24 24" fill="none" xmlns="http://www.w3.org/2000/svg">
<path fill-rule="evenodd" clip-rule="evenodd" d="M0,9c0,-3.31371 2.68629,-6 6,-6h6c3.2317,0 5.8666,2.55492 5.9951,5.75506l3.0529,-1.65242c1.3326,-0.72128 2.952,0.24361 2.952,1.75888v6.27698c0,1.5152 -1.6194,2.4801 -2.952,1.7589l-3.0529,-1.6525c-0.1285,3.2002 -2.7634,5.7551 -5.9951,5.7551h-6c-3.31371,0 -6,-2.6863 -6,-6zM8.85,15.9c2.1263,0 3.85,-1.7237 3.85,-3.85c0,-2.1263 -1.7237,-3.85 -3.85,-3.85c-2.1263,0 -3.85,1.7237 -3.85,3.85c0,2.1263 1.7237,3.85 3.85,3.85z" fill="#1B2437"/>
</svg>
