<svg width="24" height="24" viewBox="0 0 24 24" fill="none" xmlns="http://www.w3.org/2000/svg">
<path d="M15.955,21c0,-0.1092 0,-0.1966 0,-0.2796c0,-2.2673 0,-4.5346 0,-6.802c0,-0.5897 -0.2534,-1.0135 -0.734,-1.197c-0.166,-0.0611 -0.3538,-0.0917 -0.533,-0.0917c-1.7867,-0.0044 -3.5735,-0.0044 -5.36464,-0.0044c-0.80819,0 -1.27564,0.4806 -1.27564,1.2975c0,2.2542 0,4.5041 0,6.7583c0,0.0917 0,0.1878 0,0.3014c-0.083,0.0044 -0.1529,0.0131 -0.2228,0.0131c-1.09216,0 -2.17995,0.0044 -3.27211,0c-1.4067,0 -2.53818,-1.0878 -2.54691,-2.4945c-0.01748,-3.342 -0.02185,-6.684 0.00437,-10.02598c0.00873,-1.06158 0.54608,-1.86104 1.52465,-2.27169c2.0052,-0.84315 4.03662,-1.63387 6.0593,-2.44207c0.51988,-0.20969 1.03538,-0.42376 1.55958,-0.61161c0.5985,-0.21406 1.197,-0.19659 1.7868,0.03932c2.4857,0.98731 4.9759,1.97025 7.4529,2.97941c1.0528,0.42813 1.5989,1.26254 1.6033,2.39838c0.0131,3.28524 0.0175,6.57044 0,9.85124c-0.0088,1.5072 -1.1228,2.5775 -2.6256,2.5775c-1.1271,0.0044 -2.2498,0.0044 -3.4162,0.0044zM17.3529,19.602c0.6815,0 1.3325,-0.0262 1.9746,0.0088c0.699,0.0349 1.3019,-0.4937 1.2844,-1.2931c-0.0218,-1.1184 -0.0043,-2.2368 -0.0043,-3.3552c0,-2.1013 -0.0044,-4.1982 0,-6.29953c0,-0.57666 -0.2316,-1.00042 -0.7733,-1.21885c-2.4639,-0.99168 -4.9278,-1.97899 -7.3917,-2.96193c-0.2927,-0.11796 -0.5942,-0.11796 -0.8912,0c-2.46831,0.98731 -4.93659,1.97025 -7.40487,2.96193c-0.48055,0.19222 -0.74704,0.57229 -0.74704,1.09653c-0.00437,3.29835 -0.00437,6.59665 0,9.89935c0,0.6771 0.5024,1.1577 1.17953,1.1577c0.61598,0.0043 1.23633,0 1.85231,0c0.06989,0 0.13979,-0.0088 0.21843,-0.0131c0,-0.1224 0,-0.2141 0,-0.3102c0,-1.7737 0,-3.5473 0,-5.321c0,-0.2097 0.00437,-0.4238 0.04368,-0.6291c0.24465,-1.2582 1.25817,-2.0926 2.57313,-2.1013c1.82613,-0.0087 3.64783,-0.0131 5.47393,0.0087c0.3407,0.0044 0.7033,0.0699 1.0135,0.201c1.0659,0.4543 1.5814,1.3018 1.5902,2.4508c0.0087,1.8086 0.0043,3.6172 0.0043,5.4302c0.0044,0.0917 0.0044,0.1791 0.0044,0.2883z" fill="#1B2437"/>
<path d="M10.516,15.5436c0.1616,0 0.3233,-0.0044 0.4849,0c0.3932,0.0087 0.6378,0.249 0.6422,0.6378c0.0044,0.3233 0.0087,0.6422 0,0.9655c-0.0087,0.3844 -0.249,0.6203 -0.6334,0.629c-0.3408,0.0088 -0.6816,0.0088 -1.01794,0c-0.38007,-0.0087 -0.62034,-0.2533 -0.62471,-0.6378c-0.00437,-0.3233 -0.00437,-0.6422 0,-0.9654c0.00437,-0.3714 0.2359,-0.6117 0.61161,-0.6291c0.17914,-0.0088 0.35824,0 0.53734,0z" fill="#1B2437"/>
<path d="M13.5609,20.7772c-0.1791,0 -0.3582,0.0044 -0.5373,0c-0.3539,-0.0131 -0.5942,-0.249 -0.5985,-0.6029c-0.0044,-0.3407 -0.0044,-0.6815 0,-1.0179c0.0087,-0.3495 0.249,-0.5941 0.6029,-0.6028c0.3582,-0.0088 0.7164,-0.0088 1.0746,0c0.3495,0.0087 0.5942,0.2533 0.6029,0.6028c0.0087,0.3321 0.0087,0.6684 0,1.0005c-0.0087,0.3757 -0.249,0.6072 -0.6247,0.6159c-0.1748,0.0044 -0.3495,0.0044 -0.5199,0.0044z" fill="#1B2437"/>
<path d="M10.5073,20.7772c-0.1791,0 -0.3583,0.0044 -0.53737,0c-0.35386,-0.0087 -0.5985,-0.2446 -0.60724,-0.5941c-0.00874,-0.3408 -0.00874,-0.6815 0,-1.0179c0.0131,-0.367 0.26212,-0.6029 0.63345,-0.6116c0.34076,-0.0044 0.68146,-0.0044 1.02226,0c0.3801,0.0087 0.6203,0.2533 0.6247,0.6334c0.0044,0.3146 0.0044,0.6335 0,0.948c-0.0044,0.4063 -0.2403,0.6378 -0.6509,0.6422c-0.1616,0 -0.3233,0 -0.4849,0z" fill="#1B2437"/>
</svg>
