<svg width="24" height="24" viewBox="0 0 24 24" fill="none" xmlns="http://www.w3.org/2000/svg">
<path fill-rule="evenodd" clip-rule="evenodd" d="M22.0059,18.9263c0,1.1045 -0.8955,2 -2,2c1.1,0 2,-0.9 2,-2zM2.00586,18.9263c0,1.1 0.9,2 2,2c-1.10457,0 -2,-0.8955 -2,-2z" fill="#1B2437"/>
<path d="M20.0059,20.9263h-3.0039v-7c0,-1.1046 -0.8955,-2 -2,-2h-5.99223c-1.10457,0 -2,0.8954 -2,2v7h-3.00391c-1.1,0 -2,-0.9 -2,-2v-10.65003c0,-0.81 0.5,-1.55 1.25,-1.86l8.00004,-3.2c0.48,-0.19 1.01,-0.19 1.49,0l8,3.2c0.76,0.31 1.26,1.04 1.26,1.86v10.65003c0,1.1 -0.9,2 -2,2z" fill="#1B2437"/>
<path d="M8.5,18.8c0,-0.4418 0.35817,-0.8 0.8,-0.8h1.4c0.4418,0 0.8,0.3582 0.8,0.8v1.3268c0,0.4418 -0.3582,0.8 -0.8,0.8h-1.4c-0.44183,0 -0.8,-0.3582 -0.8,-0.8z" fill="#1B2437"/>
<path d="M12.5,18.8c0,-0.4418 0.3582,-0.8 0.8,-0.8h1.4c0.4418,0 0.8,0.3582 0.8,0.8v1.3268c0,0.4418 -0.3582,0.8 -0.8,0.8h-1.4c-0.4418,0 -0.8,-0.3582 -0.8,-0.8z" fill="#1B2437"/>
<path d="M8.50586,14.8732c0,-0.4418 0.35817,-0.8 0.8,-0.8h1.40004c0.4418,0 0.8,0.3582 0.8,0.8v1.3268c0,0.4418 -0.3582,0.8 -0.8,0.8h-1.40004c-0.44183,0 -0.8,-0.3582 -0.8,-0.8z" fill="#1B2437"/>
</svg>
