<svg width="24" height="24" viewBox="0 0 24 24" fill="none" xmlns="http://www.w3.org/2000/svg">
<path d="M17.0265,18.0796c-4.3002,3.5864 -10.25701,2.5977 -13.31346,-1.1601c-3.08667,-3.7881 -2.84497,-9.15998 0.56395,-12.6202c3.3334,-3.3896 8.77661,-3.68719 12.50271,-0.7213c3.9226,3.12227 4.8642,9.2054 1.2891,13.4676c0.0805,0.0504 0.1762,0.0858 0.2467,0.1564c1.284,1.2812 2.558,2.5624 3.842,3.8435c0.2165,0.2169 0.3374,0.459 0.2769,0.7667c-0.0604,0.3178 -0.2517,0.5347 -0.5589,0.6154c-0.3122,0.0858 -0.5891,0 -0.8258,-0.2371c-1.284,-1.2912 -2.568,-2.5775 -3.852,-3.8687c-0.0755,-0.0656 -0.1209,-0.1615 -0.1712,-0.2422zM18.7032,10.9221c0.0252,-4.2521 -3.4643,-7.77788 -7.7242,-7.8031c-4.24979,-0.02522 -7.80475,3.44004 -7.83496,7.6417c-0.03021,4.4085 3.38375,7.9293 7.73936,7.9646c4.2951,0.0403 7.7947,-3.4552 7.8198,-7.8032z" fill="#1B2437"/>
<path d="M11.7193,10.1201c0.1913,0 0.3575,0 0.5236,0c0.6194,0 1.2387,-0.005 1.8581,0c0.4783,0.0051 0.8308,0.3531 0.8308,0.7919c0,0.4691 -0.3474,0.802 -0.8459,0.802c-0.7755,0.0051 -1.5559,0 -2.3717,0c0,0.1161 0,0.2119 0,0.3128c0,0.7061 0.0051,1.4123 -0.005,2.1134c-0.005,0.4237 -0.282,0.7264 -0.6697,0.7919c-0.3625,0.0606 -0.7352,-0.1513 -0.856,-0.5094c-0.0453,-0.1211 -0.0504,-0.2623 -0.0504,-0.3934c-0.005,-0.6709 0,-1.3418 0,-2.0126c0,-0.0908 0,-0.1816 0,-0.3027c-0.1158,0 -0.20642,0 -0.29705,0c-0.69488,0 -1.38975,0 -2.08463,0c-0.48339,0 -0.8258,-0.3278 -0.83083,-0.7868c-0.00504,-0.459 0.3273,-0.802 0.81069,-0.8121c0.69488,-0.0101 1.38975,-0.0051 2.08463,-0.0051c0.09064,0 0.18128,0 0.30719,0c0.005,-0.1008 0.0151,-0.19164 0.0151,-0.27739c0,-0.7213 -0.0051,-1.4426 0.005,-2.1639c0.005,-0.36821 0.2266,-0.64059 0.569,-0.74147c0.3323,-0.10088 0.6949,0.01513 0.8711,0.32282c0.0856,0.15132 0.1309,0.34804 0.136,0.52458c0.0151,0.68094 0.005,1.35685 0.005,2.03779c-0.005,0.10088 -0.005,0.19167 -0.005,0.30767z" fill="#1B2437"/>
</svg>
