<svg width="24" height="24" viewBox="0 0 24 24" fill="none" xmlns="http://www.w3.org/2000/svg">
<path fill-rule="evenodd" clip-rule="evenodd" d="M17.0265,18.0796c-4.3002,3.5864 -10.25701,2.5977 -13.31346,-1.1601c-3.08667,-3.7881 -2.84497,-9.15998 0.56395,-12.6202c3.3334,-3.3896 8.77661,-3.68719 12.50271,-0.7213c3.9226,3.12227 4.8642,9.2054 1.2891,13.4676c0.026,0.0163 0.0535,0.031 0.0813,0.0458c0.0583,0.0311 0.1177,0.0627 0.1654,0.1106c0.642,0.6405 1.2815,1.2811 1.9209,1.9217c0.6395,0.6406 1.2791,1.2812 1.9211,1.9218c0.2165,0.2169 0.3374,0.459 0.2769,0.7667c-0.0604,0.3178 -0.2517,0.5347 -0.5589,0.6154c-0.3122,0.0858 -0.5891,0 -0.8258,-0.2371c-0.6411,-0.6447 -1.2822,-1.2882 -1.9233,-1.9316l-0.0029,-0.0029c-0.6419,-0.6444 -1.2839,-1.2887 -1.9258,-1.9342c-0.0586,-0.0509 -0.099,-0.1199 -0.1377,-0.186c-0.0111,-0.0191 -0.0222,-0.0381 -0.0335,-0.0562zM12.2429,10.1201h-0.5236c0,-0.116 0,-0.20679 0.005,-0.30767c0,-0.19479 0.0008,-0.38918 0.0016,-0.58338c0.0021,-0.48468 0.0042,-0.96826 -0.0066,-1.45441c-0.0051,-0.17654 -0.0504,-0.37326 -0.136,-0.52458c-0.1762,-0.30769 -0.5388,-0.4237 -0.8711,-0.32282c-0.3424,0.10088 -0.564,0.37326 -0.569,0.74147c-0.0075,0.54106 -0.0066,1.08212 -0.0057,1.62318c0.0004,0.18024 0.0007,0.36048 0.0007,0.54072c0,0.05387 -0.004,0.10973 -0.0082,0.16879c-0.0025,0.035 -0.0051,0.0711 -0.0069,0.1086h-0.30719c-0.1737,0 -0.34741,-0.0003 -0.52111,-0.0006c-0.52117,-0.0009 -1.04234,-0.0019 -1.56352,0.0057c-0.48339,0.0101 -0.81573,0.3531 -0.81069,0.8121c0.00503,0.459 0.34744,0.7868 0.83083,0.7868h2.08463h0.29705v0.3027c0,0.2236 -0.0005,0.4472 -0.0011,0.6708c-0.0011,0.4473 -0.0022,0.8945 0.0011,1.3418c0,0.1311 0.0051,0.2723 0.0504,0.3934c0.1208,0.3581 0.4935,0.57 0.856,0.5094c0.3877,-0.0655 0.6647,-0.3682 0.6697,-0.7919c0.0076,-0.5256 0.0066,-1.0541 0.0057,-1.5833c-0.0004,-0.1767 -0.0007,-0.3534 -0.0007,-0.5301v-0.3128c0.2748,0 0.5456,0.0006 0.8135,0.0012c0.5275,0.0011 1.0439,0.0022 1.5582,-0.0012c0.4985,0 0.8459,-0.3329 0.8459,-0.802c0,-0.4388 -0.3525,-0.7868 -0.8308,-0.7919c-0.4129,-0.0033 -0.8258,-0.0022 -1.2387,-0.0011c-0.2065,0.0006 -0.4129,0.0011 -0.6194,0.0011z" fill="#1B2437"/>
</svg>
