<svg width="1920" height="929" viewBox="0 0 1920 929" fill="none" xmlns="http://www.w3.org/2000/svg">
<g clip-path="url(#clip0_2297_6027)">
<path fill-rule="evenodd" clip-rule="evenodd" d="M1744.58 -372.97C1745.92 -330.016 1681.63 -255.328 1654.2 -203.346C1700.48 -155.513 1753.3 -60.0007 1767.12 90.3751C1783.06 262.113 1863.34 451.177 1834.99 553.72C1808.03 650.769 1644.33 714.969 1575.12 610.198C1655.2 338.876 1336.56 396.698 1304.03 203.368C1215.38 313.903 1336.6 398.311 1394.37 463.28C1474.14 552.952 1557.53 646.735 1563.83 813.593C1574.31 1090.22 1415.45 1311.48 1247.53 1469C1221.87 1456.97 1243.23 1397.92 1236.2 1367.26C1064.59 985.715 471.787 920.747 535.814 316.362C569.652 -3.1007 849.767 -310.422 1191.03 -339.045C1244.49 -343.579 1309.29 -319.297 1360.49 -327.673C1455.36 -343.31 1495 -432.329 1608.99 -452C1654.78 -444.431 1582.72 -377.849 1586.37 -339.045C1611.49 -333.167 1699.64 -361.06 1744.54 -372.97H1744.58Z" fill="white" fill-opacity="0.04"/>
<circle cx="66" cy="292" r="326" fill="url(#paint0_radial_2297_6027)" fill-opacity="0.6"/>
<circle cx="1942" cy="603" r="326" fill="url(#paint1_radial_2297_6027)" fill-opacity="0.6"/>
<circle cx="343.5" cy="564.5" r="307.5" fill="url(#paint2_radial_2297_6027)" fill-opacity="0.4"/>
</g>
<defs>
<radialGradient id="paint0_radial_2297_6027" cx="0" cy="0" r="1" gradientUnits="userSpaceOnUse" gradientTransform="translate(66 292) rotate(90) scale(326)">
<stop stop-color="#7C1138"/>
<stop offset="1" stop-color="#7C1138" stop-opacity="0"/>
</radialGradient>
<radialGradient id="paint1_radial_2297_6027" cx="0" cy="0" r="1" gradientUnits="userSpaceOnUse" gradientTransform="translate(1942 603) rotate(90) scale(326)">
<stop stop-color="#7C1138"/>
<stop offset="1" stop-color="#7C1138" stop-opacity="0"/>
</radialGradient>
<radialGradient id="paint2_radial_2297_6027" cx="0" cy="0" r="1" gradientUnits="userSpaceOnUse" gradientTransform="translate(343.5 564.5) rotate(90) scale(307.5)">
<stop stop-color="#2F66B7"/>
<stop offset="1" stop-color="#25487B" stop-opacity="0"/>
</radialGradient>
<clipPath id="clip0_2297_6027">
<rect width="1920" height="929" fill="white"/>
</clipPath>
</defs>
</svg>
