<svg width="182" height="152" viewBox="0 0 182 152" fill="none" xmlns="http://www.w3.org/2000/svg">
<path d="M158.041 97.7938V85.926C158.041 84.8789 157.625 83.8747 156.884 83.1344C156.144 82.394 155.14 81.978 154.093 81.978H47.4022C46.8832 81.9772 46.3692 82.0788 45.8895 82.2768C45.4098 82.4749 44.9739 82.7656 44.6067 83.1322C44.2395 83.4989 43.9481 83.9344 43.7493 84.4138C43.5506 84.8932 43.4482 85.407 43.4482 85.926V97.7938C45.419 97.7542 47.3779 98.1082 49.2102 98.8351C51.0424 99.562 52.7113 100.647 54.1191 102.027C55.5268 103.407 56.6451 105.053 57.4086 106.871C58.1721 108.688 58.5653 110.639 58.5653 112.611C58.5653 114.582 58.1721 116.533 57.4086 118.35C56.6451 120.168 55.5268 121.815 54.1191 123.194C52.7113 124.574 51.0424 125.659 49.2102 126.386C47.3779 127.113 45.419 127.467 43.4482 127.427V137.309C43.4482 138.881 44.0728 140.389 45.1845 141.501C46.2962 142.613 47.804 143.237 49.3762 143.237H152.113C153.685 143.237 155.193 142.613 156.305 141.501C157.416 140.389 158.041 138.881 158.041 137.309V127.415C154.163 127.338 150.469 125.742 147.754 122.972C145.039 120.202 143.518 116.478 143.518 112.599C143.518 108.72 145.039 104.995 147.754 102.225C150.469 99.4549 154.163 97.8596 158.041 97.7818V97.7938Z" fill="#E4E9EA"/>
<path d="M100.908 151.3C137.32 151.3 166.837 147.973 166.837 143.869C166.837 139.765 137.32 136.439 100.908 136.439C64.4968 136.439 34.9795 139.765 34.9795 143.869C34.9795 147.973 64.4968 151.3 100.908 151.3Z" fill="#E4E9EA"/>
<path d="M175.258 58.8984C175.038 58.8984 174.827 58.8111 174.671 58.6556C174.516 58.5002 174.429 58.2893 174.429 58.0695V47.6986C174.429 47.4787 174.516 47.2679 174.671 47.1124C174.827 46.957 175.038 46.8696 175.258 46.8696C175.478 46.8696 175.688 46.957 175.844 47.1124C175.999 47.2679 176.087 47.4787 176.087 47.6986V58.0814C176.083 58.2992 175.995 58.507 175.84 58.6599C175.685 58.8127 175.475 58.8984 175.258 58.8984Z" fill="#9AA7A6"/>
<path d="M180.446 53.7101H170.064C169.948 53.7198 169.832 53.7056 169.723 53.6682C169.614 53.6308 169.513 53.5711 169.428 53.4929C169.343 53.4147 169.275 53.3197 169.229 53.2139C169.182 53.108 169.158 52.9937 169.158 52.8781C169.158 52.7625 169.182 52.6482 169.229 52.5424C169.275 52.4366 169.343 52.3415 169.428 52.2633C169.513 52.1851 169.614 52.1254 169.723 52.0881C169.832 52.0507 169.948 52.0364 170.064 52.0462H180.44C180.556 52.0364 180.672 52.0507 180.781 52.0881C180.89 52.1254 180.991 52.1851 181.076 52.2633C181.161 52.3415 181.229 52.4366 181.275 52.5424C181.322 52.6482 181.346 52.7625 181.346 52.8781C181.346 52.9937 181.322 53.108 181.275 53.2139C181.229 53.3197 181.161 53.4147 181.076 53.4929C180.991 53.5711 180.89 53.6308 180.781 53.6682C180.672 53.7056 180.556 53.7198 180.44 53.7101H180.446Z" fill="#9AA7A6"/>
<path d="M33.4354 120.062C33.2155 120.062 33.0047 119.975 32.8492 119.819C32.6938 119.664 32.6064 119.453 32.6064 119.233V108.85C32.6064 108.631 32.6938 108.42 32.8492 108.264C33.0047 108.109 33.2155 108.021 33.4354 108.021C33.6553 108.021 33.8661 108.109 34.0216 108.264C34.177 108.42 34.2644 108.631 34.2644 108.85V119.263C34.2566 119.478 34.1659 119.681 34.0113 119.83C33.8566 119.979 33.6502 120.062 33.4354 120.062Z" fill="#9AA7A6"/>
<path d="M38.6231 114.874H28.2462C28.1311 114.884 28.0151 114.869 27.9058 114.832C27.7964 114.795 27.696 114.735 27.6108 114.657C27.5257 114.578 27.4578 114.483 27.4113 114.378C27.3648 114.272 27.3408 114.157 27.3408 114.042C27.3408 113.926 27.3648 113.812 27.4113 113.706C27.4578 113.6 27.5257 113.505 27.6108 113.427C27.696 113.349 27.7964 113.289 27.9058 113.252C28.0151 113.214 28.1311 113.2 28.2462 113.21H38.6231C38.7383 113.2 38.8542 113.214 38.9636 113.252C39.073 113.289 39.1734 113.349 39.2585 113.427C39.3436 113.505 39.4115 113.6 39.458 113.706C39.5045 113.812 39.5285 113.926 39.5285 114.042C39.5285 114.157 39.5045 114.272 39.458 114.378C39.4115 114.483 39.3436 114.578 39.2585 114.657C39.1734 114.735 39.073 114.795 38.9636 114.832C38.8542 114.869 38.7383 114.884 38.6231 114.874Z" fill="#9AA7A6"/>
<path d="M18.5201 46.3151C18.3778 46.3151 18.2413 46.2585 18.1406 46.1579C18.0399 46.0572 17.9834 45.9207 17.9834 45.7783V41.4964C17.9834 41.354 18.0399 41.2175 18.1406 41.1169C18.2413 41.0162 18.3778 40.9597 18.5201 40.9597C18.6625 40.9597 18.799 41.0162 18.8997 41.1169C19.0003 41.2175 19.0569 41.354 19.0569 41.4964V45.7783C19.0553 45.9202 18.9983 46.0558 18.8979 46.1561C18.7976 46.2565 18.662 46.3135 18.5201 46.3151Z" fill="#9AA7A6"/>
<path d="M20.6605 44.1742H16.3785C16.2362 44.1742 16.0997 44.1176 15.999 44.017C15.8983 43.9163 15.8418 43.7798 15.8418 43.6374C15.8418 43.4951 15.8983 43.3586 15.999 43.2579C16.0997 43.1573 16.2362 43.1007 16.3785 43.1007H20.6605C20.8028 43.1007 20.9393 43.1573 21.04 43.2579C21.1407 43.3586 21.1972 43.4951 21.1972 43.6374C21.1972 43.7798 21.1407 43.9163 21.04 44.017C20.9393 44.1176 20.8028 44.1742 20.6605 44.1742Z" fill="#9AA7A6"/>
<path d="M174.721 103.28C174.579 103.28 174.442 103.224 174.342 103.123C174.241 103.023 174.185 102.886 174.185 102.744V98.4617C174.185 98.3194 174.241 98.1829 174.342 98.0822C174.442 97.9815 174.579 97.925 174.721 97.925C174.864 97.925 175 97.9815 175.101 98.0822C175.201 98.1829 175.258 98.3194 175.258 98.4617V102.744C175.258 102.886 175.201 103.023 175.101 103.123C175 103.224 174.864 103.28 174.721 103.28Z" fill="#9AA7A6"/>
<path d="M176.862 101.139H172.58C172.437 101.139 172.301 101.083 172.2 100.982C172.1 100.882 172.043 100.745 172.043 100.603C172.043 100.46 172.1 100.324 172.2 100.223C172.301 100.123 172.437 100.066 172.58 100.066H176.862C177.004 100.066 177.141 100.123 177.241 100.223C177.342 100.324 177.398 100.46 177.398 100.603C177.398 100.745 177.342 100.882 177.241 100.982C177.141 101.083 177.004 101.139 176.862 101.139Z" fill="#9AA7A6"/>
<path d="M108.637 13.5565C107.737 13.5565 106.857 13.2895 106.109 12.7892C105.36 12.2889 104.777 11.5779 104.433 10.7461C104.089 9.91432 103.999 8.9991 104.175 8.11626C104.351 7.23343 104.785 6.42265 105.422 5.78652C106.059 5.15038 106.87 4.71748 107.753 4.54258C108.636 4.36768 109.551 4.45864 110.383 4.80396C111.214 5.14927 111.924 5.73343 112.424 6.4825C112.923 7.23158 113.189 8.11193 113.188 9.01215C113.186 10.2179 112.706 11.3738 111.853 12.2258C110.999 13.0779 109.843 13.5565 108.637 13.5565ZM108.637 5.05821C107.855 5.05821 107.091 5.2901 106.441 5.72457C105.79 6.15903 105.284 6.77655 104.984 7.49903C104.685 8.22152 104.607 9.01653 104.759 9.78351C104.912 10.5505 105.288 11.255 105.841 11.808C106.394 12.361 107.099 12.7375 107.866 12.8901C108.633 13.0427 109.428 12.9644 110.15 12.6651C110.873 12.3658 111.49 11.8591 111.925 11.2088C112.359 10.5586 112.591 9.79416 112.591 9.01215C112.591 7.9635 112.175 6.95779 111.433 6.21629C110.692 5.47478 109.686 5.05821 108.637 5.05821Z" fill="#9AA7A6"/>
<path d="M112.896 6.21521C112.846 6.21476 112.798 6.20263 112.755 6.17982C112.711 6.15701 112.673 6.12416 112.645 6.08401C112.602 6.01733 112.586 5.93627 112.602 5.85823C112.617 5.78018 112.663 5.71137 112.729 5.66655C113.725 4.9948 114.756 4.37572 115.818 3.81184C115.888 3.77467 115.97 3.76697 116.046 3.79046C116.123 3.81395 116.186 3.86668 116.223 3.93707C116.26 4.00745 116.268 4.08972 116.245 4.16578C116.221 4.24183 116.168 4.30544 116.098 4.34261C115.055 4.88483 114.042 5.48204 113.063 6.13172C113.017 6.17636 112.959 6.20557 112.896 6.21521Z" fill="#9AA7A6"/>
<path d="M162.68 23.0388C162.618 23.0392 162.557 23.0198 162.507 22.9833C162.456 22.9469 162.419 22.8952 162.4 22.836C161.64 20.5977 160.64 18.4482 159.418 16.425C159.398 16.3914 159.384 16.354 159.378 16.3151C159.372 16.2762 159.374 16.2364 159.383 16.1981C159.392 16.1599 159.409 16.1239 159.433 16.0922C159.456 16.0605 159.486 16.0338 159.519 16.0135C159.588 15.9751 159.669 15.9641 159.745 15.983C159.822 16.0018 159.888 16.049 159.931 16.1149C161.174 18.1853 162.188 20.385 162.955 22.675C162.979 22.7493 162.974 22.8304 162.939 22.9008C162.905 22.9711 162.844 23.0249 162.77 23.0507C162.739 23.0518 162.709 23.0478 162.68 23.0388ZM155.357 10.8967C155.275 10.8943 155.198 10.86 155.142 10.8013C153.522 9.08657 151.723 7.55103 149.775 6.22114C149.71 6.1754 149.666 6.10616 149.651 6.02817C149.637 5.95019 149.653 5.86963 149.697 5.80368C149.744 5.74009 149.813 5.69667 149.891 5.68227C149.968 5.66787 150.048 5.68355 150.115 5.72615C152.101 7.08296 153.938 8.64621 155.595 10.3898C155.623 10.4175 155.645 10.4505 155.661 10.4868C155.676 10.5231 155.684 10.5621 155.684 10.6015C155.684 10.6408 155.676 10.6798 155.661 10.7162C155.645 10.7525 155.623 10.7855 155.595 10.8132C155.564 10.8431 155.526 10.866 155.485 10.8803C155.444 10.8947 155.4 10.9003 155.357 10.8967ZM143.626 2.92321C143.591 2.93158 143.554 2.93158 143.519 2.92321C141.324 2.04553 139.041 1.40963 136.708 1.02676C136.669 1.02179 136.632 1.00885 136.598 0.988756C136.564 0.968662 136.535 0.941837 136.512 0.909951C136.489 0.878066 136.473 0.841805 136.465 0.803419C136.456 0.765033 136.456 0.725341 136.464 0.686822C136.47 0.648221 136.483 0.611169 136.503 0.577851C136.524 0.544533 136.55 0.515622 136.582 0.492831C136.614 0.47004 136.65 0.453834 136.688 0.445156C136.726 0.436479 136.765 0.435506 136.804 0.442308C139.179 0.833422 141.504 1.4813 143.739 2.37455C143.776 2.38901 143.809 2.41052 143.837 2.43783C143.865 2.46515 143.888 2.49774 143.903 2.53374C143.919 2.56975 143.927 2.60846 143.928 2.64766C143.928 2.68686 143.921 2.72577 143.906 2.76219C143.88 2.81266 143.839 2.85454 143.79 2.88303C143.74 2.91151 143.683 2.92543 143.626 2.92321ZM122.592 1.73047C122.526 1.73042 122.462 1.70886 122.409 1.66905C122.356 1.62924 122.318 1.57334 122.3 1.50982C122.28 1.43391 122.291 1.35313 122.33 1.28502C122.369 1.21691 122.433 1.16697 122.509 1.14603C124.831 0.511361 127.214 0.127491 129.617 0.00100006C129.657 -0.0022715 129.696 0.00250297 129.733 0.0150412C129.77 0.0275794 129.804 0.0476131 129.833 0.0738901C129.862 0.100167 129.886 0.132134 129.902 0.16781C129.918 0.203486 129.927 0.242113 129.928 0.281295C129.931 0.320642 129.926 0.360242 129.914 0.397701C129.901 0.435159 129.881 0.469697 129.855 0.499237C129.829 0.528777 129.797 0.552704 129.761 0.56957C129.725 0.586436 129.687 0.595893 129.647 0.59737C127.288 0.718344 124.948 1.09425 122.67 1.71854C122.65 1.74482 122.623 1.76537 122.592 1.77818V1.73047Z" fill="#9AA7A6"/>
<path d="M164.41 33.6125C164.331 33.6125 164.255 33.581 164.199 33.5251C164.143 33.4692 164.111 33.3934 164.111 33.3143C164.111 32.1309 164.047 30.9484 163.921 29.7718C163.912 29.6936 163.935 29.6152 163.984 29.5538C164.033 29.4924 164.105 29.4528 164.183 29.4438C164.261 29.4355 164.34 29.4583 164.401 29.5075C164.463 29.5566 164.502 29.6281 164.511 29.7062C164.641 30.8945 164.707 32.089 164.708 33.2845C164.712 33.3261 164.707 33.3681 164.694 33.4077C164.681 33.4474 164.66 33.4839 164.632 33.5149C164.604 33.5458 164.569 33.5705 164.531 33.5873C164.493 33.6041 164.451 33.6127 164.41 33.6125Z" fill="#9AA7A6"/>
<path d="M53.8546 151.998C52.6619 151.998 51.4691 151.956 50.2764 151.879C50.2367 151.876 50.1978 151.866 50.1621 151.849C50.1264 151.831 50.0945 151.807 50.0684 151.777C50.0423 151.747 50.0224 151.712 50.01 151.674C49.9976 151.636 49.9929 151.596 49.9961 151.557C50.0022 151.478 50.0388 151.406 50.0979 151.355C50.1571 151.303 50.234 151.277 50.3122 151.282C51.5049 151.36 52.6977 151.401 53.8904 151.401C53.9695 151.401 54.0453 151.433 54.1013 151.489C54.1572 151.545 54.1886 151.621 54.1886 151.7C54.1889 151.742 54.1802 151.784 54.163 151.823C54.1458 151.861 54.1206 151.896 54.089 151.924C54.0574 151.952 54.0202 151.974 53.9798 151.986C53.9393 151.999 53.8967 152.003 53.8546 151.998Z" fill="#9AA7A6"/>
<path d="M42.7861 150.835H42.7264C40.2435 150.306 37.8019 149.598 35.4209 148.718C35.3802 148.708 35.3421 148.689 35.3092 148.663C35.2762 148.637 35.2491 148.604 35.2297 148.567C35.2102 148.53 35.1988 148.489 35.1963 148.447C35.1937 148.405 35.2001 148.363 35.2149 148.324C35.2296 148.284 35.2526 148.249 35.2821 148.219C35.3116 148.189 35.3472 148.166 35.3863 148.151C35.4255 148.135 35.4674 148.129 35.5093 148.131C35.5512 148.133 35.5922 148.144 35.6296 148.163C37.9836 149.032 40.3972 149.73 42.8517 150.25C42.9307 150.259 43.0031 150.299 43.0529 150.361C43.1027 150.423 43.1257 150.502 43.117 150.581C43.1083 150.661 43.0686 150.733 43.0065 150.783C42.9444 150.832 42.8651 150.856 42.7861 150.847V150.835ZM28.6402 145.611C28.5921 145.611 28.5448 145.599 28.503 145.575C26.2727 144.364 24.1321 142.995 22.098 141.478C22.0347 141.43 21.9929 141.36 21.9817 141.282C21.9705 141.203 21.9909 141.124 22.0383 141.06C22.0858 140.997 22.1564 140.955 22.2347 140.944C22.313 140.933 22.3925 140.953 22.4558 141.001C24.4655 142.5 26.5801 143.853 28.7833 145.05C28.8184 145.068 28.8495 145.093 28.8746 145.124C28.8998 145.154 28.9185 145.189 28.9297 145.227C28.9408 145.265 28.9442 145.305 28.9395 145.344C28.9348 145.384 28.9223 145.421 28.9026 145.456C28.8763 145.502 28.8383 145.541 28.7922 145.568C28.7461 145.596 28.6937 145.61 28.6402 145.611ZM16.5577 136.6C16.4771 136.599 16.3999 136.567 16.343 136.51C14.5461 134.722 12.8781 132.809 11.3514 130.785C11.3279 130.754 11.3108 130.718 11.3011 130.68C11.2914 130.642 11.2892 130.603 11.2947 130.564C11.3003 130.525 11.3134 130.488 11.3334 130.454C11.3533 130.42 11.3797 130.391 11.411 130.367C11.4424 130.344 11.478 130.327 11.5159 130.317C11.5539 130.307 11.5933 130.305 11.6321 130.311C11.6709 130.316 11.7082 130.33 11.7419 130.349C11.7756 130.369 11.805 130.396 11.8285 130.427C13.3403 132.429 14.9903 134.322 16.7664 136.093C16.8073 136.134 16.835 136.187 16.8462 136.244C16.8574 136.302 16.8515 136.361 16.8292 136.415C16.807 136.469 16.7694 136.515 16.7212 136.548C16.6729 136.581 16.6161 136.599 16.5577 136.6ZM7.48691 124.559C7.43386 124.56 7.38158 124.546 7.33545 124.52C7.28933 124.494 7.25103 124.456 7.22451 124.41C6.00459 122.186 4.94436 119.878 4.05182 117.504C4.03755 117.467 4.03071 117.429 4.03171 117.39C4.03272 117.35 4.04154 117.312 4.05766 117.276C4.07379 117.241 4.09688 117.209 4.12559 117.182C4.15429 117.156 4.18801 117.135 4.22476 117.122C4.26155 117.108 4.30082 117.101 4.3403 117.102C4.37978 117.103 4.41867 117.111 4.45474 117.128C4.4908 117.144 4.52331 117.167 4.55038 117.196C4.57744 117.224 4.59853 117.258 4.61241 117.295C5.49302 119.642 6.54136 121.922 7.74931 124.118C7.78589 124.187 7.79389 124.269 7.77164 124.344C7.74938 124.42 7.69862 124.484 7.63004 124.523C7.58582 124.546 7.53677 124.558 7.48691 124.559ZM2.19114 110.455C2.12323 110.455 2.05725 110.432 2.00411 110.39C1.95097 110.348 1.91387 110.288 1.89892 110.222C1.36102 107.744 0.998324 105.231 0.813527 102.702C0.810266 102.663 0.814789 102.623 0.826831 102.586C0.838873 102.548 0.858199 102.514 0.883696 102.484C0.909193 102.454 0.940357 102.429 0.975396 102.411C1.01043 102.394 1.04866 102.383 1.08786 102.38C1.16665 102.375 1.24429 102.401 1.30438 102.452C1.36448 102.503 1.40232 102.576 1.4099 102.654C1.58986 105.156 1.9486 107.641 2.48337 110.091C2.49216 110.129 2.49326 110.169 2.48661 110.208C2.47996 110.247 2.4657 110.284 2.44463 110.317C2.42356 110.35 2.3961 110.379 2.36386 110.402C2.33161 110.424 2.2952 110.44 2.25674 110.449L2.19114 110.455ZM1.09978 95.4083C1.06006 95.406 1.0212 95.3959 0.985469 95.3783C0.949743 95.3608 0.917879 95.3364 0.891759 95.3063C0.865638 95.2763 0.845794 95.2414 0.833383 95.2036C0.820972 95.1658 0.81625 95.1259 0.819497 95.0862C0.99629 92.5593 1.35302 90.0482 1.88699 87.572C1.90548 87.4951 1.95318 87.4285 2.01998 87.3862C2.08678 87.3438 2.16742 87.3292 2.24482 87.3454C2.28328 87.3538 2.31968 87.3698 2.35193 87.3924C2.38417 87.415 2.41163 87.4438 2.4327 87.477C2.45377 87.5103 2.46803 87.5474 2.47468 87.5862C2.48133 87.6251 2.48023 87.6648 2.47144 87.7032C1.94497 90.1539 1.59421 92.6392 1.42183 95.1399C1.41426 95.218 1.37621 95.29 1.31592 95.3402C1.25564 95.3905 1.17797 95.4149 1.09978 95.4083ZM4.27248 80.6839C4.23926 80.6928 4.20431 80.6928 4.17109 80.6839C4.09678 80.657 4.03618 80.6017 4.00264 80.5301C3.96909 80.4585 3.96533 80.3766 3.99218 80.3022C4.87648 77.9101 5.93077 75.5843 7.14698 73.3426C7.1651 73.3075 7.19014 73.2764 7.2206 73.2512C7.25107 73.2261 7.28632 73.2074 7.32423 73.1962C7.36214 73.1851 7.40191 73.1817 7.44115 73.1864C7.48038 73.191 7.51827 73.2036 7.55251 73.2233C7.58704 73.242 7.61753 73.2674 7.64223 73.2979C7.66692 73.3285 7.68534 73.3636 7.69643 73.4013C7.70751 73.439 7.71104 73.4785 7.70681 73.5175C7.70258 73.5566 7.69067 73.5944 7.67178 73.6289C6.46801 75.8408 5.42563 78.1368 4.55277 80.499C4.52936 80.554 4.49029 80.6008 4.44045 80.6337C4.39061 80.6665 4.33218 80.684 4.27248 80.6839Z" fill="#9AA7A6"/>
<path d="M11.5121 67.4326C11.4478 67.4311 11.3855 67.4103 11.3331 67.373C11.3018 67.3495 11.2754 67.3201 11.2555 67.2864C11.2355 67.2527 11.2224 67.2154 11.2169 67.1766C11.2113 67.1379 11.2135 67.0984 11.2232 67.0604C11.2329 67.0225 11.25 66.9869 11.2735 66.9555C11.9832 66.0013 12.7406 65.0591 13.5218 64.1526C13.5473 64.1228 13.5783 64.0984 13.6132 64.0806C13.6481 64.0629 13.6862 64.0522 13.7252 64.0491C13.7643 64.0461 13.8036 64.0508 13.8408 64.0629C13.878 64.075 13.9125 64.0943 13.9423 64.1198C13.972 64.1453 13.9965 64.1763 14.0142 64.2112C14.032 64.2461 14.0427 64.2842 14.0457 64.3232C14.0488 64.3623 14.0441 64.4015 14.032 64.4388C14.0199 64.476 14.0005 64.5105 13.9751 64.5402C13.2057 65.4348 12.4543 66.3711 11.7506 67.3134C11.7225 67.3501 11.6864 67.3799 11.6451 67.4005C11.6038 67.4212 11.5583 67.4322 11.5121 67.4326Z" fill="#9AA7A6"/>
<path d="M156.264 83.2901C156.082 83.2904 155.905 83.2355 155.755 83.1327C155.606 83.0299 155.491 82.884 155.426 82.7145C155.362 82.545 155.35 82.3599 155.393 82.1836C155.436 82.0073 155.532 81.8483 155.667 81.7276C156.418 81.0571 156.915 80.149 157.075 79.1556C157.236 78.1622 157.05 77.1437 156.55 76.2708L152.59 69.4185C149.385 71.0087 145.694 71.318 142.269 70.2833C138.844 69.2487 135.942 66.948 134.153 63.8492C132.364 60.7505 131.824 57.0867 132.641 53.6033C133.458 50.1199 135.571 47.0787 138.551 45.0986L133.715 36.7494C133.544 36.4506 133.315 36.1887 133.042 35.9786C132.769 35.7685 132.458 35.6144 132.125 35.5252C131.793 35.4359 131.446 35.4133 131.105 35.4586C130.763 35.504 130.434 35.6163 130.137 35.7892L48.7618 82.7474C48.6602 82.8159 48.5455 82.8629 48.4249 82.8852C48.3044 82.9076 48.1805 82.9049 48.061 82.8774C47.9415 82.8499 47.829 82.7981 47.7303 82.7253C47.6317 82.6525 47.5491 82.5601 47.4876 82.454C47.4262 82.3479 47.3872 82.2303 47.3731 82.1085C47.359 81.9867 47.3701 81.8633 47.4057 81.746C47.4413 81.6286 47.5007 81.5199 47.5801 81.4264C47.6595 81.333 47.7572 81.2569 47.8673 81.2028L129.248 34.2148C130.261 33.6332 131.463 33.4767 132.591 33.7796C133.718 34.0825 134.68 34.8202 135.265 35.831L140.537 44.9554C140.655 45.1616 140.687 45.4057 140.627 45.6353C140.562 45.8627 140.412 46.0567 140.209 46.178C137.455 47.8385 135.462 50.5132 134.659 53.6273C133.856 56.7414 134.307 60.0462 135.914 62.8316C137.522 65.6171 140.158 67.6606 143.256 68.5232C146.354 69.3858 149.667 68.9985 152.483 67.4445C152.584 67.3849 152.697 67.3461 152.813 67.3304C152.93 67.3146 153.049 67.3222 153.162 67.3527C153.276 67.3833 153.383 67.4361 153.476 67.5082C153.569 67.5802 153.647 67.6701 153.705 67.7726L158.1 75.3763C158.805 76.6064 159.066 78.0413 158.839 79.4407C158.612 80.8401 157.911 82.1191 156.854 83.0635C156.691 83.2084 156.481 83.289 156.264 83.2901Z" fill="#9AA6A5"/>
<path d="M152.113 144.12H49.3762C47.5672 144.118 45.8328 143.399 44.5537 142.12C43.2746 140.841 42.5553 139.106 42.5537 137.297V127.415C42.5537 127.178 42.648 126.951 42.8157 126.783C42.9835 126.615 43.211 126.521 43.4483 126.521C45.3008 126.559 47.1424 126.228 48.8651 125.545C50.5878 124.863 52.1569 123.843 53.4806 122.547C54.8044 121.25 55.856 119.702 56.5739 117.994C57.2919 116.286 57.6617 114.452 57.6617 112.599C57.6617 110.746 57.2919 108.911 56.5739 107.203C55.856 105.495 54.8044 103.947 53.4806 102.651C52.1569 101.354 50.5878 100.335 48.8651 99.6523C47.1424 98.9698 45.3008 98.6381 43.4483 98.6764C43.211 98.6764 42.9835 98.5822 42.8157 98.4144C42.648 98.2466 42.5537 98.0191 42.5537 97.7819V85.926C42.5553 84.6412 43.0668 83.4095 43.9759 82.5015C44.885 81.5935 46.1173 81.0835 47.4022 81.0835H154.093C155.377 81.0851 156.607 81.5958 157.515 82.5036C158.423 83.4114 158.934 84.6422 158.935 85.926V97.7938C158.935 98.031 158.841 98.2586 158.673 98.4263C158.506 98.5941 158.278 98.6883 158.041 98.6883C154.398 98.7637 150.93 100.264 148.381 102.866C145.832 105.469 144.404 108.967 144.404 112.611C144.404 116.254 145.832 119.752 148.381 122.355C150.93 124.958 154.398 126.457 158.041 126.533C158.278 126.533 158.506 126.627 158.673 126.795C158.841 126.963 158.935 127.19 158.935 127.427V137.309C158.931 139.116 158.21 140.847 156.931 142.124C155.652 143.401 153.92 144.118 152.113 144.12ZM44.3428 128.286V137.297C44.3444 138.632 44.8752 139.911 45.8188 140.855C46.7624 141.798 48.0417 142.329 49.3762 142.331H152.113C153.447 142.329 154.727 141.798 155.67 140.855C156.614 139.911 157.145 138.632 157.146 137.297V128.286C153.144 128.052 149.383 126.297 146.633 123.381C143.882 120.465 142.35 116.607 142.35 112.599C142.35 108.59 143.882 104.733 146.633 101.816C149.383 98.9001 153.144 97.1453 157.146 96.9111V85.926C157.145 85.1167 156.822 84.341 156.25 83.7687C155.678 83.1964 154.902 82.8742 154.093 82.8726H47.4022C46.5918 82.8726 45.8146 83.1941 45.241 83.7666C44.6674 84.339 44.3444 85.1157 44.3428 85.926V96.9111C48.3448 97.1453 52.1059 98.9001 54.8565 101.816C57.6071 104.733 59.1392 108.59 59.1392 112.599C59.1392 116.607 57.6071 120.465 54.8565 123.381C52.1059 126.297 48.3448 128.052 44.3428 128.286Z" fill="#9AA6A5"/>
<path d="M104.696 108.528C103.346 108.528 102.027 108.128 100.905 107.378C99.7825 106.628 98.908 105.562 98.3918 104.315C97.8756 103.068 97.7409 101.696 98.0046 100.373C98.2683 99.0491 98.9187 97.8335 99.8734 96.8796C100.828 95.9257 102.044 95.2764 103.368 95.0138C104.692 94.7512 106.064 94.8872 107.311 95.4045C108.557 95.9218 109.622 96.7971 110.371 97.9199C111.12 99.0426 111.519 100.362 111.518 101.712C111.515 103.52 110.795 105.253 109.516 106.53C108.237 107.808 106.503 108.527 104.696 108.528ZM104.696 96.6785C103.7 96.6785 102.727 96.9737 101.899 97.5268C101.071 98.0799 100.426 98.866 100.045 99.7857C99.6643 100.705 99.5647 101.717 99.7589 102.694C99.9531 103.67 100.432 104.567 101.136 105.271C101.84 105.975 102.737 106.454 103.714 106.649C104.69 106.843 105.702 106.743 106.622 106.362C107.541 105.981 108.328 105.336 108.881 104.508C109.434 103.681 109.729 102.707 109.729 101.712C109.721 100.382 109.187 99.1083 108.245 98.1699C107.302 97.2314 106.026 96.7039 104.696 96.7024V96.6785Z" fill="#9AA6A5"/>
<path d="M128.406 132.264C127.057 132.264 125.738 131.864 124.616 131.114C123.494 130.364 122.62 129.299 122.103 128.052C121.587 126.806 121.452 125.434 121.715 124.11C121.978 122.787 122.628 121.571 123.582 120.617C124.536 119.663 125.752 119.013 127.075 118.75C128.399 118.487 129.771 118.622 131.017 119.138C132.264 119.655 133.329 120.529 134.079 121.651C134.829 122.773 135.229 124.092 135.229 125.441C135.227 127.25 134.508 128.985 133.229 130.264C131.95 131.543 130.215 132.262 128.406 132.264ZM128.406 120.408C127.411 120.408 126.438 120.703 125.61 121.256C124.782 121.809 124.137 122.596 123.756 123.515C123.375 124.435 123.276 125.447 123.47 126.423C123.664 127.4 124.143 128.297 124.847 129.001C125.551 129.704 126.448 130.184 127.425 130.378C128.401 130.572 129.413 130.473 130.333 130.092C131.252 129.711 132.038 129.066 132.592 128.238C133.145 127.41 133.44 126.437 133.44 125.441C133.438 124.107 132.907 122.828 131.964 121.884C131.02 120.94 129.741 120.41 128.406 120.408Z" fill="#9AA6A5"/>
<path d="M104.677 130.517C104.014 130.522 103.356 130.395 102.742 130.145C102.128 129.894 101.569 129.524 101.099 129.056C100.151 128.106 99.6182 126.819 99.6182 125.477C99.6182 124.135 100.151 122.848 101.099 121.899L101.153 121.851L125.008 98.3186C125.935 97.4251 127.179 96.9342 128.467 96.9529C129.41 96.9708 130.327 97.2635 131.107 97.7952C131.886 98.3269 132.494 99.0744 132.854 99.9461C133.215 100.818 133.314 101.776 133.138 102.703C132.963 103.63 132.521 104.486 131.866 105.165L108.303 129.02C107.829 129.499 107.265 129.878 106.642 130.135C106.019 130.392 105.351 130.522 104.677 130.517ZM102.357 127.767C102.972 128.381 103.806 128.726 104.674 128.726C105.543 128.726 106.376 128.381 106.991 127.767L130.548 103.913C130.957 103.482 131.232 102.942 131.34 102.358C131.448 101.774 131.385 101.172 131.156 100.623C130.928 100.075 130.546 99.605 130.056 99.2699C129.566 98.9349 128.989 98.7494 128.395 98.736C127.993 98.725 127.593 98.7954 127.219 98.943C126.845 99.0906 126.504 99.3123 126.218 99.5948L102.363 123.145L102.316 123.187C101.721 123.804 101.392 124.629 101.4 125.486C101.408 126.342 101.752 127.162 102.357 127.767Z" fill="#9AA6A5"/>
<path d="M82.6888 85.27C82.6097 85.27 82.5339 85.2386 82.478 85.1827C82.422 85.1267 82.3906 85.0509 82.3906 84.9718V81.99C82.3906 81.9109 82.422 81.835 82.478 81.7791C82.5339 81.7232 82.6097 81.6918 82.6888 81.6918C82.7674 81.6933 82.8424 81.7252 82.898 81.7808C82.9536 81.8364 82.9855 81.9114 82.987 81.99V84.9718C82.987 85.0509 82.9556 85.1267 82.8997 85.1827C82.8438 85.2386 82.7679 85.27 82.6888 85.27Z" fill="#9AA6A5"/>
<path d="M82.6888 134.441C82.6097 134.441 82.5339 134.409 82.478 134.353C82.422 134.297 82.3906 134.222 82.3906 134.143V127.994C82.3906 127.915 82.422 127.839 82.478 127.783C82.5339 127.727 82.6097 127.696 82.6888 127.696C82.7674 127.697 82.8424 127.729 82.898 127.785C82.9536 127.84 82.9855 127.915 82.987 127.994V134.172C82.9796 134.246 82.9449 134.315 82.8898 134.364C82.8347 134.414 82.763 134.441 82.6888 134.441ZM82.6888 122.144C82.6097 122.144 82.5339 122.112 82.478 122.056C82.422 122 82.3906 121.924 82.3906 121.845V115.685C82.3906 115.606 82.422 115.53 82.478 115.474C82.5339 115.418 82.6097 115.387 82.6888 115.387C82.7674 115.388 82.8424 115.42 82.898 115.476C82.9536 115.531 82.9855 115.606 82.987 115.685V121.833C82.9886 121.874 82.9821 121.914 82.9678 121.951C82.9535 121.989 82.9319 122.023 82.904 122.052C82.8762 122.081 82.8427 122.104 82.8057 122.12C82.7688 122.136 82.729 122.144 82.6888 122.144ZM82.6888 109.852C82.6097 109.852 82.5339 109.821 82.478 109.765C82.422 109.709 82.3906 109.633 82.3906 109.554V103.406C82.3906 103.327 82.422 103.251 82.478 103.195C82.5339 103.139 82.6097 103.107 82.6888 103.107C82.7679 103.107 82.8438 103.139 82.8997 103.195C82.9556 103.251 82.987 103.327 82.987 103.406V109.554C82.9855 109.633 82.9536 109.708 82.898 109.763C82.8424 109.819 82.7674 109.851 82.6888 109.852ZM82.6888 97.5493C82.6097 97.5493 82.5339 97.5179 82.478 97.4619C82.422 97.406 82.3906 97.3302 82.3906 97.2511V91.1085C82.3906 91.0294 82.422 90.9535 82.478 90.8976C82.5339 90.8417 82.6097 90.8103 82.6888 90.8103C82.7679 90.8103 82.8438 90.8417 82.8997 90.8976C82.9556 90.9535 82.987 91.0294 82.987 91.1085V97.2511C82.987 97.3302 82.9556 97.406 82.8997 97.4619C82.8438 97.5179 82.7679 97.5493 82.6888 97.5493Z" fill="#9AA6A5"/>
<path d="M82.6888 143.571C82.6097 143.571 82.5339 143.54 82.478 143.484C82.422 143.428 82.3906 143.352 82.3906 143.273V140.291C82.3906 140.212 82.422 140.136 82.478 140.08C82.5339 140.024 82.6097 139.993 82.6888 139.993C82.7674 139.994 82.8424 140.026 82.898 140.082C82.9536 140.138 82.9855 140.212 82.987 140.291V143.273C82.987 143.352 82.9556 143.428 82.8997 143.484C82.8438 143.54 82.7679 143.571 82.6888 143.571Z" fill="#9AA6A5"/>
</svg>
