<svg width="191" height="152" viewBox="0 0 191 152" fill="none" xmlns="http://www.w3.org/2000/svg">
<path d="M95.4873 151.876C135.283 151.876 167.543 147.942 167.543 143.089C167.543 138.236 135.283 134.302 95.4873 134.302C55.6921 134.302 23.4316 138.236 23.4316 143.089C23.4316 147.942 55.6921 151.876 95.4873 151.876Z" fill="#E4E9EA"/>
<path d="M182.472 27.3703C182.35 27.3714 182.229 27.3482 182.116 27.3023C182.003 27.2564 181.901 27.1886 181.814 27.1028C181.728 27.017 181.659 26.9149 181.612 26.8024C181.565 26.6899 181.541 26.5693 181.541 26.4475V14.8763C181.529 14.7475 181.544 14.6176 181.586 14.495C181.627 14.3724 181.693 14.2597 181.78 14.1641C181.868 14.0686 181.974 13.9923 182.092 13.94C182.21 13.8878 182.338 13.8608 182.468 13.8608C182.597 13.8608 182.725 13.8878 182.843 13.94C182.962 13.9923 183.068 14.0686 183.155 14.1641C183.242 14.2597 183.309 14.3724 183.35 14.495C183.391 14.6176 183.406 14.7475 183.395 14.8763V26.4475C183.395 26.5686 183.371 26.6886 183.324 26.8006C183.278 26.9126 183.21 27.0143 183.124 27.1C183.039 27.1857 182.937 27.2537 182.825 27.3001C182.713 27.3465 182.593 27.3703 182.472 27.3703Z" fill="#9AA6A5"/>
<path d="M188.251 21.5847H176.687C176.559 21.5965 176.429 21.5813 176.306 21.5401C176.183 21.4989 176.071 21.4326 175.975 21.3454C175.88 21.2582 175.803 21.152 175.751 21.0336C175.699 20.9153 175.672 20.7873 175.672 20.6579C175.672 20.5286 175.699 20.4006 175.751 20.2823C175.803 20.1639 175.88 20.0577 175.975 19.9705C176.071 19.8833 176.183 19.817 176.306 19.7758C176.429 19.7346 176.559 19.7194 176.687 19.7312H188.251C188.38 19.7194 188.509 19.7346 188.632 19.7758C188.755 19.817 188.867 19.8833 188.963 19.9705C189.059 20.0577 189.135 20.1639 189.187 20.2823C189.239 20.4006 189.266 20.5286 189.266 20.6579C189.266 20.7873 189.239 20.9153 189.187 21.0336C189.135 21.152 189.059 21.2582 188.963 21.3454C188.867 21.4326 188.755 21.4989 188.632 21.5401C188.509 21.5813 188.38 21.5965 188.251 21.5847Z" fill="#9AA6A5"/>
<path d="M186.978 39.0887C186.82 39.0887 186.668 39.0258 186.556 38.9138C186.444 38.8018 186.381 38.65 186.381 38.4916V33.7142C186.381 33.5559 186.444 33.404 186.556 33.292C186.668 33.18 186.82 33.1171 186.978 33.1171C187.136 33.1171 187.288 33.18 187.4 33.292C187.512 33.404 187.575 33.5559 187.575 33.7142V38.4916C187.573 38.6493 187.51 38.8001 187.398 38.9116C187.287 39.0232 187.136 39.0867 186.978 39.0887Z" fill="#9AA6A5"/>
<path d="M189.367 36.7001H184.589C184.431 36.7001 184.279 36.6372 184.167 36.5252C184.055 36.4132 183.992 36.2613 183.992 36.103C183.992 35.9446 184.055 35.7927 184.167 35.6807C184.279 35.5687 184.431 35.5058 184.589 35.5058H189.367C189.525 35.5058 189.677 35.5687 189.789 35.6807C189.901 35.7927 189.964 35.9446 189.964 36.103C189.964 36.2613 189.901 36.4132 189.789 36.5252C189.677 36.6372 189.525 36.7001 189.367 36.7001Z" fill="#9AA6A5"/>
<path d="M111.308 5.91105C111.149 5.90901 110.997 5.84438 110.885 5.73115C110.774 5.61793 110.711 5.46523 110.711 5.30613V0.536546C110.728 0.388904 110.798 0.252606 110.909 0.153651C111.02 0.0546955 111.163 0 111.312 0C111.461 0 111.604 0.0546955 111.715 0.153651C111.826 0.252606 111.896 0.388904 111.913 0.536546V5.34491C111.903 5.49853 111.835 5.64261 111.723 5.7478C111.61 5.85299 111.462 5.91137 111.308 5.91105Z" fill="#9AA6A5"/>
<path d="M113.697 3.52239H108.935C108.777 3.52239 108.625 3.45948 108.513 3.34749C108.401 3.2355 108.338 3.08361 108.338 2.92523C108.338 2.76686 108.401 2.61496 108.513 2.50297C108.625 2.39098 108.777 2.32806 108.935 2.32806H113.705C113.783 2.32806 113.861 2.34351 113.933 2.37352C114.006 2.40353 114.071 2.44752 114.127 2.50297C114.182 2.55842 114.226 2.62425 114.256 2.6967C114.286 2.76915 114.302 2.84681 114.302 2.92523C114.302 3.00366 114.286 3.08131 114.256 3.15376C114.226 3.22621 114.182 3.29204 114.127 3.34749C114.071 3.40294 114.006 3.44693 113.933 3.47694C113.861 3.50695 113.783 3.52239 113.705 3.52239H113.697Z" fill="#9AA6A5"/>
<path d="M177.958 140.289C177.801 140.287 177.65 140.224 177.538 140.112C177.427 140.001 177.363 139.85 177.361 139.692V134.915C177.361 134.756 177.424 134.604 177.536 134.492C177.648 134.38 177.8 134.318 177.958 134.318C178.117 134.318 178.269 134.38 178.381 134.492C178.493 134.604 178.556 134.756 178.556 134.915V139.692C178.556 139.85 178.493 140.002 178.381 140.114C178.269 140.226 178.117 140.289 177.958 140.289Z" fill="#9AA6A5"/>
<path d="M180.355 137.885H175.585C175.427 137.885 175.275 137.822 175.163 137.71C175.051 137.598 174.988 137.446 174.988 137.288C174.988 137.13 175.051 136.978 175.163 136.866C175.275 136.754 175.427 136.691 175.585 136.691H180.355C180.513 136.691 180.665 136.754 180.777 136.866C180.889 136.978 180.952 137.13 180.952 137.288C180.952 137.446 180.889 137.598 180.777 137.71C180.665 137.822 180.513 137.885 180.355 137.885Z" fill="#9AA6A5"/>
<path d="M19.3135 43.2534C19.0687 43.2534 18.834 43.1562 18.6609 42.9831C18.4878 42.81 18.3906 42.5753 18.3906 42.3305V30.7594C18.3788 30.6306 18.394 30.5007 18.4352 30.3781C18.4764 30.2555 18.5427 30.1428 18.6299 30.0472C18.7172 29.9516 18.8233 29.8753 18.9417 29.8231C19.06 29.7709 19.188 29.7439 19.3174 29.7439C19.4467 29.7439 19.5747 29.7709 19.6931 29.8231C19.8114 29.8753 19.9176 29.9516 20.0048 30.0472C20.092 30.1428 20.1583 30.2555 20.1995 30.3781C20.2408 30.5007 20.2559 30.6306 20.2441 30.7594V42.3305C20.2441 42.4524 20.22 42.573 20.1732 42.6855C20.1263 42.798 20.0576 42.9001 19.9711 42.9859C19.8846 43.0717 19.7819 43.1395 19.6691 43.1854C19.5562 43.2313 19.4353 43.2544 19.3135 43.2534Z" fill="#9AA6A5"/>
<path d="M25.0986 37.4679H13.5431C13.3119 37.4467 13.097 37.3399 12.9405 37.1685C12.784 36.997 12.6973 36.7733 12.6973 36.5411C12.6973 36.309 12.784 36.0852 12.9405 35.9138C13.097 35.7423 13.3119 35.6355 13.5431 35.6144H25.0986C25.2275 35.6026 25.3573 35.6177 25.48 35.659C25.6026 35.7002 25.7153 35.7665 25.8108 35.8537C25.9064 35.9409 25.9827 36.0471 26.035 36.1654C26.0872 36.2838 26.1141 36.4118 26.1141 36.5411C26.1141 36.6705 26.0872 36.7984 26.035 36.9168C25.9827 37.0352 25.9064 37.1413 25.8108 37.2285C25.7153 37.3158 25.6026 37.3821 25.48 37.4233C25.3573 37.4645 25.2275 37.4797 25.0986 37.4679Z" fill="#9AA6A5"/>
<path d="M3.08153 59.059C2.92316 59.059 2.77127 58.996 2.65928 58.884C2.54729 58.7721 2.48438 58.6202 2.48438 58.4618V53.6845C2.48438 53.5261 2.54729 53.3742 2.65928 53.2622C2.77127 53.1502 2.92316 53.0873 3.08153 53.0873C3.23991 53.0873 3.39181 53.1502 3.5038 53.2622C3.61579 53.3742 3.6787 53.5261 3.6787 53.6845V58.4618C3.6787 58.6202 3.61579 58.7721 3.5038 58.884C3.39181 58.996 3.23991 59.059 3.08153 59.059Z" fill="#9AA6A5"/>
<path d="M5.47021 56.6703H0.692862C0.534483 56.6703 0.382598 56.6074 0.270607 56.4954C0.158617 56.3834 0.0957031 56.2315 0.0957031 56.0731C0.0957031 55.9147 0.158617 55.7628 0.270607 55.6509C0.382598 55.5389 0.534483 55.476 0.692862 55.476H5.47021C5.62858 55.476 5.78048 55.5389 5.89247 55.6509C6.00446 55.7628 6.06738 55.9147 6.06738 56.0731C6.06738 56.2315 6.00446 56.3834 5.89247 56.4954C5.78048 56.6074 5.62858 56.6703 5.47021 56.6703Z" fill="#9AA6A5"/>
<path d="M31.3814 149.666C29.0934 149.508 26.8231 149.155 24.5954 148.611C24.5569 148.603 24.5206 148.587 24.4883 148.564C24.4561 148.542 24.4287 148.513 24.4078 148.48C24.3868 148.447 24.3727 148.41 24.3663 148.371C24.3599 148.332 24.3613 148.292 24.3705 148.254C24.3923 148.178 24.4421 148.114 24.5098 148.073C24.5775 148.033 24.658 148.02 24.735 148.037C26.9298 148.572 29.1663 148.92 31.4201 149.076C31.499 149.082 31.5724 149.119 31.6246 149.178C31.6768 149.238 31.7036 149.315 31.6993 149.394C31.6964 149.433 31.6858 149.471 31.6682 149.505C31.6506 149.54 31.6264 149.571 31.5968 149.596C31.5673 149.621 31.533 149.64 31.496 149.652C31.4591 149.664 31.4201 149.669 31.3814 149.666ZM18.1971 146.393C18.1562 146.401 18.114 146.401 18.073 146.393L17.8094 146.269C15.8097 145.343 13.9188 144.199 12.1712 142.856C12.1399 142.833 12.1136 142.804 12.0939 142.771C12.0741 142.738 12.0613 142.701 12.0563 142.662C12.0512 142.624 12.0539 142.585 12.0644 142.548C12.0748 142.51 12.0927 142.476 12.1169 142.445C12.1633 142.383 12.2326 142.341 12.3096 142.329C12.3866 142.318 12.4651 142.337 12.5279 142.383C14.2456 143.699 16.1025 144.823 18.0653 145.734L18.3212 145.85C18.3847 145.877 18.4368 145.925 18.4685 145.986C18.5002 146.047 18.5094 146.117 18.4947 146.185C18.48 146.252 18.4421 146.312 18.3878 146.354C18.3334 146.396 18.266 146.418 18.1971 146.416V146.393ZM7.44037 138.172C7.39661 138.173 7.35313 138.165 7.31296 138.147C7.27279 138.13 7.23688 138.104 7.20771 138.071C5.73954 136.299 4.47281 134.369 3.43082 132.317C3.41349 132.282 3.40316 132.244 3.40041 132.206C3.39766 132.167 3.40254 132.128 3.41479 132.092C3.42703 132.055 3.44638 132.021 3.47175 131.992C3.49713 131.962 3.52802 131.938 3.56266 131.921C3.59707 131.903 3.63486 131.892 3.67375 131.888C3.71263 131.885 3.75178 131.89 3.78881 131.902C3.82583 131.914 3.85994 131.934 3.88906 131.96C3.91819 131.986 3.94171 132.018 3.95818 132.053C4.98439 134.062 6.2275 135.953 7.66527 137.691C7.69057 137.721 7.70965 137.756 7.7214 137.793C7.73316 137.83 7.73736 137.87 7.73375 137.909C7.73013 137.948 7.7188 137.986 7.70039 138.02C7.68197 138.055 7.65685 138.085 7.62649 138.11C7.56144 138.157 7.48159 138.179 7.40159 138.172H7.44037ZM1.31358 126.097C1.2471 126.098 1.18214 126.077 1.1298 126.036C1.07746 125.995 1.04099 125.937 1.02663 125.872C0.467122 123.639 0.167846 121.349 0.134766 119.047C0.146234 118.976 0.182572 118.912 0.237282 118.865C0.291992 118.819 0.361496 118.793 0.433345 118.793C0.505195 118.793 0.574698 118.819 0.629408 118.865C0.684118 118.912 0.720456 118.976 0.731925 119.047C0.765362 121.304 1.0568 123.55 1.60054 125.74C1.60979 125.778 1.6115 125.817 1.60558 125.855C1.59967 125.894 1.58623 125.93 1.56606 125.964C1.54588 125.997 1.51936 126.026 1.48801 126.048C1.45666 126.071 1.42111 126.088 1.38339 126.097H1.31358ZM1.12746 112.564H1.05765C1.01993 112.555 0.984377 112.538 0.953028 112.515C0.921679 112.492 0.895148 112.464 0.874972 112.43C0.854796 112.397 0.841375 112.36 0.835459 112.322C0.829543 112.284 0.83125 112.245 0.8405 112.207C1.34366 109.958 2.16083 107.791 3.26795 105.77C3.306 105.701 3.36986 105.65 3.44549 105.628C3.52112 105.606 3.60233 105.616 3.67124 105.654C3.74014 105.692 3.79111 105.755 3.81292 105.831C3.83474 105.907 3.82562 105.988 3.78756 106.057C2.70531 108.029 1.9064 110.144 1.41441 112.339C1.39771 112.41 1.35512 112.472 1.29492 112.514C1.23472 112.556 1.1612 112.573 1.08868 112.564H1.12746ZM7.56445 100.737C7.52547 100.738 7.48659 100.732 7.45045 100.717C7.41432 100.702 7.38178 100.68 7.35506 100.651C7.32739 100.624 7.30543 100.591 7.29044 100.555C7.27545 100.519 7.26773 100.481 7.26773 100.442C7.26773 100.403 7.27545 100.364 7.29044 100.328C7.30543 100.293 7.32739 100.26 7.35506 100.233C8.97872 98.5999 10.7817 97.156 12.7296 95.9283C12.7964 95.8861 12.8773 95.8722 12.9544 95.8897C13.0314 95.9071 13.0984 95.9545 13.1406 96.0213C13.1828 96.0882 13.1967 96.169 13.1792 96.2461C13.1617 96.3232 13.1144 96.3902 13.0475 96.4324C11.1355 97.6311 9.3685 99.0468 7.78161 100.651C7.72186 100.705 7.64474 100.735 7.56445 100.737Z" fill="#9AA6A5"/>
<path d="M186.195 86.4434C186.126 86.4357 186.063 86.403 186.017 86.3514C185.972 86.2999 185.946 86.2332 185.947 86.1642C185.745 83.715 185.408 81.2787 184.939 78.8663C184.919 78.7912 184.927 78.7117 184.962 78.642C184.996 78.5723 185.054 78.5171 185.125 78.4863C185.16 78.4797 185.197 78.4806 185.232 78.489C185.267 78.4974 185.299 78.5131 185.328 78.535C185.357 78.557 185.38 78.5847 185.397 78.6164C185.414 78.6481 185.425 78.6831 185.427 78.719C185.888 81.1609 186.219 83.6254 186.42 86.1022C186.434 86.1771 186.418 86.2545 186.376 86.3181C186.334 86.3817 186.269 86.4266 186.195 86.4434ZM183.442 71.9873C183.388 71.9828 183.337 71.9618 183.295 71.9271C183.253 71.8924 183.223 71.8457 183.209 71.7934C182.506 69.5113 181.672 67.2715 180.712 65.085C180.68 65.0125 180.673 64.9318 180.691 64.8548C180.709 64.7779 180.752 64.709 180.813 64.6584C180.842 64.6403 180.875 64.6291 180.909 64.6256C180.943 64.6222 180.978 64.6266 181.01 64.6386C181.042 64.6506 181.071 64.6698 181.095 64.6947C181.118 64.7197 181.136 64.7497 181.146 64.7825C182.119 66.9931 182.96 69.259 183.667 71.5685C183.694 71.6403 183.695 71.7194 183.669 71.7917C183.644 71.8641 183.593 71.9251 183.527 71.964C183.501 71.9788 183.472 71.9868 183.442 71.9873ZM177.718 58.9737C177.678 58.9724 177.638 58.9602 177.604 58.9383C177.57 58.9165 177.543 58.8858 177.524 58.8496C176.366 56.8915 175.089 55.006 173.701 53.2037C173.654 53.1396 173.628 53.0622 173.628 52.9826C173.628 52.9031 173.654 52.8256 173.701 52.7616C173.721 52.7343 173.748 52.7122 173.778 52.6969C173.808 52.6816 173.842 52.6737 173.876 52.6737C173.909 52.6737 173.943 52.6816 173.973 52.6969C174.004 52.7122 174.03 52.7343 174.05 52.7616C175.461 54.5811 176.756 56.4876 177.928 58.4696C177.97 58.5373 177.987 58.6173 177.977 58.6963C177.967 58.7753 177.931 58.8485 177.873 58.9039C177.855 58.927 177.831 58.9454 177.804 58.9575C177.777 58.9697 177.748 58.9752 177.718 58.9737ZM169.428 48.31C169.4 48.3097 169.372 48.3034 169.346 48.2913C169.321 48.2793 169.298 48.2618 169.28 48.2402C167.753 46.7357 166.123 45.339 164.402 44.06C164.343 44.0083 164.303 43.9384 164.287 43.8612C164.272 43.7841 164.282 43.704 164.317 43.6335C164.328 43.601 164.346 43.5715 164.37 43.5473C164.394 43.5232 164.424 43.5051 164.456 43.4945C164.489 43.4839 164.523 43.4811 164.557 43.4864C164.591 43.4917 164.623 43.5049 164.65 43.5249C166.394 44.8158 168.043 46.231 169.583 47.7593C169.636 47.8173 169.669 47.8913 169.676 47.9699C169.683 48.0485 169.664 48.1272 169.622 48.1937C169.603 48.2284 169.574 48.2575 169.54 48.278C169.506 48.2984 169.467 48.3094 169.428 48.31ZM159.214 40.7562C159.183 40.7632 159.151 40.7632 159.121 40.7562C157.325 39.8026 155.455 38.996 153.529 38.3443C153.46 38.3121 153.404 38.2559 153.373 38.1861C153.342 38.1163 153.337 38.0375 153.359 37.9642C153.361 37.9287 153.371 37.8941 153.388 37.8629C153.405 37.8317 153.429 37.8047 153.458 37.7839C153.487 37.7632 153.52 37.7491 153.556 37.7427C153.591 37.7363 153.627 37.7378 153.661 37.7471C155.608 38.4046 157.499 39.219 159.315 40.1823C159.379 40.2248 159.427 40.2877 159.451 40.361C159.475 40.4342 159.473 40.5133 159.447 40.5856C159.432 40.6301 159.406 40.6698 159.37 40.6999C159.335 40.7301 159.291 40.7496 159.245 40.7562H159.214ZM130.1 38.4296C130.041 38.4236 129.985 38.3984 129.942 38.3577C129.898 38.3171 129.87 38.2633 129.86 38.2047C129.837 38.1303 129.842 38.0504 129.873 37.9793C129.905 37.9081 129.96 37.8506 130.03 37.8169C131.938 37.1544 133.896 36.6486 135.886 36.3046C136.017 36.3046 136.142 36.3976 136.165 36.5683C136.177 36.6429 136.162 36.7196 136.122 36.7839C136.082 36.8482 136.02 36.8956 135.948 36.9173C133.981 37.2561 132.046 37.7567 130.162 38.4141L130.1 38.4296ZM147.775 36.8785H147.736C145.844 36.5683 143.93 36.4127 142.012 36.4132H141.842C141.768 36.4035 141.702 36.3658 141.655 36.3079C141.609 36.2501 141.587 36.1767 141.594 36.1029C141.587 36.0292 141.609 35.9558 141.655 35.898C141.702 35.8401 141.768 35.8024 141.842 35.7927H142.012C143.953 35.7952 145.89 35.9534 147.806 36.2658C147.877 36.2859 147.938 36.3321 147.977 36.3954C148.016 36.4587 148.03 36.5343 148.015 36.607C148.017 36.6695 147.997 36.7306 147.959 36.78C147.921 36.8295 147.866 36.8642 147.806 36.8785H147.775Z" fill="#9AA6A5"/>
<path d="M117.109 119.132L124.283 82.1778L117.109 60.4626" fill="#E2AF83"/>
<path d="M57.958 142.748C55.3075 142.748 52.7164 141.962 50.5126 140.489C48.3088 139.017 46.5911 136.924 45.5768 134.475C44.5624 132.026 44.2971 129.332 44.8142 126.732C45.3312 124.132 46.6076 121.744 48.4818 119.87C50.356 117.996 52.7439 116.72 55.3435 116.203C57.9431 115.685 60.6377 115.951 63.0865 116.965C65.5353 117.979 67.6283 119.697 69.1009 121.901C70.5734 124.105 71.3594 126.696 71.3594 129.346C71.3594 132.901 69.9475 136.309 67.4342 138.823C64.921 141.336 61.5123 142.748 57.958 142.748Z" fill="#E4E9EA"/>
<path d="M57.9595 143.089C55.2418 143.087 52.5855 142.28 50.3266 140.769C48.0677 139.258 46.3074 137.111 45.2685 134.6C44.2295 132.089 43.9585 129.326 44.4896 126.661C45.0208 123.995 46.3302 121.547 48.2525 119.626C50.1747 117.705 52.6234 116.397 55.289 115.867C57.9546 115.338 60.7174 115.61 63.2281 116.651C65.7388 117.691 67.8846 119.452 69.3943 121.712C70.904 123.972 71.7098 126.629 71.7098 129.346C71.7057 132.991 70.2555 136.486 67.6774 139.062C65.0994 141.639 61.6043 143.087 57.9595 143.089ZM57.9595 116.279C55.3746 116.277 52.8472 117.042 50.6972 118.477C48.5472 119.912 46.871 121.952 45.8808 124.34C44.8905 126.728 44.6306 129.356 45.134 131.891C45.6373 134.427 46.8813 136.756 48.7086 138.584C50.5359 140.412 52.8643 141.658 55.3994 142.163C57.9346 142.668 60.5625 142.409 62.9508 141.42C65.3391 140.431 67.3805 138.757 68.8167 136.607C70.253 134.458 71.0196 131.931 71.0196 129.346C71.0237 125.878 69.6503 122.55 67.2013 120.093C64.7522 117.637 61.4281 116.254 57.9595 116.248V116.279Z" fill="#9AA6A5"/>
<path d="M57.9581 124.181C56.9365 124.181 55.9379 124.484 55.0885 125.052C54.2391 125.619 53.5771 126.426 53.1861 127.37C52.7952 128.314 52.6929 129.352 52.8922 130.354C53.0915 131.356 53.5834 132.276 54.3058 132.999C55.0281 133.721 55.9485 134.213 56.9504 134.412C57.9524 134.612 58.9909 134.509 59.9347 134.118C60.8785 133.727 61.6852 133.065 62.2527 132.216C62.8203 131.367 63.1232 130.368 63.1232 129.346C63.1232 127.977 62.579 126.663 61.6104 125.694C60.6417 124.725 59.328 124.181 57.9581 124.181Z" fill="#F2F7F7"/>
<path d="M169.668 88.6382L145.929 61.4012C145.671 61.0958 145.35 60.8492 144.989 60.678C144.628 60.5068 144.234 60.4149 143.835 60.4085H119.948C119.578 60.4074 119.212 60.4796 118.869 60.6207C118.527 60.7618 118.217 60.9691 117.955 61.2307C117.693 61.4924 117.486 61.8031 117.345 62.1451C117.204 62.4872 117.132 62.8537 117.133 63.2237V119.101H170.358V90.484C170.357 89.8058 170.112 89.1506 169.668 88.6382Z" fill="white"/>
<path d="M125.711 92.671V71.6926C125.711 71.3203 125.859 70.9633 126.122 70.7C126.385 70.4368 126.742 70.2889 127.115 70.2889H139.329C139.531 70.2872 139.73 70.3293 139.914 70.4123C140.097 70.4953 140.26 70.6173 140.392 70.7697L156.958 89.7782C157.182 90.0331 157.306 90.3613 157.307 90.7011V92.671C157.307 92.856 157.27 93.0392 157.199 93.21C157.128 93.3808 157.024 93.5359 156.893 93.6664C156.761 93.7968 156.606 93.9001 156.435 93.9701C156.263 94.0402 156.08 94.0758 155.895 94.0748H127.115C126.742 94.0748 126.385 93.9268 126.122 93.6636C125.859 93.4003 125.711 93.0433 125.711 92.671Z" fill="#E4E9EA"/>
<path d="M130.256 104.909H125.711C125.152 104.909 124.615 104.687 124.219 104.291C123.824 103.896 123.602 103.359 123.602 102.8C123.602 102.24 123.824 101.704 124.219 101.308C124.615 100.912 125.152 100.69 125.711 100.69H130.256C130.815 100.69 131.352 100.912 131.747 101.308C132.143 101.704 132.365 102.24 132.365 102.8C132.365 103.359 132.143 103.896 131.747 104.291C131.352 104.687 130.815 104.909 130.256 104.909Z" fill="white"/>
<path d="M142.911 142.748C140.261 142.748 137.67 141.962 135.466 140.489C133.262 139.017 131.544 136.924 130.53 134.475C129.516 132.026 129.25 129.332 129.767 126.732C130.284 124.132 131.561 121.744 133.435 119.87C135.309 117.996 137.697 116.72 140.297 116.203C142.896 115.685 145.591 115.951 148.04 116.965C150.488 117.979 152.581 119.697 154.054 121.901C155.527 124.105 156.313 126.696 156.313 129.346C156.313 132.901 154.901 136.309 152.387 138.823C149.874 141.336 146.465 142.748 142.911 142.748Z" fill="#E4E9EA"/>
<path d="M142.911 124.181C141.89 124.181 140.891 124.484 140.042 125.052C139.192 125.619 138.53 126.426 138.139 127.37C137.748 128.314 137.646 129.352 137.845 130.354C138.045 131.356 138.537 132.276 139.259 132.999C139.981 133.721 140.902 134.213 141.904 134.412C142.905 134.612 143.944 134.509 144.888 134.118C145.832 133.727 146.638 133.065 147.206 132.216C147.773 131.367 148.076 130.368 148.076 129.346C148.076 127.977 147.532 126.663 146.563 125.694C145.595 124.725 144.281 124.181 142.911 124.181Z" fill="#F2F7F7"/>
<path d="M158.71 110.687H170.344V102.52H158.71C158.338 102.52 157.981 102.668 157.718 102.931C157.455 103.195 157.307 103.552 157.307 103.924V109.268C157.305 109.453 157.339 109.637 157.409 109.809C157.479 109.982 157.582 110.138 157.712 110.27C157.843 110.402 157.998 110.507 158.17 110.578C158.341 110.65 158.525 110.687 158.71 110.687Z" fill="#E4E9EA"/>
<path d="M73.8182 67.7296C67.4096 67.7296 61.145 65.8292 55.8165 62.2688C50.488 58.7084 46.3349 53.6479 43.8825 47.7272C41.4301 41.8065 40.7884 35.2915 42.0386 29.0061C43.2889 22.7207 46.3749 16.9471 50.9064 12.4156C55.4379 7.8841 61.2114 4.79809 67.4968 3.54784C73.7822 2.2976 80.2972 2.93928 86.218 5.39172C92.1387 7.84416 97.1992 11.9972 100.76 17.3257C104.32 22.6542 106.22 28.9189 106.22 35.3274C106.218 43.9204 102.804 52.1608 96.7277 58.2369C90.6515 64.3131 82.4111 67.7275 73.8182 67.7296Z" fill="#E4E9EA"/>
<path d="M73.8196 12.6428C69.334 12.6474 64.9504 13.9818 61.223 16.4772C57.4956 18.9726 54.5917 22.517 52.8783 26.6625C51.1649 30.808 50.719 35.3684 51.5969 39.7672C52.4748 44.1661 54.6372 48.2059 57.8106 51.3761C60.984 54.5463 65.0261 56.7044 69.4258 57.5779C73.8256 58.4513 78.3855 58.0007 82.5292 56.283C86.6729 54.5654 90.2144 51.6579 92.706 47.9279C95.1976 44.1979 96.5274 39.813 96.5274 35.3274C96.5274 29.3111 94.1375 23.5412 89.8833 19.287C85.6291 15.0328 79.8592 12.6428 73.8428 12.6428H73.8196Z" fill="white"/>
<path d="M73.8185 21.9958C74.9835 21.9958 75.9279 21.0514 75.9279 19.8863C75.9279 18.7213 74.9835 17.7769 73.8185 17.7769C72.6534 17.7769 71.709 18.7213 71.709 19.8863C71.709 21.0514 72.6534 21.9958 73.8185 21.9958Z" fill="#E4E9EA"/>
<path d="M73.8185 52.8779C74.9835 52.8779 75.9279 51.9334 75.9279 50.7684C75.9279 49.6034 74.9835 48.6589 73.8185 48.6589C72.6534 48.6589 71.709 49.6034 71.709 50.7684C71.709 51.9334 72.6534 52.8779 73.8185 52.8779Z" fill="#E4E9EA"/>
<path d="M83.2488 25.9045C83.5439 26.1992 83.9198 26.3997 84.3289 26.4808C84.738 26.5619 85.162 26.5199 85.5472 26.3602C85.9324 26.2004 86.2617 25.93 86.4933 25.5832C86.7249 25.2364 86.8486 24.8287 86.8486 24.4116C86.8486 23.9945 86.7249 23.5868 86.4933 23.24C86.2617 22.8932 85.9324 22.6228 85.5472 22.463C85.162 22.3033 84.738 22.2613 84.3289 22.3424C83.9198 22.4235 83.5439 22.624 83.2488 22.9187C82.8543 23.3154 82.6328 23.8521 82.6328 24.4116C82.6328 24.9711 82.8543 25.5078 83.2488 25.9045Z" fill="#E4E9EA"/>
<path d="M64.3967 44.7502C64.1015 44.4556 63.7256 44.255 63.3165 44.1739C62.9074 44.0928 62.4835 44.1348 62.0982 44.2946C61.713 44.4544 61.3838 44.7247 61.1521 45.0716C60.9205 45.4184 60.7969 45.8261 60.7969 46.2431C60.7969 46.6602 60.9205 47.0679 61.1521 47.4147C61.3838 47.7615 61.713 48.0319 62.0982 48.1917C62.4835 48.3515 62.9074 48.3934 63.3165 48.3123C63.7256 48.2312 64.1015 48.0307 64.3967 47.7361C64.7912 47.3393 65.0126 46.8026 65.0126 46.2431C65.0126 45.6837 64.7912 45.1469 64.3967 44.7502Z" fill="#E4E9EA"/>
<path d="M89.2599 37.4368C90.4249 37.4368 91.3693 36.4924 91.3693 35.3274C91.3693 34.1623 90.4249 33.2179 89.2599 33.2179C88.0948 33.2179 87.1504 34.1623 87.1504 35.3274C87.1504 36.4924 88.0948 37.4368 89.2599 37.4368Z" fill="#E4E9EA"/>
<path d="M58.3771 37.4368C59.5421 37.4368 60.4865 36.4924 60.4865 35.3274C60.4865 34.1623 59.5421 33.2179 58.3771 33.2179C57.212 33.2179 56.2676 34.1623 56.2676 35.3274C56.2676 36.4924 57.212 37.4368 58.3771 37.4368Z" fill="#E4E9EA"/>
<path d="M83.2488 47.7361C83.5439 48.0307 83.9198 48.2312 84.3289 48.3123C84.738 48.3934 85.162 48.3515 85.5472 48.1917C85.9324 48.0319 86.2617 47.7615 86.4933 47.4147C86.7249 47.0679 86.8486 46.6602 86.8486 46.2431C86.8486 45.8261 86.7249 45.4184 86.4933 45.0716C86.2617 44.7247 85.9324 44.4544 85.5472 44.2946C85.162 44.1348 84.738 44.0928 84.3289 44.1739C83.9198 44.255 83.5439 44.4556 83.2488 44.7502C82.8543 45.1469 82.6328 45.6837 82.6328 46.2431C82.6328 46.8026 82.8543 47.3393 83.2488 47.7361Z" fill="#E4E9EA"/>
<path d="M64.3967 22.9187C64.1015 22.624 63.7256 22.4235 63.3165 22.3424C62.9074 22.2613 62.4835 22.3033 62.0982 22.463C61.713 22.6228 61.3838 22.8932 61.1521 23.24C60.9205 23.5868 60.7969 23.9945 60.7969 24.4116C60.7969 24.8287 60.9205 25.2364 61.1521 25.5832C61.3838 25.93 61.713 26.2004 62.0982 26.3602C62.4835 26.5199 62.9074 26.5619 63.3165 26.4808C63.7256 26.3997 64.1015 26.1992 64.3967 25.9045C64.5939 25.7091 64.7504 25.4766 64.8572 25.2203C64.9641 24.9641 65.0191 24.6892 65.0191 24.4116C65.0191 24.134 64.9641 23.8591 64.8572 23.6029C64.7504 23.3466 64.5939 23.1141 64.3967 22.9187Z" fill="#E4E9EA"/>
<path d="M117.11 130.362H71.3527C71.2123 130.375 71.0709 130.358 70.9375 130.312C70.8041 130.267 70.6816 130.194 70.5777 130.099C70.4738 130.004 70.3908 129.888 70.3341 129.759C70.2773 129.63 70.248 129.491 70.248 129.35C70.248 129.209 70.2773 129.07 70.3341 128.941C70.3908 128.812 70.4738 128.696 70.5777 128.601C70.6816 128.506 70.8041 128.433 70.9375 128.388C71.0709 128.343 71.2123 128.326 71.3527 128.338H116.086V119.125C116.108 118.872 116.224 118.636 116.412 118.464C116.599 118.293 116.844 118.197 117.098 118.197C117.352 118.197 117.597 118.293 117.784 118.464C117.972 118.636 118.088 118.872 118.11 119.125V129.346C118.11 129.613 118.005 129.869 117.818 130.059C117.631 130.249 117.376 130.358 117.11 130.362Z" fill="#9AA6A5"/>
<path d="M44.565 130.362H33.3429C32.332 130.348 31.3665 129.94 30.6522 129.224C29.938 128.508 29.5316 127.542 29.5195 126.531V119.125C29.5417 118.872 29.6579 118.636 29.8453 118.464C30.0326 118.293 30.2775 118.197 30.5316 118.197C30.7857 118.197 31.0306 118.293 31.2179 118.464C31.4053 118.636 31.5215 118.872 31.5437 119.125V126.531C31.5437 127.009 31.733 127.467 32.0702 127.806C32.4074 128.145 32.865 128.336 33.3429 128.338H44.565C44.8182 128.36 45.0538 128.477 45.2255 128.664C45.3971 128.851 45.4923 129.096 45.4923 129.35C45.4923 129.604 45.3971 129.849 45.2255 130.037C45.0538 130.224 44.8182 130.34 44.565 130.362Z" fill="#9AA6A5"/>
<path d="M117.11 64.2861C116.841 64.2861 116.584 64.1801 116.394 63.9913C116.204 63.8024 116.096 63.546 116.094 63.2779V44.8975C116.094 44.4203 115.904 43.9627 115.567 43.6252C115.229 43.2878 114.772 43.0983 114.294 43.0983H105.515C105.262 43.0761 105.026 42.9599 104.855 42.7725C104.683 42.5851 104.588 42.3403 104.588 42.0862C104.588 41.8321 104.683 41.5872 104.855 41.3998C105.026 41.2125 105.262 41.0963 105.515 41.0741H114.294C115.308 41.0741 116.281 41.4769 116.998 42.1939C117.715 42.911 118.118 43.8835 118.118 44.8975V63.2546C118.121 63.3889 118.097 63.5226 118.048 63.6476C117.998 63.7726 117.925 63.8865 117.831 63.9826C117.737 64.0787 117.625 64.155 117.501 64.2072C117.377 64.2593 117.244 64.2861 117.11 64.2861Z" fill="#9AA6A5"/>
<path d="M117.11 120.125H66.63C66.4897 120.137 66.3483 120.12 66.2149 120.075C66.0815 120.03 65.9589 119.957 65.855 119.862C65.7512 119.767 65.6682 119.651 65.6114 119.522C65.5547 119.393 65.5254 119.254 65.5254 119.113C65.5254 118.972 65.5547 118.833 65.6114 118.704C65.6682 118.575 65.7512 118.459 65.855 118.364C65.9589 118.269 66.0815 118.196 66.2149 118.151C66.3483 118.106 66.4897 118.089 66.63 118.101H116.094V63.2546C116.082 63.1142 116.099 62.9729 116.144 62.8395C116.189 62.706 116.262 62.5835 116.357 62.4796C116.452 62.3757 116.568 62.2928 116.697 62.236C116.826 62.1793 116.965 62.15 117.106 62.15C117.247 62.15 117.386 62.1793 117.515 62.236C117.644 62.2928 117.76 62.3757 117.855 62.4796C117.95 62.5835 118.023 62.706 118.068 62.8395C118.114 62.9729 118.131 63.1142 118.118 63.2546V119.094C118.121 119.228 118.098 119.362 118.048 119.487C117.999 119.612 117.925 119.726 117.831 119.822C117.737 119.918 117.625 119.994 117.501 120.046C117.377 120.098 117.244 120.125 117.11 120.125Z" fill="#9AA6A5"/>
<path d="M49.2881 120.125H30.5355C30.266 120.125 30.0076 120.018 29.8171 119.828C29.6266 119.637 29.5195 119.379 29.5195 119.109V44.8975C29.5216 43.8841 29.9251 42.9128 30.6416 42.1962C31.3582 41.4797 32.3295 41.0762 33.3429 41.0741H42.1221C42.2624 41.0618 42.4038 41.0789 42.5372 41.1241C42.6707 41.1694 42.7932 41.2419 42.8971 41.3371C43.001 41.4323 43.0839 41.548 43.1407 41.677C43.1974 41.806 43.2267 41.9453 43.2267 42.0862C43.2267 42.2271 43.1974 42.3665 43.1407 42.4954C43.0839 42.6244 43.001 42.7401 42.8971 42.8353C42.7932 42.9305 42.6707 43.003 42.5372 43.0483C42.4038 43.0936 42.2624 43.1106 42.1221 43.0983H33.3429C32.8658 43.0983 32.4081 43.2879 32.0707 43.6253C31.7333 43.9627 31.5437 44.4204 31.5437 44.8975V118.117H49.2881C49.5412 118.139 49.7769 118.255 49.9485 118.442C50.1202 118.63 50.2154 118.874 50.2154 119.129C50.2154 119.383 50.1202 119.628 49.9485 119.815C49.7769 120.002 49.5412 120.118 49.2881 120.141V120.125Z" fill="#9AA6A5"/>
<path d="M57.9583 143.764C55.1065 143.765 52.3183 142.921 49.9463 141.338C47.5744 139.754 45.7253 137.503 44.6329 134.869C43.5405 132.235 43.2539 129.336 43.8093 126.538C44.3647 123.741 45.7372 121.172 47.7532 119.155C49.7692 117.137 52.3381 115.764 55.135 115.207C57.9319 114.65 60.8312 114.935 63.466 116.026C66.1009 117.117 68.353 118.965 69.9376 121.336C71.5221 123.707 72.3679 126.495 72.3679 129.346C72.3638 133.167 70.8445 136.831 68.1433 139.534C65.4421 142.236 61.7794 143.758 57.9583 143.764ZM57.9583 116.953C55.5041 116.953 53.105 117.681 51.0644 119.044C49.0238 120.408 47.4334 122.346 46.4942 124.613C45.555 126.881 45.3093 129.376 45.788 131.783C46.2668 134.19 47.4487 136.401 49.184 138.136C50.9194 139.872 53.1304 141.053 55.5375 141.532C57.9445 142.011 60.4395 141.765 62.7069 140.826C64.9743 139.887 66.9123 138.296 68.2757 136.256C69.6392 134.215 70.367 131.816 70.367 129.362C70.367 126.071 69.0596 122.915 66.7326 120.588C64.4055 118.261 61.2493 116.953 57.9583 116.953Z" fill="#9AA6A5"/>
<path d="M57.9582 135.527C56.7311 135.527 55.5316 135.164 54.5113 134.482C53.491 133.8 52.6958 132.831 52.2262 131.697C51.7566 130.564 51.6337 129.316 51.8731 128.113C52.1125 126.909 52.7034 125.804 53.5711 124.936C54.4388 124.068 55.5443 123.477 56.7478 123.238C57.9514 122.999 59.1988 123.121 60.3325 123.591C61.4662 124.061 62.4352 124.856 63.117 125.876C63.7987 126.896 64.1626 128.096 64.1626 129.323C64.1626 130.969 63.5089 132.547 62.3454 133.71C61.1818 134.874 59.6037 135.527 57.9582 135.527ZM57.9582 125.189C57.1358 125.188 56.3313 125.43 55.6467 125.886C54.9621 126.342 54.4281 126.991 54.1122 127.75C53.7964 128.51 53.713 129.346 53.8725 130.153C54.032 130.959 54.4273 131.701 55.0084 132.283C55.5894 132.865 56.3301 133.262 57.1367 133.423C57.9432 133.584 58.7794 133.502 59.5395 133.188C60.2995 132.873 60.9492 132.34 61.4063 131.657C61.8634 130.973 62.1074 130.169 62.1074 129.346C62.1054 128.246 61.6678 127.191 60.8904 126.412C60.1129 125.633 59.0588 125.194 57.9582 125.189Z" fill="#9AA6A5"/>
<path d="M167.544 130.362H156.314C156.061 130.34 155.825 130.224 155.654 130.037C155.482 129.849 155.387 129.604 155.387 129.35C155.387 129.096 155.482 128.851 155.654 128.664C155.825 128.477 156.061 128.36 156.314 128.338H167.544C168.023 128.338 168.483 128.148 168.822 127.809C169.16 127.47 169.351 127.01 169.351 126.531V119.125C169.373 118.872 169.489 118.636 169.677 118.464C169.864 118.293 170.109 118.197 170.363 118.197C170.617 118.197 170.862 118.293 171.049 118.464C171.237 118.636 171.353 118.872 171.375 119.125V126.531C171.363 127.543 170.955 128.511 170.24 129.227C169.524 129.943 168.556 130.35 167.544 130.362Z" fill="#9AA6A5"/>
<path d="M129.511 130.362H117.102C116.832 130.362 116.574 130.255 116.384 130.065C116.193 129.874 116.086 129.616 116.086 129.346V119.125C116.108 118.872 116.224 118.636 116.412 118.464C116.599 118.293 116.844 118.197 117.098 118.197C117.352 118.197 117.597 118.293 117.784 118.464C117.972 118.636 118.088 118.872 118.11 119.125V128.338H129.503C129.643 128.326 129.785 128.343 129.918 128.388C130.051 128.433 130.174 128.506 130.278 128.601C130.382 128.696 130.465 128.812 130.521 128.941C130.578 129.07 130.607 129.209 130.607 129.35C130.607 129.491 130.578 129.63 130.521 129.759C130.465 129.888 130.382 130.004 130.278 130.099C130.174 130.194 130.051 130.267 129.918 130.312C129.785 130.358 129.643 130.375 129.503 130.362H129.511Z" fill="#9AA6A5"/>
<path d="M118.118 114.898H116.094V119.132H118.118V114.898Z" fill="black"/>
<path d="M170.358 120.125H151.59C151.45 120.137 151.309 120.12 151.175 120.075C151.042 120.03 150.919 119.957 150.815 119.862C150.711 119.767 150.628 119.651 150.572 119.522C150.515 119.393 150.486 119.254 150.486 119.113C150.486 118.972 150.515 118.833 150.572 118.704C150.628 118.575 150.711 118.459 150.815 118.364C150.919 118.269 151.042 118.196 151.175 118.151C151.309 118.106 151.45 118.089 151.59 118.101H169.35V90.4839C169.347 90.0488 169.19 89.6287 168.908 89.2974L145.169 62.0681C145 61.8732 144.792 61.7169 144.558 61.6098C144.324 61.5027 144.069 61.4474 143.812 61.4476H119.917C119.68 61.4476 119.446 61.4944 119.227 61.5853C119.008 61.6762 118.809 61.8095 118.642 61.9774C118.475 62.1453 118.343 62.3445 118.253 62.5637C118.163 62.7829 118.117 63.0177 118.118 63.2546V119.094C118.13 119.234 118.113 119.375 118.068 119.509C118.023 119.642 117.95 119.765 117.855 119.869C117.76 119.973 117.644 120.056 117.515 120.112C117.386 120.169 117.247 120.198 117.106 120.198C116.965 120.198 116.826 120.169 116.697 120.112C116.568 120.056 116.452 119.973 116.357 119.869C116.262 119.765 116.189 119.642 116.144 119.509C116.098 119.375 116.081 119.234 116.094 119.094V63.2546C116.106 62.2436 116.512 61.2773 117.226 60.5616C117.941 59.846 118.906 59.4375 119.917 59.4235H143.835C144.382 59.4245 144.923 59.5427 145.42 59.7701C145.918 59.9975 146.361 60.3289 146.72 60.7419L170.451 87.9712C171.061 88.6661 171.398 89.5593 171.398 90.4839V119.125C171.396 119.259 171.367 119.391 171.314 119.514C171.26 119.637 171.183 119.748 171.086 119.841C170.99 119.934 170.876 120.007 170.751 120.056C170.626 120.105 170.492 120.128 170.358 120.125Z" fill="#9AA6A5"/>
<path d="M134.242 120.125H117.111C116.97 120.138 116.829 120.12 116.695 120.075C116.562 120.03 116.439 119.957 116.335 119.862C116.232 119.767 116.149 119.651 116.092 119.522C116.035 119.393 116.006 119.254 116.006 119.113C116.006 118.972 116.035 118.833 116.092 118.704C116.149 118.575 116.232 118.459 116.335 118.364C116.439 118.269 116.562 118.196 116.695 118.151C116.829 118.106 116.97 118.089 117.111 118.101H134.242C134.383 118.089 134.524 118.106 134.657 118.151C134.791 118.196 134.913 118.269 135.017 118.364C135.121 118.459 135.204 118.575 135.261 118.704C135.318 118.833 135.347 118.972 135.347 119.113C135.347 119.254 135.318 119.393 135.261 119.522C135.204 119.651 135.121 119.767 135.017 119.862C134.913 119.957 134.791 120.03 134.657 120.075C134.524 120.12 134.383 120.138 134.242 120.125Z" fill="#9AA6A5"/>
<path d="M155.895 95.0906H127.115C126.473 95.0906 125.858 94.8357 125.404 94.3819C124.95 93.9282 124.695 93.3127 124.695 92.6709V71.6925C124.695 71.0508 124.95 70.4353 125.404 69.9815C125.858 69.5278 126.473 69.2728 127.115 69.2728H139.33C139.675 69.2725 140.017 69.3465 140.331 69.4897C140.646 69.6328 140.926 69.8419 141.152 70.1027L157.718 89.1035C158.103 89.5435 158.315 90.1085 158.315 90.6933V92.6632C158.316 92.9816 158.254 93.2971 158.133 93.5916C158.012 93.886 157.834 94.1537 157.609 94.3792C157.384 94.6047 157.117 94.7836 156.823 94.9057C156.529 95.0278 156.214 95.0906 155.895 95.0906ZM127.115 71.266C127.01 71.266 126.909 71.3077 126.835 71.3818C126.761 71.456 126.719 71.5566 126.719 71.6615V92.6709C126.719 92.7759 126.761 92.8765 126.835 92.9506C126.909 93.0248 127.01 93.0665 127.115 93.0665H155.895C156 93.0665 156.101 93.0248 156.175 92.9506C156.249 92.8765 156.291 92.7759 156.291 92.6709V90.7011C156.291 90.6051 156.258 90.512 156.198 90.4374L139.632 71.4366C139.594 71.3935 139.548 71.3588 139.496 71.3348C139.444 71.3107 139.387 71.2979 139.33 71.297L127.115 71.266Z" fill="#9AA6A5"/>
<path d="M130.254 105.917H125.709C124.882 105.917 124.088 105.588 123.502 105.003C122.917 104.418 122.588 103.624 122.588 102.796C122.588 101.968 122.917 101.174 123.502 100.588C124.088 100.003 124.882 99.6741 125.709 99.6741H130.254C131.082 99.6741 131.876 100.003 132.461 100.588C133.047 101.174 133.376 101.968 133.376 102.796C133.376 103.624 133.047 104.418 132.461 105.003C131.876 105.588 131.082 105.917 130.254 105.917ZM125.709 101.698C125.417 101.698 125.137 101.814 124.931 102.021C124.724 102.227 124.608 102.507 124.608 102.8C124.608 103.092 124.724 103.372 124.931 103.578C125.137 103.785 125.417 103.901 125.709 103.901H130.254C130.546 103.901 130.826 103.785 131.033 103.578C131.239 103.372 131.355 103.092 131.355 102.8C131.355 102.507 131.239 102.227 131.033 102.021C130.826 101.814 130.546 101.698 130.254 101.698H125.709Z" fill="#9AA6A5"/>
<path d="M142.911 143.764C140.06 143.764 137.273 142.918 134.902 141.334C132.531 139.75 130.683 137.498 129.592 134.864C128.5 132.229 128.215 129.33 128.771 126.534C129.327 123.737 130.701 121.168 132.717 119.152C134.733 117.135 137.302 115.762 140.099 115.206C142.895 114.65 145.794 114.935 148.429 116.026C151.063 117.118 153.315 118.966 154.899 121.337C156.483 123.707 157.329 126.495 157.329 129.346C157.327 133.169 155.807 136.835 153.104 139.539C150.4 142.242 146.735 143.762 142.911 143.764ZM142.911 116.953C140.457 116.953 138.058 117.681 136.018 119.044C133.977 120.408 132.387 122.346 131.447 124.613C130.508 126.881 130.262 129.376 130.741 131.783C131.22 134.19 132.402 136.401 134.137 138.136C135.873 139.872 138.084 141.053 140.491 141.532C142.898 142.011 145.393 141.765 147.66 140.826C149.927 139.887 151.865 138.296 153.229 136.256C154.592 134.215 155.32 131.816 155.32 129.362C155.32 126.071 154.013 122.915 151.686 120.588C149.359 118.261 146.202 116.953 142.911 116.953Z" fill="#9AA6A5"/>
<path d="M142.911 135.527C141.684 135.527 140.485 135.164 139.464 134.482C138.444 133.8 137.649 132.831 137.179 131.697C136.71 130.564 136.587 129.316 136.826 128.113C137.066 126.909 137.657 125.804 138.524 124.936C139.392 124.068 140.497 123.477 141.701 123.238C142.904 122.999 144.152 123.121 145.286 123.591C146.419 124.061 147.388 124.856 148.07 125.876C148.752 126.896 149.116 128.096 149.116 129.323C149.116 130.969 148.462 132.547 147.299 133.71C146.135 134.874 144.557 135.527 142.911 135.527ZM142.911 125.189C142.089 125.189 141.286 125.433 140.602 125.89C139.918 126.347 139.386 126.996 139.071 127.756C138.756 128.515 138.674 129.351 138.834 130.157C138.995 130.964 139.391 131.704 139.972 132.286C140.553 132.867 141.294 133.263 142.1 133.423C142.907 133.584 143.743 133.501 144.502 133.187C145.262 132.872 145.911 132.339 146.368 131.656C146.824 130.972 147.068 130.169 147.068 129.346C147.068 128.8 146.961 128.26 146.752 127.756C146.543 127.251 146.237 126.793 145.851 126.407C145.465 126.021 145.006 125.715 144.502 125.506C143.998 125.297 143.457 125.189 142.911 125.189Z" fill="#9AA6A5"/>
<path d="M171.373 111.703H158.709C158.067 111.703 157.452 111.448 156.998 110.994C156.544 110.54 156.289 109.925 156.289 109.283V103.924C156.289 103.282 156.544 102.667 156.998 102.213C157.452 101.759 158.067 101.504 158.709 101.504H171.373V111.703ZM158.709 103.529C158.604 103.529 158.503 103.57 158.429 103.644C158.355 103.719 158.313 103.819 158.313 103.924V109.268C158.313 109.372 158.355 109.473 158.429 109.547C158.503 109.621 158.604 109.663 158.709 109.663H169.349V103.529H158.709Z" fill="#9AA6A5"/>
<path d="M73.8185 68.7455C67.209 68.7455 60.748 66.7855 55.2524 63.1135C49.7568 59.4415 45.4735 54.2223 42.9442 48.1159C40.4149 42.0096 39.7531 35.2903 41.0425 28.8078C42.332 22.3253 45.5147 16.3708 50.1883 11.6972C54.8619 7.02358 60.8165 3.84082 67.299 2.55137C73.7814 1.26193 80.5007 1.92372 86.6071 4.45306C92.7135 6.9824 97.9327 11.2657 101.605 16.7613C105.277 22.2568 107.237 28.7179 107.237 35.3274C107.226 44.1873 103.702 52.6813 97.4374 58.9462C91.1725 65.2111 82.6784 68.7352 73.8185 68.7455ZM73.8185 3.93341C67.6094 3.93341 61.5397 5.77464 56.377 9.22425C51.2143 12.6739 47.1904 17.5769 44.8143 23.3134C42.4382 29.0499 41.8165 35.3622 43.0278 41.452C44.2391 47.5419 47.2291 53.1357 51.6196 57.5262C56.0102 61.9168 61.604 64.9067 67.6939 66.1181C73.7837 67.3294 80.096 66.7077 85.8325 64.3316C91.569 61.9555 96.472 57.9316 99.9216 52.7689C103.371 47.6062 105.212 41.5365 105.212 35.3274C105.202 27.0043 101.891 19.0251 96.0061 13.1398C90.1208 7.25455 82.1416 3.94367 73.8185 3.93341Z" fill="#9AA6A5"/>
<path d="M73.8178 59.0202C69.1318 59.0202 64.5511 57.6307 60.6548 55.0273C56.7585 52.4239 53.7218 48.7236 51.9285 44.3943C50.1353 40.065 49.6661 35.3011 50.5803 30.7052C51.4945 26.1092 53.751 21.8876 57.0645 18.5741C60.378 15.2606 64.5996 13.004 69.1956 12.0898C73.7915 11.1756 78.5554 11.6449 82.8847 13.4381C87.214 15.2314 90.9143 18.2681 93.5177 22.1644C96.1211 26.0607 97.5106 30.6414 97.5106 35.3274C97.5024 41.6086 95.0036 47.6302 90.5621 52.0717C86.1206 56.5132 80.099 59.012 73.8178 59.0202ZM73.8178 13.6588C69.5322 13.6588 65.3428 14.9296 61.7794 17.3106C58.216 19.6916 55.4387 23.0757 53.7986 27.0352C52.1586 30.9946 51.7294 35.3515 52.5655 39.5548C53.4016 43.7581 55.4654 47.6191 58.4958 50.6495C61.5262 53.6799 65.3872 55.7436 69.5905 56.5797C73.7938 57.4158 78.1506 56.9867 82.1101 55.3466C86.0695 53.7066 89.4537 50.9293 91.8347 47.3659C94.2156 43.8025 95.4865 39.6131 95.4865 35.3274C95.4742 29.5843 93.1873 24.0799 89.1263 20.0189C85.0653 15.9579 79.5609 13.6711 73.8178 13.6588Z" fill="#9AA6A5"/>
<path d="M78.6889 37.4369H73.8263C73.2668 37.4369 72.7303 37.2146 72.3347 36.819C71.939 36.4234 71.7168 35.8868 71.7168 35.3274V28.5104C71.7168 27.9509 71.939 27.4143 72.3347 27.0187C72.7303 26.6231 73.2668 26.4009 73.8263 26.4009C74.3857 26.4009 74.9223 26.6231 75.3179 27.0187C75.7135 27.4143 75.9358 27.9509 75.9358 28.5104V33.2179H78.6889C79.2484 33.2179 79.785 33.4401 80.1806 33.8357C80.5762 34.2314 80.7984 34.7679 80.7984 35.3274C80.7984 35.8868 80.5762 36.4234 80.1806 36.819C79.785 37.2146 79.2484 37.4369 78.6889 37.4369Z" fill="#C5D3DE"/>
<path d="M78.6894 38.445H73.8268C73.004 38.445 72.215 38.1182 71.6332 37.5364C71.0514 36.9547 70.7246 36.1656 70.7246 35.3429V28.5259C70.7246 27.698 71.0535 26.904 71.6389 26.3186C72.2243 25.7332 73.0183 25.4043 73.8462 25.4043C74.6741 25.4043 75.468 25.7332 76.0534 26.3186C76.6389 26.904 76.9677 27.698 76.9677 28.5259V32.2174H78.6894C79.5173 32.2174 80.3113 32.5463 80.8967 33.1317C81.4821 33.7171 81.811 34.5111 81.811 35.339C81.811 36.1669 81.4821 36.9609 80.8967 37.5463C80.3113 38.1317 79.5173 38.4605 78.6894 38.4605V38.445ZM73.8268 27.4168C73.5368 27.4168 73.2586 27.532 73.0536 27.7371C72.8485 27.9422 72.7333 28.2203 72.7333 28.5103V35.3274C72.7333 35.6174 72.8485 35.8955 73.0536 36.1006C73.2586 36.3057 73.5368 36.4209 73.8268 36.4209H78.6894C78.8413 36.4337 78.9942 36.4148 79.1384 36.3654C79.2826 36.3161 79.4149 36.2373 79.5271 36.1342C79.6393 36.031 79.7289 35.9057 79.7901 35.7662C79.8514 35.6266 79.883 35.4759 79.883 35.3235C79.883 35.1711 79.8514 35.0203 79.7901 34.8808C79.7289 34.7412 79.6393 34.6159 79.5271 34.5128C79.4149 34.4096 79.2826 34.3309 79.1384 34.2815C78.9942 34.2322 78.8413 34.2133 78.6894 34.2261H74.928V28.5103C74.927 28.3657 74.8975 28.2227 74.8413 28.0895C74.785 27.9563 74.703 27.8354 74.6 27.7339C74.497 27.6323 74.3751 27.5521 74.2411 27.4977C74.1071 27.4433 73.9636 27.4158 73.819 27.4168H73.8268Z" fill="#9AA6A5"/>
<path d="M145.307 152C144.757 152 144.206 152 143.671 151.93C143.582 151.922 143.499 151.88 143.441 151.811C143.383 151.743 143.354 151.655 143.361 151.566C143.372 151.478 143.416 151.398 143.483 151.34C143.551 151.283 143.637 151.253 143.725 151.255C145.487 151.415 147.263 151.305 148.991 150.93C149.08 150.911 149.172 150.929 149.247 150.978C149.323 151.028 149.376 151.105 149.395 151.193C149.404 151.237 149.404 151.281 149.396 151.325C149.387 151.368 149.37 151.41 149.346 151.446C149.321 151.483 149.289 151.515 149.253 151.539C149.216 151.564 149.174 151.581 149.131 151.589C147.875 151.863 146.593 152 145.307 152ZM138.483 150.62H138.351C136.79 149.953 135.337 149.06 134.039 147.967C133.972 147.907 133.93 147.824 133.923 147.735C133.916 147.645 133.943 147.556 134 147.486C134.058 147.42 134.14 147.378 134.229 147.371C134.317 147.364 134.405 147.391 134.473 147.448C135.72 148.498 137.115 149.358 138.615 149.999C138.656 150.016 138.693 150.041 138.724 150.072C138.755 150.104 138.78 150.141 138.797 150.183C138.813 150.224 138.822 150.268 138.821 150.312C138.82 150.357 138.811 150.4 138.793 150.441C138.763 150.497 138.718 150.543 138.663 150.574C138.608 150.606 138.546 150.621 138.483 150.62ZM154.063 149.642C154.005 149.642 153.947 149.627 153.896 149.597C153.846 149.567 153.804 149.523 153.776 149.472C153.733 149.395 153.721 149.305 153.743 149.22C153.764 149.134 153.818 149.061 153.893 149.014C155.418 148.122 156.784 146.982 157.933 145.641C157.995 145.586 158.075 145.555 158.157 145.555C158.24 145.554 158.32 145.584 158.382 145.638C158.445 145.692 158.486 145.767 158.497 145.848C158.509 145.93 158.49 146.013 158.445 146.083C157.244 147.477 155.821 148.664 154.234 149.596C154.182 149.626 154.123 149.642 154.063 149.642ZM160.935 141.592C160.896 141.6 160.857 141.6 160.818 141.592C160.734 141.561 160.666 141.498 160.629 141.416C160.591 141.335 160.587 141.242 160.617 141.158C161.244 139.508 161.565 137.758 161.563 135.993C161.563 135.904 161.598 135.82 161.661 135.757C161.723 135.694 161.808 135.659 161.896 135.659C161.986 135.659 162.071 135.694 162.135 135.756C162.199 135.819 162.236 135.904 162.238 135.993C162.243 137.847 161.909 139.687 161.253 141.422C161.221 141.477 161.174 141.522 161.118 141.552C161.062 141.583 160.998 141.596 160.935 141.592Z" fill="#9AA6A5"/>
<path d="M186.444 97.2854C185.667 97.2854 184.908 97.055 184.263 96.6235C183.617 96.1919 183.114 95.5786 182.818 94.8611C182.521 94.1436 182.443 93.3541 182.596 92.5927C182.748 91.8312 183.122 91.132 183.672 90.5835C184.221 90.035 184.921 89.6619 185.683 89.5113C186.445 89.3608 187.234 89.4396 187.951 89.7378C188.668 90.0361 189.28 90.5402 189.71 91.1866C190.141 91.833 190.37 92.5924 190.368 93.3689C190.366 94.4083 189.952 95.4045 189.216 96.1387C188.48 96.873 187.483 97.2854 186.444 97.2854ZM186.444 90.1194C185.801 90.1194 185.173 90.31 184.638 90.667C184.104 91.0241 183.688 91.5316 183.442 92.1253C183.196 92.7191 183.131 93.3725 183.257 94.0028C183.382 94.6332 183.692 95.2122 184.146 95.6666C184.6 96.1211 185.179 96.4306 185.81 96.556C186.44 96.6814 187.094 96.617 187.687 96.3711C188.281 96.1251 188.789 95.7086 189.146 95.1742C189.503 94.6399 189.693 94.0116 189.693 93.3689C189.691 92.5077 189.348 91.6824 188.739 91.0734C188.13 90.4644 187.305 90.1214 186.444 90.1194Z" fill="#9AA6A5"/>
</svg>
