<svg width="162" height="152" viewBox="0 0 162 152" fill="none" xmlns="http://www.w3.org/2000/svg">
<path d="M5.95645 132.767C5.73646 132.767 5.52547 132.679 5.36991 132.524C5.21435 132.368 5.12695 132.157 5.12695 131.937V121.547C5.14463 121.339 5.24 121.145 5.39416 121.003C5.54833 120.861 5.75007 120.783 5.95943 120.783C6.1688 120.783 6.37053 120.861 6.5247 121.003C6.67887 121.145 6.77423 121.339 6.79191 121.547V131.937C6.79033 132.158 6.70162 132.369 6.54511 132.524C6.3886 132.679 6.177 132.767 5.95645 132.767Z" fill="#9BA7A7"/>
<path d="M11.1545 127.575H0.764913C0.556296 127.557 0.361924 127.462 0.220269 127.307C0.0786135 127.153 0 126.952 0 126.742C0 126.533 0.0786135 126.331 0.220269 126.177C0.361924 126.023 0.556296 125.927 0.764913 125.91H11.1545C11.3631 125.927 11.5575 126.023 11.6991 126.177C11.8408 126.331 11.9194 126.533 11.9194 126.742C11.9194 126.952 11.8408 127.153 11.6991 127.307C11.5575 127.462 11.3631 127.557 11.1545 127.575Z" fill="#9BA7A7"/>
<path d="M16.5849 53.5828C16.4425 53.5828 16.3059 53.5262 16.2052 53.4255C16.1044 53.3248 16.0479 53.1882 16.0479 53.0457V48.761C16.0479 48.6186 16.1044 48.482 16.2052 48.3812C16.3059 48.2805 16.4425 48.2239 16.5849 48.2239C16.7274 48.2239 16.864 48.2805 16.9647 48.3812C17.0654 48.482 17.122 48.6186 17.122 48.761V53.0457C17.122 53.1882 17.0654 53.3248 16.9647 53.4255C16.864 53.5262 16.7274 53.5828 16.5849 53.5828Z" fill="#9BA7A7"/>
<path d="M18.7275 51.4166H14.4189C14.2765 51.4166 14.1399 51.36 14.0391 51.2593C13.9384 51.1586 13.8818 51.022 13.8818 50.8796C13.8818 50.7371 13.9384 50.6005 14.0391 50.4998C14.1399 50.3991 14.2765 50.3425 14.4189 50.3425H18.7036C18.8461 50.3425 18.9827 50.3991 19.0834 50.4998C19.1841 50.6005 19.2407 50.7371 19.2407 50.8796C19.2407 51.022 19.1841 51.1586 19.0834 51.2593C18.9827 51.36 18.8461 51.4166 18.7036 51.4166H18.7275Z" fill="#9BA7A7"/>
<path d="M84.7941 152C121.269 152 150.837 148.142 150.837 143.383C150.837 138.624 121.269 134.766 84.7941 134.766C48.3195 134.766 18.751 138.624 18.751 143.383C18.751 148.142 48.3195 152 84.7941 152Z" fill="#E4E9EA"/>
<path fill-rule="evenodd" clip-rule="evenodd" d="M56.4248 19.884C61.4815 19.9596 66.3501 21.8138 70.176 25.1212C74.0019 28.4286 76.5407 32.9779 77.3468 37.9705C78.1529 42.9632 77.1748 48.0803 74.5842 52.4237C71.9936 56.7671 67.956 60.0593 63.1801 61.7226L57.0514 74.6125C56.9214 74.8863 56.7155 75.117 56.4581 75.2772C56.2008 75.4373 55.9028 75.5201 55.5997 75.5157C55.2967 75.5113 55.0013 75.4199 54.7487 75.2523C54.4961 75.0848 54.2969 74.8482 54.175 74.5708L48.4342 61.5078C43.7066 59.7053 39.7653 56.2948 37.3025 51.8751C34.8397 47.4554 34.013 42.3093 34.9675 37.3406C35.9221 32.3719 38.5969 27.8985 42.5221 24.706C46.4472 21.5135 51.3718 19.8062 56.4307 19.884H56.4248Z" fill="#E4E9EA"/>
<path d="M131.568 144.32H131.455L92.2477 143.723C91.156 143.706 90.0834 143.434 89.1162 142.927C88.1491 142.42 87.3144 141.693 86.6794 140.805C86.0443 139.917 85.6266 138.892 85.4598 137.813C85.293 136.734 85.3819 135.631 85.7192 134.593C87.5003 129.068 90.992 124.254 95.6895 120.845C100.387 117.435 106.047 115.608 111.851 115.628H112.269C118.143 115.691 123.841 117.644 128.52 121.197C133.198 124.75 136.608 129.715 138.246 135.356C138.551 136.396 138.611 137.492 138.42 138.559C138.228 139.625 137.791 140.632 137.144 141.501C136.496 142.369 135.655 143.075 134.687 143.562C133.719 144.049 132.651 144.305 131.568 144.308V144.32ZM111.875 117.43C106.449 117.412 101.159 119.12 96.7677 122.307C92.3768 125.494 89.1135 129.995 87.4498 135.159C87.1981 135.931 87.1314 136.751 87.2549 137.554C87.3784 138.356 87.6888 139.118 88.1609 139.778C88.633 140.438 89.2537 140.978 89.973 141.355C90.6922 141.731 91.4898 141.933 92.3014 141.945L131.502 142.541C132.314 142.554 133.118 142.375 133.848 142.02C134.578 141.665 135.215 141.143 135.707 140.497C136.198 139.85 136.532 139.098 136.679 138.299C136.827 137.501 136.785 136.679 136.557 135.899C135.026 130.625 131.837 125.983 127.463 122.661C123.089 119.338 117.761 117.513 112.269 117.454H111.875V117.43Z" fill="#9BA7A7"/>
<path d="M112.538 113.879C111.051 113.875 109.574 113.644 108.158 113.193C104.745 112.093 101.872 109.747 100.113 106.623C98.3544 103.499 97.8382 99.8261 98.668 96.338C99.4977 92.8499 101.612 89.803 104.59 87.8055C107.567 85.8079 111.189 85.0067 114.731 85.5617C118.273 86.1167 121.476 87.9871 123.699 90.7995C125.923 93.612 127.005 97.1596 126.728 100.734C126.451 104.309 124.836 107.648 122.206 110.085C119.576 112.521 116.123 113.876 112.538 113.879ZM112.508 86.9714C109.353 86.9739 106.314 88.1667 104 90.3114C101.686 92.4562 100.266 95.395 100.023 98.541C99.781 101.687 100.734 104.809 102.693 107.283C104.652 109.756 107.472 111.4 110.589 111.886C113.707 112.372 116.893 111.663 119.512 109.902C122.13 108.141 123.988 105.458 124.714 102.387C125.44 99.3162 124.981 96.0847 123.428 93.3376C121.876 90.5906 119.344 88.5303 116.339 87.5682C115.101 87.1734 113.808 86.9721 112.508 86.9714Z" fill="#9BA7A7"/>
<path d="M74.315 143.383H74.2075L35.0006 142.786C33.9089 142.769 32.8363 142.497 31.8692 141.99C30.902 141.483 30.0673 140.757 29.4323 139.868C28.7972 138.98 28.3795 137.955 28.2127 136.876C28.0459 135.797 28.1348 134.694 28.4721 133.656C30.2524 128.131 33.7439 123.316 38.4416 119.907C43.1393 116.497 48.7997 114.671 54.6041 114.691H55.0218C60.8967 114.755 66.5947 116.709 71.273 120.263C75.9513 123.817 79.3614 128.783 80.9986 134.426C81.307 135.466 81.3683 136.563 81.1778 137.631C80.9872 138.699 80.5501 139.708 79.9011 140.577C79.252 141.446 78.4091 142.152 77.4393 142.638C76.4696 143.124 75.3997 143.377 74.315 143.377V143.383ZM54.622 116.499C49.1963 116.481 43.9055 118.189 39.5146 121.376C35.1238 124.563 31.8605 129.064 30.1967 134.229C29.9451 135 29.8783 135.82 30.0019 136.623C30.1254 137.425 30.4357 138.187 30.9079 138.847C31.38 139.508 32.0007 140.048 32.7199 140.424C33.4391 140.8 34.2367 141.002 35.0484 141.014L74.2493 141.61C75.06 141.637 75.8648 141.465 76.5932 141.108C77.3216 140.751 77.9512 140.221 78.4266 139.564C78.9295 138.924 79.2693 138.171 79.4169 137.371C79.5645 136.57 79.5155 135.746 79.274 134.969C77.7461 129.692 74.5607 125.047 70.1888 121.721C65.817 118.395 60.4908 116.564 54.9979 116.499H54.622Z" fill="#9BA7A7"/>
<path d="M55.2187 112.883C52.5147 112.885 49.8654 112.122 47.577 110.682C45.2886 109.241 43.4547 107.183 42.2873 104.744C41.1199 102.305 40.6669 99.5851 40.9804 96.8994C41.294 94.2137 42.3615 91.6717 44.0593 89.5673C45.5784 87.6843 47.5498 86.2169 49.7894 85.302C52.0291 84.387 54.464 84.0543 56.867 84.3349C59.2699 84.6154 61.5627 85.5002 63.5313 86.9065C65.4999 88.3128 67.0802 90.1949 68.1246 92.3772C69.1691 94.5594 69.6438 96.9707 69.5043 99.386C69.3649 101.801 68.6158 104.142 67.3271 106.189C66.0384 108.237 64.2521 109.925 62.1347 111.095C60.0173 112.265 57.638 112.88 55.2187 112.883ZM45.4497 90.6772C43.8989 92.6091 42.9555 94.9573 42.7386 97.4251C42.5218 99.893 43.0412 102.37 44.2313 104.542C45.4214 106.715 47.2288 108.487 49.4252 109.633C51.6215 110.779 54.1082 111.248 56.5712 110.981C59.0341 110.715 61.3628 109.724 63.263 108.135C65.1632 106.545 66.5497 104.428 67.2473 102.051C67.9448 99.6738 67.9222 97.1433 67.1822 94.779C66.4423 92.4148 65.0182 90.3229 63.0899 88.7676C61.807 87.7329 60.3326 86.9614 58.7512 86.4973C57.1697 86.0333 55.5122 85.8857 53.8737 86.0631C52.2351 86.2405 50.6476 86.7393 49.2021 87.5311C47.7566 88.3228 46.4815 89.392 45.4497 90.6772Z" fill="#9BA7A7"/>
<path fill-rule="evenodd" clip-rule="evenodd" d="M113.671 20.8149C118.728 20.8906 123.596 22.7448 127.422 26.0522C131.248 29.3596 133.787 33.9089 134.593 38.9015C135.399 43.8942 134.421 49.0112 131.83 53.3546C129.24 57.6981 125.202 60.9903 120.426 62.6536L114.298 75.5435C114.168 75.8173 113.962 76.048 113.704 76.2081C113.447 76.3682 113.149 76.451 112.846 76.4466C112.543 76.4422 112.247 76.3508 111.995 76.1833C111.742 76.0158 111.543 75.7792 111.421 75.5017L105.674 62.4387C100.947 60.6363 97.0055 57.2257 94.5427 52.806C92.0799 48.3864 91.2532 43.2402 92.2078 38.2716C93.1623 33.3029 95.8371 28.8294 99.7623 25.637C103.687 22.4445 108.612 20.7372 113.671 20.8149Z" fill="#E4E9EA"/>
<path d="M111.195 51.518H111.142C110.695 51.5105 110.254 51.4149 109.845 51.2367C109.435 51.0585 109.065 50.8013 108.755 50.4797L102.477 44.0108C102.152 43.6907 101.895 43.309 101.72 42.8881C101.545 42.4672 101.455 42.0156 101.457 41.5597C101.459 41.1039 101.551 40.653 101.73 40.2334C101.908 39.8138 102.168 39.434 102.495 39.1163C102.822 38.7986 103.209 38.5493 103.633 38.383C104.058 38.2168 104.511 38.1369 104.967 38.1482C105.422 38.1594 105.871 38.2614 106.287 38.4484C106.703 38.6353 107.077 38.9033 107.388 39.2368L111.285 43.253L119.484 35.3042C120.142 34.6813 121.013 34.3351 121.919 34.3374C122.595 34.3487 123.253 34.56 123.809 34.9446C124.366 35.3292 124.796 35.8699 125.045 36.4985C125.295 37.1272 125.353 37.8156 125.212 38.4771C125.07 39.1385 124.737 39.7434 124.252 40.2155L113.582 50.5811C112.939 51.1929 112.083 51.5291 111.195 51.518ZM104.911 39.9887C104.588 39.9845 104.271 40.0762 104 40.2522C103.729 40.4282 103.516 40.6807 103.388 40.9776C103.26 41.2746 103.223 41.6027 103.282 41.9206C103.341 42.2385 103.493 42.5319 103.718 42.7636L109.996 49.2325C110.299 49.5435 110.713 49.7216 111.148 49.7278C111.578 49.7195 111.991 49.5564 112.311 49.2683L123.029 38.8847C123.26 38.6595 123.418 38.3712 123.486 38.056C123.553 37.7408 123.526 37.4127 123.407 37.113C123.288 36.8134 123.084 36.5554 122.819 36.3716C122.554 36.1878 122.241 36.0863 121.919 36.0799C121.476 36.0701 121.047 36.2352 120.725 36.5394L111.225 45.7653L106.081 40.4661C105.927 40.3132 105.745 40.1923 105.544 40.1103C105.343 40.0284 105.128 39.9871 104.911 39.9887Z" fill="#9BA7A7"/>
<path d="M55.6247 76.4088H55.5948C55.1192 76.4057 54.6548 76.2641 54.2584 76.0013C53.8621 75.7384 53.5509 75.3657 53.363 74.9288L47.7654 62.206C42.9038 60.2582 38.8775 56.6698 36.3851 52.0636C33.8928 47.4574 33.0916 42.1239 34.1207 36.9888C35.1498 31.8536 37.9441 27.2407 42.0189 23.9505C46.0937 20.6603 51.1917 18.9005 56.4284 18.9763C61.6652 19.0521 66.7101 20.9589 70.6879 24.3657C74.6657 27.7725 77.3253 32.4644 78.2052 37.6272C79.0852 42.79 78.1299 48.098 75.5052 52.6301C72.8805 57.1622 68.752 60.6325 63.836 62.4387L57.8685 75.0005C57.6679 75.4249 57.3501 75.7831 56.9525 76.0327C56.5549 76.2822 56.0941 76.4128 55.6247 76.4088ZM56.0961 20.7731C50.6862 20.7771 45.4944 22.9059 41.639 26.701C37.7837 30.4961 35.5733 35.6537 35.4841 41.0629C35.4308 45.29 36.6736 49.4321 39.0453 52.9315C41.4171 56.431 44.8039 59.12 48.75 60.6365L49.0961 60.7738L54.9981 74.2127C55.0464 74.3317 55.1288 74.4338 55.235 74.506C55.3412 74.5782 55.4664 74.6174 55.5948 74.6185C55.7269 74.6244 55.8578 74.5906 55.9705 74.5215C56.0833 74.4523 56.1727 74.351 56.2274 74.2306L62.5172 61.0005L62.8693 60.8752C67.4456 59.2799 71.3139 56.1239 73.7955 51.961C76.277 47.7981 77.2133 42.8943 76.44 38.11C75.6667 33.3257 73.2332 28.9665 69.5666 25.7973C65.8999 22.6282 61.2344 20.8515 56.3885 20.7791L56.0961 20.7731Z" fill="#9BA7A7"/>
<path d="M62.9646 52.4311H62.9168C62.4701 52.4242 62.0292 52.3289 61.6195 52.1506C61.2098 51.9724 60.8394 51.7148 60.5298 51.3927L56.0422 46.7738L51.4173 51.2614C50.7653 51.8945 49.8884 52.2426 48.9797 52.2292C48.0709 52.2158 47.2047 51.8419 46.5717 51.1898C45.9386 50.5378 45.5905 49.6609 45.6039 48.7522C45.6173 47.8434 45.9912 46.9772 46.6433 46.3442L51.2622 41.8625L46.7746 37.2436C46.1415 36.5915 45.7934 35.7147 45.8068 34.806C45.8202 33.8972 46.1941 33.031 46.8462 32.398C47.4982 31.7649 48.3751 31.4168 49.2838 31.4302C50.1926 31.4436 51.0588 31.8175 51.6918 32.4696L56.1914 37.0944L60.8103 32.6128C61.1301 32.296 61.5106 32.047 61.929 31.8809C62.3474 31.7148 62.795 31.6349 63.2451 31.646C64.153 31.6602 65.0184 32.0337 65.6515 32.6847C66.2846 33.3357 66.6339 34.2111 66.6227 35.1192C66.6026 36.0213 66.2273 36.8791 65.5784 37.5062L60.9654 42.0057L65.4471 46.6246C65.9172 47.1069 66.2345 47.7172 66.3591 48.379C66.4837 49.0409 66.4101 49.7248 66.1475 50.345C65.8849 50.9651 65.445 51.494 64.883 51.8651C64.321 52.2362 63.6619 52.4331 62.9884 52.4311H62.9646ZM56.0601 44.2555L61.7949 50.1574C61.9432 50.3123 62.1209 50.436 62.3177 50.521C62.5145 50.6061 62.7263 50.6509 62.9407 50.6528C63.1556 50.6567 63.3692 50.6181 63.5692 50.5391C63.7691 50.4601 63.9515 50.3423 64.1057 50.1926C64.2599 50.0428 64.3829 49.864 64.4677 49.6664C64.5525 49.4689 64.5974 49.2565 64.5997 49.0415C64.6041 48.8277 64.5657 48.6151 64.4868 48.4163C64.4079 48.2175 64.29 48.0364 64.1402 47.8838L58.4054 41.9759L64.3073 36.247C64.6196 35.9466 64.7999 35.5345 64.8086 35.1013C64.8134 34.6681 64.6466 34.2505 64.3448 33.9397C64.043 33.6289 63.6305 33.4501 63.1973 33.4423C62.9769 33.4273 62.7559 33.4606 62.5497 33.54C62.3436 33.6194 62.1572 33.7428 62.0038 33.9018L56.1019 39.6306L50.367 33.7287C50.0647 33.4177 49.6513 33.2395 49.2176 33.2334C48.7839 33.2272 48.3656 33.3936 48.0546 33.6959C47.7436 33.9982 47.5654 34.4117 47.5593 34.8453C47.5531 35.279 47.7195 35.6973 48.0218 36.0083L53.7566 41.9103L47.8547 47.6391C47.6885 47.7854 47.5538 47.9638 47.4587 48.1637C47.3636 48.3636 47.31 48.5806 47.3012 48.8018C47.2925 49.023 47.3287 49.2436 47.4078 49.4504C47.4868 49.6571 47.607 49.8457 47.7611 50.0046C47.9152 50.1635 48.0999 50.2895 48.3041 50.3749C48.5083 50.4604 48.7277 50.5034 48.949 50.5015C49.1704 50.4996 49.389 50.4528 49.5917 50.3639C49.7944 50.275 49.977 50.1459 50.1283 49.9844L56.0601 44.2555Z" fill="#9BA7A7"/>
<path d="M112.884 77.3397H112.848C112.373 77.3379 111.909 77.1975 111.512 76.9357C111.116 76.6739 110.804 76.302 110.616 75.8657L105.019 63.1369C100.187 61.1953 96.1825 57.6326 93.6914 53.0603C91.2003 48.4881 90.3783 43.1913 91.3665 38.0791C92.3546 32.9669 95.0913 28.3581 99.1068 25.0435C103.122 21.7289 108.166 19.9152 113.373 19.9138H113.713C119.657 20.0018 125.322 22.4473 129.463 26.7123C133.604 30.9773 135.881 36.7124 135.793 42.6562C135.709 47.1863 134.259 51.5855 131.633 55.278C129.008 58.9706 125.328 61.7846 121.077 63.3518L115.11 75.8837C114.917 76.3143 114.605 76.6805 114.211 76.9387C113.816 77.1969 113.355 77.3361 112.884 77.3397ZM113.361 21.7041C108.541 21.7078 103.874 23.3992 100.171 26.4848C96.468 29.5703 93.9622 33.8552 93.0887 38.5955C92.2153 43.3359 93.0293 48.2324 95.3894 52.4352C97.7496 56.6381 101.507 59.8817 106.009 61.6033L106.361 61.7345L112.257 75.1437C112.305 75.2627 112.388 75.3647 112.494 75.4369C112.6 75.5091 112.726 75.5483 112.854 75.5495C112.985 75.5508 113.114 75.5151 113.226 75.4465C113.338 75.3779 113.428 75.2791 113.486 75.1616L119.776 61.9315L120.128 61.8121C124.709 60.2197 128.582 57.0642 131.066 52.8999C133.551 48.7356 134.489 43.8288 133.716 39.0416C132.942 34.2544 130.506 29.8929 126.836 26.7233C123.166 23.5537 118.496 21.7787 113.648 21.7101H113.343L113.361 21.7041Z" fill="#9BA7A7"/>
<path d="M36.678 116.296C34.3763 116.14 32.0923 115.787 29.8511 115.24C29.812 115.23 29.775 115.213 29.7424 115.19C29.7098 115.166 29.6822 115.136 29.6611 115.102C29.6401 115.067 29.626 115.029 29.6197 114.989C29.6134 114.95 29.615 114.909 29.6244 114.87C29.6338 114.831 29.6508 114.794 29.6745 114.761C29.6982 114.728 29.7281 114.701 29.7624 114.68C29.7968 114.659 29.8349 114.645 29.8747 114.638C29.9145 114.632 29.9552 114.634 29.9944 114.643C32.2033 115.177 34.4529 115.526 36.7198 115.687C36.7979 115.693 36.8705 115.73 36.9219 115.789C36.9732 115.848 36.9993 115.925 36.9943 116.004C36.9928 116.044 36.9834 116.083 36.9667 116.119C36.9499 116.156 36.9262 116.188 36.8968 116.215C36.8674 116.243 36.833 116.264 36.7955 116.277C36.7579 116.291 36.718 116.298 36.678 116.296ZM23.4241 113.002C23.3807 113.001 23.3381 112.99 23.2988 112.972L23.0362 112.853C21.0261 111.917 19.1233 110.767 17.361 109.421C17.2986 109.373 17.258 109.302 17.2479 109.224C17.2378 109.145 17.2592 109.066 17.3073 109.004C17.3557 108.942 17.4263 108.901 17.5042 108.89C17.582 108.879 17.6612 108.898 17.725 108.944C19.4509 110.265 21.3158 111.394 23.2868 112.31L23.5434 112.429C23.6226 112.445 23.6922 112.491 23.7369 112.559C23.7817 112.626 23.798 112.708 23.7821 112.787C23.7663 112.866 23.7197 112.936 23.6525 112.981C23.5854 113.025 23.5032 113.042 23.4241 113.026V113.002ZM12.6287 104.737C12.584 104.736 12.5399 104.726 12.4997 104.706C12.4595 104.687 12.4241 104.658 12.396 104.623C10.9191 102.846 9.646 100.908 8.60063 98.8469C8.58217 98.8117 8.57092 98.7732 8.56754 98.7336C8.56416 98.694 8.56872 98.6542 8.58094 98.6164C8.59317 98.5786 8.61282 98.5436 8.63875 98.5135C8.66467 98.4834 8.69635 98.4588 8.73192 98.4411C8.80264 98.4072 8.88369 98.402 8.95818 98.4265C9.03266 98.4509 9.09484 98.5032 9.13174 98.5723C10.1588 100.596 11.4078 102.5 12.8555 104.248C12.8811 104.277 12.9005 104.311 12.9126 104.349C12.9247 104.386 12.9292 104.425 12.9258 104.464C12.9225 104.503 12.9114 104.541 12.8932 104.575C12.8749 104.61 12.85 104.64 12.8197 104.665C12.7662 104.71 12.6987 104.736 12.6287 104.737ZM6.44634 92.5928C6.37919 92.5935 6.3138 92.5714 6.26074 92.5303C6.20767 92.4891 6.17004 92.4313 6.15392 92.3661C5.59491 90.1201 5.29458 87.8176 5.25879 85.5034C5.25877 85.4253 5.28939 85.3503 5.34406 85.2945C5.39874 85.2387 5.47311 85.2066 5.5512 85.205C5.59081 85.2025 5.63049 85.2083 5.66775 85.2219C5.70501 85.2356 5.73902 85.2568 5.76764 85.2843C5.79625 85.3118 5.81884 85.3449 5.83397 85.3816C5.84911 85.4183 5.85645 85.4577 5.85555 85.4974C5.89139 87.7653 6.1857 90.0217 6.73278 92.2229C6.74264 92.2609 6.74491 92.3005 6.73944 92.3393C6.73398 92.3782 6.7209 92.4156 6.70094 92.4495C6.68098 92.4833 6.65454 92.5128 6.62314 92.5364C6.59174 92.56 6.55599 92.5771 6.51795 92.5869L6.44634 92.5928ZM6.25538 78.9808H6.18974C6.15125 78.9724 6.11482 78.9564 6.08255 78.9337C6.05029 78.9111 6.02281 78.8823 6.00173 78.849C5.98065 78.8158 5.96637 78.7786 5.95972 78.7398C5.95306 78.701 5.95417 78.6612 5.96297 78.6228C6.4746 76.3624 7.29593 74.1836 8.4037 72.148C8.44169 72.0783 8.50578 72.0266 8.58188 72.0042C8.65798 71.9818 8.73986 71.9906 8.8095 72.0286C8.87914 72.0666 8.93083 72.1307 8.95322 72.2068C8.9756 72.2829 8.96683 72.3648 8.92885 72.4344C7.84246 74.4194 7.039 76.5465 6.54182 78.7541C6.52576 78.8176 6.48878 78.874 6.43683 78.914C6.38488 78.9541 6.32097 78.9755 6.25538 78.9748V78.9808ZM12.766 67.1054C12.6884 67.1046 12.6139 67.0748 12.5571 67.0218C12.5292 66.9941 12.507 66.9611 12.4918 66.9247C12.4767 66.8884 12.4689 66.8493 12.4689 66.81C12.4689 66.7706 12.4767 66.7316 12.4918 66.6952C12.507 66.6588 12.5292 66.6259 12.5571 66.5981C14.1787 64.9582 15.9804 63.5068 17.9279 62.2716C17.9943 62.2338 18.0727 62.2228 18.1469 62.241C18.2211 62.2592 18.2855 62.3052 18.3268 62.3694C18.3681 62.4337 18.3832 62.5114 18.3689 62.5864C18.3547 62.6615 18.3122 62.7282 18.2502 62.7729C16.3321 63.984 14.5565 65.4073 12.957 67.0158C12.9051 67.0653 12.8375 67.0949 12.766 67.0994V67.1054Z" fill="#9BA7A7"/>
<path d="M153.917 89.9432C153.696 89.9432 153.484 89.856 153.328 89.7007C153.171 89.5453 153.083 89.3343 153.081 89.1138V78.7242C153.099 78.5156 153.194 78.3212 153.348 78.1796C153.502 78.0379 153.704 77.9593 153.914 77.9593C154.123 77.9593 154.325 78.0379 154.479 78.1796C154.633 78.3212 154.728 78.5156 154.746 78.7242V89.1138C154.746 89.3337 154.659 89.5447 154.503 89.7003C154.348 89.8559 154.137 89.9432 153.917 89.9432Z" fill="#9BA7A7"/>
<path d="M159.109 84.7514H148.719C148.51 84.7337 148.316 84.6384 148.174 84.4842C148.033 84.3301 147.954 84.1283 147.954 83.919C147.954 83.7096 148.033 83.5079 148.174 83.3537C148.316 83.1995 148.51 83.1042 148.719 83.0865H159.109C159.317 83.1042 159.512 83.1995 159.653 83.3537C159.795 83.5079 159.873 83.7096 159.873 83.919C159.873 84.1283 159.795 84.3301 159.653 84.4842C159.512 84.6384 159.317 84.7337 159.109 84.7514Z" fill="#9BA7A7"/>
<path d="M157.963 100.464C157.82 100.464 157.684 100.407 157.583 100.307C157.482 100.206 157.426 100.069 157.426 99.927V95.6422C157.426 95.4998 157.482 95.3632 157.583 95.2625C157.684 95.1618 157.82 95.1052 157.963 95.1052C158.105 95.1052 158.242 95.1618 158.343 95.2625C158.443 95.3632 158.5 95.4998 158.5 95.6422V99.927C158.5 99.9975 158.486 100.067 158.459 100.133C158.432 100.198 158.392 100.257 158.343 100.307C158.293 100.357 158.234 100.396 158.168 100.423C158.103 100.45 158.033 100.464 157.963 100.464Z" fill="#9BA7A7"/>
<path d="M160.105 98.3217H155.851C155.708 98.3217 155.572 98.2651 155.471 98.1644C155.37 98.0637 155.313 97.9271 155.313 97.7847C155.313 97.6422 155.37 97.5056 155.471 97.4049C155.572 97.3041 155.708 97.2476 155.851 97.2476H160.135C160.278 97.2476 160.414 97.3041 160.515 97.4049C160.616 97.5056 160.672 97.6422 160.672 97.7847C160.672 97.9271 160.616 98.0637 160.515 98.1644C160.414 98.2651 160.278 98.3217 160.135 98.3217H160.105Z" fill="#9BA7A7"/>
<path d="M106.85 5.37079C106.798 5.37048 106.747 5.35655 106.702 5.33037C106.657 5.3042 106.62 5.2667 106.594 5.22161C106.572 5.18867 106.558 5.15171 106.552 5.11303C106.545 5.07434 106.547 5.03475 106.556 4.99671C106.566 4.95867 106.583 4.92298 106.607 4.89187C106.631 4.86075 106.661 4.83487 106.695 4.81581C107.73 4.19894 108.796 3.63527 109.888 3.12699C109.96 3.09628 110.041 3.09466 110.115 3.12246C110.188 3.15026 110.248 3.20533 110.282 3.27618C110.299 3.31135 110.308 3.34958 110.31 3.38859C110.312 3.42761 110.307 3.46663 110.293 3.50334C110.28 3.54006 110.259 3.57372 110.233 3.60235C110.206 3.63098 110.174 3.654 110.138 3.67004C109.064 4.16724 108.016 4.72101 106.999 5.32903C106.953 5.35385 106.903 5.36812 106.85 5.37079Z" fill="#9BA7A7"/>
<path d="M157.121 26.4363C157.054 26.4353 156.989 26.4118 156.937 26.3696C156.885 26.3274 156.849 26.2689 156.834 26.2036C156.248 23.8056 155.397 21.48 154.298 19.2693C154.281 19.234 154.271 19.1957 154.268 19.1565C154.266 19.1173 154.271 19.078 154.284 19.0409C154.297 19.0037 154.317 18.9695 154.343 18.9401C154.369 18.9106 154.4 18.8867 154.435 18.8695C154.47 18.8511 154.508 18.84 154.547 18.8366C154.587 18.8333 154.626 18.838 154.663 18.8502C154.701 18.8625 154.735 18.8821 154.765 18.908C154.794 18.9338 154.818 18.9654 154.835 19.0007C155.953 21.2533 156.818 23.623 157.413 26.0664C157.431 26.1431 157.418 26.2238 157.377 26.2909C157.335 26.358 157.269 26.406 157.192 26.4244L157.121 26.4363ZM150.557 13.1645C150.513 13.1638 150.47 13.1533 150.43 13.1336C150.391 13.114 150.357 13.0858 150.33 13.0511C148.771 11.1346 147.011 9.39191 145.078 7.85332C145.047 7.82944 145.021 7.79952 145.002 7.76538C144.983 7.73124 144.97 7.69356 144.966 7.65458C144.961 7.61561 144.965 7.57613 144.976 7.53851C144.987 7.50089 145.006 7.46589 145.031 7.4356C145.054 7.40448 145.084 7.37848 145.119 7.35916C145.153 7.33984 145.19 7.32759 145.229 7.32314C145.268 7.31869 145.308 7.32212 145.345 7.33324C145.383 7.34436 145.418 7.36293 145.448 7.38786C147.416 8.95006 149.207 10.723 150.789 12.6751C150.839 12.7372 150.863 12.8163 150.855 12.8955C150.847 12.9747 150.809 13.0477 150.748 13.0988C150.688 13.1453 150.614 13.1687 150.539 13.1645H150.557ZM138.95 3.9565C138.904 3.95509 138.86 3.94496 138.818 3.92666C136.593 2.8505 134.255 2.02393 131.848 1.46205C131.769 1.44385 131.7 1.39497 131.657 1.32614C131.614 1.25731 131.6 1.17419 131.618 1.09505C131.637 1.01592 131.686 0.947256 131.754 0.904169C131.823 0.861082 131.906 0.847095 131.985 0.865296C134.437 1.43299 136.817 2.27371 139.081 3.37168C139.151 3.40756 139.205 3.46929 139.23 3.54387C139.256 3.61846 139.252 3.70007 139.218 3.77151C139.194 3.82694 139.154 3.874 139.103 3.90688C139.052 3.93975 138.992 3.957 138.932 3.9565H138.95ZM117.061 1.3427C116.992 1.34272 116.925 1.31896 116.872 1.27547C116.819 1.23197 116.782 1.1714 116.768 1.104C116.759 1.06597 116.758 1.02656 116.765 0.988115C116.772 0.949668 116.786 0.912952 116.807 0.880139C116.828 0.847325 116.856 0.81908 116.888 0.797058C116.92 0.775036 116.957 0.75969 116.995 0.75192C119.349 0.251573 121.749 -0.000450119 124.156 6.03486e-07H124.46C124.54 6.03486e-07 124.615 0.0314411 124.671 0.087398C124.727 0.143355 124.759 0.219244 124.759 0.298379C124.757 0.377036 124.725 0.452047 124.67 0.507676C124.614 0.563305 124.539 0.59523 124.46 0.596758H124.222C121.851 0.59404 119.487 0.842082 117.168 1.33674L117.061 1.3427Z" fill="#9BA7A7"/>
<path d="M157.957 37.4406C157.912 37.4439 157.867 37.4369 157.825 37.4203C157.783 37.4036 157.745 37.3776 157.715 37.3443C157.684 37.311 157.662 37.2712 157.649 37.2279C157.636 37.1846 157.633 37.139 157.641 37.0945C157.724 36.1217 157.766 35.1371 157.766 34.1525C157.766 33.9496 157.766 33.7467 157.766 33.5557C157.765 33.5165 157.772 33.4775 157.786 33.441C157.801 33.4045 157.822 33.3712 157.849 33.3429C157.876 33.3147 157.909 33.292 157.945 33.2763C157.981 33.2606 158.019 33.2521 158.058 33.2513C158.137 33.2527 158.212 33.2836 158.268 33.3378C158.324 33.3921 158.358 33.4656 158.363 33.5438C158.363 33.7467 158.363 33.9555 158.363 34.1405C158.363 35.1371 158.321 36.1456 158.237 37.1243C158.241 37.2031 158.213 37.2801 158.161 37.3391C158.109 37.3981 158.036 37.4345 157.957 37.4406Z" fill="#9BA7A7"/>
<path d="M157.426 46.5351C156.71 46.5351 156.009 46.3227 155.414 45.9246C154.818 45.5266 154.354 44.9609 154.079 44.299C153.805 43.6371 153.734 42.9088 153.873 42.2061C154.013 41.5034 154.358 40.858 154.865 40.3514C155.371 39.8448 156.017 39.4998 156.719 39.3601C157.422 39.2203 158.15 39.292 158.812 39.5662C159.474 39.8404 160.04 40.3046 160.438 40.9003C160.836 41.496 161.048 42.1964 161.048 42.9128C161.047 43.873 160.665 44.7934 159.986 45.4724C159.307 46.1514 158.386 46.5335 157.426 46.5351ZM157.426 39.8872C156.828 39.8872 156.243 40.0647 155.745 40.3971C155.248 40.7296 154.86 41.2021 154.631 41.755C154.402 42.3078 154.342 42.9161 154.459 43.503C154.575 44.0899 154.863 44.629 155.287 45.0522C155.71 45.4753 156.249 45.7635 156.836 45.8802C157.423 45.9969 158.031 45.937 158.584 45.708C159.137 45.479 159.609 45.0912 159.942 44.5937C160.274 44.0961 160.452 43.5112 160.452 42.9128C160.452 42.1104 160.133 41.3408 159.565 40.7734C158.998 40.206 158.228 39.8872 157.426 39.8872Z" fill="#9BA7A7"/>
</svg>
