<svg width="182" height="152" viewBox="0 0 182 152" fill="none" xmlns="http://www.w3.org/2000/svg">
<path d="M175.666 25.9587C175.48 25.9587 175.302 25.8851 175.17 25.7541C175.038 25.6231 174.963 25.4452 174.962 25.2593V16.4992C174.977 16.3234 175.057 16.1596 175.187 16.0402C175.317 15.9208 175.487 15.8546 175.664 15.8546C175.84 15.8546 176.01 15.9208 176.14 16.0402C176.27 16.1596 176.351 16.3234 176.366 16.4992V25.2593C176.364 25.4444 176.29 25.6215 176.159 25.7523C176.029 25.8832 175.851 25.9573 175.666 25.9587Z" fill="#9AA6A5"/>
<path d="M180.041 21.5786H171.286C171.101 21.5786 170.923 21.5049 170.792 21.3738C170.661 21.2426 170.587 21.0647 170.587 20.8792C170.587 20.6938 170.661 20.5159 170.792 20.3847C170.923 20.2536 171.101 20.1799 171.286 20.1799H180.041C180.227 20.1799 180.405 20.2536 180.536 20.3847C180.667 20.5159 180.741 20.6938 180.741 20.8792C180.741 21.0647 180.667 21.2426 180.536 21.3738C180.405 21.5049 180.227 21.5786 180.041 21.5786Z" fill="#9AA6A5"/>
<path d="M19.5766 40.467C19.4843 40.4677 19.3928 40.4501 19.3073 40.4152C19.2219 40.3804 19.1442 40.329 19.0787 40.264C19.0132 40.1989 18.9613 40.1216 18.9258 40.0364C18.8903 39.9512 18.8721 39.8599 18.8721 39.7676V31.0126C18.8871 30.8368 18.9675 30.673 19.0975 30.5536C19.2275 30.4343 19.3975 30.368 19.574 30.368C19.7505 30.368 19.9205 30.4343 20.0505 30.5536C20.1805 30.673 20.2609 30.8368 20.2759 31.0126V39.7676C20.2759 39.8594 20.2578 39.9504 20.2227 40.0352C20.1875 40.1201 20.136 40.1972 20.0711 40.2621C20.0061 40.3271 19.929 40.3786 19.8442 40.4137C19.7593 40.4489 19.6684 40.467 19.5766 40.467Z" fill="#9AA6A5"/>
<path d="M23.9513 36.092H15.1963C15.0205 36.077 14.8567 35.9965 14.7373 35.8665C14.618 35.7365 14.5518 35.5665 14.5518 35.39C14.5518 35.2136 14.618 35.0435 14.7373 34.9135C14.8567 34.7836 15.0205 34.7031 15.1963 34.6881H23.9513C24.0485 34.6798 24.1464 34.6918 24.2387 34.7233C24.3311 34.7548 24.4159 34.8051 24.4877 34.8711C24.5596 34.9371 24.617 35.0173 24.6562 35.1066C24.6955 35.196 24.7157 35.2925 24.7157 35.39C24.7157 35.4876 24.6955 35.5841 24.6562 35.6734C24.617 35.7627 24.5596 35.8429 24.4877 35.9089C24.4159 35.9749 24.3311 36.0253 24.2387 36.0568C24.1464 36.0883 24.0485 36.1003 23.9513 36.092Z" fill="#9AA6A5"/>
<path d="M148.385 142.796C148.265 142.796 148.149 142.748 148.064 142.663C147.979 142.577 147.931 142.462 147.931 142.341V138.732C147.931 138.612 147.979 138.496 148.064 138.411C148.149 138.326 148.265 138.278 148.385 138.278C148.506 138.278 148.621 138.326 148.706 138.411C148.791 138.496 148.839 138.612 148.839 138.732V142.341C148.839 142.462 148.791 142.577 148.706 142.663C148.621 142.748 148.506 142.796 148.385 142.796Z" fill="#9AA6A5"/>
<path d="M150.172 140.989H146.599C146.487 140.977 146.384 140.924 146.309 140.841C146.234 140.757 146.192 140.649 146.192 140.537C146.192 140.425 146.234 140.316 146.309 140.233C146.384 140.15 146.487 140.097 146.599 140.085H150.172C150.235 140.078 150.3 140.085 150.36 140.105C150.421 140.124 150.477 140.156 150.524 140.199C150.571 140.242 150.609 140.294 150.635 140.352C150.661 140.41 150.675 140.473 150.675 140.537C150.675 140.601 150.661 140.664 150.635 140.722C150.609 140.78 150.571 140.832 150.524 140.875C150.477 140.917 150.421 140.949 150.36 140.969C150.3 140.989 150.235 140.995 150.172 140.989Z" fill="#9AA6A5"/>
<path d="M2.31665 105.718C2.19615 105.718 2.08058 105.671 1.99538 105.585C1.91017 105.5 1.8623 105.385 1.8623 105.264V101.65C1.8623 101.529 1.91017 101.414 1.99538 101.329C2.08058 101.243 2.19615 101.195 2.31665 101.195C2.43714 101.195 2.55271 101.243 2.63791 101.329C2.72312 101.414 2.77099 101.529 2.77099 101.65V105.264C2.77099 105.324 2.75923 105.383 2.7364 105.438C2.71357 105.493 2.6801 105.543 2.63791 105.585C2.59572 105.628 2.54563 105.661 2.49051 105.684C2.43539 105.707 2.37631 105.718 2.31665 105.718Z" fill="#9AA6A5"/>
<path d="M4.12431 103.911H0.510005C0.389506 103.911 0.273942 103.863 0.188737 103.778C0.103531 103.693 0.0556641 103.577 0.0556641 103.457C0.0556641 103.336 0.103531 103.221 0.188737 103.136C0.273942 103.05 0.389506 103.003 0.510005 103.003H4.12431C4.24481 103.003 4.36037 103.05 4.44558 103.136C4.53078 103.221 4.57865 103.336 4.57865 103.457C4.57865 103.577 4.53078 103.693 4.44558 103.778C4.36037 103.863 4.24481 103.911 4.12431 103.911Z" fill="#9AA6A5"/>
<path d="M11.0731 51.6876C10.9526 51.6876 10.837 51.6398 10.7518 51.5545C10.6666 51.4693 10.6188 51.3538 10.6188 51.2333V47.6241C10.612 47.5607 10.6187 47.4966 10.6383 47.436C10.6579 47.3754 10.6901 47.3196 10.7327 47.2722C10.7753 47.2248 10.8274 47.1869 10.8856 47.161C10.9438 47.1351 11.0068 47.1216 11.0706 47.1216C11.1343 47.1216 11.1973 47.1351 11.2555 47.161C11.3137 47.1869 11.3658 47.2248 11.4084 47.2722C11.451 47.3196 11.4832 47.3754 11.5028 47.436C11.5224 47.4966 11.5291 47.5607 11.5223 47.6241V51.2333C11.523 51.2927 11.5119 51.3517 11.4896 51.4068C11.4673 51.4619 11.4344 51.512 11.3926 51.5542C11.3508 51.5965 11.301 51.63 11.2462 51.6529C11.1914 51.6758 11.1325 51.6876 11.0731 51.6876Z" fill="#9AA6A5"/>
<path d="M12.8739 49.8805H9.27489C9.21153 49.8872 9.14746 49.8806 9.08684 49.8609C9.02621 49.8413 8.9704 49.8092 8.92301 49.7665C8.87563 49.7239 8.83774 49.6718 8.8118 49.6136C8.78586 49.5554 8.77246 49.4924 8.77246 49.4287C8.77246 49.365 8.78586 49.302 8.8118 49.2438C8.83774 49.1856 8.87563 49.1335 8.92301 49.0909C8.9704 49.0483 9.02621 49.0161 9.08684 48.9965C9.14746 48.9768 9.21153 48.9702 9.27489 48.9769H12.8841C12.9475 48.9702 13.0115 48.9768 13.0722 48.9965C13.1328 49.0161 13.1886 49.0483 13.236 49.0909C13.2834 49.1335 13.3212 49.1856 13.3472 49.2438C13.3731 49.302 13.3865 49.365 13.3865 49.4287C13.3865 49.4924 13.3731 49.5554 13.3472 49.6136C13.3212 49.6718 13.2834 49.7239 13.236 49.7665C13.1886 49.8092 13.1328 49.8413 13.0722 49.8609C13.0115 49.8806 12.9475 49.8872 12.8841 49.8805H12.8739Z" fill="#9AA6A5"/>
<path d="M179.076 34.826C178.956 34.826 178.84 34.7781 178.755 34.6929C178.67 34.6077 178.622 34.4921 178.622 34.3716V30.7573C178.622 30.6368 178.67 30.5213 178.755 30.436C178.84 30.3508 178.956 30.303 179.076 30.303C179.197 30.303 179.312 30.3508 179.398 30.436C179.483 30.5213 179.531 30.6368 179.531 30.7573V34.3716C179.531 34.4921 179.483 34.6077 179.398 34.6929C179.312 34.7781 179.197 34.826 179.076 34.826Z" fill="#9AA6A5"/>
<path d="M180.884 33.0188H177.27C177.149 33.0188 177.034 32.971 176.949 32.8858C176.863 32.8006 176.815 32.685 176.815 32.5645C176.815 32.444 176.863 32.3285 176.949 32.2432C177.034 32.158 177.149 32.1102 177.27 32.1102H180.884C181.005 32.1102 181.12 32.158 181.205 32.2432C181.291 32.3285 181.338 32.444 181.338 32.5645C181.338 32.685 181.291 32.8006 181.205 32.8858C181.12 32.971 181.005 33.0188 180.884 33.0188Z" fill="#9AA6A5"/>
<path d="M34.2593 151.745C32.5276 151.628 30.8093 151.362 29.1237 150.948C29.0926 150.944 29.0628 150.933 29.0362 150.916C29.0096 150.9 28.9867 150.878 28.9692 150.852C28.9516 150.826 28.9397 150.796 28.9342 150.765C28.9287 150.734 28.9298 150.703 28.9373 150.672C28.9449 150.642 28.9587 150.613 28.978 150.588C28.9972 150.563 29.0214 150.543 29.0491 150.528C29.0768 150.513 29.1072 150.504 29.1385 150.502C29.1699 150.5 29.2013 150.504 29.2309 150.514C30.8919 150.919 32.5843 151.182 34.2899 151.301C34.3196 151.302 34.3488 151.309 34.3757 151.322C34.4025 151.335 34.4265 151.353 34.4461 151.376C34.4656 151.398 34.4805 151.424 34.4896 151.453C34.4987 151.481 34.502 151.511 34.4992 151.541C34.494 151.599 34.4659 151.654 34.421 151.692C34.3761 151.73 34.318 151.749 34.2593 151.745ZM24.2842 149.264C24.254 149.271 24.2225 149.271 24.1923 149.264L23.9932 149.172C22.4796 148.471 21.0482 147.605 19.7255 146.589C19.702 146.571 19.6824 146.549 19.6676 146.524C19.6528 146.499 19.6433 146.471 19.6395 146.442C19.6357 146.413 19.6377 146.383 19.6455 146.355C19.6532 146.327 19.6665 146.3 19.6846 146.277C19.7017 146.253 19.7236 146.233 19.7488 146.218C19.7741 146.203 19.8022 146.193 19.8314 146.189C19.8606 146.185 19.8903 146.187 19.9187 146.196C19.947 146.204 19.9733 146.218 19.996 146.236C21.295 147.236 22.6986 148.092 24.1821 148.789L24.3761 148.876C24.4033 148.887 24.4279 148.904 24.4484 148.926C24.4689 148.947 24.4848 148.972 24.4953 149C24.5058 149.028 24.5106 149.057 24.5094 149.087C24.5082 149.116 24.5011 149.145 24.4884 149.172C24.4661 149.204 24.4353 149.23 24.3992 149.247C24.3632 149.263 24.3234 149.269 24.2842 149.264ZM16.1469 143.046C16.1137 143.046 16.081 143.039 16.0509 143.025C16.0209 143.01 15.9944 142.99 15.9733 142.964C14.8613 141.625 13.9024 140.167 13.1145 138.615C13.0979 138.588 13.087 138.559 13.0824 138.528C13.0779 138.497 13.0797 138.466 13.088 138.436C13.0962 138.406 13.1106 138.378 13.1303 138.353C13.1499 138.329 13.1744 138.309 13.2021 138.295C13.2299 138.281 13.2602 138.273 13.2913 138.271C13.3225 138.269 13.3536 138.274 13.3828 138.285C13.412 138.295 13.4387 138.312 13.461 138.334C13.4834 138.356 13.501 138.382 13.5127 138.411C14.2867 139.932 15.2266 141.363 16.3154 142.678C16.3539 142.724 16.3729 142.783 16.3681 142.842C16.3633 142.901 16.3352 142.956 16.2898 142.995C16.248 143.025 16.1984 143.043 16.1469 143.046ZM11.5116 133.903C11.4614 133.903 11.4126 133.887 11.3728 133.857C11.333 133.826 11.3046 133.783 11.2921 133.734C10.8702 132.046 10.644 130.314 10.6182 128.573C10.6175 128.544 10.6227 128.514 10.6334 128.487C10.644 128.459 10.66 128.434 10.6804 128.413C10.7008 128.392 10.7252 128.375 10.7522 128.363C10.7792 128.351 10.8082 128.344 10.8377 128.344C10.8674 128.342 10.8971 128.347 10.9249 128.357C10.9527 128.368 10.9781 128.384 10.9996 128.404C11.0211 128.425 11.0382 128.449 11.0498 128.477C11.0615 128.504 11.0675 128.533 11.0675 128.563C11.0929 130.271 11.3139 131.97 11.726 133.627C11.7399 133.685 11.7305 133.745 11.7 133.796C11.6694 133.847 11.62 133.883 11.5626 133.898L11.5116 133.903ZM11.3687 123.662H11.3176C11.2889 123.656 11.2617 123.645 11.2377 123.628C11.2136 123.611 11.1931 123.59 11.1774 123.565C11.1617 123.54 11.1511 123.513 11.1463 123.484C11.1414 123.455 11.1424 123.425 11.1491 123.397C11.5317 121.694 12.1503 120.053 12.9869 118.522C13.016 118.47 13.0643 118.431 13.1215 118.414C13.1786 118.397 13.2402 118.402 13.2932 118.43C13.3191 118.444 13.3418 118.464 13.3602 118.487C13.3786 118.51 13.3922 118.536 13.4002 118.565C13.4083 118.593 13.4107 118.623 13.4072 118.653C13.4037 118.682 13.3945 118.71 13.38 118.736C12.5647 120.231 11.9616 121.832 11.5882 123.494C11.5749 123.542 11.5462 123.585 11.5066 123.615C11.467 123.645 11.4186 123.662 11.3687 123.662ZM16.2643 114.724C16.236 114.724 16.2079 114.719 16.1816 114.708C16.1553 114.698 16.1314 114.682 16.1112 114.662C16.0898 114.642 16.0729 114.617 16.0613 114.59C16.0497 114.563 16.0438 114.534 16.0438 114.504C16.0438 114.475 16.0497 114.445 16.0613 114.418C16.0729 114.391 16.0898 114.366 16.1112 114.346C17.3442 113.108 18.7144 112.016 20.1951 111.089C20.2455 111.058 20.3061 111.047 20.3642 111.059C20.4222 111.072 20.4732 111.106 20.5065 111.155C20.5224 111.18 20.5332 111.208 20.5383 111.238C20.5433 111.267 20.5425 111.297 20.5358 111.326C20.5292 111.355 20.5168 111.382 20.4995 111.406C20.4822 111.431 20.4603 111.451 20.435 111.467C18.9808 112.378 17.6347 113.452 16.4226 114.667C16.379 114.706 16.3223 114.726 16.2643 114.724Z" fill="#050606"/>
<path d="M34.2586 152H34.2229C32.4776 151.882 30.7457 151.614 29.0465 151.199C28.9226 151.169 28.8156 151.091 28.7491 150.982C28.6825 150.874 28.6619 150.743 28.6917 150.619C28.7215 150.495 28.7992 150.388 28.9079 150.322C29.0166 150.255 29.1472 150.235 29.2711 150.264C30.9203 150.667 32.6008 150.928 34.2944 151.045C34.3572 151.049 34.4187 151.066 34.4752 151.093C34.5316 151.121 34.582 151.16 34.6233 151.208C34.6647 151.255 34.6961 151.31 34.7159 151.37C34.7357 151.43 34.7434 151.493 34.7385 151.556C34.7231 151.674 34.6667 151.784 34.579 151.865C34.4913 151.946 34.378 151.994 34.2586 152ZM24.2836 149.519C24.2168 149.518 24.1509 149.504 24.0896 149.478L23.8854 149.386C22.3557 148.676 20.909 147.8 19.5717 146.773C19.4715 146.694 19.4042 146.581 19.3828 146.456C19.3693 146.329 19.4039 146.201 19.4798 146.099C19.5569 145.998 19.6707 145.932 19.7963 145.915C19.9234 145.901 20.0509 145.936 20.1537 146.012C21.4373 146.993 22.8238 147.832 24.2887 148.513L24.4826 148.605C24.5398 148.631 24.5913 148.667 24.6342 148.713C24.6772 148.758 24.7107 148.812 24.7328 148.871C24.7613 148.943 24.7715 149.022 24.7625 149.099C24.7535 149.177 24.7256 149.251 24.6812 149.315C24.6368 149.379 24.5773 149.431 24.5079 149.467C24.4386 149.502 24.3615 149.52 24.2836 149.519ZM16.1463 143.301C16.0755 143.3 16.0058 143.283 15.9417 143.254C15.8775 143.224 15.8203 143.181 15.7736 143.128C14.6501 141.773 13.681 140.297 12.8842 138.727C12.8602 138.67 12.8478 138.608 12.8478 138.546C12.8478 138.484 12.8602 138.422 12.8842 138.365C12.902 138.304 12.9321 138.248 12.9724 138.2C13.0128 138.152 13.0627 138.112 13.119 138.084C13.1753 138.055 13.2368 138.037 13.2999 138.032C13.363 138.027 13.4265 138.034 13.4868 138.054C13.547 138.073 13.6029 138.104 13.651 138.145C13.6992 138.186 13.7387 138.237 13.7674 138.293C14.5297 139.8 15.4596 141.216 16.5393 142.515C16.6132 142.615 16.6477 142.739 16.6364 142.864C16.6251 142.988 16.5688 143.103 16.4781 143.189C16.3842 143.264 16.2667 143.304 16.1463 143.301ZM11.511 134.158C11.404 134.159 11.3 134.124 11.2157 134.058C11.1313 133.992 11.0717 133.9 11.0464 133.796C10.6179 132.087 10.3884 130.335 10.3624 128.573C10.3615 128.511 10.3732 128.449 10.3969 128.391C10.4206 128.333 10.4557 128.28 10.5002 128.236C10.5431 128.19 10.5952 128.153 10.6532 128.127C10.7112 128.102 10.7738 128.089 10.8371 128.088C10.9022 128.084 10.9675 128.093 11.029 128.115C11.0904 128.137 11.1468 128.171 11.1946 128.216C11.2423 128.26 11.2806 128.314 11.3069 128.374C11.3332 128.433 11.347 128.498 11.3476 128.563C11.3742 130.25 11.5934 131.929 12.001 133.566C12.0244 133.689 12.0019 133.816 11.938 133.923C11.874 134.03 11.7729 134.11 11.6539 134.148C11.607 134.158 11.5589 134.162 11.511 134.158ZM11.368 123.918H11.2608C11.199 123.904 11.1406 123.878 11.0889 123.841C11.0371 123.805 10.9932 123.758 10.9595 123.705C10.9258 123.651 10.903 123.591 10.8925 123.529C10.8821 123.466 10.884 123.402 10.8984 123.341C11.2872 121.617 11.9143 119.955 12.7617 118.404C12.7921 118.349 12.8331 118.3 12.8825 118.261C12.9318 118.221 12.9884 118.192 13.0492 118.174C13.1099 118.157 13.1735 118.151 13.2363 118.158C13.2991 118.165 13.3598 118.185 13.4151 118.215C13.5245 118.279 13.6063 118.381 13.6448 118.501C13.6623 118.561 13.6676 118.624 13.6606 118.687C13.6536 118.749 13.6344 118.809 13.604 118.864C12.7978 120.337 12.2015 121.916 11.8326 123.555C11.8081 123.66 11.7487 123.752 11.6642 123.818C11.5797 123.884 11.4752 123.919 11.368 123.918ZM16.2688 114.979C16.1718 114.983 16.0757 114.958 15.9934 114.906C15.911 114.855 15.8462 114.78 15.8075 114.691C15.7687 114.602 15.758 114.503 15.7765 114.408C15.7951 114.312 15.8421 114.225 15.9114 114.157C17.1442 112.909 18.5142 111.804 19.9954 110.864C20.0752 110.811 20.1693 110.783 20.2653 110.784C20.3614 110.785 20.4548 110.815 20.5334 110.87C20.6119 110.926 20.6718 111.003 20.7052 111.093C20.7386 111.184 20.7438 111.282 20.7203 111.375C20.708 111.437 20.683 111.495 20.647 111.547C20.611 111.599 20.5647 111.643 20.511 111.676C19.0844 112.576 17.7641 113.634 16.5751 114.831C16.4929 114.914 16.3848 114.966 16.2688 114.979Z" fill="#9AA6A5"/>
<path d="M159.1 41.8351C159.037 41.8343 158.976 41.8105 158.929 41.7683C158.882 41.726 158.852 41.6681 158.845 41.6053C158.639 39.5837 158.298 37.5781 157.824 35.6019C157.81 35.5364 157.822 35.4679 157.857 35.4109C157.892 35.3538 157.948 35.3125 158.013 35.2956C158.046 35.2873 158.08 35.2855 158.113 35.2905C158.147 35.2955 158.179 35.3072 158.208 35.3247C158.237 35.3423 158.262 35.3655 158.282 35.3929C158.302 35.4204 158.316 35.4515 158.324 35.4845C158.8 37.4826 159.141 39.5104 159.345 41.5543C159.349 41.5872 159.346 41.6204 159.336 41.6521C159.327 41.6838 159.311 41.7134 159.29 41.739C159.27 41.7646 159.244 41.7859 159.215 41.8015C159.185 41.8171 159.154 41.8268 159.121 41.83L159.1 41.8351ZM156.262 29.9558C156.21 29.9555 156.16 29.9398 156.117 29.9107C156.074 29.8816 156.041 29.8405 156.022 29.7925C155.296 27.901 154.443 26.0608 153.469 24.2842C153.438 24.2244 153.431 24.1548 153.45 24.09C153.469 24.0253 153.513 23.9704 153.572 23.9371C153.601 23.9209 153.633 23.9107 153.667 23.9071C153.7 23.9035 153.734 23.9065 153.766 23.916C153.799 23.9255 153.829 23.9413 153.855 23.9624C153.881 23.9835 153.903 24.0096 153.919 24.0392C154.908 25.8357 155.776 27.6963 156.517 29.6087C156.541 29.6718 156.539 29.7416 156.513 29.8034C156.486 29.8653 156.436 29.9145 156.374 29.9405C156.338 29.9529 156.3 29.9581 156.262 29.9558ZM150.366 19.2712C150.326 19.2698 150.287 19.2595 150.251 19.2409C150.216 19.2223 150.185 19.196 150.161 19.164C148.951 17.5338 147.635 15.9853 146.22 14.5287C146.196 14.5049 146.177 14.4767 146.165 14.4456C146.152 14.4145 146.145 14.3811 146.145 14.3474C146.145 14.3138 146.152 14.2804 146.165 14.2493C146.177 14.2182 146.196 14.19 146.22 14.1662C146.269 14.1191 146.334 14.0928 146.402 14.0928C146.469 14.0928 146.534 14.1191 146.583 14.1662C148.012 15.6403 149.343 17.2076 150.565 18.8577C150.605 18.9118 150.623 18.9799 150.613 19.0469C150.604 19.1139 150.568 19.1744 150.514 19.215C150.471 19.2478 150.419 19.2673 150.366 19.2712ZM141.856 10.5264C141.798 10.5239 141.743 10.5044 141.697 10.4702C140.102 9.21357 138.424 8.06577 136.674 7.0346C136.645 7.0178 136.619 6.99517 136.598 6.9681C136.578 6.94102 136.563 6.91007 136.555 6.87712C136.547 6.84416 136.546 6.8099 136.551 6.77642C136.557 6.74294 136.569 6.71094 136.587 6.68236C136.622 6.62527 136.678 6.58419 136.743 6.56796C136.808 6.55172 136.877 6.56165 136.935 6.59558C138.704 7.63743 140.401 8.79718 142.014 10.0669C142.068 10.1092 142.103 10.1709 142.111 10.2388C142.12 10.3066 142.101 10.375 142.06 10.4294C142.035 10.4593 142.004 10.4835 141.968 10.5002C141.933 10.517 141.895 10.5259 141.856 10.5264ZM131.334 4.30345C131.301 4.31062 131.266 4.31062 131.232 4.30345C129.359 3.51492 127.436 2.85319 125.474 2.32273C125.406 2.30513 125.348 2.26136 125.313 2.20104C125.277 2.14073 125.267 2.06882 125.285 2.00112C125.303 1.93343 125.346 1.87549 125.407 1.84007C125.467 1.80465 125.539 1.79464 125.607 1.81224C127.592 2.34488 129.538 3.0135 131.431 3.81338C131.499 3.82624 131.559 3.86547 131.598 3.92243C131.636 3.97939 131.651 4.04943 131.638 4.11712C131.625 4.18482 131.586 4.24463 131.529 4.28341C131.472 4.32218 131.402 4.33673 131.334 4.32387V4.30345ZM101.333 2.40441C101.299 2.40877 101.265 2.40648 101.232 2.39768C101.2 2.38888 101.169 2.37374 101.142 2.35311C101.088 2.31147 101.053 2.25004 101.044 2.18234C101.035 2.11465 101.054 2.04623 101.095 1.99214C101.137 1.93805 101.199 1.90271 101.266 1.89391C103.244 1.34531 105.257 0.929182 107.29 0.648308C107.324 0.643615 107.358 0.645569 107.39 0.654061C107.423 0.662553 107.454 0.677415 107.481 0.697799C107.508 0.718183 107.531 0.743691 107.548 0.772863C107.565 0.802035 107.576 0.834302 107.581 0.867821C107.586 0.901341 107.584 0.935457 107.575 0.968221C107.567 1.00098 107.552 1.03175 107.532 1.05877C107.511 1.08579 107.486 1.10853 107.456 1.1257C107.427 1.14286 107.395 1.15411 107.362 1.1588C105.349 1.43513 103.357 1.84614 101.399 2.38909C101.378 2.39912 101.356 2.40435 101.333 2.40441ZM119.542 1.12307H119.506C117.549 0.871741 115.578 0.74556 113.605 0.7453H113.416C113.348 0.7453 113.283 0.718408 113.236 0.670539C113.188 0.622671 113.161 0.557748 113.161 0.490052C113.161 0.422356 113.188 0.357436 113.236 0.309568C113.283 0.2617 113.348 0.234804 113.416 0.234804H113.59C115.585 0.234215 117.578 0.362103 119.557 0.617676C119.625 0.621737 119.688 0.652527 119.733 0.703267C119.778 0.754007 119.801 0.820546 119.797 0.888241C119.793 0.955937 119.762 1.01925 119.712 1.06424C119.661 1.10924 119.594 1.13223 119.527 1.12817L119.542 1.12307Z" fill="#020202"/>
<path d="M159.101 42.0903C158.974 42.091 158.851 42.0443 158.757 41.9593C158.662 41.8743 158.603 41.7573 158.59 41.6309C158.384 39.621 158.043 37.6272 157.569 35.6632C157.546 35.5652 157.551 35.4625 157.586 35.3678C157.621 35.2732 157.683 35.191 157.764 35.1315C157.845 35.0719 157.943 35.0378 158.043 35.0335C158.144 35.0291 158.244 35.0546 158.33 35.1068C158.388 35.1424 158.438 35.1892 158.477 35.2444C158.517 35.2997 158.545 35.3622 158.56 35.4284C159.038 37.4363 159.379 39.4745 159.581 41.5288C159.594 41.663 159.553 41.7969 159.468 41.9015C159.383 42.0054 159.26 42.0714 159.126 42.0852L159.101 42.0903ZM156.262 30.2111C156.159 30.2118 156.057 30.181 155.971 30.1226C155.886 30.0642 155.82 29.9812 155.782 29.8844C155.055 28.0037 154.202 26.1737 153.23 24.4068C153.198 24.3478 153.177 24.2831 153.17 24.2162C153.163 24.1494 153.169 24.0817 153.188 24.0172C153.207 23.9527 153.238 23.8926 153.281 23.8403C153.323 23.788 153.375 23.7446 153.434 23.7125C153.492 23.6793 153.555 23.6586 153.621 23.6515C153.687 23.6445 153.754 23.6514 153.817 23.6717C153.883 23.6897 153.944 23.7207 153.998 23.7627C154.051 23.8048 154.096 23.8572 154.128 23.9167C155.124 25.7283 155.997 27.6043 156.742 29.5322C156.768 29.5944 156.782 29.6612 156.782 29.7287C156.782 29.7962 156.768 29.863 156.742 29.9252C156.687 30.0471 156.586 30.1424 156.461 30.1907C156.397 30.2117 156.329 30.2187 156.262 30.2111ZM150.366 19.5213C150.287 19.5213 150.209 19.5029 150.138 19.4675C150.067 19.432 150.005 19.3805 149.958 19.3171C148.755 17.6997 147.445 16.1647 146.037 14.7227C145.943 14.6255 145.892 14.4952 145.894 14.3602C145.894 14.2927 145.908 14.2259 145.934 14.1637C145.961 14.1014 145.999 14.0451 146.047 13.9978C146.095 13.9499 146.151 13.912 146.213 13.886C146.276 13.8601 146.342 13.8468 146.41 13.8468C146.477 13.8468 146.544 13.8601 146.606 13.886C146.668 13.912 146.725 13.9499 146.772 13.9978C148.21 15.4804 149.549 17.0561 150.78 18.7148C150.859 18.8236 150.892 18.9594 150.872 19.0925C150.853 19.2143 150.791 19.3252 150.697 19.4049C150.604 19.4847 150.484 19.5278 150.361 19.5265L150.366 19.5213ZM141.856 10.7663C141.741 10.7657 141.629 10.7261 141.54 10.654C139.953 9.40589 138.285 8.26496 136.547 7.23883C136.489 7.20426 136.438 7.15848 136.398 7.10414C136.358 7.04981 136.328 6.98801 136.312 6.92232C136.28 6.79227 136.3 6.65476 136.368 6.53945C136.437 6.42355 136.548 6.33924 136.678 6.30483C136.808 6.27042 136.946 6.28869 137.063 6.35567C138.839 7.40805 140.544 8.5762 142.168 9.85256C142.221 9.89392 142.266 9.94544 142.299 10.0042C142.332 10.0629 142.353 10.1276 142.362 10.1946C142.376 10.3281 142.338 10.462 142.254 10.5673C142.207 10.6284 142.147 10.678 142.078 10.7125C142.009 10.747 141.933 10.7654 141.856 10.7663ZM139.584 8.57632C140.36 9.08682 141.116 9.67389 141.856 10.2559C141.121 9.67389 140.36 9.11234 139.584 8.57632ZM131.335 4.55873C131.267 4.55745 131.199 4.54361 131.136 4.51789C129.274 3.73295 127.36 3.07628 125.408 2.55248C125.278 2.51607 125.168 2.42982 125.102 2.31255C125.068 2.25442 125.046 2.19022 125.038 2.12364C125.029 2.05707 125.033 1.98942 125.051 1.92457C125.087 1.795 125.172 1.6848 125.289 1.61789C125.405 1.55099 125.544 1.53278 125.673 1.56722C127.67 2.10405 129.628 2.77605 131.534 3.57858C131.642 3.62466 131.731 3.70667 131.786 3.81076C131.84 3.91484 131.858 4.03462 131.834 4.14985C131.811 4.26508 131.748 4.3687 131.657 4.44319C131.566 4.51769 131.452 4.5585 131.335 4.55873ZM128.154 2.86899C129.233 3.23314 130.293 3.63303 131.335 4.06865C130.28 3.6092 129.22 3.20932 128.154 2.86899ZM101.333 2.6801C101.198 2.69838 101.061 2.66213 100.952 2.57931C100.843 2.4965 100.772 2.37392 100.754 2.23852C100.735 2.10313 100.772 1.96603 100.854 1.85737C100.937 1.74871 101.06 1.67739 101.195 1.65911C103.186 1.10517 105.213 0.685624 107.26 0.403294C107.394 0.385902 107.529 0.422348 107.637 0.504643C107.744 0.586939 107.814 0.70837 107.832 0.84232C107.849 0.975549 107.813 1.1103 107.732 1.21733C107.651 1.32437 107.531 1.39506 107.398 1.41408C105.397 1.6906 103.417 2.0999 101.471 2.63927C101.426 2.65354 101.38 2.66044 101.333 2.65968V2.6801ZM107.326 0.929103C105.897 1.1282 104.462 1.39365 103.053 1.73058C104.462 1.37323 105.897 1.10778 107.326 0.908687V0.929103ZM119.542 1.39876H119.476C117.529 1.14726 115.568 1.02108 113.605 1.02099H113.416C113.281 1.02099 113.151 0.967209 113.056 0.871472C112.96 0.775736 112.906 0.645889 112.906 0.510497C112.906 0.375106 112.96 0.245259 113.056 0.149522C113.151 0.0537858 113.281 2.01969e-06 113.416 2.01969e-06H113.59C115.597 -0.00058617 117.603 0.127299 119.593 0.382873C119.729 0.391674 119.855 0.4539 119.945 0.55586C120.034 0.657819 120.08 0.79116 120.071 0.926552C120.062 1.06194 120 1.1883 119.898 1.27781C119.796 1.36732 119.663 1.41266 119.527 1.40386L119.542 1.39876Z" fill="#9AA6A5"/>
<path d="M159.331 47.8487C158.743 47.8497 158.168 47.6763 157.679 47.3505C157.189 47.0246 156.808 46.561 156.582 46.0182C156.356 45.4754 156.297 44.8778 156.411 44.3011C156.525 43.7245 156.808 43.1946 157.223 42.7786C157.638 42.3626 158.168 42.0791 158.744 41.964C159.321 41.849 159.918 41.9075 160.461 42.1322C161.005 42.357 161.469 42.7378 161.796 43.2265C162.122 43.7152 162.297 44.2898 162.297 44.8776C162.297 45.6647 161.984 46.4197 161.428 46.9767C160.872 47.5337 160.118 47.8474 159.331 47.8487ZM159.331 42.4222C158.844 42.4211 158.367 42.5647 157.962 42.8347C157.556 43.1047 157.24 43.4889 157.053 43.9388C156.866 44.3886 156.817 44.8837 156.912 45.3615C157.007 45.8393 157.241 46.2782 157.586 46.6226C157.93 46.9671 158.369 47.2015 158.847 47.2963C159.325 47.3911 159.82 47.3419 160.27 47.155C160.719 46.9682 161.104 46.652 161.374 46.2466C161.644 45.8412 161.787 45.3647 161.786 44.8776C161.785 44.2268 161.526 43.603 161.065 43.1428C160.605 42.6826 159.982 42.4235 159.331 42.4222Z" fill="#9AA6A5"/>
<path d="M118.949 12.8134H68.7575C65.3727 12.8134 62.1265 14.158 59.7331 16.5514C57.3397 18.9448 55.9951 22.191 55.9951 25.5758V132.831C55.9951 136.216 57.3397 139.462 59.7331 141.855C62.1265 144.249 65.3727 145.593 68.7575 145.593H118.949C122.334 145.593 125.58 144.249 127.974 141.855C130.367 139.462 131.712 136.216 131.712 132.831V25.5605C131.708 22.1783 130.361 18.9361 127.968 16.546C125.575 14.1559 122.332 12.8134 118.949 12.8134Z" fill="#E4E9EA"/>
<path d="M118.389 18.8015H103.947C103.283 18.8041 102.627 18.9581 102.031 19.2518C101.435 19.5454 100.914 19.9711 100.506 20.4964C99.711 21.4979 98.6996 22.3068 97.5479 22.8629C96.3961 23.4189 95.1337 23.7077 93.8547 23.7077C92.5757 23.7077 91.3133 23.4189 90.1615 22.8629C89.0097 22.3068 87.9984 21.4979 87.2029 20.4964C86.7958 19.9711 86.2744 19.5454 85.6782 19.2518C85.082 18.9581 84.4268 18.8041 83.7622 18.8015H69.3203C67.381 18.8042 65.5218 19.5758 64.1505 20.9471C62.7792 22.3184 62.0076 24.1776 62.0049 26.1169V132.254C62.0018 133.952 62.5943 135.598 63.6793 136.905C64.3799 137.72 65.2442 138.378 66.2161 138.837C67.188 139.297 68.2457 139.546 69.3203 139.569H118.389C119.464 139.546 120.521 139.297 121.493 138.837C122.465 138.378 123.33 137.72 124.03 136.905C125.115 135.598 125.708 133.952 125.704 132.254V26.1169C125.702 24.1776 124.93 22.3184 123.559 20.9471C122.188 19.5758 120.328 18.8042 118.389 18.8015Z" fill="white"/>
<path d="M107.653 94.2476H78.0139C77.3044 94.2476 76.624 93.9658 76.1224 93.4642C75.6207 92.9625 75.3389 92.2821 75.3389 91.5726C75.3389 90.8632 75.6207 90.1828 76.1224 89.6811C76.624 89.1795 77.3044 88.8976 78.0139 88.8976H107.653C108.363 88.8976 109.043 89.1795 109.545 89.6811C110.046 90.1828 110.328 90.8632 110.328 91.5726C110.328 92.2821 110.046 92.9625 109.545 93.4642C109.043 93.9658 108.363 94.2476 107.653 94.2476Z" fill="#E4E9EA"/>
<path d="M118.95 146.318H68.7579C65.1778 146.306 61.7478 144.879 59.2163 142.347C56.6848 139.815 55.2572 136.385 55.2451 132.805V25.5605C55.2519 21.9797 56.678 18.5477 59.211 16.0166C61.744 13.4855 65.1771 12.062 68.7579 12.0579H118.95C122.533 12.0606 125.968 13.4852 128.502 16.0187C131.035 18.5523 132.46 21.9877 132.463 25.5707V132.826C132.468 135.353 131.761 137.83 130.421 139.973L130.385 140.029L130.334 140.105C129.771 141.003 129.096 141.826 128.328 142.556C125.811 144.983 122.446 146.333 118.95 146.318ZM68.7579 13.5894C65.5811 13.5921 62.5352 14.8553 60.2888 17.1016C58.0425 19.348 56.7793 22.3939 56.7766 25.5707V132.826C56.7941 135.996 58.0626 139.031 60.3064 141.271C62.5501 143.511 65.5875 144.775 68.7579 144.787H118.95C122.052 144.789 125.032 143.58 127.256 141.417C127.936 140.773 128.533 140.046 129.032 139.253L129.119 139.11C130.303 137.22 130.931 135.035 130.931 132.805V25.5605C130.926 22.3855 129.661 19.3422 127.415 17.098C125.169 14.8539 122.125 13.5921 118.95 13.5894H68.7579Z" fill="#9AA6A5"/>
<path d="M118.389 140.335H69.3204C68.1476 140.316 66.9919 140.05 65.9285 139.555C64.8651 139.06 63.9179 138.346 63.1485 137.461C63.1695 137.485 63.1935 137.505 63.22 137.522C63.172 137.484 63.1276 137.441 63.0873 137.395C61.8928 135.948 61.2394 134.13 61.2393 132.254V26.1169C61.242 23.9745 62.0942 21.9206 63.6092 20.4057C65.1241 18.8907 67.178 18.0385 69.3204 18.0358H83.7623C84.5422 18.0387 85.3112 18.2184 86.0115 18.5615C86.7118 18.9046 87.3252 19.4021 87.8054 20.0165C88.5223 20.9285 89.4371 21.6657 90.4806 22.1724C91.5242 22.6792 92.6692 22.9422 93.8293 22.9416C94.9969 22.9468 96.1504 22.6866 97.2028 22.1808C98.2552 21.6749 99.1789 20.9366 99.9042 20.0216C100.383 19.4057 100.996 18.9068 101.697 18.5628C102.397 18.2187 103.167 18.0385 103.947 18.0358H118.389C120.531 18.0398 122.584 18.8925 124.099 20.4071C125.614 21.9218 126.466 23.9749 126.47 26.1169V132.254C126.477 134.127 125.832 135.944 124.648 137.395L124.607 137.441C123.834 138.334 122.88 139.054 121.808 139.553C120.736 140.052 119.571 140.319 118.389 140.335ZM64.2767 136.399L64.3227 136.45C64.9486 137.172 65.7191 137.755 66.5844 138.16C67.4497 138.566 68.3905 138.785 69.3459 138.804H118.415C119.371 138.785 120.312 138.566 121.177 138.159C122.043 137.753 122.813 137.169 123.438 136.445L123.484 136.399C124.439 135.229 124.962 133.765 124.964 132.254V26.1169C124.962 24.3807 124.271 22.7163 123.043 21.4886C121.815 20.2609 120.151 19.57 118.415 19.5673H103.947C103.398 19.5701 102.856 19.698 102.364 19.9412C101.871 20.1844 101.44 20.5366 101.104 20.9711C100.236 22.0679 99.13 22.953 97.8698 23.5597C96.6095 24.1664 95.2279 24.4787 93.8293 24.4731C92.4387 24.474 91.0661 24.1593 89.8149 23.5527C88.5636 22.946 87.4664 22.0634 86.6058 20.9711C86.2694 20.5366 85.8386 20.1844 85.346 19.9412C84.8533 19.698 84.3117 19.5701 83.7623 19.5673H69.3204C67.5837 19.5686 65.9186 20.2591 64.6906 21.4871C63.4626 22.7151 62.7721 24.3802 62.7707 26.1169V132.254C62.7729 133.765 63.2958 135.229 64.2512 136.399H64.2767Z" fill="#9AA6A5"/>
<path d="M74.9562 131.192H70.7395C69.9168 131.191 69.1281 130.863 68.5463 130.282C67.9645 129.7 67.6371 128.911 67.6357 128.088V123.856C67.6465 123.04 67.9782 122.261 68.5591 121.688C69.1401 121.115 69.9234 120.793 70.7395 120.793H74.9562C75.7785 120.793 76.5672 121.12 77.1492 121.701C77.7311 122.282 78.0587 123.07 78.0601 123.892V128.109C78.0533 128.928 77.7235 129.711 77.1423 130.289C76.5611 130.866 75.7755 131.191 74.9562 131.192ZM70.7395 122.325C70.3238 122.326 69.9255 122.492 69.631 122.785C69.3366 123.079 69.1699 123.476 69.1672 123.892V128.109C69.1686 128.525 69.3347 128.925 69.6292 129.219C69.9238 129.514 70.323 129.68 70.7395 129.681H74.9562C75.1627 129.681 75.3672 129.64 75.5579 129.561C75.7487 129.482 75.922 129.367 76.068 129.221C76.214 129.075 76.3299 128.901 76.4089 128.71C76.4879 128.52 76.5286 128.315 76.5286 128.109V123.856C76.5272 123.44 76.361 123.042 76.0662 122.748C75.7715 122.454 75.3724 122.289 74.9562 122.289L70.7395 122.325Z" fill="#9AA6A5"/>
<path d="M88.58 131.192H84.3685C83.5453 131.192 82.7558 130.865 82.1737 130.283C81.5917 129.701 81.2646 128.912 81.2646 128.088V123.856C81.2754 123.04 81.6071 122.261 82.188 121.688C82.769 121.115 83.5523 120.793 84.3685 120.793H88.58C89.4023 120.793 90.191 121.12 90.773 121.701C91.3549 122.282 91.6825 123.07 91.6839 123.892V128.109C91.6771 128.928 91.3473 129.711 90.7661 130.289C90.1849 130.866 89.3993 131.191 88.58 131.192ZM84.3685 122.325C83.9567 122.322 83.5602 122.481 83.2643 122.767C82.9684 123.054 82.7966 123.445 82.7859 123.856V128.073C82.7859 128.49 82.9516 128.89 83.2464 129.185C83.5413 129.48 83.9412 129.645 84.3582 129.645H88.5698C88.9868 129.645 89.3868 129.48 89.6816 129.185C89.9765 128.89 90.1422 128.49 90.1422 128.073V123.856C90.1408 123.44 89.9746 123.042 89.6798 122.748C89.3851 122.454 88.986 122.289 88.5698 122.289L84.3685 122.325Z" fill="#9AA6A5"/>
<path d="M102.186 131.192H97.9739C97.1512 131.191 96.3625 130.863 95.7807 130.282C95.1989 129.7 94.8715 128.911 94.8701 128.088V123.856C94.8715 123.034 95.1991 122.246 95.781 121.665C96.3629 121.084 97.1516 120.758 97.9739 120.758H102.186C103.008 120.758 103.797 121.084 104.378 121.665C104.96 122.246 105.288 123.034 105.289 123.856V128.073C105.291 128.482 105.213 128.887 105.057 129.266C104.902 129.644 104.674 129.988 104.386 130.278C104.097 130.568 103.754 130.798 103.377 130.954C102.999 131.111 102.594 131.192 102.186 131.192ZM97.9943 122.325C97.5782 122.325 97.1791 122.49 96.8843 122.784C96.5896 123.077 96.4234 123.476 96.422 123.892V128.109C96.422 128.526 96.5877 128.926 96.8825 129.221C97.1774 129.516 97.5773 129.681 97.9943 129.681H102.186C102.603 129.681 103.002 129.516 103.297 129.221C103.592 128.926 103.758 128.526 103.758 128.109V123.856C103.747 123.447 103.577 123.057 103.283 122.771C102.989 122.485 102.596 122.325 102.186 122.325H97.9943Z" fill="#9AA6A5"/>
<path d="M115.835 131.192H111.618C110.796 131.191 110.007 130.863 109.425 130.282C108.843 129.7 108.516 128.911 108.515 128.088V123.856C108.516 123.034 108.844 122.246 109.426 121.665C110.007 121.084 110.796 120.758 111.618 120.758H115.835C116.657 120.758 117.446 121.084 118.028 121.665C118.61 122.246 118.938 123.034 118.939 123.856V128.073C118.94 128.482 118.861 128.887 118.706 129.265C118.55 129.643 118.322 129.987 118.034 130.276C117.746 130.566 117.403 130.796 117.026 130.953C116.648 131.11 116.244 131.192 115.835 131.192ZM111.618 122.325C111.208 122.325 110.815 122.485 110.521 122.771C110.227 123.057 110.057 123.447 110.046 123.856V128.073C110.046 128.49 110.212 128.89 110.507 129.185C110.802 129.48 111.201 129.645 111.618 129.645H115.835C116.252 129.644 116.651 129.478 116.945 129.183C117.24 128.889 117.406 128.49 117.407 128.073V123.856C117.405 123.441 117.238 123.043 116.944 122.749C116.649 122.456 116.251 122.291 115.835 122.289L111.618 122.325Z" fill="#9AA6A5"/>
<path d="M111.212 101.747H74.997C72.8308 101.747 70.7532 100.886 69.2214 99.3545C67.6896 97.8228 66.8291 95.7452 66.8291 93.5789V56.8131C66.8291 54.6468 67.6896 52.5693 69.2214 51.0375C70.7532 49.5057 72.8308 48.6451 74.997 48.6451H111.212C113.378 48.6451 115.455 49.5057 116.987 51.0375C118.519 52.5693 119.379 54.6468 119.379 56.8131V93.5942C119.379 95.7605 118.519 97.8381 116.987 99.3699C115.455 100.902 113.378 101.762 111.212 101.762V101.747ZM74.997 50.1868C73.2369 50.1868 71.5489 50.886 70.3043 52.1306C69.0598 53.3752 68.3606 55.0632 68.3606 56.8233V93.6045C68.3606 95.3645 69.0598 97.0525 70.3043 98.2971C71.5489 99.5417 73.2369 100.241 74.997 100.241H111.212C112.972 100.241 114.66 99.5417 115.904 98.2971C117.149 97.0525 117.848 95.3645 117.848 93.6045V56.8131C117.848 55.053 117.149 53.365 115.904 52.1204C114.66 50.8758 112.972 50.1766 111.212 50.1766L74.997 50.1868Z" fill="#9AA6A5"/>
<path d="M107.653 95.0134H78.014C77.1014 95.0134 76.2263 94.6509 75.581 94.0056C74.9357 93.3604 74.5732 92.4852 74.5732 91.5726C74.5732 90.6601 74.9357 89.7849 75.581 89.1397C76.2263 88.4944 77.1014 88.1319 78.014 88.1319H107.653C108.566 88.1319 109.441 88.4944 110.086 89.1397C110.732 89.7849 111.094 90.6601 111.094 91.5726C111.094 92.4852 110.732 93.3604 110.086 94.0056C109.441 94.6509 108.566 95.0134 107.653 95.0134ZM78.014 89.6532C77.5076 89.6532 77.022 89.8543 76.6639 90.2124C76.3059 90.5704 76.1047 91.0561 76.1047 91.5624C76.1047 92.0688 76.3059 92.5544 76.6639 92.9125C77.022 93.2705 77.5076 93.4717 78.014 93.4717H107.653C108.16 93.4717 108.645 93.2705 109.003 92.9125C109.361 92.5544 109.563 92.0688 109.563 91.5624C109.563 91.0561 109.361 90.5704 109.003 90.2124C108.645 89.8543 108.16 89.6532 107.653 89.6532H78.014Z" fill="#9AA6A5"/>
<path d="M96.0584 89.6532H90.7238C90.5207 89.6532 90.3259 89.5725 90.1823 89.4289C90.0387 89.2853 89.958 89.0905 89.958 88.8874V74.6599C89.958 74.4568 90.0387 74.262 90.1823 74.1184C90.3259 73.9748 90.5207 73.8942 90.7238 73.8942H96.0584C96.2615 73.8942 96.4563 73.9748 96.5999 74.1184C96.7435 74.262 96.8242 74.4568 96.8242 74.6599V88.8976C96.8215 89.0989 96.7396 89.2911 96.5963 89.4325C96.453 89.5739 96.2598 89.6532 96.0584 89.6532ZM91.464 88.1217H95.2825V75.4257H91.464V88.1217Z" fill="#9AA6A5"/>
<path d="M84.7468 89.6532H79.3917C79.1886 89.6532 78.9939 89.5725 78.8503 89.4289C78.7066 89.2853 78.626 89.0905 78.626 88.8874V74.6599C78.626 74.4568 78.7066 74.262 78.8503 74.1184C78.9939 73.9748 79.1886 73.8942 79.3917 73.8942H84.7468C84.9499 73.8942 85.1447 73.9748 85.2883 74.1184C85.4319 74.262 85.5126 74.4568 85.5126 74.6599V88.8976C85.5086 89.0985 85.4263 89.2899 85.2833 89.431C85.1402 89.5722 84.9477 89.6519 84.7468 89.6532ZM80.1524 88.1217H83.976V75.4257H80.1524V88.1217Z" fill="#9AA6A5"/>
<path d="M105.11 75.4257H77.7626C77.1827 75.4152 76.6176 75.2403 76.1333 74.9213C75.6489 74.6023 75.265 74.1523 75.0263 73.6237C74.7358 73.0593 74.6109 72.4243 74.666 71.792C74.7211 71.1596 74.954 70.5558 75.3377 70.0502C75.4327 69.9284 75.535 69.8125 75.644 69.7031L91.0967 54.2861C91.394 53.9767 91.7507 53.7305 92.1454 53.5623C92.5402 53.3941 92.9649 53.3074 93.3939 53.3074C93.823 53.3074 94.2477 53.3941 94.6424 53.5623C95.0372 53.7305 95.3939 53.9767 95.6912 54.2861L97.0899 55.6797C97.1613 55.7508 97.218 55.8352 97.2568 55.9282C97.2956 56.0212 97.3156 56.1209 97.3159 56.2216C97.3161 56.3224 97.2965 56.4222 97.2582 56.5153C97.2198 56.6085 97.1635 56.6932 97.0925 56.7645C97.0214 56.8359 96.937 56.8926 96.844 56.9314C96.751 56.9702 96.6513 56.9903 96.5506 56.9905C96.4499 56.9907 96.3501 56.9711 96.2569 56.9328C96.1638 56.8945 96.0791 56.8382 96.0077 56.7671L94.6089 55.3683C94.4519 55.2016 94.2624 55.0688 94.0522 54.978C93.8419 54.8872 93.6153 54.8403 93.3863 54.8403C93.1573 54.8403 92.9306 54.8872 92.7204 54.978C92.5101 55.0688 92.3207 55.2016 92.1636 55.3683L76.7161 70.7853C76.6529 70.8468 76.5948 70.9134 76.5425 70.9844C76.3371 71.2626 76.2138 71.5928 76.1867 71.9375C76.1597 72.2823 76.2299 72.6277 76.3893 72.9345C76.5019 73.2061 76.6903 73.4397 76.932 73.6071C77.1737 73.7746 77.4585 73.869 77.7524 73.8789H105.1C105.303 73.8789 105.497 73.9596 105.641 74.1032C105.785 74.2468 105.865 74.4416 105.865 74.6446C105.865 74.8477 105.785 75.0425 105.641 75.1861C105.497 75.3297 105.303 75.4104 105.1 75.4104L105.11 75.4257Z" fill="#9AA6A5"/>
<path d="M107.407 89.6532H102.052C101.849 89.6532 101.654 89.5725 101.51 89.4289C101.367 89.2853 101.286 89.0905 101.286 88.8874V74.6599C101.286 74.4568 101.367 74.262 101.51 74.1184C101.654 73.9748 101.849 73.8942 102.052 73.8942H105.115C105.184 73.8948 105.252 73.9033 105.319 73.9197C106.028 74.1176 106.752 74.2543 107.484 74.3281C107.673 74.3459 107.849 74.4336 107.978 74.5743C108.106 74.7149 108.177 74.8983 108.178 75.0887V88.8721C108.179 88.9742 108.16 89.0755 108.122 89.1702C108.084 89.2649 108.027 89.3511 107.956 89.4238C107.884 89.4964 107.799 89.5541 107.704 89.5935C107.61 89.6329 107.509 89.6532 107.407 89.6532ZM102.813 88.1217H106.636V75.7677C106.086 75.6836 105.54 75.5694 105.003 75.4257H102.813V88.1217Z" fill="#9AA6A5"/>
<path d="M71.4795 31.421C70.9258 31.421 70.3947 31.201 70.0031 30.8095C69.6116 30.4179 69.3916 29.8868 69.3916 29.3331V24.2281C69.3916 23.6744 69.6116 23.1433 70.0031 22.7517C70.3947 22.3602 70.9258 22.1402 71.4795 22.1402C72.0333 22.1402 72.5644 22.3602 72.9559 22.7517C73.3475 23.1433 73.5675 23.6744 73.5675 24.2281V29.3331C73.5675 29.8868 73.3475 30.4179 72.9559 30.8095C72.5644 31.201 72.0333 31.421 71.4795 31.421ZM71.4795 23.6768C71.332 23.6768 71.1904 23.7354 71.0861 23.8398C70.9817 23.9441 70.9231 24.0857 70.9231 24.2332V29.3382C70.9231 29.4858 70.9817 29.6273 71.0861 29.7316C71.1904 29.836 71.332 29.8946 71.4795 29.8946C71.6271 29.8946 71.7686 29.836 71.873 29.7316C71.9773 29.6273 72.036 29.4858 72.036 29.3382V24.2332C72.036 24.1602 72.0216 24.0878 71.9936 24.0203C71.9656 23.9528 71.9247 23.8914 71.873 23.8398C71.8213 23.7881 71.76 23.7471 71.6925 23.7191C71.625 23.6912 71.5526 23.6768 71.4795 23.6768Z" fill="#9AA6A5"/>
<path d="M76.294 31.421C75.7402 31.421 75.2092 31.201 74.8176 30.8094C74.426 30.4179 74.2061 29.8868 74.2061 29.333V25.9331C74.2061 25.3794 74.426 24.8483 74.8176 24.4568C75.2092 24.0652 75.7402 23.8452 76.294 23.8452C76.8477 23.8452 77.3788 24.0652 77.7704 24.4568C78.1619 24.8483 78.3819 25.3794 78.3819 25.9331V29.333C78.3819 29.8868 78.1619 30.4179 77.7704 30.8094C77.3788 31.201 76.8477 31.421 76.294 31.421ZM76.294 25.3767C76.1464 25.3767 76.0049 25.4353 75.9005 25.5397C75.7962 25.644 75.7375 25.7856 75.7375 25.9331V29.333C75.7375 29.4806 75.7962 29.6222 75.9005 29.7265C76.0049 29.8309 76.1464 29.8895 76.294 29.8895C76.4416 29.8895 76.5831 29.8309 76.6874 29.7265C76.7918 29.6222 76.8504 29.4806 76.8504 29.333V25.9331C76.8504 25.7856 76.7918 25.644 76.6874 25.5397C76.5831 25.4353 76.4416 25.3767 76.294 25.3767Z" fill="#9AA6A5"/>
<path d="M81.1065 31.421C80.5527 31.421 80.0217 31.2011 79.6301 30.8095C79.2385 30.4179 79.0186 29.8869 79.0186 29.3331V27.6332C79.0186 27.0794 79.2385 26.5483 79.6301 26.1568C80.0217 25.7652 80.5527 25.5452 81.1065 25.5452C81.6602 25.5452 82.1913 25.7652 82.5829 26.1568C82.9744 26.5483 83.1944 27.0794 83.1944 27.6332V29.3331C83.1944 29.8869 82.9744 30.4179 82.5829 30.8095C82.1913 31.2011 81.6602 31.421 81.1065 31.421ZM81.1065 27.0767C80.9589 27.0767 80.8174 27.1353 80.713 27.2397C80.6087 27.344 80.55 27.4856 80.55 27.6332V29.3331C80.55 29.4807 80.6087 29.6222 80.713 29.7266C80.8174 29.8309 80.9589 29.8895 81.1065 29.8895C81.2541 29.8895 81.3956 29.8309 81.4999 29.7266C81.6043 29.6222 81.6629 29.4807 81.6629 29.3331V27.6332C81.6629 27.5601 81.6485 27.4877 81.6206 27.4202C81.5926 27.3527 81.5516 27.2914 81.4999 27.2397C81.4483 27.188 81.3869 27.147 81.3194 27.1191C81.2519 27.0911 81.1796 27.0767 81.1065 27.0767Z" fill="#9AA6A5"/>
<path d="M116.795 29.1544H111.69C111.137 29.1544 110.606 28.9345 110.214 28.5429C109.823 28.1513 109.603 27.6203 109.603 27.0665C109.603 26.5127 109.823 25.9817 110.214 25.5901C110.606 25.1986 111.137 24.9786 111.69 24.9786H116.795C117.349 24.9786 117.88 25.1986 118.272 25.5901C118.663 25.9817 118.883 26.5127 118.883 27.0665C118.883 27.6203 118.663 28.1513 118.272 28.5429C117.88 28.9345 117.349 29.1544 116.795 29.1544ZM111.69 26.5101C111.543 26.5101 111.401 26.5687 111.297 26.673C111.193 26.7774 111.134 26.9189 111.134 27.0665C111.134 27.2141 111.193 27.3556 111.297 27.46C111.401 27.5643 111.543 27.6229 111.69 27.6229H116.795C116.943 27.6229 117.085 27.5643 117.189 27.46C117.293 27.3556 117.352 27.2141 117.352 27.0665C117.352 26.9189 117.293 26.7774 117.189 26.673C117.085 26.5687 116.943 26.5101 116.795 26.5101H111.69Z" fill="#9AA6A5"/>
<path d="M107.8 74.808C105.114 74.809 102.488 74.0134 100.255 72.5219C98.0208 71.0304 96.2795 68.91 95.2509 66.4288C94.2224 63.9477 93.9527 61.2172 94.4761 58.5827C94.9995 55.9483 96.2924 53.5282 98.1913 51.6287C100.09 49.7291 102.51 48.4353 105.144 47.9109C107.778 47.3865 110.509 47.6551 112.99 48.6828C115.472 49.7104 117.593 51.4509 119.085 53.6841C120.578 55.9173 121.374 58.5429 121.374 61.2288C121.37 64.8281 119.939 68.2789 117.394 70.8244C114.85 73.37 111.399 74.8026 107.8 74.808Z" fill="#E4E9EA"/>
<path d="M107.805 71.6582C113.565 71.6582 118.235 66.9888 118.235 61.2288C118.235 55.4688 113.565 50.7994 107.805 50.7994C102.045 50.7994 97.376 55.4688 97.376 61.2288C97.376 66.9888 102.045 71.6582 107.805 71.6582Z" fill="white"/>
<path d="M107.8 75.5737C104.963 75.5747 102.189 74.7342 99.8292 73.1586C97.4695 71.583 95.6301 69.343 94.5436 66.7219C93.4571 64.1008 93.1723 61.2163 93.7252 58.4334C94.2781 55.6504 95.644 53.0939 97.6499 51.0872C99.6559 49.0805 102.212 47.7138 104.995 47.1599C107.777 46.6059 110.662 46.8897 113.283 47.9753C115.905 49.0609 118.146 50.8995 119.722 53.2586C121.299 55.6178 122.14 58.3914 122.14 61.2288C122.136 65.0312 120.624 68.6767 117.936 71.3659C115.248 74.0551 111.603 75.5683 107.8 75.5737ZM107.8 48.4204C105.266 48.4194 102.787 49.1702 100.68 50.5778C98.5716 51.9853 96.9285 53.9865 95.958 56.328C94.9876 58.6696 94.7334 61.2464 95.2276 63.7324C95.7219 66.2184 96.9424 68.502 98.7346 70.2943C100.527 72.0866 102.811 73.3071 105.297 73.8013C107.783 74.2956 110.359 74.0414 112.701 73.071C115.043 72.1005 117.044 70.4574 118.451 68.3495C119.859 66.2415 120.61 63.7635 120.609 61.2288C120.604 57.833 119.254 54.5775 116.853 52.1764C114.451 49.7752 111.196 48.4245 107.8 48.4204Z" fill="#9AA7A6"/>
<path d="M107.8 72.4291C105.585 72.4301 103.419 71.7741 101.576 70.544C99.7336 69.3139 98.2973 67.565 97.4488 65.5185C96.6003 63.472 96.3777 61.2199 96.8093 59.0469C97.2409 56.8739 98.3072 54.8778 99.8734 53.3109C101.44 51.744 103.435 50.6767 105.608 50.2442C107.781 49.8116 110.033 50.0331 112.08 50.8807C114.127 51.7282 115.876 53.1638 117.107 55.0058C118.338 56.8478 118.995 59.0134 118.995 61.2288C118.987 64.196 117.805 67.0393 115.708 69.1379C113.61 71.2365 110.767 72.4197 107.8 72.4291ZM107.8 51.5652C105.887 51.5641 104.017 52.1305 102.426 53.1925C100.836 54.2545 99.5956 55.7646 98.8632 57.5315C98.1307 59.2984 97.9388 61.2429 98.3118 63.119C98.6847 64.995 99.6056 66.7183 100.958 68.0708C102.311 69.4233 104.034 70.3443 105.91 70.7172C107.786 71.0901 109.73 70.8982 111.497 70.1657C113.264 69.4333 114.774 68.1933 115.836 66.6024C116.898 65.0116 117.465 63.1416 117.464 61.2288C117.454 58.6688 116.433 56.2162 114.623 54.406C112.813 52.5957 110.36 51.5746 107.8 51.5652Z" fill="#9AA7A6"/>
<path d="M107.8 64.5113C107.394 64.5113 107.005 64.3499 106.717 64.0627C106.43 63.7755 106.269 63.386 106.269 62.9798H104.737C104.741 63.6547 104.968 64.3094 105.383 64.842C105.797 65.3747 106.376 65.7555 107.029 65.9254V67.564H108.561V65.9254C109.258 65.7192 109.859 65.2717 110.257 64.663C110.654 64.0543 110.822 63.324 110.731 62.6028C110.64 61.8815 110.295 61.2163 109.758 60.7261C109.221 60.2359 108.527 59.9526 107.8 59.927C107.497 59.927 107.201 59.8372 106.949 59.6689C106.698 59.5006 106.501 59.2615 106.385 58.9816C106.269 58.7018 106.239 58.3938 106.298 58.0968C106.357 57.7997 106.503 57.5268 106.717 57.3126C106.932 57.0984 107.204 56.9526 107.502 56.8935C107.799 56.8344 108.107 56.8647 108.386 56.9806C108.666 57.0966 108.905 57.2928 109.074 57.5447C109.242 57.7965 109.332 58.0926 109.332 58.3955H110.863C110.859 57.72 110.631 57.0648 110.216 56.532C109.8 55.9993 109.22 55.6189 108.566 55.45V53.8164H107.035V55.45C106.333 55.6534 105.728 56.1006 105.327 56.7111C104.927 57.3215 104.757 58.055 104.85 58.7792C104.942 59.5035 105.29 60.171 105.831 60.6613C106.372 61.1516 107.07 61.4325 107.8 61.4534C108.206 61.4534 108.596 61.6148 108.883 61.902C109.17 62.1892 109.332 62.5787 109.332 62.9849C109.332 63.3911 109.17 63.7806 108.883 64.0678C108.596 64.355 108.206 64.5164 107.8 64.5164V64.5113Z" fill="#9AA7A6"/>
</svg>
