<svg width="205" height="152" viewBox="0 0 205 152" fill="none" xmlns="http://www.w3.org/2000/svg">
<path d="M107.786 152C141.839 152 169.444 148.838 169.444 144.937C169.444 141.037 141.839 137.875 107.786 137.875C73.7331 137.875 46.1279 141.037 46.1279 144.937C46.1279 148.838 73.7331 152 107.786 152Z" fill="#E4E9EA"/>
<path d="M148.639 143.854H69.917C66.8243 143.845 63.8373 142.727 61.4982 140.704C59.1591 138.68 57.623 135.885 57.1685 132.826L50.5967 86.8936L52.509 86.6259L59.0808 132.552C59.4663 135.154 60.7714 137.532 62.7593 139.254C64.7473 140.977 67.2866 141.93 69.917 141.941H148.639C151.27 141.932 153.81 140.979 155.798 139.256C157.786 137.533 159.091 135.155 159.475 132.552L166.047 86.6259L167.959 86.8936L161.387 132.826C160.934 135.886 159.398 138.682 157.059 140.705C154.72 142.729 151.732 143.846 148.639 143.854Z" fill="#9BA7A7"/>
<path d="M85.2276 137.052C84.3836 137.054 83.5699 136.738 82.9477 136.168C82.3255 135.598 81.9403 134.815 81.8683 133.974L79.1784 96.1043C79.1419 95.6672 79.1931 95.2273 79.3288 94.8102C79.4645 94.3932 79.6821 94.0075 79.9689 93.6756C80.2556 93.3437 80.6057 93.0724 80.9987 92.8776C81.3916 92.6828 81.8194 92.5684 82.2572 92.5411C83.1366 92.4812 84.0042 92.77 84.6722 93.345C85.3403 93.92 85.7551 94.735 85.8267 95.6135L88.5358 133.476C88.5695 133.914 88.5153 134.353 88.3762 134.769C88.2372 135.186 88.0162 135.569 87.7263 135.899C87.4397 136.232 87.0899 136.505 86.6971 136.702C86.3043 136.899 85.8763 137.016 85.4379 137.046H85.2276V137.052ZM82.4675 94.447H82.3719C82.1881 94.463 82.0092 94.5152 81.8455 94.6005C81.6819 94.6858 81.5367 94.8025 81.4182 94.944C81.2998 95.0856 81.2105 95.2491 81.1553 95.4252C81.1002 95.6014 81.0804 95.7866 81.0971 95.9704L83.787 133.833C83.8288 134.203 84.0121 134.542 84.2985 134.78C84.5848 135.018 84.952 135.135 85.3232 135.108C85.5102 135.095 85.6928 135.045 85.8603 134.961C86.0278 134.877 86.1767 134.76 86.2984 134.617C86.4219 134.478 86.516 134.316 86.5751 134.139C86.6342 133.963 86.6572 133.777 86.6426 133.591L83.9272 95.7218C83.8994 95.3605 83.7309 95.0244 83.458 94.786C83.185 94.5476 82.8293 94.4259 82.4675 94.447Z" fill="#9BA7A7"/>
<path d="M109.889 137.014C109.452 137.026 109.017 136.95 108.61 136.789C108.203 136.629 107.833 136.388 107.521 136.081C107.21 135.773 106.964 135.406 106.798 135.001C106.632 134.597 106.55 134.162 106.556 133.725V95.8494C106.538 95.1709 106.738 94.5045 107.125 93.9473C107.513 93.3901 108.068 92.9711 108.71 92.7515L109.348 94.5554C109.075 94.6434 108.839 94.8209 108.68 95.0592C108.52 95.2974 108.446 95.5826 108.468 95.8685V133.712C108.461 133.9 108.492 134.086 108.562 134.26C108.631 134.434 108.736 134.592 108.87 134.723C109.004 134.854 109.164 134.956 109.339 135.021C109.515 135.086 109.702 135.114 109.889 135.102V137.014Z" fill="#9BA7A7"/>
<path d="M109.896 137.014V135.102C110.084 135.114 110.272 135.086 110.449 135.02C110.625 134.954 110.786 134.851 110.92 134.719C111.054 134.587 111.159 134.427 111.227 134.252C111.296 134.076 111.326 133.888 111.317 133.7V95.8494C111.328 95.6304 111.283 95.4123 111.187 95.2152C111.091 95.018 110.948 94.8481 110.769 94.7211C110.561 94.586 110.324 94.5007 110.077 94.472C109.831 94.4432 109.581 94.4718 109.347 94.5554L108.71 92.7515C109.229 92.5666 109.785 92.506 110.331 92.5747C110.878 92.6433 111.401 92.8392 111.859 93.1467C112.288 93.4487 112.638 93.8509 112.877 94.3186C113.116 94.7863 113.237 95.3052 113.229 95.8303V133.712C113.238 134.151 113.158 134.587 112.993 134.994C112.828 135.4 112.582 135.769 112.271 136.078C111.959 136.387 111.587 136.629 111.179 136.79C110.771 136.951 110.334 137.027 109.896 137.014Z" fill="#9BA7A7"/>
<path d="M134.597 137.021H134.335C133.9 136.998 133.474 136.889 133.082 136.699C132.69 136.509 132.339 136.242 132.052 135.915C131.764 135.588 131.545 135.206 131.408 134.793C131.27 134.379 131.216 133.943 131.25 133.508L133.965 95.6199C134.047 94.7518 134.466 93.9503 135.132 93.3872C135.797 92.8241 136.657 92.5443 137.527 92.6076C138.396 92.671 139.207 93.0726 139.784 93.7262C140.361 94.3798 140.659 95.2336 140.614 96.1043L137.917 134.006C137.856 134.838 137.477 135.615 136.859 136.176C136.241 136.737 135.431 137.039 134.597 137.021ZM137.28 94.4789C137.103 94.4677 136.926 94.492 136.759 94.5505C136.592 94.6089 136.438 94.7002 136.307 94.819C136.175 94.9379 136.069 95.0818 135.994 95.2423C135.92 95.4029 135.878 95.5768 135.871 95.7537L133.162 133.598C133.142 133.783 133.16 133.972 133.217 134.15C133.273 134.328 133.366 134.493 133.49 134.633C133.613 134.773 133.765 134.887 133.934 134.965C134.104 135.044 134.288 135.086 134.475 135.089C134.662 135.115 134.852 135.102 135.033 135.051C135.214 134.999 135.382 134.911 135.527 134.791C135.672 134.671 135.791 134.522 135.875 134.354C135.96 134.186 136.008 134.002 136.018 133.814L138.702 95.9705C138.726 95.7873 138.711 95.6011 138.658 95.4241C138.606 95.247 138.516 95.083 138.396 94.9428C138.276 94.8027 138.127 94.6895 137.96 94.6106C137.793 94.5318 137.611 94.489 137.427 94.4853L137.28 94.4789Z" fill="#9BA7A7"/>
<path d="M45.6376 73.9156C44.0273 74.2442 42.5755 75.1076 41.5178 76.3654C40.4602 77.6232 39.8589 79.2017 39.8115 80.8444C39.8115 84.8028 43.3428 87.99 47.4606 87.9836H169.495C178.419 87.8561 179.994 76.0255 171.306 73.9156H45.6376Z" fill="#E4E9EA"/>
<path d="M167.226 82.3041L150.487 40.4636C149.854 38.8739 148.758 37.5114 147.34 36.5531C145.923 35.5949 144.25 35.0851 142.539 35.0901H76.0171C74.306 35.0851 72.633 35.5949 71.2155 36.5531C69.7979 37.5114 68.7014 38.8739 68.0684 40.4636L51.3297 82.3041L49.5576 81.5902L66.2836 39.7561C67.0557 37.8101 68.396 36.1418 70.1299 34.9684C71.8637 33.7951 73.9108 33.1711 76.0043 33.1778H142.539C144.632 33.1711 146.679 33.7951 148.413 34.9684C150.147 36.1418 151.487 37.8101 152.259 39.7561L168.998 81.5902L167.226 82.3041Z" fill="#9BA7A7"/>
<path d="M92.6092 26.9056H125.946C127.209 26.9073 128.419 27.4095 129.312 28.3021C130.204 29.1947 130.706 30.4049 130.708 31.6672V36.4224C130.708 37.6852 130.206 38.8963 129.313 39.7893C128.42 40.6823 127.209 41.1839 125.946 41.1839H92.6092C91.3469 41.1822 90.1367 40.68 89.2442 39.7874C88.3516 38.8948 87.8493 37.6847 87.8477 36.4224V31.6672C87.8493 30.4049 88.3516 29.1947 89.2442 28.3021C90.1367 27.4095 91.3469 26.9073 92.6092 26.9056Z" fill="#E4E9EA"/>
<path d="M53.5346 83.63H47.6065C47.3529 83.63 47.1098 83.5293 46.9304 83.3499C46.7511 83.1706 46.6504 82.9274 46.6504 82.6738C46.6504 82.4203 46.7511 82.1771 46.9304 81.9978C47.1098 81.8185 47.3529 81.7177 47.6065 81.7177H53.5346C53.7881 81.7177 54.0313 81.8185 54.2107 81.9978C54.39 82.1771 54.4907 82.4203 54.4907 82.6738C54.4907 82.9274 54.39 83.1706 54.2107 83.3499C54.0313 83.5293 53.7881 83.63 53.5346 83.63Z" fill="#9AA7A6"/>
<path d="M171.191 83.63H165.263C165.009 83.63 164.766 83.5293 164.587 83.3499C164.407 83.1706 164.307 82.9274 164.307 82.6738C164.307 82.4203 164.407 82.1771 164.587 81.9978C164.766 81.8185 165.009 81.7177 165.263 81.7177H171.191C171.444 81.7177 171.688 81.8185 171.867 81.9978C172.046 82.1771 172.147 82.4203 172.147 82.6738C172.147 82.9274 172.046 83.1706 171.867 83.3499C171.688 83.5293 171.444 83.63 171.191 83.63Z" fill="#9AA7A6"/>
<path fill-rule="evenodd" clip-rule="evenodd" d="M195.043 107.247C195.345 107.247 195.641 107.157 195.893 106.988C196.145 106.82 196.341 106.581 196.456 106.301C196.572 106.021 196.602 105.713 196.542 105.416C196.483 105.119 196.337 104.846 196.122 104.633C195.907 104.419 195.634 104.274 195.337 104.216C195.04 104.157 194.732 104.188 194.453 104.305C194.173 104.422 193.935 104.619 193.767 104.871C193.6 105.124 193.511 105.42 193.513 105.723C193.513 105.924 193.552 106.122 193.629 106.308C193.706 106.493 193.819 106.661 193.961 106.803C194.103 106.944 194.272 107.056 194.458 107.132C194.643 107.209 194.842 107.247 195.043 107.247Z" fill="#E4E9E9"/>
<path d="M195.043 107.565C194.677 107.565 194.319 107.457 194.015 107.253C193.711 107.05 193.474 106.761 193.334 106.423C193.195 106.084 193.158 105.712 193.23 105.354C193.302 104.995 193.479 104.666 193.738 104.407C193.997 104.149 194.327 103.974 194.686 103.903C195.045 103.832 195.417 103.87 195.755 104.011C196.092 104.152 196.381 104.39 196.583 104.694C196.785 104.999 196.893 105.357 196.891 105.723C196.891 105.966 196.844 106.206 196.751 106.429C196.658 106.653 196.521 106.857 196.35 107.028C196.178 107.199 195.974 107.335 195.75 107.427C195.526 107.519 195.285 107.566 195.043 107.565ZM195.043 104.512C194.803 104.512 194.569 104.583 194.37 104.716C194.171 104.849 194.016 105.038 193.924 105.26C193.832 105.481 193.808 105.724 193.855 105.959C193.902 106.194 194.017 106.41 194.186 106.579C194.356 106.749 194.572 106.864 194.807 106.911C195.042 106.958 195.285 106.934 195.506 106.842C195.728 106.75 195.917 106.595 196.05 106.396C196.183 106.197 196.254 105.963 196.254 105.723C196.252 105.402 196.124 105.095 195.897 104.869C195.671 104.642 195.364 104.514 195.043 104.512Z" fill="#9BA7A7"/>
<path fill-rule="evenodd" clip-rule="evenodd" d="M179.159 115.004C173.097 110.255 170.643 119.077 177.756 118.229L179.159 115.004Z" fill="#E4E9E9"/>
<path d="M176.851 118.605C175.06 118.605 173.753 117.936 173.268 116.725C173.069 116.216 173.041 115.655 173.191 115.129C173.341 114.602 173.659 114.14 174.097 113.812C175.372 112.837 177.361 113.175 179.356 114.749L178.967 115.253C177.208 113.882 175.531 113.531 174.505 114.322C174.174 114.562 173.932 114.905 173.817 115.297C173.701 115.689 173.719 116.108 173.868 116.489C174.314 117.617 175.78 118.146 177.724 117.917L177.8 118.554C177.485 118.59 177.168 118.607 176.851 118.605Z" fill="#9BA7A7"/>
<path fill-rule="evenodd" clip-rule="evenodd" d="M183.57 115.004C188.032 109.401 179.229 106.851 180.077 114.5L183.57 115.004Z" fill="#E4E9E9"/>
<path d="M183.799 115.202L183.295 114.806C184.532 113.257 184.832 111.753 184.118 110.784C183.875 110.454 183.531 110.214 183.139 110.098C182.746 109.983 182.326 110 181.944 110.147C180.714 110.625 180.127 112.238 180.376 114.449L179.739 114.52C179.458 112.002 180.191 110.147 181.702 109.554C182.212 109.353 182.774 109.325 183.302 109.474C183.829 109.624 184.293 109.943 184.621 110.383C185.526 111.626 185.22 113.417 183.799 115.202Z" fill="#9BA7A7"/>
<path fill-rule="evenodd" clip-rule="evenodd" d="M184.316 129.04L185.412 124.068L184.316 119.357H182.072L179.325 119.122L178.776 121.193V128.065C178.776 128.323 178.879 128.571 179.062 128.754C179.245 128.937 179.493 129.04 179.752 129.04H184.316Z" fill="#E4E9E9"/>
<path d="M184.57 129.359H179.745C179.406 129.359 179.082 129.224 178.843 128.985C178.604 128.746 178.47 128.422 178.47 128.084V121.136L179.107 118.803L182.122 119.064H184.589L185.736 124.094L184.57 129.359ZM179.107 121.238V128.065C179.107 128.234 179.174 128.396 179.294 128.515C179.413 128.635 179.576 128.702 179.745 128.702H184.047L185.08 124.049L184.054 119.657H182.065L179.553 119.447L179.107 121.238Z" fill="#9BA7A7"/>
<path fill-rule="evenodd" clip-rule="evenodd" d="M193.5 128.065V119.906C193.499 119.761 193.44 119.622 193.338 119.52C193.235 119.418 193.097 119.359 192.952 119.358H187.961L186.654 124.202L187.961 129.04H192.525C192.783 129.038 193.03 128.935 193.213 128.753C193.395 128.57 193.499 128.323 193.5 128.065Z" fill="#E4E9E9"/>
<path d="M192.525 129.359H187.719L186.323 124.202L187.719 119.039H192.952C193.182 119.039 193.403 119.13 193.565 119.293C193.728 119.455 193.819 119.676 193.819 119.906V128.065C193.822 128.235 193.79 128.405 193.726 128.563C193.662 128.721 193.567 128.865 193.446 128.986C193.325 129.106 193.182 129.201 193.024 129.266C192.865 129.33 192.696 129.361 192.525 129.359ZM188.204 128.721H192.525C192.694 128.721 192.857 128.654 192.976 128.535C193.096 128.415 193.163 128.253 193.163 128.084V119.925C193.161 119.865 193.136 119.807 193.094 119.764C193.051 119.722 192.994 119.697 192.933 119.695H188.185L186.967 124.221L188.204 128.721Z" fill="#9BA7A7"/>
<path fill-rule="evenodd" clip-rule="evenodd" d="M184.315 119.358H187.961V129.04H184.315V119.358Z" fill="#E4E9E9"/>
<path d="M188.28 129.359H183.996V119.039H188.28V129.359ZM184.634 128.721H187.642V119.676H184.634V128.721Z" fill="#9BA7A7"/>
<path d="M177.96 116.617H177.922C177.878 116.623 177.833 116.623 177.788 116.617C177.202 116.398 176.589 116.26 175.965 116.209C175.915 116.203 175.866 116.188 175.822 116.164C175.778 116.139 175.739 116.107 175.707 116.067C175.675 116.028 175.652 115.983 175.638 115.934C175.623 115.886 175.619 115.835 175.624 115.785C175.63 115.735 175.645 115.686 175.669 115.642C175.694 115.597 175.726 115.558 175.766 115.526C175.805 115.495 175.85 115.471 175.899 115.457C175.947 115.443 175.998 115.438 176.048 115.444C176.733 115.504 177.406 115.656 178.05 115.896" fill="#E4E9E9"/>
<path d="M177.921 116.935C177.839 116.936 177.757 116.923 177.679 116.897C177.118 116.686 176.53 116.553 175.933 116.502C175.746 116.484 175.574 116.393 175.454 116.248C175.335 116.104 175.277 115.917 175.295 115.731C175.319 115.546 175.413 115.377 175.557 115.259C175.628 115.201 175.711 115.158 175.8 115.133C175.888 115.107 175.981 115.101 176.073 115.112C176.781 115.173 177.478 115.33 178.144 115.578L177.928 116.177C177.312 115.95 176.669 115.805 176.015 115.743C176.015 115.743 175.945 115.743 175.945 115.801C175.945 115.858 175.945 115.864 175.996 115.871C176.651 115.923 177.294 116.067 177.909 116.298L178.004 116.935H177.921Z" fill="#9BA7A7"/>
<path d="M181.396 114.016C181.491 113.321 181.723 112.652 182.078 112.046C182.138 111.982 182.219 111.94 182.307 111.929C182.394 111.917 182.483 111.936 182.558 111.983C182.633 112.029 182.69 112.1 182.719 112.184C182.747 112.268 182.746 112.359 182.715 112.441C182.409 112.976 182.21 113.565 182.129 114.175C182.123 114.255 182.092 114.331 182.039 114.392" fill="#E4E9E9"/>
<path d="M182.295 114.602L181.804 114.188C181.889 113.515 182.106 112.865 182.441 112.276C182.447 112.27 182.451 112.264 182.454 112.257C182.457 112.25 182.459 112.242 182.459 112.234C182.459 112.227 182.457 112.219 182.454 112.212C182.451 112.205 182.447 112.198 182.441 112.193C182.429 112.181 182.413 112.175 182.397 112.175C182.38 112.175 182.364 112.181 182.352 112.193C182.026 112.762 181.81 113.386 181.715 114.035L181.077 113.965C181.182 113.224 181.429 112.509 181.804 111.861C181.851 111.782 181.914 111.713 181.988 111.658C182.063 111.603 182.147 111.564 182.237 111.543C182.372 111.51 182.513 111.518 182.644 111.565C182.774 111.613 182.887 111.698 182.969 111.81C183.051 111.922 183.098 112.055 183.103 112.194C183.109 112.332 183.074 112.47 183.002 112.588C182.72 113.079 182.536 113.62 182.46 114.182C182.45 114.336 182.392 114.483 182.295 114.602Z" fill="#9BA7A7"/>
<path d="M190.689 117.554C190.592 117.555 190.499 117.518 190.428 117.452C190.392 117.416 190.364 117.374 190.345 117.327C190.325 117.281 190.315 117.231 190.315 117.181C190.315 117.13 190.325 117.081 190.345 117.034C190.364 116.988 190.392 116.945 190.428 116.91C192.06 115.138 191.575 110.472 191.569 110.427C191.56 110.326 191.591 110.225 191.655 110.147C191.72 110.068 191.812 110.018 191.913 110.007C192.014 109.996 192.114 110.025 192.193 110.089C192.272 110.152 192.323 110.244 192.334 110.344C192.334 110.548 192.857 115.406 190.989 117.433C190.915 117.508 190.814 117.552 190.708 117.554H190.689Z" fill="#E4E9E9"/>
<path d="M190.689 117.872C190.513 117.87 190.343 117.805 190.211 117.688C190.075 117.56 189.995 117.384 189.988 117.198C189.981 117.012 190.047 116.831 190.173 116.693C191.696 115.049 191.238 110.504 191.238 110.459C191.219 110.364 191.221 110.266 191.243 110.172C191.264 110.078 191.305 109.989 191.362 109.911C191.42 109.833 191.493 109.768 191.577 109.72C191.661 109.672 191.753 109.641 191.85 109.631C191.946 109.62 192.043 109.63 192.135 109.658C192.228 109.687 192.313 109.735 192.386 109.798C192.459 109.862 192.518 109.94 192.56 110.027C192.601 110.114 192.624 110.209 192.627 110.306C192.627 110.516 193.169 115.514 191.206 117.643C191.14 117.715 191.06 117.772 190.971 117.811C190.883 117.851 190.787 117.872 190.689 117.872ZM191.932 110.319C191.917 110.323 191.902 110.332 191.892 110.345C191.882 110.357 191.876 110.373 191.875 110.389C191.875 110.434 192.391 115.233 190.645 117.127C190.635 117.14 190.63 117.155 190.63 117.171C190.63 117.187 190.635 117.203 190.645 117.216H190.689C190.704 117.22 190.719 117.22 190.734 117.216C192.155 115.68 192.181 112.072 192.009 110.376C192.006 110.359 191.996 110.343 191.982 110.333C191.968 110.322 191.95 110.317 191.932 110.319Z" fill="#9BA7A7"/>
<path d="M194.558 112.231H194.475C194.426 112.22 194.38 112.199 194.339 112.17C194.298 112.141 194.263 112.104 194.237 112.061C194.21 112.019 194.192 111.971 194.184 111.921C194.176 111.872 194.177 111.821 194.189 111.772C194.366 111.091 194.657 110.444 195.049 109.86C195.865 108.573 197.154 107.657 198.638 107.31C198.731 107.298 198.826 107.321 198.904 107.374C198.982 107.427 199.037 107.508 199.06 107.6C199.082 107.691 199.069 107.788 199.024 107.871C198.979 107.954 198.905 108.018 198.816 108.05C197.529 108.348 196.409 109.14 195.699 110.255C195.355 110.773 195.097 111.344 194.934 111.944C194.913 112.028 194.865 112.102 194.797 112.155C194.728 112.208 194.645 112.237 194.558 112.238V112.231Z" fill="#E4E9E9"/>
<path d="M194.558 112.55C194.505 112.556 194.452 112.556 194.399 112.55C194.219 112.507 194.064 112.396 193.966 112.24C193.868 112.083 193.836 111.895 193.876 111.715C194.067 110.999 194.373 110.319 194.781 109.701C195.644 108.347 197 107.383 198.561 107.011C198.651 106.988 198.744 106.984 198.836 106.998C198.927 107.012 199.015 107.045 199.094 107.093C199.173 107.141 199.242 107.204 199.296 107.279C199.351 107.354 199.39 107.439 199.411 107.529C199.433 107.619 199.436 107.712 199.421 107.804C199.407 107.895 199.374 107.982 199.325 108.061C199.276 108.14 199.212 108.208 199.137 108.262C199.062 108.316 198.977 108.354 198.886 108.375C197.679 108.655 196.631 109.4 195.967 110.446C195.646 110.933 195.401 111.466 195.24 112.027C195.203 112.179 195.115 112.313 194.991 112.408C194.867 112.503 194.714 112.553 194.558 112.55ZM198.727 107.61C197.324 107.944 196.107 108.814 195.336 110.032C194.967 110.585 194.689 111.194 194.514 111.836C194.512 111.853 194.515 111.87 194.525 111.884C194.534 111.898 194.548 111.908 194.565 111.912C194.579 111.912 194.593 111.906 194.605 111.897C194.616 111.888 194.624 111.876 194.628 111.861C194.802 111.226 195.078 110.624 195.444 110.077C196.194 108.892 197.38 108.049 198.746 107.731C198.762 107.726 198.776 107.716 198.784 107.702C198.792 107.687 198.795 107.67 198.791 107.654C198.787 107.641 198.778 107.629 198.766 107.621C198.755 107.613 198.741 107.609 198.727 107.61Z" fill="#9BA7A7"/>
<path fill-rule="evenodd" clip-rule="evenodd" d="M190.402 107.521L191.148 106.622C191.301 106.443 191.295 106.392 191.065 106.335L189.905 106.048C189.771 106.016 189.765 105.978 189.701 105.87L189.108 104.888C188.994 104.69 188.917 104.69 188.796 104.888L188.21 105.87C188.146 105.978 188.139 106.016 188.006 106.048L186.839 106.335C186.616 106.392 186.603 106.443 186.756 106.622L187.508 107.521C187.546 107.569 187.573 107.624 187.587 107.684C187.601 107.743 187.603 107.805 187.591 107.865L187.502 108.98C187.502 109.216 187.502 109.242 187.738 109.152L188.764 108.725C188.888 108.681 189.023 108.681 189.147 108.725L190.166 109.152C190.383 109.242 190.434 109.216 190.409 108.98L190.319 107.865C190.308 107.805 190.309 107.743 190.323 107.684C190.338 107.624 190.365 107.569 190.402 107.521Z" fill="#E4E9E9"/>
<path d="M190.332 109.522C190.235 109.517 190.14 109.493 190.052 109.452L189.019 109.025C188.976 109.012 188.929 109.012 188.885 109.025L187.866 109.446C187.785 109.493 187.694 109.517 187.601 109.517C187.508 109.517 187.417 109.493 187.337 109.446C187.269 109.385 187.22 109.308 187.193 109.221C187.166 109.135 187.163 109.043 187.184 108.955L187.273 107.846C187.281 107.808 187.281 107.769 187.273 107.731L186.521 106.832C186.454 106.771 186.404 106.694 186.376 106.608C186.348 106.522 186.343 106.43 186.361 106.341C186.396 106.259 186.452 106.187 186.524 106.133C186.595 106.079 186.68 106.045 186.769 106.035L187.942 105.717L188.535 104.735C188.572 104.65 188.631 104.577 188.707 104.524C188.782 104.47 188.87 104.437 188.962 104.429C189.054 104.438 189.141 104.472 189.216 104.525C189.291 104.579 189.351 104.651 189.389 104.735L189.995 105.749L191.148 106.035C191.239 106.044 191.325 106.078 191.398 106.131C191.47 106.185 191.528 106.258 191.563 106.341C191.58 106.431 191.574 106.525 191.545 106.612C191.516 106.699 191.465 106.777 191.397 106.839L190.651 107.731C190.641 107.769 190.641 107.808 190.651 107.846L190.74 108.961C190.759 109.048 190.754 109.139 190.728 109.224C190.701 109.308 190.652 109.385 190.587 109.446C190.514 109.5 190.424 109.527 190.332 109.522ZM187.145 106.59L187.783 107.317C187.845 107.397 187.891 107.489 187.918 107.588C187.944 107.686 187.95 107.789 187.936 107.89L187.84 108.795L188.643 108.458C188.848 108.378 189.076 108.378 189.281 108.458L190.084 108.795L190.014 107.916C189.999 107.815 190.005 107.712 190.032 107.613C190.058 107.515 190.104 107.423 190.167 107.342L190.772 106.615L189.842 106.38C189.759 106.367 189.681 106.334 189.615 106.284C189.548 106.234 189.495 106.168 189.459 106.093L188.968 105.277L188.497 106.061C188.459 106.142 188.404 106.213 188.334 106.268C188.264 106.324 188.182 106.362 188.095 106.38L187.145 106.59Z" fill="#9BA7A7"/>
<path fill-rule="evenodd" clip-rule="evenodd" d="M197.873 116.298L198.619 115.393C198.778 115.221 198.766 115.17 198.536 115.112L197.376 114.825C197.242 114.825 197.236 114.755 197.172 114.647L196.579 113.665C196.465 113.468 196.388 113.468 196.273 113.665L195.68 114.647C195.617 114.755 195.61 114.794 195.477 114.825L194.316 115.112C194.087 115.17 194.074 115.221 194.234 115.393L194.979 116.298C195.017 116.346 195.044 116.402 195.058 116.461C195.072 116.52 195.074 116.582 195.062 116.642L194.973 117.758C194.973 117.993 194.973 118.019 195.209 117.93L196.235 117.503C196.359 117.458 196.494 117.458 196.618 117.503L197.637 117.93C197.854 118.019 197.905 117.993 197.88 117.758L197.79 116.642C197.779 116.582 197.78 116.52 197.794 116.461C197.809 116.402 197.836 116.346 197.873 116.298Z" fill="#E4E9E9"/>
<path d="M197.803 118.293C197.706 118.29 197.611 118.268 197.522 118.229L196.496 117.802C196.45 117.789 196.402 117.789 196.356 117.802L195.336 118.223C195.256 118.27 195.164 118.295 195.071 118.295C194.978 118.295 194.887 118.27 194.807 118.223C194.739 118.162 194.69 118.085 194.663 117.999C194.636 117.912 194.633 117.82 194.654 117.732L194.743 116.623C194.753 116.585 194.753 116.546 194.743 116.508L193.991 115.603C193.918 115.548 193.864 115.472 193.837 115.385C193.809 115.298 193.81 115.204 193.838 115.117C193.866 115.031 193.92 114.955 193.993 114.9C194.066 114.845 194.155 114.815 194.246 114.813L195.412 114.494L196.005 113.512C196.042 113.428 196.102 113.355 196.177 113.301C196.252 113.247 196.34 113.215 196.432 113.206C196.524 113.216 196.611 113.249 196.686 113.303C196.761 113.356 196.821 113.429 196.859 113.512L197.497 114.526L198.644 114.813C198.734 114.822 198.82 114.855 198.893 114.909C198.966 114.963 199.023 115.035 199.058 115.119C199.076 115.209 199.07 115.302 199.041 115.389C199.012 115.476 198.961 115.555 198.893 115.616L198.147 116.508C198.137 116.546 198.137 116.585 198.147 116.623L198.23 117.719C198.248 117.806 198.244 117.897 198.217 117.982C198.19 118.067 198.142 118.143 198.077 118.204C198 118.268 197.902 118.3 197.803 118.293ZM196.426 117.152C196.533 117.151 196.639 117.17 196.738 117.209L197.541 117.547L197.471 116.668C197.457 116.567 197.463 116.464 197.489 116.365C197.515 116.267 197.561 116.174 197.624 116.094L198.23 115.367L197.299 115.131C197.216 115.116 197.137 115.082 197.07 115.031C197.002 114.98 196.948 114.914 196.91 114.838L196.426 114.029L195.954 114.813C195.917 114.893 195.863 114.963 195.794 115.019C195.726 115.074 195.645 115.113 195.559 115.131L194.622 115.367L195.259 116.094C195.322 116.174 195.368 116.267 195.394 116.365C195.421 116.464 195.427 116.567 195.412 116.668L195.342 117.547L196.145 117.209C196.235 117.174 196.33 117.155 196.426 117.152Z" fill="#9BA7A7"/>
<path fill-rule="evenodd" clip-rule="evenodd" d="M178.572 117.777L181.065 117.299L182.684 115.482L182.167 114.532C182.071 114.364 181.933 114.223 181.766 114.124C181.605 114.035 181.424 113.988 181.24 113.988C181.056 113.988 180.875 114.035 180.714 114.124L180.077 114.488L179.178 114.991L178.483 115.38C178.329 115.465 178.199 115.587 178.104 115.735C178.01 115.883 177.954 116.052 177.941 116.228C177.921 116.436 177.966 116.645 178.069 116.827L178.572 117.777Z" fill="#E4E9E9"/>
<path d="M178.407 118.134L177.769 116.999C177.676 116.839 177.616 116.662 177.592 116.478C177.569 116.295 177.582 116.108 177.632 115.93C177.682 115.751 177.767 115.585 177.883 115.44C177.998 115.295 178.142 115.175 178.305 115.087L180.548 113.812C180.757 113.695 180.991 113.633 181.23 113.633C181.469 113.633 181.704 113.695 181.912 113.812C182.133 113.937 182.316 114.12 182.442 114.341L183.079 115.469L181.237 117.534L178.407 118.134ZM181.23 114.309C181.103 114.309 180.978 114.342 180.867 114.405L178.623 115.68C178.451 115.777 178.324 115.939 178.269 116.13C178.214 116.32 178.236 116.525 178.33 116.699L178.738 117.433L180.899 117.018L182.295 115.45L181.887 114.717C181.822 114.599 181.725 114.501 181.606 114.437C181.493 114.367 181.363 114.328 181.23 114.322V114.309Z" fill="#9BA7A7"/>
<path fill-rule="evenodd" clip-rule="evenodd" d="M184.206 118.178L188.573 115.75C188.747 115.653 188.875 115.491 188.93 115.3C188.985 115.109 188.962 114.904 188.866 114.73L188.088 113.34C187.991 113.168 187.829 113.041 187.637 112.987C187.446 112.933 187.242 112.957 187.068 113.053L183.569 115.004L182.702 115.482V117.299L184.206 118.178Z" fill="#E4E9E9"/>
<path d="M184.207 118.548L182.384 117.484V115.297L186.916 112.748C187.164 112.61 187.456 112.577 187.728 112.655C188 112.732 188.231 112.915 188.369 113.162L189.14 114.551C189.278 114.797 189.312 115.088 189.236 115.359C189.159 115.63 188.978 115.86 188.733 115.998L184.207 118.548ZM183.021 117.12L184.213 117.815L188.42 115.469C188.519 115.413 188.592 115.32 188.623 115.21C188.655 115.1 188.641 114.983 188.586 114.883L187.808 113.5C187.782 113.45 187.745 113.406 187.702 113.371C187.658 113.336 187.608 113.309 187.554 113.293C187.5 113.277 187.444 113.272 187.388 113.278C187.332 113.284 187.278 113.301 187.228 113.328L183.021 115.673V117.12Z" fill="#9BA7A7"/>
<path fill-rule="evenodd" clip-rule="evenodd" d="M175.71 122.902L180.076 120.473L180.197 118.65L178.572 117.777L177.756 118.229L174.205 120.205C174.033 120.303 173.906 120.465 173.851 120.655C173.796 120.846 173.818 121.051 173.912 121.225L174.69 122.615C174.788 122.787 174.95 122.915 175.141 122.968C175.332 123.022 175.536 122.998 175.71 122.902Z" fill="#E4E9E9"/>
<path d="M175.346 123.316C175.155 123.316 174.968 123.266 174.803 123.169C174.638 123.073 174.502 122.934 174.409 122.768L173.638 121.378C173.569 121.256 173.525 121.122 173.509 120.983C173.493 120.844 173.504 120.703 173.543 120.568C173.581 120.434 173.646 120.308 173.734 120.199C173.821 120.089 173.929 119.998 174.052 119.931L178.565 117.382L180.528 118.44L180.382 120.632L175.862 123.15C175.707 123.249 175.53 123.306 175.346 123.316ZM178.571 118.14L174.358 120.486C174.259 120.541 174.186 120.633 174.155 120.742C174.124 120.85 174.138 120.967 174.192 121.066L174.97 122.462C174.998 122.511 175.035 122.554 175.08 122.589C175.124 122.624 175.175 122.649 175.23 122.664C175.285 122.679 175.341 122.683 175.398 122.675C175.454 122.668 175.508 122.65 175.556 122.621L179.744 120.269L179.84 118.828L178.571 118.14Z" fill="#9BA7A7"/>
<path fill-rule="evenodd" clip-rule="evenodd" d="M184.207 118.178L182.702 115.482L178.591 117.777L180.095 120.473L184.207 118.178Z" fill="#E4E9E9"/>
<path d="M179.949 120.907L178.139 117.649L182.811 115.049L184.621 118.299L179.949 120.907ZM179.006 117.898L180.198 120.04L183.754 118.057L182.562 115.915L179.006 117.898Z" fill="#9BA7A7"/>
<path d="M182.626 58.439C182.398 58.4373 182.181 58.3461 182.02 58.1851C181.858 58.0241 181.767 57.8062 181.766 57.5785V46.8443C181.766 46.6161 181.856 46.3972 182.018 46.2358C182.179 46.0744 182.398 45.9838 182.626 45.9838C182.854 45.9838 183.073 46.0744 183.235 46.2358C183.396 46.3972 183.487 46.6161 183.487 46.8443V57.5976C183.482 57.8225 183.389 58.0365 183.228 58.1938C183.067 58.351 182.851 58.4391 182.626 58.439Z" fill="#9BA7A7"/>
<path d="M188.031 53.0846H177.252C177.139 53.0846 177.027 53.0624 176.923 53.0191C176.818 52.9759 176.724 52.9125 176.644 52.8326C176.564 52.7527 176.5 52.6578 176.457 52.5534C176.414 52.449 176.392 52.3371 176.392 52.2241C176.392 52.1111 176.414 51.9992 176.457 51.8948C176.5 51.7904 176.564 51.6955 176.644 51.6156C176.724 51.5357 176.818 51.4723 176.923 51.4291C177.027 51.3858 177.139 51.3636 177.252 51.3636H188.031C188.144 51.3636 188.256 51.3858 188.36 51.4291C188.465 51.4723 188.56 51.5357 188.639 51.6156C188.719 51.6955 188.783 51.7904 188.826 51.8948C188.869 51.9992 188.891 52.1111 188.891 52.2241C188.891 52.3371 188.869 52.449 188.826 52.5534C188.783 52.6578 188.719 52.7527 188.639 52.8326C188.56 52.9125 188.465 52.9759 188.36 53.0191C188.256 53.0624 188.144 53.0846 188.031 53.0846Z" fill="#9BA7A7"/>
<path d="M35.3937 123.788C35.2805 123.788 35.1682 123.767 35.0634 123.724C34.9587 123.681 34.8635 123.618 34.7834 123.537C34.7033 123.457 34.6399 123.362 34.597 123.257C34.5541 123.153 34.5324 123.04 34.5332 122.927V112.18C34.5332 112.067 34.5555 111.955 34.5987 111.851C34.642 111.746 34.7054 111.652 34.7853 111.572C34.8652 111.492 34.96 111.428 35.0644 111.385C35.1688 111.342 35.2807 111.32 35.3937 111.32C35.5067 111.32 35.6187 111.342 35.7231 111.385C35.8275 111.428 35.9223 111.492 36.0022 111.572C36.0821 111.652 36.1455 111.746 36.1888 111.851C36.232 111.955 36.2543 112.067 36.2543 112.18V122.927C36.2543 123.155 36.1636 123.374 36.0022 123.536C35.8409 123.697 35.622 123.788 35.3937 123.788Z" fill="#9BA7A7"/>
<path d="M40.7863 118.414H30.0138C29.7856 118.414 29.5667 118.323 29.4054 118.162C29.244 118.001 29.1533 117.782 29.1533 117.554C29.1533 117.325 29.244 117.107 29.4054 116.945C29.5667 116.784 29.7856 116.693 30.0138 116.693H40.7863C41.0145 116.693 41.2334 116.784 41.3948 116.945C41.5562 117.107 41.6468 117.325 41.6468 117.554C41.6468 117.782 41.5562 118.001 41.3948 118.162C41.2334 118.323 41.0145 118.414 40.7863 118.414Z" fill="#9BA7A7"/>
<path d="M40.1491 49.515C40.0757 49.5159 40.0029 49.5021 39.9349 49.4746C39.8669 49.4472 39.805 49.4064 39.7528 49.3549C39.7007 49.3033 39.6592 49.2419 39.631 49.1742C39.6027 49.1065 39.5881 49.0338 39.5881 48.9605V44.5304C39.5798 44.4521 39.588 44.373 39.6122 44.2981C39.6364 44.2232 39.6761 44.1543 39.7287 44.0957C39.7813 44.0372 39.8456 43.9904 39.9175 43.9583C39.9894 43.9263 40.0672 43.9097 40.1459 43.9097C40.2246 43.9097 40.3024 43.9263 40.3743 43.9583C40.4462 43.9904 40.5105 44.0372 40.5631 44.0957C40.6157 44.1543 40.6554 44.2232 40.6796 44.2981C40.7038 44.373 40.712 44.4521 40.7036 44.5304V48.9605C40.7036 49.1075 40.6452 49.2486 40.5412 49.3526C40.4372 49.4566 40.2962 49.515 40.1491 49.515Z" fill="#9BA7A7"/>
<path d="M42.3669 47.3032H37.9368C37.7991 47.2885 37.6718 47.2233 37.5793 47.1204C37.4867 47.0174 37.4355 46.8839 37.4355 46.7454C37.4355 46.607 37.4867 46.4735 37.5793 46.3705C37.6718 46.2675 37.7991 46.2024 37.9368 46.1877H42.3669C42.4451 46.1793 42.5243 46.1875 42.5991 46.2117C42.674 46.2359 42.743 46.2756 42.8015 46.3282C42.86 46.3808 42.9069 46.4452 42.9389 46.517C42.971 46.5889 42.9875 46.6667 42.9875 46.7454C42.9875 46.8241 42.971 46.902 42.9389 46.9738C42.9069 47.0457 42.86 47.1101 42.8015 47.1627C42.743 47.2153 42.674 47.255 42.5991 47.2792C42.5243 47.3034 42.4451 47.3116 42.3669 47.3032Z" fill="#9BA7A7"/>
<path d="M186.814 69.3389C186.667 69.3389 186.526 69.2805 186.422 69.1765C186.318 69.0725 186.26 68.9314 186.26 68.7844V64.3224C186.26 64.1753 186.318 64.0343 186.422 63.9303C186.526 63.8263 186.667 63.7678 186.814 63.7678C186.961 63.7678 187.102 63.8263 187.206 63.9303C187.31 64.0343 187.369 64.1753 187.369 64.3224V68.7844C187.369 68.9314 187.31 69.0725 187.206 69.1765C187.102 69.2805 186.961 69.3389 186.814 69.3389Z" fill="#9BA7A7"/>
<path d="M189.033 67.1271H184.571C184.433 67.1124 184.306 67.0472 184.213 66.9443C184.121 66.8413 184.069 66.7078 184.069 66.5693C184.069 66.4309 184.121 66.2974 184.213 66.1944C184.306 66.0914 184.433 66.0263 184.571 66.0116H189.033C189.17 66.0263 189.298 66.0914 189.39 66.1944C189.483 66.2974 189.534 66.4309 189.534 66.5693C189.534 66.7078 189.483 66.8413 189.39 66.9443C189.298 67.0472 189.17 67.1124 189.033 67.1271Z" fill="#9BA7A7"/>
<path d="M38.6698 64.2969L39.0331 59.9051C39.0648 59.5338 38.9539 59.1644 38.7231 58.872C38.4922 58.5795 38.1586 58.386 37.7902 58.3306L33.513 57.6932C33.3853 57.6728 33.2547 57.6793 33.1296 57.7122C33.0044 57.7451 32.8876 57.8038 32.7864 57.8844L23.8625 64.8196C23.6635 64.9755 23.5344 65.2039 23.5033 65.4547C23.4723 65.7055 23.5418 65.9585 23.6967 66.1582L28.0503 71.7548C28.2062 71.9537 28.4346 72.0828 28.6854 72.1139C28.9363 72.1449 29.1892 72.0754 29.3889 71.9205L38.3128 64.9853C38.4177 64.9024 38.5038 64.7982 38.5653 64.6795C38.6269 64.5608 38.6625 64.4304 38.6698 64.2969ZM36.458 60.7146C36.3681 60.5993 36.3144 60.46 36.3036 60.3142C36.2929 60.1684 36.3256 60.0227 36.3977 59.8955C36.4697 59.7684 36.5778 59.6654 36.7084 59.5996C36.8389 59.5338 36.986 59.5082 37.1311 59.526C37.2762 59.5438 37.4127 59.6042 37.5235 59.6996C37.6343 59.795 37.7143 59.9211 37.7535 60.0619C37.7926 60.2027 37.7891 60.352 37.7435 60.4909C37.6978 60.6297 37.612 60.752 37.4969 60.8421C37.4204 60.902 37.3328 60.9463 37.2391 60.9723C37.1454 60.9984 37.0475 61.0057 36.951 60.9938C36.8545 60.982 36.7613 60.9512 36.6767 60.9033C36.5921 60.8554 36.5177 60.7913 36.458 60.7146Z" fill="#E4E9E9"/>
<path d="M28.8225 72.4623H28.6631C28.3284 72.4213 28.0236 72.2494 27.8153 71.9842L23.4554 66.3877C23.2501 66.1212 23.1584 65.7844 23.2004 65.4506C23.2414 65.116 23.4133 64.8111 23.6785 64.6029L32.6024 57.6613C32.7391 57.5548 32.8961 57.4772 33.0637 57.4334C33.2314 57.3895 33.4063 57.3803 33.5776 57.4064L37.8547 58.0438C38.3014 58.1131 38.7053 58.3487 38.9854 58.7034C39.2656 59.0581 39.4014 59.5055 39.3654 59.9561L39.0021 64.3479C38.9885 64.5241 38.9384 64.6956 38.855 64.8514C38.7716 65.0072 38.6568 65.144 38.5177 65.253L29.5937 72.1818C29.3746 72.3578 29.1034 72.4564 28.8225 72.4623ZM33.3737 58.0183C33.2306 58.0173 33.0915 58.0645 32.9785 58.1522L24.0545 65.0937C23.9215 65.1965 23.8344 65.3477 23.8123 65.5144C23.8015 65.5975 23.8072 65.682 23.8291 65.7629C23.8509 65.8439 23.8886 65.9197 23.9398 65.9861L28.2998 71.5763C28.4026 71.7093 28.5538 71.7964 28.7205 71.8185C28.8036 71.8293 28.8881 71.8236 28.969 71.8018C29.05 71.7799 29.1258 71.7423 29.1922 71.691L38.1161 64.7559C38.1856 64.7013 38.2431 64.6329 38.2848 64.555C38.3265 64.4771 38.3515 64.3914 38.3583 64.3033L38.7216 59.9114C38.7447 59.6214 38.6578 59.3332 38.4784 59.1042C38.2989 58.8751 38.0399 58.7219 37.7528 58.6748L33.4757 58.0374L33.3737 58.0183ZM37.0452 61.3456C36.8209 61.3484 36.6016 61.2798 36.4188 61.1498C36.2361 61.0197 36.0993 60.835 36.0284 60.6222C35.9575 60.4094 35.956 60.1796 36.0242 59.9659C36.0924 59.7522 36.2267 59.5657 36.4078 59.4334C36.5175 59.3476 36.6429 59.2842 36.7771 59.2469C36.9112 59.2096 37.0514 59.1991 37.1896 59.2159C37.3278 59.2328 37.4614 59.2767 37.5826 59.3452C37.7038 59.4137 37.8104 59.5054 37.8962 59.615C37.982 59.7247 38.0454 59.8502 38.0827 59.9843C38.12 60.1185 38.1305 60.2586 38.1136 60.3968C38.0967 60.5351 38.0528 60.6686 37.9843 60.7898C37.9159 60.9111 37.8242 61.0176 37.7145 61.1034C37.5228 61.2495 37.286 61.3239 37.0452 61.3138V61.3456ZM36.7839 59.9497C36.6957 60.02 36.6384 60.1219 36.6241 60.2338C36.6098 60.3456 36.6397 60.4587 36.7074 60.5489C36.7591 60.6157 36.8294 60.6656 36.9095 60.6925C36.9896 60.7193 37.0758 60.7218 37.1573 60.6996C37.2388 60.6774 37.3119 60.6315 37.3674 60.5678C37.4228 60.5041 37.4581 60.4254 37.4688 60.3416C37.4795 60.2578 37.4651 60.1727 37.4275 60.0971C37.3898 60.0215 37.3306 59.9588 37.2573 59.9168C37.184 59.8749 37.0999 59.8556 37.0156 59.8615C36.9313 59.8673 36.8507 59.898 36.7839 59.9497Z" fill="#9BA7A7"/>
<path d="M32.3472 64.9088C32.4057 64.9668 32.4848 64.9994 32.5671 64.9994C32.6495 64.9994 32.7286 64.9668 32.7871 64.9088C32.8974 64.798 32.9632 64.6506 32.9719 64.4945C32.974 64.4159 32.9604 64.3376 32.932 64.2643C32.9035 64.191 32.8608 64.1241 32.8062 64.0674L32.7042 63.9591L32.9464 63.7296C32.9983 63.6712 33.0264 63.5955 33.0252 63.5174C33.0241 63.4394 32.9937 63.3645 32.9401 63.3077C32.8865 63.2509 32.8136 63.2163 32.7357 63.2106C32.6578 63.2049 32.5806 63.2286 32.5193 63.277L32.2707 63.5129C32.1478 63.4107 31.9986 63.3454 31.8401 63.3244C31.6817 63.3034 31.5206 63.3276 31.3753 63.3942C31.2301 63.4609 31.1066 63.5672 31.0192 63.701C30.9317 63.8347 30.8839 63.9905 30.8812 64.1503C30.8769 64.262 30.8956 64.3734 30.9362 64.4776C30.9768 64.5817 31.0383 64.6764 31.117 64.7558L31.3975 65.0554C31.4189 65.0772 31.4356 65.1032 31.4465 65.1317C31.4575 65.1602 31.4625 65.1906 31.4612 65.2212C31.4611 65.2502 31.4548 65.2788 31.4427 65.3052C31.4306 65.3316 31.413 65.3551 31.3911 65.3741C31.3693 65.3955 31.3434 65.4122 31.3149 65.4232C31.2863 65.4342 31.2559 65.4392 31.2254 65.4379C31.1963 65.4377 31.1677 65.4314 31.1413 65.4193C31.1149 65.4072 31.0914 65.3897 31.0724 65.3678L30.9258 65.2212L30.6326 64.9024C30.681 64.8412 30.7047 64.764 30.699 64.6861C30.6933 64.6082 30.6586 64.5353 30.6018 64.4817C30.545 64.4281 30.4702 64.3977 30.3921 64.3965C30.3141 64.3954 30.2384 64.4235 30.18 64.4754C30.1245 64.5305 30.0804 64.596 30.0504 64.6682C30.0203 64.7404 30.0048 64.8179 30.0048 64.8961C30.0048 64.9743 30.0203 65.0517 30.0504 65.1239C30.0804 65.1961 30.1245 65.2617 30.18 65.3168L30.282 65.4188L30.0398 65.6482C29.9818 65.7067 29.9492 65.7858 29.9492 65.8681C29.9492 65.9505 29.9818 66.0296 30.0398 66.088C30.0607 66.1126 30.0868 66.1322 30.1162 66.1454C30.1732 66.1792 30.2398 66.1931 30.3055 66.1851C30.3713 66.177 30.4325 66.1474 30.4796 66.1008L30.7282 65.8713L30.8493 65.9542C30.9711 66.0198 31.1062 66.0569 31.2445 66.0626C31.4128 66.0676 31.5787 66.0225 31.7212 65.9329C31.8638 65.8433 31.9764 65.7133 32.0448 65.5595C32.1131 65.4056 32.1342 65.2349 32.1052 65.0691C32.0762 64.9033 31.9984 64.7499 31.8819 64.6284L31.6014 64.3288C31.5808 64.3077 31.5646 64.2828 31.5536 64.2555C31.5427 64.2281 31.5373 64.1989 31.5377 64.1694C31.5373 64.1394 31.5434 64.1096 31.5555 64.0821C31.5676 64.0546 31.5854 64.0301 31.6078 64.0101C31.6506 63.9688 31.7077 63.9457 31.7672 63.9457C31.8266 63.9457 31.8838 63.9688 31.9265 64.0101L32.0731 64.163L32.3664 64.4754C32.3076 64.5311 32.2728 64.6074 32.2693 64.6882C32.2657 64.7691 32.2936 64.8482 32.3472 64.9088Z" fill="#E4E9E9"/>
<path d="M28.8225 72.4623H28.6631C28.3284 72.4213 28.0236 72.2494 27.8153 71.9842L23.4554 66.3877C23.2501 66.1212 23.1584 65.7844 23.2004 65.4506C23.2414 65.116 23.4133 64.8111 23.6785 64.6029L32.6024 57.6613C32.7391 57.5548 32.8961 57.4772 33.0637 57.4334C33.2314 57.3895 33.4063 57.3803 33.5776 57.4064L37.8547 58.0438C38.3014 58.1131 38.7053 58.3487 38.9854 58.7034C39.2656 59.0581 39.4014 59.5055 39.3654 59.9561L39.0021 64.3479C38.9885 64.5241 38.9384 64.6956 38.855 64.8514C38.7716 65.0072 38.6568 65.144 38.5177 65.253L29.5937 72.1818C29.3746 72.3578 29.1034 72.4564 28.8225 72.4623ZM33.3737 58.0183C33.2306 58.0173 33.0915 58.0645 32.9785 58.1522L24.0545 65.0937C23.9215 65.1965 23.8344 65.3477 23.8123 65.5144C23.8015 65.5975 23.8072 65.682 23.8291 65.7629C23.8509 65.8439 23.8886 65.9197 23.9398 65.9861L28.2998 71.5763C28.4026 71.7093 28.5538 71.7964 28.7205 71.8185C28.8036 71.8293 28.8881 71.8236 28.969 71.8018C29.05 71.7799 29.1258 71.7423 29.1922 71.691L38.1161 64.7559C38.1856 64.7013 38.2431 64.6329 38.2848 64.555C38.3265 64.4771 38.3515 64.3914 38.3583 64.3033L38.7216 59.9114C38.7447 59.6214 38.6578 59.3332 38.4784 59.1042C38.2989 58.8751 38.0399 58.7219 37.7528 58.6748L33.4757 58.0374L33.3737 58.0183ZM37.0452 61.3456C36.8209 61.3484 36.6016 61.2798 36.4188 61.1498C36.2361 61.0197 36.0993 60.835 36.0284 60.6222C35.9575 60.4094 35.956 60.1796 36.0242 59.9659C36.0924 59.7522 36.2267 59.5657 36.4078 59.4334C36.5175 59.3476 36.6429 59.2842 36.7771 59.2469C36.9112 59.2096 37.0514 59.1991 37.1896 59.2159C37.3278 59.2328 37.4614 59.2767 37.5826 59.3452C37.7038 59.4137 37.8104 59.5054 37.8962 59.615C37.982 59.7247 38.0454 59.8502 38.0827 59.9843C38.12 60.1185 38.1305 60.2586 38.1136 60.3968C38.0967 60.5351 38.0528 60.6686 37.9843 60.7898C37.9159 60.9111 37.8242 61.0176 37.7145 61.1034C37.5228 61.2495 37.286 61.3239 37.0452 61.3138V61.3456ZM36.7839 59.9497C36.6957 60.02 36.6384 60.1219 36.6241 60.2338C36.6098 60.3456 36.6397 60.4587 36.7074 60.5489C36.7591 60.6157 36.8294 60.6656 36.9095 60.6925C36.9896 60.7193 37.0758 60.7218 37.1573 60.6996C37.2388 60.6774 37.3119 60.6315 37.3674 60.5678C37.4228 60.5041 37.4581 60.4254 37.4688 60.3416C37.4795 60.2578 37.4651 60.1727 37.4275 60.0971C37.3898 60.0215 37.3306 59.9588 37.2573 59.9168C37.184 59.8749 37.0999 59.8556 37.0156 59.8615C36.9313 59.8673 36.8507 59.898 36.7839 59.9497Z" fill="#9BA7A7"/>
<path d="M47.4224 88.9397C45.0831 88.9367 42.8398 88.0087 41.1821 86.3581C40.4474 85.6384 39.8634 84.7796 39.4639 83.8319C39.0645 82.8842 38.8577 81.8665 38.8555 80.838C38.8555 77.1601 41.6219 73.8583 45.4273 72.985H45.6377H171.414L171.529 73.0168C176.507 74.2216 178.349 78.2374 177.96 81.6922C177.572 85.147 174.773 88.8887 169.515 88.9652H47.4224V88.9397ZM45.746 74.8718C44.3736 75.1787 43.1412 75.9309 42.2408 77.0111C41.3403 78.0914 40.8224 79.4391 40.7677 80.8444C40.7723 81.622 40.9313 82.3909 41.2355 83.1066C41.5397 83.8222 41.983 84.4703 42.5398 85.0132C43.8399 86.3033 45.5972 87.0273 47.4288 87.0274H169.495C173.6 86.9701 175.755 84.1845 176.061 81.45C176.335 79.0469 175.213 75.898 171.185 74.8718H45.746Z" fill="#9BA7A7"/>
<path d="M125.946 42.14H92.6089C91.0874 42.14 89.6282 41.5356 88.5523 40.4598C87.4765 39.3839 86.8721 37.9247 86.8721 36.4032V31.6672C86.8721 30.1457 87.4765 28.6865 88.5523 27.6106C89.6282 26.5348 91.0874 25.9304 92.6089 25.9304H125.946C127.468 25.9304 128.927 26.5348 130.003 27.6106C131.079 28.6865 131.683 30.1457 131.683 31.6672V36.4224C131.678 37.9405 131.071 39.3948 129.996 40.4665C128.921 41.5383 127.464 42.14 125.946 42.14ZM92.6089 27.8426C91.5945 27.8426 90.6218 28.2456 89.9045 28.9628C89.1873 29.68 88.7843 30.6528 88.7843 31.6672V36.4224C88.7843 37.4367 89.1873 38.4095 89.9045 39.1267C90.6218 39.8439 91.5945 40.2469 92.6089 40.2469H125.946C126.96 40.2469 127.933 39.8439 128.65 39.1267C129.368 38.4095 129.771 37.4367 129.771 36.4224V31.6672C129.771 30.6528 129.368 29.68 128.65 28.9628C127.933 28.2456 126.96 27.8426 125.946 27.8426H92.6089Z" fill="#9BA7A7"/>
<path d="M116.678 9.44661C115.743 9.44788 114.83 9.17193 114.052 8.6537C113.274 8.13546 112.668 7.39822 112.31 6.53526C111.951 5.6723 111.857 4.7224 112.038 3.80575C112.22 2.8891 112.669 2.04689 113.329 1.38568C113.99 0.724477 114.831 0.273993 115.748 0.0912261C116.664 -0.091541 117.614 0.00162517 118.478 0.358933C119.341 0.716241 120.079 1.32163 120.598 2.09851C121.118 2.87539 121.395 3.78885 121.395 4.7233C121.393 5.97438 120.896 7.17383 120.012 8.05908C119.128 8.94432 117.929 9.44324 116.678 9.44661ZM116.678 0.643797C115.869 0.642537 115.078 0.881258 114.406 1.32974C113.733 1.77821 113.208 2.41628 112.898 3.16314C112.588 3.90999 112.506 4.73205 112.664 5.52523C112.821 6.31841 113.211 7.04703 113.782 7.61884C114.354 8.19064 115.083 8.57991 115.876 8.73736C116.669 8.89481 117.491 8.81336 118.238 8.50332C118.985 8.19328 119.623 7.6686 120.071 6.9957C120.52 6.3228 120.759 5.53196 120.757 4.7233C120.756 3.64187 120.325 2.60521 119.561 1.84052C118.796 1.07583 117.759 0.645483 116.678 0.643797Z" fill="#9BA7A7"/>
<path d="M204.687 58.7831C204.609 58.7849 204.533 58.7558 204.475 58.7022C204.418 58.6486 204.384 58.5747 204.381 58.4963C204.195 56.0465 203.867 53.6096 203.399 51.1978C203.383 51.1175 203.4 51.0341 203.445 50.966C203.491 50.8979 203.561 50.8505 203.642 50.8345C203.722 50.8184 203.805 50.8349 203.873 50.8803C203.942 50.9258 203.989 50.9964 204.005 51.0767C204.478 53.5094 204.808 55.9677 204.993 58.4389C204.996 58.4792 204.992 58.5197 204.98 58.5581C204.967 58.5966 204.948 58.6322 204.922 58.6631C204.896 58.6939 204.864 58.7192 204.828 58.7376C204.792 58.7561 204.753 58.7672 204.713 58.7704L204.687 58.7831ZM201.863 44.2754C201.798 44.2745 201.734 44.2531 201.682 44.2143C201.629 44.1754 201.59 44.121 201.57 44.0587C200.819 41.7174 199.929 39.4228 198.906 37.1873C198.872 37.1129 198.869 37.0281 198.898 36.9516C198.926 36.8751 198.984 36.8131 199.059 36.7793C199.133 36.7455 199.218 36.7426 199.294 36.7713C199.371 36.8 199.433 36.8579 199.467 36.9323C200.503 39.1897 201.401 41.5078 202.156 43.8738C202.181 43.9507 202.173 44.0341 202.136 44.1057C202.099 44.1773 202.036 44.2314 201.959 44.2563C201.928 44.2687 201.896 44.2752 201.863 44.2754ZM195.712 30.8321C195.66 30.8322 195.608 30.8187 195.562 30.793C195.516 30.7673 195.478 30.7303 195.451 30.6855C194.172 28.5888 192.772 26.5689 191.256 24.6364C191.231 24.6046 191.213 24.5681 191.202 24.5291C191.191 24.4901 191.187 24.4493 191.192 24.4091C191.202 24.3278 191.243 24.2536 191.307 24.2029C191.372 24.1522 191.453 24.1291 191.535 24.1387C191.616 24.1482 191.69 24.1897 191.741 24.2539C193.271 26.2077 194.686 28.2488 195.98 30.3668C196.008 30.4137 196.024 30.4674 196.025 30.5223C196.025 30.5772 196.011 30.6312 195.984 30.6788C195.956 30.7264 195.917 30.7658 195.869 30.7927C195.821 30.8197 195.767 30.8333 195.712 30.8321ZM186.597 19.2055C186.556 19.2059 186.516 19.1976 186.478 19.1811C186.441 19.1647 186.407 19.1404 186.38 19.1099C184.645 17.3672 182.81 15.7262 180.886 14.1954C180.854 14.1703 180.827 14.1391 180.807 14.1038C180.788 14.0684 180.775 14.0295 180.77 13.9892C180.766 13.949 180.769 13.9082 180.78 13.8692C180.791 13.8302 180.809 13.7937 180.835 13.7619C180.86 13.7301 180.891 13.7036 180.926 13.6838C180.962 13.664 181.001 13.6514 181.041 13.6467C181.081 13.6419 181.122 13.6452 181.161 13.6562C181.2 13.6672 181.236 13.6858 181.268 13.7109C183.211 15.2572 185.063 16.9152 186.814 18.6765C186.872 18.735 186.904 18.814 186.904 18.8964C186.904 18.9788 186.872 19.0578 186.814 19.1163C186.756 19.173 186.678 19.205 186.597 19.2055ZM175.021 9.99476C174.963 9.99601 174.905 9.98052 174.856 9.95014C172.765 8.65796 170.6 7.48948 168.373 6.45069C168.31 6.40979 168.263 6.34731 168.242 6.27482C168.221 6.20233 168.227 6.12472 168.259 6.05633C168.291 5.98794 168.347 5.93339 168.416 5.90277C168.485 5.87215 168.562 5.86753 168.634 5.88976C170.884 6.93883 173.07 8.12013 175.181 9.42746C175.238 9.46218 175.282 9.51459 175.306 9.57672C175.331 9.63884 175.334 9.70727 175.316 9.77155C175.298 9.83582 175.259 9.89243 175.206 9.93273C175.153 9.97303 175.088 9.99482 175.021 9.99476ZM161.635 3.75439C161.604 3.76042 161.571 3.76042 161.54 3.75439C159.201 2.98969 156.819 2.36392 154.407 1.88037C154.367 1.87209 154.329 1.85587 154.295 1.83267C154.262 1.80947 154.233 1.77976 154.211 1.7453C154.189 1.71083 154.174 1.67232 154.167 1.63201C154.161 1.59171 154.162 1.55045 154.171 1.51066C154.179 1.47088 154.194 1.43304 154.217 1.39942C154.239 1.3658 154.268 1.33711 154.302 1.31506C154.336 1.29302 154.374 1.27809 154.414 1.27117C154.454 1.26425 154.495 1.2655 154.535 1.27482C156.969 1.76882 159.372 2.40738 161.731 3.18709C161.809 3.21466 161.873 3.27121 161.909 3.34489C161.946 3.41857 161.953 3.50364 161.929 3.58229C161.901 3.6406 161.857 3.68905 161.801 3.721C161.745 3.75295 161.68 3.76684 161.616 3.76076L161.635 3.75439ZM125.124 2.91936C125.056 2.91902 124.99 2.89642 124.935 2.85499C124.881 2.81356 124.842 2.75558 124.824 2.68989C124.814 2.65096 124.811 2.61033 124.816 2.57032C124.821 2.53031 124.834 2.49172 124.854 2.45677C124.874 2.42181 124.901 2.39119 124.933 2.36665C124.965 2.34212 125.002 2.32416 125.041 2.31381C127.432 1.64732 129.861 1.12371 132.314 0.745754C132.355 0.739409 132.396 0.741141 132.436 0.75085C132.476 0.760559 132.514 0.778053 132.547 0.802332C132.58 0.82661 132.608 0.857192 132.629 0.892329C132.651 0.927467 132.665 0.966464 132.671 1.00709C132.677 1.04733 132.675 1.08842 132.666 1.12796C132.656 1.16749 132.638 1.20468 132.614 1.23733C132.59 1.26998 132.559 1.29744 132.524 1.31811C132.489 1.33877 132.45 1.35223 132.41 1.35767C129.98 1.73296 127.575 2.25016 125.207 2.90662L125.124 2.91936ZM147.14 0.834992C144.69 0.636525 142.229 0.581181 139.772 0.669256C139.731 0.670962 139.69 0.664521 139.652 0.650309C139.614 0.636097 139.579 0.614401 139.549 0.586495C139.52 0.558589 139.496 0.525036 139.479 0.487802C139.463 0.450568 139.454 0.410402 139.453 0.369666C139.451 0.328958 139.458 0.288325 139.472 0.25014C139.486 0.211955 139.508 0.176991 139.536 0.147303C139.564 0.117616 139.597 0.093799 139.635 0.0772546C139.672 0.0607101 139.712 0.0517677 139.753 0.0509546C142.233 -0.0371264 144.717 0.0182154 147.191 0.216691C147.272 0.22478 147.346 0.263869 147.399 0.325713C147.451 0.387557 147.477 0.467309 147.472 0.548144C147.471 0.59129 147.46 0.633665 147.441 0.672485C147.422 0.711305 147.395 0.745692 147.362 0.773386C147.329 0.80108 147.291 0.821458 147.249 0.833174C147.208 0.844889 147.164 0.847679 147.121 0.841363L147.14 0.834992Z" fill="#9BA7A7"/>
<path d="M30.7662 151.216H30.7152C28.2156 151.048 25.7353 150.665 23.302 150.069C23.1397 150.028 23.0001 149.925 22.9131 149.782C22.8279 149.638 22.8028 149.466 22.843 149.304C22.8865 149.145 22.9898 149.009 23.1312 148.925C23.2726 148.84 23.4411 148.814 23.6016 148.851C25.9678 149.431 28.38 149.804 30.8108 149.967C30.9799 149.973 31.1397 150.045 31.255 150.169C31.3704 150.293 31.4319 150.457 31.4259 150.626C31.42 150.795 31.3472 150.955 31.2235 151.071C31.0997 151.186 30.9353 151.247 30.7662 151.241V151.216ZM38.1667 151.165C38.0071 151.166 37.8531 151.106 37.7351 150.999C37.6171 150.892 37.5436 150.744 37.5293 150.585C37.518 150.418 37.5729 150.253 37.6823 150.126C37.791 150.001 37.9442 149.923 38.1093 149.909C40.5437 149.709 42.9625 149.352 45.3505 148.838C45.5125 148.804 45.6817 148.833 45.8221 148.921C45.9616 149.012 46.06 149.154 46.0962 149.316C46.1291 149.479 46.0971 149.649 46.007 149.788C45.9161 149.928 45.7743 150.026 45.6118 150.062C43.1808 150.592 40.7169 150.959 38.2368 151.159L38.1667 151.165ZM16.4943 147.583C16.3975 147.58 16.3021 147.559 16.2138 147.519C13.9409 146.418 11.8164 145.035 9.89058 143.401C9.7632 143.293 9.6831 143.14 9.66748 142.974C9.66073 142.851 9.68997 142.728 9.75161 142.621C9.81326 142.514 9.90466 142.427 10.0147 142.371C10.1248 142.315 10.2487 142.292 10.3716 142.305C10.4944 142.319 10.6107 142.367 10.7065 142.445C12.5521 144.011 14.589 145.337 16.7684 146.391C16.917 146.464 17.0313 146.592 17.0871 146.748C17.118 146.842 17.1263 146.943 17.1113 147.041C17.0963 147.14 17.0585 147.233 17.0009 147.314C16.9432 147.396 16.8674 147.462 16.7794 147.509C16.6915 147.555 16.5938 147.581 16.4943 147.583ZM5.44137 138.021C5.33638 138.021 5.23315 137.994 5.14085 137.944C5.04856 137.894 4.97005 137.822 4.91231 137.734C4.48523 137.065 4.08365 136.37 3.7267 135.669C2.92155 134.124 2.28063 132.498 1.81443 130.818C1.79845 130.668 1.83616 130.518 1.92086 130.393C2.00555 130.268 2.13174 130.177 2.277 130.137C2.42225 130.096 2.57718 130.109 2.71423 130.172C2.85128 130.235 2.96158 130.344 3.02553 130.481C3.46601 132.076 4.06831 133.622 4.82307 135.096C5.1609 135.733 5.54335 136.415 5.9513 137.052C6.03919 137.193 6.06891 137.362 6.03417 137.524C5.99792 137.687 5.89954 137.828 5.76008 137.919C5.66233 137.972 5.55246 137.999 5.44137 137.996V138.021ZM1.52121 123.947C1.35216 123.947 1.19003 123.88 1.07049 123.76C0.950946 123.641 0.883789 123.479 0.883789 123.31C0.924431 120.777 1.2668 118.258 1.90367 115.807C1.94609 115.644 2.05153 115.504 2.19688 115.418C2.33998 115.337 2.50901 115.314 2.66857 115.355C2.82737 115.398 2.96318 115.501 3.04754 115.643C3.13191 115.784 3.15828 115.953 3.12115 116.113C2.50733 118.457 2.17775 120.867 2.13951 123.29C2.13794 123.455 2.07268 123.613 1.95742 123.73C1.84215 123.848 1.68583 123.917 1.52121 123.921V123.947ZM5.09078 109.656C4.99797 109.654 4.9066 109.633 4.82307 109.592C4.67446 109.519 4.56009 109.391 4.50417 109.235C4.44825 109.08 4.45518 108.908 4.52348 108.757C5.62212 106.499 6.90112 104.333 8.34802 102.281C8.44431 102.146 8.58933 102.054 8.75235 102.024C8.91537 101.995 9.08357 102.029 9.22128 102.122C9.3587 102.218 9.4526 102.364 9.48263 102.53C9.51177 102.694 9.47514 102.863 9.38064 103.001C7.98153 104.997 6.74723 107.103 5.68996 109.299C5.63557 109.41 5.54993 109.503 5.44352 109.567C5.33711 109.63 5.21454 109.661 5.09078 109.656Z" fill="#9BA7A7"/>
</svg>
