<svg width="165" height="152" viewBox="0 0 165 152" fill="none" xmlns="http://www.w3.org/2000/svg">
<path d="M83.2639 147.628C118.194 147.628 146.511 144.448 146.511 140.525C146.511 136.602 118.194 133.422 83.2639 133.422C48.3334 133.422 20.0166 136.602 20.0166 140.525C20.0166 144.448 48.3334 147.628 83.2639 147.628Z" fill="#E4E9EA"/>
<path fill-rule="evenodd" clip-rule="evenodd" d="M32.4279 18.6909C34.7744 18.8802 36.9624 19.9505 38.5523 21.6867C40.1422 23.4228 41.0163 25.6963 40.9989 28.0504V59.1356H26.107C25.1685 59.1356 24.2684 58.7627 23.6048 58.0991C22.9412 57.4355 22.5684 56.5354 22.5684 55.5969V27.8837C22.5716 26.6202 22.8341 25.3709 23.3394 24.2128C23.8448 23.0548 24.5823 22.0128 25.5064 21.1511C26.4306 20.2895 27.5216 19.6266 28.7121 19.2034C29.9026 18.7803 31.1673 18.6058 32.4279 18.6909Z" fill="#E4E9EA"/>
<path d="M112.881 121.857C106.834 121.857 100.921 120.064 95.8928 116.704C90.8642 113.344 86.9448 108.568 84.6304 102.98C82.316 97.3929 81.7104 91.2445 82.8903 85.3128C84.0702 79.3811 86.9825 73.9325 91.259 69.656C95.5355 65.3795 100.984 62.4672 106.916 61.2873C112.848 60.1074 118.996 60.713 124.583 63.0274C130.171 65.3418 134.947 69.2612 138.307 74.2898C141.667 79.3185 143.46 85.2306 143.46 91.2785C143.45 99.3853 140.225 107.157 134.493 112.89C128.76 118.622 120.988 121.847 112.881 121.857Z" fill="#E4E9EA"/>
<path d="M112.881 114.773C125.857 114.773 136.376 104.254 136.376 91.2785C136.376 78.3026 125.857 67.7835 112.881 67.7835C99.9048 67.7835 89.3857 78.3026 89.3857 91.2785C89.3857 104.254 99.9048 114.773 112.881 114.773Z" fill="white"/>
<path d="M28.2798 111.408C28.2143 111.412 28.1496 111.391 28.098 111.351C28.0463 111.31 28.0113 111.252 27.9995 111.188C27.9877 111.123 27.9999 111.056 28.0338 111C28.0677 110.944 28.121 110.902 28.1837 110.882C29.2294 110.473 30.3 110.13 31.389 109.857C31.4595 109.841 31.5332 109.854 31.5944 109.892C31.6555 109.931 31.6991 109.991 31.7159 110.062C31.7244 110.097 31.7259 110.133 31.7201 110.168C31.7143 110.204 31.7015 110.238 31.6824 110.268C31.6633 110.299 31.6382 110.325 31.6088 110.346C31.5793 110.367 31.546 110.381 31.5108 110.389C30.4596 110.662 29.4256 110.998 28.4145 111.395C28.3715 111.411 28.3251 111.415 28.2798 111.408Z" fill="#9AA7A6"/>
<path d="M34.5683 152C34.4973 152 34.4291 151.973 34.3777 151.924C34.3264 151.875 34.2959 151.808 34.2926 151.737C34.2909 151.663 34.3181 151.592 34.3684 151.538C34.4187 151.484 34.4882 151.452 34.5619 151.449C36.7694 151.365 38.9567 150.994 41.0686 150.346C41.1036 150.335 41.1403 150.331 41.1767 150.335C41.2131 150.338 41.2485 150.349 41.2807 150.366C41.3129 150.384 41.3413 150.407 41.3644 150.436C41.3874 150.464 41.4046 150.497 41.4148 150.532C41.4256 150.566 41.4293 150.603 41.4257 150.639C41.4221 150.675 41.4113 150.71 41.394 150.741C41.3766 150.773 41.3531 150.801 41.3247 150.823C41.2963 150.846 41.2638 150.862 41.2289 150.872C39.0693 151.535 36.8324 151.915 34.5747 152H34.5683ZM27.9397 151.218C27.9144 151.224 27.888 151.224 27.8627 151.218L27.3563 151.07C25.3594 150.455 23.4774 149.515 21.7855 148.288C21.7553 148.268 21.7296 148.241 21.7099 148.211C21.6902 148.18 21.677 148.146 21.671 148.11C21.665 148.074 21.6664 148.037 21.675 148.001C21.6837 147.966 21.6994 147.933 21.7214 147.904C21.7424 147.874 21.769 147.849 21.7998 147.83C21.8305 147.811 21.8647 147.798 21.9004 147.792C21.9361 147.786 21.9727 147.787 22.0079 147.795C22.0432 147.803 22.0765 147.818 22.106 147.839C23.7485 149.033 25.5766 149.947 27.5166 150.545L28.0166 150.692C28.086 150.713 28.1445 150.76 28.1793 150.824C28.2141 150.888 28.2224 150.962 28.2025 151.032C28.1846 151.087 28.1493 151.135 28.1019 151.169C28.0546 151.202 27.9977 151.219 27.9397 151.218ZM17.2339 143.608C17.1901 143.608 17.1471 143.597 17.1081 143.577C17.0692 143.557 17.0354 143.528 17.0095 143.493C15.683 141.661 14.6372 139.64 13.9068 137.499C13.8947 137.465 13.8894 137.43 13.8912 137.394C13.8931 137.358 13.902 137.323 13.9175 137.291C13.933 137.259 13.9548 137.23 13.9816 137.206C14.0084 137.183 14.0396 137.164 14.0735 137.153C14.1076 137.141 14.1437 137.135 14.1799 137.137C14.2161 137.139 14.2516 137.148 14.2843 137.163C14.317 137.179 14.3464 137.2 14.3707 137.227C14.3951 137.254 14.4139 137.286 14.4261 137.32C15.1386 139.41 16.1584 141.383 17.4519 143.173C17.4951 143.231 17.5132 143.305 17.5024 143.377C17.4916 143.449 17.4527 143.514 17.3942 143.557C17.3487 143.588 17.2954 143.606 17.2403 143.608H17.2339ZM12.9644 130.851H12.6888C12.6888 130.608 12.6888 130.39 12.6888 130.178C12.6771 128.137 13.0086 126.109 13.6696 124.178C13.6943 124.109 13.745 124.052 13.8108 124.02C13.8766 123.988 13.9524 123.982 14.0222 124.005C14.0563 124.017 14.0877 124.036 14.1145 124.06C14.1413 124.084 14.1631 124.114 14.1786 124.147C14.1941 124.179 14.2029 124.215 14.2047 124.251C14.2065 124.287 14.2011 124.323 14.1889 124.357C13.5509 126.231 13.2303 128.199 13.2401 130.178C13.2401 130.383 13.2401 130.595 13.2401 130.819L12.9644 130.851ZM17.2596 118.786C17.1939 118.788 17.1301 118.765 17.0801 118.722C17.0543 118.697 17.0338 118.666 17.0199 118.633C17.0059 118.599 16.9987 118.563 16.9987 118.527C16.9987 118.491 17.0059 118.455 17.0199 118.421C17.0338 118.387 17.0543 118.357 17.0801 118.331C18.5714 116.627 20.2983 115.144 22.2086 113.927C22.2381 113.901 22.2729 113.882 22.3106 113.87C22.3484 113.858 22.3882 113.855 22.4273 113.86C22.4664 113.865 22.504 113.879 22.5375 113.9C22.571 113.921 22.5996 113.948 22.6214 113.981C22.6432 114.014 22.6576 114.051 22.6638 114.09C22.6699 114.129 22.6677 114.169 22.6571 114.207C22.6465 114.245 22.6279 114.281 22.6025 114.311C22.5771 114.341 22.5455 114.365 22.5099 114.382C20.6505 115.576 18.9692 117.026 17.516 118.69C17.4855 118.726 17.4468 118.753 17.4031 118.77C17.3595 118.787 17.3123 118.792 17.266 118.786H17.2596Z" fill="#9AA7A6"/>
<path d="M47.3452 148.314C47.2837 148.314 47.2241 148.293 47.1757 148.255C47.1274 148.217 47.0931 148.164 47.0783 148.104C47.0636 148.045 47.0693 147.982 47.0944 147.926C47.1195 147.87 47.1626 147.823 47.217 147.795C48.1465 147.301 49.1017 146.75 50.0569 146.154C50.1186 146.122 50.1902 146.114 50.2571 146.133C50.3241 146.151 50.3816 146.195 50.4181 146.254C50.4546 146.313 50.4673 146.384 50.4538 146.452C50.4404 146.52 50.4016 146.581 50.3454 146.621C49.3838 147.224 48.4222 147.782 47.4734 148.282C47.4332 148.301 47.3896 148.312 47.3452 148.314Z" fill="#9AA7A6"/>
<path d="M155.217 54.7828C155.013 54.7828 154.817 54.7017 154.673 54.5574C154.528 54.4132 154.447 54.2175 154.447 54.0135V44.4488C154.465 44.2577 154.553 44.0801 154.695 43.9507C154.836 43.8214 155.021 43.7497 155.213 43.7497C155.405 43.7497 155.59 43.8214 155.732 43.9507C155.874 44.0801 155.962 44.2577 155.979 44.4488V54.0071C155.981 54.1083 155.963 54.2089 155.925 54.3029C155.887 54.397 155.832 54.4826 155.761 54.5548C155.69 54.627 155.605 54.6843 155.511 54.7235C155.418 54.7626 155.318 54.7828 155.217 54.7828Z" fill="#9AA7A6"/>
<path d="M159.999 50.0004H150.434C150.328 50.0101 150.22 49.9976 150.119 49.9635C150.018 49.9294 149.924 49.8746 149.845 49.8025C149.766 49.7304 149.703 49.6427 149.66 49.5448C149.617 49.447 149.595 49.3412 149.595 49.2343C149.595 49.1274 149.617 49.0216 149.66 48.9238C149.703 48.8259 149.766 48.7382 149.845 48.6661C149.924 48.594 150.018 48.5392 150.119 48.5051C150.22 48.471 150.328 48.4585 150.434 48.4682H159.999C160.19 48.4857 160.368 48.574 160.497 48.7157C160.626 48.8575 160.698 49.0424 160.698 49.2343C160.698 49.4262 160.626 49.6111 160.497 49.7529C160.368 49.8946 160.19 49.9829 159.999 50.0004Z" fill="#9AA7A6"/>
<path d="M5.67008 67.0399C5.46776 67.0399 5.27373 66.9595 5.13066 66.8164C4.9876 66.6733 4.90723 66.4793 4.90723 66.277V56.7123C4.90723 56.51 4.9876 56.316 5.13066 56.1729C5.27373 56.0298 5.46776 55.9495 5.67008 55.9495C5.87241 55.9495 6.06645 56.0298 6.20951 56.1729C6.35258 56.316 6.43295 56.51 6.43295 56.7123V66.277C6.43295 66.4793 6.35258 66.6733 6.20951 66.8164C6.06645 66.9595 5.87241 67.0399 5.67008 67.0399Z" fill="#9AA7A6"/>
<path d="M10.4519 62.2575H0.887281C0.78079 62.2673 0.673437 62.2547 0.572071 62.2206C0.470705 62.1866 0.377549 62.1318 0.29856 62.0597C0.219572 61.9876 0.156479 61.8998 0.113312 61.802C0.070144 61.7041 0.0478516 61.5984 0.0478516 61.4914C0.0478516 61.3845 0.070144 61.2788 0.113312 61.1809C0.156479 61.0831 0.219572 60.9953 0.29856 60.9232C0.377549 60.8511 0.470705 60.7963 0.572071 60.7623C0.673437 60.7282 0.78079 60.7156 0.887281 60.7254H10.4519C10.643 60.7429 10.8207 60.8312 10.95 60.9729C11.0794 61.1146 11.1511 61.2996 11.1511 61.4914C11.1511 61.6833 11.0794 61.8683 10.95 62.01C10.8207 62.1517 10.643 62.24 10.4519 62.2575Z" fill="#9AA7A6"/>
<path d="M15.0737 79.0405C15.0089 79.0405 14.9447 79.0278 14.8848 79.003C14.8249 78.9782 14.7705 78.9418 14.7247 78.896C14.6788 78.8501 14.6425 78.7957 14.6177 78.7358C14.5928 78.676 14.5801 78.6118 14.5801 78.5469V74.598C14.5801 74.4671 14.6321 74.3415 14.7247 74.2489C14.8172 74.1564 14.9428 74.1044 15.0737 74.1044C15.2046 74.1044 15.3302 74.1564 15.4227 74.2489C15.5153 74.3415 15.5673 74.4671 15.5673 74.598V78.5469C15.5673 78.6779 15.5153 78.8034 15.4227 78.896C15.3302 78.9885 15.2046 79.0405 15.0737 79.0405Z" fill="#9AA7A6"/>
<path d="M17.0422 77.0853H13.0932C12.9623 77.0853 12.8368 77.0333 12.7442 76.9408C12.6516 76.8482 12.5996 76.7226 12.5996 76.5917C12.5996 76.4608 12.6516 76.3352 12.7442 76.2427C12.8368 76.1501 12.9623 76.0981 13.0932 76.0981H17.0422C17.1731 76.0981 17.2986 76.1501 17.3912 76.2427C17.4838 76.3352 17.5358 76.4608 17.5358 76.5917C17.5358 76.7226 17.4838 76.8482 17.3912 76.9408C17.2986 77.0333 17.1731 77.0853 17.0422 77.0853Z" fill="#9AA7A6"/>
<path d="M162.423 61.8344C162.358 61.8353 162.293 61.8231 162.232 61.7987C162.171 61.7743 162.116 61.7381 162.07 61.6921C162.023 61.6462 161.986 61.5915 161.961 61.5312C161.936 61.4709 161.923 61.4062 161.923 61.3408V57.3919C161.937 57.2698 161.995 57.1572 162.087 57.0754C162.178 56.9936 162.297 56.9484 162.42 56.9484C162.542 56.9484 162.661 56.9936 162.753 57.0754C162.844 57.1572 162.903 57.2698 162.916 57.3919V61.3408C162.916 61.4717 162.864 61.5973 162.772 61.6899C162.679 61.7824 162.554 61.8344 162.423 61.8344Z" fill="#9AA7A6"/>
<path d="M164.39 59.8599H160.448C160.317 59.8599 160.191 59.8079 160.099 59.7153C160.006 59.6228 159.954 59.4972 159.954 59.3663C159.954 59.2354 160.006 59.1098 160.099 59.0173C160.191 58.9247 160.317 58.8727 160.448 58.8727H164.39C164.521 58.8727 164.647 58.9247 164.739 59.0173C164.832 59.1098 164.884 59.2354 164.884 59.3663C164.884 59.4972 164.832 59.6228 164.739 59.7153C164.647 59.8079 164.521 59.8599 164.39 59.8599Z" fill="#9AA7A6"/>
<path d="M140.126 129.531C140.061 129.531 139.996 129.518 139.936 129.493C139.876 129.467 139.821 129.43 139.775 129.384C139.729 129.337 139.693 129.282 139.669 129.222C139.644 129.161 139.632 129.096 139.633 129.031V125.088C139.633 124.957 139.685 124.832 139.777 124.739C139.87 124.647 139.996 124.595 140.126 124.595C140.257 124.595 140.383 124.647 140.476 124.739C140.568 124.832 140.62 124.957 140.62 125.088V129.011C140.623 129.078 140.612 129.145 140.588 129.207C140.565 129.27 140.529 129.327 140.483 129.375C140.437 129.424 140.382 129.462 140.32 129.489C140.259 129.516 140.193 129.53 140.126 129.531Z" fill="#9AA7A6"/>
<path d="M142.108 127.556H138.159C138.028 127.556 137.902 127.504 137.81 127.412C137.717 127.319 137.665 127.193 137.665 127.063C137.665 126.932 137.717 126.806 137.81 126.714C137.902 126.621 138.028 126.569 138.159 126.569H142.108C142.239 126.569 142.364 126.621 142.457 126.714C142.549 126.806 142.601 126.932 142.601 127.063C142.601 127.193 142.549 127.319 142.457 127.412C142.364 127.504 142.239 127.556 142.108 127.556Z" fill="#9AA7A6"/>
<path d="M99.8673 8.49153C99.7263 8.49153 99.5852 8.49153 99.4442 8.49153C98.601 8.41677 97.7996 8.09118 97.1431 7.55675C96.4867 7.02232 96.0054 6.30353 95.7612 5.49304C95.517 4.68254 95.5212 3.81749 95.7731 3.00938C96.0251 2.20127 96.5133 1.48714 97.1748 0.95904C97.6036 0.604329 98.099 0.338827 98.6318 0.178106C99.1646 0.0173843 99.7241 -0.0353249 100.278 0.0230829C101.401 0.0774895 102.456 0.575778 103.212 1.40832C103.967 2.24086 104.361 3.33946 104.307 4.46245C104.252 5.58543 103.754 6.64082 102.921 7.39642C102.089 8.15202 100.99 8.54594 99.8673 8.49153ZM99.8673 0.657739C98.9755 0.658361 98.1159 0.990856 97.4559 1.59048C96.7958 2.1901 96.3826 3.01392 96.2966 3.90152C96.2352 4.83309 96.5385 5.75202 97.1424 6.46402C97.7462 7.17603 98.6033 7.6253 99.5324 7.71688C100.461 7.80846 101.39 7.53516 102.121 6.95475C102.852 6.37434 103.329 5.53232 103.451 4.60669C103.544 3.6611 103.259 2.71703 102.659 1.98072C102.058 1.24442 101.191 0.775704 100.246 0.67697L99.8673 0.657739Z" fill="#9AA7A6"/>
<path d="M105.996 2.77327C105.933 2.77172 105.871 2.74871 105.823 2.70798C105.774 2.66725 105.74 2.61118 105.727 2.5489C105.721 2.51311 105.721 2.47639 105.729 2.44087C105.737 2.40535 105.752 2.37172 105.772 2.34192C105.793 2.31213 105.82 2.28676 105.851 2.26727C105.881 2.24778 105.916 2.23456 105.951 2.22837C107.044 2.03621 108.146 1.90141 109.253 1.8245C109.325 1.82258 109.394 1.84802 109.448 1.89565C109.501 1.94328 109.535 2.00953 109.541 2.08092C109.544 2.11714 109.539 2.15352 109.528 2.18797C109.516 2.22242 109.498 2.25426 109.474 2.28166C109.451 2.30906 109.422 2.33149 109.389 2.34765C109.357 2.3638 109.321 2.37338 109.285 2.37582C108.2 2.44886 107.119 2.57939 106.048 2.76687L105.996 2.77327Z" fill="#9AA7A6"/>
<path d="M141.595 35.6021C141.523 35.5925 141.458 35.5559 141.413 35.4999C141.368 35.4439 141.345 35.3726 141.351 35.3008C141.434 34.3777 141.479 33.4353 141.479 32.4994C141.479 31.2585 141.402 30.0189 141.248 28.7876C141.239 28.7154 141.259 28.6425 141.304 28.5849C141.348 28.5272 141.413 28.4895 141.486 28.4799C141.558 28.4708 141.631 28.4906 141.688 28.5351C141.746 28.5795 141.784 28.6449 141.793 28.7171C141.949 29.9719 142.028 31.235 142.031 32.4994C142.031 33.4545 141.986 34.4225 141.896 35.3521C141.893 35.3883 141.882 35.4236 141.865 35.4558C141.848 35.4881 141.825 35.5166 141.797 35.5399C141.769 35.5631 141.737 35.5806 141.702 35.5913C141.667 35.602 141.631 35.6056 141.595 35.6021ZM139.986 22.6334C139.929 22.6325 139.874 22.6142 139.828 22.5809C139.782 22.5477 139.748 22.5011 139.729 22.4475C139.004 20.3948 138.061 18.4261 136.915 16.5753C136.895 16.5448 136.882 16.5107 136.876 16.4749C136.869 16.4391 136.871 16.4024 136.879 16.3671C136.887 16.3318 136.903 16.2985 136.924 16.2693C136.946 16.2401 136.973 16.2155 137.005 16.1971C137.035 16.1774 137.069 16.1641 137.105 16.1579C137.141 16.1518 137.177 16.1529 137.213 16.1613C137.248 16.1697 137.281 16.1851 137.311 16.2067C137.34 16.2283 137.364 16.2556 137.383 16.2869C138.548 18.1705 139.509 20.1734 140.248 22.2616C140.261 22.2957 140.266 22.3318 140.264 22.368C140.262 22.4042 140.254 22.4397 140.238 22.4724C140.223 22.5052 140.201 22.5345 140.174 22.5588C140.147 22.5832 140.116 22.602 140.082 22.6142C140.051 22.6267 140.019 22.6332 139.986 22.6334ZM133.075 11.5238C133.002 11.5224 132.933 11.4925 132.883 11.4404C131.363 9.87934 129.678 8.48857 127.857 7.29275C127.797 7.25233 127.755 7.19007 127.741 7.11935C127.726 7.04863 127.74 6.97508 127.78 6.91452C127.819 6.85369 127.881 6.81084 127.952 6.79524C128.022 6.77964 128.097 6.79256 128.158 6.83119C130.016 8.04872 131.736 9.4653 133.286 11.0558C133.312 11.0814 133.333 11.1119 133.347 11.1454C133.361 11.179 133.368 11.215 133.368 11.2513C133.368 11.2877 133.361 11.3236 133.347 11.3572C133.333 11.3908 133.312 11.4212 133.286 11.4468C133.259 11.4742 133.226 11.4952 133.189 11.5085C133.153 11.5218 133.114 11.527 133.075 11.5238ZM122.177 4.33745H122.074C120.042 3.55525 117.931 2.99429 115.779 2.66427C115.708 2.65317 115.644 2.61479 115.601 2.55732C115.558 2.49984 115.539 2.42781 115.548 2.35656C115.559 2.2843 115.599 2.21941 115.657 2.17613C115.716 2.13285 115.79 2.11474 115.862 2.12578C118.054 2.45827 120.204 3.02788 122.273 3.8246C122.341 3.85049 122.395 3.90201 122.425 3.968C122.455 4.03399 122.458 4.10915 122.433 4.17718C122.41 4.22548 122.374 4.2662 122.328 4.29458C122.283 4.32296 122.23 4.33783 122.177 4.33745Z" fill="#9AA7A6"/>
<path d="M139.088 45.1476C139.052 45.1571 139.014 45.1571 138.979 45.1476C138.945 45.133 138.915 45.1119 138.89 45.0856C138.865 45.0593 138.845 45.0283 138.832 44.9943C138.819 44.9603 138.813 44.9241 138.814 44.8877C138.815 44.8513 138.823 44.8154 138.838 44.7822C139.283 43.7875 139.673 42.7688 140.004 41.7307C140.029 41.6632 140.079 41.6076 140.143 41.5754C140.207 41.5433 140.282 41.5369 140.351 41.5576C140.385 41.5686 140.417 41.5862 140.445 41.6095C140.473 41.6328 140.495 41.6614 140.512 41.6935C140.529 41.7257 140.539 41.7608 140.542 41.7969C140.545 41.833 140.541 41.8693 140.53 41.9038C140.189 42.9587 139.79 43.9944 139.338 45.0066C139.313 45.0508 139.277 45.0873 139.232 45.1122C139.188 45.1371 139.138 45.1493 139.088 45.1476Z" fill="#9AA7A6"/>
<path d="M120.087 140.551C119.547 140.551 119.011 140.455 118.503 140.269L110.638 137.294L102.778 140.243C101.757 140.621 100.633 140.621 99.6114 140.243L91.7519 137.294L83.8861 140.243C82.8665 140.621 81.7452 140.621 80.7256 140.243L72.8598 137.294L64.9939 140.243C63.9744 140.621 62.8531 140.621 61.8335 140.243L53.9677 137.294L46.1082 140.243C45.4269 140.502 44.6926 140.592 43.969 140.503C43.2453 140.415 42.5541 140.152 41.955 139.737C41.3559 139.321 40.867 138.766 40.5307 138.119C40.1943 137.473 40.0206 136.754 40.0245 136.025L40.0822 28.1465C40.0839 27.0292 39.8653 25.9224 39.4388 24.8896C39.0124 23.8568 38.3865 22.9182 37.597 22.1275C36.8075 21.3368 35.8698 20.7095 34.8377 20.2815C33.8055 19.8535 32.6991 19.6332 31.5817 19.6332C31.3267 19.6332 31.0821 19.5319 30.9018 19.3516C30.7214 19.1712 30.6201 18.9266 30.6201 18.6716C30.6201 18.4166 30.7214 18.172 30.9018 17.9917C31.0821 17.8113 31.3267 17.71 31.5817 17.71H110.875C114.511 17.7134 117.996 19.1592 120.567 21.73C123.138 24.3008 124.584 27.7867 124.587 31.4224V62.6486C124.587 62.9036 124.486 63.1482 124.306 63.3285C124.125 63.5089 123.881 63.6102 123.626 63.6102C123.371 63.6102 123.126 63.5089 122.946 63.3285C122.765 63.1482 122.664 62.9036 122.664 62.6486V31.4224C122.662 28.2962 121.42 25.2986 119.209 23.088C116.999 20.8775 114.001 19.6349 110.875 19.6332H37.6141C38.0933 19.9738 38.5436 20.3533 38.9604 20.7679C39.9314 21.7361 40.7006 22.8874 41.2233 24.1551C41.746 25.4228 42.0119 26.7817 42.0054 28.1529L41.9477 136.025C41.9437 136.443 42.0422 136.856 42.2345 137.228C42.4269 137.6 42.7073 137.918 43.0512 138.157C43.3952 138.395 43.7923 138.546 44.2078 138.595C44.6233 138.645 45.0447 138.592 45.4351 138.441L53.6343 135.364C53.8509 135.281 54.0908 135.281 54.3074 135.364L62.5066 138.441C63.0917 138.66 63.7358 138.66 64.3208 138.441L72.52 135.364C72.7389 135.281 72.9807 135.281 73.1996 135.364L81.3988 138.441C81.9838 138.66 82.6279 138.66 83.213 138.441L91.4122 135.364C91.6288 135.281 91.8687 135.281 92.0853 135.364L100.291 138.441C100.873 138.661 101.516 138.661 102.099 138.441L110.304 135.364C110.511 135.289 110.738 135.289 110.945 135.364L119.145 138.441C119.535 138.592 119.956 138.645 120.372 138.595C120.787 138.546 121.184 138.395 121.528 138.157C121.872 137.918 122.153 137.6 122.345 137.228C122.537 136.856 122.636 136.443 122.632 136.025V119.908C122.632 119.653 122.733 119.409 122.914 119.228C123.094 119.048 123.339 118.947 123.594 118.947C123.849 118.947 124.093 119.048 124.273 119.228C124.454 119.409 124.555 119.653 124.555 119.908V136.025C124.555 137.215 124.082 138.356 123.241 139.198C122.399 140.039 121.258 140.512 120.068 140.512L120.087 140.551Z" fill="#9AA7A6"/>
<path d="M40.9921 60.0971H26.1066C24.9164 60.0971 23.775 59.6243 22.9335 58.7828C22.0919 57.9412 21.6191 56.7998 21.6191 55.6096V27.8837C21.6187 26.4921 21.9028 25.1152 22.454 23.8374C23.0052 22.5597 23.8119 21.4082 24.8245 20.4537C25.8404 19.4961 27.0442 18.7599 28.3597 18.292C29.6751 17.8241 31.0734 17.6346 32.4659 17.7356C35.0573 17.9353 37.4763 19.1114 39.2339 21.0261C40.9915 22.9408 41.9567 25.4513 41.9344 28.0503V59.1355C41.9345 59.3872 41.8358 59.6289 41.6596 59.8087C41.4834 59.9885 41.2438 60.0921 40.9921 60.0971ZM31.7864 19.6332C29.6989 19.6291 27.6892 20.4252 26.1707 21.8577C25.3436 22.6288 24.6835 23.5615 24.2314 24.598C23.7793 25.6345 23.5448 26.7528 23.5423 27.8837V55.5968C23.5423 56.2769 23.8125 56.9291 24.2934 57.41C24.7743 57.8909 25.4265 58.1611 26.1066 58.1611H40.0305V28.0311C40.053 25.9165 39.2708 23.8724 37.8424 22.3131C36.414 20.7537 34.4462 19.7957 32.3377 19.6332C32.1539 19.6332 31.9702 19.6332 31.7864 19.6332Z" fill="#9AA7A6"/>
<path d="M112.881 122.819C106.643 122.819 100.545 120.969 95.3583 117.503C90.1715 114.038 86.1289 109.112 83.7417 103.348C81.3545 97.5851 80.7299 91.2435 81.9469 85.1252C83.1639 79.007 86.1678 73.387 90.5788 68.9761C94.9898 64.5651 100.61 61.5611 106.728 60.3442C112.846 59.1272 119.188 59.7518 124.951 62.139C130.714 64.5262 135.64 68.5688 139.106 73.7556C142.572 78.9423 144.421 85.0404 144.421 91.2784C144.413 99.6409 141.087 107.658 135.174 113.571C129.261 119.485 121.244 122.81 112.881 122.819ZM112.881 61.6613C107.023 61.6613 101.297 63.3983 96.4267 66.6527C91.5562 69.9071 87.7601 74.5326 85.5185 79.9444C83.2768 85.3563 82.6903 91.3113 83.8331 97.0564C84.9759 102.802 87.7966 108.079 91.9387 112.221C96.0807 116.363 101.358 119.184 107.103 120.326C112.848 121.469 118.803 120.883 124.215 118.641C129.627 116.399 134.253 112.603 137.507 107.733C140.761 102.862 142.498 97.1362 142.498 91.2784C142.49 83.4261 139.367 75.8978 133.814 70.3453C128.262 64.7929 120.734 61.6698 112.881 61.6613Z" fill="#9AA7A6"/>
<path d="M112.881 115.735C108.044 115.735 103.316 114.301 99.294 111.613C95.2722 108.926 92.1375 105.106 90.2865 100.638C88.4354 96.1687 87.9511 91.2513 88.8947 86.5072C89.8384 81.7631 92.1677 77.4054 95.588 73.9851C99.0083 70.5648 103.366 68.2355 108.11 67.2918C112.854 66.3482 117.772 66.8325 122.241 68.6835C126.709 70.5346 130.529 73.6693 133.216 77.6911C135.904 81.713 137.338 86.4414 137.338 91.2785C137.331 97.7627 134.752 103.979 130.167 108.564C125.582 113.149 119.366 115.728 112.881 115.735ZM112.881 68.7451C108.425 68.7451 104.068 70.0667 100.363 72.5427C96.6569 75.0187 93.7688 78.5379 92.0633 82.6553C90.3578 86.7728 89.9115 91.3035 90.781 95.6745C91.6504 100.046 93.7965 104.061 96.9479 107.212C100.099 110.363 104.114 112.509 108.485 113.379C112.856 114.248 117.387 113.802 121.505 112.097C125.622 110.391 129.141 107.503 131.617 103.797C134.093 100.092 135.415 95.7352 135.415 91.2785C135.406 85.3055 133.029 79.5796 128.805 75.3566C124.581 71.1336 118.854 68.7583 112.881 68.7515V68.7451Z" fill="#9AA7A6"/>
<path d="M112.881 98.6699C111.968 98.6699 111.093 98.3072 110.447 97.6616C109.801 97.016 109.439 96.1404 109.439 95.2274H105.996C106.002 96.7499 106.512 98.2276 107.447 99.4293C108.382 100.631 109.689 101.489 111.163 101.869V105.555H114.606V101.869C116.226 101.451 117.638 100.456 118.577 99.0707C119.516 97.6855 119.917 96.0054 119.706 94.3455C119.494 92.6855 118.684 91.1598 117.428 90.0546C116.171 88.9494 114.555 88.3406 112.881 88.3424C112.2 88.3424 111.534 88.1403 110.968 87.7618C110.402 87.3832 109.96 86.8452 109.7 86.2158C109.44 85.5864 109.372 84.8938 109.505 84.2259C109.639 83.5579 109.967 82.9446 110.449 82.4634C110.931 81.9822 111.545 81.6548 112.213 81.5227C112.882 81.3906 113.574 81.4597 114.203 81.7212C114.832 81.9828 115.369 82.425 115.747 82.992C116.124 83.5589 116.325 84.2251 116.324 84.9063H119.766C119.761 83.3846 119.252 81.9076 118.318 80.706C117.384 79.5044 116.079 78.646 114.606 78.2648V74.5787H111.163V78.2648C109.539 78.6776 108.122 79.67 107.179 81.0551C106.236 82.4402 105.832 84.1223 106.043 85.7846C106.254 87.447 107.066 88.9746 108.326 90.0798C109.585 91.185 111.205 91.7915 112.881 91.7849C113.794 91.7849 114.67 92.1476 115.315 92.7932C115.961 93.4388 116.324 94.3144 116.324 95.2274C116.324 96.1404 115.961 97.016 115.315 97.6616C114.67 98.3072 113.794 98.6699 112.881 98.6699Z" fill="#9AA7A6"/>
<path d="M99.0211 39.8652H57.4801C57.2251 39.8652 56.9805 39.7639 56.8002 39.5836C56.6199 39.4032 56.5186 39.1586 56.5186 38.9036C56.5186 38.6486 56.6199 38.404 56.8002 38.2237C56.9805 38.0433 57.2251 37.942 57.4801 37.942H99.0211C99.2761 37.942 99.5207 38.0433 99.701 38.2237C99.8814 38.404 99.9827 38.6486 99.9827 38.9036C99.9827 39.1586 99.8814 39.4032 99.701 39.5836C99.5207 39.7639 99.2761 39.8652 99.0211 39.8652Z" fill="#9AA7A6"/>
<path d="M94.047 49.3978H52.4997C52.2447 49.3978 52.0001 49.2965 51.8197 49.1162C51.6394 48.9358 51.5381 48.6912 51.5381 48.4362C51.5381 48.1812 51.6394 47.9366 51.8197 47.7563C52.0001 47.5759 52.2447 47.4746 52.4997 47.4746H94.047C94.302 47.4746 94.5466 47.5759 94.727 47.7563C94.9073 47.9366 95.0086 48.1812 95.0086 48.4362C95.0086 48.6912 94.9073 48.9358 94.727 49.1162C94.5466 49.2965 94.302 49.3978 94.047 49.3978Z" fill="#9AA7A6"/>
<path d="M96.5337 58.924H54.9928C54.7378 58.924 54.4932 58.8227 54.3129 58.6423C54.1326 58.462 54.0312 58.2174 54.0312 57.9624C54.0312 57.7074 54.1326 57.4628 54.3129 57.2824C54.4932 57.1021 54.7378 57.0008 54.9928 57.0008H96.5337C96.7888 57.0008 97.0334 57.1021 97.2137 57.2824C97.394 57.4628 97.4953 57.7074 97.4953 57.9624C97.4953 58.2174 97.394 58.462 97.2137 58.6423C97.0334 58.8227 96.7888 58.924 96.5337 58.924Z" fill="#9AA7A6"/>
<path d="M81.4049 68.4566H49.9928C49.7378 68.4566 49.4932 68.3553 49.3129 68.175C49.1326 67.9946 49.0312 67.7501 49.0312 67.495C49.0312 67.24 49.1326 66.9954 49.3129 66.8151C49.4932 66.6348 49.7378 66.5334 49.9928 66.5334H81.4049C81.66 66.5334 81.9046 66.6348 82.0849 66.8151C82.2652 66.9954 82.3665 67.24 82.3665 67.495C82.3665 67.7501 82.2652 67.9946 82.0849 68.175C81.9046 68.3553 81.66 68.4566 81.4049 68.4566Z" fill="#9AA7A6"/>
</svg>
