<svg width="175" height="152" viewBox="0 0 175 152" fill="none" xmlns="http://www.w3.org/2000/svg">
<path d="M102.792 146.144C137.981 146.144 166.507 142.599 166.507 138.227C166.507 133.854 137.981 130.31 102.792 130.31C67.6033 130.31 39.0771 133.854 39.0771 138.227C39.0771 142.599 67.6033 146.144 102.792 146.144Z" fill="#E4E9EA"/>
<path d="M168.555 51.2192C168.334 51.2192 168.123 51.1317 167.967 50.9759C167.811 50.82 167.724 50.6087 167.724 50.3883V40.0051C167.724 39.7847 167.811 39.5734 167.967 39.4176C168.123 39.2617 168.334 39.1742 168.555 39.1742C168.775 39.1742 168.986 39.2617 169.142 39.4176C169.298 39.5734 169.385 39.7847 169.385 40.0051V50.3883C169.385 50.6087 169.298 50.82 169.142 50.9759C168.986 51.1317 168.775 51.2192 168.555 51.2192Z" fill="#9AA7A6"/>
<path d="M173.719 46.0277H163.336C163.115 46.0277 162.904 45.9401 162.748 45.7843C162.592 45.6285 162.505 45.4171 162.505 45.1968C162.505 44.9764 162.592 44.765 162.748 44.6092C162.904 44.4534 163.115 44.3658 163.336 44.3658H173.719C173.939 44.3658 174.151 44.4534 174.307 44.6092C174.462 44.765 174.55 44.9764 174.55 45.1968C174.55 45.4171 174.462 45.6285 174.307 45.7843C174.151 45.9401 173.939 46.0277 173.719 46.0277Z" fill="#9AA7A6"/>
<path d="M33.2411 120.066C33.0207 120.066 32.8094 119.979 32.6535 119.823C32.4977 119.667 32.4102 119.456 32.4102 119.235V108.852C32.4102 108.632 32.4977 108.42 32.6535 108.264C32.8094 108.109 33.0207 108.021 33.2411 108.021C33.4615 108.021 33.6728 108.109 33.8286 108.264C33.9845 108.42 34.072 108.632 34.072 108.852V119.235C34.072 119.456 33.9845 119.667 33.8286 119.823C33.6728 119.979 33.4615 120.066 33.2411 120.066Z" fill="#9AA7A6"/>
<path d="M38.4319 114.874H28.0487C27.8283 114.874 27.617 114.787 27.4611 114.631C27.3053 114.475 27.2178 114.264 27.2178 114.043C27.2178 113.823 27.3053 113.612 27.4611 113.456C27.617 113.3 27.8283 113.213 28.0487 113.213H38.4319C38.6523 113.213 38.8636 113.3 39.0194 113.456C39.1753 113.612 39.2628 113.823 39.2628 114.043C39.2628 114.264 39.1753 114.475 39.0194 114.631C38.8636 114.787 38.6523 114.874 38.4319 114.874Z" fill="#9AA7A6"/>
<path d="M18.3236 46.3002C18.1808 46.3002 18.0438 46.2434 17.9429 46.1425C17.8419 46.0415 17.7852 45.9045 17.7852 45.7617V41.4808C17.7852 41.338 17.8419 41.2011 17.9429 41.1001C18.0438 40.9991 18.1808 40.9424 18.3236 40.9424C18.4664 40.9424 18.6033 40.9991 18.7043 41.1001C18.8053 41.2011 18.862 41.338 18.862 41.4808V45.7617C18.862 45.9045 18.8053 46.0415 18.7043 46.1425C18.6033 46.2434 18.4664 46.3002 18.3236 46.3002Z" fill="#9AA7A6"/>
<path d="M20.464 44.1597H16.1831C16.1078 44.1681 16.0316 44.1606 15.9595 44.1375C15.8873 44.1144 15.8209 44.0764 15.7644 44.0259C15.7079 43.9754 15.6628 43.9136 15.6319 43.8444C15.6009 43.7753 15.585 43.7004 15.585 43.6246C15.585 43.5489 15.6009 43.474 15.6319 43.4048C15.6628 43.3357 15.7079 43.2738 15.7644 43.2233C15.8209 43.1728 15.8873 43.1348 15.9595 43.1117C16.0316 43.0887 16.1078 43.0811 16.1831 43.0895H20.464C20.5393 43.0811 20.6155 43.0887 20.6877 43.1117C20.7598 43.1348 20.8263 43.1728 20.8828 43.2233C20.9392 43.2738 20.9844 43.3357 21.0153 43.4048C21.0462 43.474 21.0622 43.5489 21.0622 43.6246C21.0622 43.7004 21.0462 43.7753 21.0153 43.8444C20.9844 43.9136 20.9392 43.9754 20.8828 44.0259C20.8263 44.0764 20.7598 44.1144 20.6877 44.1375C20.6155 44.1606 20.5393 44.1681 20.464 44.1597Z" fill="#9AA7A6"/>
<path d="M162.506 89.9402C162.363 89.9402 162.226 89.8835 162.125 89.7825C162.025 89.6816 161.968 89.5446 161.968 89.4018V85.1209C161.968 84.9781 162.025 84.8411 162.125 84.7402C162.226 84.6392 162.363 84.5825 162.506 84.5825C162.649 84.5825 162.786 84.6392 162.887 84.7402C162.988 84.8411 163.045 84.9781 163.045 85.1209V89.4018C163.045 89.5446 162.988 89.6816 162.887 89.7825C162.786 89.8835 162.649 89.9402 162.506 89.9402Z" fill="#9AA7A6"/>
<path d="M164.646 87.7998H160.366C160.223 87.7998 160.086 87.743 159.985 87.6421C159.884 87.5411 159.827 87.4041 159.827 87.2613C159.827 87.1185 159.884 86.9816 159.985 86.8806C160.086 86.7796 160.223 86.7229 160.366 86.7229H164.646C164.789 86.7229 164.926 86.7796 165.027 86.8806C165.128 86.9816 165.185 87.1185 165.185 87.2613C165.185 87.4041 165.128 87.5411 165.027 87.6421C164.926 87.743 164.789 87.7998 164.646 87.7998Z" fill="#9AA7A6"/>
<path d="M102.254 151.481C102.184 151.482 102.114 151.469 102.049 151.443C101.983 151.417 101.924 151.378 101.874 151.328C101.824 151.279 101.784 151.22 101.757 151.155C101.73 151.09 101.716 151.02 101.716 150.95V146.662C101.716 146.519 101.773 146.382 101.874 146.281C101.975 146.18 102.111 146.124 102.254 146.124C102.397 146.124 102.534 146.18 102.635 146.281C102.736 146.382 102.793 146.519 102.793 146.662V150.95C102.793 151.02 102.779 151.09 102.752 151.155C102.724 151.22 102.685 151.279 102.635 151.328C102.584 151.378 102.525 151.417 102.46 151.443C102.395 151.469 102.325 151.482 102.254 151.481Z" fill="#9AA7A6"/>
<path d="M104.395 149.341H100.087C100.012 149.349 99.936 149.342 99.8638 149.319C99.7916 149.296 99.7252 149.258 99.6687 149.207C99.6123 149.157 99.5671 149.095 99.5362 149.026C99.5052 148.957 99.4893 148.882 99.4893 148.806C99.4893 148.73 99.5052 148.655 99.5362 148.586C99.5671 148.517 99.6123 148.455 99.6687 148.405C99.7252 148.354 99.7916 148.316 99.8638 148.293C99.936 148.27 100.012 148.262 100.087 148.271H104.368C104.444 148.262 104.52 148.27 104.592 148.293C104.664 148.316 104.731 148.354 104.787 148.405C104.844 148.455 104.889 148.517 104.92 148.586C104.951 148.655 104.967 148.73 104.967 148.806C104.967 148.882 104.951 148.957 104.92 149.026C104.889 149.095 104.844 149.157 104.787 149.207C104.731 149.258 104.664 149.296 104.592 149.319C104.52 149.342 104.444 149.349 104.368 149.341H104.395Z" fill="#9AA7A6"/>
<path d="M108.463 13.5619C107.558 13.5619 106.674 13.2935 105.922 12.7907C105.169 12.2878 104.583 11.5732 104.237 10.7371C103.891 9.90106 103.801 8.98116 103.978 8.09382C104.155 7.20649 104.591 6.39161 105.232 5.75227C105.872 5.11294 106.687 4.67788 107.575 4.50217C108.462 4.32645 109.382 4.41798 110.218 4.76515C111.053 5.11232 111.767 5.69953 112.269 6.45249C112.771 7.20545 113.038 8.09032 113.036 8.99514C113.035 10.2069 112.552 11.3685 111.695 12.2247C110.837 13.081 109.675 13.5619 108.463 13.5619ZM108.463 5.06655C107.686 5.06655 106.926 5.29695 106.28 5.72863C105.634 6.16031 105.131 6.77387 104.833 7.49173C104.536 8.20959 104.458 8.9995 104.61 9.76157C104.762 10.5236 105.136 11.2237 105.685 11.7731C106.235 12.3225 106.935 12.6967 107.697 12.8483C108.459 12.9998 109.249 12.922 109.966 12.6247C110.684 12.3273 111.298 11.8238 111.73 11.1778C112.161 10.5317 112.392 9.77214 112.392 8.99514C112.39 7.95375 111.975 6.95552 111.239 6.21915C110.503 5.48277 109.504 5.06831 108.463 5.06655Z" fill="#9AA7A6"/>
<path d="M140.982 29.9543C138.539 31.1773 136.645 33.2732 135.675 35.8266C134.705 38.38 134.729 41.2047 135.744 43.7409H53.8812C52.8671 41.2047 52.8427 38.38 53.8129 35.8266C54.783 33.2732 56.6769 31.1773 59.1193 29.9543L61.3196 28.8575H143.189L140.982 29.9543Z" fill="#E4E9EA"/>
<path d="M131.994 137.728C131.739 137.728 131.493 137.627 131.313 137.446C131.132 137.265 131.03 137.02 131.03 136.764C131.04 100.824 134.71 64.9779 141.985 29.7815L142.218 28.6581C142.244 28.5341 142.293 28.4164 142.365 28.3118C142.436 28.2071 142.527 28.1175 142.633 28.048C142.739 27.9786 142.857 27.9307 142.982 27.907C143.106 27.8834 143.234 27.8845 143.358 27.9102C143.482 27.936 143.599 27.9859 143.704 28.0571C143.809 28.1284 143.898 28.2195 143.968 28.3254C144.037 28.4312 144.085 28.5497 144.109 28.6741C144.132 28.7985 144.131 28.9263 144.106 29.0503L143.873 30.1737C136.624 65.241 132.967 100.956 132.958 136.764C132.958 137.02 132.856 137.265 132.676 137.446C132.495 137.627 132.25 137.728 131.994 137.728Z" fill="#030203"/>
<path d="M154.349 137.728H50.1582C49.9026 137.728 49.6574 137.627 49.4766 137.446C49.2959 137.265 49.1943 137.02 49.1943 136.764C49.2035 105.515 51.9774 74.3282 57.4836 43.5681C57.5286 43.316 57.6718 43.0921 57.8819 42.9456C58.0919 42.7991 58.3516 42.7421 58.6037 42.787C58.8558 42.832 59.0797 42.9753 59.2262 43.1853C59.3727 43.3954 59.4297 43.655 59.3848 43.9071C53.9538 74.2383 51.189 104.987 51.1221 135.8H153.385C153.313 100.314 149.656 64.9252 142.47 30.1737L142.244 29.0503C142.218 28.9263 142.217 28.7985 142.241 28.6741C142.265 28.5497 142.313 28.4312 142.382 28.3254C142.451 28.2195 142.541 28.1284 142.646 28.0571C142.75 27.9859 142.868 27.936 142.992 27.9102C143.116 27.8845 143.244 27.8834 143.368 27.907C143.493 27.9307 143.611 27.9786 143.717 28.048C143.823 28.1175 143.914 28.2071 143.985 28.3118C144.056 28.4164 144.106 28.5341 144.132 28.6581L144.358 29.7815C151.636 64.9774 155.307 100.824 155.313 136.764C155.313 137.02 155.211 137.265 155.031 137.446C154.85 137.627 154.605 137.728 154.349 137.728Z" fill="#9AA7A6"/>
<path d="M154.349 137.728H131.994C131.739 137.728 131.493 137.627 131.313 137.446C131.132 137.265 131.03 137.02 131.03 136.764C131.04 100.824 134.71 64.9779 141.985 29.7815L142.218 28.6581C142.262 28.4411 142.381 28.2464 142.553 28.107C142.725 27.9676 142.94 27.8922 143.162 27.8936C143.383 27.8934 143.597 27.9693 143.769 28.1085C143.941 28.2477 144.06 28.4417 144.106 28.6581L144.332 29.7815C151.61 64.9774 155.28 100.824 155.287 136.764C155.287 137.015 155.189 137.257 155.014 137.437C154.839 137.617 154.6 137.721 154.349 137.728ZM132.985 135.8H153.385C153.311 101.509 149.896 67.3061 143.188 33.6768C136.475 67.3054 133.058 101.508 132.985 135.8Z" fill="#9AA7A6"/>
<path d="M154.348 136.764L143.294 121.881L131.993 136.764H154.348Z" fill="#E4E9EA"/>
<path d="M135.743 44.7048H53.8804C53.6877 44.7045 53.4994 44.6468 53.3395 44.5391C53.1797 44.4313 53.0556 44.2785 52.983 44.0999C51.9053 41.337 51.8921 38.2723 52.9459 35.5002C53.9997 32.7281 56.0455 30.4461 58.6864 29.0968L60.8934 27.9933C61.0255 27.9275 61.1712 27.8934 61.3188 27.8936H143.188C143.404 27.8936 143.614 27.9663 143.784 28.1001C143.954 28.234 144.074 28.4211 144.125 28.6315C144.174 28.8435 144.151 29.0659 144.06 29.2634C143.968 29.4609 143.813 29.6222 143.62 29.7216L141.413 30.8185C139.194 31.9405 137.475 33.8511 136.592 36.1753C135.709 38.4995 135.726 41.0698 136.64 43.382C136.699 43.5289 136.72 43.6878 136.703 43.845C136.686 44.0022 136.631 44.1529 136.543 44.2839C136.454 44.415 136.335 44.5224 136.196 44.5969C136.056 44.6715 135.901 44.7108 135.743 44.7115V44.7048ZM54.5584 42.7771H134.407C133.779 40.3762 133.913 37.8395 134.791 35.5183C135.669 33.197 137.246 31.2062 139.306 29.8214H61.5315L59.5373 30.8185C57.4193 31.8924 55.7542 33.6869 54.8415 35.8792C53.9287 38.0714 53.8284 40.5174 54.5584 42.7771Z" fill="#9AA7A6"/>
<path d="M154.349 137.728H131.994C131.815 137.728 131.64 137.678 131.487 137.584C131.335 137.49 131.211 137.356 131.13 137.196C131.05 137.036 131.017 136.855 131.035 136.677C131.053 136.498 131.12 136.328 131.23 136.186L142.53 121.296C142.621 121.178 142.738 121.083 142.872 121.017C143.006 120.951 143.152 120.917 143.301 120.917C143.452 120.918 143.599 120.954 143.733 121.022C143.867 121.09 143.983 121.189 144.072 121.309L155.1 136.193C155.205 136.338 155.268 136.508 155.283 136.686C155.298 136.864 155.265 137.042 155.187 137.203C155.108 137.358 154.988 137.489 154.841 137.581C154.693 137.674 154.523 137.724 154.349 137.728ZM133.988 135.8H152.455L143.295 123.489L133.988 135.8Z" fill="#9AA7A6"/>
<path d="M112.716 6.19666C112.653 6.19581 112.591 6.17482 112.54 6.13674C112.49 6.09866 112.452 6.04545 112.434 5.98479C112.415 5.92414 112.417 5.85917 112.438 5.79928C112.458 5.73938 112.498 5.68766 112.55 5.65157C113.548 4.97758 114.582 4.35846 115.647 3.79696C115.682 3.77861 115.72 3.76731 115.758 3.76374C115.797 3.76017 115.836 3.76439 115.873 3.77616C115.911 3.78792 115.945 3.807 115.975 3.83226C116.004 3.85752 116.029 3.88847 116.046 3.92326C116.065 3.95725 116.077 3.99458 116.081 4.03311C116.085 4.07164 116.081 4.11059 116.07 4.1477C116.059 4.18481 116.04 4.21933 116.016 4.24927C115.991 4.27921 115.961 4.30396 115.927 4.3221C114.882 4.87353 113.868 5.48156 112.889 6.14348C112.837 6.17684 112.777 6.19525 112.716 6.19666Z" fill="#9AA7A6"/>
<path d="M162.505 23.0211C162.443 23.0215 162.383 23.0024 162.333 22.9666C162.283 22.9308 162.245 22.8801 162.225 22.8217C161.466 20.5825 160.468 18.4319 159.247 16.407C159.214 16.3396 159.208 16.2622 159.229 16.1902C159.251 16.1182 159.298 16.0569 159.363 16.0184C159.427 15.9799 159.504 15.9671 159.577 15.9824C159.651 15.9977 159.716 16.0401 159.759 16.1012C161.002 18.1617 162.018 20.3503 162.791 22.6289C162.816 22.7038 162.811 22.7858 162.776 22.8568C162.741 22.9278 162.679 22.9821 162.604 23.0078L162.505 23.0211ZM155.193 10.8763C155.151 10.8775 155.111 10.8698 155.073 10.8538C155.035 10.8377 155.001 10.8137 154.973 10.7833C153.349 9.06693 151.544 7.53132 149.589 6.20324C149.554 6.182 149.524 6.15394 149.501 6.12075C149.477 6.08756 149.461 6.04994 149.453 6.0102C149.444 5.97046 149.444 5.92941 149.452 5.88958C149.46 5.84974 149.476 5.81195 149.499 5.7785C149.522 5.74505 149.552 5.71665 149.586 5.69502C149.62 5.6734 149.659 5.659 149.699 5.65272C149.739 5.64643 149.78 5.64839 149.819 5.65847C149.859 5.66855 149.896 5.68654 149.928 5.71134C151.916 7.06052 153.752 8.62063 155.405 10.3645C155.46 10.4204 155.491 10.4956 155.491 10.5739C155.491 10.6522 155.46 10.7274 155.405 10.7833C155.347 10.8421 155.268 10.8755 155.186 10.8763H155.193ZM143.46 2.8995C143.423 2.90582 143.384 2.90582 143.347 2.8995C141.15 2.02574 138.866 1.3906 136.533 1.005C136.456 0.991937 136.387 0.949108 136.341 0.885721C136.295 0.822334 136.276 0.743438 136.287 0.665981C136.293 0.626687 136.307 0.58894 136.327 0.555036C136.348 0.521133 136.375 0.491789 136.407 0.468779C136.44 0.44577 136.476 0.429578 136.515 0.421198C136.554 0.412818 136.594 0.412422 136.633 0.420032C139.008 0.80736 141.333 1.45379 143.566 2.34777C143.628 2.37521 143.678 2.42245 143.709 2.48188C143.74 2.54131 143.75 2.60949 143.738 2.67546C143.726 2.74143 143.692 2.80135 143.641 2.8456C143.591 2.88985 143.527 2.91585 143.46 2.91944V2.8995ZM122.414 1.72956C122.35 1.72798 122.287 1.70588 122.236 1.66645C122.184 1.62703 122.147 1.57232 122.129 1.5102C122.108 1.43441 122.118 1.3536 122.157 1.2852C122.195 1.2168 122.259 1.16629 122.335 1.14459C124.658 0.511047 127.042 0.127751 129.447 0.00124416C129.486 -0.00242125 129.526 0.00203338 129.563 0.0143287C129.601 0.0266241 129.635 0.0464969 129.664 0.0727022C129.694 0.0989074 129.717 0.130883 129.734 0.166627C129.75 0.202371 129.759 0.241112 129.76 0.280433C129.763 0.360458 129.735 0.438729 129.682 0.498397C129.629 0.558065 129.554 0.594372 129.474 0.599514C127.113 0.719641 124.773 1.09633 122.494 1.72292L122.414 1.72956Z" fill="#9AA7A6"/>
<path d="M164.233 33.5971C164.154 33.5971 164.078 33.5656 164.022 33.5095C163.965 33.4534 163.934 33.3773 163.934 33.298C163.935 32.1167 163.873 30.9362 163.748 29.7616C163.739 29.7207 163.739 29.6785 163.748 29.6376C163.756 29.5967 163.773 29.5581 163.798 29.5242C163.822 29.4903 163.853 29.4619 163.889 29.4408C163.925 29.4197 163.965 29.4064 164.007 29.4017C164.048 29.397 164.09 29.4011 164.13 29.4137C164.17 29.4263 164.207 29.447 164.238 29.4747C164.27 29.5023 164.295 29.5362 164.312 29.5742C164.33 29.6121 164.339 29.6533 164.339 29.6951C164.467 30.8918 164.531 32.0945 164.532 33.298C164.532 33.3373 164.524 33.3761 164.509 33.4124C164.494 33.4487 164.472 33.4817 164.445 33.5095C164.417 33.5373 164.384 33.5593 164.348 33.5743C164.311 33.5894 164.272 33.5971 164.233 33.5971Z" fill="#9AA7A6"/>
<path d="M53.6622 152C52.4723 152 51.2625 151.96 50.066 151.88C49.9867 151.875 49.9127 151.838 49.8603 151.779C49.8079 151.719 49.7815 151.641 49.7868 151.561C49.7921 151.482 49.8287 151.408 49.8885 151.356C49.9484 151.303 50.0265 151.277 50.1059 151.282C51.2891 151.362 52.4856 151.402 53.6622 151.402C53.7015 151.402 53.7404 151.409 53.7767 151.424C53.813 151.439 53.846 151.462 53.8737 151.489C53.9015 151.517 53.9235 151.55 53.9386 151.586C53.9536 151.623 53.9613 151.662 53.9613 151.701C53.9613 151.74 53.9536 151.779 53.9386 151.815C53.9235 151.852 53.9015 151.885 53.8737 151.912C53.846 151.94 53.813 151.962 53.7767 151.977C53.7404 151.992 53.7015 152 53.6622 152Z" fill="#9AA7A6"/>
<path d="M42.5935 150.837H42.5337C40.0486 150.309 37.6048 149.603 35.2216 148.723C35.1852 148.71 35.1518 148.689 35.1234 148.663C35.0949 148.637 35.072 148.605 35.0559 148.57C35.0399 148.534 35.0309 148.496 35.0297 148.458C35.0285 148.419 35.0349 148.38 35.0488 148.344C35.0614 148.307 35.0813 148.273 35.1073 148.244C35.1334 148.215 35.165 148.191 35.2003 148.174C35.2356 148.158 35.2739 148.148 35.313 148.146C35.352 148.145 35.391 148.151 35.4276 148.165C37.7868 149.021 40.2036 149.71 42.66 150.225C42.7363 150.243 42.8026 150.289 42.8449 150.355C42.8871 150.421 42.9019 150.501 42.886 150.578C42.8778 150.649 42.8434 150.715 42.7894 150.763C42.7354 150.811 42.6657 150.837 42.5935 150.837ZM28.4479 145.612C28.3946 145.61 28.3424 145.597 28.295 145.572C26.0664 144.359 23.9272 142.988 21.8936 141.471C21.8626 141.448 21.8365 141.419 21.8167 141.385C21.7969 141.352 21.7839 141.315 21.7783 141.277C21.7728 141.239 21.7748 141.2 21.7843 141.162C21.7938 141.125 21.8106 141.09 21.8338 141.059C21.8569 141.028 21.8859 141.001 21.9192 140.982C21.9524 140.962 21.9892 140.949 22.0275 140.943C22.0657 140.938 22.1047 140.94 22.1422 140.949C22.1797 140.959 22.2149 140.976 22.2459 140.999C24.2601 142.495 26.377 143.848 28.5809 145.047C28.6377 145.08 28.6823 145.13 28.7076 145.191C28.7329 145.251 28.7376 145.319 28.721 145.382C28.7044 145.445 28.6674 145.502 28.6156 145.542C28.5638 145.582 28.5002 145.605 28.4346 145.605L28.4479 145.612ZM16.363 136.605C16.3231 136.604 16.2838 136.596 16.2472 136.58C16.2107 136.564 16.1777 136.541 16.1503 136.512C14.3552 134.722 12.6871 132.81 11.1581 130.788C11.1105 130.725 11.0901 130.645 11.1013 130.567C11.1125 130.488 11.1545 130.417 11.2179 130.37C11.2488 130.346 11.284 130.329 11.3216 130.32C11.3591 130.31 11.3982 130.308 11.4365 130.313C11.4749 130.319 11.5117 130.332 11.5449 130.352C11.5782 130.372 11.6071 130.398 11.6301 130.429C13.1432 132.429 14.7935 134.322 16.5691 136.093C16.597 136.12 16.6192 136.153 16.6344 136.189C16.6495 136.225 16.6573 136.263 16.6573 136.302C16.6573 136.341 16.6495 136.38 16.6344 136.416C16.6192 136.452 16.597 136.484 16.5691 136.512C16.5428 136.54 16.5111 136.564 16.4756 136.58C16.4402 136.596 16.4019 136.604 16.363 136.605ZM7.28933 124.56C7.23617 124.561 7.18375 124.547 7.13795 124.52C7.09216 124.493 7.0548 124.454 7.03008 124.407C5.8074 122.186 4.74553 119.88 3.85264 117.507C3.83889 117.47 3.83264 117.43 3.83423 117.391C3.83583 117.351 3.84524 117.313 3.86193 117.277C3.87862 117.241 3.90226 117.209 3.93147 117.182C3.96069 117.155 3.9949 117.135 4.03212 117.121C4.06833 117.108 4.10692 117.101 4.14564 117.102C4.18437 117.104 4.22246 117.112 4.25772 117.129C4.29297 117.145 4.32467 117.168 4.35099 117.196C4.37731 117.224 4.39772 117.258 4.41103 117.294C5.29336 119.641 6.34186 121.923 7.54858 124.121C7.58697 124.19 7.59664 124.271 7.57548 124.347C7.55432 124.423 7.50403 124.487 7.43557 124.527C7.38942 124.547 7.33976 124.558 7.28933 124.56ZM1.97143 110.454C1.90374 110.452 1.83861 110.428 1.78669 110.384C1.73477 110.341 1.69913 110.281 1.6856 110.215C1.14542 107.738 0.781118 105.225 0.595434 102.697C0.592726 102.657 0.597805 102.618 0.610385 102.58C0.622965 102.543 0.642797 102.509 0.668738 102.479C0.69468 102.449 0.726226 102.425 0.761558 102.408C0.796889 102.39 0.83531 102.38 0.874623 102.377C0.953581 102.374 1.03092 102.401 1.09041 102.453C1.14989 102.505 1.18691 102.578 1.19369 102.657C1.37265 105.156 1.73031 107.64 2.26392 110.088C2.27276 110.127 2.27392 110.167 2.26734 110.206C2.26075 110.244 2.24655 110.282 2.22555 110.315C2.20455 110.348 2.17715 110.377 2.14495 110.4C2.11275 110.423 2.07638 110.439 2.03791 110.447L1.97143 110.454ZM0.881266 95.4177C0.803085 95.4125 0.730044 95.3769 0.677837 95.3185C0.62563 95.2601 0.598427 95.1835 0.602078 95.1053C0.778839 92.5729 1.13425 90.0561 1.66566 87.5738C1.68241 87.4962 1.72929 87.4285 1.79598 87.3855C1.86267 87.3425 1.94373 87.3277 2.0213 87.3445C2.09887 87.3612 2.16661 87.4081 2.20961 87.4748C2.25262 87.5415 2.26738 87.6225 2.25063 87.7001C1.72413 90.1537 1.37314 92.6417 1.20035 95.1452C1.19226 95.2192 1.1574 95.2878 1.10231 95.338C1.04723 95.3882 0.975714 95.4165 0.901208 95.4177H0.881266ZM4.05871 80.6738C4.0236 80.6808 3.98747 80.6808 3.95236 80.6738C3.91597 80.6605 3.88258 80.6401 3.85414 80.6138C3.82571 80.5875 3.80278 80.5558 3.7867 80.5205C3.77062 80.4853 3.76171 80.4472 3.76048 80.4084C3.75925 80.3697 3.76572 80.3311 3.77952 80.2949C4.66197 77.9155 5.71499 75.6029 6.93038 73.375C6.9698 73.3083 7.0336 73.2594 7.10832 73.2388C7.18304 73.2182 7.26284 73.2274 7.33093 73.2644C7.39901 73.3015 7.45005 73.3635 7.4733 73.4375C7.49654 73.5114 7.49016 73.5915 7.45551 73.6609C6.26636 75.8589 5.23346 78.1379 4.36449 80.481C4.34256 80.5387 4.30331 80.5882 4.25214 80.6228C4.20096 80.6573 4.14037 80.6751 4.07866 80.6738H4.05871Z" fill="#9AA7A6"/>
<path d="M11.311 67.4255C11.2484 67.4251 11.1877 67.4041 11.1382 67.3657C11.0747 67.3181 11.0328 67.2473 11.0216 67.1687C11.0103 67.0902 11.0308 67.0104 11.0784 66.9469C11.7897 65.9897 12.5474 65.0524 13.3252 64.1417C13.3778 64.0818 13.4517 64.0449 13.5312 64.0386C13.6106 64.0324 13.6894 64.0575 13.7506 64.1085C13.7786 64.1358 13.8008 64.1683 13.8159 64.2043C13.8311 64.2402 13.8389 64.2789 13.8389 64.3179C13.8389 64.3569 13.8311 64.3956 13.8159 64.4315C13.8008 64.4675 13.7786 64.5 13.7506 64.5273C12.9795 65.4313 12.235 66.362 11.5238 67.3059C11.4987 67.3397 11.4668 67.3678 11.4302 67.3884C11.3935 67.409 11.3529 67.4217 11.311 67.4255Z" fill="#9AA7A6"/>
</svg>
