<svg width="215" height="152" viewBox="0 0 215 152" fill="none" xmlns="http://www.w3.org/2000/svg">
<path d="M101.946 151.775C141.165 151.775 172.957 148.203 172.957 143.797C172.957 139.39 141.165 135.818 101.946 135.818C62.7282 135.818 30.9355 139.39 30.9355 143.797C30.9355 148.203 62.7282 151.775 101.946 151.775Z" fill="#E4E9EA"/>
<path d="M175.976 53.8251C175.728 53.8251 175.491 53.7268 175.316 53.5519C175.141 53.3769 175.043 53.1396 175.043 52.8922V41.205C175.043 40.9576 175.141 40.7203 175.316 40.5453C175.491 40.3704 175.728 40.2721 175.976 40.2721C176.223 40.2721 176.461 40.3704 176.635 40.5453C176.81 40.7203 176.909 40.9576 176.909 41.205V52.8922C176.909 53.1396 176.81 53.3769 176.635 53.5519C176.461 53.7268 176.223 53.8251 175.976 53.8251Z" fill="#9AA7A6"/>
<path d="M181.816 47.9777H170.152C170.022 47.9895 169.891 47.9739 169.767 47.9322C169.643 47.8905 169.529 47.8234 169.433 47.7353C169.337 47.6472 169.26 47.5399 169.207 47.4204C169.154 47.3009 169.127 47.1717 169.127 47.0411C169.127 46.9105 169.154 46.7813 169.207 46.6618C169.26 46.5423 169.337 46.435 169.433 46.3469C169.529 46.2588 169.643 46.1917 169.767 46.15C169.891 46.1082 170.022 46.0927 170.152 46.1044H181.831C181.962 46.0927 182.093 46.1082 182.216 46.15C182.34 46.1917 182.454 46.2588 182.55 46.3469C182.647 46.435 182.724 46.5423 182.776 46.6618C182.829 46.7813 182.856 46.9105 182.856 47.0411C182.856 47.1717 182.829 47.3009 182.776 47.4204C182.724 47.5399 182.647 47.6472 182.55 47.7353C182.454 47.8234 182.34 47.8905 182.216 47.9322C182.093 47.9739 181.962 47.9895 181.831 47.9777H181.816Z" fill="#9AA7A6"/>
<path d="M15.9192 124.851C15.6711 124.849 15.4338 124.749 15.2591 124.573C15.0844 124.397 14.9863 124.159 14.9863 123.911V112.223C15.0074 111.99 15.1152 111.772 15.2885 111.614C15.4618 111.455 15.6882 111.367 15.923 111.367C16.1578 111.367 16.3841 111.455 16.5574 111.614C16.7308 111.772 16.8386 111.99 16.8596 112.223V123.911C16.8576 124.16 16.7579 124.398 16.582 124.574C16.406 124.749 16.168 124.849 15.9192 124.851Z" fill="#9AA7A6"/>
<path d="M21.7666 119.004H10.0793C9.83193 119.004 9.59465 118.905 9.4197 118.73C9.24476 118.556 9.14648 118.318 9.14648 118.071C9.14648 117.823 9.24476 117.586 9.4197 117.411C9.59465 117.236 9.83193 117.138 10.0793 117.138H21.7666C22.014 117.138 22.2513 117.236 22.4262 117.411C22.6012 117.586 22.6995 117.823 22.6995 118.071C22.6995 118.318 22.6012 118.556 22.4262 118.73C22.2513 118.905 22.014 119.004 21.7666 119.004Z" fill="#9AA7A6"/>
<path d="M21.0989 44.1097C21.0196 44.1107 20.9409 44.096 20.8673 44.0663C20.7937 44.0366 20.7268 43.9927 20.6703 43.9369C20.6139 43.8812 20.5691 43.8148 20.5385 43.7416C20.5079 43.6684 20.4922 43.5899 20.4922 43.5106V38.687C20.4922 38.6073 20.5079 38.5284 20.5384 38.4548C20.5689 38.3812 20.6136 38.3143 20.6699 38.258C20.7262 38.2016 20.7931 38.1569 20.8667 38.1264C20.9403 38.096 21.0192 38.0803 21.0989 38.0803C21.1783 38.0803 21.2568 38.096 21.33 38.1266C21.4032 38.1572 21.4696 38.202 21.5253 38.2584C21.581 38.3149 21.625 38.3818 21.6547 38.4554C21.6843 38.529 21.6991 38.6077 21.6981 38.687V43.5106C21.6981 43.6695 21.6349 43.8219 21.5226 43.9342C21.4102 44.0466 21.2578 44.1097 21.0989 44.1097Z" fill="#9AA7A6"/>
<path d="M23.5047 41.698H18.6888C18.6094 41.699 18.5307 41.6842 18.4571 41.6545C18.3836 41.6249 18.3166 41.5809 18.2602 41.5252C18.2037 41.4694 18.1589 41.403 18.1283 41.3299C18.0978 41.2567 18.082 41.1781 18.082 41.0988C18.082 40.9379 18.146 40.7836 18.2597 40.6698C18.3735 40.556 18.5278 40.4921 18.6888 40.4921H23.5047C23.5844 40.4921 23.6633 40.5078 23.7369 40.5383C23.8105 40.5687 23.8774 40.6134 23.9338 40.6698C23.9901 40.7261 24.0348 40.793 24.0653 40.8666C24.0958 40.9402 24.1115 41.0191 24.1115 41.0988C24.1115 41.1781 24.0957 41.2567 24.0651 41.3299C24.0346 41.403 23.9898 41.4694 23.9333 41.5252C23.8769 41.5809 23.8099 41.6249 23.7363 41.6545C23.6628 41.6842 23.5841 41.699 23.5047 41.698Z" fill="#9AA7A6"/>
<path d="M176.743 149.606C176.542 149.606 176.349 149.526 176.206 149.384C176.064 149.242 175.984 149.049 175.984 148.848V142.78C175.984 142.579 176.064 142.386 176.206 142.244C176.349 142.102 176.542 142.022 176.743 142.022C176.944 142.022 177.137 142.102 177.279 142.244C177.421 142.386 177.501 142.579 177.501 142.78V148.848C177.501 149.049 177.421 149.242 177.279 149.384C177.137 149.526 176.944 149.606 176.743 149.606Z" fill="#9AA7A6"/>
<path d="M179.769 146.61H173.702C173.501 146.61 173.308 146.53 173.166 146.388C173.023 146.246 172.943 146.053 172.943 145.852C172.943 145.651 173.023 145.458 173.166 145.316C173.308 145.173 173.501 145.093 173.702 145.093H179.769C179.97 145.093 180.163 145.173 180.305 145.316C180.448 145.458 180.528 145.651 180.528 145.852C180.528 146.053 180.448 146.246 180.305 146.388C180.163 146.53 179.97 146.61 179.769 146.61Z" fill="#9AA7A6"/>
<path d="M180.527 65.664C180.448 65.664 180.369 65.6483 180.296 65.6177C180.223 65.5871 180.156 65.5423 180.101 65.4859C180.045 65.4294 180.001 65.3625 179.971 65.2889C179.942 65.2153 179.927 65.1366 179.928 65.0573V60.2337C179.928 60.0748 179.991 59.9224 180.103 59.8101C180.216 59.6977 180.368 59.6346 180.527 59.6346C180.606 59.6336 180.685 59.6483 180.759 59.678C180.832 59.7077 180.899 59.7516 180.955 59.8074C181.012 59.8631 181.057 59.9295 181.087 60.0027C181.118 60.0759 181.134 60.1544 181.134 60.2337V65.0573C181.134 65.2182 181.07 65.3725 180.956 65.4863C180.842 65.6001 180.688 65.664 180.527 65.664Z" fill="#9AA7A6"/>
<path d="M182.938 63.2523H178.115C177.954 63.2523 177.799 63.1884 177.686 63.0746C177.572 62.9608 177.508 62.8065 177.508 62.6456C177.508 62.4846 177.572 62.3303 177.686 62.2165C177.799 62.1027 177.954 62.0388 178.115 62.0388H182.938C183.018 62.0388 183.097 62.0545 183.17 62.085C183.244 62.1155 183.311 62.1602 183.367 62.2165C183.423 62.2729 183.468 62.3398 183.499 62.4134C183.529 62.487 183.545 62.5659 183.545 62.6456C183.545 62.7252 183.529 62.8041 183.499 62.8777C183.468 62.9514 183.423 63.0182 183.367 63.0746C183.311 63.1309 183.244 63.1756 183.17 63.2061C183.097 63.2366 183.018 63.2523 182.938 63.2523Z" fill="#9AA7A6"/>
<path d="M31.5507 151.995C29.2497 151.833 26.9664 151.478 24.7249 150.933C24.682 150.929 24.6405 150.915 24.6034 150.893C24.5663 150.871 24.5343 150.841 24.5096 150.805C24.4848 150.77 24.468 150.73 24.4601 150.687C24.4522 150.645 24.4535 150.601 24.4638 150.559C24.4742 150.517 24.4933 150.478 24.5201 150.444C24.5468 150.41 24.5805 150.382 24.6189 150.362C24.6572 150.343 24.6994 150.331 24.7425 150.329C24.7857 150.327 24.8288 150.334 24.869 150.349C27.0849 150.891 29.3432 151.241 31.6189 151.396C31.6588 151.399 31.6977 151.41 31.7335 151.428C31.7692 151.446 31.801 151.47 31.8271 151.501C31.8531 151.531 31.873 151.566 31.8854 151.604C31.8979 151.642 31.9027 151.682 31.8996 151.722C31.897 151.764 31.8857 151.805 31.8662 151.842C31.8467 151.879 31.8196 151.911 31.7866 151.937C31.7536 151.963 31.7155 151.981 31.6749 151.991C31.6342 152.001 31.5919 152.003 31.5507 151.995ZM18.2328 148.688C18.1927 148.696 18.1516 148.696 18.1115 148.688L17.846 148.567C15.8286 147.625 13.919 146.468 12.1503 145.116C12.0879 145.068 12.0473 144.997 12.0374 144.919C12.0274 144.84 12.0489 144.761 12.0972 144.699C12.1455 144.637 12.2165 144.596 12.2948 144.586C12.373 144.576 12.452 144.598 12.5143 144.646C14.2481 145.969 16.1196 147.1 18.0963 148.021L18.3618 148.142C18.3972 148.159 18.4291 148.182 18.4556 148.211C18.482 148.239 18.5025 148.273 18.5159 148.31C18.5293 148.346 18.5353 148.385 18.5336 148.424C18.5319 148.463 18.5224 148.501 18.5059 148.537C18.4797 148.586 18.4401 148.626 18.3917 148.653C18.3433 148.68 18.2881 148.692 18.2328 148.688ZM7.37224 140.391C7.32789 140.391 7.28417 140.381 7.24374 140.362C7.20332 140.344 7.16704 140.318 7.13713 140.285C5.66173 138.495 4.38989 136.547 3.34503 134.476C3.32674 134.441 3.31555 134.403 3.31214 134.364C3.30873 134.324 3.31316 134.285 3.32516 134.248C3.33716 134.21 3.3565 134.175 3.38205 134.146C3.4076 134.116 3.43885 134.091 3.47396 134.074C3.54459 134.039 3.62603 134.033 3.70105 134.057C3.77607 134.081 3.83878 134.133 3.87592 134.203C4.90832 136.233 6.1623 138.143 7.61494 139.898C7.67053 139.955 7.70166 140.031 7.70166 140.111C7.70166 140.19 7.67053 140.266 7.61494 140.323C7.58231 140.352 7.54349 140.373 7.50145 140.385C7.45941 140.397 7.41522 140.399 7.37224 140.391ZM1.18354 128.196C1.11724 128.195 1.05315 128.172 1.0011 128.131C0.949055 128.09 0.911904 128.033 0.895336 127.968C0.333837 125.712 0.0335535 123.399 0.000399644 121.074C-0.00166134 121.035 0.0042644 120.996 0.0178222 120.959C0.0313799 120.923 0.0522852 120.889 0.0792552 120.861C0.106225 120.832 0.138696 120.81 0.174688 120.794C0.210681 120.779 0.249439 120.771 0.288597 120.771C0.328439 120.77 0.368091 120.777 0.405284 120.791C0.442477 120.805 0.476486 120.827 0.505363 120.854C0.53424 120.882 0.557422 120.915 0.573584 120.951C0.589745 120.988 0.598569 121.027 0.599553 121.067C0.631485 123.346 0.926703 125.613 1.47932 127.824C1.49576 127.902 1.48217 127.982 1.44132 128.05C1.40047 128.117 1.33542 128.167 1.25937 128.188L1.18354 128.196ZM0.993929 114.544H0.933254C0.893886 114.536 0.856558 114.52 0.823546 114.498C0.790533 114.475 0.762531 114.445 0.741241 114.411C0.719952 114.377 0.705824 114.339 0.699719 114.299C0.693614 114.26 0.695659 114.219 0.705731 114.18C1.21717 111.911 2.04162 109.723 3.15543 107.681C3.19528 107.612 3.25992 107.561 3.33607 107.538C3.41223 107.516 3.49413 107.523 3.56498 107.559C3.63382 107.599 3.6843 107.664 3.70557 107.741C3.72685 107.817 3.71721 107.899 3.67874 107.969C2.58964 109.963 1.78548 112.1 1.28972 114.317C1.27174 114.375 1.23683 114.426 1.18952 114.464C1.14221 114.501 1.08466 114.524 1.02427 114.529L0.993929 114.544ZM7.53152 102.584C7.45504 102.584 7.38165 102.554 7.32674 102.501C7.27115 102.444 7.24003 102.368 7.24003 102.288C7.24003 102.209 7.27115 102.133 7.32674 102.076C8.96471 100.427 10.7838 98.9697 12.7495 97.7301C12.8169 97.6873 12.8986 97.6728 12.9767 97.6898C13.0548 97.7069 13.1231 97.7541 13.1666 97.8211C13.2075 97.8891 13.2209 97.9702 13.204 98.0478C13.1871 98.1254 13.1411 98.1935 13.0756 98.2383C11.1482 99.4476 9.36673 100.875 7.76662 102.493C7.73625 102.524 7.69954 102.548 7.65898 102.564C7.61841 102.58 7.57494 102.587 7.53152 102.584Z" fill="#9AA7A6"/>
<path d="M128.546 9.29824C127.626 9.29824 126.727 9.02557 125.963 8.51472C125.198 8.00386 124.602 7.27778 124.25 6.42826C123.899 5.57874 123.806 4.64397 123.986 3.74213C124.165 2.84029 124.608 2.01188 125.258 1.36169C125.908 0.711502 126.737 0.268721 127.639 0.0893338C128.54 -0.0900534 129.475 0.00201381 130.325 0.353895C131.174 0.705775 131.9 1.30166 132.411 2.06621C132.922 2.83075 133.195 3.72961 133.195 4.64912C133.193 5.88152 132.702 7.06288 131.831 7.93433C130.959 8.80577 129.778 9.29623 128.546 9.29824ZM128.546 0.758426C127.776 0.758426 127.024 0.986613 126.384 1.41413C125.744 1.84164 125.246 2.44928 124.951 3.16021C124.657 3.87114 124.58 4.65344 124.73 5.40816C124.88 6.16288 125.25 6.85613 125.794 7.40025C126.339 7.94438 127.032 8.31493 127.787 8.46506C128.541 8.61518 129.324 8.53813 130.035 8.24365C130.745 7.94917 131.353 7.4505 131.781 6.81068C132.208 6.17085 132.436 5.41862 132.436 4.64912C132.434 3.61855 132.023 2.63089 131.294 1.90288C130.565 1.17488 129.576 0.766004 128.546 0.766006V0.758426Z" fill="#9AA7A6"/>
<path d="M214.08 59.3919C214 59.392 213.923 59.3613 213.865 59.3063C213.807 59.2512 213.772 59.1759 213.769 59.0961C213.679 56.6623 213.443 54.2361 213.063 51.8305C213.063 51.7562 213.089 51.6841 213.136 51.6273C213.184 51.5705 213.251 51.5328 213.324 51.5208C213.398 51.5089 213.473 51.5237 213.536 51.5624C213.6 51.6011 213.647 51.6612 213.67 51.7319C214.052 54.1628 214.29 56.6143 214.383 59.0734C214.385 59.1546 214.355 59.2334 214.3 59.2929C214.245 59.3524 214.168 59.388 214.087 59.3919H214.08ZM211.804 44.9213C211.738 44.9222 211.673 44.9011 211.619 44.8614C211.566 44.8216 211.527 44.7654 211.508 44.7013C210.843 42.3587 210.035 40.0589 209.089 37.8149C209.073 37.7786 209.064 37.7395 209.064 37.6998C209.063 37.6601 209.07 37.6207 209.085 37.5839C209.1 37.5471 209.122 37.5137 209.15 37.4856C209.178 37.4575 209.212 37.4354 209.248 37.4205C209.285 37.4042 209.325 37.3954 209.365 37.3947C209.405 37.3939 209.445 37.4011 209.483 37.4159C209.52 37.4308 209.554 37.4529 209.583 37.481C209.612 37.5091 209.635 37.5427 209.65 37.5797C210.603 39.8477 211.421 42.17 212.1 44.5345C212.112 44.5733 212.115 44.6141 212.111 44.6543C212.106 44.6946 212.094 44.7335 212.074 44.7689C212.054 44.8042 212.027 44.8352 211.995 44.8601C211.963 44.885 211.927 44.9032 211.888 44.9137L211.804 44.9213ZM206.116 31.4365C206.055 31.4483 205.991 31.4408 205.934 31.415C205.877 31.3892 205.829 31.3464 205.798 31.2924C204.587 29.1907 203.25 27.1645 201.793 25.2251C201.745 25.1586 201.726 25.0758 201.738 24.9949C201.751 24.9139 201.795 24.8413 201.861 24.7928C201.926 24.7445 202.007 24.7238 202.086 24.7351C202.166 24.7465 202.238 24.7891 202.286 24.8534C203.755 26.8268 205.104 28.8857 206.328 31.0194C206.349 31.0542 206.362 31.0926 206.367 31.1325C206.372 31.1724 206.369 31.213 206.359 31.2518C206.348 31.2906 206.33 31.3269 206.305 31.3587C206.281 31.3904 206.25 31.4168 206.215 31.4365C206.175 31.4449 206.133 31.4449 206.093 31.4365H206.116ZM197.349 19.6886C197.307 19.6892 197.265 19.6815 197.226 19.6658C197.187 19.6502 197.151 19.627 197.121 19.5976C195.452 17.8329 193.679 16.1691 191.812 14.6148C191.784 14.5865 191.761 14.5529 191.745 14.5158C191.73 14.4787 191.722 14.4389 191.722 14.3986C191.722 14.3584 191.73 14.3186 191.745 14.2814C191.761 14.2443 191.784 14.2107 191.812 14.1825C191.837 14.1514 191.868 14.1257 191.903 14.1069C191.938 14.0882 191.977 14.0766 192.017 14.0731C192.056 14.0696 192.096 14.0741 192.134 14.0863C192.172 14.0986 192.207 14.1184 192.237 14.1445C194.133 15.7112 195.934 17.3903 197.629 19.1729C197.685 19.2309 197.717 19.3084 197.717 19.389C197.717 19.4697 197.685 19.5472 197.629 19.6052C197.592 19.64 197.548 19.6657 197.499 19.6801C197.45 19.6946 197.399 19.6975 197.349 19.6886ZM186.079 10.3524C186.019 10.3535 185.96 10.3349 185.912 10.2994C183.861 8.98249 181.734 7.78963 179.541 6.72719C179.468 6.69121 179.413 6.62824 179.386 6.55173C179.359 6.47522 179.363 6.39122 179.397 6.31765C179.415 6.28162 179.439 6.24946 179.47 6.22306C179.5 6.19665 179.535 6.17652 179.573 6.16382C179.611 6.15112 179.652 6.14611 179.692 6.14908C179.732 6.15206 179.771 6.16295 179.806 6.18113C182.022 7.24909 184.17 8.45219 186.238 9.78363C186.307 9.82735 186.356 9.89637 186.374 9.97581C186.393 10.0553 186.379 10.1388 186.336 10.2083C186.308 10.2514 186.27 10.287 186.225 10.3121C186.18 10.3372 186.13 10.351 186.079 10.3524ZM172.875 3.98929H172.776C170.469 3.1981 168.116 2.54969 165.73 2.04774C165.691 2.03927 165.654 2.02314 165.62 2.00027C165.587 1.97739 165.559 1.94822 165.537 1.91441C165.515 1.88061 165.5 1.84283 165.493 1.80324C165.486 1.76366 165.487 1.72304 165.495 1.6837C165.504 1.64436 165.52 1.60706 165.543 1.57396C165.565 1.54085 165.595 1.51257 165.628 1.49074C165.662 1.46891 165.7 1.45395 165.74 1.44672C165.779 1.43948 165.82 1.44011 165.859 1.44858C168.267 1.95914 170.643 2.61254 172.973 3.40531C173.049 3.43439 173.111 3.49145 173.146 3.56479C173.182 3.63812 173.187 3.72217 173.163 3.79969C173.139 3.85621 173.099 3.90438 173.047 3.93812C172.996 3.97186 172.936 3.98967 172.875 3.98929ZM136.728 2.93509C136.652 2.93976 136.577 2.91548 136.518 2.8671C136.458 2.81872 136.42 2.74981 136.409 2.67413C136.399 2.59845 136.417 2.52157 136.461 2.45888C136.504 2.39618 136.57 2.35228 136.645 2.33594C139.016 1.68609 141.425 1.17956 143.857 0.819101C143.938 0.807032 144.02 0.827413 144.085 0.875772C144.151 0.92413 144.194 0.996503 144.206 1.07696C144.218 1.15742 144.198 1.23938 144.15 1.3048C144.101 1.37023 144.029 1.41376 143.948 1.42583C141.538 1.78623 139.153 2.29277 136.804 2.94267L136.728 2.93509ZM158.54 0.955611C156.115 0.737121 153.678 0.666205 151.244 0.743254C151.166 0.741429 151.091 0.709903 151.035 0.655025C150.978 0.600146 150.945 0.525989 150.941 0.447471C150.939 0.366261 150.969 0.287457 151.024 0.227927C151.079 0.168398 151.156 0.132872 151.237 0.128935C153.696 0.059256 156.157 0.130157 158.609 0.341292C158.682 0.352826 158.748 0.390106 158.797 0.446418C158.845 0.502729 158.871 0.574373 158.871 0.648452C158.871 0.72253 158.845 0.794174 158.797 0.850486C158.748 0.906798 158.682 0.944077 158.609 0.955611H158.54Z" fill="#9AA7A6"/>
<path d="M50.6861 142.568C47.6467 142.566 44.7322 141.358 42.5823 139.21C40.4325 137.061 39.2228 134.148 39.2188 131.108V51.0114C39.2208 49.5376 39.8071 48.1247 40.8492 47.0826C41.8913 46.0405 43.3042 45.4542 44.778 45.4521H61.0082V47.7274H44.778C43.907 47.7274 43.0717 48.0734 42.4559 48.6893C41.84 49.3051 41.494 50.1404 41.494 51.0114V131.108C41.498 133.544 42.468 135.879 44.1912 137.601C45.9144 139.323 48.2501 140.291 50.6861 140.293V142.568Z" fill="#9AA7A6"/>
<path d="M149.774 142.576H50.6865V140.3C53.1225 140.296 55.4574 139.326 57.1792 137.603C58.9009 135.88 59.869 133.544 59.871 131.108V35.3121C59.873 33.839 60.4596 32.4269 61.5019 31.386C62.5443 30.3451 63.9571 29.7604 65.4302 29.7604H155.682C157.155 29.7604 158.567 30.3453 159.608 31.3865C160.649 32.4276 161.234 33.8397 161.234 35.3121V131.108C161.232 134.148 160.024 137.062 157.876 139.212C155.727 141.362 152.814 142.571 149.774 142.576ZM57.5351 140.3H149.774C152.21 140.296 154.545 139.326 156.267 137.603C157.989 135.88 158.957 133.544 158.959 131.108V35.3121C158.957 34.4437 158.611 33.6115 157.997 32.9975C157.383 32.3835 156.551 32.0377 155.682 32.0357H65.4302C64.5606 32.0357 63.7264 32.3806 63.1108 32.9949C62.4951 33.6091 62.1483 34.4424 62.1463 35.3121V131.108C62.1475 132.894 61.7311 134.655 60.9305 136.251C60.1298 137.847 58.9671 139.234 57.5351 140.3Z" fill="#9AA7A6"/>
<path d="M102.926 99.3835H78.1404C77.4847 99.3835 76.8558 99.123 76.3921 98.6593C75.9285 98.1956 75.668 97.5667 75.668 96.911V72.1334C75.668 71.4777 75.9285 70.8488 76.3921 70.3851C76.8558 69.9214 77.4847 69.6609 78.1404 69.6609H102.926C103.58 69.663 104.207 69.9243 104.669 70.3878C105.131 70.8512 105.39 71.479 105.39 72.1334V96.911C105.39 97.5654 105.131 98.1931 104.669 98.6566C104.207 99.1201 103.58 99.3814 102.926 99.3835Z" fill="#E4E9EA"/>
<path d="M102.926 99.7627H78.1407C77.385 99.7607 76.6609 99.4596 76.1265 98.9252C75.5922 98.3909 75.2911 97.6667 75.2891 96.911V72.1334C75.2911 71.3777 75.5922 70.6535 76.1265 70.1192C76.6609 69.5848 77.385 69.2837 78.1407 69.2817H102.926C103.681 69.2837 104.404 69.5851 104.937 70.1197C105.471 70.6542 105.77 71.3784 105.77 72.1334V96.911C105.77 97.666 105.471 98.3902 104.937 98.9248C104.404 99.4593 103.681 99.7607 102.926 99.7627ZM78.1407 70.0402C77.5862 70.0422 77.0549 70.2633 76.6628 70.6555C76.2707 71.0476 76.0495 71.5789 76.0475 72.1334V96.911C76.0495 97.4655 76.2707 97.9968 76.6628 98.3889C77.0549 98.7811 77.5862 99.0022 78.1407 99.0042H102.926C103.48 99.0022 104.01 98.7808 104.401 98.3885C104.792 97.9961 105.012 97.4648 105.012 96.911V72.1334C105.012 71.5796 104.792 71.0483 104.401 70.6559C104.01 70.2636 103.48 70.0422 102.926 70.0402H78.1407Z" fill="#9AA7A6"/>
<path d="M147.301 70.7986H113.764C113.462 70.7986 113.173 70.6787 112.959 70.4654C112.746 70.252 112.626 69.9627 112.626 69.6609C112.626 69.3592 112.746 69.0699 112.959 68.8565C113.173 68.6432 113.462 68.5233 113.764 68.5233H147.301C147.603 68.5233 147.892 68.6432 148.105 68.8565C148.319 69.0699 148.439 69.3592 148.439 69.6609C148.439 69.9627 148.319 70.252 148.105 70.4654C147.892 70.6787 147.603 70.7986 147.301 70.7986Z" fill="#9AA7A6"/>
<path d="M147.301 85.6561H113.764C113.462 85.6561 113.173 85.5362 112.959 85.3229C112.746 85.1095 112.626 84.8201 112.626 84.5184C112.626 84.2167 112.746 83.9274 112.959 83.714C113.173 83.5007 113.462 83.3808 113.764 83.3808H147.301C147.603 83.3808 147.892 83.5007 148.105 83.714C148.319 83.9274 148.439 84.2167 148.439 84.5184C148.439 84.8201 148.319 85.1095 148.105 85.3229C147.892 85.5362 147.603 85.6561 147.301 85.6561Z" fill="#9AA7A6"/>
<path d="M147.301 100.521H113.764C113.462 100.521 113.173 100.401 112.959 100.188C112.746 99.9746 112.626 99.6852 112.626 99.3835C112.626 99.0818 112.746 98.7924 112.959 98.579C113.173 98.3657 113.462 98.2458 113.764 98.2458H147.301C147.603 98.2458 147.892 98.3657 148.105 98.579C148.319 98.7924 148.439 99.0818 148.439 99.3835C148.439 99.6852 148.319 99.9746 148.105 100.188C147.892 100.401 147.603 100.521 147.301 100.521Z" fill="#9AA7A6"/>
<path d="M147.302 115.379H75.6689C75.3672 115.379 75.0778 115.259 74.8645 115.045C74.6511 114.832 74.5312 114.543 74.5312 114.241C74.5312 113.939 74.6511 113.65 74.8645 113.436C75.0778 113.223 75.3672 113.103 75.6689 113.103H147.302C147.603 113.103 147.893 113.223 148.106 113.436C148.319 113.65 148.439 113.939 148.439 114.241C148.439 114.543 148.319 114.832 148.106 115.045C147.893 115.259 147.603 115.379 147.302 115.379Z" fill="#9AA7A6"/>
<path d="M147.302 130.236H75.6689C75.3672 130.236 75.0778 130.116 74.8645 129.903C74.6511 129.689 74.5312 129.4 74.5312 129.098C74.5312 128.797 74.6511 128.507 74.8645 128.294C75.0778 128.081 75.3672 127.961 75.6689 127.961H147.302C147.603 127.961 147.893 128.081 148.106 128.294C148.319 128.507 148.439 128.797 148.439 129.098C148.439 129.4 148.319 129.689 148.106 129.903C147.893 130.116 147.603 130.236 147.302 130.236Z" fill="#9AA7A6"/>
<path d="M102.927 100.521H78.1413C77.1845 100.519 76.2674 100.138 75.5908 99.4614C74.9142 98.7848 74.5333 97.8678 74.5312 96.9109V72.1333C74.5312 71.1759 74.9116 70.2577 75.5886 69.5806C76.2656 68.9036 77.1839 68.5233 78.1413 68.5233H102.927C103.883 68.5253 104.799 68.9065 105.474 69.5833C106.15 70.2601 106.529 71.1772 106.529 72.1333V96.9109C106.529 97.8671 106.15 98.7842 105.474 99.461C104.799 100.138 103.883 100.519 102.927 100.521ZM78.1413 70.7985C77.7873 70.7985 77.4478 70.9392 77.1975 71.1895C76.9471 71.4398 76.8065 71.7793 76.8065 72.1333V96.9109C76.8065 97.2649 76.9471 97.6045 77.1975 97.8548C77.4478 98.1051 77.7873 98.2458 78.1413 98.2458H102.927C103.279 98.2438 103.617 98.1022 103.865 97.8521C104.114 97.602 104.254 97.2636 104.254 96.9109V72.1333C104.254 71.7806 104.114 71.4423 103.865 71.1921C103.617 70.942 103.279 70.8005 102.927 70.7985H78.1413Z" fill="#9AA7A6"/>
</svg>
