<svg width="156" height="152" viewBox="0 0 156 152" fill="none" xmlns="http://www.w3.org/2000/svg">
<path d="M87.258 147.049C118.177 147.049 143.243 143.512 143.243 139.149C143.243 134.786 118.177 131.249 87.258 131.249C56.3386 131.249 31.2734 134.786 31.2734 139.149C31.2734 143.512 56.3386 147.049 87.258 147.049Z" fill="#E4E9EA"/>
<path d="M137.024 95.1368C136.809 95.1349 136.603 95.0481 136.451 94.8953C136.3 94.7425 136.215 94.5361 136.215 94.3209V84.1616C136.234 83.9591 136.327 83.771 136.478 83.634C136.628 83.497 136.824 83.4211 137.027 83.4211C137.23 83.4211 137.426 83.497 137.577 83.634C137.727 83.771 137.821 83.9591 137.839 84.1616V94.3209C137.839 94.5373 137.754 94.7448 137.601 94.8978C137.448 95.0508 137.24 95.1368 137.024 95.1368Z" fill="#9AA6A5"/>
<path d="M142.107 90.0536H131.948C131.835 90.0641 131.721 90.0508 131.613 90.0148C131.506 89.9787 131.407 89.9206 131.323 89.8442C131.239 89.7677 131.172 89.6746 131.126 89.5708C131.08 89.467 131.057 89.3547 131.057 89.2412C131.057 89.1278 131.08 89.0155 131.126 88.9117C131.172 88.8079 131.239 88.7148 131.323 88.6383C131.407 88.5619 131.506 88.5038 131.613 88.4677C131.721 88.4316 131.835 88.4184 131.948 88.4289H142.107C142.31 88.4477 142.498 88.5414 142.635 88.6917C142.772 88.8419 142.848 89.0379 142.848 89.2412C142.848 89.4446 142.772 89.6406 142.635 89.7908C142.498 89.9411 142.31 90.0348 142.107 90.0536Z" fill="#9AA6A5"/>
<path d="M5.79628 48.0357C5.57992 48.0357 5.37241 47.9497 5.21941 47.7967C5.06642 47.6437 4.98047 47.4362 4.98047 47.2198V37.0605C4.99925 36.858 5.09295 36.6699 5.24321 36.5329C5.39348 36.3959 5.58947 36.32 5.79279 36.32C5.99612 36.32 6.19212 36.3959 6.34239 36.5329C6.49265 36.6699 6.58635 36.858 6.60513 37.0605V47.2198C6.60514 47.435 6.52014 47.6415 6.36865 47.7943C6.21716 47.9471 6.01144 48.0338 5.79628 48.0357Z" fill="#9AA6A5"/>
<path d="M10.8719 42.9524H0.740476C0.53802 42.9336 0.349872 42.8399 0.212899 42.6896C0.0759262 42.5394 0 42.3434 0 42.14C0 41.9367 0.0759262 41.7407 0.212899 41.5905C0.349872 41.4402 0.53802 41.3465 0.740476 41.3277H10.8998C11.0128 41.3172 11.1268 41.3304 11.2344 41.3665C11.342 41.4026 11.4409 41.4607 11.5248 41.5371C11.6086 41.6136 11.6756 41.7067 11.7215 41.8105C11.7673 41.9143 11.791 42.0266 11.791 42.14C11.791 42.2535 11.7673 42.3658 11.7215 42.4696C11.6756 42.5734 11.6086 42.6665 11.5248 42.743C11.4409 42.8194 11.342 42.8775 11.2344 42.9136C11.1268 42.9496 11.0128 42.9628 10.8998 42.9524H10.8719Z" fill="#9AA6A5"/>
<path d="M11.1026 55.2942C10.9645 55.2924 10.8325 55.2367 10.7348 55.139C10.6371 55.0413 10.5815 54.9094 10.5797 54.7712V50.5876C10.5711 50.5133 10.5783 50.4381 10.6009 50.3669C10.6234 50.2957 10.6608 50.23 10.7105 50.1743C10.7602 50.1185 10.8212 50.0739 10.8893 50.0433C10.9575 50.0127 11.0314 49.9969 11.1061 49.9969C11.1808 49.9969 11.2547 50.0127 11.3229 50.0433C11.391 50.0739 11.452 50.1185 11.5017 50.1743C11.5514 50.23 11.5888 50.2957 11.6113 50.3669C11.6339 50.4381 11.6411 50.5133 11.6325 50.5876V54.7712C11.6307 54.9106 11.5741 55.0436 11.4749 55.1415C11.3757 55.2393 11.242 55.2942 11.1026 55.2942Z" fill="#9AA6A5"/>
<path d="M13.2017 53.2024H9.01807C8.88889 53.1875 8.76969 53.1257 8.68316 53.0286C8.59664 52.9315 8.54883 52.806 8.54883 52.676C8.54883 52.5459 8.59664 52.4204 8.68316 52.3234C8.76969 52.2263 8.88889 52.1644 9.01807 52.1495H13.2017C13.3309 52.1644 13.4501 52.2263 13.5367 52.3234C13.6232 52.4204 13.671 52.5459 13.671 52.676C13.671 52.806 13.6232 52.9315 13.5367 53.0286C13.4501 53.1257 13.3309 53.1875 13.2017 53.2024Z" fill="#9AA6A5"/>
<path d="M11.6877 139.149C11.5472 139.149 11.4124 139.093 11.313 138.994C11.2136 138.894 11.1578 138.76 11.1578 138.619V134.435C11.1492 134.361 11.1565 134.286 11.179 134.215C11.2016 134.144 11.2389 134.078 11.2886 134.022C11.3383 133.966 11.3993 133.922 11.4675 133.891C11.5356 133.861 11.6095 133.845 11.6842 133.845C11.7589 133.845 11.8328 133.861 11.901 133.891C11.9692 133.922 12.0301 133.966 12.0798 134.022C12.1295 134.078 12.1669 134.144 12.1894 134.215C12.212 134.286 12.2192 134.361 12.2107 134.435V138.619C12.2107 138.758 12.1558 138.892 12.0579 138.991C11.9601 139.091 11.827 139.147 11.6877 139.149Z" fill="#9AA6A5"/>
<path d="M13.7789 137.05H9.59523C9.45653 137.05 9.32351 136.995 9.22543 136.897C9.12736 136.799 9.07227 136.666 9.07227 136.527C9.07227 136.389 9.12736 136.256 9.22543 136.158C9.32351 136.059 9.45653 136.004 9.59523 136.004H13.7789C13.9176 136.004 14.0506 136.059 14.1487 136.158C14.2468 136.256 14.3019 136.389 14.3019 136.527C14.3019 136.666 14.2468 136.799 14.1487 136.897C14.0506 136.995 13.9176 137.05 13.7789 137.05Z" fill="#9AA6A5"/>
<path d="M133.753 152C133.614 151.998 133.481 151.942 133.383 151.842C133.285 151.743 133.23 151.609 133.23 151.47V147.286C133.245 147.157 133.307 147.038 133.404 146.951C133.501 146.865 133.627 146.817 133.757 146.817C133.887 146.817 134.012 146.865 134.11 146.951C134.207 147.038 134.268 147.157 134.283 147.286V151.47C134.283 151.611 134.228 151.745 134.128 151.845C134.029 151.944 133.894 152 133.753 152Z" fill="#9AA6A5"/>
<path d="M135.852 149.908H131.669C131.595 149.917 131.519 149.91 131.448 149.887C131.377 149.864 131.311 149.827 131.255 149.777C131.2 149.728 131.155 149.667 131.124 149.599C131.094 149.53 131.078 149.456 131.078 149.382C131.078 149.307 131.094 149.233 131.124 149.165C131.155 149.097 131.2 149.036 131.255 148.986C131.311 148.936 131.377 148.899 131.448 148.877C131.519 148.854 131.595 148.847 131.669 148.855H135.852C135.982 148.87 136.101 148.932 136.187 149.029C136.274 149.126 136.322 149.252 136.322 149.382C136.322 149.512 136.274 149.637 136.187 149.734C136.101 149.831 135.982 149.893 135.852 149.908Z" fill="#9AA6A5"/>
<path d="M140.984 105.422C140.915 105.422 140.846 105.408 140.782 105.381C140.718 105.354 140.66 105.315 140.612 105.266C140.563 105.217 140.525 105.158 140.499 105.094C140.473 105.03 140.46 104.961 140.461 104.892V100.708C140.461 100.569 140.516 100.436 140.614 100.338C140.712 100.24 140.845 100.185 140.984 100.185C141.123 100.185 141.256 100.24 141.354 100.338C141.452 100.436 141.507 100.569 141.507 100.708V104.892C141.508 104.961 141.495 105.03 141.469 105.094C141.443 105.158 141.405 105.217 141.356 105.266C141.308 105.315 141.25 105.354 141.186 105.381C141.122 105.408 141.053 105.422 140.984 105.422Z" fill="#9AA6A5"/>
<path d="M143.076 103.323H138.892C138.753 103.323 138.62 103.268 138.522 103.17C138.424 103.072 138.369 102.939 138.369 102.8C138.369 102.661 138.424 102.528 138.522 102.43C138.62 102.332 138.753 102.277 138.892 102.277H143.076C143.214 102.277 143.347 102.332 143.446 102.43C143.544 102.528 143.599 102.661 143.599 102.8C143.599 102.939 143.544 103.072 143.446 103.17C143.347 103.268 143.214 103.323 143.076 103.323Z" fill="#9AA6A5"/>
<path d="M43.5404 146.903C41.5309 146.763 39.5366 146.455 37.5786 145.982C37.5114 145.964 37.454 145.921 37.4188 145.861C37.3835 145.801 37.3733 145.729 37.3903 145.662C37.3985 145.629 37.4131 145.598 37.4333 145.57C37.4535 145.543 37.4789 145.52 37.5081 145.502C37.5372 145.485 37.5696 145.473 37.6032 145.468C37.6369 145.463 37.6712 145.465 37.7041 145.473C39.6245 145.951 41.5813 146.268 43.5543 146.422C43.6227 146.422 43.6883 146.449 43.7367 146.497C43.7851 146.546 43.8123 146.611 43.8123 146.68C43.8123 146.748 43.7851 146.814 43.7367 146.862C43.6883 146.911 43.6227 146.938 43.5543 146.938L43.5404 146.903ZM31.9655 144.03H31.8609L31.6308 143.926C29.8745 143.109 28.2122 142.103 26.6732 140.927C26.62 140.885 26.5852 140.823 26.5761 140.756C26.567 140.688 26.5843 140.62 26.6243 140.565C26.6449 140.537 26.671 140.513 26.701 140.495C26.7309 140.477 26.7642 140.466 26.7987 140.461C26.8332 140.457 26.8683 140.459 26.9019 140.469C26.9354 140.478 26.9667 140.494 26.9939 140.516C28.5105 141.667 30.1469 142.651 31.8749 143.451L32.098 143.556C32.1299 143.569 32.1588 143.588 32.1829 143.612C32.207 143.637 32.2259 143.666 32.2383 143.698C32.2507 143.73 32.2564 143.764 32.2551 143.799C32.2537 143.833 32.2454 143.867 32.2305 143.898C32.2053 143.944 32.1663 143.982 32.1189 144.006C32.0715 144.029 32.0179 144.038 31.9655 144.03ZM22.5244 136.813C22.486 136.815 22.4478 136.807 22.4127 136.791C22.3776 136.776 22.3467 136.752 22.3221 136.723C21.0317 135.168 19.9185 133.475 19.0031 131.674C18.9877 131.644 18.9785 131.61 18.9761 131.576C18.9737 131.542 18.9782 131.508 18.9892 131.475C19.0002 131.443 19.0176 131.413 19.0404 131.387C19.0631 131.361 19.0907 131.341 19.1216 131.326C19.1829 131.296 19.2534 131.291 19.3183 131.312C19.3832 131.332 19.4377 131.377 19.4703 131.437C20.365 133.204 21.4549 134.864 22.7196 136.388C22.7677 136.437 22.7947 136.504 22.7947 136.573C22.7947 136.642 22.7677 136.708 22.7196 136.757C22.663 136.798 22.5939 136.818 22.5244 136.813ZM17.1483 126.201C17.0904 126.202 17.0337 126.183 16.988 126.148C16.9422 126.112 16.9102 126.062 16.8973 126.005C16.4062 124.043 16.1418 122.031 16.1094 120.009C16.1111 119.941 16.1389 119.876 16.1869 119.828C16.2349 119.78 16.2995 119.753 16.3674 119.751C16.4015 119.749 16.4356 119.754 16.4677 119.766C16.4998 119.778 16.5291 119.796 16.554 119.819C16.5788 119.843 16.5985 119.871 16.612 119.902C16.6255 119.934 16.6324 119.968 16.6323 120.002C16.6612 121.982 16.9186 123.952 17.3993 125.873C17.4164 125.94 17.4062 126.012 17.3709 126.072C17.3357 126.132 17.2783 126.176 17.2111 126.194L17.1483 126.201ZM16.981 114.347H16.9252C16.8916 114.34 16.8597 114.325 16.8316 114.306C16.8035 114.286 16.7796 114.26 16.7614 114.231C16.7432 114.202 16.731 114.169 16.7256 114.135C16.7202 114.101 16.7217 114.067 16.73 114.033C17.162 112.063 17.866 110.162 18.8218 108.385C18.8349 108.349 18.8556 108.317 18.8824 108.29C18.9093 108.263 18.9416 108.242 18.9773 108.229C19.0129 108.215 19.051 108.21 19.089 108.212C19.127 108.215 19.1639 108.226 19.1974 108.244C19.2308 108.262 19.2599 108.287 19.2827 108.318C19.3055 108.348 19.3215 108.383 19.3295 108.421C19.3375 108.458 19.3374 108.496 19.3292 108.534C19.3211 108.571 19.3049 108.606 19.282 108.636C18.3288 110.367 17.6246 112.224 17.1902 114.152C17.1793 114.202 17.1535 114.247 17.1161 114.282C17.0787 114.317 17.0316 114.34 16.981 114.347ZM22.6638 103.978C22.6299 103.979 22.5961 103.973 22.5648 103.96C22.5335 103.946 22.5055 103.927 22.4825 103.902C22.4348 103.853 22.4081 103.788 22.4081 103.72C22.4081 103.652 22.4348 103.587 22.4825 103.539C23.9069 102.106 25.4881 100.839 27.1961 99.7598C27.2539 99.7334 27.3192 99.7287 27.3801 99.7464C27.4411 99.7641 27.4937 99.8031 27.5283 99.8563C27.563 99.9095 27.5773 99.9734 27.5688 100.036C27.5603 100.099 27.5295 100.157 27.482 100.199C25.8047 101.253 24.2536 102.495 22.859 103.902C22.8043 103.947 22.7345 103.969 22.6638 103.964V103.978Z" fill="#9AA6A5"/>
<path d="M154.728 51.8566C154.69 51.8531 154.653 51.842 154.618 51.824C154.584 51.806 154.554 51.7813 154.529 51.7515C154.505 51.7217 154.486 51.6873 154.475 51.6502C154.464 51.6132 154.46 51.5744 154.464 51.5359C154.54 50.6782 154.596 49.7997 154.631 48.9281C154.638 48.8509 154.673 48.7791 154.73 48.7263C154.786 48.6736 154.86 48.6436 154.938 48.6422C155.015 48.6475 155.088 48.6821 155.141 48.7391C155.194 48.7961 155.224 48.8711 155.224 48.949C155.189 49.8345 155.133 50.7201 155.049 51.5917C155.046 51.6302 155.035 51.6676 155.017 51.7018C154.999 51.7361 154.974 51.7664 154.944 51.791C154.914 51.8156 154.88 51.8341 154.843 51.8454C154.806 51.8567 154.767 51.8605 154.728 51.8566ZM154.568 42.1435C154.497 42.1426 154.428 42.116 154.374 42.0687C154.32 42.0214 154.285 41.9564 154.275 41.8855C153.979 39.5491 153.494 37.2405 152.825 34.9825C152.814 34.9454 152.811 34.9066 152.816 34.8682C152.82 34.8299 152.832 34.7929 152.851 34.7592C152.869 34.7255 152.895 34.6958 152.925 34.6719C152.955 34.648 152.99 34.6303 153.027 34.6199C153.102 34.5979 153.183 34.606 153.252 34.6425C153.321 34.679 153.373 34.7409 153.397 34.8151C154.065 37.1108 154.548 39.4566 154.84 41.8298C154.848 41.9072 154.826 41.9847 154.777 42.0458C154.729 42.107 154.659 42.147 154.582 42.1575L154.568 42.1435ZM150.566 28.5814C150.509 28.5812 150.454 28.5655 150.406 28.5359C150.358 28.5064 150.319 28.4643 150.294 28.4141C149.279 26.2902 148.102 24.248 146.773 22.3059C146.751 22.2739 146.735 22.2378 146.727 22.1998C146.719 22.1618 146.719 22.1226 146.726 22.0843C146.733 22.0461 146.747 22.0097 146.769 21.9772C146.79 21.9446 146.817 21.9165 146.849 21.8945C146.881 21.8726 146.917 21.8571 146.955 21.8491C146.993 21.841 147.033 21.8406 147.071 21.8477C147.109 21.8548 147.145 21.8694 147.178 21.8906C147.211 21.9118 147.239 21.9392 147.261 21.9712C148.609 23.9373 149.803 26.0051 150.831 28.1561C150.864 28.2274 150.869 28.3091 150.843 28.3834C150.816 28.4578 150.762 28.5189 150.691 28.5536C150.652 28.5728 150.609 28.5823 150.566 28.5814ZM142.582 16.8881C142.542 16.8882 142.502 16.8803 142.465 16.8647C142.427 16.8492 142.394 16.8263 142.366 16.7974C140.763 15.07 139.033 13.4641 137.192 11.9932C137.131 11.9429 137.093 11.8708 137.085 11.7925C137.078 11.7143 137.101 11.6361 137.15 11.5748C137.2 11.5148 137.272 11.4763 137.35 11.4673C137.427 11.4582 137.506 11.4792 137.568 11.526C139.427 13.0244 141.175 14.6557 142.798 16.4069C142.853 16.4629 142.883 16.538 142.883 16.6161C142.883 16.6943 142.853 16.7693 142.798 16.8253C142.736 16.8704 142.658 16.8903 142.582 16.8811V16.8881ZM131.53 8.02565C131.478 8.02486 131.428 8.01043 131.384 7.98382C129.353 6.78841 127.24 5.73982 125.059 4.84606C125.023 4.83153 124.991 4.81004 124.963 4.78286C124.936 4.75568 124.914 4.72334 124.899 4.68769C124.884 4.65204 124.877 4.61379 124.877 4.57515C124.877 4.53651 124.884 4.49825 124.899 4.46255C124.928 4.39018 124.985 4.33218 125.057 4.30092C125.128 4.26966 125.209 4.26761 125.282 4.2952C127.488 5.20295 129.627 6.26546 131.683 7.4748C131.717 7.49424 131.747 7.5202 131.77 7.55116C131.794 7.58211 131.811 7.61744 131.821 7.65508C131.83 7.69273 131.832 7.73194 131.827 7.77042C131.821 7.8089 131.808 7.84589 131.788 7.87922C131.76 7.92215 131.722 7.95742 131.677 7.98177C131.632 8.00613 131.581 8.01881 131.53 8.01867V8.02565ZM118.435 2.63567H118.358C116.078 2.05395 113.76 1.62993 111.42 1.36663C111.342 1.35785 111.27 1.31852 111.221 1.25717C111.171 1.19583 111.148 1.11741 111.156 1.03891C111.166 0.961244 111.206 0.890527 111.267 0.841257C111.328 0.791987 111.405 0.767897 111.483 0.77394C113.851 1.05111 116.197 1.48909 118.505 2.08483C118.542 2.09382 118.578 2.11018 118.609 2.13296C118.641 2.15574 118.667 2.18449 118.687 2.21756C118.707 2.25062 118.721 2.28735 118.726 2.3256C118.732 2.36386 118.73 2.40289 118.721 2.44044C118.698 2.49724 118.659 2.54573 118.608 2.57938C118.556 2.61303 118.496 2.63025 118.435 2.62871V2.63567ZM97.2866 1.7083C97.2165 1.70628 97.1491 1.68025 97.0958 1.63457C97.0425 1.58889 97.0065 1.52631 96.9938 1.45728C96.9878 1.41928 96.9894 1.38047 96.9984 1.34309C97.0075 1.3057 97.0238 1.27045 97.0465 1.23937C97.0691 1.20829 97.0977 1.18199 97.1305 1.16195C97.1633 1.14191 97.1998 1.12853 97.2378 1.12258C99.5891 0.722224 101.966 0.489213 104.35 0.4253C104.393 0.418727 104.436 0.421471 104.478 0.433344C104.52 0.445216 104.558 0.465938 104.591 0.494085C104.624 0.522233 104.65 0.557139 104.668 0.596417C104.686 0.635696 104.695 0.678417 104.695 0.721646C104.695 0.764875 104.686 0.807596 104.668 0.846875C104.65 0.886153 104.624 0.921059 104.591 0.949207C104.558 0.977354 104.52 0.998076 104.478 1.00995C104.436 1.02182 104.393 1.02457 104.35 1.01799C101.995 1.07496 99.6465 1.29396 97.3215 1.67344L97.2866 1.7083Z" fill="#9AA6A5"/>
<path fill-rule="evenodd" clip-rule="evenodd" d="M43.8961 41.279V36.8024C43.8869 34.4388 42.9434 32.1747 41.2714 30.504C39.5994 28.8333 37.3345 27.8916 34.9709 27.8842H34.9081C32.5336 27.8842 30.2564 28.8275 28.5774 30.5065C26.8983 32.1855 25.9551 34.4628 25.9551 36.8373V41.3138L43.8961 41.279Z" fill="#E4E9EA"/>
<path fill-rule="evenodd" clip-rule="evenodd" d="M34.9707 27.8843C37.3404 27.8916 39.6105 28.8382 41.2835 30.5164C42.9565 32.1946 43.8959 34.4676 43.8959 36.8373V129.032C43.8959 131.406 44.8391 133.683 46.5182 135.362C48.1972 137.041 50.4744 137.985 52.8489 137.985C55.2234 137.985 57.5007 137.041 59.1797 135.362C60.8587 133.683 61.802 131.406 61.802 129.032V124.555H118.212V36.8025C118.203 34.4292 117.252 32.1566 115.567 30.4844C113.883 28.8121 111.604 27.8768 109.231 27.8843H34.9707Z" fill="white"/>
<path fill-rule="evenodd" clip-rule="evenodd" d="M118.211 124.555H61.8007V129.032C61.8007 131.406 60.8575 133.683 59.1784 135.362C57.4994 137.041 55.2222 137.985 52.8477 137.985H127.164C129.538 137.985 131.815 137.041 133.494 135.362C135.174 133.683 136.117 131.406 136.117 129.032V124.555H118.211Z" fill="#E4E9EA"/>
<path d="M43.8946 42.3249H25.9815C25.7041 42.3249 25.438 42.2147 25.2419 42.0186C25.0457 41.8224 24.9355 41.5564 24.9355 41.279V36.8024C25.0044 34.1953 26.0884 31.7181 27.9567 29.8985C29.8251 28.0789 32.33 27.0606 34.938 27.0606C37.546 27.0606 40.051 28.0789 41.9193 29.8985C43.7876 31.7181 44.8717 34.1953 44.9405 36.8024V41.279C44.9405 41.5564 44.8303 41.8224 44.6341 42.0186C44.438 42.2147 44.172 42.3249 43.8946 42.3249ZM27.0274 40.2331H42.8487V36.8024C42.7876 34.7451 41.9273 32.7924 40.4505 31.3588C38.9736 29.9251 36.9963 29.1232 34.938 29.1232C32.8797 29.1232 30.9024 29.9251 29.4256 31.3588C27.9487 32.7924 27.0885 34.7451 27.0274 36.8024V40.2331Z" fill="#9AA6A5"/>
<path d="M52.848 139.031C50.1972 139.027 47.6561 137.972 45.7817 136.098C43.9073 134.223 42.8527 131.682 42.849 129.032V36.8024C42.8454 34.7112 42.0149 32.7064 40.5389 31.2251C39.0628 29.7438 37.0609 28.9063 34.9697 28.8952C34.6924 28.8952 34.4263 28.7851 34.2302 28.5889C34.034 28.3928 33.9238 28.1267 33.9238 27.8493C33.9238 27.5719 34.034 27.3059 34.2302 27.1098C34.4263 26.9136 34.6924 26.8034 34.9697 26.8034H109.3C111.948 26.8089 114.486 27.8649 116.357 29.7394C118.227 31.614 119.278 34.1541 119.278 36.8024V124.555C119.278 124.832 119.168 125.098 118.971 125.295C118.775 125.491 118.509 125.601 118.232 125.601H62.8679V129.032C62.8642 131.686 61.8067 134.23 59.9278 136.105C58.0489 137.98 55.5024 139.032 52.848 139.031ZM41.05 28.8952C42.2595 29.8284 43.2391 31.0264 43.9135 32.3971C44.588 33.7677 44.9394 35.2747 44.9408 36.8024V129.032C44.9408 131.129 45.7739 133.14 47.2568 134.623C48.7397 136.106 50.7509 136.939 52.848 136.939C54.9451 136.939 56.9563 136.106 58.4392 134.623C59.9221 133.14 60.7551 131.129 60.7551 129.032V124.555C60.7551 124.278 60.8653 124.012 61.0615 123.815C61.2576 123.619 61.5237 123.509 61.8011 123.509H117.186V36.8024C117.187 35.7565 116.98 34.721 116.576 33.7561C116.173 32.7912 115.581 31.9163 114.836 31.1823C114.112 30.4556 113.251 29.8794 112.303 29.4869C111.356 29.0943 110.34 28.8933 109.314 28.8952H41.05Z" fill="#9AA6A5"/>
<path d="M127.165 139.031H52.8487C52.5713 139.031 52.3052 138.92 52.1091 138.724C51.9129 138.528 51.8027 138.262 51.8027 137.985C51.8027 137.707 51.9129 137.441 52.1091 137.245C52.3052 137.049 52.5713 136.939 52.8487 136.939C54.9446 136.935 56.9537 136.101 58.4358 134.619C59.9179 133.137 60.7521 131.128 60.7558 129.032V124.555C60.7558 124.278 60.866 124.012 61.0621 123.816C61.2583 123.619 61.5243 123.509 61.8017 123.509H136.118C136.395 123.509 136.661 123.619 136.857 123.816C137.053 124.012 137.164 124.278 137.164 124.555V129.032C137.16 131.682 136.105 134.224 134.231 136.098C132.357 137.972 129.815 139.027 127.165 139.031ZM58.9638 136.939H127.165C129.261 136.935 131.27 136.101 132.752 134.619C134.234 133.137 135.068 131.128 135.072 129.032V125.601H62.8476V129.032C62.8465 130.559 62.4959 132.065 61.8227 133.436C61.1495 134.806 60.1716 136.005 58.9638 136.939Z" fill="#9AA6A5"/>
<path fill-rule="evenodd" clip-rule="evenodd" d="M69.5064 46.7108L67.8539 66.5066C67.8491 66.7249 67.8886 66.9419 67.97 67.1446C68.0514 67.3472 68.1729 67.5313 68.3273 67.6857C68.4817 67.8401 68.6658 67.9617 68.8685 68.043C69.0711 68.1244 69.2881 68.1639 69.5064 68.1591H92.6003C92.8186 68.1649 93.0358 68.1261 93.2385 68.045C93.4412 67.9639 93.6253 67.8423 93.7794 67.6876C93.9334 67.5329 94.0543 67.3483 94.1345 67.1452C94.2147 66.9422 94.2527 66.7248 94.2459 66.5066L92.6003 46.7108C92.5847 46.2782 92.4053 45.8677 92.0986 45.5622C91.7918 45.2567 91.3805 45.0791 90.9478 45.0652H71.166C70.7321 45.0774 70.319 45.2542 70.0108 45.5599C69.7026 45.8655 69.5222 46.277 69.5064 46.7108Z" fill="#E4E9EA"/>
<path d="M92.5993 69.1911H69.5055C69.1242 69.1889 68.7474 69.1086 68.3984 68.9551C68.0495 68.8016 67.7356 68.5781 67.4764 68.2986C67.2411 68.0466 67.0608 67.7486 66.9468 67.4233C66.8328 67.098 66.7875 66.7526 66.814 66.409L68.4665 46.6132C68.5016 45.9197 68.798 45.2653 69.296 44.7814C69.7941 44.2976 70.4569 44.0203 71.151 44.0054H90.9468C91.6392 44.0282 92.2983 44.3078 92.7958 44.7899C93.2933 45.2719 93.5937 45.9219 93.6383 46.6132L95.2909 66.402C95.3146 66.7494 95.2647 67.0979 95.1446 67.4247C95.0244 67.7515 94.8367 68.0493 94.5936 68.2986C94.3399 68.5758 94.032 68.7981 93.689 68.9516C93.346 69.1051 92.9751 69.1866 92.5993 69.1911ZM71.165 46.0972C70.9974 46.1209 70.8442 46.2047 70.7339 46.333C70.6236 46.4613 70.5637 46.6253 70.5653 46.7945L68.9128 66.5833C68.9095 66.6399 68.9184 66.6966 68.9388 66.7495C68.9593 66.8024 68.9908 66.8504 69.0313 66.8901C69.0945 66.9564 69.1701 67.0096 69.2539 67.0467C69.3376 67.0838 69.4278 67.104 69.5194 67.1062H92.6133C92.7049 67.104 92.7951 67.0838 92.8789 67.0467C92.9626 67.0096 93.0382 66.9564 93.1014 66.8901C93.1773 66.8059 93.2196 66.6967 93.2199 66.5833L91.5674 46.7945C91.5688 46.6242 91.5079 46.4594 91.3962 46.3309C91.2844 46.2025 91.1296 46.1193 90.9608 46.0972H71.165Z" fill="#9AA6A5"/>
<path d="M87.2371 48.0216C86.9597 48.0216 86.6937 47.9114 86.4975 47.7152C86.3014 47.5191 86.1912 47.2531 86.1912 46.9757V43.3428C86.1912 39.9889 83.8832 37.2556 81.0522 37.2556C78.2213 37.2556 75.9063 39.9889 75.9063 43.3428V46.9757C75.9063 47.2531 75.7961 47.5191 75.6 47.7152C75.4038 47.9114 75.1378 48.0216 74.8604 48.0216C74.583 48.0216 74.317 47.9114 74.1208 47.7152C73.9247 47.5191 73.8145 47.2531 73.8145 46.9757V43.3428C73.8145 38.8384 77.0638 35.1638 81.0522 35.1638C85.0407 35.1638 88.283 38.8384 88.283 43.3428V46.9757C88.283 47.2531 88.1728 47.5191 87.9767 47.7152C87.7805 47.9114 87.5145 48.0216 87.2371 48.0216Z" fill="#9AA6A5"/>
<path d="M112.465 83.9593H53.5733C53.2959 83.9593 53.0298 83.8491 52.8337 83.653C52.6375 83.4568 52.5273 83.1908 52.5273 82.9134C52.5273 82.636 52.6375 82.37 52.8337 82.1738C53.0298 81.9777 53.2959 81.8675 53.5733 81.8675H112.465C112.743 81.8675 113.009 81.9777 113.205 82.1738C113.401 82.37 113.511 82.636 113.511 82.9134C113.511 83.1908 113.401 83.4568 113.205 83.653C113.009 83.8491 112.743 83.9593 112.465 83.9593Z" fill="#9AA6A5"/>
<path d="M102.808 92.1803H53.5733C53.2959 92.1803 53.0298 92.0701 52.8337 91.8739C52.6375 91.6778 52.5273 91.4118 52.5273 91.1344C52.5273 90.857 52.6375 90.5909 52.8337 90.3948C53.0298 90.1986 53.2959 90.0884 53.5733 90.0884H102.808C103.086 90.0884 103.352 90.1986 103.548 90.3948C103.744 90.5909 103.854 90.857 103.854 91.1344C103.854 91.4118 103.744 91.6778 103.548 91.8739C103.352 92.0701 103.086 92.1803 102.808 92.1803Z" fill="#9AA6A5"/>
<path d="M93.1578 101.05H53.5733C53.2959 101.05 53.0298 100.939 52.8337 100.743C52.6375 100.547 52.5273 100.281 52.5273 100.004C52.5273 99.7263 52.6375 99.4603 52.8337 99.2642C53.0298 99.068 53.2959 98.9578 53.5733 98.9578H93.1578C93.4352 98.9578 93.7012 99.068 93.8974 99.2642C94.0935 99.4603 94.2037 99.7263 94.2037 100.004C94.2037 100.281 94.0935 100.547 93.8974 100.743C93.7012 100.939 93.4352 101.05 93.1578 101.05Z" fill="#9AA6A5"/>
<path d="M62.6946 58.9131H54.5225C54.2451 58.9131 53.979 58.8029 53.7829 58.6068C53.5868 58.4106 53.4766 58.1446 53.4766 57.8672C53.4766 57.5898 53.5868 57.3238 53.7829 57.1276C53.979 56.9315 54.2451 56.8213 54.5225 56.8213H62.6946C62.972 56.8213 63.238 56.9315 63.4342 57.1276C63.6303 57.3238 63.7405 57.5898 63.7405 57.8672C63.7405 58.1446 63.6303 58.4106 63.4342 58.6068C63.238 58.8029 62.972 58.9131 62.6946 58.9131Z" fill="#9AA6A5"/>
<path d="M108.079 58.9131H99.9072C99.6299 58.9131 99.3638 58.8029 99.1677 58.6068C98.9715 58.4106 98.8613 58.1446 98.8613 57.8672C98.8613 57.5898 98.9715 57.3238 99.1677 57.1276C99.3638 56.9315 99.6299 56.8213 99.9072 56.8213H108.079C108.357 56.8213 108.623 56.9315 108.819 57.1276C109.015 57.3238 109.125 57.5898 109.125 57.8672C109.125 58.1446 109.015 58.4106 108.819 58.6068C108.623 58.8029 108.357 58.9131 108.079 58.9131Z" fill="#9AA6A5"/>
<path d="M90.6895 8.26973C89.8715 8.26973 89.0717 8.02705 88.3916 7.5724C87.7115 7.11775 87.1815 6.47156 86.8688 5.7156C86.556 4.95965 86.4745 4.12791 86.6347 3.32563C86.7948 2.52336 87.1893 1.7866 87.7682 1.20861C88.3472 0.630616 89.0846 0.237361 89.8871 0.0786048C90.6897 -0.0801516 91.5213 0.0027241 92.2767 0.316752C93.0322 0.63078 93.6775 1.16185 94.131 1.84274C94.5845 2.52363 94.8258 3.32375 94.8244 4.14184C94.8226 5.23727 94.3861 6.28719 93.6109 7.06112C92.8356 7.83505 91.785 8.26974 90.6895 8.26973ZM90.6895 0.69031C90.0097 0.69031 89.345 0.891922 88.7797 1.26965C88.2144 1.64738 87.7738 2.18425 87.5136 2.81239C87.2535 3.44052 87.1854 4.13171 87.318 4.79854C87.4507 5.46537 87.7781 6.07788 88.2588 6.55863C88.7396 7.03939 89.3521 7.36679 90.0189 7.49943C90.6857 7.63207 91.3769 7.564 92.0051 7.30381C92.6332 7.04363 93.1701 6.60303 93.5478 6.03772C93.9255 5.47241 94.1271 4.80778 94.1271 4.12789C94.1271 3.67646 94.0382 3.22945 93.8655 2.81239C93.6927 2.39532 93.4395 2.01637 93.1203 1.69716C92.8011 1.37795 92.4221 1.12474 92.0051 0.951981C91.588 0.779226 91.141 0.69031 90.6895 0.69031Z" fill="#9AA6A5"/>
</svg>
