<svg width="166" height="152" viewBox="0 0 166 152" fill="none" xmlns="http://www.w3.org/2000/svg">
<path d="M109.056 17.7532H59.5241C56.1839 17.7532 52.9804 19.0801 50.6185 21.442C48.2566 23.8039 46.9297 27.0074 46.9297 30.3476V136.191C46.9297 139.532 48.2566 142.735 50.6185 145.097C52.9804 147.459 56.1839 148.786 59.5241 148.786H109.056C112.307 148.779 115.43 147.516 117.771 145.259C118.522 144.546 119.177 143.738 119.721 142.856C120.971 140.868 121.635 138.566 121.635 136.217V30.3325C121.631 26.9975 120.304 23.8002 117.946 21.442C115.588 19.0838 112.391 17.7572 109.056 17.7532Z" fill="#E4E9EA"/>
<path d="M108.501 23.6625H94.2442C93.5884 23.6654 92.9419 23.8176 92.3536 24.1073C91.7653 24.3971 91.2507 24.8169 90.8487 25.335C90.0639 26.3187 89.0677 27.113 87.9339 27.6588C86.8001 28.2047 85.5579 28.4882 84.2996 28.4882C83.0412 28.4882 81.799 28.2047 80.6652 27.6588C79.5314 27.113 78.5352 26.3187 77.7504 25.335C77.3484 24.8169 76.8338 24.3971 76.2455 24.1073C75.6572 23.8176 75.0107 23.6654 74.355 23.6625H60.0981C58.1842 23.6651 56.3496 24.4266 54.9963 25.7799C53.643 27.1331 52.8816 28.9678 52.8789 30.8816V135.622C52.8793 137.298 53.4636 138.92 54.5313 140.212C55.2226 141.016 56.0756 141.666 57.0347 142.119C57.9938 142.572 59.0376 142.818 60.0981 142.841H108.501C109.562 142.818 110.605 142.572 111.564 142.119C112.524 141.666 113.376 141.016 114.068 140.212C115.138 138.922 115.722 137.298 115.72 135.622V30.8816C115.718 28.9678 114.956 27.1331 113.603 25.7799C112.25 24.4266 110.415 23.6651 108.501 23.6625Z" fill="white"/>
<path d="M159.458 83.2544C159.274 83.2531 159.099 83.1793 158.969 83.049C158.84 82.9188 158.768 82.7427 158.768 82.5592V73.9194C158.782 73.7459 158.862 73.5842 158.99 73.4665C159.118 73.3487 159.286 73.2833 159.46 73.2833C159.634 73.2833 159.802 73.3487 159.93 73.4665C160.059 73.5842 160.138 73.7459 160.153 73.9194V82.5592C160.153 82.7436 160.08 82.9204 159.949 83.0508C159.819 83.1812 159.642 83.2544 159.458 83.2544Z" fill="#9AA6A5"/>
<path d="M163.781 78.932H155.141C154.958 78.932 154.783 78.8593 154.653 78.7299C154.524 78.6005 154.451 78.4249 154.451 78.2419C154.451 78.0588 154.524 77.8833 154.653 77.7539C154.783 77.6244 154.958 77.5517 155.141 77.5517H163.781C163.964 77.5517 164.14 77.6244 164.269 77.7539C164.399 77.8833 164.471 78.0588 164.471 78.2419C164.471 78.4249 164.399 78.6005 164.269 78.7299C164.14 78.8593 163.964 78.932 163.781 78.932Z" fill="#9AA6A5"/>
<path d="M19.5847 39.9597C19.4017 39.9597 19.2261 39.887 19.0967 39.7576C18.9672 39.6281 18.8945 39.4526 18.8945 39.2695V30.6247C18.8945 30.4416 18.9672 30.2661 19.0967 30.1367C19.2261 30.0072 19.4017 29.9345 19.5847 29.9345C19.7678 29.9345 19.9433 30.0072 20.0727 30.1367C20.2022 30.2661 20.2749 30.4416 20.2749 30.6247V39.2695C20.2749 39.4526 20.2022 39.6281 20.0727 39.7576C19.9433 39.887 19.7678 39.9597 19.5847 39.9597Z" fill="#9AA6A5"/>
<path d="M23.9073 35.6373H15.2624C15.0794 35.6373 14.9038 35.5646 14.7744 35.4352C14.645 35.3057 14.5723 35.1302 14.5723 34.9471C14.5723 34.7641 14.645 34.5885 14.7744 34.4591C14.9038 34.3297 15.0794 34.257 15.2624 34.257H23.9073C24.0903 34.257 24.2659 34.3297 24.3953 34.4591C24.5247 34.5885 24.5975 34.7641 24.5975 34.9471C24.5975 35.1302 24.5247 35.3057 24.3953 35.4352C24.2659 35.5646 24.0903 35.6373 23.9073 35.6373Z" fill="#9AA6A5"/>
<path d="M157.525 152C157.406 152 157.292 151.953 157.207 151.869C157.123 151.785 157.076 151.671 157.076 151.552V147.985C157.076 147.866 157.123 147.752 157.207 147.668C157.292 147.584 157.406 147.536 157.525 147.536C157.643 147.536 157.757 147.584 157.842 147.668C157.926 147.752 157.973 147.866 157.973 147.985V151.552C157.973 151.671 157.926 151.785 157.842 151.869C157.757 151.953 157.643 152 157.525 152Z" fill="#9AA6A5"/>
<path d="M159.308 150.217H155.741C155.622 150.217 155.508 150.169 155.424 150.085C155.34 150.001 155.293 149.887 155.293 149.768C155.293 149.649 155.34 149.535 155.424 149.451C155.508 149.367 155.622 149.32 155.741 149.32H159.308C159.427 149.32 159.541 149.367 159.625 149.451C159.709 149.535 159.756 149.649 159.756 149.768C159.756 149.887 159.709 150.001 159.625 150.085C159.541 150.169 159.427 150.217 159.308 150.217Z" fill="#9AA6A5"/>
<path d="M2.55188 104.348C2.43296 104.348 2.31892 104.3 2.23484 104.216C2.15075 104.132 2.10352 104.018 2.10352 103.899V100.338C2.10352 100.219 2.15075 100.105 2.23484 100.02C2.31892 99.9364 2.43296 99.8892 2.55188 99.8892C2.67079 99.8892 2.78483 99.9364 2.86892 100.02C2.953 100.105 3.00024 100.219 3.00024 100.338V103.899C3.00024 104.018 2.953 104.132 2.86892 104.216C2.78483 104.3 2.67079 104.348 2.55188 104.348Z" fill="#9AA6A5"/>
<path d="M4.33484 102.564H0.76809C0.658016 102.553 0.556167 102.501 0.482151 102.418C0.408136 102.336 0.367188 102.229 0.367188 102.118C0.367188 102.008 0.408136 101.901 0.482151 101.819C0.556167 101.736 0.658016 101.684 0.76809 101.673H4.33484C4.39737 101.666 4.4606 101.672 4.52043 101.692C4.58025 101.711 4.63533 101.743 4.68209 101.785C4.72885 101.827 4.76624 101.878 4.79184 101.936C4.81744 101.993 4.83066 102.056 4.83066 102.118C4.83066 102.181 4.81744 102.243 4.79184 102.301C4.76624 102.358 4.72885 102.41 4.68209 102.452C4.63533 102.494 4.58025 102.526 4.52043 102.545C4.4606 102.564 4.39737 102.571 4.33484 102.564Z" fill="#9AA6A5"/>
<path d="M11.1909 51.0277C11.0746 51.0212 10.9655 50.9697 10.8865 50.8842C10.8075 50.7986 10.7649 50.6857 10.7677 50.5693V47.0428C10.7677 46.9239 10.8149 46.8099 10.899 46.7258C10.9831 46.6417 11.0972 46.5945 11.2161 46.5945C11.335 46.5945 11.449 46.6417 11.5331 46.7258C11.6172 46.8099 11.6644 46.9239 11.6644 47.0428V50.5693C11.6659 50.6312 11.6546 50.6927 11.6311 50.75C11.6076 50.8073 11.5725 50.8592 11.5281 50.9022C11.4836 50.9453 11.4306 50.9787 11.3726 51.0003C11.3146 51.0219 11.2527 51.0312 11.1909 51.0277Z" fill="#9AA6A5"/>
<path d="M12.9741 49.2494H9.40735C9.28843 49.2494 9.17439 49.2021 9.09031 49.1181C9.00622 49.034 8.95898 48.9199 8.95898 48.801C8.95898 48.6821 9.00622 48.5681 9.09031 48.484C9.17439 48.3999 9.28843 48.3527 9.40735 48.3527H12.9741C13.093 48.3527 13.2071 48.3999 13.2911 48.484C13.3752 48.5681 13.4225 48.6821 13.4225 48.801C13.4225 48.9199 13.3752 49.034 13.2911 49.1181C13.2071 49.2021 13.093 49.2494 12.9741 49.2494Z" fill="#9AA6A5"/>
<path d="M162.829 92.0051C162.71 92.0051 162.596 91.9578 162.512 91.8737C162.428 91.7896 162.381 91.6756 162.381 91.5567V87.9899C162.393 87.8799 162.445 87.778 162.527 87.704C162.609 87.63 162.716 87.5891 162.827 87.5891C162.937 87.5891 163.044 87.63 163.126 87.704C163.209 87.778 163.261 87.8799 163.273 87.9899V91.5567C163.273 91.6153 163.262 91.6735 163.24 91.7279C163.218 91.7823 163.186 91.8317 163.144 91.8734C163.103 91.9151 163.054 91.9482 163 91.9708C162.946 91.9934 162.888 92.0051 162.829 92.0051Z" fill="#9AA6A5"/>
<path d="M164.608 90.2217H161.046C160.927 90.2217 160.813 90.1744 160.729 90.0904C160.645 90.0063 160.598 89.8922 160.598 89.7733C160.598 89.6544 160.645 89.5404 160.729 89.4563C160.813 89.3722 160.927 89.325 161.046 89.325H164.608C164.727 89.325 164.841 89.3722 164.925 89.4563C165.009 89.5404 165.056 89.6544 165.056 89.7733C165.056 89.8922 165.009 90.0063 164.925 90.0904C164.841 90.1744 164.727 90.2217 164.608 90.2217Z" fill="#9AA6A5"/>
<path d="M34.0774 149.768C32.3691 149.648 30.6739 149.385 29.0094 148.982C28.9528 148.968 28.9041 148.932 28.8739 148.882C28.8437 148.832 28.8345 148.772 28.8482 148.715C28.8625 148.658 28.8984 148.609 28.9482 148.578C28.998 148.547 29.0578 148.537 29.1152 148.549C30.7499 148.943 32.4149 149.197 34.0925 149.31C34.1505 149.315 34.2041 149.343 34.2417 149.387C34.2794 149.431 34.2982 149.489 34.294 149.547C34.2947 149.575 34.2896 149.604 34.279 149.631C34.2684 149.658 34.2526 149.682 34.2324 149.703C34.2122 149.724 34.1881 149.74 34.1615 149.751C34.1349 149.762 34.1063 149.768 34.0774 149.768ZM24.2285 147.325C24.1985 147.33 24.1679 147.33 24.1379 147.325L23.9414 147.234C22.4503 146.538 21.0383 145.683 19.7298 144.685C19.7066 144.667 19.6872 144.645 19.6727 144.62C19.6581 144.594 19.6487 144.566 19.645 144.537C19.6412 144.508 19.6432 144.479 19.6509 144.451C19.6585 144.422 19.6716 144.396 19.6895 144.373C19.7074 144.35 19.7296 144.33 19.755 144.316C19.7803 144.301 19.8083 144.292 19.8373 144.288C19.8663 144.284 19.8958 144.286 19.924 144.294C19.9522 144.301 19.9787 144.315 20.0018 144.332C21.2837 145.319 22.6688 146.163 24.1328 146.851L24.3243 146.942C24.3705 146.963 24.4081 147 24.4306 147.045C24.4532 147.091 24.4594 147.143 24.4482 147.192C24.4369 147.242 24.409 147.286 24.369 147.318C24.329 147.349 24.2794 147.366 24.2285 147.365V147.325ZM16.1983 141.184C16.1655 141.184 16.1331 141.177 16.1034 141.163C16.0737 141.149 16.0476 141.129 16.027 141.103C14.9285 139.783 13.9821 138.343 13.2059 136.811C13.185 136.76 13.1842 136.702 13.2034 136.65C13.2227 136.599 13.2608 136.556 13.3101 136.53C13.3594 136.505 13.4164 136.499 13.4698 136.514C13.5233 136.529 13.5693 136.563 13.5988 136.61C14.3613 138.113 15.2908 139.526 16.3696 140.821C16.4058 140.867 16.4229 140.925 16.4173 140.983C16.4116 141.042 16.3837 141.095 16.3394 141.133C16.3001 141.167 16.2499 141.185 16.1983 141.184ZM11.624 132.181C11.5745 132.182 11.5263 132.166 11.4871 132.136C11.4478 132.105 11.4197 132.063 11.4074 132.015C11.0004 130.34 10.7858 128.625 10.7676 126.902C10.7676 126.843 10.7909 126.787 10.8325 126.745C10.8741 126.703 10.9305 126.68 10.9892 126.68C11.0181 126.679 11.0468 126.684 11.0737 126.695C11.1006 126.706 11.125 126.722 11.1457 126.742C11.1663 126.762 11.1827 126.786 11.1939 126.813C11.2051 126.839 11.2109 126.868 11.2109 126.897C11.2377 128.58 11.4574 130.255 11.8658 131.889C11.8784 131.946 11.8687 132.006 11.8388 132.057C11.8089 132.107 11.7609 132.145 11.7046 132.161L11.624 132.181ZM11.4829 122.076H11.4326C11.3757 122.061 11.3266 122.025 11.2956 121.976C11.2646 121.926 11.2541 121.866 11.2663 121.809C11.6447 120.128 12.2551 118.509 13.0799 116.997C13.0941 116.972 13.1132 116.95 13.1361 116.931C13.159 116.913 13.1853 116.9 13.2133 116.892C13.2414 116.884 13.2707 116.882 13.2997 116.885C13.3287 116.889 13.3567 116.898 13.3822 116.912C13.4077 116.926 13.4301 116.945 13.4482 116.968C13.4663 116.991 13.4797 117.017 13.4876 117.045C13.4956 117.073 13.4979 117.103 13.4945 117.132C13.4911 117.161 13.4821 117.189 13.4678 117.214C12.6633 118.688 12.0681 120.266 11.6996 121.904C11.6846 121.95 11.6556 121.99 11.6167 122.018C11.5778 122.046 11.5309 122.061 11.4829 122.06V122.076ZM16.3091 113.239C16.28 113.24 16.2511 113.234 16.2242 113.223C16.1973 113.212 16.1731 113.195 16.153 113.174C16.1117 113.132 16.0886 113.076 16.0886 113.018C16.0886 112.959 16.1117 112.903 16.153 112.861C17.3711 111.642 18.7231 110.564 20.1832 109.647C20.208 109.632 20.2356 109.621 20.2645 109.616C20.2934 109.611 20.323 109.612 20.3516 109.618C20.3802 109.625 20.4072 109.637 20.431 109.654C20.4549 109.671 20.4751 109.693 20.4905 109.718C20.5061 109.742 20.5167 109.769 20.5216 109.798C20.5265 109.826 20.5256 109.856 20.519 109.884C20.5124 109.912 20.5003 109.939 20.4833 109.962C20.4663 109.985 20.4447 110.005 20.42 110.02C18.9958 110.92 17.6776 111.978 16.4905 113.174C16.4664 113.197 16.4378 113.214 16.4066 113.225C16.3754 113.237 16.3422 113.241 16.3091 113.239Z" fill="#050606"/>
<path d="M34.0772 150.02H34.0369C32.3147 149.899 30.6058 149.633 28.9286 149.224C28.8084 149.192 28.7043 149.117 28.6364 149.013C28.5713 148.905 28.5513 148.777 28.5809 148.655C28.6172 148.537 28.6958 148.436 28.8018 148.372C28.9077 148.307 29.0335 148.285 29.1553 148.307C30.7812 148.703 32.4379 148.959 34.1074 149.073C34.2322 149.082 34.3483 149.14 34.4304 149.235C34.5126 149.329 34.554 149.452 34.5457 149.577C34.5392 149.697 34.487 149.809 34.3999 149.892C34.3127 149.974 34.1972 150.02 34.0772 150.02ZM24.2283 147.577C24.1618 147.577 24.0963 147.561 24.0369 147.532L23.8354 147.441C22.3275 146.739 20.9002 145.876 19.5784 144.867C19.4804 144.787 19.4157 144.674 19.3971 144.549C19.3886 144.488 19.3923 144.426 19.4079 144.366C19.4236 144.306 19.451 144.25 19.4885 144.201C19.5259 144.152 19.5727 144.11 19.6262 144.079C19.6797 144.048 19.7388 144.028 19.8001 144.02C19.8619 144.011 19.9251 144.014 19.9857 144.029C20.0463 144.045 20.1031 144.073 20.1527 144.111C21.4216 145.08 22.7914 145.909 24.2384 146.584L24.4298 146.67C24.4862 146.696 24.5368 146.733 24.5784 146.778C24.62 146.824 24.6517 146.878 24.6716 146.937C24.6998 147.009 24.7098 147.086 24.7009 147.163C24.6921 147.239 24.6645 147.312 24.6207 147.375C24.5768 147.438 24.5181 147.49 24.4497 147.525C24.3813 147.56 24.3052 147.578 24.2283 147.577ZM16.1981 141.436C16.1279 141.436 16.0585 141.421 15.9949 141.392C15.9313 141.362 15.8751 141.319 15.8303 141.264C14.7217 139.929 13.7653 138.474 12.9789 136.927C12.9508 136.871 12.9339 136.811 12.9292 136.749C12.9245 136.687 12.9321 136.624 12.9515 136.565C12.9709 136.506 13.0018 136.451 13.0424 136.404C13.0829 136.357 13.1324 136.318 13.188 136.29C13.2436 136.262 13.3041 136.245 13.3662 136.24C13.4283 136.235 13.4908 136.243 13.5499 136.262C13.6091 136.282 13.6639 136.313 13.7111 136.353C13.7584 136.394 13.7972 136.443 13.8253 136.499C14.579 137.984 15.4965 139.379 16.5608 140.66C16.6406 140.756 16.679 140.88 16.6677 141.005C16.6564 141.13 16.5962 141.245 16.5003 141.325C16.4163 141.397 16.3089 141.437 16.1981 141.436ZM11.6238 132.418C11.5182 132.419 11.4156 132.384 11.3323 132.319C11.2491 132.254 11.1903 132.163 11.1653 132.06C10.7425 130.374 10.516 128.645 10.4903 126.907C10.4896 126.844 10.5012 126.782 10.5246 126.724C10.5479 126.667 10.5825 126.614 10.6263 126.569C10.7151 126.481 10.8336 126.429 10.9588 126.423C11.0232 126.418 11.0879 126.427 11.1489 126.448C11.2099 126.47 11.2658 126.503 11.3131 126.547C11.3604 126.591 11.3981 126.645 11.4238 126.704C11.4496 126.763 11.4627 126.827 11.4626 126.892C11.4885 128.557 11.7048 130.213 12.1074 131.829C12.1232 131.889 12.1269 131.952 12.1182 132.013C12.1094 132.075 12.0885 132.134 12.0566 132.188C12.0247 132.241 11.9825 132.288 11.9324 132.325C11.8823 132.362 11.8253 132.388 11.7648 132.403L11.6238 132.418ZM11.4827 122.312H11.3769C11.2548 122.285 11.1487 122.21 11.0816 122.104C11.0146 121.998 10.9922 121.87 11.0192 121.748C11.4029 120.045 12.0218 118.404 12.858 116.872C12.9238 116.767 13.0259 116.69 13.1449 116.655C13.2638 116.621 13.3912 116.632 13.5029 116.685C13.5575 116.715 13.6056 116.755 13.6446 116.803C13.6835 116.852 13.7124 116.908 13.7296 116.967C13.7619 117.089 13.7476 117.218 13.6893 117.33C12.8953 118.783 12.3085 120.339 11.9462 121.955C11.9202 122.058 11.8604 122.149 11.7763 122.214C11.6923 122.279 11.5889 122.313 11.4827 122.312ZM16.3089 113.491C16.1834 113.489 16.063 113.441 15.9714 113.355C15.9274 113.311 15.8924 113.259 15.8686 113.201C15.8448 113.144 15.8325 113.082 15.8325 113.02C15.8325 112.958 15.8448 112.896 15.8686 112.839C15.8924 112.781 15.9274 112.729 15.9714 112.685C17.1877 111.453 18.5397 110.363 20.0016 109.436C20.0811 109.387 20.1733 109.362 20.2668 109.364C20.3603 109.367 20.4509 109.397 20.5276 109.451C20.6042 109.504 20.6634 109.579 20.698 109.666C20.7326 109.753 20.7409 109.848 20.722 109.94C20.6911 110.062 20.6156 110.168 20.5104 110.237C19.1004 111.122 17.7971 112.167 16.6263 113.35C16.5406 113.433 16.4281 113.483 16.3089 113.491Z" fill="#9AA6A5"/>
<path d="M157.273 41.3048C157.21 41.3051 157.15 41.282 157.103 41.2401C157.056 41.1982 157.027 41.1404 157.021 41.0781C156.817 39.0847 156.481 37.1071 156.013 35.1587C155.998 35.0919 156.01 35.0217 156.046 34.9636C156.083 34.9055 156.141 34.8642 156.207 34.8488C156.274 34.8335 156.344 34.8453 156.402 34.8817C156.461 34.918 156.502 34.976 156.517 35.0428C156.985 37.0134 157.321 39.0127 157.525 41.0277C157.53 41.0943 157.51 41.1605 157.468 41.2122C157.425 41.2639 157.364 41.2971 157.298 41.3048H157.273ZM154.472 29.5869C154.421 29.5866 154.371 29.571 154.329 29.5423C154.287 29.5136 154.254 29.473 154.235 29.4257C153.519 27.5575 152.677 25.7397 151.716 23.9849C151.684 23.9261 151.677 23.857 151.696 23.7927C151.714 23.7285 151.758 23.6744 151.817 23.6423C151.876 23.6102 151.945 23.6028 152.009 23.6217C152.073 23.6406 152.127 23.6843 152.159 23.743C153.137 25.5171 153.994 27.355 154.724 29.2443C154.736 29.2747 154.742 29.3072 154.741 29.34C154.741 29.3727 154.734 29.4051 154.721 29.4351C154.708 29.4651 154.689 29.4922 154.665 29.5148C154.641 29.5374 154.613 29.555 154.583 29.5667C154.548 29.5841 154.51 29.5911 154.472 29.5869ZM148.653 19.0378C148.614 19.0374 148.576 19.0281 148.541 19.0107C148.506 18.9932 148.475 18.968 148.452 18.937C147.257 17.3266 145.958 15.7968 144.562 14.3577C144.522 14.3086 144.502 14.2461 144.505 14.1826C144.509 14.1192 144.537 14.0595 144.583 14.0155C144.628 13.9715 144.689 13.9465 144.753 13.9455C144.816 13.9445 144.878 13.9675 144.925 14.01C146.337 15.4632 147.652 17.0081 148.86 18.6347C148.898 18.6892 148.914 18.7565 148.903 18.8223C148.893 18.888 148.857 18.9472 148.804 18.9874C148.761 19.0211 148.708 19.0389 148.653 19.0378ZM140.24 10.3929C140.183 10.3948 140.127 10.375 140.084 10.3375C138.506 9.10017 136.848 7.9676 135.122 6.94708C135.065 6.91261 135.025 6.85739 135.009 6.79332C134.993 6.72924 135.003 6.66143 135.036 6.60451C135.052 6.57569 135.074 6.55041 135.1 6.53017C135.126 6.50993 135.156 6.49514 135.188 6.48669C135.22 6.47823 135.253 6.47628 135.286 6.48094C135.319 6.4856 135.35 6.49679 135.379 6.51383C137.123 7.54546 138.798 8.69155 140.391 9.94456C140.432 9.97685 140.461 10.0207 140.475 10.0703C140.49 10.1198 140.489 10.1726 140.472 10.2216C140.456 10.2705 140.425 10.3132 140.383 10.3438C140.342 10.3745 140.292 10.3916 140.24 10.3929ZM129.872 4.27202C129.841 4.27728 129.808 4.27728 129.777 4.27202C127.937 3.48738 126.047 2.82761 124.119 2.2972C124.087 2.28898 124.057 2.2745 124.03 2.2546C124.004 2.23469 123.982 2.20975 123.965 2.1812C123.948 2.15265 123.937 2.12106 123.932 2.08823C123.928 2.0554 123.929 2.02199 123.938 1.9899C123.956 1.92466 123.998 1.86903 124.057 1.83508C124.115 1.80113 124.185 1.79159 124.25 1.80854C126.206 2.33953 128.124 2.99924 129.993 3.78335C130.06 3.79605 130.119 3.83476 130.157 3.89097C130.196 3.94719 130.21 4.0163 130.197 4.0831C130.185 4.14991 130.146 4.20893 130.09 4.2472C130.033 4.28546 129.964 4.29982 129.898 4.28713L129.872 4.27202ZM100.265 2.39796C100.232 2.40226 100.199 2.40001 100.166 2.39132C100.134 2.38263 100.104 2.36768 100.078 2.34734C100.024 2.30624 99.9893 2.24562 99.9806 2.17882C99.972 2.11201 99.9902 2.04449 100.031 1.99111C100.072 1.93773 100.133 1.90287 100.2 1.89418C102.154 1.3606 104.141 0.960012 106.149 0.695189C106.215 0.68917 106.281 0.70813 106.333 0.748283C106.385 0.788436 106.42 0.84683 106.432 0.911813C106.436 0.944937 106.435 0.97872 106.427 1.01118C106.418 1.04365 106.404 1.07414 106.384 1.10088C106.363 1.12762 106.338 1.15007 106.309 1.16691C106.28 1.18375 106.248 1.19465 106.215 1.19897C104.23 1.47161 102.266 1.87722 100.336 2.41307L100.265 2.39796ZM118.235 1.12844H118.205C116.272 0.876237 114.325 0.750026 112.376 0.750605H112.21C112.143 0.750605 112.079 0.724066 112.032 0.676828C111.985 0.62959 111.958 0.565521 111.958 0.498715C111.958 0.43191 111.985 0.367841 112.032 0.320603C112.079 0.273364 112.143 0.246826 112.21 0.246826H112.376C114.345 0.247929 116.312 0.375819 118.265 0.629699C118.298 0.633438 118.331 0.643732 118.36 0.659986C118.389 0.67624 118.415 0.69813 118.435 0.72438C118.456 0.75063 118.471 0.780719 118.48 0.812897C118.489 0.845074 118.491 0.878697 118.487 0.911813C118.477 0.971898 118.447 1.02665 118.401 1.06632C118.355 1.10598 118.296 1.128 118.235 1.12844Z" fill="#020202"/>
<path d="M157.271 41.5567C157.146 41.5573 157.025 41.5112 156.932 41.4274C156.838 41.3435 156.78 41.228 156.767 41.1033C156.563 39.1199 156.227 37.1525 155.76 35.2141C155.738 35.1178 155.745 35.0171 155.779 34.9246C155.814 34.8321 155.875 34.7519 155.955 34.6939C156.035 34.6359 156.13 34.6027 156.229 34.5985C156.328 34.5943 156.426 34.6191 156.51 34.67C156.568 34.7041 156.618 34.7493 156.658 34.8029C156.697 34.8566 156.726 34.9175 156.742 34.9824C157.211 36.9645 157.548 38.9757 157.75 41.0025C157.763 41.1349 157.723 41.2671 157.639 41.3703C157.598 41.422 157.547 41.4651 157.489 41.4971C157.431 41.529 157.367 41.5493 157.301 41.5567H157.271ZM154.47 29.8388C154.368 29.8395 154.268 29.809 154.183 29.7514C154.098 29.6939 154.033 29.6119 153.997 29.5164C153.28 27.6595 152.439 25.8535 151.478 24.1108C151.412 23.9943 151.396 23.8565 151.432 23.728C151.451 23.6641 151.482 23.6045 151.523 23.5527C151.565 23.5008 151.616 23.4576 151.674 23.4257C151.789 23.3618 151.925 23.3455 152.052 23.3804C152.117 23.3981 152.177 23.4287 152.23 23.4702C152.283 23.5118 152.327 23.5634 152.359 23.6222C153.341 25.41 154.203 27.2613 154.939 29.1637C154.989 29.2864 154.989 29.424 154.939 29.5466C154.885 29.6688 154.786 29.7648 154.662 29.8136C154.6 29.8327 154.535 29.8412 154.47 29.8388ZM148.651 19.2897C148.573 19.2897 148.496 19.2715 148.426 19.2365C148.356 19.2015 148.295 19.1507 148.248 19.0882C147.06 17.4943 145.77 15.9798 144.384 14.5542C144.338 14.5071 144.301 14.4513 144.276 14.3899C144.251 14.3285 144.238 14.2628 144.238 14.1965C144.24 14.1303 144.255 14.0651 144.281 14.0046C144.308 13.9441 144.347 13.8895 144.395 13.8438C144.489 13.75 144.617 13.6973 144.75 13.6973C144.883 13.6973 145.01 13.75 145.105 13.8438C146.524 15.3052 147.845 16.8585 149.06 18.4937C149.099 18.5475 149.127 18.6087 149.143 18.6735C149.158 18.7384 149.161 18.8057 149.15 18.8715C149.13 19.0022 149.06 19.1199 148.954 19.199C148.865 19.2608 148.759 19.2926 148.651 19.2897ZM145.553 15.0428C146.654 16.2324 147.689 17.482 148.651 18.7859C147.687 17.4833 146.653 16.2337 145.553 15.0428ZM140.238 10.6448C140.125 10.6456 140.015 10.6083 139.926 10.539C138.359 9.30513 136.711 8.17751 134.994 7.16373C134.879 7.096 134.796 6.98549 134.762 6.85642C134.746 6.7921 134.742 6.72516 134.752 6.65946C134.761 6.59375 134.784 6.53057 134.818 6.47355C134.886 6.36003 134.996 6.27789 135.124 6.24489C135.252 6.2119 135.388 6.23069 135.503 6.29723C137.257 7.334 138.94 8.48687 140.541 9.74811C140.645 9.8305 140.713 9.95093 140.729 10.0831C140.745 10.2152 140.708 10.3484 140.626 10.4534C140.58 10.5121 140.521 10.5598 140.454 10.5929C140.387 10.626 140.313 10.6437 140.238 10.6448ZM137.992 8.48867C138.757 9.01931 139.506 9.57011 140.238 10.1411C139.52 9.55332 138.777 9.00252 138.012 8.48867H137.992ZM129.85 4.52393C129.783 4.52267 129.716 4.50901 129.654 4.48363C127.817 3.71038 125.93 3.06074 124.007 2.53904C123.878 2.50551 123.767 2.42218 123.699 2.3073C123.666 2.24993 123.645 2.18658 123.636 2.12088C123.627 2.05518 123.632 1.98843 123.649 1.92443C123.683 1.79564 123.767 1.68568 123.882 1.61864C123.998 1.5516 124.135 1.53294 124.264 1.56675C126.234 2.09722 128.166 2.76036 130.047 3.55164C130.157 3.59503 130.248 3.67577 130.305 3.7797C130.361 3.88363 130.379 4.00412 130.356 4.12007C130.332 4.23602 130.269 4.34002 130.177 4.41386C130.084 4.4877 129.969 4.52667 129.85 4.52393ZM126.712 2.83124C127.777 3.18724 128.823 3.58355 129.85 4.02015C128.843 3.5869 127.795 3.21411 126.732 2.83124H126.712ZM100.243 2.64988C100.13 2.65377 100.018 2.61904 99.9265 2.55135C99.835 2.48366 99.7691 2.38698 99.7396 2.27708C99.7033 2.14849 99.7197 2.01077 99.785 1.89421C99.818 1.83639 99.8621 1.78569 99.9149 1.74505C99.9676 1.70441 100.028 1.67463 100.092 1.65743C102.055 1.11195 104.053 0.699589 106.072 0.423172C106.204 0.404487 106.339 0.439101 106.445 0.519402C106.552 0.599704 106.623 0.719118 106.641 0.851383C106.65 0.917095 106.645 0.983851 106.628 1.04782C106.611 1.11179 106.581 1.17172 106.541 1.22418C106.501 1.27719 106.451 1.32183 106.394 1.35555C106.337 1.38926 106.274 1.41139 106.208 1.42065C104.234 1.69354 102.28 2.09745 100.359 2.62972C100.328 2.63889 100.296 2.64563 100.264 2.64988H100.243ZM106.158 0.921912C104.747 1.11839 103.337 1.38035 101.946 1.7078C103.357 1.38035 104.767 1.11839 106.178 0.921912H106.158ZM118.213 1.38035H118.148C116.226 1.13216 114.291 1.00764 112.354 1.00756H112.188C112.054 1.00756 111.926 0.954481 111.832 0.860004C111.737 0.765527 111.684 0.637389 111.684 0.503778C111.684 0.370168 111.737 0.24203 111.832 0.147553C111.926 0.0530761 112.054 0 112.188 0H112.354C114.335 0.00110396 116.314 0.128986 118.279 0.382869C118.412 0.391553 118.537 0.452961 118.625 0.553579C118.714 0.654197 118.758 0.785784 118.75 0.919394C118.741 1.053 118.68 1.17769 118.579 1.26603C118.478 1.35437 118.347 1.39911 118.213 1.39043V1.38035Z" fill="#9AA6A5"/>
<path d="M157.499 47.2393C156.92 47.2393 156.354 47.0676 155.873 46.746C155.392 46.4244 155.017 45.9673 154.795 45.4324C154.574 44.8976 154.516 44.3091 154.629 43.7413C154.741 43.1735 155.02 42.652 155.43 42.2427C155.839 41.8333 156.36 41.5546 156.928 41.4416C157.496 41.3287 158.084 41.3866 158.619 41.6082C159.154 41.8297 159.611 42.2049 159.933 42.6862C160.255 43.1675 160.426 43.7334 160.426 44.3123C160.425 45.0882 160.116 45.8319 159.567 46.3805C159.019 46.9291 158.275 47.2379 157.499 47.2393ZM157.499 41.8892C157.02 41.8892 156.551 42.0313 156.153 42.2975C155.754 42.5638 155.444 42.9422 155.26 43.385C155.077 43.8278 155.029 44.315 155.123 44.7851C155.216 45.2551 155.447 45.6869 155.786 46.0258C156.125 46.3647 156.556 46.5954 157.026 46.6889C157.497 46.7824 157.984 46.7345 158.427 46.5511C158.869 46.3676 159.248 46.0571 159.514 45.6586C159.78 45.2601 159.922 44.7916 159.922 44.3123C159.921 43.6701 159.665 43.0545 159.211 42.6004C158.757 42.1462 158.141 41.8905 157.499 41.8892Z" fill="#9AA6A5"/>
<path d="M104.803 63.0277H92.7676V75.068H104.803V63.0277Z" fill="#E4E9EA"/>
<path d="M77.0247 90.8111H64.9844V102.846H77.0247V90.8111Z" fill="#E4E9EA"/>
<path d="M77.0247 63.0277H64.9844V75.068H77.0247V63.0277Z" fill="#E4E9EA"/>
<path d="M89.0609 69.3401H83.5193C83.3189 69.3401 83.1267 69.2604 82.985 69.1187C82.8433 68.977 82.7637 68.7848 82.7637 68.5844C82.7637 68.384 82.8433 68.1918 82.985 68.0501C83.1267 67.9083 83.3189 67.8287 83.5193 67.8287H89.0609C89.2613 67.8287 89.4535 67.9083 89.5952 68.0501C89.737 68.1918 89.8166 68.384 89.8166 68.5844C89.8166 68.7848 89.737 68.977 89.5952 69.1187C89.4535 69.2604 89.2613 69.3401 89.0609 69.3401Z" fill="#9AA6A5"/>
<path d="M83.503 63.7834H81.6541C81.4537 63.7834 81.2615 63.7038 81.1198 63.562C80.9781 63.4203 80.8984 63.2281 80.8984 63.0277C80.8984 62.8273 80.9781 62.6351 81.1198 62.4934C81.2615 62.3517 81.4537 62.272 81.6541 62.272H83.503C83.7034 62.272 83.8956 62.3517 84.0373 62.4934C84.179 62.6351 84.2586 62.8273 84.2586 63.0277C84.2586 63.2281 84.179 63.4203 84.0373 63.562C83.8956 63.7038 83.7034 63.7834 83.503 63.7834Z" fill="#9AA6A5"/>
<path d="M70.5408 84.1562C70.3404 84.1562 70.1482 84.0766 70.0065 83.9349C69.8648 83.7931 69.7852 83.601 69.7852 83.4005V81.5466C69.7852 81.3462 69.8648 81.154 70.0065 81.0123C70.1482 80.8706 70.3404 80.791 70.5408 80.791C70.7412 80.791 70.9335 80.8706 71.0752 81.0123C71.2169 81.154 71.2965 81.3462 71.2965 81.5466V83.4005C71.2965 83.601 71.2169 83.7931 71.0752 83.9349C70.9335 84.0766 70.7412 84.1562 70.5408 84.1562Z" fill="#9AA6A5"/>
<path d="M64.9842 87.8489C64.7838 87.8489 64.5916 87.7692 64.4498 87.6275C64.3081 87.4858 64.2285 87.2936 64.2285 87.0932V81.5516C64.2285 81.3512 64.3081 81.159 64.4498 81.0173C64.5916 80.8756 64.7838 80.796 64.9842 80.796C65.1846 80.796 65.3768 80.8756 65.5185 81.0173C65.6602 81.159 65.7399 81.3512 65.7399 81.5516V87.0932C65.7399 87.2936 65.6602 87.4858 65.5185 87.6275C65.3768 87.7692 65.1846 87.8489 64.9842 87.8489Z" fill="#9AA6A5"/>
<path d="M68.7026 87.8489H64.9998C64.7994 87.8489 64.6072 87.7692 64.4655 87.6275C64.3238 87.4858 64.2441 87.2936 64.2441 87.0932C64.2441 86.8928 64.3238 86.7006 64.4655 86.5588C64.6072 86.4171 64.7994 86.3375 64.9998 86.3375H68.7026C68.903 86.3375 69.0952 86.4171 69.2369 86.5588C69.3786 86.7006 69.4583 86.8928 69.4583 87.0932C69.4583 87.2936 69.3786 87.4858 69.2369 87.6275C69.0952 87.7692 68.903 87.8489 68.7026 87.8489Z" fill="#9AA6A5"/>
<path d="M81.6557 87.8489H73.3182C73.1178 87.8489 72.9255 87.7692 72.7838 87.6275C72.6421 87.4858 72.5625 87.2936 72.5625 87.0932C72.5625 86.8928 72.6421 86.7006 72.7838 86.5588C72.9255 86.4171 73.1178 86.3375 73.3182 86.3375H81.6557C81.8561 86.3375 82.0483 86.4171 82.19 86.5588C82.3317 86.7006 82.4114 86.8928 82.4114 87.0932C82.4114 87.2936 82.3317 87.4858 82.19 87.6275C82.0483 87.7692 81.8561 87.8489 81.6557 87.8489Z" fill="#9AA6A5"/>
<path d="M83.503 73.9698H81.6541C81.4537 73.9698 81.2615 73.8901 81.1198 73.7484C80.9781 73.6067 80.8984 73.4145 80.8984 73.2141C80.8984 73.0137 80.9781 72.8215 81.1198 72.6798C81.2615 72.538 81.4537 72.4584 81.6541 72.4584H83.503C83.7034 72.4584 83.8956 72.538 84.0373 72.6798C84.179 72.8215 84.2586 73.0137 84.2586 73.2141C84.2586 73.4145 84.179 73.6067 84.0373 73.7484C83.8956 73.8901 83.7034 73.9698 83.503 73.9698Z" fill="#9AA6A5"/>
<path d="M81.6541 90.6398C81.4537 90.6398 81.2615 90.5602 81.1198 90.4185C80.9781 90.2768 80.8984 90.0846 80.8984 89.8842V81.5466C80.8984 81.3462 80.9781 81.154 81.1198 81.0123C81.2615 80.8706 81.4537 80.791 81.6541 80.791C81.8545 80.791 82.0467 80.8706 82.1884 81.0123C82.3302 81.154 82.4098 81.3462 82.4098 81.5466V89.864C82.4125 89.9649 82.3949 90.0654 82.3581 90.1594C82.3214 90.2534 82.2661 90.3391 82.1957 90.4114C82.1253 90.4837 82.041 90.5412 81.948 90.5804C81.855 90.6197 81.7551 90.6399 81.6541 90.6398Z" fill="#9AA6A5"/>
<path d="M104.803 103.602H81.6287C81.4283 103.602 81.2361 103.522 81.0944 103.381C80.9527 103.239 80.873 103.047 80.873 102.846C80.873 102.646 80.9527 102.454 81.0944 102.312C81.2361 102.17 81.4283 102.091 81.6287 102.091H104.803C105.003 102.091 105.195 102.17 105.337 102.312C105.479 102.454 105.558 102.646 105.558 102.846C105.558 103.047 105.479 103.239 105.337 103.381C105.195 103.522 105.003 103.602 104.803 103.602Z" fill="#9AA6A5"/>
<path d="M91.8416 103.602C91.6412 103.602 91.449 103.522 91.3073 103.381C91.1656 103.239 91.0859 103.047 91.0859 102.846V99.1436C91.0859 98.9432 91.1656 98.751 91.3073 98.6093C91.449 98.4675 91.6412 98.3879 91.8416 98.3879C92.042 98.3879 92.2342 98.4675 92.3759 98.6093C92.5177 98.751 92.5973 98.9432 92.5973 99.1436V102.846C92.5973 103.047 92.5177 103.239 92.3759 103.381C92.2342 103.522 92.042 103.602 91.8416 103.602Z" fill="#9AA6A5"/>
<path d="M104.803 103.602C104.602 103.602 104.41 103.522 104.268 103.381C104.126 103.239 104.047 103.047 104.047 102.846V99.1436C104.047 98.9432 104.126 98.751 104.268 98.6093C104.41 98.4675 104.602 98.3879 104.803 98.3879C105.003 98.3879 105.195 98.4675 105.337 98.6093C105.479 98.751 105.558 98.9432 105.558 99.1436V102.846C105.558 103.047 105.479 103.239 105.337 103.381C105.195 103.522 105.003 103.602 104.803 103.602Z" fill="#9AA6A5"/>
<path d="M77.0245 75.8237H64.9842C64.7838 75.8237 64.5916 75.7441 64.4498 75.6024C64.3081 75.4606 64.2285 75.2684 64.2285 75.068V63.0277C64.2285 62.8273 64.3081 62.6351 64.4498 62.4934C64.5916 62.3517 64.7838 62.272 64.9842 62.272H77.0245C77.2249 62.272 77.4171 62.3517 77.5588 62.4934C77.7005 62.6351 77.7801 62.8273 77.7801 63.0277V75.068C77.7788 75.268 77.6988 75.4595 77.5574 75.6009C77.4159 75.7423 77.2245 75.8224 77.0245 75.8237ZM65.7399 74.3123H76.2587V63.7834H65.7298L65.7399 74.3123Z" fill="#9AA6A5"/>
<path d="M104.803 75.8237H92.7674C92.567 75.8237 92.3748 75.7441 92.2331 75.6024C92.0913 75.4606 92.0117 75.2684 92.0117 75.068V63.0277C92.0117 62.8273 92.0913 62.6351 92.2331 62.4934C92.3748 62.3517 92.567 62.272 92.7674 62.272H104.803C105.003 62.272 105.195 62.3517 105.337 62.4934C105.479 62.6351 105.558 62.8273 105.558 63.0277V75.068C105.558 75.2684 105.479 75.4606 105.337 75.6024C105.195 75.7441 105.003 75.8237 104.803 75.8237ZM93.5231 74.3123H104.047V63.7834H93.5231V74.3123Z" fill="#9AA6A5"/>
<path d="M77.0245 103.602H64.9842C64.7838 103.602 64.5916 103.522 64.4498 103.381C64.3081 103.239 64.2285 103.047 64.2285 102.846V90.8111C64.2285 90.6107 64.3081 90.4185 64.4498 90.2767C64.5916 90.135 64.7838 90.0554 64.9842 90.0554H77.0245C77.2249 90.0554 77.4171 90.135 77.5588 90.2767C77.7005 90.4185 77.7801 90.6107 77.7801 90.8111V102.846C77.7801 103.047 77.7005 103.239 77.5588 103.381C77.4171 103.522 77.2249 103.602 77.0245 103.602ZM65.7399 102.091H76.2587V91.5668H65.7298L65.7399 102.091Z" fill="#9AA6A5"/>
<path d="M81.6553 82.3073H75.1717C74.9713 82.3073 74.7791 82.2277 74.6373 82.086C74.4956 81.9443 74.416 81.752 74.416 81.5516C74.416 81.3512 74.4956 81.159 74.6373 81.0173C74.7791 80.8756 74.9713 80.796 75.1717 80.796H81.6553C81.8557 80.796 82.0479 80.8756 82.1897 81.0173C82.3314 81.159 82.411 81.3512 82.411 81.5516C82.411 81.752 82.3314 81.9443 82.1897 82.086C82.0479 82.2277 81.8557 82.3073 81.6553 82.3073Z" fill="#9AA6A5"/>
<path d="M73.3175 72.1158H68.7029C68.5025 72.1158 68.3103 72.0362 68.1686 71.8945C68.0269 71.7528 67.9473 71.5606 67.9473 71.3602V66.7305C67.9473 66.53 68.0269 66.3378 68.1686 66.1961C68.3103 66.0544 68.5025 65.9748 68.7029 65.9748H73.3327C73.5331 65.9748 73.7253 66.0544 73.867 66.1961C74.0087 66.3378 74.0883 66.53 74.0883 66.7305V71.3602C74.0883 71.4607 74.0683 71.5602 74.0294 71.6529C73.9905 71.7456 73.9335 71.8296 73.8617 71.8999C73.7899 71.9703 73.7048 72.0257 73.6114 72.0627C73.5179 72.0998 73.418 72.1179 73.3175 72.1158ZM69.4435 70.6045H72.5619V67.4861H69.4435V70.6045Z" fill="#9AA6A5"/>
<path d="M101.1 72.1158H96.4705C96.2701 72.1158 96.0779 72.0362 95.9362 71.8945C95.7945 71.7528 95.7148 71.5606 95.7148 71.3602V66.7305C95.7148 66.53 95.7945 66.3378 95.9362 66.1961C96.0779 66.0544 96.2701 65.9748 96.4705 65.9748H101.1C101.301 65.9748 101.493 66.0544 101.635 66.1961C101.776 66.3378 101.856 66.53 101.856 66.7305V71.3602C101.856 71.5606 101.776 71.7528 101.635 71.8945C101.493 72.0362 101.301 72.1158 101.1 72.1158ZM97.2262 70.6045H100.345V67.4861H97.2262V70.6045Z" fill="#9AA6A5"/>
<path d="M73.3175 99.8992H68.7029C68.5025 99.8992 68.3103 99.8196 68.1686 99.6779C68.0269 99.5362 67.9473 99.344 67.9473 99.1436V94.5138C67.9473 94.3134 68.0269 94.1212 68.1686 93.9795C68.3103 93.8378 68.5025 93.7582 68.7029 93.7582H73.3327C73.5331 93.7582 73.7253 93.8378 73.867 93.9795C74.0087 94.1212 74.0883 94.3134 74.0883 94.5138V99.1436C74.0883 99.2441 74.0683 99.3436 74.0294 99.4363C73.9905 99.529 73.9335 99.6129 73.8617 99.6833C73.7899 99.7537 73.7048 99.809 73.6114 99.8461C73.5179 99.8832 73.418 99.9012 73.3175 99.8992ZM69.4435 98.3879H72.5619V95.2695H69.4435V98.3879Z" fill="#9AA6A5"/>
<path d="M89.0604 73.9698C88.8599 73.9698 88.6677 73.8902 88.526 73.7484C88.3843 73.6067 88.3047 73.4145 88.3047 73.2141V63.0277C88.3047 62.8273 88.3843 62.6351 88.526 62.4934C88.6677 62.3517 88.8599 62.272 89.0604 62.272C89.2608 62.272 89.453 62.3517 89.5947 62.4934C89.7364 62.6351 89.816 62.8273 89.816 63.0277V73.2393C89.8095 73.4353 89.727 73.6211 89.586 73.7574C89.445 73.8937 89.2565 73.9699 89.0604 73.9698Z" fill="#9AA6A5"/>
<path d="M104.803 90.6398C104.602 90.6398 104.41 90.5602 104.268 90.4185C104.126 90.2768 104.047 90.0846 104.047 89.8842V81.5466C104.047 81.3462 104.126 81.154 104.268 81.0123C104.41 80.8706 104.602 80.791 104.803 80.791C105.003 80.791 105.195 80.8706 105.337 81.0123C105.479 81.154 105.558 81.3462 105.558 81.5466V89.864C105.561 89.9649 105.543 90.0654 105.507 90.1594C105.47 90.2534 105.415 90.3391 105.344 90.4114C105.274 90.4837 105.189 90.5412 105.096 90.5804C105.003 90.6197 104.903 90.6399 104.803 90.6398Z" fill="#9AA6A5"/>
<path d="M89.0608 81.3753H86.285C86.0845 81.3753 85.8923 81.2957 85.7506 81.154C85.6089 81.0123 85.5293 80.8201 85.5293 80.6197C85.5293 80.4193 85.6089 80.2271 85.7506 80.0853C85.8923 79.9436 86.0845 79.864 86.285 79.864H89.0608C89.2612 79.864 89.4534 79.9436 89.5951 80.0853C89.7368 80.2271 89.8165 80.4193 89.8165 80.6197C89.8165 80.8201 89.7368 81.0123 89.5951 81.154C89.4534 81.2957 89.2612 81.3753 89.0608 81.3753Z" fill="#9AA6A5"/>
<path d="M89.9881 90.6399C89.7877 90.6399 89.5955 90.5602 89.4537 90.4185C89.312 90.2768 89.2324 90.0846 89.2324 89.8842V83.4006C89.2324 83.2001 89.312 83.0079 89.4537 82.8662C89.5955 82.7245 89.7877 82.6449 89.9881 82.6449C90.1885 82.6449 90.3807 82.7245 90.5224 82.8662C90.6641 83.0079 90.7438 83.2001 90.7438 83.4006V89.864C90.7464 89.965 90.7289 90.0654 90.6921 90.1594C90.6554 90.2534 90.6001 90.3391 90.5297 90.4114C90.4592 90.4838 90.375 90.5412 90.282 90.5805C90.189 90.6197 90.089 90.6399 89.9881 90.6399Z" fill="#9AA6A5"/>
<path d="M92.7686 85.0831H86.285C86.0845 85.0831 85.8923 85.0035 85.7506 84.8618C85.6089 84.7201 85.5293 84.5279 85.5293 84.3274C85.5293 84.127 85.6089 83.9348 85.7506 83.7931C85.8923 83.6514 86.0845 83.5718 86.285 83.5718H92.7686C92.969 83.5718 93.1612 83.6514 93.3029 83.7931C93.4446 83.9348 93.5243 84.127 93.5243 84.3274C93.5243 84.5279 93.4446 84.7201 93.3029 84.8618C93.1612 85.0035 92.969 85.0831 92.7686 85.0831Z" fill="#9AA6A5"/>
<path d="M81.6541 98.0453C81.4537 98.0453 81.2615 97.9657 81.1198 97.824C80.9781 97.6823 80.8984 97.4901 80.8984 97.2897V94.5138C80.8984 94.3134 80.9781 94.1212 81.1198 93.9795C81.2615 93.8378 81.4537 93.7582 81.6541 93.7582C81.8545 93.7582 82.0467 93.8378 82.1884 93.9795C82.3302 94.1212 82.4098 94.3134 82.4098 94.5138V97.2897C82.4098 97.4901 82.3302 97.6823 82.1884 97.824C82.0467 97.9657 81.8545 98.0453 81.6541 98.0453Z" fill="#9AA6A5"/>
<path d="M89.9866 95.2695H81.6541C81.4537 95.2695 81.2615 95.1899 81.1198 95.0482C80.9781 94.9065 80.8984 94.7143 80.8984 94.5138C80.8984 94.3134 80.9781 94.1212 81.1198 93.9795C81.2615 93.8378 81.4537 93.7582 81.6541 93.7582H89.9866C90.187 93.7582 90.3792 93.8378 90.5209 93.9795C90.6627 94.1212 90.7423 94.3134 90.7423 94.5138C90.7423 94.7143 90.6627 94.9065 90.5209 95.0482C90.3792 95.1899 90.187 95.2695 89.9866 95.2695Z" fill="#9AA6A5"/>
<path d="M86.285 98.0453C86.0845 98.0453 85.8923 97.9657 85.7506 97.824C85.6089 97.6823 85.5293 97.4901 85.5293 97.2897V94.5138C85.5293 94.3134 85.6089 94.1212 85.7506 93.9795C85.8923 93.8378 86.0845 93.7582 86.285 93.7582C86.4854 93.7582 86.6776 93.8378 86.8193 93.9795C86.961 94.1212 87.0406 94.3134 87.0406 94.5138V97.2897C87.0406 97.4901 86.961 97.6823 86.8193 97.824C86.6776 97.9657 86.4854 98.0453 86.285 98.0453Z" fill="#9AA6A5"/>
<path d="M99.2475 90.6398H95.5447C95.3443 90.6398 95.1521 90.5602 95.0104 90.4185C94.8687 90.2768 94.7891 90.0846 94.7891 89.8841C94.7891 89.6837 94.8687 89.4915 95.0104 89.3498C95.1521 89.2081 95.3443 89.1285 95.5447 89.1285H99.2475C99.4479 89.1285 99.6401 89.2081 99.7818 89.3498C99.9236 89.4915 100.003 89.6837 100.003 89.8841C100.003 90.0846 99.9236 90.2768 99.7818 90.4185C99.6401 90.5602 99.4479 90.6398 99.2475 90.6398Z" fill="#9AA6A5"/>
<path d="M96.4705 98.0453C96.2701 98.0453 96.0779 97.9657 95.9362 97.824C95.7945 97.6823 95.7148 97.4901 95.7148 97.2897V94.5138C95.7148 94.3134 95.7945 94.1212 95.9362 93.9795C96.0779 93.8378 96.2701 93.7582 96.4705 93.7582C96.6709 93.7582 96.8631 93.8378 97.0049 93.9795C97.1466 94.1212 97.2262 94.3134 97.2262 94.5138V97.2897C97.2262 97.4901 97.1466 97.6823 97.0049 97.824C96.8631 97.9657 96.6709 98.0453 96.4705 98.0453Z" fill="#9AA6A5"/>
<path d="M104.804 95.2695H101.101C100.901 95.2695 100.709 95.1899 100.567 95.0482C100.425 94.9065 100.346 94.7143 100.346 94.5138C100.346 94.3134 100.425 94.1212 100.567 93.9795C100.709 93.8378 100.901 93.7582 101.101 93.7582H104.804C105.005 93.7582 105.197 93.8378 105.338 93.9795C105.48 94.1212 105.56 94.3134 105.56 94.5138C105.56 94.7143 105.48 94.9065 105.338 95.0482C105.197 95.1899 105.005 95.2695 104.804 95.2695Z" fill="#9AA6A5"/>
<path d="M85.3569 90.6398H81.6541C81.4537 90.6398 81.2615 90.5602 81.1198 90.4185C80.9781 90.2768 80.8984 90.0846 80.8984 89.8841C80.8984 89.6837 80.9781 89.4915 81.1198 89.3498C81.2615 89.2081 81.4537 89.1285 81.6541 89.1285H85.3569C85.5573 89.1285 85.7495 89.2081 85.8912 89.3498C86.0329 89.4915 86.1125 89.6837 86.1125 89.8841C86.1125 90.0846 86.0329 90.2768 85.8912 90.4185C85.7495 90.5602 85.5573 90.6398 85.3569 90.6398Z" fill="#9AA6A5"/>
<path d="M75.1717 84.1562C74.9713 84.1562 74.7791 84.0766 74.6373 83.9349C74.4956 83.7931 74.416 83.601 74.416 83.4005V81.5466C74.416 81.3462 74.4956 81.154 74.6373 81.0123C74.7791 80.8706 74.9713 80.791 75.1717 80.791C75.3721 80.791 75.5643 80.8706 75.706 81.0123C75.8477 81.154 75.9274 81.3462 75.9274 81.5466V83.4005C75.9274 83.601 75.8477 83.7931 75.706 83.9349C75.5643 84.0766 75.3721 84.1562 75.1717 84.1562Z" fill="#9AA6A5"/>
<path d="M92.7674 85.0832C92.567 85.0832 92.3748 85.0035 92.2331 84.8618C92.0913 84.7201 92.0117 84.5279 92.0117 84.3275V81.5466C92.0117 81.3462 92.0913 81.154 92.2331 81.0123C92.3748 80.8706 92.567 80.791 92.7674 80.791C92.9678 80.791 93.16 80.8706 93.3017 81.0123C93.4434 81.154 93.5231 81.3462 93.5231 81.5466V84.3224C93.5237 84.4221 93.5047 84.5209 93.467 84.6132C93.4293 84.7054 93.3737 84.7893 93.3035 84.86C93.2333 84.9308 93.1498 84.9869 93.0577 85.0251C92.9657 85.0634 92.867 85.0832 92.7674 85.0832Z" fill="#9AA6A5"/>
<path d="M59.4275 63.0226C59.2271 63.0226 59.0349 62.943 58.8932 62.8013C58.7515 62.6596 58.6719 62.4674 58.6719 62.267V57.471C58.6719 57.2706 58.7515 57.0784 58.8932 56.9367C59.0349 56.795 59.2271 56.7153 59.4275 56.7153H64.4653C64.6657 56.7153 64.858 56.795 64.9997 56.9367C65.1414 57.0784 65.221 57.2706 65.221 57.471C65.221 57.6714 65.1414 57.8636 64.9997 58.0053C64.858 58.1471 64.6657 58.2267 64.4653 58.2267H60.2034V62.2569C60.2048 62.3587 60.1856 62.4597 60.1469 62.5539C60.1083 62.6481 60.0511 62.7335 59.9786 62.8051C59.9061 62.8766 59.82 62.9327 59.7253 62.9701C59.6306 63.0075 59.5293 63.0254 59.4275 63.0226Z" fill="#9AA6A5"/>
<path d="M109.957 63.0227C109.756 63.0227 109.564 62.9431 109.423 62.8014C109.281 62.6596 109.201 62.4674 109.201 62.267V58.2368H104.939C104.739 58.2368 104.547 58.1572 104.405 58.0155C104.263 57.8738 104.184 57.6815 104.184 57.4811C104.184 57.2807 104.263 57.0885 104.405 56.9468C104.547 56.8051 104.739 56.7255 104.939 56.7255H109.977C110.177 56.7255 110.37 56.8051 110.511 56.9468C110.653 57.0885 110.733 57.2807 110.733 57.4811V62.2771C110.731 62.3772 110.71 62.4761 110.67 62.5679C110.631 62.6598 110.573 62.7428 110.501 62.8121C110.429 62.8815 110.343 62.9358 110.25 62.972C110.157 63.0081 110.057 63.0254 109.957 63.0227Z" fill="#9AA6A5"/>
<path d="M64.4458 109.159H59.408C59.2076 109.159 59.0154 109.079 58.8737 108.937C58.732 108.796 58.6523 108.603 58.6523 108.403V103.607C58.6523 103.407 58.732 103.214 58.8737 103.073C59.0154 102.931 59.2076 102.851 59.408 102.851C59.6084 102.851 59.8006 102.931 59.9423 103.073C60.0841 103.214 60.1637 103.407 60.1637 103.607V107.637H64.4256C64.6261 107.637 64.8183 107.717 64.96 107.859C65.1017 108 65.1813 108.193 65.1813 108.393C65.1813 108.593 65.1017 108.786 64.96 108.927C64.8183 109.069 64.6261 109.149 64.4256 109.149L64.4458 109.159Z" fill="#9AA6A5"/>
<path d="M109.958 109.159H104.92C104.719 109.159 104.527 109.079 104.385 108.937C104.244 108.796 104.164 108.603 104.164 108.403C104.164 108.203 104.244 108.01 104.385 107.869C104.527 107.727 104.719 107.647 104.92 107.647H109.182V103.617C109.182 103.417 109.261 103.225 109.403 103.083C109.545 102.941 109.737 102.862 109.937 102.862C110.138 102.862 110.33 102.941 110.472 103.083C110.613 103.225 110.693 103.417 110.693 103.617V108.413C110.69 108.608 110.612 108.795 110.475 108.934C110.338 109.073 110.153 109.154 109.958 109.159Z" fill="#9AA6A5"/>
<path d="M109.957 78.9622H59.4275C59.2271 78.9622 59.0349 78.8826 58.8932 78.7409C58.7515 78.5992 58.6719 78.4069 58.6719 78.2065C58.6719 78.0061 58.7515 77.8139 58.8932 77.6722C59.0349 77.5305 59.2271 77.4509 59.4275 77.4509H109.957C110.157 77.4509 110.349 77.5305 110.491 77.6722C110.633 77.8139 110.712 78.0061 110.712 78.2065C110.712 78.4069 110.633 78.5992 110.491 78.7409C110.349 78.8826 110.157 78.9622 109.957 78.9622Z" fill="#9AA6A5"/>
<path d="M109.056 149.511H59.5245C55.9907 149.502 52.6043 148.094 50.1055 145.595C47.6067 143.097 46.1988 139.71 46.1895 136.176V30.3275C46.1935 26.7925 47.5998 23.4035 50.0999 20.9044C52.6 18.4053 55.9895 17.0002 59.5245 16.9975H109.056C112.59 17.0028 115.978 18.4088 118.478 20.9073C120.977 23.4059 122.384 26.7933 122.391 30.3275V136.176C122.397 138.67 121.698 141.115 120.376 143.229L120.341 143.28L120.29 143.355C119.736 144.242 119.07 145.055 118.31 145.773C115.832 148.179 112.51 149.521 109.056 149.511ZM59.5245 18.529C56.3903 18.5316 53.3852 19.7775 51.1686 21.9932C48.9519 24.2089 47.7048 27.2135 47.7008 30.3476V136.176C47.7101 139.309 48.9588 142.311 51.1741 144.527C53.3895 146.742 56.3915 147.991 59.5245 148H109.056C112.115 147.999 115.053 146.807 117.247 144.675C117.92 144.037 118.511 143.318 119.006 142.534L119.091 142.398C120.259 140.533 120.879 138.377 120.88 136.176V30.3275C120.874 27.1937 119.627 24.19 117.41 21.9745C115.194 19.7591 112.19 18.5128 109.056 18.5088L59.5245 18.529Z" fill="#9AA6A5"/>
<path d="M108.501 143.597H60.0733C58.9147 143.576 57.7735 143.312 56.7241 142.82C55.6747 142.329 54.7405 141.622 53.9826 140.746L54.0582 140.806C54.0086 140.771 53.9645 140.728 53.9272 140.68C52.7485 139.252 52.1037 137.459 52.1035 135.607V30.8816C52.1048 28.7678 52.9448 26.741 54.439 25.2458C55.9332 23.7507 57.9595 22.9095 60.0733 22.9068H74.3302C75.0997 22.9104 75.8583 23.0881 76.5493 23.4266C77.2403 23.7652 77.8457 24.2557 78.3201 24.8615C79.0333 25.7614 79.9407 26.4884 80.9745 26.9882C82.0083 27.488 83.1417 27.7476 84.2899 27.7476C85.4382 27.7476 86.5715 27.488 87.6053 26.9882C88.6391 26.4884 89.5465 25.7614 90.2597 24.8615C90.7326 24.2552 91.337 23.7643 92.0273 23.4257C92.7176 23.0871 93.4757 22.9097 94.2446 22.9068H108.501C110.616 22.9081 112.644 23.7488 114.139 25.244C115.634 26.7393 116.475 28.767 116.476 30.8816V135.622C116.474 137.473 115.829 139.266 114.653 140.695L114.607 140.741C113.848 141.619 112.911 142.328 111.859 142.82C110.807 143.312 109.663 143.577 108.501 143.597ZM55.101 139.738L55.1413 139.783C55.7583 140.497 56.5185 141.073 57.3725 141.474C58.2265 141.875 59.1552 142.092 60.0985 142.111H108.501C109.445 142.093 110.374 141.876 111.228 141.475C112.082 141.074 112.842 140.498 113.459 139.783L113.504 139.738C114.447 138.583 114.963 137.138 114.965 135.647V30.8816C114.962 29.1682 114.28 27.5258 113.069 26.3142C111.857 25.1026 110.215 24.4208 108.501 24.4181H94.2446C93.7031 24.4209 93.1694 24.5472 92.684 24.7873C92.1987 25.0273 91.7744 25.3749 91.4436 25.8035C90.5868 26.8856 89.4954 27.7589 88.2518 28.3576C87.0082 28.9562 85.6449 29.2646 84.2647 29.2594C82.8916 29.2611 81.5361 28.9509 80.3004 28.3522C79.0646 27.7535 77.981 26.8821 77.1312 25.8035C76.8004 25.3749 76.3761 25.0273 75.8908 24.7873C75.4054 24.5472 74.8717 24.4209 74.3302 24.4181H60.0733C58.3603 24.4208 56.7184 25.1028 55.5076 26.3145C54.2969 27.5262 53.6162 29.1687 53.6149 30.8816V135.622C53.6158 137.125 54.1414 138.581 55.101 139.738Z" fill="#9AA6A5"/>
</svg>
