<svg width="173" height="152" viewBox="0 0 173 152" fill="none" xmlns="http://www.w3.org/2000/svg">
<path d="M66.3996 82.0571C64.0118 82.0481 61.7247 81.0936 60.0389 79.4024C58.3531 77.7113 57.4058 75.4212 57.4043 73.0334V68.9709C57.4043 68.7446 57.4942 68.5275 57.6543 68.3675C57.8143 68.2074 58.0314 68.1175 58.2577 68.1175H74.5814C74.8077 68.1175 75.0248 68.2074 75.1848 68.3675C75.3449 68.5275 75.4348 68.7446 75.4348 68.9709V73.0504C75.4288 75.4422 74.474 77.7339 72.7801 79.4225C71.0862 81.1111 68.7915 82.0587 66.3996 82.0571ZM59.1112 69.8073V73.0334C59.0839 74.0103 59.2528 74.9827 59.6078 75.8932C59.9628 76.8038 60.4968 77.6339 61.1781 78.3345C61.8595 79.0351 62.6744 79.592 63.5746 79.9723C64.4749 80.3526 65.4423 80.5485 66.4196 80.5485C67.3968 80.5485 68.3642 80.3526 69.2645 79.9723C70.1647 79.592 70.9796 79.0351 71.661 78.3345C72.3423 77.6339 72.8763 76.8038 73.2313 75.8932C73.5863 74.9827 73.7552 74.0103 73.7279 73.0334V69.8073H59.1112Z" fill="#9AA6A5"/>
<path d="M74.558 93.4365C74.0218 93.4365 73.4909 93.5422 72.9955 93.7475C72.5002 93.9529 72.0503 94.2539 71.6714 94.6333C71.2925 95.0127 70.9921 95.4631 70.7874 95.9587C70.5827 96.4543 70.4778 96.9854 70.4785 97.5216V126.084H99.0463V93.4365H74.558Z" fill="#E4E9EA"/>
<path d="M123.53 93.4365H99.0645V126.084H127.627V97.5217C127.627 96.984 127.522 96.4515 127.316 95.9548C127.11 95.4581 126.808 95.0069 126.428 94.6273C126.047 94.2477 125.595 93.947 125.098 93.7427C124.6 93.5383 124.068 93.4342 123.53 93.4365Z" fill="#E4E9EA"/>
<path d="M129.652 19.7269H68.4369C66.1839 19.7269 64.3574 21.5534 64.3574 23.8064V44.2152C64.3574 46.4682 66.1839 48.2947 68.4369 48.2947H129.652C131.905 48.2947 133.731 46.4682 133.731 44.2152V23.8064C133.731 21.5534 131.905 19.7269 129.652 19.7269Z" fill="#E4E9EA"/>
<path d="M98.569 144.364C133.307 144.364 161.468 141.19 161.468 137.275C161.468 133.36 133.307 130.186 98.569 130.186C63.8308 130.186 35.6699 133.36 35.6699 137.275C35.6699 141.19 63.8308 144.364 98.569 144.364Z" fill="#E4E9EA"/>
<path d="M166.646 56.2033C166.437 56.2033 166.235 56.12 166.087 55.9717C165.939 55.8233 165.855 55.6222 165.855 55.4124V45.5067C165.855 45.297 165.939 45.0958 166.087 44.9475C166.235 44.7992 166.437 44.7159 166.646 44.7159C166.856 44.7159 167.057 44.7992 167.206 44.9475C167.354 45.0958 167.437 45.297 167.437 45.5067V55.4124C167.437 55.6222 167.354 55.8233 167.206 55.9717C167.057 56.12 166.856 56.2033 166.646 56.2033Z" fill="#9AA7A6"/>
<path d="M171.601 51.2534H161.701C161.491 51.2534 161.29 51.1701 161.142 51.0218C160.993 50.8735 160.91 50.6723 160.91 50.4626C160.91 50.2528 160.993 50.0516 161.142 49.9033C161.29 49.755 161.491 49.6717 161.701 49.6717H171.601C171.811 49.6717 172.012 49.755 172.16 49.9033C172.309 50.0516 172.392 50.2528 172.392 50.4626C172.392 50.6723 172.309 50.8735 172.16 51.0218C172.012 51.1701 171.811 51.2534 171.601 51.2534Z" fill="#9AA7A6"/>
<path d="M31.3455 114.562C31.1353 114.561 30.9341 114.476 30.786 114.327C30.6378 114.178 30.5547 113.976 30.5547 113.766V103.866C30.5547 103.656 30.638 103.455 30.7863 103.306C30.9346 103.158 31.1358 103.075 31.3455 103.075C31.5553 103.075 31.7565 103.158 31.9048 103.306C32.0531 103.455 32.1364 103.656 32.1364 103.866V113.766C32.1364 113.976 32.0533 114.178 31.9051 114.327C31.757 114.476 31.5558 114.561 31.3455 114.562Z" fill="#9AA7A6"/>
<path d="M36.2963 109.606H26.3963C26.1866 109.606 25.9854 109.523 25.8371 109.375C25.6888 109.226 25.6055 109.025 25.6055 108.816C25.6055 108.606 25.6888 108.405 25.8371 108.256C25.9854 108.108 26.1866 108.025 26.3963 108.025H36.2963C36.5061 108.025 36.7072 108.108 36.8555 108.256C37.0039 108.405 37.0872 108.606 37.0872 108.816C37.0872 109.025 37.0039 109.226 36.8555 109.375C36.7072 109.523 36.5061 109.606 36.2963 109.606Z" fill="#9AA7A6"/>
<path d="M17.1156 44.1982C16.9798 44.1982 16.8495 44.1442 16.7535 44.0482C16.6575 43.9522 16.6035 43.8219 16.6035 43.6861V39.6009C16.6035 39.4651 16.6575 39.3349 16.7535 39.2389C16.8495 39.1428 16.9798 39.0889 17.1156 39.0889C17.2514 39.0889 17.3816 39.1428 17.4777 39.2389C17.5737 39.3349 17.6277 39.4651 17.6277 39.6009V43.6861C17.6277 43.8219 17.5737 43.9522 17.4777 44.0482C17.3816 44.1442 17.2514 44.1982 17.1156 44.1982Z" fill="#9AA7A6"/>
<path d="M19.1578 42.1556H15.0726C14.9368 42.1556 14.8066 42.1017 14.7105 42.0056C14.6145 41.9096 14.5605 41.7793 14.5605 41.6435C14.5605 41.5077 14.6145 41.3775 14.7105 41.2814C14.8066 41.1854 14.9368 41.1315 15.0726 41.1315H19.1578C19.2936 41.1315 19.4238 41.1854 19.5199 41.2814C19.6159 41.3775 19.6699 41.5077 19.6699 41.6435C19.6699 41.7793 19.6159 41.9096 19.5199 42.0056C19.4238 42.1017 19.2936 42.1556 19.1578 42.1556Z" fill="#9AA7A6"/>
<path d="M166.139 98.5572C166.003 98.5572 165.873 98.5032 165.777 98.4072C165.681 98.3111 165.627 98.1809 165.627 98.0451V93.9485C165.627 93.8127 165.681 93.6825 165.777 93.5864C165.873 93.4904 166.003 93.4365 166.139 93.4365C166.275 93.4365 166.405 93.4904 166.501 93.5864C166.597 93.6825 166.651 93.8127 166.651 93.9485V98.0337C166.653 98.1019 166.64 98.1697 166.615 98.2332C166.59 98.2966 166.553 98.3544 166.505 98.4032C166.457 98.4519 166.401 98.4907 166.338 98.5171C166.275 98.5436 166.207 98.5572 166.139 98.5572Z" fill="#9AA7A6"/>
<path d="M168.181 96.5031H164.096C163.96 96.5031 163.83 96.4491 163.734 96.3531C163.638 96.2571 163.584 96.1268 163.584 95.991C163.584 95.8552 163.638 95.725 163.734 95.6289C163.83 95.5329 163.96 95.4789 164.096 95.4789H168.181C168.317 95.4789 168.447 95.5329 168.543 95.6289C168.639 95.725 168.693 95.8552 168.693 95.991C168.693 96.1268 168.639 96.2571 168.543 96.3531C168.447 96.4491 168.317 96.5031 168.181 96.5031Z" fill="#9AA7A6"/>
<path d="M148.018 152C147.882 152 147.752 151.946 147.656 151.85C147.56 151.754 147.506 151.624 147.506 151.488V147.403C147.506 147.267 147.56 147.137 147.656 147.041C147.752 146.945 147.882 146.891 148.018 146.891C148.154 146.891 148.284 146.945 148.38 147.041C148.476 147.137 148.53 147.267 148.53 147.403V151.471C148.532 151.54 148.521 151.608 148.496 151.672C148.471 151.736 148.434 151.795 148.386 151.844C148.338 151.893 148.281 151.933 148.218 151.959C148.155 151.986 148.087 152 148.018 152Z" fill="#9AA7A6"/>
<path d="M150.06 149.957H145.975C145.839 149.957 145.709 149.904 145.613 149.807C145.517 149.711 145.463 149.581 145.463 149.445C145.463 149.31 145.517 149.179 145.613 149.083C145.709 148.987 145.839 148.933 145.975 148.933H150.06C150.196 148.933 150.326 148.987 150.422 149.083C150.518 149.179 150.572 149.31 150.572 149.445C150.572 149.581 150.518 149.711 150.422 149.807C150.326 149.904 150.196 149.957 150.06 149.957Z" fill="#9AA7A6"/>
<path d="M103.097 12.9506C102.238 12.9506 101.399 12.696 100.685 12.219C99.9713 11.742 99.4149 11.064 99.0863 10.2707C98.7577 9.47746 98.6718 8.60458 98.8393 7.76247C99.0068 6.92036 99.4202 6.14683 100.027 5.5397C100.634 4.93257 101.408 4.51911 102.25 4.35161C103.092 4.1841 103.965 4.27007 104.758 4.59864C105.552 4.92722 106.23 5.48365 106.707 6.19756C107.184 6.91146 107.438 7.75079 107.438 8.6094C107.438 9.76076 106.981 10.865 106.167 11.6791C105.353 12.4932 104.248 12.9506 103.097 12.9506ZM103.097 4.84284C102.351 4.84284 101.621 5.06423 101.001 5.47898C100.38 5.89373 99.8968 6.48321 99.6114 7.17283C99.3261 7.86245 99.2517 8.62121 99.3977 9.35311C99.5437 10.085 99.9036 10.7571 100.432 11.2845C100.96 11.8118 101.633 12.1706 102.365 12.3155C103.097 12.4604 103.855 12.3849 104.545 12.0985C105.234 11.8122 105.823 11.3278 106.236 10.7067C106.65 10.0856 106.87 9.35572 106.869 8.6094C106.868 7.60993 106.47 6.6519 105.762 5.9457C105.055 5.2395 104.097 4.84284 103.097 4.84284Z" fill="#9AA7A6"/>
<path d="M107.154 5.94098C107.106 5.9424 107.057 5.93171 107.014 5.90987C106.97 5.88803 106.932 5.85571 106.904 5.81581C106.863 5.75309 106.848 5.67664 106.863 5.60311C106.878 5.52958 106.921 5.46493 106.984 5.42322C107.934 4.77903 108.92 4.18828 109.937 3.65374C110.002 3.62901 110.074 3.62901 110.139 3.65374C110.204 3.67846 110.258 3.72619 110.29 3.78789C110.322 3.84959 110.331 3.92097 110.314 3.98852C110.297 4.05607 110.256 4.1151 110.198 4.15443C109.202 4.6808 108.235 5.26204 107.302 5.89546C107.257 5.92176 107.207 5.93733 107.154 5.94098Z" fill="#9AA7A6"/>
<path d="M154.652 21.9914C154.593 21.9919 154.535 21.9733 154.487 21.9385C154.439 21.9037 154.403 21.8545 154.385 21.798C153.661 19.662 152.707 17.6111 151.54 15.6816C151.503 15.6168 151.493 15.5401 151.512 15.468C151.531 15.3959 151.578 15.3341 151.642 15.2961C151.706 15.258 151.783 15.2467 151.855 15.2645C151.927 15.2824 151.99 15.328 152.029 15.3914C153.214 17.3562 154.183 19.4431 154.92 21.6159C154.943 21.6876 154.937 21.7656 154.903 21.8328C154.868 21.9 154.809 21.9509 154.737 21.9744C154.71 21.9849 154.681 21.9907 154.652 21.9914ZM147.671 10.4073C147.631 10.4079 147.592 10.4001 147.556 10.3844C147.52 10.3688 147.487 10.3455 147.46 10.3163C145.914 8.68197 144.197 7.21714 142.34 5.94662C142.307 5.92626 142.279 5.89945 142.256 5.8678C142.234 5.83615 142.219 5.80033 142.211 5.76252C142.203 5.72472 142.203 5.68573 142.211 5.64791C142.219 5.61009 142.234 5.57424 142.256 5.54254C142.278 5.51084 142.306 5.48395 142.339 5.46353C142.372 5.4431 142.408 5.42955 142.447 5.4237C142.485 5.41786 142.524 5.41985 142.561 5.42954C142.598 5.43923 142.633 5.45642 142.664 5.48007C144.563 6.76963 146.316 8.26146 147.893 9.92938C147.919 9.95534 147.94 9.98632 147.955 10.0205C147.969 10.0547 147.976 10.0914 147.976 10.1285C147.976 10.1656 147.969 10.2023 147.955 10.2365C147.94 10.2707 147.919 10.3017 147.893 10.3277C147.863 10.3557 147.829 10.3773 147.79 10.391C147.752 10.4048 147.711 10.4103 147.671 10.4073ZM136.491 2.80024C136.455 2.80871 136.418 2.80871 136.383 2.80024C134.288 1.96675 132.11 1.36204 129.885 0.996623C129.811 0.982735 129.745 0.940512 129.701 0.878908C129.658 0.817303 129.64 0.74116 129.652 0.666622C129.664 0.592926 129.705 0.527136 129.766 0.483481C129.827 0.439827 129.902 0.421819 129.976 0.433349C132.243 0.803918 134.462 1.4221 136.593 2.2768C136.628 2.29059 136.66 2.31111 136.686 2.33717C136.713 2.36323 136.735 2.39432 136.749 2.42867C136.764 2.46302 136.772 2.49995 136.773 2.53735C136.773 2.57475 136.766 2.61188 136.752 2.64662C136.727 2.69389 136.689 2.73326 136.643 2.76038C136.597 2.78749 136.544 2.80129 136.491 2.80024ZM116.418 1.66231C116.38 1.66717 116.342 1.66462 116.306 1.65481C116.27 1.645 116.235 1.62812 116.206 1.60514C116.145 1.55873 116.106 1.49026 116.096 1.41481C116.086 1.33936 116.107 1.26311 116.153 1.20282C116.2 1.14254 116.268 1.10315 116.344 1.09335C118.557 0.487429 120.829 0.121188 123.12 0.000933746C123.158 -0.00218466 123.196 0.00252729 123.232 0.0147768C123.268 0.0270262 123.302 0.0465523 123.33 0.0721499C123.358 0.0977475 123.381 0.128874 123.397 0.163599C123.412 0.198324 123.421 0.235912 123.422 0.274039C123.423 0.311405 123.417 0.348702 123.404 0.383802C123.391 0.418902 123.372 0.451114 123.346 0.478593C123.321 0.506073 123.29 0.528282 123.257 0.543949C123.223 0.559617 123.186 0.568434 123.148 0.569899C120.897 0.687261 118.665 1.04781 116.492 1.64524L116.418 1.66231Z" fill="#9AA7A6"/>
<path d="M156.302 32.0791C156.227 32.0791 156.154 32.0492 156.101 31.9958C156.048 31.9425 156.018 31.8701 156.018 31.7947C156.017 30.6676 155.956 29.5413 155.836 28.4207C155.832 28.3833 155.835 28.3455 155.845 28.3095C155.856 28.2734 155.873 28.2397 155.897 28.2104C155.92 28.1811 155.949 28.1566 155.982 28.1386C156.015 28.1205 156.052 28.109 156.089 28.1049C156.126 28.1008 156.164 28.1041 156.2 28.1146C156.236 28.1251 156.27 28.1426 156.299 28.1661C156.329 28.1896 156.353 28.2187 156.371 28.2516C156.389 28.2846 156.401 28.3208 156.405 28.3581C156.525 29.4921 156.585 30.6316 156.587 31.7719C156.59 31.8111 156.585 31.8506 156.572 31.8878C156.559 31.925 156.539 31.9591 156.512 31.9879C156.485 32.0168 156.453 32.0398 156.417 32.0555C156.381 32.0712 156.342 32.0793 156.302 32.0791Z" fill="#9AA7A6"/>
<path d="M50.8263 145.025C49.6883 145.025 48.5504 144.985 47.4125 144.911C47.3751 144.909 47.3385 144.899 47.3048 144.883C47.2711 144.866 47.241 144.843 47.2162 144.815C47.1913 144.787 47.1723 144.755 47.1601 144.719C47.1479 144.684 47.1428 144.647 47.1451 144.609C47.1523 144.534 47.1882 144.464 47.2453 144.414C47.3025 144.364 47.3766 144.339 47.4523 144.342C48.5902 144.416 49.7282 144.456 50.8661 144.456C50.9416 144.456 51.0139 144.486 51.0673 144.539C51.1206 144.592 51.1506 144.665 51.1506 144.74C51.1506 144.815 51.1206 144.888 51.0673 144.941C51.0139 144.995 50.9416 145.025 50.8661 145.025H50.8263Z" fill="#9AA7A6"/>
<path d="M40.2671 143.915H40.2102C37.8415 143.412 35.5122 142.739 33.2404 141.901C33.2051 141.888 33.1729 141.868 33.1454 141.842C33.118 141.816 33.096 141.785 33.0806 141.75C33.0653 141.716 33.0569 141.679 33.056 141.641C33.0551 141.604 33.0617 141.566 33.0754 141.531C33.1022 141.461 33.1555 141.405 33.2236 141.374C33.2918 141.343 33.3694 141.34 33.4396 141.366C35.6881 142.192 37.9925 142.858 40.3354 143.357C40.3719 143.365 40.4065 143.379 40.4372 143.4C40.4679 143.421 40.4941 143.448 40.5143 143.48C40.5344 143.511 40.5481 143.546 40.5545 143.583C40.561 143.619 40.56 143.657 40.5516 143.693C40.5382 143.758 40.5022 143.816 40.4501 143.856C40.398 143.897 40.3332 143.918 40.2671 143.915ZM26.777 138.954C26.7292 138.954 26.6822 138.943 26.6404 138.919C24.5121 137.75 22.4701 136.431 20.5297 134.971C20.4998 134.948 20.4747 134.92 20.4556 134.888C20.4366 134.856 20.4241 134.82 20.4188 134.784C20.4135 134.747 20.4156 134.709 20.4248 134.673C20.4341 134.636 20.4504 134.602 20.4728 134.573C20.4952 134.543 20.5233 134.518 20.5555 134.498C20.5876 134.479 20.6232 134.467 20.6602 134.462C20.6972 134.456 20.7348 134.458 20.771 134.468C20.8072 134.477 20.8412 134.493 20.8711 134.516C22.79 135.946 24.8072 137.238 26.9078 138.385C26.9412 138.402 26.9709 138.426 26.995 138.455C27.0192 138.484 27.0373 138.517 27.0484 138.553C27.0595 138.589 27.0634 138.627 27.0598 138.664C27.0562 138.702 27.0451 138.738 27.0273 138.772C27.007 138.822 26.9727 138.867 26.9284 138.899C26.8841 138.931 26.8316 138.95 26.777 138.954ZM15.244 130.334C15.1683 130.333 15.0953 130.305 15.0392 130.254C13.3262 128.545 11.7349 126.718 10.277 124.786C10.2317 124.726 10.2123 124.65 10.2229 124.575C10.2336 124.501 10.2735 124.433 10.3339 124.388C10.3942 124.343 10.4701 124.323 10.5448 124.334C10.6195 124.345 10.6869 124.385 10.7321 124.445C12.173 126.356 13.7473 128.162 15.4432 129.85C15.4698 129.877 15.491 129.908 15.5055 129.943C15.5199 129.977 15.5273 130.015 15.5273 130.052C15.5273 130.09 15.5199 130.127 15.5055 130.162C15.491 130.196 15.4698 130.228 15.4432 130.254C15.3891 130.305 15.318 130.333 15.244 130.334ZM6.59008 118.852C6.53914 118.851 6.48933 118.837 6.44547 118.811C6.40161 118.785 6.36519 118.748 6.33973 118.704C5.17695 116.584 4.16546 114.384 3.31283 112.121C3.29975 112.086 3.29373 112.049 3.29508 112.011C3.29644 111.974 3.30516 111.937 3.32075 111.903C3.33633 111.869 3.35848 111.838 3.38592 111.813C3.41336 111.787 3.44557 111.767 3.48068 111.754C3.5158 111.741 3.55315 111.735 3.59059 111.736C3.62804 111.738 3.66486 111.747 3.69893 111.762C3.73301 111.778 3.76369 111.8 3.78921 111.827C3.81472 111.855 3.83458 111.887 3.84766 111.922C4.68999 114.16 5.69009 116.335 6.84042 118.431C6.87532 118.498 6.88295 118.575 6.86172 118.647C6.84049 118.72 6.79205 118.781 6.72662 118.818C6.68468 118.841 6.63773 118.852 6.59008 118.852ZM1.53766 105.385C1.47287 105.385 1.40992 105.363 1.35923 105.323C1.30853 105.282 1.27313 105.226 1.25887 105.163C0.745281 102.799 0.399244 100.401 0.223352 97.9881C0.220737 97.9508 0.225506 97.9133 0.237386 97.8777C0.249267 97.8422 0.268026 97.8094 0.292594 97.7811C0.317161 97.7529 0.347055 97.7297 0.38057 97.713C0.414084 97.6963 0.45056 97.6863 0.487919 97.6837C0.525278 97.6811 0.562792 97.6859 0.598307 97.6977C0.633823 97.7096 0.666652 97.7284 0.694918 97.753C0.723183 97.7775 0.74633 97.8074 0.763043 97.8409C0.779756 97.8745 0.789703 97.9109 0.792318 97.9483C0.964819 100.335 1.30707 102.706 1.81646 105.043C1.83172 105.116 1.81759 105.193 1.77714 105.255C1.73668 105.318 1.67315 105.363 1.60025 105.379L1.53766 105.385ZM0.507835 91.0467C0.470453 91.0446 0.433871 91.035 0.400182 91.0187C0.366493 91.0023 0.33636 90.9795 0.311515 90.9515C0.286671 90.9235 0.267601 90.8908 0.255401 90.8554C0.243201 90.82 0.238111 90.7826 0.240421 90.7452C0.408696 88.3309 0.747121 85.9315 1.25318 83.5648C1.26956 83.4905 1.31455 83.4255 1.37842 83.384C1.44229 83.3425 1.51992 83.3277 1.59456 83.343C1.63125 83.351 1.66598 83.3663 1.69674 83.3878C1.72751 83.4094 1.7537 83.4368 1.7738 83.4686C1.79391 83.5003 1.80753 83.5357 1.81387 83.5728C1.82021 83.6098 1.81915 83.6477 1.81076 83.6843C1.30889 86.0225 0.974253 88.3935 0.809386 90.7793C0.807211 90.8167 0.797681 90.8533 0.781335 90.887C0.76499 90.9207 0.742155 90.9508 0.714139 90.9756C0.686123 91.0005 0.653477 91.0196 0.618076 91.0318C0.582674 91.044 0.545209 91.049 0.507835 91.0467ZM3.53473 76.9876H3.438C3.36802 76.9607 3.31117 76.9078 3.27935 76.8399C3.24753 76.772 3.24322 76.6945 3.26732 76.6235C4.11185 74.3545 5.11769 72.1489 6.27714 70.0235C6.3143 69.958 6.37541 69.9096 6.44759 69.8884C6.51977 69.8671 6.59739 69.8748 6.66404 69.9097C6.69699 69.9275 6.72607 69.9517 6.74963 69.9809C6.77319 70.01 6.79076 70.0435 6.80134 70.0795C6.81191 70.1154 6.81528 70.1531 6.81124 70.1904C6.80721 70.2276 6.79586 70.2637 6.77784 70.2966C5.63192 72.3964 4.63749 74.5754 3.80214 76.8169C3.77886 76.8706 3.7396 76.9158 3.68971 76.9463C3.63982 76.9768 3.58173 76.9913 3.52335 76.9876H3.53473Z" fill="#9AA7A6"/>
<path d="M10.431 64.3453C10.3692 64.3466 10.3089 64.3265 10.2603 64.2884C10.2304 64.266 10.2052 64.2379 10.1862 64.2057C10.1671 64.1736 10.1546 64.138 10.1493 64.101C10.1441 64.064 10.1461 64.0264 10.1554 63.9902C10.1647 63.954 10.181 63.92 10.2034 63.8901C10.8804 62.9798 11.603 62.0808 12.3484 61.216C12.3987 61.1595 12.4691 61.1249 12.5446 61.1196C12.62 61.1143 12.6946 61.1387 12.7523 61.1875C12.7788 61.2135 12.7999 61.2445 12.8143 61.2786C12.8286 61.3128 12.836 61.3496 12.836 61.3866C12.836 61.4237 12.8286 61.4605 12.8143 61.4946C12.7999 61.5288 12.7788 61.5598 12.7523 61.5858C12.0184 62.4449 11.3015 63.3325 10.6301 64.2315C10.6064 64.263 10.5765 64.2893 10.5423 64.3089C10.508 64.3284 10.4702 64.3408 10.431 64.3453Z" fill="#9AA7A6"/>
<path d="M148.018 126.937H50.0761C49.8498 126.937 49.6327 126.847 49.4726 126.687C49.3126 126.527 49.2227 126.31 49.2227 126.084V81.198C49.2227 80.9716 49.3126 80.7546 49.4726 80.5945C49.6327 80.4345 49.8498 80.3445 50.0761 80.3445C50.3025 80.3445 50.5195 80.4345 50.6796 80.5945C50.8396 80.7546 50.9296 80.9716 50.9296 81.198V125.23H147.164V81.198C147.164 80.9716 147.254 80.7546 147.414 80.5945C147.574 80.4345 147.791 80.3445 148.018 80.3445C148.244 80.3445 148.461 80.4345 148.621 80.5945C148.781 80.7546 148.871 80.9716 148.871 81.198V126.084C148.871 126.31 148.781 126.527 148.621 126.687C148.461 126.847 148.244 126.937 148.018 126.937Z" fill="#9AA6A5"/>
<path d="M139.854 69.8073H123.53C123.355 69.8057 123.185 69.7502 123.042 69.6484C122.9 69.5466 122.792 69.4035 122.734 69.2384L116.612 52.9261C116.565 52.7981 116.55 52.6606 116.568 52.5255C116.586 52.3903 116.636 52.2615 116.714 52.1498C116.792 52.0381 116.896 51.947 117.017 51.884C117.138 51.8211 117.272 51.7882 117.408 51.7882H131.695C131.853 51.7891 132.008 51.8336 132.143 51.9169C132.277 52.0003 132.386 52.1192 132.457 52.2605L140.616 68.5841C140.683 68.7138 140.714 68.8584 140.708 69.0039C140.702 69.1494 140.659 69.2909 140.582 69.4148C140.503 69.5358 140.395 69.6352 140.268 69.7038C140.141 69.7724 139.999 69.808 139.854 69.8073ZM124.122 68.1004H138.471L131.166 53.4837H118.649L124.122 68.1004Z" fill="#9AA6A5"/>
<path d="M107.207 69.8073H90.8832C90.7622 69.8066 90.6427 69.7803 90.5325 69.7301C90.4224 69.68 90.324 69.6072 90.244 69.5164C90.164 69.4256 90.104 69.3189 90.0681 69.2034C90.0321 69.0878 90.021 68.9659 90.0354 68.8458L92.078 52.5222C92.1032 52.3155 92.2035 52.1253 92.3598 51.9879C92.5161 51.8504 92.7176 51.7753 92.9258 51.7768H105.198C105.406 51.7767 105.606 51.8524 105.761 51.9898C105.916 52.1271 106.015 52.3165 106.04 52.5222L108.043 68.8458C108.059 68.9661 108.048 69.0883 108.012 69.2043C107.977 69.3203 107.917 69.4273 107.837 69.5183C107.757 69.6093 107.658 69.6821 107.547 69.732C107.437 69.7818 107.317 69.8075 107.195 69.8073H107.207ZM91.8447 68.1004H106.234L104.407 53.4837H93.6768L91.8447 68.1004Z" fill="#9AA6A5"/>
<path d="M148.018 82.0571C145.627 82.0541 143.335 81.1031 141.645 79.4125C139.954 77.7219 139.003 75.4299 139 73.039V68.9709C139 68.7446 139.09 68.5275 139.25 68.3675C139.41 68.2074 139.627 68.1175 139.853 68.1175H156.177C156.403 68.1175 156.62 68.2074 156.781 68.3675C156.941 68.5275 157.031 68.7446 157.031 68.9709V73.0504C157.024 75.4383 156.073 77.7265 154.384 79.4145C152.695 81.1024 150.406 82.0526 148.018 82.0571ZM140.707 69.813V73.039C140.68 74.0159 140.849 74.9884 141.204 75.8989C141.559 76.8094 142.093 77.6396 142.774 78.3402C143.455 79.0408 144.27 79.5977 145.17 79.978C146.071 80.3583 147.038 80.5542 148.015 80.5542C148.993 80.5542 149.96 80.3583 150.86 79.978C151.76 79.5977 152.575 79.0408 153.257 78.3402C153.938 77.6396 154.472 76.8094 154.827 75.8989C155.182 74.9884 155.351 74.0159 155.324 73.039V69.813H140.707Z" fill="#9AA6A5"/>
<path d="M58.2344 69.8073H41.9107C41.7581 69.8074 41.6081 69.7666 41.4766 69.689C41.3451 69.6115 41.2368 69.5001 41.163 69.3664C41.0892 69.2327 41.0526 69.0817 41.057 68.9291C41.0614 68.7765 41.1067 68.6278 41.1882 68.4987L51.3897 52.1751C51.4678 52.0541 51.5747 51.9544 51.7008 51.8849C51.8269 51.8154 51.9683 51.7782 52.1123 51.7768H66.399C66.5443 51.777 66.6872 51.8143 66.8141 51.8852C66.941 51.9561 67.0476 52.0582 67.124 52.1818C67.2004 52.3055 67.2439 52.4466 67.2504 52.5918C67.257 52.737 67.2263 52.8814 67.1614 53.0114L58.9968 69.3351C58.9266 69.4772 58.8179 69.5968 58.6831 69.6803C58.5484 69.7637 58.3929 69.8077 58.2344 69.8073ZM43.4413 68.1004H57.6995L65.005 53.4837H52.5902L43.4413 68.1004Z" fill="#9AA6A5"/>
<path d="M123.53 69.8073H107.206C106.998 69.805 106.798 69.7278 106.642 69.5899C106.486 69.4519 106.386 69.2625 106.358 69.0563L104.321 52.7383C104.306 52.618 104.316 52.4958 104.352 52.3798C104.388 52.2639 104.448 52.1568 104.528 52.0658C104.608 51.9748 104.707 51.902 104.817 51.8522C104.928 51.8023 105.048 51.7766 105.169 51.7768H117.408C117.583 51.7781 117.755 51.8334 117.898 51.9351C118.042 52.0369 118.15 52.1802 118.21 52.3458L124.332 68.6694C124.379 68.7989 124.394 68.9378 124.376 69.0745C124.359 69.2111 124.308 69.3415 124.229 69.4546C124.15 69.5653 124.045 69.6552 123.923 69.7167C123.801 69.7781 123.666 69.8092 123.53 69.8073ZM107.963 68.1004H122.301L116.816 53.4837H106.131L107.963 68.1004Z" fill="#9AA6A5"/>
<path d="M74.5592 69.8073C74.4578 69.8078 74.3573 69.7884 74.2634 69.7504C74.0514 69.6712 73.8795 69.511 73.7856 69.305C73.6917 69.0991 73.6835 68.8643 73.7627 68.6523L79.4523 53.4837H66.9351L58.998 69.3351C58.9515 69.4409 58.8839 69.5362 58.7994 69.6152C58.715 69.6941 58.6153 69.7551 58.5066 69.7943C58.3978 69.8336 58.2822 69.8503 58.1668 69.8436C58.0513 69.8368 57.9385 69.8067 57.8351 69.7549C57.7316 69.7032 57.6398 69.6311 57.5651 69.5428C57.4905 69.4545 57.4345 69.3519 57.4006 69.2414C57.3668 69.1308 57.3558 69.0145 57.3683 68.8996C57.3807 68.7846 57.4164 68.6734 57.4732 68.5727L65.6378 52.249C65.7081 52.1069 65.8167 51.9873 65.9515 51.9038C66.0863 51.8204 66.2417 51.7764 66.4003 51.7768H80.6813C80.8176 51.7772 80.9519 51.8102 81.0728 51.8731C81.1938 51.9361 81.2979 52.0271 81.3764 52.1385C81.455 52.2499 81.5057 52.3785 81.5243 52.5136C81.543 52.6486 81.529 52.7862 81.4835 52.9147L75.3615 69.2383C75.3028 69.4044 75.1942 69.5481 75.0505 69.65C74.9069 69.7519 74.7353 69.8068 74.5592 69.8073Z" fill="#9AA6A5"/>
<path d="M50.0767 82.0571C47.6859 82.0541 45.3938 81.1031 43.7033 79.4125C42.0127 77.7219 41.0616 75.4299 41.0586 73.039V68.9709C41.0586 68.7446 41.1485 68.5275 41.3086 68.3675C41.4686 68.2074 41.6857 68.1175 41.912 68.1175H58.2357C58.3496 68.1145 58.4631 68.1343 58.5692 68.1758C58.6754 68.2173 58.7722 68.2797 58.8539 68.3593C58.9356 68.4388 59.0005 68.5339 59.0448 68.639C59.0891 68.7441 59.1119 68.8569 59.1119 68.9709V73.0504C59.1058 75.4422 58.1511 77.7339 56.4571 79.4225C54.7632 81.1111 52.4685 82.0587 50.0767 82.0571ZM42.7655 69.813V73.039C42.7382 74.0159 42.9071 74.9884 43.2621 75.8989C43.6171 76.8094 44.1511 77.6395 44.8324 78.3402C45.5138 79.0408 46.3287 79.5977 47.2289 79.978C48.1292 80.3583 49.0966 80.5542 50.0739 80.5542C51.0511 80.5542 52.0185 80.3583 52.9188 79.978C53.819 79.5977 54.6339 79.0408 55.3153 78.3402C55.9966 77.6395 56.5306 76.8094 56.8856 75.8989C57.2406 74.9884 57.4095 74.0159 57.3822 73.039V69.813H42.7655Z" fill="#9AA6A5"/>
<path d="M156.176 69.8072H139.853C139.694 69.8077 139.539 69.7637 139.404 69.6802C139.269 69.5967 139.161 69.4771 139.09 69.335L130.926 53.0398C130.861 52.9094 130.83 52.7644 130.837 52.6188C130.844 52.4731 130.888 52.3316 130.965 52.2078C131.042 52.084 131.149 51.982 131.277 51.9115C131.405 51.841 131.548 51.8044 131.694 51.8052H145.975C146.119 51.8051 146.261 51.8415 146.388 51.9112C146.514 51.9809 146.621 52.0814 146.698 52.2035L156.899 68.5271C156.981 68.6562 157.026 68.8049 157.03 68.9575C157.035 69.1101 156.998 69.2611 156.924 69.3948C156.85 69.5285 156.742 69.6399 156.611 69.7174C156.479 69.795 156.329 69.8358 156.176 69.8357V69.8072ZM140.382 68.1004H154.635L145.503 53.4836H133.076L140.382 68.1004Z" fill="#9AA6A5"/>
<path d="M90.8817 69.8073H74.5581C74.4202 69.8072 74.2843 69.7735 74.1624 69.7091C74.0404 69.6446 73.936 69.5514 73.8583 69.4375C73.78 69.3241 73.7303 69.1935 73.7134 69.0568C73.6966 68.9201 73.7131 68.7813 73.7615 68.6523L79.8836 52.3287C79.942 52.1636 80.0497 52.0204 80.1922 51.9187C80.3347 51.8169 80.5051 51.7614 80.6802 51.7597H92.9243C93.0452 51.7588 93.1649 51.7843 93.275 51.8344C93.3851 51.8845 93.4828 51.9581 93.5615 52.0499C93.6426 52.1402 93.7034 52.2469 93.7397 52.3627C93.7761 52.4785 93.7871 52.6008 93.7721 52.7213L91.7295 69.0392C91.7083 69.2495 91.6099 69.4444 91.4533 69.5863C91.2967 69.7282 91.093 69.807 90.8817 69.8073ZM75.7928 68.1004H90.1307L91.9571 53.4837H81.3003L75.7928 68.1004Z" fill="#9AA6A5"/>
<path d="M82.7232 82.0571C80.3324 82.0541 78.0403 81.1031 76.3498 79.4125C74.6592 77.7219 73.7081 75.4299 73.7051 73.039V68.9709C73.7051 68.7446 73.795 68.5275 73.955 68.3675C74.1151 68.2074 74.3322 68.1175 74.5585 68.1175H90.8821C91.1085 68.1175 91.3256 68.2074 91.4856 68.3675C91.6457 68.5275 91.7356 68.7446 91.7356 68.9709V73.0504C91.7296 75.4383 90.778 77.7265 89.0889 79.4145C87.3999 81.1024 85.1111 82.0526 82.7232 82.0571ZM75.412 69.813V73.039C75.3847 74.0159 75.5536 74.9884 75.9086 75.8989C76.2636 76.8094 76.7976 77.6396 77.4789 78.3402C78.1603 79.0408 78.9752 79.5977 79.8754 79.978C80.7757 80.3583 81.743 80.5542 82.7203 80.5542C83.6976 80.5542 84.665 80.3583 85.5652 79.978C86.4655 79.5977 87.2804 79.0408 87.9618 78.3402C88.6431 77.6396 89.177 76.8094 89.5321 75.8989C89.8871 74.9884 90.056 74.0159 90.0287 73.039V69.813H75.412Z" fill="#9AA6A5"/>
<path d="M99.0474 82.0571C96.6566 82.0541 94.3645 81.1031 92.674 79.4125C90.9834 77.7219 90.0323 75.4299 90.0293 73.039V68.9709C90.0293 68.7446 90.1192 68.5275 90.2793 68.3675C90.4393 68.2074 90.6564 68.1175 90.8827 68.1175H107.206C107.43 68.122 107.642 68.2139 107.799 68.3734C107.955 68.533 108.043 68.7475 108.043 68.9709V73.0504C108.037 75.4353 107.087 77.721 105.402 79.4085C103.717 81.096 101.432 82.0481 99.0474 82.0571ZM91.7362 69.813V73.039C91.7089 74.0159 91.8778 74.9884 92.2328 75.8989C92.5878 76.8094 93.1218 77.6396 93.8031 78.3402C94.4845 79.0408 95.2994 79.5977 96.1996 79.978C97.0999 80.3583 98.0673 80.5542 99.0446 80.5542C100.022 80.5542 100.989 80.3583 101.889 79.978C102.79 79.5977 103.605 79.0408 104.286 78.3402C104.967 77.6396 105.501 76.8094 105.856 75.8989C106.211 74.9884 106.38 74.0159 106.353 73.039V69.813H91.7362Z" fill="#9AA6A5"/>
<path d="M115.371 82.0571C114.185 82.0579 113.011 81.8251 111.915 81.372C110.819 80.9189 109.824 80.2544 108.985 79.4165C108.146 78.5786 107.48 77.5836 107.025 76.4884C106.571 75.3931 106.337 74.2191 106.336 73.0334V68.9709C106.336 68.7446 106.426 68.5275 106.586 68.3675C106.746 68.2074 106.963 68.1175 107.189 68.1175H123.513C123.739 68.1175 123.956 68.2074 124.116 68.3675C124.277 68.5275 124.366 68.7446 124.366 68.9709V73.0504C124.36 75.4353 123.411 77.721 121.726 79.4085C120.041 81.096 117.756 82.0481 115.371 82.0571ZM108.043 69.8073V73.0334C108.016 74.0103 108.184 74.9827 108.539 75.8932C108.894 76.8038 109.428 77.6339 110.11 78.3345C110.791 79.0351 111.606 79.592 112.506 79.9723C113.407 80.3526 114.374 80.5485 115.351 80.5485C116.328 80.5485 117.296 80.3526 118.196 79.9723C119.096 79.592 119.911 79.0351 120.593 78.3345C121.274 77.6339 121.808 76.8038 122.163 75.8932C122.518 74.9827 122.687 74.0103 122.66 73.0334V69.8073H108.043Z" fill="#9AA6A5"/>
<path d="M131.694 82.0571C129.303 82.0541 127.011 81.1031 125.32 79.4125C123.63 77.7219 122.679 75.4299 122.676 73.039V68.9709C122.676 68.7446 122.766 68.5275 122.926 68.3675C123.086 68.2074 123.303 68.1175 123.529 68.1175H139.853C140.079 68.1175 140.296 68.2074 140.456 68.3675C140.616 68.5275 140.706 68.7446 140.706 68.9709V73.0504C140.7 75.4383 139.749 77.7265 138.06 79.4145C136.371 81.1024 134.082 82.0526 131.694 82.0571ZM124.383 69.813V73.039C124.355 74.0159 124.524 74.9884 124.879 75.8989C125.234 76.8094 125.768 77.6396 126.45 78.3402C127.131 79.0408 127.946 79.5977 128.846 79.978C129.746 80.3583 130.714 80.5542 131.691 80.5542C132.668 80.5542 133.636 80.3583 134.536 79.978C135.436 79.5977 136.251 79.0408 136.932 78.3402C137.614 77.6396 138.148 76.8094 138.503 75.8989C138.858 74.9884 139.027 74.0159 138.999 73.039V69.813H124.383Z" fill="#9AA6A5"/>
<path d="M99.0465 126.937H70.4902C70.2638 126.937 70.0467 126.847 69.8867 126.687C69.7266 126.527 69.6367 126.31 69.6367 126.084V97.5159C69.6382 96.2081 70.1584 94.9543 71.0832 94.0295C72.008 93.1047 73.2618 92.5845 74.5697 92.583H99.0352C99.2615 92.583 99.4786 92.6729 99.6386 92.833C99.7987 92.993 99.8886 93.2101 99.8886 93.4365V126.084C99.8886 126.308 99.8003 126.523 99.6427 126.683C99.4851 126.843 99.2709 126.934 99.0465 126.937ZM71.3322 125.23H98.1931V94.2899H74.5583C73.7031 94.2914 72.8835 94.6318 72.2788 95.2365C71.6741 95.8411 71.3337 96.6608 71.3322 97.5159V125.23Z" fill="#9AA6A5"/>
<path d="M127.609 126.937H99.0468C98.8205 126.937 98.6034 126.847 98.4433 126.687C98.2833 126.527 98.1934 126.31 98.1934 126.084V93.4365C98.1934 93.2101 98.2833 92.993 98.4433 92.833C98.6034 92.6729 98.8205 92.583 99.0468 92.583H123.512C124.82 92.5845 126.074 93.1047 126.999 94.0295C127.924 94.9543 128.444 96.2081 128.445 97.5159V126.084C128.445 126.307 128.358 126.522 128.201 126.681C128.045 126.841 127.832 126.933 127.609 126.937ZM99.9003 125.23H126.755V97.5159C126.754 96.6608 126.414 95.8411 125.809 95.2365C125.204 94.6318 124.385 94.2914 123.529 94.2899H99.9003V125.23Z" fill="#9AA6A5"/>
<path d="M129.663 49.1482H68.4368C67.129 49.1467 65.8752 48.6265 64.9504 47.7017C64.0256 46.7769 63.5054 45.5231 63.5039 44.2153V23.8065C63.5054 22.4986 64.0256 21.2448 64.9504 20.32C65.8752 19.3952 67.129 18.875 68.4368 18.8735H129.663C130.971 18.875 132.225 19.3952 133.15 20.32C134.074 21.2448 134.595 22.4986 134.596 23.8065V44.2153C134.595 45.5231 134.074 46.7769 133.15 47.7017C132.225 48.6265 130.971 49.1467 129.663 49.1482ZM68.4368 20.6089C67.5817 20.6104 66.762 20.9508 66.1573 21.5554C65.5527 22.1601 65.2123 22.9798 65.2108 23.8349V44.2437C65.2123 45.0988 65.5527 45.9185 66.1573 46.5232C66.762 47.1279 67.5817 47.4682 68.4368 47.4697H129.663C130.518 47.4682 131.338 47.1279 131.943 46.5232C132.547 45.9185 132.888 45.0988 132.889 44.2437V23.8065C132.88 22.9563 132.537 22.1439 131.933 21.5453C131.329 20.9468 130.513 20.6103 129.663 20.6089H68.4368Z" fill="#9AA6A5"/>
<path d="M117.408 53.4836H80.6816C80.4552 53.4836 80.2381 53.3937 80.0781 53.2337C79.918 53.0736 79.8281 52.8565 79.8281 52.6302V48.5507C79.8281 48.3244 79.918 48.1073 80.0781 47.9472C80.2381 47.7872 80.4552 47.6973 80.6816 47.6973C80.9079 47.6973 81.125 47.7872 81.2851 47.9472C81.4451 48.1073 81.535 48.3244 81.535 48.5507V51.7767H116.578V48.2947C116.578 48.0683 116.668 47.8512 116.828 47.6912C116.988 47.5311 117.205 47.4412 117.431 47.4412C117.657 47.4412 117.874 47.5311 118.035 47.6912C118.195 47.8512 118.284 48.0683 118.284 48.2947V52.6302C118.285 52.7442 118.262 52.8571 118.217 52.9621C118.173 53.0672 118.108 53.1623 118.027 53.2419C117.945 53.3214 117.848 53.3838 117.742 53.4253C117.636 53.4668 117.522 53.4867 117.408 53.4836Z" fill="#9AA6A5"/>
<path d="M158.22 135.102H39.8749C39.6486 135.102 39.4315 135.012 39.2714 134.852C39.1114 134.692 39.0215 134.475 39.0215 134.248V130.163C39.023 128.855 39.5432 127.601 40.468 126.677C41.3927 125.752 42.6466 125.232 43.9544 125.23H154.129C155.438 125.23 156.693 125.75 157.619 126.675C158.545 127.6 159.066 128.854 159.067 130.163V134.248C159.066 134.473 158.976 134.689 158.818 134.848C158.659 135.008 158.445 135.099 158.22 135.102ZM40.7284 133.395H157.366V130.163C157.363 129.307 157.022 128.488 156.416 127.883C155.81 127.279 154.99 126.939 154.135 126.937H43.9544C43.0993 126.939 42.2796 127.279 41.6749 127.884C41.0702 128.488 40.7299 129.308 40.7284 130.163V133.395Z" fill="#9AA6A5"/>
<path d="M92.9253 114.693C92.1582 114.693 91.4225 114.389 90.8795 113.847C90.3366 113.305 90.0308 112.57 90.0293 111.803V109.76C90.0623 109.015 90.3816 108.311 90.9206 107.796C91.4595 107.28 92.1766 106.992 92.9225 106.992C93.6683 106.992 94.3854 107.28 94.9244 107.796C95.4634 108.311 95.7826 109.015 95.8157 109.76V111.803C95.8142 112.569 95.5092 113.303 94.9675 113.845C94.4257 114.386 93.6914 114.691 92.9253 114.693ZM92.9253 108.577C92.6109 108.577 92.3093 108.701 92.0865 108.923C91.8636 109.145 91.7377 109.446 91.7362 109.76V111.803C91.757 112.103 91.891 112.384 92.1112 112.59C92.3314 112.795 92.6213 112.91 92.9225 112.91C93.2236 112.91 93.5136 112.795 93.7338 112.59C93.9539 112.384 94.088 112.103 94.1088 111.803V109.76C94.1088 109.446 93.9841 109.145 93.7622 108.923C93.5402 108.701 93.2392 108.577 92.9253 108.577Z" fill="#9AA6A5"/>
<path d="M105.197 114.693C104.43 114.693 103.694 114.389 103.151 113.847C102.608 113.305 102.302 112.57 102.301 111.803V109.76C102.334 109.015 102.653 108.311 103.192 107.796C103.731 107.28 104.448 106.992 105.194 106.992C105.94 106.992 106.657 107.28 107.196 107.796C107.735 108.311 108.054 109.015 108.087 109.76V111.803C108.086 112.569 107.781 113.303 107.239 113.845C106.697 114.386 105.963 114.691 105.197 114.693ZM105.197 108.577C105.041 108.576 104.886 108.606 104.742 108.665C104.598 108.724 104.467 108.811 104.356 108.921C104.246 109.031 104.158 109.162 104.098 109.306C104.038 109.45 104.008 109.604 104.008 109.76V111.803C104.028 112.103 104.163 112.384 104.383 112.59C104.603 112.795 104.893 112.91 105.194 112.91C105.495 112.91 105.785 112.795 106.005 112.59C106.225 112.384 106.359 112.103 106.38 111.803V109.76C106.38 109.446 106.256 109.145 106.034 108.923C105.812 108.701 105.511 108.577 105.197 108.577Z" fill="#9AA6A5"/>
<path d="M83.3046 39.9195C82.0653 39.9689 80.8284 39.7757 79.6632 39.3506V37.6437C80.2101 37.8429 80.7712 38.0008 81.3417 38.1159C81.9278 38.2353 82.5244 38.2963 83.1225 38.298C83.8358 38.3337 84.5487 38.2214 85.2163 37.968C85.4513 37.8478 85.6438 37.6584 85.7679 37.4255C85.892 37.1925 85.9418 36.9271 85.9105 36.6651C85.9269 36.3207 85.8245 35.9812 85.6203 35.7035C85.3604 35.4179 85.0311 35.2043 84.6644 35.0833C84.0608 34.8546 83.4431 34.6646 82.8153 34.5144C81.8425 34.3319 80.9321 33.9051 80.1696 33.274C79.9087 32.9988 79.707 32.673 79.5768 32.3168C79.4467 31.9607 79.3909 31.5816 79.4129 31.203C79.3919 30.7394 79.4846 30.2778 79.6829 29.8583C79.8813 29.4388 80.1792 29.0742 80.5508 28.7963C81.3094 28.2159 82.4265 27.9258 83.902 27.9258C84.542 27.9219 85.1813 27.9695 85.8137 28.068C86.289 28.1371 86.7573 28.2475 87.2134 28.398V30.1333C86.2408 29.7759 85.2112 29.5985 84.1751 29.6099C83.4815 29.5779 82.789 29.6943 82.1439 29.9513C81.9099 30.0609 81.7151 30.2397 81.5859 30.4636C81.4567 30.6874 81.3992 30.9455 81.4213 31.203C81.4085 31.5073 81.4965 31.8073 81.6717 32.0564C81.908 32.3233 82.213 32.5201 82.5536 32.6254C83.113 32.8312 83.6827 33.0078 84.2605 33.1545C85.0385 33.3237 85.7853 33.6136 86.4737 34.0137C86.9442 34.2799 87.329 34.6746 87.5832 35.1516C87.7993 35.6203 87.9063 36.132 87.8961 36.648C87.9146 37.1128 87.8209 37.5752 87.6228 37.9962C87.4247 38.4171 87.1282 38.7841 86.7582 39.0661C86.0015 39.6294 84.8522 39.9195 83.3046 39.9195Z" fill="#9AA6A5"/>
<path d="M89.8359 39.7374V27.5331H91.8102V31.9881C92.2115 31.67 92.6635 31.4219 93.1473 31.2542C93.7126 31.0593 94.3076 30.965 94.9054 30.9754C95.3412 30.9053 95.7875 30.94 96.2073 31.0764C96.6271 31.2129 97.0084 31.4473 97.3197 31.7603C97.6309 32.0732 97.8633 32.4558 97.9975 32.8763C98.1318 33.2968 98.164 33.7432 98.0916 34.1787V39.7374H96.1344V34.264C96.1599 34.0154 96.1359 33.7641 96.0636 33.5248C95.9913 33.2855 95.8723 33.063 95.7133 32.87C95.2845 32.5631 94.7591 32.4216 94.234 32.4718C93.7795 32.4778 93.3307 32.5745 92.914 32.7562C92.4986 32.9179 92.1223 33.1662 91.8102 33.4845V39.7431L89.8359 39.7374Z" fill="#9AA6A5"/>
<path d="M104.219 39.9196C102.672 39.9196 101.534 39.5403 100.806 38.7816C100.103 37.8194 99.7246 36.6588 99.7246 35.4674C99.7246 34.276 100.103 33.1155 100.806 32.1532C101.528 31.3794 102.66 31.0153 104.191 31.0153C105.721 31.0153 106.871 31.4022 107.605 32.1532C108.383 33.0743 108.772 34.2616 108.691 35.4646C108.772 36.6672 108.387 37.8548 107.616 38.7816C106.911 39.5403 105.778 39.9196 104.219 39.9196ZM104.219 38.2582C104.57 38.2941 104.924 38.2532 105.257 38.1382C105.59 38.0232 105.894 37.837 106.148 37.5925C106.584 36.9665 106.785 36.2071 106.717 35.4475C106.786 34.6913 106.585 33.9352 106.148 33.3139C105.892 33.0727 105.588 32.8894 105.255 32.7765C104.922 32.6636 104.569 32.6237 104.219 32.6596C103.872 32.6243 103.522 32.6645 103.192 32.7775C102.862 32.8904 102.56 33.0734 102.308 33.3139C101.871 33.9352 101.669 34.6913 101.739 35.4475C101.671 36.2071 101.872 36.9665 102.308 37.5925C102.56 37.8339 102.861 38.0175 103.191 38.1305C103.521 38.2435 103.872 38.2832 104.219 38.2468V38.2582Z" fill="#9AA6A5"/>
<path d="M110.631 43.652V31.1348H112.338L112.446 31.9825C112.814 31.6442 113.245 31.3813 113.715 31.2087C114.238 31.0273 114.789 30.9406 115.342 30.9527C115.865 30.9209 116.388 30.9937 116.883 31.1666C117.377 31.3395 117.832 31.6091 118.221 31.9598C118.907 32.6235 119.253 33.7311 119.256 35.2825C119.26 36.8339 118.904 37.9889 118.187 38.7475C117.81 39.1349 117.354 39.437 116.851 39.6333C116.347 39.8296 115.808 39.9156 115.268 39.8854C114.33 39.9139 113.405 39.6623 112.611 39.1629V43.6179L110.631 43.652ZM114.756 38.4346C116.423 38.4346 117.259 37.3877 117.259 35.2825C117.329 34.5174 117.128 33.752 116.69 33.1204C116.441 32.8846 116.144 32.7051 115.819 32.5941C115.494 32.4832 115.149 32.4434 114.807 32.4775C114.397 32.4671 113.988 32.5422 113.608 32.6979C113.228 32.8537 112.885 33.0867 112.599 33.3822V37.6779C112.878 37.9133 113.191 38.1051 113.527 38.2468C113.921 38.3858 114.338 38.4495 114.756 38.4346Z" fill="#9AA6A5"/>
</svg>
