<svg width="166" height="154" viewBox="0 0 166 154" fill="none" xmlns="http://www.w3.org/2000/svg">
<path d="M149.819 114.599C149.624 114.599 149.437 114.522 149.3 114.384C149.162 114.247 149.085 114.06 149.085 113.865V104.675C149.076 104.573 149.089 104.47 149.122 104.373C149.155 104.276 149.208 104.187 149.277 104.112C149.346 104.036 149.43 103.976 149.524 103.935C149.618 103.894 149.719 103.872 149.822 103.872C149.924 103.872 150.025 103.894 150.119 103.935C150.213 103.976 150.297 104.036 150.366 104.112C150.435 104.187 150.488 104.276 150.521 104.373C150.554 104.47 150.567 104.573 150.558 104.675V113.865C150.558 113.962 150.539 114.058 150.502 114.147C150.465 114.237 150.41 114.318 150.341 114.386C150.273 114.454 150.191 114.508 150.101 114.545C150.012 114.581 149.916 114.6 149.819 114.599Z" fill="#9AA6A5"/>
<path d="M154.417 110.007H145.227C145.125 110.016 145.022 110.003 144.925 109.97C144.829 109.937 144.74 109.884 144.664 109.815C144.589 109.745 144.528 109.661 144.487 109.567C144.446 109.474 144.425 109.372 144.425 109.27C144.425 109.168 144.446 109.066 144.487 108.973C144.528 108.879 144.589 108.795 144.664 108.725C144.74 108.656 144.829 108.603 144.925 108.57C145.022 108.537 145.125 108.524 145.227 108.533H154.417C154.602 108.549 154.774 108.633 154.899 108.77C155.024 108.906 155.094 109.085 155.094 109.27C155.094 109.455 155.024 109.634 154.899 109.77C154.774 109.907 154.602 109.991 154.417 110.007Z" fill="#9AA6A5"/>
<path d="M122.276 147.812C122.149 147.812 122.028 147.762 121.939 147.673C121.849 147.583 121.799 147.462 121.799 147.335V143.547C121.799 143.42 121.849 143.299 121.939 143.21C122.028 143.12 122.149 143.07 122.276 143.07C122.402 143.07 122.524 143.12 122.613 143.21C122.702 143.299 122.753 143.42 122.753 143.547V147.335C122.753 147.462 122.702 147.583 122.613 147.673C122.524 147.762 122.402 147.812 122.276 147.812Z" fill="#9AA6A5"/>
<path d="M124.173 145.916H120.379C120.262 145.903 120.153 145.848 120.074 145.76C119.996 145.673 119.952 145.559 119.952 145.441C119.952 145.324 119.996 145.21 120.074 145.122C120.153 145.035 120.262 144.979 120.379 144.967H124.173C124.239 144.96 124.306 144.967 124.37 144.988C124.434 145.008 124.492 145.042 124.542 145.087C124.592 145.131 124.631 145.186 124.659 145.247C124.686 145.308 124.7 145.374 124.7 145.441C124.7 145.508 124.686 145.574 124.659 145.635C124.631 145.697 124.592 145.751 124.542 145.796C124.492 145.841 124.434 145.874 124.37 145.895C124.306 145.916 124.239 145.923 124.173 145.916Z" fill="#9AA6A5"/>
<path d="M12.197 21.84C12.0023 21.84 11.8156 21.7626 11.6779 21.6249C11.5402 21.4873 11.4629 21.3005 11.4629 21.1058V11.9103C11.4629 11.7156 11.5402 11.5288 11.6779 11.3912C11.8156 11.2535 12.0023 11.1761 12.197 11.1761C12.3917 11.1761 12.5785 11.2535 12.7161 11.3912C12.8538 11.5288 12.9312 11.7156 12.9312 11.9103V21.1058C12.9312 21.3005 12.8538 21.4873 12.7161 21.6249C12.5785 21.7626 12.3917 21.84 12.197 21.84Z" fill="#9AA6A5"/>
<path d="M16.7842 17.2423H7.59937C7.40467 17.2423 7.21794 17.1649 7.08026 17.0272C6.94258 16.8896 6.86523 16.7028 6.86523 16.5081C6.86523 16.3134 6.94258 16.1267 7.08026 15.989C7.21794 15.8513 7.40467 15.774 7.59937 15.774H16.7842C16.9789 15.774 17.1656 15.8513 17.3033 15.989C17.441 16.1267 17.5183 16.3134 17.5183 16.5081C17.5183 16.7028 17.441 16.8896 17.3033 17.0272C17.1656 17.1649 16.9789 17.2423 16.7842 17.2423Z" fill="#9AA6A5"/>
<path d="M3.26989 33.6131C3.14433 33.6131 3.02383 33.5636 2.93454 33.4753C2.84525 33.387 2.79438 33.2671 2.79297 33.1415V29.3475C2.79297 29.221 2.84322 29.0997 2.93266 29.0103C3.0221 28.9208 3.1434 28.8706 3.26989 28.8706C3.39638 28.8706 3.51769 28.9208 3.60713 29.0103C3.69658 29.0997 3.74682 29.221 3.74682 29.3475V33.1415C3.74541 33.2671 3.69454 33.387 3.60525 33.4753C3.51597 33.5636 3.39546 33.6131 3.26989 33.6131Z" fill="#9AA6A5"/>
<path d="M5.1664 31.7215H1.37243C1.24594 31.7215 1.12463 31.6712 1.03519 31.5818C0.94575 31.4924 0.895508 31.3711 0.895508 31.2446C0.895508 31.1181 0.94575 30.9968 1.03519 30.9073C1.12463 30.8179 1.24594 30.7676 1.37243 30.7676H5.1664C5.29289 30.7676 5.41419 30.8179 5.50363 30.9073C5.59307 30.9968 5.64332 31.1181 5.64332 31.2446C5.64332 31.3711 5.59307 31.4924 5.50363 31.5818C5.41419 31.6712 5.29289 31.7215 5.1664 31.7215Z" fill="#9AA6A5"/>
<path d="M153.431 123.907C153.304 123.907 153.183 123.857 153.094 123.768C153.004 123.678 152.954 123.557 152.954 123.43V119.642C152.947 119.575 152.954 119.508 152.974 119.444C152.995 119.381 153.029 119.322 153.073 119.272C153.118 119.223 153.173 119.183 153.234 119.156C153.295 119.128 153.361 119.114 153.428 119.114C153.495 119.114 153.561 119.128 153.622 119.156C153.683 119.183 153.738 119.223 153.783 119.272C153.827 119.322 153.861 119.381 153.882 119.444C153.902 119.508 153.909 119.575 153.902 119.642V123.43C153.903 123.493 153.891 123.555 153.868 123.612C153.845 123.67 153.81 123.723 153.766 123.767C153.722 123.812 153.67 123.847 153.612 123.871C153.555 123.895 153.493 123.907 153.431 123.907Z" fill="#9AA6A5"/>
<path d="M155.296 122.01H151.507C151.44 122.017 151.373 122.01 151.31 121.99C151.246 121.969 151.187 121.935 151.138 121.891C151.088 121.846 151.048 121.791 151.021 121.73C150.994 121.669 150.979 121.603 150.979 121.536C150.979 121.469 150.994 121.403 151.021 121.342C151.048 121.281 151.088 121.226 151.138 121.181C151.187 121.137 151.246 121.103 151.31 121.082C151.373 121.062 151.44 121.055 151.507 121.062H155.296C155.362 121.055 155.429 121.062 155.493 121.082C155.557 121.103 155.615 121.137 155.665 121.181C155.715 121.226 155.754 121.281 155.782 121.342C155.809 121.403 155.823 121.469 155.823 121.536C155.823 121.603 155.809 121.669 155.782 121.73C155.754 121.791 155.715 121.846 155.665 121.891C155.615 121.935 155.557 121.969 155.493 121.99C155.429 122.01 155.362 122.017 155.296 122.01Z" fill="#9AA6A5"/>
<path d="M28.3753 153C26.5558 152.877 24.7503 152.598 22.9791 152.164C22.924 152.144 22.8783 152.105 22.8506 152.053C22.823 152.002 22.8154 151.942 22.8294 151.885C22.8434 151.828 22.878 151.779 22.9265 151.746C22.9749 151.714 23.0338 151.7 23.0916 151.708C24.8371 152.133 26.6154 152.409 28.4075 152.533C28.4384 152.536 28.4687 152.544 28.4966 152.557C28.5244 152.571 28.5492 152.59 28.5696 152.614C28.5901 152.637 28.6056 152.664 28.6155 152.694C28.6254 152.723 28.6293 152.754 28.6272 152.785C28.6204 152.846 28.5906 152.903 28.5438 152.942C28.497 152.982 28.4367 153.003 28.3753 153ZM17.9044 150.395C17.8709 150.403 17.836 150.403 17.8026 150.395L17.5989 150.299C16.0084 149.563 14.5041 148.654 13.1137 147.587C13.0861 147.57 13.0625 147.546 13.0444 147.519C13.0263 147.492 13.0141 147.461 13.0087 147.428C13.0032 147.396 13.0045 147.363 13.0126 147.331C13.0206 147.299 13.0352 147.27 13.0554 147.244C13.0757 147.218 13.1011 147.197 13.13 147.181C13.1589 147.166 13.1908 147.156 13.2235 147.154C13.2562 147.151 13.2891 147.156 13.32 147.167C13.3509 147.178 13.3792 147.195 13.4031 147.218C14.7666 148.267 16.24 149.165 17.7972 149.897L18.0008 149.988C18.0496 150.01 18.0893 150.049 18.1134 150.097C18.1374 150.145 18.1444 150.199 18.1332 150.252C18.1219 150.304 18.0931 150.351 18.0515 150.385C18.0099 150.419 17.958 150.438 17.9044 150.438V150.395ZM9.33046 143.868C9.29576 143.868 9.26161 143.86 9.23021 143.845C9.19881 143.83 9.17089 143.809 9.14826 143.783C7.98091 142.377 6.97437 140.846 6.14738 139.217C6.13331 139.189 6.12485 139.159 6.12249 139.128C6.12012 139.097 6.12389 139.066 6.1336 139.036C6.1433 139.006 6.15874 138.979 6.17904 138.955C6.19933 138.932 6.22409 138.912 6.25188 138.898C6.27968 138.884 6.30997 138.876 6.34104 138.873C6.37211 138.871 6.40334 138.875 6.43295 138.884C6.46256 138.894 6.48995 138.91 6.5136 138.93C6.53724 138.95 6.55665 138.975 6.57073 139.003C7.37991 140.602 8.36678 142.105 9.51265 143.483C9.53238 143.507 9.54722 143.534 9.55628 143.564C9.56535 143.593 9.56847 143.625 9.56549 143.655C9.5625 143.686 9.55346 143.716 9.53887 143.744C9.52429 143.771 9.50445 143.795 9.4805 143.815C9.44489 143.843 9.40236 143.862 9.35725 143.868H9.33046ZM4.46475 134.271C4.41211 134.271 4.36084 134.254 4.31908 134.222C4.27732 134.19 4.24749 134.145 4.23433 134.094C3.80229 132.316 3.57397 130.495 3.55377 128.666C3.55306 128.634 3.55863 128.603 3.57016 128.574C3.58169 128.545 3.59895 128.518 3.62091 128.496C3.64288 128.473 3.66911 128.455 3.69807 128.443C3.72703 128.431 3.75814 128.425 3.78956 128.425C3.82026 128.424 3.85081 128.429 3.87939 128.441C3.90796 128.452 3.934 128.469 3.95597 128.49C3.97794 128.512 3.99539 128.537 4.0073 128.566C4.01922 128.594 4.02535 128.624 4.02534 128.655C4.05384 130.448 4.28758 132.231 4.72197 133.971C4.73657 134.031 4.72674 134.095 4.69463 134.148C4.66252 134.201 4.61072 134.24 4.55049 134.255L4.46475 134.271ZM4.31471 123.521H4.26112C4.20105 123.507 4.14888 123.47 4.11582 123.418C4.08276 123.366 4.07144 123.303 4.08429 123.243C4.48584 121.455 5.13516 119.733 6.01342 118.125C6.04398 118.071 6.09463 118.03 6.15464 118.012C6.21466 117.994 6.27932 118 6.33494 118.029C6.36208 118.044 6.38598 118.064 6.40526 118.089C6.42454 118.113 6.43883 118.141 6.44729 118.171C6.45575 118.2 6.45823 118.232 6.45458 118.263C6.45094 118.293 6.44124 118.323 6.42604 118.35C5.57021 119.92 4.93716 121.601 4.54514 123.345C4.53268 123.391 4.50663 123.433 4.47035 123.464C4.43407 123.496 4.3892 123.516 4.3415 123.521H4.31471ZM9.45907 114.138C9.39771 114.138 9.33864 114.115 9.29295 114.074C9.2491 114.03 9.22449 113.97 9.22449 113.908C9.22449 113.846 9.2491 113.786 9.29295 113.742C10.5873 112.443 12.0256 111.296 13.5799 110.323C13.6325 110.289 13.6965 110.277 13.7578 110.29C13.8191 110.303 13.8727 110.34 13.9068 110.393C13.9409 110.445 13.9527 110.509 13.9397 110.571C13.9266 110.632 13.8897 110.685 13.8371 110.72C12.3197 111.674 10.9156 112.797 9.65198 114.069C9.63058 114.091 9.60478 114.109 9.57619 114.121C9.54761 114.133 9.51686 114.139 9.48586 114.138H9.45907Z" fill="#050606" stroke="#9AA6A5" stroke-miterlimit="10"/>
<path d="M161.727 44.6735C161.66 44.6726 161.597 44.6477 161.547 44.6033C161.498 44.559 161.467 44.4982 161.459 44.4323C161.242 42.3119 160.884 40.2084 160.387 38.1358C160.378 38.1013 160.376 38.0654 160.382 38.0302C160.387 37.995 160.399 37.9612 160.418 37.9308C160.436 37.9004 160.46 37.8739 160.489 37.853C160.518 37.8321 160.551 37.8171 160.585 37.8089C160.654 37.7943 160.726 37.8067 160.786 37.8436C160.846 37.8805 160.889 37.9391 160.907 38.0072C161.404 40.1051 161.762 42.2336 161.979 44.3787C161.983 44.4493 161.961 44.519 161.916 44.5737C161.871 44.6284 161.808 44.6641 161.737 44.6735H161.727ZM158.747 32.2091C158.693 32.2081 158.641 32.1913 158.596 32.1608C158.551 32.1304 158.516 32.0876 158.495 32.0376C157.735 30.05 156.839 28.1164 155.816 26.2502C155.782 26.1877 155.774 26.1142 155.794 26.0458C155.814 25.9775 155.861 25.9199 155.923 25.8858C155.986 25.8517 156.059 25.8438 156.128 25.8639C156.196 25.884 156.254 25.9305 156.288 25.993C157.326 27.8788 158.237 29.8319 159.015 31.8394C159.028 31.8721 159.035 31.907 159.034 31.9423C159.034 31.9775 159.026 32.0123 159.012 32.0446C158.998 32.077 158.978 32.1063 158.953 32.1308C158.928 32.1554 158.898 32.1747 158.865 32.1877C158.828 32.2024 158.788 32.2097 158.747 32.2091ZM152.558 20.988C152.516 20.9876 152.476 20.9777 152.438 20.9591C152.401 20.9406 152.369 20.9138 152.344 20.8808C151.076 19.1654 149.694 17.538 148.207 16.0097C148.158 15.9597 148.13 15.8923 148.13 15.8222C148.13 15.752 148.158 15.6847 148.207 15.6346C148.232 15.6095 148.261 15.5896 148.294 15.576C148.327 15.5624 148.362 15.5554 148.397 15.5554C148.432 15.5554 148.467 15.5624 148.5 15.576C148.533 15.5896 148.562 15.6095 148.587 15.6346C150.089 17.1803 151.487 18.8237 152.772 20.5539C152.813 20.6119 152.83 20.6834 152.819 20.7534C152.808 20.8234 152.77 20.8863 152.713 20.929C152.67 20.9657 152.615 20.9865 152.558 20.988ZM143.63 11.7924C143.57 11.7917 143.512 11.7709 143.464 11.7335C141.785 10.4173 140.022 9.21261 138.186 8.12708C138.126 8.09041 138.083 8.03168 138.066 7.96352C138.049 7.89536 138.059 7.82325 138.095 7.76269C138.112 7.73204 138.135 7.70514 138.163 7.68361C138.191 7.66209 138.223 7.64636 138.257 7.63737C138.291 7.62837 138.326 7.62629 138.361 7.63125C138.396 7.63621 138.429 7.6481 138.459 7.66623C140.315 8.75976 142.094 9.97716 143.786 11.3102C143.841 11.3544 143.876 11.4186 143.884 11.4889C143.893 11.5591 143.872 11.6297 143.829 11.6853C143.805 11.7159 143.775 11.7413 143.741 11.7598C143.707 11.7782 143.669 11.7894 143.63 11.7924ZM132.581 5.27625C132.547 5.28422 132.512 5.28422 132.479 5.27625C130.512 4.4519 128.493 3.75909 126.434 3.20243C126.4 3.19369 126.368 3.17829 126.34 3.15711C126.312 3.13594 126.288 3.10941 126.27 3.07904C126.252 3.04867 126.24 3.01506 126.235 2.98014C126.23 2.94522 126.233 2.90968 126.241 2.87555C126.26 2.80615 126.306 2.74697 126.368 2.71086C126.43 2.67475 126.504 2.66461 126.574 2.68263C128.654 3.24745 130.695 3.94919 132.683 4.78325C132.715 4.79673 132.745 4.81662 132.77 4.84177C132.796 4.86693 132.816 4.89684 132.829 4.92976C132.842 4.96268 132.849 4.99795 132.849 5.03352C132.849 5.06909 132.841 5.10424 132.827 5.13692C132.804 5.18127 132.768 5.21797 132.724 5.24266C132.681 5.26735 132.631 5.27901 132.581 5.27625ZM101.088 3.27209C101.029 3.27299 100.973 3.25453 100.926 3.21961C100.879 3.18469 100.846 3.13529 100.83 3.07918C100.812 3.01028 100.822 2.93698 100.857 2.87492C100.892 2.81285 100.95 2.76693 101.018 2.74694C103.096 2.17468 105.211 1.74145 107.347 1.45014C107.417 1.44242 107.487 1.46208 107.543 1.50502C107.599 1.54796 107.636 1.61086 107.647 1.68056C107.652 1.71549 107.65 1.75112 107.641 1.78533C107.632 1.81953 107.617 1.85159 107.595 1.87961C107.574 1.90763 107.547 1.93102 107.516 1.94838C107.485 1.96574 107.451 1.97671 107.416 1.98064C105.306 2.27327 103.217 2.70469 101.163 3.27209H101.088ZM120.207 1.93777H120.175C118.12 1.66951 116.048 1.53526 113.975 1.53587H113.777C113.706 1.53587 113.638 1.50765 113.588 1.4574C113.537 1.40715 113.509 1.339 113.509 1.26794C113.509 1.19687 113.537 1.12873 113.588 1.07848C113.638 1.02823 113.706 1 113.777 1H113.954C116.048 1.00206 118.141 1.13629 120.218 1.4019C120.289 1.41128 120.353 1.44792 120.397 1.50398C120.441 1.56005 120.462 1.63111 120.454 1.702C120.446 1.76343 120.417 1.82022 120.372 1.86306C120.327 1.90591 120.269 1.93225 120.207 1.93777Z" fill="#020202" stroke="#9AA6A5" stroke-miterlimit="10"/>
<path d="M161.968 50.718C163.539 50.718 164.813 49.4441 164.813 47.8726C164.813 46.3011 163.539 45.0271 161.968 45.0271C160.396 45.0271 159.122 46.3011 159.122 47.8726C159.122 49.4441 160.396 50.718 161.968 50.718Z" stroke="#9AA6A5" stroke-linecap="round" stroke-linejoin="round"/>
<path d="M97.4647 127.203H64.6426L67.0379 131.994C67.1405 132.198 67.2981 132.371 67.4931 132.491C67.6881 132.611 67.9127 132.674 68.1418 132.674H93.9493C94.1785 132.675 94.4034 132.612 94.5985 132.492C94.7936 132.371 94.9511 132.199 95.0532 131.994L97.4647 127.203Z" fill="#E4E9EA"/>
<path d="M86.715 109.728C88.3681 109.267 89.9602 108.611 91.4575 107.772C91.6434 107.666 91.854 107.609 92.0683 107.609C92.2827 107.609 92.4933 107.666 92.6792 107.772L94.7691 109.005L96.7197 110.152C96.954 110.292 97.2286 110.35 97.4996 110.316C97.7706 110.282 98.0224 110.158 98.2148 109.964L102.036 106.143C102.228 105.95 102.35 105.698 102.384 105.428C102.418 105.157 102.362 104.883 102.223 104.648L99.8438 100.629C99.7371 100.443 99.681 100.233 99.681 100.018C99.681 99.8038 99.7371 99.5932 99.8438 99.4073C100.667 97.9317 101.317 96.3654 101.778 94.7399C101.836 94.533 101.947 94.3449 102.101 94.1945C102.254 94.044 102.444 93.9364 102.652 93.8825L107.191 92.7143C107.455 92.6454 107.689 92.4906 107.856 92.2743C108.023 92.058 108.113 91.7924 108.112 91.5193V86.1231C108.113 85.8499 108.023 85.5843 107.856 85.368C107.689 85.1517 107.455 84.997 107.191 84.9281L102.652 83.7545C102.444 83.7025 102.253 83.5962 102.1 83.4465C101.946 83.2969 101.835 83.1091 101.778 82.9025C101.317 81.2769 100.667 79.7106 99.8438 78.2351C99.7371 78.0491 99.681 77.8385 99.681 77.6242C99.681 77.4098 99.7371 77.1992 99.8438 77.0133L102.223 72.9781C102.362 72.7425 102.419 72.4674 102.385 72.196C102.351 71.9245 102.228 71.6719 102.036 71.4777L98.2362 67.6623C98.0435 67.4692 97.7922 67.3455 97.5216 67.3106C97.251 67.2757 96.9765 67.3316 96.7411 67.4694L94.7691 68.6483L92.6792 69.8808C92.4933 69.9875 92.2827 70.0437 92.0683 70.0437C91.854 70.0437 91.6434 69.9875 91.4575 69.8808C90.8894 69.5647 90.316 69.2753 89.7266 69.0127C88.7767 68.585 87.7971 68.2268 86.7954 67.941C86.5881 67.8822 86.3999 67.7701 86.2495 67.6159C86.099 67.4617 85.9916 67.2708 85.938 67.0621L84.7698 62.5287C84.7011 62.2638 84.5465 62.0292 84.3303 61.8614C84.1141 61.6937 83.8484 61.6023 83.5748 61.6016H78.1732C77.9 61.6017 77.6347 61.6929 77.4192 61.8608C77.2037 62.0288 77.0504 62.2638 76.9836 62.5287L75.81 67.0407C75.7573 67.249 75.6509 67.4397 75.5014 67.5939C75.3519 67.7482 75.1645 67.8604 74.958 67.9195C73.3314 68.3781 71.7647 69.0274 70.2906 69.854C70.1041 69.9592 69.8937 70.0145 69.6797 70.0145C69.4656 70.0145 69.2552 69.9592 69.0688 69.854L65.0122 67.4694C64.776 67.3311 64.5006 67.2751 64.2291 67.31C63.9576 67.3449 63.7054 67.4688 63.5118 67.6623L59.6964 71.4777C59.5021 71.6708 59.3776 71.9231 59.3427 72.1948C59.3077 72.4666 59.3643 72.7422 59.5035 72.9781L61.8827 77.0133C61.9905 77.1988 62.0473 77.4096 62.0473 77.6242C62.0473 77.8387 61.9905 78.0495 61.8827 78.2351C61.0592 79.7106 60.41 81.2769 59.9483 82.9025C59.8911 83.1091 59.7801 83.2969 59.6267 83.4465C59.4732 83.5962 59.2828 83.7025 59.0748 83.7545L54.536 84.9281C54.2716 84.997 54.0377 85.1517 53.8708 85.368C53.704 85.5843 53.6137 85.8499 53.6143 86.1231V91.5193C53.6137 91.7924 53.704 92.058 53.8708 92.2743C54.0377 92.4906 54.2716 92.6454 54.536 92.7143L59.0748 93.8825C59.2827 93.9364 59.4728 94.044 59.626 94.1945C59.7793 94.3449 59.8904 94.533 59.9483 94.7399C60.41 96.3654 61.0592 97.9317 61.8827 99.4073C61.9905 99.5928 62.0473 99.8036 62.0473 100.018C62.0473 100.233 61.9905 100.444 61.8827 100.629L59.5035 104.664C59.3647 104.899 59.3084 105.174 59.3433 105.445C59.3782 105.716 59.5025 105.967 59.6964 106.159L63.5118 109.98C63.7055 110.174 63.9582 110.297 64.2299 110.331C64.5016 110.365 64.7768 110.307 65.0122 110.168L69.0473 107.788C69.2332 107.682 69.4439 107.625 69.6582 107.625C69.8726 107.625 70.0832 107.682 70.2691 107.788C71.7901 108.64 73.4098 109.303 75.092 109.76" fill="#E4E9EA"/>
<path d="M75.3606 104.101C71.7728 102.798 68.759 100.273 66.8488 96.968C64.9386 93.6634 64.2541 89.7912 64.9156 86.0319C65.5771 82.2726 67.5423 78.8667 70.4659 76.4127C73.3895 73.9586 77.0844 72.6134 80.9015 72.6134C84.7185 72.6134 88.4134 73.9586 91.337 76.4127C94.2606 78.8667 96.2259 82.2726 96.8874 86.0319C97.5489 89.7912 96.8644 93.6634 94.9542 96.968C93.0439 100.273 90.0301 102.798 86.4424 104.101" fill="white"/>
<path d="M85.8474 84.8905V81.6217C85.8466 81.386 85.9134 81.1551 86.0398 80.9562C86.1663 80.7573 86.3471 80.5989 86.5608 80.4996C86.7746 80.4003 87.0123 80.3645 87.2458 80.3962C87.4793 80.4279 87.6989 80.5259 87.8784 80.6786C89.1796 81.8009 90.1919 83.2196 90.8299 84.8151C91.468 86.4106 91.713 88.1361 91.5443 89.8462C91.3757 91.5562 90.7983 93.2007 89.861 94.6408C88.9236 96.081 87.6536 97.2747 86.1582 98.1211L87.2943 121.758H74.5138L75.6445 98.1801C74.1251 97.338 72.8331 96.1393 71.8799 94.6871C70.9266 93.2349 70.3406 91.5727 70.1724 89.8437C70.0042 88.1147 70.2588 86.3708 70.9143 84.762C71.5697 83.1533 72.6064 81.728 73.935 80.6089C74.115 80.4576 74.3346 80.3609 74.5677 80.3303C74.8008 80.2997 75.0379 80.3364 75.2508 80.4361C75.4638 80.5358 75.6437 80.6944 75.7695 80.8931C75.8953 81.0917 75.9616 81.3222 75.9606 81.5574V84.8959" fill="white"/>
<path d="M93.9498 133.489H68.1423C67.7639 133.489 67.3929 133.384 67.071 133.186C66.749 132.987 66.4891 132.702 66.3204 132.363L63.9411 127.562C63.88 127.439 63.8511 127.303 63.8573 127.167C63.8634 127.03 63.9044 126.897 63.9763 126.781C64.0482 126.664 64.1487 126.568 64.2682 126.501C64.3877 126.434 64.5223 126.399 64.6592 126.399H97.4812C97.6187 126.398 97.7541 126.432 97.8745 126.498C97.9948 126.565 98.096 126.661 98.1682 126.778C98.2404 126.895 98.2812 127.029 98.2867 127.166C98.2921 127.303 98.262 127.44 98.1993 127.562L95.8039 132.353C95.6349 132.699 95.3706 132.989 95.0423 133.191C94.7139 133.392 94.3349 133.495 93.9498 133.489ZM65.9292 128.017L67.7404 131.64C67.7756 131.712 67.8305 131.773 67.8987 131.816C67.9669 131.859 68.0458 131.881 68.1262 131.881H93.9498C94.0303 131.881 94.1092 131.859 94.1774 131.816C94.2456 131.773 94.3005 131.712 94.3357 131.64L96.1469 128.017H65.9292Z" fill="#9AA6A5"/>
<path d="M78.2589 82.8489L80.2845 81.6807C80.4719 81.5726 80.6844 81.5156 80.9007 81.5156C81.1171 81.5156 81.3296 81.5726 81.517 81.6807L85.2306 83.8242C85.4186 83.9328 85.5746 84.089 85.6828 84.2772C85.791 84.4654 85.8476 84.6789 85.8468 84.896V89.1829C85.8476 89.4 85.791 89.6135 85.6828 89.8017C85.5746 89.9898 85.4186 90.1461 85.2306 90.2547L81.517 92.3982C81.3296 92.5063 81.1171 92.5633 80.9007 92.5633C80.6844 92.5633 80.4719 92.5063 80.2845 92.3982L78.2589 91.23L76.5763 90.2547C76.3875 90.147 76.2309 89.9909 76.1226 89.8025C76.0143 89.6141 75.9581 89.4002 75.96 89.1829V84.896C75.9581 84.6787 76.0143 84.4648 76.1226 84.2764C76.2309 84.088 76.3875 83.9319 76.5763 83.8242L78.2589 82.8489Z" fill="#E4E9EA"/>
<path d="M42.5811 128.044C42.368 128.044 42.1635 127.96 42.0128 127.809C41.862 127.658 41.7773 127.454 41.7773 127.24V75.1806C41.7788 74.2672 42.1422 73.3916 42.7881 72.7457C43.434 72.0998 44.3096 71.7363 45.223 71.7349H59.37C59.5832 71.7349 59.7876 71.8196 59.9384 71.9703C60.0891 72.1211 60.1738 72.3255 60.1738 72.5387C60.1738 72.7519 60.0891 72.9564 59.9384 73.1071C59.7876 73.2578 59.5832 73.3425 59.37 73.3425H45.223C44.736 73.3439 44.2693 73.5381 43.9249 73.8824C43.5805 74.2268 43.3864 74.6935 43.385 75.1806V127.24C43.385 127.454 43.3003 127.658 43.1495 127.809C42.9988 127.96 42.7943 128.044 42.5811 128.044Z" fill="#9AA6A5"/>
<path d="M117.405 128.044C117.192 128.044 116.987 127.96 116.836 127.809C116.686 127.658 116.601 127.454 116.601 127.24V75.1806C116.596 74.9487 116.543 74.7203 116.447 74.5094C116.351 74.2984 116.212 74.1094 116.04 73.9539C115.868 73.7984 115.666 73.6796 115.446 73.6049C115.227 73.5302 114.994 73.5011 114.763 73.5194L111.012 73.3425H102.379C102.166 73.3425 101.961 73.2578 101.811 73.1071C101.66 72.9564 101.575 72.7519 101.575 72.5387C101.575 72.3255 101.66 72.1211 101.811 71.9703C101.961 71.8196 102.166 71.7349 102.379 71.7349H111.055L114.806 71.9118C115.246 71.8944 115.685 71.9662 116.097 72.1226C116.509 72.279 116.885 72.517 117.203 72.8222C117.52 73.1274 117.773 73.4936 117.946 73.8988C118.119 74.3041 118.208 74.74 118.209 75.1806V127.24C118.209 127.346 118.188 127.45 118.147 127.548C118.107 127.646 118.048 127.734 117.973 127.809C117.899 127.883 117.81 127.943 117.712 127.983C117.615 128.023 117.51 128.044 117.405 128.044Z" fill="#9AA6A5"/>
<path d="M39.7572 138.981C38.8443 138.981 37.9686 138.619 37.3226 137.974C36.6766 137.329 36.3129 136.454 36.3115 135.541V128.473C36.3115 127.933 36.5261 127.415 36.9079 127.033C37.2898 126.651 37.8078 126.437 38.3478 126.437H64.4769C64.6901 126.437 64.8945 126.521 65.0453 126.672C65.196 126.823 65.2807 127.027 65.2807 127.24C65.2807 127.454 65.196 127.658 65.0453 127.809C64.8945 127.959 64.6901 128.044 64.4769 128.044H38.3478C38.2341 128.044 38.1251 128.089 38.0447 128.17C37.9643 128.25 37.9191 128.359 37.9191 128.473V135.541C37.9191 135.782 37.9667 136.021 38.0591 136.244C38.1516 136.466 38.2871 136.669 38.4578 136.839C38.6286 137.009 38.8312 137.144 39.0542 137.236C39.2772 137.328 39.516 137.374 39.7572 137.374H116.526L120.197 137.202C120.431 137.225 120.667 137.2 120.891 137.127C121.114 137.054 121.321 136.936 121.497 136.781C121.673 136.625 121.815 136.434 121.914 136.221C122.013 136.008 122.067 135.776 122.072 135.541V128.832C122.072 128.613 121.985 128.403 121.831 128.248C121.754 128.171 121.663 128.11 121.563 128.069C121.463 128.028 121.355 128.007 121.247 128.007L97.2882 128.044C97.0751 128.044 96.8706 127.959 96.7199 127.809C96.5691 127.658 96.4844 127.454 96.4844 127.24C96.4844 127.027 96.5691 126.823 96.7199 126.672C96.8706 126.521 97.0751 126.437 97.2882 126.437L121.247 126.399C121.567 126.399 121.883 126.462 122.178 126.584C122.473 126.707 122.741 126.886 122.967 127.112C123.193 127.338 123.372 127.606 123.495 127.901C123.617 128.196 123.68 128.512 123.68 128.832V135.541C123.677 135.985 123.585 136.423 123.409 136.83C123.233 137.238 122.976 137.605 122.654 137.91C122.332 138.216 121.952 138.453 121.536 138.607C121.12 138.762 120.677 138.831 120.234 138.81L116.564 138.981H39.7572Z" fill="#9AA6A5"/>
<path d="M74.5131 122.573H49.2843C48.7443 122.573 48.2263 122.358 47.8445 121.976C47.4626 121.595 47.248 121.077 47.248 120.537V79.2424C47.248 78.7024 47.4626 78.1844 47.8445 77.8025C48.2263 77.4207 48.7443 77.2061 49.2843 77.2061H61.9202C62.1334 77.2061 62.3378 77.2908 62.4886 77.4415C62.6393 77.5923 62.724 77.7967 62.724 78.0099C62.724 78.2231 62.6393 78.4276 62.4886 78.5783C62.3378 78.729 62.1334 78.8137 61.9202 78.8137H49.2843C49.1707 78.8137 49.0616 78.8589 48.9812 78.9393C48.9008 79.0197 48.8557 79.1287 48.8557 79.2424V120.537C48.8557 120.593 48.8667 120.649 48.8883 120.701C48.9098 120.753 48.9414 120.8 48.9812 120.84C49.021 120.88 49.0683 120.911 49.1203 120.933C49.1723 120.954 49.2281 120.965 49.2843 120.965H74.5131C74.7263 120.965 74.9308 121.05 75.0815 121.201C75.2323 121.351 75.317 121.556 75.317 121.769C75.317 121.982 75.2323 122.187 75.0815 122.337C74.9308 122.488 74.7263 122.573 74.5131 122.573Z" fill="#9AA6A5"/>
<path d="M112.463 122.573H87.2774C87.0643 122.573 86.8598 122.488 86.7091 122.337C86.5583 122.187 86.4736 121.982 86.4736 121.769C86.4736 121.556 86.5583 121.351 86.7091 121.201C86.8598 121.05 87.0643 120.965 87.2774 120.965H112.463C112.519 120.966 112.574 120.955 112.626 120.934C112.677 120.912 112.724 120.881 112.763 120.842C112.804 120.802 112.836 120.755 112.858 120.702C112.881 120.65 112.892 120.594 112.892 120.537V79.2424C112.892 79.1287 112.847 79.0197 112.767 78.9393C112.686 78.8589 112.577 78.8137 112.463 78.8137H99.8436C99.6304 78.8137 99.426 78.729 99.2752 78.5783C99.1245 78.4276 99.0398 78.2231 99.0398 78.0099C99.0398 77.7967 99.1245 77.5923 99.2752 77.4415C99.426 77.2908 99.6304 77.2061 99.8436 77.2061H112.479C113.019 77.2061 113.537 77.4207 113.919 77.8025C114.301 78.1844 114.516 78.7024 114.516 79.2424V120.537C114.516 120.804 114.464 121.069 114.362 121.317C114.26 121.564 114.11 121.789 113.921 121.978C113.732 122.167 113.507 122.317 113.26 122.419C113.012 122.521 112.747 122.574 112.479 122.573H112.463Z" fill="#9AA6A5"/>
<path d="M64.4069 111.143C64.1393 111.144 63.8741 111.091 63.6268 110.989C63.3794 110.887 63.1546 110.737 62.9654 110.548L59.1446 106.733C58.8264 106.412 58.6233 105.996 58.567 105.548C58.5108 105.1 58.6046 104.646 58.8338 104.257L61.2131 100.222C61.2497 100.157 61.269 100.084 61.269 100.01C61.269 99.936 61.2497 99.863 61.2131 99.7985C60.3601 98.2741 59.6876 96.6556 59.2089 94.9757C59.1877 94.9059 59.1489 94.8427 59.0964 94.7921C59.0439 94.7414 58.9793 94.705 58.9088 94.6863L54.37 93.5127C53.9324 93.4007 53.5446 93.146 53.268 92.7888C52.9914 92.4317 52.8418 91.9925 52.8428 91.5407V86.1231C52.8418 85.6713 52.9914 85.2322 53.268 84.875C53.5446 84.5179 53.9324 84.2631 54.37 84.1511L58.9088 82.9775C58.98 82.9583 59.0449 82.9211 59.0975 82.8695C59.1501 82.8179 59.1884 82.7536 59.2089 82.6828C59.6883 81.0031 60.3609 79.3847 61.2131 77.86C61.2497 77.7954 61.269 77.7225 61.269 77.6483C61.269 77.5741 61.2497 77.5012 61.2131 77.4366L58.8338 73.4015C58.6046 73.0126 58.5108 72.5586 58.567 72.1107C58.6233 71.6627 58.8264 71.246 59.1446 70.9258L62.9654 67.1104C63.2845 66.7905 63.7009 66.5858 64.1491 66.5286C64.5973 66.4713 65.0518 66.5648 65.4411 66.7942L69.4762 69.1735C69.5397 69.2102 69.6118 69.2295 69.6852 69.2295C69.7586 69.2295 69.8306 69.2102 69.8942 69.1735C71.4183 68.3187 73.0368 67.6443 74.717 67.164C74.7883 67.1445 74.8531 67.1064 74.9049 67.0537C74.9567 67.001 74.9935 66.9355 75.0118 66.8639L76.1799 62.3251C76.2936 61.8884 76.5488 61.5016 76.9056 61.2253C77.2624 60.949 77.7007 60.7987 78.1519 60.7979H83.5535C84.0048 60.7987 84.4431 60.949 84.7999 61.2253C85.1566 61.5016 85.4118 61.8884 85.5255 62.3251L86.6937 66.8639C86.7135 66.9362 86.7515 67.0022 86.804 67.0557C86.8566 67.1091 86.9219 67.1482 86.9938 67.1693C88.0316 67.4514 89.0471 67.8096 90.0322 68.2411C90.6431 68.5144 91.2486 68.8198 91.8274 69.1467C91.8919 69.1833 91.9648 69.2026 92.039 69.2026C92.1132 69.2026 92.1862 69.1833 92.2507 69.1467L94.3406 67.9142L96.2805 66.7674C96.6697 66.538 97.1242 66.4445 97.5724 66.5018C98.0206 66.559 98.4371 66.7637 98.7562 67.0836L102.577 70.899C102.895 71.2192 103.098 71.6359 103.155 72.0839C103.211 72.5318 103.117 72.9858 102.888 73.3747L100.508 77.4098C100.472 77.4744 100.453 77.5473 100.453 77.6215C100.453 77.6957 100.472 77.7687 100.508 77.8332C101.361 79.3579 102.033 80.9764 102.513 82.656C102.533 82.7277 102.572 82.7927 102.626 82.8444C102.679 82.8962 102.746 82.9328 102.818 82.9507L107.352 84.1243C107.789 84.2363 108.177 84.4911 108.454 84.8482C108.73 85.2054 108.88 85.6446 108.879 86.0963V91.4925C108.88 91.9443 108.73 92.3834 108.454 92.7406C108.177 93.0977 107.789 93.3525 107.352 93.4645L102.818 94.6381C102.747 94.656 102.681 94.692 102.627 94.7427C102.574 94.7934 102.534 94.857 102.513 94.9275C102.034 96.6074 101.361 98.2259 100.508 99.7503C100.472 99.8148 100.453 99.8877 100.453 99.962C100.453 100.036 100.472 100.109 100.508 100.174L102.888 104.209C103.117 104.598 103.211 105.052 103.155 105.5C103.098 105.948 102.895 106.364 102.577 106.684L98.7723 110.548C98.4532 110.868 98.0367 111.073 97.5885 111.13C97.1403 111.187 96.6858 111.094 96.2965 110.864L92.2614 108.48C92.1975 108.444 92.1256 108.425 92.0524 108.425C91.9793 108.425 91.9073 108.444 91.8434 108.48C90.2883 109.35 88.6352 110.031 86.9188 110.511C86.7128 110.565 86.4936 110.537 86.3083 110.432C86.123 110.326 85.9862 110.153 85.9274 109.948C85.8716 109.743 85.8995 109.523 86.0049 109.339C86.1104 109.154 86.2849 109.018 86.4901 108.962C88.0814 108.517 89.6141 107.883 91.0557 107.076C91.3668 106.904 91.717 106.817 92.0721 106.822C92.4271 106.826 92.7748 106.923 93.0813 107.102L97.1164 109.482C97.1993 109.535 97.2981 109.558 97.3959 109.546C97.4937 109.534 97.5844 109.489 97.6523 109.417L101.473 105.597C101.543 105.528 101.587 105.437 101.599 105.34C101.61 105.243 101.589 105.144 101.537 105.061L99.1581 101.026C98.9818 100.718 98.8891 100.37 98.8891 100.016C98.8891 99.6611 98.9818 99.3129 99.1581 99.0054C99.9523 97.585 100.576 96.0759 101.018 94.5095C101.117 94.1684 101.303 93.8588 101.557 93.6109C101.812 93.363 102.126 93.1851 102.47 93.0948L107.003 91.9266C107.096 91.9027 107.178 91.8486 107.236 91.7729C107.294 91.6971 107.325 91.6041 107.325 91.5086V86.1231C107.326 86.0273 107.295 85.9338 107.237 85.8579C107.179 85.782 107.096 85.7281 107.003 85.7051L102.47 84.5369C102.126 84.4475 101.811 84.27 101.556 84.022C101.302 83.7739 101.116 83.4638 101.018 83.1222C100.576 81.5558 99.9523 80.0467 99.1581 78.6263C98.9818 78.3188 98.8891 77.9705 98.8891 77.6161C98.8891 77.2617 98.9818 76.9135 99.1581 76.606L101.537 72.5709C101.587 72.4866 101.607 72.3881 101.595 72.291C101.582 72.1939 101.537 72.1039 101.468 72.0351L97.6523 68.2197C97.5844 68.1483 97.4937 68.1028 97.3959 68.091C97.2981 68.0793 97.1993 68.102 97.1164 68.1553C95.9697 68.8305 95.4391 69.1414 95.1605 69.286L93.0759 70.5185C92.7675 70.6948 92.4184 70.7875 92.0632 70.7875C91.7079 70.7875 91.3588 70.6948 91.0504 70.5185C90.5145 70.2184 89.9518 69.9344 89.3838 69.6826C88.4682 69.2741 87.5244 68.9321 86.5598 68.6591C86.2181 68.5626 85.9076 68.3783 85.6594 68.1244C85.4112 67.8705 85.2338 67.556 85.1451 67.2122L83.9715 62.6734C83.9479 62.5818 83.8945 62.5006 83.8199 62.4424C83.7453 62.3842 83.6535 62.3524 83.5589 62.3519H78.1734C78.0788 62.3524 77.987 62.3842 77.9123 62.4424C77.8377 62.5006 77.7844 62.5818 77.7608 62.6734L76.5872 67.2122C76.4975 67.5555 76.3198 67.8695 76.0717 68.1232C75.8236 68.377 75.5137 68.5616 75.1725 68.6591C73.6071 69.1007 72.0997 69.7267 70.6819 70.5239C70.3731 70.6991 70.0242 70.7912 69.6691 70.7912C69.3141 70.7912 68.9651 70.6991 68.6563 70.5239L64.6212 68.1446C64.5384 68.0913 64.4395 68.0686 64.3417 68.0803C64.2439 68.0921 64.1532 68.1375 64.0853 68.2089L60.2699 72.0243C60.2003 72.0931 60.1556 72.1832 60.143 72.2803C60.1304 72.3774 60.1505 72.4759 60.2003 72.5602L62.5849 76.5953C62.7612 76.9028 62.8539 77.251 62.8539 77.6054C62.8539 77.9598 62.7612 78.3081 62.5849 78.6155C61.7907 80.036 61.1666 81.545 60.7254 83.1115C60.6275 83.4525 60.4427 83.7621 60.189 84.0101C59.9354 84.2581 59.6217 84.436 59.2786 84.5262L54.7398 85.6944C54.6473 85.7183 54.5654 85.7724 54.5071 85.8481C54.4489 85.9238 54.4176 86.0168 54.4182 86.1124V91.5086C54.4185 91.6039 54.4501 91.6965 54.5082 91.772C54.5664 91.8475 54.6477 91.9019 54.7398 91.9266L59.2786 93.0948C59.6217 93.185 59.9354 93.3628 60.189 93.6108C60.4427 93.8588 60.6275 94.1685 60.7254 94.5095C61.1675 96.0756 61.7916 97.5846 62.5849 99.0054C62.7627 99.3124 62.8564 99.6608 62.8564 100.016C62.8564 100.37 62.7627 100.719 62.5849 101.026L60.2164 105.088C60.1647 105.171 60.1434 105.27 60.1561 105.368C60.1688 105.465 60.2147 105.556 60.286 105.623L64.1014 109.444C64.1693 109.516 64.26 109.561 64.3578 109.573C64.4556 109.585 64.5544 109.562 64.6373 109.508L68.6778 107.129C68.9832 106.95 69.3301 106.853 69.6843 106.848C70.0385 106.844 70.3879 106.931 70.698 107.102C72.1553 107.919 73.7064 108.556 75.3172 108.999C75.5233 109.056 75.6986 109.191 75.8046 109.377C75.9107 109.562 75.9387 109.782 75.8825 109.988C75.8264 110.194 75.6907 110.37 75.5053 110.476C75.3199 110.582 75.0999 110.61 74.8939 110.553C73.1569 110.072 71.4838 109.385 69.9103 108.506C69.8464 108.471 69.7744 108.452 69.7013 108.452C69.6281 108.452 69.5562 108.471 69.4923 108.506L65.4572 110.891C65.1358 111.067 64.7732 111.154 64.4069 111.143Z" fill="#9AA6A5"/>
<path d="M75.3602 104.905C75.267 104.905 75.1745 104.889 75.0869 104.857C72.6853 103.99 70.5093 102.594 68.7195 100.773C66.9297 98.9516 65.5719 96.7517 64.7464 94.3354C63.9209 91.9191 63.6488 89.3483 63.9502 86.8127C64.2515 84.2772 65.1187 81.8417 66.4875 79.6863C67.8564 77.5308 69.692 75.7104 71.8588 74.3595C74.0256 73.0086 76.4681 72.1618 79.0061 71.8815C81.5441 71.6012 84.1126 71.8947 86.5219 72.7403C88.9312 73.5858 91.1198 74.9619 92.926 76.7667C94.9511 78.7928 96.4331 81.2965 97.2352 84.0466C98.0373 86.7967 98.1336 89.7045 97.5152 92.5017C96.8968 95.2988 95.5837 97.895 93.6971 100.051C91.8104 102.206 89.4111 103.852 86.7206 104.836C86.6195 104.88 86.5102 104.903 86.3997 104.903C86.2893 104.904 86.1799 104.881 86.0785 104.837C85.9771 104.793 85.8858 104.729 85.8104 104.648C85.7349 104.568 85.6769 104.472 85.64 104.368C85.6031 104.264 85.588 104.153 85.5957 104.043C85.6035 103.933 85.6339 103.826 85.685 103.728C85.7361 103.63 85.8069 103.543 85.8929 103.474C85.9788 103.405 86.0782 103.354 86.1848 103.324C89.5976 102.086 92.4647 99.6836 94.2822 96.5404C96.0996 93.3973 96.7511 89.7141 96.1222 86.1382C95.4933 82.5624 93.6242 79.3225 90.8433 76.9881C88.0625 74.6537 84.5479 73.374 80.9171 73.374C77.2864 73.374 73.7718 74.6537 70.9909 76.9881C68.2101 79.3225 66.341 82.5624 65.7121 86.1382C65.0832 89.7141 65.7347 93.3973 67.5521 96.5404C69.3696 99.6836 72.2366 102.086 75.6495 103.324C75.8249 103.392 75.9714 103.518 76.0641 103.681C76.1568 103.844 76.1898 104.034 76.1575 104.219C76.1252 104.404 76.0296 104.572 75.887 104.694C75.7445 104.817 75.5639 104.886 75.3762 104.889L75.3602 104.905Z" fill="#9AA6A5"/>
<path d="M87.2936 122.573H74.5131C74.2935 122.571 74.0835 122.483 73.929 122.326C73.8545 122.247 73.7967 122.153 73.7589 122.051C73.7212 121.949 73.7043 121.84 73.7093 121.732L74.8186 98.6249C73.264 97.67 71.9582 96.36 71.0084 94.8023C70.0586 93.2447 69.4919 91.484 69.3548 89.6648C69.2178 87.8456 69.5143 86.0198 70.2201 84.3374C70.9258 82.6551 72.0206 81.1642 73.4146 79.9873C73.7118 79.7366 74.0745 79.5763 74.4599 79.5252C74.8453 79.4741 75.2372 79.5344 75.5894 79.6989C75.9416 79.8635 76.2394 80.1254 76.4475 80.4538C76.6556 80.7822 76.7654 81.1632 76.7638 81.552V84.8905C76.7638 85.1037 76.6791 85.3081 76.5284 85.4589C76.3776 85.6096 76.1732 85.6943 75.96 85.6943C75.7468 85.6943 75.5424 85.6096 75.3916 85.4589C75.2409 85.3081 75.1562 85.1037 75.1562 84.8905V81.552C75.1576 81.4678 75.1339 81.3851 75.0881 81.3145C75.0422 81.2439 74.9764 81.1885 74.899 81.1555C74.8269 81.122 74.7468 81.1098 74.668 81.1202C74.5892 81.1306 74.5151 81.1633 74.4542 81.2144C73.2253 82.2501 72.2665 83.569 71.6603 85.0574C71.054 86.5458 70.8186 88.1592 70.9741 89.7588C71.1296 91.3584 71.6715 92.8962 72.5531 94.24C73.4347 95.5837 74.6296 96.6931 76.035 97.4727C76.1658 97.5454 76.2737 97.6531 76.3466 97.7837C76.4195 97.9144 76.4545 98.0628 76.4476 98.2122L75.3759 120.965H86.447L85.3752 98.1694C85.3691 98.0207 85.4038 97.8731 85.4756 97.7427C85.5474 97.6124 85.6535 97.5041 85.7825 97.4299C87.1671 96.6471 88.3432 95.543 89.2119 94.2106C90.0805 92.8782 90.6162 91.3566 90.7738 89.7739C90.9313 88.1912 90.7062 86.5938 90.1174 85.1163C89.5285 83.6388 88.5932 82.3245 87.3901 81.2841C87.3299 81.2318 87.2556 81.1983 87.1766 81.1878C87.0975 81.1774 87.0171 81.1903 86.9453 81.2251C86.8683 81.2587 86.8029 81.3143 86.7571 81.3848C86.7114 81.4553 86.6874 81.5376 86.6881 81.6217V84.8905C86.6881 85.1037 86.6034 85.3081 86.4527 85.4589C86.3019 85.6096 86.0975 85.6943 85.8843 85.6943C85.6711 85.6943 85.4667 85.6096 85.3159 85.4589C85.1652 85.3081 85.0805 85.1037 85.0805 84.8905V81.6217C85.0789 81.2294 85.1908 80.8451 85.4029 80.5151C85.6149 80.1852 85.918 79.9236 86.2755 79.7622C86.625 79.6032 87.0128 79.548 87.3928 79.6031C87.7728 79.6582 88.129 79.8213 88.419 80.073C89.7856 81.253 90.8558 82.7378 91.5431 84.4074C92.2305 86.0771 92.5158 87.8849 92.376 89.6851C92.2363 91.4853 91.6754 93.2274 90.7386 94.771C89.8017 96.3145 88.5152 97.6163 86.9828 98.5713L88.0975 121.732C88.1014 121.841 88.0836 121.95 88.045 122.052C88.0063 122.154 87.9476 122.247 87.8724 122.326C87.7973 122.404 87.7074 122.466 87.608 122.508C87.5086 122.551 87.4017 122.573 87.2936 122.573Z" fill="#9AA6A5"/>
<path d="M80.9008 93.3572C80.5433 93.3568 80.1922 93.2626 79.8826 93.0839L76.1744 90.9405C75.8642 90.7626 75.6066 90.5058 75.4278 90.1962C75.2489 89.8865 75.1552 89.535 75.1563 89.1774V84.8905C75.1563 84.5331 75.2505 84.1821 75.4292 83.8726C75.6079 83.5631 75.8649 83.3061 76.1744 83.1275L79.8826 80.984C80.192 80.8047 80.5432 80.7103 80.9008 80.7103C81.2583 80.7103 81.6096 80.8047 81.9189 80.984L85.6325 83.1275C85.9413 83.307 86.1977 83.5641 86.3763 83.8734C86.5549 84.1827 86.6495 84.5333 86.6507 84.8905V89.1774C86.6506 89.5348 86.5565 89.8859 86.3777 90.1953C86.199 90.5048 85.942 90.7618 85.6325 90.9405L81.9189 93.0839C81.6098 93.2638 81.2584 93.3581 80.9008 93.3572ZM80.9008 82.3183C80.8255 82.3195 80.7518 82.3398 80.6864 82.3772L78.6609 83.5454L76.9782 84.5207C76.9129 84.5578 76.8586 84.6116 76.821 84.6766C76.7833 84.7415 76.7636 84.8154 76.7639 84.8905V89.1774C76.7637 89.2532 76.7835 89.3277 76.8211 89.3935C76.8587 89.4594 76.9128 89.5142 76.9782 89.5526L80.6864 91.696C80.7518 91.7331 80.8256 91.7527 80.9008 91.7527C80.9759 91.7527 81.0498 91.7331 81.1151 91.696L84.8287 89.5526C84.8941 89.5142 84.9483 89.4594 84.9859 89.3935C85.0235 89.3277 85.0432 89.2532 85.0431 89.1774V84.8905C85.0434 84.8154 85.0237 84.7415 84.986 84.6766C84.9483 84.6116 84.894 84.5578 84.8287 84.5207L81.1151 82.3772C81.0501 82.3391 80.9762 82.3188 80.9008 82.3183Z" fill="#9AA6A5"/>
<path d="M78.2002 50.4983C75.3163 50.4983 72.4972 49.6432 70.0994 48.041C67.7015 46.4388 65.8327 44.1615 64.7291 41.4972C63.6255 38.8329 63.3367 35.9011 63.8993 33.0727C64.4619 30.2442 65.8506 27.6461 67.8898 25.6069C69.929 23.5677 72.5271 22.179 75.3556 21.6164C78.184 21.0538 81.1158 21.3426 83.7801 22.4462C86.4444 23.5498 88.7217 25.4187 90.3239 27.8165C91.9261 30.2143 92.7812 33.0334 92.7812 35.9173C92.7756 39.7827 91.2375 43.4881 88.5043 46.2214C85.771 48.9546 82.0656 50.4927 78.2002 50.4983ZM78.2002 22.9439C75.6343 22.9439 73.126 23.7047 70.9925 25.1303C68.8591 26.5558 67.1962 28.582 66.2143 30.9526C65.2324 33.3232 64.9754 35.9317 65.476 38.4483C65.9766 40.9649 67.2122 43.2765 69.0266 45.0909C70.8409 46.9053 73.1526 48.1409 75.6692 48.6414C78.1858 49.142 80.7943 48.8851 83.1649 47.9032C85.5355 46.9212 87.5616 45.2584 88.9872 43.1249C90.4127 40.9915 91.1736 38.4832 91.1736 35.9173C91.1694 32.4778 89.8011 29.1805 87.3691 26.7484C84.937 24.3163 81.6396 22.9481 78.2002 22.9439Z" fill="#9AA6A5"/>
<path d="M75.6598 50.2625C75.5478 50.2626 75.437 50.2393 75.3346 50.1941C75.2322 50.1489 75.1403 50.0827 75.0649 50C72.7232 47.4117 71.2656 42.0744 71.2656 36.0673C71.2656 29.8137 72.8732 24.2192 75.3811 21.8132C75.5359 21.6727 75.7394 21.5981 75.9483 21.6052C76.1572 21.6123 76.3551 21.7004 76.5001 21.851C76.6451 22.0016 76.7258 22.2027 76.725 22.4117C76.7241 22.6207 76.6419 22.8212 76.4957 22.9707C74.3522 25.0552 72.8732 30.3228 72.8732 36.0673C72.8732 41.6029 74.2022 46.6454 76.2546 48.9282C76.3595 49.0434 76.4287 49.1867 76.4537 49.3405C76.4787 49.4943 76.4584 49.652 76.3954 49.7946C76.3324 49.9371 76.2293 50.0582 76.0987 50.1432C75.9681 50.2282 75.8156 50.2734 75.6598 50.2733V50.2625Z" fill="#9AA6A5"/>
<path d="M80.8744 50.2358C80.6764 50.2382 80.485 50.1654 80.3385 50.0322C80.2596 49.9619 80.1953 49.8767 80.1494 49.7815C80.1035 49.6864 80.0767 49.583 80.0708 49.4775C80.0648 49.372 80.0797 49.2663 80.1146 49.1666C80.1495 49.0668 80.2038 48.9749 80.2742 48.8962C82.3159 46.6187 83.6341 41.5815 83.6341 36.0728C83.6341 30.2747 82.1658 24.9963 79.9741 22.9332C79.8948 22.8614 79.8307 22.7745 79.7854 22.6775C79.7402 22.5806 79.7147 22.4756 79.7106 22.3687C79.7064 22.2618 79.7236 22.1551 79.7612 22.055C79.7988 21.9548 79.856 21.8632 79.9295 21.7854C80.003 21.7077 80.0913 21.6454 80.1891 21.6022C80.287 21.5589 80.3925 21.5357 80.4995 21.5338C80.6065 21.5319 80.7127 21.5514 80.8121 21.5911C80.9114 21.6308 81.0018 21.6899 81.078 21.765C83.6073 24.1497 85.2417 29.7656 85.2417 36.0728C85.2417 42.0477 83.8002 47.3743 81.4906 49.9679C81.4131 50.0541 81.318 50.1226 81.2117 50.1689C81.1053 50.2151 80.9903 50.2379 80.8744 50.2358Z" fill="#9AA6A5"/>
<path d="M91.4044 33.1951H65.0128C64.7996 33.1951 64.5952 33.1105 64.4444 32.9597C64.2937 32.809 64.209 32.6045 64.209 32.3913C64.209 32.1781 64.2937 31.9737 64.4444 31.823C64.5952 31.6722 64.7996 31.5875 65.0128 31.5875H91.4205C91.6337 31.5875 91.8381 31.6722 91.9889 31.823C92.1396 31.9737 92.2243 32.1781 92.2243 32.3913C92.2243 32.6045 92.1396 32.809 91.9889 32.9597C91.8381 33.1105 91.6337 33.1951 91.4205 33.1951H91.4044Z" fill="#9AA6A5"/>
<path d="M90.9484 41.3189H65.2267C65.0135 41.3189 64.809 41.2342 64.6583 41.0835C64.5075 40.9327 64.4229 40.7283 64.4229 40.5151C64.4229 40.3019 64.5075 40.0975 64.6583 39.9467C64.809 39.796 65.0135 39.7113 65.2267 39.7113H90.9484C91.1616 39.7113 91.3661 39.796 91.5168 39.9467C91.6676 40.0975 91.7523 40.3019 91.7523 40.5151C91.7523 40.7283 91.6676 40.9327 91.5168 41.0835C91.3661 41.2342 91.1616 41.3189 90.9484 41.3189Z" fill="#9AA6A5"/>
<path d="M148.672 83.8135H143.641C143.427 83.8135 143.223 83.7288 143.072 83.578C142.921 83.4273 142.837 83.2229 142.837 83.0097C142.837 82.7965 142.921 82.592 143.072 82.4413C143.223 82.2906 143.427 82.2059 143.641 82.2059H148.672C148.8 82.2059 148.923 82.1551 149.013 82.0646C149.104 81.9742 149.155 81.8515 149.155 81.7236V61.9339C149.155 61.806 149.104 61.6833 149.013 61.5929C148.923 61.5024 148.8 61.4516 148.672 61.4516H132.596C132.532 61.4509 132.469 61.4628 132.41 61.4868C132.351 61.5107 132.297 61.5461 132.252 61.591C132.206 61.6358 132.17 61.6892 132.146 61.7481C132.121 61.8069 132.109 61.8701 132.109 61.9339V64.9294C132.109 65.1426 132.024 65.347 131.873 65.4978C131.722 65.6485 131.518 65.7332 131.305 65.7332C131.092 65.7332 130.887 65.6485 130.736 65.4978C130.586 65.347 130.501 65.1426 130.501 64.9294V61.9339C130.502 61.3791 130.724 60.8476 131.117 60.4558C131.509 60.064 132.041 59.844 132.596 59.844H148.672C149.226 59.8454 149.757 60.066 150.149 60.4577C150.54 60.8493 150.761 61.38 150.762 61.9339V81.7236C150.761 82.2774 150.54 82.8082 150.149 83.1998C149.757 83.5914 149.226 83.8121 148.672 83.8135Z" fill="#9AA6A5"/>
<path d="M140.302 64.2166H128.781C128.611 64.2166 128.443 64.25 128.286 64.3149C128.13 64.3798 127.987 64.4749 127.868 64.5949C127.748 64.7148 127.652 64.8572 127.588 65.0138C127.523 65.1705 127.489 65.3385 127.489 65.5081V85.2924C127.489 85.462 127.523 85.6299 127.588 85.7866C127.652 85.9433 127.748 86.0857 127.868 86.2056C127.987 86.3255 128.13 86.4206 128.286 86.4855C128.443 86.5504 128.611 86.5838 128.781 86.5838H144.857C145.026 86.5838 145.194 86.5504 145.351 86.4855C145.508 86.4206 145.65 86.3255 145.77 86.2056C145.89 86.0857 145.985 85.9433 146.05 85.7866C146.115 85.6299 146.148 85.462 146.148 85.2924V69.1841L140.302 64.2166Z" fill="#E4E9EA"/>
<path d="M146.137 69.1627L140.302 64.2166V69.1627H146.137Z" fill="#E4E9EA"/>
<path d="M144.857 87.4039H128.781C128.226 87.4024 127.693 87.1812 127.301 86.7886C126.908 86.396 126.687 85.8639 126.686 85.3086V65.5082C126.687 64.9529 126.908 64.4208 127.301 64.0282C127.693 63.6356 128.226 63.4144 128.781 63.4129H140.302C140.498 63.4072 140.689 63.474 140.838 63.6005L146.674 68.5519C146.762 68.6284 146.833 68.723 146.882 68.8293C146.931 68.9356 146.957 69.0511 146.958 69.1682V85.2925C146.959 85.5693 146.906 85.8436 146.801 86.0997C146.696 86.3558 146.541 86.5886 146.346 86.7848C146.151 86.981 145.919 87.1367 145.663 87.2429C145.408 87.3492 145.134 87.4039 144.857 87.4039ZM128.781 65.0366C128.651 65.0366 128.527 65.088 128.436 65.1794C128.345 65.2709 128.293 65.3949 128.293 65.5243V85.3086C128.293 85.4379 128.345 85.562 128.436 85.6534C128.527 85.7449 128.651 85.7962 128.781 85.7962H144.857C144.986 85.7962 145.11 85.7449 145.202 85.6534C145.293 85.562 145.345 85.4379 145.345 85.3086V69.554L140.034 65.0206L128.781 65.0366Z" fill="#9AA6A5"/>
<path d="M146.137 69.9719H140.302C140.091 69.972 139.889 69.8895 139.739 69.7422C139.589 69.5949 139.502 69.3946 139.498 69.1842V64.2328C139.498 64.0793 139.541 63.929 139.624 63.7998C139.707 63.6705 139.825 63.5678 139.964 63.504C140.103 63.4391 140.257 63.4152 140.409 63.4351C140.561 63.4551 140.704 63.518 140.822 63.6165L146.657 68.568C146.785 68.675 146.877 68.8191 146.919 68.9804C146.961 69.1417 146.952 69.3122 146.894 69.4682C146.835 69.6243 146.729 69.7581 146.59 69.8513C146.452 69.9444 146.288 69.9922 146.121 69.988L146.137 69.9719ZM141.106 68.3643H143.946L141.106 65.969V68.3643Z" fill="#9AA6A5"/>
<path d="M141.529 74.9394H130.812C130.598 74.9394 130.394 74.8547 130.243 74.704C130.092 74.5532 130.008 74.3488 130.008 74.1356C130.008 73.9224 130.092 73.718 130.243 73.5672C130.394 73.4165 130.598 73.3318 130.812 73.3318H141.529C141.742 73.3318 141.947 73.4165 142.097 73.5672C142.248 73.718 142.333 73.9224 142.333 74.1356C142.333 74.3488 142.248 74.5532 142.097 74.704C141.947 74.8547 141.742 74.9394 141.529 74.9394Z" fill="#9AA6A5"/>
<path d="M142.997 79.4247H131.417C131.204 79.4247 130.999 79.34 130.849 79.1893C130.698 79.0385 130.613 78.8341 130.613 78.6209C130.613 78.4077 130.698 78.2033 130.849 78.0525C130.999 77.9018 131.204 77.8171 131.417 77.8171H142.997C143.21 77.8171 143.415 77.9018 143.566 78.0525C143.716 78.2033 143.801 78.4077 143.801 78.6209C143.801 78.8341 143.716 79.0385 143.566 79.1893C143.415 79.34 143.21 79.4247 142.997 79.4247Z" fill="#9AA6A5"/>
<path d="M31.8792 79.0549H10.4444C9.21358 79.0549 8.03322 78.5659 7.16293 77.6957C6.29264 76.8254 5.80371 75.645 5.80371 74.4142C5.80371 73.1835 6.29264 72.0031 7.16293 71.1328C8.03322 70.2625 9.21358 69.7736 10.4444 69.7736H10.8891C11.0077 69.7717 11.1242 69.7422 11.2294 69.6873C11.3345 69.6324 11.4254 69.5537 11.4947 69.4574C11.5603 69.3612 11.6022 69.2509 11.6171 69.1354C11.632 69.02 11.6194 68.9026 11.5804 68.7929C11.295 68.017 11.1463 67.1975 11.141 66.3708C11.1265 64.5626 11.7837 62.8135 12.9853 61.4622C14.1869 60.111 15.8474 59.2539 17.6448 59.0571C19.4423 58.8603 21.2489 59.3377 22.7144 60.3969C24.18 61.4561 25.2002 63.0215 25.5773 64.79C25.6001 64.9033 25.6508 65.0092 25.7247 65.098C25.7986 65.1869 25.8934 65.256 26.0007 65.2991C26.1135 65.3449 26.2356 65.3629 26.3568 65.3517C26.478 65.3405 26.5948 65.3004 26.6973 65.2348C27.4201 64.7189 28.28 64.4298 29.1677 64.4042C29.7749 64.4023 30.3763 64.5218 30.9367 64.7555C31.4971 64.9893 32.0052 65.3326 32.4311 65.7653C32.8635 66.1987 33.2055 66.7137 33.4373 67.2803C33.6691 67.847 33.7861 68.454 33.7815 69.0662C33.7773 69.1424 33.7647 69.2179 33.744 69.2913C33.7065 69.4146 33.6851 69.5485 33.6583 69.6825C33.64 69.8255 33.6656 69.9708 33.7316 70.099C33.7976 70.2272 33.901 70.3323 34.028 70.4005C34.7628 70.7845 35.3796 71.3605 35.8127 72.0673C36.2459 72.7742 36.4791 73.5853 36.4877 74.4142C36.4863 75.639 36.0013 76.8137 35.1383 77.6828C34.2752 78.5519 33.1039 79.045 31.8792 79.0549ZM10.4444 71.3812C9.63994 71.3812 8.86848 71.7008 8.29968 72.2696C7.73087 72.8384 7.41132 73.6098 7.41132 74.4142C7.41132 75.2186 7.73087 75.9901 8.29968 76.5589C8.86848 77.1277 9.63994 77.4473 10.4444 77.4473H31.8792C32.6817 77.4444 33.4504 77.1236 34.0169 76.5551C34.5834 75.9866 34.9015 75.2168 34.9015 74.4142C34.8937 73.8761 34.7401 73.3502 34.457 72.8925C34.1739 72.4348 33.7719 72.0625 33.2939 71.8153C32.8781 71.586 32.5421 71.2355 32.3305 70.8104C32.1189 70.3854 32.0419 69.9059 32.1096 69.436C32.1418 69.2538 32.1739 69.0984 32.2061 68.9537C32.1879 68.169 31.8641 67.4223 31.3036 66.8728C30.743 66.3233 29.9901 66.0144 29.2052 66.0118C28.6244 66.0395 28.0648 66.2391 27.5976 66.5852C27.2828 66.7882 26.9244 66.9135 26.5517 66.9508C26.179 66.988 25.8028 66.9362 25.4541 66.7995C25.0985 66.661 24.7829 66.4361 24.536 66.1451C24.289 65.8542 24.1183 65.5063 24.0394 65.1329C23.7316 63.7667 22.9312 62.5618 21.7913 61.7483C20.6513 60.9348 19.2516 60.5697 17.8596 60.7229C16.4675 60.876 15.1806 61.5366 14.2448 62.5784C13.3089 63.6203 12.7896 64.9704 12.7861 66.3708C12.7919 67.019 12.9116 67.6611 13.1398 68.2678C13.2641 68.6239 13.3006 69.0048 13.2461 69.3781C13.1916 69.7514 13.0477 70.106 12.8267 70.4117C12.6057 70.7174 12.3142 70.9652 11.9768 71.134C11.6394 71.3028 11.2663 71.3876 10.8891 71.3812H10.4444Z" fill="#9AA6A5"/>
<path d="M25.0308 60.3048C24.8682 60.3065 24.7091 60.2578 24.5753 60.1655C24.3998 60.0441 24.2794 59.8583 24.2403 59.6485C24.2012 59.4388 24.2464 59.2221 24.3663 59.0455C24.9022 58.306 25.4113 57.5612 25.9739 56.8431C26.0376 56.7587 26.1173 56.6876 26.2085 56.6339C26.2996 56.5803 26.4004 56.5451 26.5052 56.5304C26.6099 56.5158 26.7166 56.5219 26.8189 56.5484C26.9213 56.5749 27.0175 56.6213 27.1019 56.685C27.1864 56.7487 27.2575 56.8284 27.3111 56.9196C27.3647 57.0107 27.3999 57.1115 27.4146 57.2163C27.4293 57.321 27.4232 57.4276 27.3967 57.53C27.3701 57.6324 27.3237 57.7286 27.26 57.813C26.7242 58.5097 26.1883 59.2331 25.7114 59.9565C25.6365 60.0672 25.5348 60.1572 25.4158 60.2181C25.2968 60.279 25.1644 60.3088 25.0308 60.3048Z" fill="#9AA6A5"/>
<path d="M30.2396 53.7136C30.0843 53.7124 29.9327 53.6666 29.8027 53.5816C29.6728 53.4966 29.57 53.376 29.5068 53.2342C29.4435 53.0924 29.4223 52.9354 29.4459 52.7819C29.4694 52.6284 29.5366 52.4849 29.6394 52.3686C30.9309 50.9378 32.3188 49.5499 33.712 48.2424C33.8722 48.1318 34.0671 48.0831 34.2604 48.1054C34.4537 48.1276 34.6325 48.2192 34.7634 48.3632C34.8943 48.5072 34.9685 48.6938 34.9723 48.8884C34.976 49.083 34.909 49.2723 34.7838 49.4213C33.4066 50.6966 32.0723 52.0524 30.813 53.4457C30.7403 53.5266 30.6521 53.592 30.5536 53.638C30.455 53.684 30.3483 53.7098 30.2396 53.7136ZM38.6313 45.9328C38.5084 45.9328 38.3871 45.9048 38.2766 45.851C38.1661 45.7971 38.0693 45.7188 37.9936 45.6219C37.9288 45.5388 37.881 45.4435 37.8532 45.3418C37.8253 45.24 37.8179 45.1338 37.8313 45.0291C37.8448 44.9245 37.8788 44.8235 37.9315 44.7321C37.9842 44.6407 38.0545 44.5607 38.1383 44.4966C39.6602 43.3177 41.2571 42.1924 42.8808 41.1581C42.9692 41.0911 43.0706 41.0431 43.1785 41.0172C43.2864 40.9913 43.3985 40.988 43.5077 41.0075C43.617 41.027 43.721 41.0689 43.8132 41.1306C43.9055 41.1923 43.9839 41.2725 44.0437 41.366C44.1034 41.4595 44.1431 41.5644 44.1604 41.674C44.1776 41.7836 44.1719 41.8956 44.1437 42.003C44.1155 42.1103 44.0654 42.2106 43.9965 42.2976C43.9277 42.3847 43.8415 42.4565 43.7435 42.5085C42.1627 43.5213 40.6033 44.6199 39.119 45.7666C38.9796 45.8751 38.8079 45.9336 38.6313 45.9328ZM48.277 39.7756C48.0973 39.7752 47.9229 39.7145 47.7817 39.6033C47.6404 39.4921 47.5406 39.3368 47.498 39.1622C47.4554 38.9876 47.4726 38.8037 47.5468 38.64C47.621 38.4763 47.7479 38.3422 47.9072 38.2591C49.622 37.3695 51.3904 36.5497 53.1695 35.8209C53.367 35.7399 53.5887 35.7406 53.7857 35.8231C53.9826 35.9055 54.1388 36.0627 54.2198 36.2603C54.3008 36.4578 54.3 36.6795 54.2176 36.8764C54.1352 37.0734 53.9779 37.2296 53.7804 37.3106C52.0442 38.0179 50.3187 38.8164 48.6468 39.6845C48.5315 39.7462 48.4024 39.7775 48.2716 39.7756H48.277Z" fill="#9AA6A5"/>
<path d="M58.8663 35.4243C58.675 35.4227 58.4905 35.3529 58.3461 35.2274C58.2016 35.102 58.1067 34.9291 58.0783 34.7399C58.0498 34.5507 58.0898 34.3575 58.1911 34.1952C58.2923 34.0329 58.4481 33.9119 58.6305 33.8542C59.4933 33.5916 60.3721 33.3183 61.2402 33.1147C61.4433 33.0695 61.6559 33.1047 61.8335 33.213C62.0111 33.3213 62.1398 33.4943 62.1926 33.6955C62.2453 33.8967 62.218 34.1105 62.1163 34.292C62.0147 34.4735 61.8466 34.6085 61.6475 34.6687C60.8008 34.8884 59.9434 35.1349 59.1021 35.3921C59.0254 35.4137 58.946 35.4245 58.8663 35.4243Z" fill="#9AA6A5"/>
<path d="M97.3361 35.7673C97.2525 35.768 97.1692 35.7553 97.0896 35.7298C96.2536 35.4565 95.4016 35.1939 94.5549 34.9635C94.3496 34.906 94.1755 34.7692 94.071 34.5833C93.9664 34.3973 93.9401 34.1775 93.9976 33.9722C94.0552 33.7668 94.192 33.5927 94.3779 33.4882C94.5638 33.3837 94.7836 33.3573 94.989 33.4148C95.8571 33.656 96.7306 33.9186 97.588 34.1972C97.7717 34.2554 97.9284 34.3776 98.0296 34.5416C98.1308 34.7057 98.1696 34.9006 98.1391 35.0909C98.1086 35.2812 98.0107 35.4542 97.8633 35.5783C97.7159 35.7025 97.5288 35.7696 97.3361 35.7673Z" fill="#9AA6A5"/>
<path d="M124.414 53.1401C124.303 53.1395 124.193 53.1158 124.091 53.0706C123.99 53.0254 123.899 52.9597 123.824 52.8776C122.619 51.5754 121.343 50.3054 120.03 49.1265C119.938 49.0605 119.861 48.9758 119.804 48.878C119.747 48.7801 119.711 48.6713 119.699 48.5587C119.687 48.4461 119.699 48.3322 119.734 48.2245C119.769 48.1168 119.827 48.0177 119.903 47.9338C119.979 47.8498 120.071 47.7828 120.175 47.7373C120.279 47.6917 120.391 47.6685 120.504 47.6693C120.617 47.6701 120.729 47.6948 120.832 47.7419C120.935 47.7889 121.027 47.8572 121.102 47.9422C122.447 49.1747 123.781 50.4715 124.992 51.8112C125.064 51.8886 125.12 51.9794 125.157 52.0784C125.193 52.1773 125.21 52.2826 125.206 52.3881C125.202 52.4936 125.178 52.5972 125.134 52.6932C125.09 52.7891 125.027 52.8755 124.95 52.9472C124.8 53.0731 124.61 53.1415 124.414 53.1401ZM116.419 45.8362C116.242 45.8371 116.07 45.7786 115.931 45.6701C114.516 44.5984 113.048 43.5266 111.553 42.5888C111.458 42.5348 111.375 42.462 111.309 42.3748C111.244 42.2877 111.196 42.1881 111.17 42.0821C111.144 41.9761 111.14 41.8659 111.158 41.7583C111.176 41.6507 111.216 41.5478 111.275 41.456C111.334 41.3642 111.411 41.2854 111.502 41.2243C111.592 41.1633 111.694 41.1213 111.801 41.1009C111.908 41.0806 112.019 41.0823 112.125 41.1059C112.232 41.1296 112.332 41.1747 112.421 41.2385C113.954 42.2191 115.465 43.2801 116.906 44.3947C117.039 44.4969 117.137 44.6381 117.186 44.7987C117.235 44.9592 117.232 45.131 117.178 45.29C117.124 45.4489 117.022 45.5871 116.886 45.685C116.75 45.783 116.586 45.8359 116.419 45.8362ZM107.309 39.9845C107.178 39.9862 107.049 39.9549 106.934 39.8934C105.358 39.0628 103.718 38.2858 102.111 37.5999C102.01 37.5616 101.917 37.5032 101.839 37.4283C101.761 37.3534 101.699 37.2636 101.656 37.1641C101.614 37.0646 101.592 36.9576 101.592 36.8494C101.592 36.7412 101.613 36.6341 101.656 36.5345C101.698 36.4349 101.76 36.3449 101.838 36.2698C101.915 36.1947 102.008 36.136 102.109 36.0974C102.21 36.0588 102.317 36.041 102.426 36.045C102.534 36.049 102.64 36.0748 102.738 36.1209C104.41 36.8282 106.076 37.6213 107.695 38.4734C107.852 38.5581 107.976 38.6926 108.048 38.8557C108.12 39.0188 108.136 39.2013 108.093 39.3744C108.05 39.5475 107.951 39.7014 107.811 39.8118C107.671 39.9223 107.498 39.983 107.319 39.9845H107.309Z" fill="#9AA6A5"/>
<path d="M129.526 59.4152C129.398 59.4161 129.271 59.3864 129.157 59.3286C129.042 59.2709 128.943 59.1867 128.867 59.083C128.363 58.3703 127.833 57.6576 127.259 56.9395C127.194 56.8561 127.146 56.7607 127.118 56.6588C127.09 56.5568 127.082 56.4503 127.095 56.3453C127.108 56.2403 127.141 56.1389 127.193 56.0468C127.246 55.9548 127.315 55.8739 127.399 55.8088C127.482 55.7437 127.578 55.6957 127.679 55.6674C127.781 55.6392 127.888 55.6314 127.993 55.6443C128.098 55.6572 128.199 55.6907 128.291 55.7429C128.383 55.795 128.464 55.8647 128.529 55.9481C129.065 56.6662 129.633 57.395 130.137 58.1238C130.223 58.2439 130.273 58.3853 130.284 58.5324C130.295 58.6795 130.264 58.8267 130.197 58.9579C130.129 59.089 130.027 59.199 129.901 59.2759C129.775 59.3528 129.631 59.3936 129.483 59.3938L129.526 59.4152Z" fill="#9AA6A5"/>
</svg>
