<svg width="164" height="152" viewBox="0 0 164 152" fill="none" xmlns="http://www.w3.org/2000/svg">
<path d="M81.8461 152C122.524 152 155.501 148.295 155.501 143.724C155.501 139.153 122.524 135.448 81.8461 135.448C41.1677 135.448 8.19141 139.153 8.19141 143.724C8.19141 148.295 41.1677 152 81.8461 152Z" fill="#E4E9EA"/>
<path d="M156.287 116.7C156.035 116.7 155.794 116.6 155.616 116.422C155.438 116.244 155.338 116.002 155.338 115.75V103.946C155.326 103.815 155.342 103.682 155.385 103.558C155.427 103.433 155.495 103.319 155.584 103.222C155.673 103.125 155.781 103.047 155.901 102.995C156.022 102.942 156.152 102.914 156.283 102.914C156.415 102.914 156.545 102.942 156.666 102.995C156.786 103.047 156.894 103.125 156.983 103.222C157.072 103.319 157.14 103.433 157.182 103.558C157.225 103.682 157.241 103.815 157.229 103.946V115.779C157.222 116.024 157.12 116.257 156.944 116.429C156.768 116.601 156.533 116.698 156.287 116.7Z" fill="#CDCFCE"/>
<path d="M162.204 110.804H150.364C150.112 110.804 149.87 110.704 149.692 110.526C149.514 110.348 149.414 110.107 149.414 109.855C149.414 109.603 149.514 109.362 149.692 109.184C149.87 109.005 150.112 108.905 150.364 108.905H162.204C162.455 108.905 162.697 109.005 162.875 109.184C163.053 109.362 163.153 109.603 163.153 109.855C163.153 110.107 163.053 110.348 162.875 110.526C162.697 110.704 162.455 110.804 162.204 110.804Z" fill="#CDCFCE"/>
<path d="M19.7268 26.7694C19.475 26.7694 19.2335 26.6694 19.0554 26.4913C18.8774 26.3133 18.7773 26.0718 18.7773 25.82V13.9587C18.7773 13.7069 18.8774 13.4654 19.0554 13.2873C19.2335 13.1092 19.475 13.0092 19.7268 13.0092C19.9786 13.0092 20.2201 13.1092 20.3982 13.2873C20.5762 13.4654 20.6763 13.7069 20.6763 13.9587V25.8058C20.6782 25.9317 20.655 26.0566 20.6081 26.1735C20.5612 26.2903 20.4916 26.3967 20.4032 26.4863C20.3149 26.576 20.2096 26.6472 20.0935 26.6958C19.9773 26.7444 19.8527 26.7694 19.7268 26.7694Z" fill="#CDCFCE"/>
<path d="M25.65 20.8459H13.8029C13.6718 20.8573 13.5398 20.8412 13.4152 20.7989C13.2906 20.7565 13.1762 20.6887 13.0792 20.5997C12.9822 20.5108 12.9048 20.4026 12.8518 20.2822C12.7988 20.1617 12.7715 20.0316 12.7715 19.9C12.7715 19.7684 12.7988 19.6382 12.8518 19.5178C12.9048 19.3973 12.9822 19.2892 13.0792 19.2002C13.1762 19.1113 13.2906 19.0435 13.4152 19.0011C13.5398 18.9587 13.6718 18.9427 13.8029 18.954H25.65C25.7811 18.9427 25.9131 18.9587 26.0377 19.0011C26.1623 19.0435 26.2767 19.1113 26.3737 19.2002C26.4707 19.2892 26.5481 19.3973 26.6011 19.5178C26.6541 19.6382 26.6814 19.7684 26.6814 19.9C26.6814 20.0316 26.6541 20.1617 26.6011 20.2822C26.5481 20.4026 26.4707 20.5108 26.3737 20.5997C26.2767 20.6887 26.1623 20.7565 26.0377 20.7989C25.9131 20.8412 25.7811 20.8573 25.65 20.8459Z" fill="#CDCFCE"/>
<path d="M8.82897 35.5343C8.66548 35.5343 8.50869 35.4694 8.39308 35.3538C8.27748 35.2382 8.21253 35.0814 8.21253 34.9179V30.0359C8.20327 29.9499 8.21221 29.8629 8.23879 29.7805C8.26537 29.6982 8.30899 29.6224 8.3668 29.558C8.42461 29.4936 8.49533 29.4421 8.57434 29.4069C8.65336 29.3717 8.73891 29.3535 8.82544 29.3535C8.91196 29.3535 8.9975 29.3717 9.07652 29.4069C9.15553 29.4421 9.22625 29.4936 9.28406 29.558C9.34187 29.6224 9.38549 29.6982 9.41207 29.7805C9.43865 29.8629 9.44759 29.9499 9.43833 30.0359V34.9179C9.43927 34.9985 9.42421 35.0785 9.394 35.1532C9.3638 35.228 9.31906 35.296 9.26238 35.3533C9.2057 35.4107 9.13821 35.4562 9.06381 35.4873C8.98942 35.5183 8.90959 35.5343 8.82897 35.5343Z" fill="#CDCFCE"/>
<path d="M11.2735 33.0897H6.38443C6.23324 33.0734 6.0934 33.0018 5.99179 32.8887C5.89018 32.7756 5.83398 32.6289 5.83398 32.4768C5.83398 32.3247 5.89018 32.178 5.99179 32.0649C6.0934 31.9518 6.23324 31.8802 6.38443 31.8639H11.2735C11.4247 31.8802 11.5645 31.9518 11.6661 32.0649C11.7677 32.178 11.8239 32.3247 11.8239 32.4768C11.8239 32.6289 11.7677 32.7756 11.6661 32.8887C11.5645 33.0018 11.4247 33.0734 11.2735 33.0897Z" fill="#CDCFCE"/>
<path d="M160.9 128.745C160.736 128.745 160.579 128.68 160.464 128.565C160.348 128.449 160.283 128.292 160.283 128.129V123.24C160.299 123.088 160.371 122.949 160.484 122.847C160.597 122.745 160.744 122.689 160.896 122.689C161.048 122.689 161.195 122.745 161.308 122.847C161.421 122.949 161.493 123.088 161.509 123.24V128.129C161.51 128.209 161.495 128.289 161.465 128.364C161.434 128.439 161.39 128.507 161.333 128.564C161.276 128.621 161.209 128.667 161.134 128.698C161.06 128.729 160.98 128.745 160.9 128.745Z" fill="#CDCFCE"/>
<path d="M163.344 126.279H158.455C158.304 126.263 158.164 126.191 158.062 126.078C157.96 125.965 157.904 125.818 157.904 125.666C157.904 125.514 157.96 125.368 158.062 125.255C158.164 125.141 158.304 125.07 158.455 125.054H163.344C163.495 125.07 163.635 125.141 163.736 125.255C163.838 125.368 163.894 125.514 163.894 125.666C163.894 125.818 163.838 125.965 163.736 126.078C163.635 126.191 163.495 126.263 163.344 126.279Z" fill="#CDCFCE"/>
<path d="M9.43884 122.064C9.19135 122.062 8.95454 121.963 8.77953 121.788C8.60453 121.613 8.5054 121.376 8.50354 121.128V113.667C8.49223 113.537 8.50809 113.406 8.55013 113.282C8.59217 113.158 8.65947 113.045 8.74775 112.949C8.83603 112.852 8.94337 112.775 9.06295 112.723C9.18253 112.67 9.31174 112.643 9.44238 112.643C9.57302 112.643 9.70223 112.67 9.82181 112.723C9.94139 112.775 10.0487 112.852 10.137 112.949C10.2253 113.045 10.2926 113.158 10.3346 113.282C10.3767 113.406 10.3925 113.537 10.3812 113.667V121.128C10.3793 121.377 10.2792 121.615 10.1027 121.79C9.92618 121.965 9.68755 122.064 9.43884 122.064Z" fill="#CDCFCE"/>
<path d="M13.1718 118.329H5.71069C5.58787 118.329 5.46625 118.305 5.35277 118.258C5.23929 118.211 5.13619 118.142 5.04934 118.055C4.96249 117.969 4.89359 117.865 4.84659 117.752C4.79958 117.639 4.77539 117.517 4.77539 117.394C4.77539 117.271 4.79958 117.15 4.84659 117.036C4.89359 116.923 4.96249 116.82 5.04934 116.733C5.13619 116.646 5.23929 116.577 5.35277 116.53C5.46625 116.483 5.58787 116.459 5.71069 116.459H13.1718C13.4199 116.459 13.6578 116.557 13.8332 116.733C14.0086 116.908 14.1071 117.146 14.1071 117.394C14.1071 117.642 14.0086 117.88 13.8332 118.055C13.6578 118.231 13.4199 118.329 13.1718 118.329Z" fill="#CDCFCE"/>
<path d="M32.6718 109.387H32.6293C30.269 109.223 27.927 108.858 25.6288 108.296C25.55 108.28 25.4757 108.247 25.4109 108.199C25.3461 108.151 25.2923 108.09 25.2532 108.02C25.2107 107.952 25.1824 107.876 25.1702 107.797C25.1581 107.718 25.1622 107.637 25.1824 107.559C25.2196 107.407 25.3139 107.275 25.4458 107.191C25.5778 107.106 25.7372 107.076 25.8909 107.106C28.1216 107.651 30.395 108.004 32.686 108.162C32.8373 108.182 32.9755 108.258 33.0738 108.375C33.1722 108.492 33.2237 108.641 33.2184 108.794C33.2131 108.946 33.1514 109.091 33.0452 109.201C32.939 109.311 32.7958 109.377 32.6435 109.387H32.6718ZM19.2092 106.036C19.1211 106.036 19.0341 106.016 18.9541 105.979L18.6849 105.859C16.6179 104.889 14.6606 103.702 12.8464 102.316C12.7822 102.267 12.7283 102.205 12.6878 102.135C12.6474 102.065 12.6212 101.987 12.6106 101.907C12.6001 101.827 12.6055 101.745 12.6265 101.667C12.6475 101.589 12.6837 101.516 12.733 101.451C12.7817 101.388 12.8424 101.334 12.9117 101.294C12.981 101.254 13.0575 101.228 13.1369 101.218C13.3003 101.195 13.4659 101.239 13.5974 101.338C15.3376 102.667 17.2168 103.802 19.2021 104.725L19.4643 104.845C19.5917 104.904 19.6952 105.005 19.7578 105.13C19.8204 105.256 19.8383 105.399 19.8086 105.536C19.7788 105.673 19.7032 105.796 19.5943 105.884C19.4853 105.972 19.3495 106.021 19.2092 106.022V106.036ZM8.19113 97.6181C8.10161 97.6195 8.01295 97.6005 7.9319 97.5624C7.85086 97.5244 7.77957 97.4683 7.72348 97.3985C6.20375 95.5677 4.89197 93.5739 3.81224 91.4537C3.74074 91.3081 3.72807 91.1407 3.77682 90.986C3.80144 90.9096 3.84108 90.839 3.8934 90.7781C3.94572 90.7173 4.00967 90.6675 4.08149 90.6317C4.22713 90.5575 4.39629 90.5442 4.55175 90.5947C4.70721 90.6452 4.83625 90.7554 4.9105 90.901C5.94659 92.9381 7.20613 94.8535 8.66587 96.612C8.71848 96.6741 8.75761 96.7465 8.78079 96.8246C8.80396 96.9026 8.81067 96.9847 8.8005 97.0655C8.78569 97.2249 8.70945 97.3722 8.58793 97.4764C8.46834 97.5741 8.31707 97.6245 8.16279 97.6181H8.19113ZM1.92038 85.2538C1.78341 85.2595 1.64844 85.2195 1.53679 85.1399C1.42515 85.0603 1.34322 84.9458 1.30394 84.8145C0.72954 82.5071 0.420493 80.1418 0.382812 77.7643C0.382812 77.6008 0.447763 77.444 0.563369 77.3284C0.678975 77.2128 0.835774 77.1479 0.999266 77.1479C1.16276 77.1479 1.31955 77.2128 1.43515 77.3284C1.55076 77.444 1.61571 77.6008 1.61571 77.7643C1.64657 80.0509 1.94139 82.3263 2.49432 84.5452C2.51454 84.6229 2.51921 84.7039 2.50806 84.7834C2.4969 84.8629 2.47014 84.9394 2.42931 85.0085C2.38849 85.0777 2.33441 85.1381 2.27018 85.1862C2.20594 85.2344 2.13282 85.2694 2.05501 85.2892L1.92038 85.2538ZM1.72908 71.4015C1.68209 71.4083 1.63435 71.4083 1.58736 71.4015C1.50952 71.3851 1.43595 71.3526 1.3713 71.3063C1.30665 71.2599 1.25234 71.2007 1.21183 71.1322C1.16918 71.0643 1.14035 70.9887 1.12697 70.9097C1.1136 70.8306 1.11595 70.7498 1.13388 70.6716C1.65415 68.3395 2.50097 66.0925 3.64927 63.997C3.70833 63.8919 3.79694 63.8063 3.90412 63.7511C4.01131 63.6958 4.13235 63.6731 4.25227 63.6859C4.37219 63.6988 4.48572 63.7465 4.57879 63.8232C4.67186 63.8999 4.74038 64.0022 4.77588 64.1175C4.82101 64.2738 4.80322 64.4417 4.72628 64.5851C3.63392 66.5884 2.82777 68.735 2.33135 70.9622C2.29152 71.096 2.20745 71.2123 2.09289 71.2921C1.97832 71.3719 1.84006 71.4105 1.70073 71.4015H1.72908ZM8.33284 59.3064C8.25269 59.3067 8.17325 59.2912 8.09908 59.2609C8.02492 59.2305 7.95748 59.1857 7.90062 59.1292C7.84186 59.0737 7.79517 59.0067 7.76348 58.9323C7.73178 58.8579 7.71575 58.7778 7.7164 58.697C7.71441 58.6166 7.72913 58.5367 7.75962 58.4623C7.79011 58.3879 7.83572 58.3206 7.89354 58.2648C9.56854 56.5764 11.4298 55.0836 13.4416 53.815C13.5098 53.7702 13.5864 53.7396 13.6667 53.725C13.7471 53.7104 13.8295 53.7121 13.9092 53.73C14.0627 53.7656 14.1964 53.8594 14.2823 53.9915C14.3681 54.1236 14.3995 54.2838 14.3698 54.4386C14.3531 54.5172 14.3206 54.5917 14.2743 54.6574C14.228 54.7232 14.1689 54.7789 14.1005 54.8212C12.1701 56.0364 10.3806 57.4622 8.76507 59.0725C8.71415 59.1404 8.64916 59.1964 8.57455 59.2368C8.49995 59.2771 8.41749 59.3009 8.33284 59.3064Z" fill="#CDCFCE"/>
<path d="M103.867 9.31048C102.687 9.3122 101.55 8.86547 100.686 8.06069C99.8229 7.25591 99.2974 6.15318 99.2161 4.97562C99.1349 3.79807 99.504 2.63361 100.249 1.71789C100.994 0.802172 102.058 0.203561 103.228 0.0431846C104.397 -0.117192 105.584 0.172645 106.548 0.854044C107.512 1.53544 108.181 2.55752 108.419 3.71347C108.658 4.86942 108.449 6.07293 107.834 7.08046C107.219 8.08798 106.244 8.8243 105.107 9.14042C104.703 9.25249 104.286 9.30969 103.867 9.31048ZM103.867 0.644804C103.156 0.647937 102.458 0.838148 101.844 1.19634C101.229 1.55454 100.72 2.0681 100.367 2.68545C99.8432 3.6132 99.7088 4.71071 99.993 5.73741C100.277 6.76411 100.957 7.63623 101.883 8.16261C102.34 8.42556 102.845 8.59426 103.369 8.65876C103.892 8.72326 104.423 8.68225 104.93 8.53815C105.869 8.28186 106.683 7.69325 107.221 6.88175C107.759 6.07024 107.984 5.09104 107.854 4.1262C107.724 3.16136 107.248 2.27653 106.515 1.63618C105.782 0.995828 104.841 0.643539 103.867 0.644804Z" fill="#9AA6A5"/>
<path d="M149.718 95.8822C149.62 95.8808 149.524 95.8591 149.435 95.8185C149.362 95.7811 149.298 95.7298 149.246 95.6674C149.193 95.605 149.154 95.5329 149.129 95.4551C149.105 95.3773 149.096 95.2955 149.104 95.2144C149.111 95.1332 149.135 95.0544 149.173 94.9824C150.302 92.8011 151.302 90.5559 152.17 88.2581C152.227 88.104 152.343 87.979 152.493 87.9106C152.642 87.8422 152.813 87.8359 152.967 87.8932C153.121 87.9506 153.246 88.0667 153.315 88.2162C153.383 88.3657 153.389 88.5363 153.332 88.6904C152.449 91.0354 151.427 93.3258 150.271 95.5492C150.218 95.6498 150.138 95.7341 150.041 95.7928C149.944 95.8515 149.832 95.8824 149.718 95.8822ZM154.94 81.9803H154.799C154.719 81.962 154.645 81.9281 154.578 81.8808C154.512 81.8334 154.456 81.7734 154.413 81.7042C154.371 81.635 154.342 81.5581 154.329 81.4778C154.316 81.3975 154.319 81.3154 154.338 81.2363C154.921 78.8491 155.356 76.4284 155.642 73.9878C155.643 73.9007 155.663 73.8149 155.699 73.7359C155.736 73.6569 155.789 73.5864 155.854 73.529C155.919 73.4716 155.996 73.4285 156.079 73.4025C156.162 73.3765 156.25 73.3683 156.336 73.3782C156.423 73.3881 156.506 73.4161 156.581 73.4602C156.657 73.5044 156.721 73.5638 156.772 73.6345C156.823 73.7053 156.858 73.7859 156.876 73.8711C156.894 73.9564 156.893 74.0444 156.875 74.1295C156.584 76.6204 156.139 79.0909 155.543 81.5268C155.507 81.6584 155.428 81.7743 155.319 81.8564C155.21 81.9384 155.077 81.982 154.94 81.9803ZM156.683 67.2352C156.519 67.2334 156.361 67.1671 156.245 67.0505C156.128 66.934 156.062 66.7765 156.06 66.6117C156.053 64.1552 155.897 61.7015 155.592 59.2639C155.581 59.1815 155.587 59.0978 155.608 59.0175C155.63 58.9373 155.667 58.862 155.718 58.7962C155.768 58.7304 155.832 58.6752 155.904 58.6339C155.976 58.5925 156.055 58.5658 156.138 58.5554C156.22 58.5424 156.305 58.5464 156.386 58.5672C156.467 58.5879 156.543 58.6249 156.609 58.6759C156.676 58.727 156.731 58.791 156.772 58.8641C156.812 58.9371 156.838 59.0177 156.846 59.1009C157.155 61.588 157.316 64.0913 157.328 66.5975C157.326 66.7623 157.26 66.9198 157.144 67.0364C157.027 67.1529 156.869 67.2192 156.705 67.221L156.683 67.2352ZM154.855 52.4972C154.716 52.4965 154.582 52.4494 154.473 52.3633C154.363 52.2773 154.286 52.1574 154.253 52.0224C153.659 49.6384 152.926 47.2914 152.057 44.9935C152.028 44.9177 152.014 44.8369 152.016 44.7558C152.019 44.6747 152.037 44.5949 152.07 44.5209C152.104 44.4468 152.151 44.3801 152.21 44.3244C152.269 44.2688 152.339 44.2253 152.414 44.1964C152.49 44.1676 152.571 44.1539 152.652 44.1563C152.733 44.1587 152.813 44.177 152.887 44.2102C152.961 44.2435 153.028 44.2909 153.083 44.35C153.139 44.409 153.183 44.4784 153.211 44.5542C154.104 46.897 154.854 49.2916 155.458 51.7248C155.496 51.8845 155.47 52.053 155.385 52.1936C155.3 52.3343 155.163 52.4357 155.004 52.4759L154.855 52.4972ZM149.584 38.6094C149.47 38.6096 149.358 38.5787 149.261 38.52C149.163 38.4613 149.084 38.377 149.031 38.2764C147.892 36.0991 146.621 33.9931 145.226 31.9702C145.18 31.9033 145.148 31.8279 145.132 31.7486C145.115 31.6692 145.115 31.5874 145.13 31.5077C145.145 31.4281 145.176 31.3522 145.22 31.2845C145.265 31.2167 145.322 31.1584 145.389 31.1129C145.455 31.0659 145.53 31.0327 145.609 31.0151C145.689 30.9975 145.771 30.9959 145.85 31.0104C145.93 31.0249 146.007 31.0553 146.074 31.0996C146.142 31.144 146.201 31.2015 146.246 31.2687C147.672 33.3315 148.968 35.4802 150.129 37.7025C150.167 37.7745 150.191 37.8533 150.198 37.9345C150.206 38.0156 150.197 38.0975 150.173 38.1752C150.148 38.253 150.109 38.3251 150.056 38.3875C150.004 38.4498 149.94 38.5012 149.867 38.5386C149.781 38.5884 149.683 38.6153 149.584 38.6165V38.6094ZM141.152 26.3797C141.065 26.3798 140.979 26.3616 140.9 26.3262C140.82 26.2908 140.749 26.239 140.691 26.1742C139.063 24.3336 137.324 22.5944 135.483 20.9663C135.36 20.8572 135.284 20.7034 135.273 20.5387C135.263 20.374 135.318 20.2118 135.427 20.0877C135.481 20.0261 135.546 19.9758 135.62 19.9399C135.694 19.904 135.774 19.8831 135.856 19.8785C135.937 19.8739 136.019 19.8856 136.096 19.913C136.174 19.9404 136.245 19.9829 136.305 20.0381C138.183 21.6998 139.958 23.4745 141.619 25.3523C141.673 25.4132 141.714 25.484 141.74 25.5608C141.767 25.6376 141.777 25.7188 141.772 25.7998C141.767 25.8808 141.746 25.9599 141.71 26.0327C141.674 26.1054 141.624 26.1704 141.563 26.2238C141.452 26.3289 141.305 26.3872 141.152 26.3868V26.3797ZM130.042 16.5307C129.914 16.5323 129.79 16.4925 129.687 16.4174C128.192 15.3899 126.633 14.4121 125.053 13.5123C124.501 13.2005 123.948 12.8958 123.388 12.5982C123.317 12.5601 123.253 12.5082 123.202 12.4455C123.15 12.3829 123.111 12.3106 123.088 12.233C123.04 12.0762 123.056 11.9068 123.133 11.7621C123.21 11.6174 123.342 11.5093 123.498 11.4614C123.655 11.4136 123.825 11.43 123.969 11.507C124.536 11.8046 125.103 12.1164 125.67 12.4353C127.278 13.3493 128.865 14.3484 130.389 15.397C130.496 15.4727 130.577 15.5804 130.62 15.7049C130.663 15.8293 130.665 15.9641 130.627 16.0899C130.588 16.2157 130.511 16.3261 130.406 16.4053C130.301 16.4845 130.173 16.5284 130.042 16.5307ZM116.905 9.59393C116.832 9.60412 116.758 9.60412 116.685 9.59393C114.391 8.71196 112.047 7.96899 109.663 7.36906C109.505 7.3296 109.368 7.22867 109.284 7.08848C109.199 6.9483 109.174 6.78033 109.214 6.62154C109.253 6.46274 109.354 6.32613 109.494 6.24175C109.634 6.15737 109.802 6.13213 109.961 6.17159C112.395 6.78011 114.789 7.53492 117.132 8.4319C117.271 8.48087 117.387 8.57801 117.461 8.70571C117.535 8.8334 117.56 8.98321 117.532 9.12799C117.505 9.27277 117.427 9.40294 117.312 9.49492C117.196 9.5869 117.052 9.63459 116.905 9.62936V9.59393Z" fill="#CDCFCE"/>
<path d="M28.0801 112.158V143.958H136.688V112.158H28.0801Z" fill="#E4E9EA"/>
<path d="M81.8457 21.7527V29.6744H89.739V21.7527H81.8457Z" fill="#E4E9EA"/>
<path d="M87.8613 44.8589V52.7806H95.7547V44.8731L87.8613 44.8589Z" fill="#E4E9EA"/>
<path d="M99.9348 45.1777H71.6562V20.8528L99.9348 20.9095V45.1777ZM72.301 44.5612H99.3467V21.526L72.301 21.4764V44.5612Z" fill="#CDCFCE"/>
<path d="M64.2876 68.9499H27.8535V36.5617H64.2876V68.9499ZM28.47 68.3335H63.657V37.1569H28.47V68.3335Z" fill="#CDCFCE"/>
<path d="M111.875 88.3076H71.6504V44.5612L111.875 44.6533V88.3076ZM72.2739 87.6912H111.245V45.2698L72.2739 45.1777V87.6912Z" fill="#CDCFCE"/>
<path d="M119.704 96.1939H63.7705V37.086H55.5938V28.5053H72.2732V87.6912H119.704V96.1939ZM64.3657 95.5704H119.059V88.3077H71.6568V29.1218H56.2102V36.4695H64.3657V95.5704Z" fill="#CDCFCE"/>
<path d="M74.4769 120.866H58.6973C58.5681 120.877 58.438 120.862 58.3152 120.82C58.1924 120.778 58.0796 120.711 57.984 120.624C57.8884 120.536 57.8121 120.43 57.7599 120.311C57.7076 120.192 57.6807 120.064 57.6807 119.934C57.6807 119.805 57.7076 119.676 57.7599 119.558C57.8121 119.439 57.8884 119.332 57.984 119.245C58.0796 119.157 58.1924 119.09 58.3152 119.049C58.438 119.007 58.5681 118.991 58.6973 119.003H74.4981C74.7312 119.023 74.9482 119.13 75.1063 119.302C75.2644 119.475 75.3521 119.7 75.3521 119.934C75.3521 120.168 75.2644 120.394 75.1063 120.566C74.9482 120.739 74.7312 120.846 74.4981 120.866H74.4769Z" fill="#9AA7A6"/>
<path d="M66.5767 138.665C66.4545 138.666 66.3334 138.643 66.2204 138.596C66.1073 138.55 66.0046 138.482 65.9182 138.395C65.8319 138.309 65.7635 138.206 65.7172 138.093C65.6709 137.98 65.6475 137.859 65.6485 137.737V119.938C65.6485 119.692 65.7463 119.456 65.9203 119.281C66.0944 119.107 66.3305 119.01 66.5767 119.01C66.8229 119.01 67.0589 119.107 67.233 119.281C67.4071 119.456 67.5049 119.692 67.5049 119.938V137.73C67.5058 137.852 67.4825 137.974 67.4363 138.087C67.39 138.201 67.3218 138.304 67.2355 138.391C67.1493 138.478 67.0466 138.547 66.9335 138.594C66.8204 138.641 66.6992 138.665 66.5767 138.665Z" fill="#9AA7A6"/>
<path d="M106.079 136.674C103.73 136.674 101.477 135.741 99.8158 134.08C98.1548 132.419 97.2217 130.166 97.2217 127.817C97.2217 125.468 98.1548 123.215 99.8158 121.554C101.477 119.893 103.73 118.96 106.079 118.96H110.032C110.162 118.949 110.292 118.964 110.415 119.006C110.537 119.048 110.65 119.115 110.746 119.202C110.841 119.29 110.918 119.396 110.97 119.515C111.022 119.634 111.049 119.762 111.049 119.892C111.049 120.021 111.022 120.15 110.97 120.268C110.918 120.387 110.841 120.494 110.746 120.581C110.65 120.669 110.537 120.736 110.415 120.777C110.292 120.819 110.162 120.835 110.032 120.824H106.079C105.161 120.824 104.253 121.004 103.405 121.355C102.557 121.706 101.787 122.221 101.139 122.87C100.49 123.519 99.9752 124.289 99.6241 125.136C99.273 125.984 99.0923 126.892 99.0923 127.81C99.0923 128.727 99.273 129.636 99.6241 130.483C99.9752 131.331 100.49 132.101 101.139 132.75C101.787 133.399 102.557 133.913 103.405 134.265C104.253 134.616 105.161 134.796 106.079 134.796H110.032C110.162 134.785 110.292 134.801 110.415 134.842C110.537 134.884 110.65 134.951 110.746 135.039C110.841 135.126 110.918 135.233 110.97 135.351C111.022 135.47 111.049 135.598 111.049 135.728C111.049 135.858 111.022 135.986 110.97 136.105C110.918 136.223 110.841 136.33 110.746 136.418C110.65 136.505 110.537 136.572 110.415 136.614C110.292 136.655 110.162 136.671 110.032 136.66H106.072L106.079 136.674Z" fill="#9AA7A6"/>
<path d="M40.9126 136.631C40.6664 136.631 40.4303 136.534 40.2562 136.36C40.0822 136.186 39.9844 135.949 39.9844 135.703C39.9844 135.457 40.0822 135.221 40.2562 135.047C40.4303 134.873 40.6664 134.775 40.9126 134.775L48.8768 134.74C49.6773 134.74 50.4451 134.422 51.0112 133.856C51.5772 133.289 51.8952 132.522 51.8952 131.721C51.8952 130.921 51.5772 130.153 51.0112 129.587C50.4451 129.021 49.6773 128.703 48.8768 128.703H46.8645C45.6102 128.655 44.4233 128.123 43.5529 127.218C42.6825 126.314 42.1963 125.108 42.1963 123.853C42.1963 122.597 42.6825 121.391 43.5529 120.487C44.4233 119.582 45.6102 119.05 46.8645 119.003H54.7649C54.998 119.023 55.215 119.13 55.3731 119.302C55.5312 119.475 55.6189 119.7 55.6189 119.934C55.6189 120.168 55.5312 120.394 55.3731 120.566C55.215 120.739 54.998 120.846 54.7649 120.866H46.8432C46.0763 120.903 45.3531 121.234 44.8236 121.79C44.294 122.346 43.9986 123.085 43.9986 123.853C43.9986 124.62 44.294 125.359 44.8236 125.915C45.3531 126.471 46.0763 126.802 46.8432 126.839H48.8555C50.1484 126.839 51.3884 127.353 52.3026 128.267C53.2168 129.181 53.7304 130.421 53.7304 131.714C53.7304 133.007 53.2168 134.247 52.3026 135.161C51.3884 136.075 50.1484 136.589 48.8555 136.589L40.8913 136.624L40.9126 136.631Z" fill="#9AA7A6"/>
<path d="M84.4249 136.667C82.6064 136.665 80.8629 135.942 79.577 134.656C78.2912 133.37 77.5679 131.627 77.566 129.808V125.833C77.5365 124.914 77.6919 123.999 78.0232 123.141C78.3544 122.284 78.8546 121.502 79.4941 120.841C80.1336 120.181 80.8993 119.656 81.7457 119.297C82.5922 118.939 83.5021 118.754 84.4213 118.754C85.3406 118.754 86.2505 118.939 87.0969 119.297C87.9434 119.656 88.7091 120.181 89.3486 120.841C89.9881 121.502 90.4883 122.284 90.8195 123.141C91.1507 123.999 91.3062 124.914 91.2767 125.833V129.808C91.2748 131.625 90.5525 133.368 89.2682 134.653C87.9838 135.939 86.2422 136.663 84.4249 136.667ZM84.4249 120.838C83.1 120.838 81.8295 121.364 80.8926 122.301C79.9558 123.238 79.4296 124.508 79.4296 125.833V129.808C79.4296 131.133 79.9558 132.403 80.8926 133.34C81.8295 134.277 83.1 134.803 84.4249 134.803C85.7497 134.803 87.0203 134.277 87.9571 133.34C88.8939 132.403 89.4202 131.133 89.4202 129.808V125.833C89.4183 124.509 88.8915 123.239 87.9551 122.303C87.0187 121.366 85.7492 120.84 84.4249 120.838Z" fill="#9AA7A6"/>
<path d="M115.964 138.608C115.717 138.608 115.48 138.511 115.305 138.337C115.13 138.163 115.03 137.927 115.028 137.68V117.926C115.049 117.692 115.156 117.475 115.328 117.317C115.501 117.159 115.726 117.072 115.96 117.072C116.194 117.072 116.42 117.159 116.592 117.317C116.765 117.475 116.871 117.692 116.892 117.926V137.68C116.892 137.926 116.794 138.162 116.62 138.336C116.446 138.511 116.21 138.608 115.964 138.608Z" fill="#9AA7A6"/>
<path d="M115.963 128.745C115.717 128.745 115.481 128.647 115.307 128.473C115.133 128.299 115.035 128.063 115.035 127.817C115.035 127.571 115.133 127.335 115.307 127.161C115.481 126.987 115.717 126.889 115.963 126.889C117.811 126.885 119.581 126.149 120.887 124.842C122.192 123.535 122.927 121.764 122.928 119.917V117.94C122.949 117.707 123.056 117.49 123.228 117.331C123.401 117.173 123.626 117.086 123.86 117.086C124.094 117.086 124.32 117.173 124.492 117.331C124.665 117.49 124.772 117.707 124.792 117.94V119.917C124.79 122.257 123.859 124.502 122.204 126.157C120.549 127.813 118.304 128.743 115.963 128.745Z" fill="#9AA7A6"/>
<path d="M123.885 138.665C123.637 138.665 123.399 138.566 123.223 138.391C123.048 138.216 122.95 137.978 122.95 137.73V135.753C122.948 133.906 122.213 132.136 120.907 130.83C119.602 129.524 117.831 128.79 115.984 128.788C115.855 128.799 115.725 128.783 115.602 128.742C115.48 128.7 115.367 128.633 115.271 128.545C115.176 128.458 115.099 128.351 115.047 128.233C114.995 128.114 114.968 127.986 114.968 127.856C114.968 127.726 114.995 127.598 115.047 127.479C115.099 127.361 115.176 127.254 115.271 127.166C115.367 127.079 115.48 127.012 115.602 126.97C115.725 126.929 115.855 126.913 115.984 126.924C118.325 126.926 120.57 127.857 122.225 129.512C123.88 131.167 124.811 133.412 124.813 135.753V137.73C124.813 137.977 124.715 138.213 124.542 138.389C124.368 138.564 124.132 138.663 123.885 138.665Z" fill="#9AA7A6"/>
<path d="M74.4769 120.866H58.6973C58.5681 120.877 58.438 120.862 58.3152 120.82C58.1924 120.778 58.0796 120.711 57.984 120.624C57.8884 120.536 57.8121 120.43 57.7599 120.311C57.7076 120.192 57.6807 120.064 57.6807 119.934C57.6807 119.805 57.7076 119.676 57.7599 119.558C57.8121 119.439 57.8884 119.332 57.984 119.245C58.0796 119.157 58.1924 119.09 58.3152 119.049C58.438 119.007 58.5681 118.991 58.6973 119.003H74.4981C74.7312 119.023 74.9482 119.13 75.1063 119.302C75.2644 119.475 75.3521 119.7 75.3521 119.934C75.3521 120.168 75.2644 120.394 75.1063 120.566C74.9482 120.739 74.7312 120.846 74.4981 120.866H74.4769Z" fill="#9AA7A6"/>
<path d="M66.5767 138.665C66.4545 138.666 66.3334 138.643 66.2204 138.596C66.1073 138.55 66.0046 138.482 65.9182 138.395C65.8319 138.309 65.7635 138.206 65.7172 138.093C65.6709 137.98 65.6475 137.859 65.6485 137.737V119.938C65.6485 119.692 65.7463 119.456 65.9203 119.281C66.0944 119.107 66.3305 119.01 66.5767 119.01C66.8229 119.01 67.0589 119.107 67.233 119.281C67.4071 119.456 67.5049 119.692 67.5049 119.938V137.73C67.5058 137.852 67.4825 137.974 67.4363 138.087C67.39 138.201 67.3218 138.304 67.2355 138.391C67.1493 138.478 67.0466 138.547 66.9335 138.594C66.8204 138.641 66.6992 138.665 66.5767 138.665Z" fill="#9AA7A6"/>
<path d="M106.079 136.674C103.73 136.674 101.477 135.741 99.8158 134.08C98.1548 132.419 97.2217 130.166 97.2217 127.817C97.2217 125.468 98.1548 123.215 99.8158 121.554C101.477 119.893 103.73 118.96 106.079 118.96H110.032C110.162 118.949 110.292 118.964 110.415 119.006C110.537 119.048 110.65 119.115 110.746 119.202C110.841 119.29 110.918 119.396 110.97 119.515C111.022 119.634 111.049 119.762 111.049 119.892C111.049 120.021 111.022 120.15 110.97 120.268C110.918 120.387 110.841 120.494 110.746 120.581C110.65 120.669 110.537 120.736 110.415 120.777C110.292 120.819 110.162 120.835 110.032 120.824H106.079C105.161 120.824 104.253 121.004 103.405 121.355C102.557 121.706 101.787 122.221 101.139 122.87C100.49 123.519 99.9752 124.289 99.6241 125.136C99.273 125.984 99.0923 126.892 99.0923 127.81C99.0923 128.727 99.273 129.636 99.6241 130.483C99.9752 131.331 100.49 132.101 101.139 132.75C101.787 133.399 102.557 133.913 103.405 134.265C104.253 134.616 105.161 134.796 106.079 134.796H110.032C110.162 134.785 110.292 134.801 110.415 134.842C110.537 134.884 110.65 134.951 110.746 135.039C110.841 135.126 110.918 135.233 110.97 135.351C111.022 135.47 111.049 135.598 111.049 135.728C111.049 135.858 111.022 135.986 110.97 136.105C110.918 136.223 110.841 136.33 110.746 136.418C110.65 136.505 110.537 136.572 110.415 136.614C110.292 136.655 110.162 136.671 110.032 136.66H106.072L106.079 136.674Z" fill="#9AA7A6"/>
<path d="M40.9126 136.631C40.6664 136.631 40.4303 136.534 40.2562 136.36C40.0822 136.186 39.9844 135.949 39.9844 135.703C39.9844 135.457 40.0822 135.221 40.2562 135.047C40.4303 134.873 40.6664 134.775 40.9126 134.775L48.8768 134.74C49.6773 134.74 50.4451 134.422 51.0112 133.856C51.5772 133.289 51.8952 132.522 51.8952 131.721C51.8952 130.921 51.5772 130.153 51.0112 129.587C50.4451 129.021 49.6773 128.703 48.8768 128.703H46.8645C45.6102 128.655 44.4233 128.123 43.5529 127.218C42.6825 126.314 42.1963 125.108 42.1963 123.853C42.1963 122.597 42.6825 121.391 43.5529 120.487C44.4233 119.582 45.6102 119.05 46.8645 119.003H54.7649C54.998 119.023 55.215 119.13 55.3731 119.302C55.5312 119.475 55.6189 119.7 55.6189 119.934C55.6189 120.168 55.5312 120.394 55.3731 120.566C55.215 120.739 54.998 120.846 54.7649 120.866H46.8432C46.0763 120.903 45.3531 121.234 44.8236 121.79C44.294 122.346 43.9986 123.085 43.9986 123.853C43.9986 124.62 44.294 125.359 44.8236 125.915C45.3531 126.471 46.0763 126.802 46.8432 126.839H48.8555C50.1484 126.839 51.3884 127.353 52.3026 128.267C53.2168 129.181 53.7304 130.421 53.7304 131.714C53.7304 133.007 53.2168 134.247 52.3026 135.161C51.3884 136.075 50.1484 136.589 48.8555 136.589L40.8913 136.624L40.9126 136.631Z" fill="#9AA7A6"/>
<path d="M84.4249 136.667C82.6064 136.665 80.8629 135.942 79.577 134.656C78.2912 133.37 77.5679 131.627 77.566 129.808V125.833C77.5365 124.914 77.6919 123.999 78.0232 123.141C78.3544 122.284 78.8546 121.502 79.4941 120.841C80.1336 120.181 80.8993 119.656 81.7457 119.297C82.5922 118.939 83.5021 118.754 84.4213 118.754C85.3406 118.754 86.2505 118.939 87.0969 119.297C87.9434 119.656 88.7091 120.181 89.3486 120.841C89.9881 121.502 90.4883 122.284 90.8195 123.141C91.1507 123.999 91.3062 124.914 91.2767 125.833V129.808C91.2748 131.625 90.5525 133.368 89.2682 134.653C87.9838 135.939 86.2422 136.663 84.4249 136.667ZM84.4249 120.838C83.1 120.838 81.8295 121.364 80.8926 122.301C79.9558 123.238 79.4296 124.508 79.4296 125.833V129.808C79.4296 131.133 79.9558 132.403 80.8926 133.34C81.8295 134.277 83.1 134.803 84.4249 134.803C85.7497 134.803 87.0203 134.277 87.9571 133.34C88.8939 132.403 89.4202 131.133 89.4202 129.808V125.833C89.4183 124.509 88.8915 123.239 87.9551 122.303C87.0187 121.366 85.7492 120.84 84.4249 120.838Z" fill="#9AA7A6"/>
<path d="M115.964 138.608C115.717 138.608 115.48 138.511 115.305 138.337C115.13 138.163 115.03 137.927 115.028 137.68V117.926C115.049 117.692 115.156 117.475 115.328 117.317C115.501 117.159 115.726 117.072 115.96 117.072C116.194 117.072 116.42 117.159 116.592 117.317C116.765 117.475 116.871 117.692 116.892 117.926V137.68C116.892 137.926 116.794 138.162 116.62 138.336C116.446 138.511 116.21 138.608 115.964 138.608Z" fill="#9AA7A6"/>
<path d="M115.963 128.745C115.717 128.745 115.481 128.647 115.307 128.473C115.133 128.299 115.035 128.063 115.035 127.817C115.035 127.571 115.133 127.335 115.307 127.161C115.481 126.987 115.717 126.889 115.963 126.889C117.811 126.885 119.581 126.149 120.887 124.842C122.192 123.535 122.927 121.764 122.928 119.917V117.94C122.949 117.707 123.056 117.49 123.228 117.331C123.401 117.173 123.626 117.086 123.86 117.086C124.094 117.086 124.32 117.173 124.492 117.331C124.665 117.49 124.772 117.707 124.792 117.94V119.917C124.79 122.257 123.859 124.502 122.204 126.157C120.549 127.813 118.304 128.743 115.963 128.745Z" fill="#9AA7A6"/>
<path d="M123.885 138.665C123.637 138.665 123.399 138.566 123.223 138.391C123.048 138.216 122.95 137.978 122.95 137.73V135.753C122.948 133.906 122.213 132.136 120.907 130.83C119.602 129.524 117.831 128.79 115.984 128.788C115.855 128.799 115.725 128.783 115.602 128.742C115.48 128.7 115.367 128.633 115.271 128.545C115.176 128.458 115.099 128.351 115.047 128.233C114.995 128.114 114.968 127.986 114.968 127.856C114.968 127.726 114.995 127.598 115.047 127.479C115.099 127.361 115.176 127.254 115.271 127.166C115.367 127.079 115.48 127.012 115.602 126.97C115.725 126.929 115.855 126.913 115.984 126.924C118.325 126.926 120.57 127.857 122.225 129.512C123.88 131.167 124.811 133.412 124.813 135.753V137.73C124.813 137.977 124.715 138.213 124.542 138.389C124.368 138.564 124.132 138.663 123.885 138.665Z" fill="#9AA7A6"/>
<path d="M28.0806 144.659C27.9579 144.659 27.8365 144.635 27.7234 144.587C27.6103 144.54 27.5077 144.47 27.4216 144.383C27.2485 144.208 27.1517 143.971 27.1523 143.724V111.931C27.1523 111.684 27.2499 111.447 27.4238 111.272C27.5977 111.097 27.8337 110.998 28.0806 110.996H136.688C136.937 110.996 137.174 111.094 137.35 111.27C137.525 111.445 137.624 111.683 137.624 111.931V143.696C137.624 143.944 137.525 144.182 137.35 144.357C137.174 144.533 136.937 144.631 136.688 144.631L28.0806 144.659ZM29.0088 112.859V142.796H135.76V112.859H29.0088Z" fill="#9AA7A6"/>
<path d="M99.6245 45.8013H71.9907C71.7439 45.7994 71.5078 45.7001 71.3339 45.5249C71.16 45.3497 71.0625 45.1128 71.0625 44.866V21.1647C71.0627 21.0421 71.0873 20.9207 71.1347 20.8076C71.1821 20.6945 71.2515 20.5919 71.3388 20.5058C71.5187 20.3393 71.7528 20.2436 71.9978 20.2365L99.6316 20.2861C99.8778 20.2861 100.114 20.3839 100.288 20.558C100.462 20.7321 100.56 20.9681 100.56 21.2143V44.866C100.56 45.1141 100.461 45.352 100.286 45.5274C100.11 45.7028 99.8726 45.8013 99.6245 45.8013ZM72.8693 43.9378H98.6679V22.1425L72.8693 22.1V43.9378Z" fill="#9AA7A6"/>
<path d="M55.899 36.7601H28.166V68.5177H63.9837V36.7601H55.899Z" fill="#E4E9EA"/>
<path d="M111.563 88.9313H71.9614C71.7146 88.9294 71.4785 88.83 71.3047 88.6548C71.1308 88.4796 71.0332 88.2428 71.0332 87.996V44.866C71.0323 44.7438 71.0557 44.6227 71.102 44.5097C71.1483 44.3966 71.2166 44.2939 71.303 44.2075C71.3894 44.1212 71.4921 44.0528 71.6051 44.0065C71.7181 43.9602 71.8393 43.9368 71.9614 43.9378L111.563 44.0299C111.809 44.0299 112.045 44.1277 112.219 44.3017C112.393 44.4758 112.491 44.7119 112.491 44.9581V87.996C112.492 88.1184 112.469 88.2399 112.422 88.3533C112.376 88.4668 112.308 88.57 112.222 88.6569C112.135 88.7438 112.033 88.8128 111.92 88.8599C111.807 88.907 111.685 88.9313 111.563 88.9313ZM72.8684 87.0677H110.635V45.8863L72.8684 45.8013V87.0677Z" fill="#9AA7A6"/>
<path d="M119.393 96.8103H64.0828C63.9603 96.8112 63.8388 96.7879 63.7254 96.7417C63.6119 96.6955 63.5088 96.6272 63.4218 96.541C63.3349 96.4547 63.2659 96.352 63.2188 96.2389C63.1717 96.1259 63.1475 96.0046 63.1475 95.8821V37.7094H55.8989C55.6527 37.7094 55.4166 37.6116 55.2426 37.4375C55.0685 37.2635 54.9707 37.0274 54.9707 36.7812V28.8382C54.9707 28.5921 55.0685 28.356 55.2426 28.1819C55.4166 28.0078 55.6527 27.91 55.8989 27.91H71.9619C72.2038 27.9174 72.4335 28.0182 72.6026 28.1912C72.7717 28.3643 72.8672 28.5962 72.8689 28.8382V87.096H119.365C119.611 87.096 119.847 87.1938 120.021 87.3678C120.195 87.5419 120.293 87.778 120.293 88.0242V95.9104C120.286 96.1468 120.189 96.3716 120.021 96.5389C119.854 96.7061 119.629 96.8032 119.393 96.8103ZM65.011 94.9539H118.458V88.9311H71.9619C71.7151 88.9293 71.479 88.8299 71.3052 88.6547C71.1313 88.4795 71.0337 88.2427 71.0337 87.9958V29.7452H56.8626V35.8459H64.0828C64.3296 35.8478 64.5657 35.9471 64.7395 36.1223C64.9134 36.2975 65.011 36.5344 65.011 36.7812V94.9539Z" fill="#9AA7A6"/>
<path d="M64.0824 112.859C62.3211 112.859 60.5994 112.337 59.1349 111.359C57.6703 110.38 56.5288 108.99 55.8544 107.363C55.1801 105.736 55.0033 103.945 55.3464 102.218C55.6895 100.49 56.5371 98.9031 57.782 97.6572C59.0269 96.4113 60.6132 95.5625 62.3404 95.218C64.0677 94.8736 65.8583 95.0489 67.4859 95.722C69.1135 96.395 70.505 97.5355 71.4845 98.9992C72.464 100.463 72.9876 102.184 72.989 103.946C72.9871 106.308 72.0483 108.573 70.3786 110.244C68.7089 111.915 66.4446 112.855 64.0824 112.859ZM64.0824 96.9025C62.6877 96.9011 61.3239 97.3134 60.1636 98.0872C59.0033 98.861 58.0985 99.9616 57.5638 101.25C57.0291 102.538 56.8885 103.956 57.1597 105.324C57.431 106.692 58.1019 107.949 59.0876 108.935C60.0733 109.922 61.3295 110.594 62.6973 110.867C64.065 111.139 65.483 111 66.7716 110.467C68.0603 109.933 69.1618 109.03 69.9368 107.87C70.7118 106.711 71.1255 105.347 71.1255 103.953C71.1162 102.087 70.3714 100.3 69.0527 98.9802C67.7341 97.6602 65.9481 96.9136 64.0824 96.9025Z" fill="#9AA7A6"/>
<path d="M107.517 112.859C105.756 112.859 104.034 112.337 102.569 111.359C101.105 110.38 99.9633 108.99 99.289 107.363C98.6147 105.736 98.4379 103.945 98.781 102.218C99.1241 100.49 99.9716 98.9031 101.217 97.6572C102.461 96.4113 104.048 95.5625 105.775 95.218C107.502 94.8736 109.293 95.0489 110.92 95.722C112.548 96.395 113.94 97.5355 114.919 98.9992C115.899 100.463 116.422 102.184 116.424 103.946C116.422 106.308 115.483 108.573 113.813 110.244C112.144 111.915 109.879 112.855 107.517 112.859ZM107.517 96.9025C106.124 96.9095 104.765 97.3289 103.61 98.1078C102.455 98.8867 101.557 99.9902 101.029 101.279C100.501 102.568 100.366 103.984 100.642 105.35C100.918 106.715 101.592 107.968 102.58 108.95C103.567 109.933 104.823 110.601 106.19 110.87C107.557 111.139 108.972 110.997 110.258 110.463C111.545 109.928 112.644 109.024 113.417 107.866C114.19 106.707 114.603 105.346 114.603 103.953C114.593 102.08 113.843 100.286 112.515 98.9652C111.187 97.6441 109.39 96.9024 107.517 96.9025Z" fill="#9AA7A6"/>
<path d="M63.9837 69.5734H28.166C27.918 69.5734 27.6801 69.4748 27.5047 69.2994C27.3293 69.124 27.2307 68.8861 27.2307 68.6381V36.8734C27.2279 36.7497 27.2498 36.6267 27.2952 36.5116C27.3405 36.3966 27.4085 36.2917 27.495 36.2033C27.5814 36.1148 27.6847 36.0445 27.7987 35.9965C27.9128 35.9486 28.0352 35.9239 28.1589 35.9239L55.899 35.8247C56.0282 35.8134 56.1583 35.8291 56.2811 35.8708C56.4039 35.9125 56.5167 35.9793 56.6123 36.067C56.7079 36.1546 56.7842 36.2611 56.8364 36.3798C56.8887 36.4985 56.9156 36.6268 56.9156 36.7565C56.9156 36.8861 56.8887 37.0144 56.8364 37.1331C56.7842 37.2518 56.7079 37.3584 56.6123 37.446C56.5167 37.5336 56.4039 37.6004 56.2811 37.6421C56.1583 37.6838 56.0282 37.6995 55.899 37.6882L29.0871 37.7803V67.6886H63.9766C64.2097 67.7089 64.4267 67.8159 64.5848 67.9884C64.7429 68.1609 64.8305 68.3864 64.8305 68.6204C64.8305 68.8543 64.7429 69.0798 64.5848 69.2523C64.4267 69.4248 64.2097 69.5318 63.9766 69.5521L63.9837 69.5734Z" fill="#9AA7A6"/>
<path d="M33.3672 59.9725V45.4399H35.4149L40.0702 52.7948C41.0429 54.3083 41.914 55.8847 42.6777 57.5138H42.7202C42.5501 55.5723 42.5076 53.808 42.5076 51.5406V45.4612H44.279V59.9937H42.4013L37.7815 52.6176C36.78 51.0559 35.8737 49.4351 35.0677 47.764H35.004C35.1102 49.5921 35.1528 51.3422 35.1528 53.7584V59.9654L33.3672 59.9725Z" fill="#9AA7A6"/>
<path d="M59.9718 52.5538C59.9718 57.5562 56.932 60.2063 53.2263 60.2063C49.3859 60.2063 46.6934 57.2303 46.6934 52.8372C46.6934 48.2174 49.5276 45.199 53.4388 45.199C57.3501 45.199 59.9718 48.2387 59.9718 52.5538ZM48.6986 52.7947C48.6986 55.8982 50.3779 58.6758 53.3326 58.6758C56.2872 58.6758 57.9878 55.9407 57.9878 52.6388C57.9878 49.755 56.4786 46.7295 53.3538 46.7295C50.2291 46.7295 48.6986 49.5991 48.6986 52.7947Z" fill="#9AA7A6"/>
<path d="M89.7396 30.1138H81.8462C81.6001 30.1138 81.3639 30.016 81.1899 29.8419C81.0158 29.6678 80.918 29.4317 80.918 29.1856V21.2639C80.9171 21.1417 80.9404 21.0206 80.9867 20.9075C81.0331 20.7945 81.1014 20.6918 81.1878 20.6054C81.2742 20.519 81.3769 20.4507 81.4899 20.4044C81.6029 20.3581 81.7241 20.3347 81.8462 20.3357H89.7396C89.8615 20.3357 89.9822 20.3597 90.0948 20.4063C90.2074 20.453 90.3097 20.5213 90.3959 20.6075C90.4821 20.6937 90.5505 20.796 90.5971 20.9087C90.6438 21.0213 90.6678 21.142 90.6678 21.2639V29.1714C90.6706 29.2947 90.6487 29.4174 90.6032 29.5321C90.5577 29.6468 90.4897 29.7512 90.4031 29.8391C90.3166 29.927 90.2132 29.9966 90.0992 30.0438C89.9852 30.0909 89.8629 30.1148 89.7396 30.1138ZM82.7886 28.2573H88.8255V22.2063H82.7886V28.2573Z" fill="#9AA7A6"/>
<path d="M95.7551 53.7159H87.8618C87.615 53.714 87.3789 53.6146 87.205 53.4394C87.0311 53.2642 86.9336 53.0274 86.9336 52.7806V44.866C86.9354 44.6197 87.0336 44.3839 87.207 44.2091C87.3805 44.0343 87.6156 43.9344 87.8618 43.9307H95.7481C95.9949 43.9307 96.2317 44.0282 96.4069 44.2021C96.5821 44.376 96.6815 44.612 96.6833 44.8589V52.7664C96.6852 52.8898 96.6627 53.0124 96.6169 53.127C96.5712 53.2417 96.5033 53.3462 96.417 53.4344C96.3307 53.5227 96.2278 53.593 96.1142 53.6413C96.0006 53.6896 95.8786 53.7149 95.7551 53.7159ZM88.7971 51.8523H94.834V45.8438H88.8042L88.7971 51.8523Z" fill="#9AA7A6"/>
</svg>
