<svg width="224" height="152" viewBox="0 0 224 152" fill="none" xmlns="http://www.w3.org/2000/svg">
<path d="M124.888 152C161.042 152 190.351 148.708 190.351 144.648C190.351 140.588 161.042 137.296 124.888 137.296C88.7344 137.296 59.4258 140.588 59.4258 144.648C59.4258 148.708 88.7344 152 124.888 152Z" fill="#E4E9EA"/>
<path d="M35.7772 73.6983C35.6979 73.6975 35.6214 73.6682 35.5618 73.6159C35.5021 73.5635 35.4632 73.4916 35.4521 73.413C35.4407 73.3269 35.4635 73.2398 35.5156 73.1703C35.5677 73.1008 35.6449 73.0545 35.7308 73.0414C38.1593 72.6964 39.7119 72.6167 39.7119 72.6167C39.7999 72.6123 39.886 72.6431 39.9513 72.7022C40.0167 72.7613 40.0558 72.8439 40.0602 72.9319C40.0646 73.0199 40.0339 73.106 39.9748 73.1714C39.9157 73.2367 39.8331 73.2759 39.7451 73.2803C39.7451 73.2803 38.2123 73.3533 35.817 73.6983H35.7772Z" fill="#9AA7A6"/>
<path d="M34.9284 140.614C32.3695 140.435 29.8303 140.039 27.3378 139.433C27.2526 139.413 27.1789 139.359 27.1329 139.285C27.0869 139.21 27.0723 139.12 27.0923 139.035C27.1143 138.949 27.1689 138.875 27.2446 138.83C27.3202 138.784 27.4109 138.769 27.497 138.789C29.9366 139.387 32.4228 139.776 34.9284 139.951C34.9717 139.953 35.0141 139.964 35.0531 139.983C35.092 140.003 35.1267 140.029 35.1552 140.062C35.1836 140.095 35.2052 140.133 35.2187 140.174C35.2322 140.215 35.2373 140.259 35.2336 140.302C35.2305 140.383 35.1975 140.459 35.1411 140.517C35.0847 140.575 35.0089 140.609 34.9284 140.614ZM42.5522 140.574C42.4643 140.574 42.3799 140.539 42.3177 140.477C42.2554 140.415 42.2205 140.331 42.2205 140.243C42.2205 140.155 42.2554 140.07 42.3177 140.008C42.3799 139.946 42.4643 139.911 42.5522 139.911C45.0777 139.713 47.5884 139.358 50.0699 138.849C50.1135 138.84 50.1583 138.84 50.2019 138.849C50.2455 138.858 50.287 138.875 50.3239 138.899C50.3609 138.924 50.3926 138.956 50.4174 138.993C50.4421 139.03 50.4593 139.071 50.468 139.115C50.4767 139.158 50.4768 139.203 50.4682 139.247C50.4595 139.29 50.4424 139.332 50.4178 139.369C50.3931 139.406 50.3614 139.437 50.3245 139.462C50.2876 139.487 50.2462 139.504 50.2026 139.513C47.6945 140.025 45.1573 140.384 42.6053 140.588L42.5522 140.574ZM20.1851 136.951C20.1365 136.953 20.0884 136.942 20.0457 136.918L19.7538 136.786C17.5175 135.748 15.4015 134.469 13.4437 132.97C13.3802 132.915 13.3403 132.837 13.3321 132.753C13.3239 132.669 13.3481 132.585 13.3997 132.518C13.4513 132.451 13.5265 132.407 13.6098 132.393C13.6932 132.38 13.7786 132.399 13.8485 132.446C15.7694 133.916 17.8453 135.17 20.0391 136.188L20.3244 136.314C20.3642 136.333 20.4 136.359 20.4296 136.392C20.4592 136.424 20.4821 136.462 20.4969 136.503C20.5118 136.545 20.5182 136.589 20.5159 136.633C20.5136 136.676 20.5027 136.719 20.4836 136.759C20.4584 136.816 20.4175 136.864 20.3657 136.898C20.314 136.932 20.2536 136.951 20.1917 136.951H20.1851ZM8.16212 127.762C8.11378 127.762 8.06596 127.752 8.02227 127.731C7.97859 127.71 7.94018 127.68 7.90998 127.642C6.26486 125.664 4.8471 123.507 3.68337 121.213C3.66297 121.174 3.65057 121.132 3.64689 121.088C3.64321 121.045 3.64833 121.001 3.66196 120.96C3.67558 120.918 3.69742 120.88 3.72618 120.847C3.75494 120.814 3.79002 120.787 3.82934 120.768C3.90769 120.729 3.99844 120.722 4.08174 120.75C4.16504 120.777 4.23413 120.836 4.2739 120.914C5.41755 123.162 6.8061 125.275 8.41425 127.218C8.45445 127.266 8.48013 127.325 8.48829 127.387C8.49645 127.449 8.48676 127.512 8.46035 127.569C8.43394 127.626 8.39189 127.675 8.3391 127.709C8.2863 127.743 8.22493 127.761 8.16212 127.762ZM1.31461 114.259C1.24108 114.258 1.16991 114.233 1.11226 114.188C1.05462 114.142 1.01376 114.078 0.99612 114.007C0.369151 111.511 0.0329459 108.95 -0.00579304 106.377C-0.00667566 106.332 0.00125693 106.289 0.0175338 106.248C0.0338106 106.207 0.0581075 106.169 0.0890025 106.138C0.119897 106.106 0.156766 106.081 0.197456 106.064C0.238145 106.047 0.281835 106.038 0.325966 106.038C0.369217 106.037 0.412211 106.045 0.452426 106.061C0.492641 106.077 0.529269 106.101 0.560165 106.131C0.591062 106.161 0.615606 106.197 0.632358 106.237C0.64911 106.277 0.657734 106.32 0.657725 106.363C0.695948 108.885 1.02547 111.395 1.63973 113.841C1.65986 113.927 1.64542 114.018 1.59953 114.094C1.55364 114.169 1.47994 114.224 1.39423 114.246L1.31461 114.259ZM1.08901 99.0978H1.01603C0.930821 99.0773 0.857184 99.0239 0.811187 98.9493C0.76519 98.8748 0.750568 98.785 0.770522 98.6997C1.33113 96.184 2.24478 93.7602 3.48431 91.5005C3.50515 91.4621 3.53337 91.4282 3.56735 91.4007C3.60133 91.3732 3.64041 91.3527 3.68233 91.3404C3.72426 91.328 3.7682 91.3241 3.81165 91.3288C3.8551 91.3335 3.89719 91.3468 3.9355 91.3678C3.97402 91.3885 4.00795 91.4168 4.03527 91.451C4.06259 91.4851 4.08274 91.5245 4.09451 91.5666C4.10628 91.6087 4.10943 91.6528 4.10377 91.6961C4.09811 91.7395 4.08376 91.7813 4.06157 91.819C2.85436 94.0263 1.96105 96.3914 1.4075 98.8456C1.38986 98.917 1.349 98.9805 1.29136 99.0261C1.23371 99.0718 1.16253 99.097 1.08901 99.0978ZM8.328 85.8871C8.26306 85.8862 8.19982 85.8663 8.14612 85.8298C8.09242 85.7933 8.05061 85.7418 8.02588 85.6817C8.00115 85.6217 7.9946 85.5557 8.00702 85.492C8.01944 85.4282 8.05029 85.3695 8.09576 85.3231C9.9005 83.5017 11.9035 81.8882 14.0674 80.5126C14.1045 80.4891 14.1458 80.4731 14.189 80.4656C14.2322 80.458 14.2765 80.459 14.3193 80.4685C14.3621 80.4781 14.4026 80.496 14.4385 80.5212C14.4745 80.5464 14.505 80.5784 14.5286 80.6155C14.5521 80.6525 14.5681 80.6938 14.5757 80.737C14.5832 80.7802 14.5822 80.8245 14.5727 80.8674C14.5631 80.9102 14.5452 80.9507 14.52 80.9866C14.4948 81.0225 14.4628 81.0531 14.4257 81.0766C12.2918 82.4189 10.3173 83.9994 8.54032 85.7876C8.49121 85.8521 8.42058 85.8969 8.34126 85.9137L8.328 85.8871ZM21.0543 77.6263C20.9884 77.6279 20.9236 77.6089 20.8689 77.572C20.8143 77.5352 20.7724 77.4823 20.7491 77.4206C20.7318 77.3806 20.7227 77.3376 20.7224 77.294C20.7221 77.2505 20.7306 77.2073 20.7473 77.1671C20.764 77.1268 20.7886 77.0904 20.8197 77.0598C20.8508 77.0293 20.8877 77.0053 20.9282 76.9894C23.3029 76.009 25.7414 75.191 28.2269 74.541C28.3149 74.519 28.408 74.5328 28.4858 74.5795C28.5635 74.6262 28.6196 74.7018 28.6416 74.7898C28.6636 74.8778 28.6497 74.9709 28.6031 75.0487C28.5564 75.1264 28.4808 75.1825 28.3928 75.2045C25.945 75.8513 23.5423 76.6581 21.2002 77.6197C21.1593 77.6414 21.1138 77.6527 21.0675 77.6529L21.0543 77.6263Z" fill="#9AA7A6"/>
<path d="M57.5406 137.582C57.4971 137.588 57.4527 137.585 57.4101 137.574C57.3675 137.563 57.3276 137.544 57.2924 137.517C57.2573 137.491 57.2278 137.458 57.2054 137.42C57.1831 137.382 57.1685 137.34 57.1624 137.296C57.1563 137.253 57.1589 137.209 57.1699 137.166C57.1809 137.123 57.2003 137.083 57.2267 137.048C57.2532 137.013 57.2864 136.984 57.3243 136.961C57.3622 136.939 57.4042 136.924 57.4477 136.918C58.6752 136.533 59.9359 136.102 61.2032 135.644C61.2445 135.628 61.2886 135.62 61.333 135.621C61.3773 135.622 61.421 135.632 61.4614 135.651C61.5018 135.669 61.5382 135.695 61.5683 135.728C61.5985 135.76 61.6218 135.798 61.6368 135.84C61.6519 135.882 61.6585 135.926 61.6562 135.97C61.6538 136.015 61.6426 136.058 61.6232 136.098C61.6038 136.138 61.5766 136.174 61.5433 136.203C61.5099 136.232 61.471 136.254 61.4288 136.268C60.1549 136.732 58.8809 137.164 57.6401 137.549C57.6096 137.566 57.5757 137.578 57.5406 137.582Z" fill="#9AA7A6"/>
<path d="M202.44 86.9819C202.383 86.9816 202.327 86.9668 202.277 86.939C202.227 86.9112 202.185 86.8711 202.155 86.8227C202.132 86.7853 202.117 86.7437 202.11 86.7004C202.104 86.657 202.106 86.6128 202.116 86.5702C202.127 86.5277 202.145 86.4876 202.171 86.4523C202.198 86.4171 202.23 86.3873 202.268 86.3648C203.376 85.6627 204.444 84.8984 205.466 84.0757C205.5 84.048 205.539 84.0273 205.581 84.015C205.622 84.0026 205.666 83.9988 205.71 84.0038C205.753 84.0087 205.795 84.0223 205.833 84.0438C205.871 84.0653 205.904 84.0942 205.931 84.1288C205.985 84.1975 206.01 84.285 206 84.372C205.99 84.459 205.946 84.5385 205.878 84.5933C204.835 85.4392 203.743 86.2214 202.606 86.9355C202.555 86.9631 202.499 86.9789 202.44 86.9819Z" fill="#9AA7A6"/>
<path d="M211.424 79.2917C211.383 79.2926 211.343 79.2854 211.306 79.2705C211.268 79.2557 211.234 79.2336 211.205 79.2055C211.174 79.1746 211.149 79.1379 211.132 79.0975C211.115 79.0571 211.107 79.0137 211.107 78.9699C211.107 78.9261 211.115 78.8828 211.132 78.8423C211.149 78.8019 211.174 78.7652 211.205 78.7344C212.972 76.8118 214.577 74.7456 216.002 72.557C216.051 72.4846 216.126 72.4338 216.211 72.4152C216.296 72.3967 216.386 72.4118 216.46 72.4575C216.534 72.5051 216.586 72.58 216.604 72.6658C216.623 72.7517 216.607 72.8414 216.56 72.9153C215.114 75.1376 213.485 77.235 211.689 79.1856C211.656 79.2223 211.615 79.251 211.569 79.2694C211.523 79.2878 211.473 79.2954 211.424 79.2917ZM219.917 66.0944C219.875 66.1042 219.832 66.1042 219.791 66.0944C219.75 66.0783 219.713 66.0544 219.682 66.024C219.651 65.9936 219.626 65.9573 219.609 65.9173C219.591 65.8772 219.582 65.8341 219.581 65.7905C219.581 65.7469 219.589 65.7036 219.605 65.6631C220.592 63.2478 221.328 60.7376 221.801 58.172C221.818 58.084 221.869 58.0062 221.943 57.9558C222.017 57.9054 222.108 57.8865 222.196 57.9032C222.284 57.9199 222.362 57.9709 222.412 58.045C222.463 58.119 222.482 58.21 222.465 58.298C221.984 60.9096 221.235 63.4645 220.229 65.9218C220.198 65.9757 220.154 66.0203 220.1 66.0507C220.046 66.0811 219.985 66.0962 219.924 66.0944H219.917ZM222.743 50.6941C222.7 50.695 222.657 50.6872 222.617 50.6713C222.577 50.6553 222.54 50.6315 222.509 50.6013C222.478 50.571 222.454 50.5348 222.437 50.495C222.42 50.4551 222.412 50.4122 222.412 50.369C222.342 47.7589 222.035 45.1605 221.496 42.6058C221.478 42.5178 221.497 42.4265 221.546 42.3518C221.596 42.2771 221.673 42.2253 221.761 42.2077C221.849 42.1901 221.941 42.2082 222.016 42.258C222.09 42.3077 222.142 42.3851 222.16 42.4731C222.712 45.0664 223.025 47.7051 223.095 50.3557C223.094 50.4427 223.059 50.5259 222.999 50.5887C222.939 50.6515 222.857 50.6891 222.77 50.6941H222.743ZM219.585 35.3138C219.518 35.3133 219.452 35.2929 219.397 35.2551C219.341 35.2173 219.298 35.1638 219.273 35.1014C218.358 32.6561 217.287 30.2714 216.069 27.962C216.029 27.8844 216.021 27.7943 216.047 27.7111C216.073 27.6279 216.131 27.5584 216.208 27.5174C216.286 27.4767 216.376 27.4678 216.46 27.4926C216.544 27.5174 216.616 27.5738 216.659 27.6501C217.902 29.9853 218.997 32.3965 219.937 34.8692C219.965 34.9512 219.961 35.0409 219.925 35.12C219.89 35.199 219.825 35.2612 219.744 35.2939C219.695 35.3109 219.643 35.3177 219.592 35.3138H219.585ZM212.18 21.4662C212.127 21.4654 212.075 21.4524 212.028 21.4282C211.981 21.4041 211.94 21.3694 211.908 21.3268C210.393 19.1967 208.74 17.1686 206.958 15.2556C206.898 15.1914 206.865 15.1057 206.867 15.0173C206.87 14.929 206.907 14.8452 206.972 14.7845C207.036 14.7238 207.122 14.6911 207.21 14.6936C207.298 14.6961 207.382 14.7336 207.443 14.7978C209.244 16.7351 210.917 18.7875 212.452 20.942C212.502 21.0146 212.522 21.1036 212.507 21.1903C212.492 21.277 212.444 21.3546 212.373 21.4064C212.316 21.445 212.249 21.4658 212.18 21.4662ZM151.429 11.3807C151.382 11.3814 151.337 11.3723 151.294 11.354C151.252 11.3357 151.214 11.3086 151.183 11.2745C151.152 11.2437 151.127 11.207 151.11 11.1666C151.094 11.1261 151.085 11.0828 151.085 11.039C151.085 10.9952 151.094 10.9518 151.11 10.9114C151.127 10.871 151.152 10.8343 151.183 10.8034C153.114 8.99089 155.193 7.34398 157.4 5.88011C157.436 5.85115 157.478 5.83002 157.522 5.81806C157.567 5.80609 157.614 5.80357 157.659 5.81064C157.705 5.81771 157.748 5.83422 157.787 5.85911C157.826 5.88401 157.859 5.91674 157.885 5.95522C157.91 5.9937 157.928 6.03708 157.935 6.08258C157.943 6.12808 157.941 6.17471 157.93 6.21947C157.919 6.26424 157.898 6.30615 157.87 6.34255C157.842 6.37894 157.806 6.40901 157.765 6.43083C155.592 7.87692 153.544 9.50153 151.641 11.2878C151.583 11.3428 151.508 11.3757 151.429 11.3807ZM201.431 9.96075C201.355 9.9589 201.281 9.93341 201.219 9.88776C199.188 8.24577 197.027 6.77229 194.756 5.48201C194.681 5.43634 194.625 5.36341 194.602 5.27823C194.579 5.19305 194.589 5.10212 194.63 5.02418C194.675 4.94886 194.747 4.89406 194.831 4.8717C194.916 4.84934 195.006 4.86121 195.081 4.90474C197.384 6.21256 199.577 7.70601 201.637 9.37022C201.69 9.41311 201.729 9.47151 201.748 9.53739C201.767 9.60327 201.765 9.67339 201.743 9.73812C201.72 9.80285 201.678 9.85901 201.622 9.89887C201.567 9.93874 201.5 9.96036 201.431 9.96075ZM164.573 2.84784C164.506 2.84887 164.441 2.82893 164.386 2.79084C164.331 2.75274 164.29 2.69841 164.268 2.63551C164.251 2.595 164.243 2.5517 164.244 2.50808C164.245 2.46447 164.254 2.4214 164.271 2.38134C164.288 2.34128 164.313 2.30502 164.345 2.27463C164.376 2.24424 164.413 2.22031 164.453 2.20423C166.928 1.23488 169.506 0.555765 172.137 0.180494C172.225 0.168176 172.314 0.191319 172.385 0.244825C172.456 0.298332 172.503 0.377824 172.515 0.465812C172.528 0.5538 172.504 0.643076 172.451 0.714004C172.397 0.784931 172.318 0.831694 172.23 0.844012C169.649 1.21294 167.119 1.88095 164.692 2.83457C164.654 2.8483 164.613 2.85285 164.573 2.84784ZM187.743 2.29049H187.637C185.17 1.45141 182.614 0.905771 180.02 0.664859C179.932 0.656941 179.85 0.614402 179.794 0.546585C179.737 0.478769 179.71 0.391231 179.718 0.303243C179.726 0.215255 179.768 0.134024 179.836 0.0774068C179.904 0.0207894 179.991 -0.00657737 180.079 0.00134154C182.726 0.246041 185.334 0.802839 187.849 1.66014C187.893 1.66711 187.934 1.68259 187.972 1.70571C188.01 1.72882 188.042 1.75911 188.068 1.79484C188.094 1.83058 188.113 1.87106 188.123 1.91398C188.133 1.9569 188.135 2.00141 188.128 2.04498C188.121 2.08855 188.105 2.13032 188.082 2.1679C188.059 2.20548 188.029 2.23814 187.993 2.26402C187.957 2.2899 187.917 2.30848 187.874 2.31871C187.831 2.32895 187.786 2.33062 187.743 2.32365V2.29049Z" fill="#9AA7A6"/>
<path d="M143.592 20.3183C143.522 20.3181 143.453 20.2973 143.393 20.2585C143.323 20.2058 143.277 20.1272 143.264 20.0401C143.252 19.953 143.274 19.8645 143.327 19.7941C144.13 18.6993 144.953 17.631 145.775 16.6291C145.834 16.5711 145.911 16.5367 145.993 16.5327C146.076 16.5287 146.156 16.5552 146.22 16.6073C146.283 16.6593 146.325 16.7331 146.338 16.8144C146.35 16.8957 146.332 16.9786 146.286 17.0471C145.47 18.0424 144.654 19.0974 143.858 20.1856C143.827 20.2272 143.787 20.2609 143.741 20.284C143.695 20.307 143.644 20.3188 143.592 20.3183Z" fill="#9AA7A6"/>
<path d="M194.93 35.5526C194.684 35.5508 194.45 35.4522 194.277 35.2782C194.104 35.1042 194.007 34.8689 194.007 34.6237V23.0785C193.996 22.9503 194.012 22.8213 194.054 22.6996C194.095 22.5779 194.162 22.4662 194.249 22.3715C194.336 22.2768 194.442 22.2012 194.559 22.1495C194.677 22.0978 194.804 22.0711 194.933 22.0711C195.061 22.0711 195.189 22.0978 195.306 22.1495C195.424 22.2012 195.53 22.2768 195.617 22.3715C195.704 22.4662 195.77 22.5779 195.812 22.6996C195.853 22.8213 195.869 22.9503 195.858 23.0785V34.6237C195.858 34.87 195.761 35.1063 195.586 35.2805C195.412 35.4547 195.176 35.5526 194.93 35.5526Z" fill="#9AA7A6"/>
<path d="M200.709 29.7734H189.157C188.912 29.7734 188.677 29.6762 188.505 29.5033C188.332 29.3303 188.234 29.0957 188.234 28.8511C188.234 28.6065 188.332 28.3719 188.505 28.199C188.677 28.026 188.912 27.9288 189.157 27.9288H200.709C200.953 27.9288 201.188 28.026 201.361 28.199C201.534 28.3719 201.631 28.6065 201.631 28.8511C201.631 29.0957 201.534 29.3303 201.361 29.5033C201.188 29.6762 200.953 29.7734 200.709 29.7734Z" fill="#9AA7A6"/>
<path d="M44.4369 112.136C44.1923 112.136 43.9577 112.039 43.7848 111.866C43.6118 111.693 43.5146 111.458 43.5146 111.214V99.6617C43.5146 99.4171 43.6118 99.1825 43.7848 99.0096C43.9577 98.8366 44.1923 98.7394 44.4369 98.7394C44.6815 98.7394 44.9161 98.8366 45.0891 99.0096C45.2621 99.1825 45.3592 99.4171 45.3592 99.6617V111.214C45.3592 111.458 45.2621 111.693 45.0891 111.866C44.9161 112.039 44.6815 112.136 44.4369 112.136Z" fill="#9AA7A6"/>
<path d="M50.1893 106.396H38.6441C38.5159 106.407 38.3869 106.391 38.2652 106.35C38.1436 106.308 38.0318 106.242 37.9371 106.155C37.8424 106.068 37.7668 105.962 37.7151 105.844C37.6634 105.727 37.6367 105.599 37.6367 105.471C37.6367 105.342 37.6634 105.215 37.7151 105.097C37.7668 104.98 37.8424 104.874 37.9371 104.787C38.0318 104.7 38.1436 104.633 38.2652 104.592C38.3869 104.55 38.5159 104.534 38.6441 104.545H50.1893C50.3174 104.534 50.4464 104.55 50.5681 104.592C50.6898 104.633 50.8015 104.7 50.8962 104.787C50.9909 104.874 51.0665 104.98 51.1182 105.097C51.17 105.215 51.1967 105.342 51.1967 105.471C51.1967 105.599 51.17 105.727 51.1182 105.844C51.0665 105.962 50.9909 106.068 50.8962 106.155C50.8015 106.242 50.6898 106.308 50.5681 106.35C50.4464 106.391 50.3174 106.407 50.1893 106.396Z" fill="#9AA7A6"/>
<path d="M27.8423 30.0919C27.6839 30.0919 27.532 30.029 27.42 29.917C27.308 29.805 27.2451 29.6531 27.2451 29.4948V24.7307C27.2451 24.5723 27.308 24.4204 27.42 24.3084C27.532 24.1965 27.6839 24.1335 27.8423 24.1335C28.0007 24.1335 28.1526 24.1965 28.2645 24.3084C28.3765 24.4204 28.4395 24.5723 28.4395 24.7307V29.4948C28.4395 29.6531 28.3765 29.805 28.2645 29.917C28.1526 30.029 28.0007 30.0919 27.8423 30.0919Z" fill="#9AA7A6"/>
<path d="M30.2245 27.7032H25.4604C25.3021 27.7032 25.1502 27.6403 25.0382 27.5283C24.9262 27.4163 24.8633 27.2645 24.8633 27.1061C24.8633 26.9477 24.9262 26.7958 25.0382 26.6838C25.1502 26.5718 25.3021 26.5089 25.4604 26.5089H30.2245C30.3829 26.5089 30.5348 26.5718 30.6468 26.6838C30.7588 26.7958 30.8217 26.9477 30.8217 27.1061C30.8217 27.2645 30.7588 27.4163 30.6468 27.5283C30.5348 27.6403 30.3829 27.7032 30.2245 27.7032Z" fill="#9AA7A6"/>
<path d="M188.234 78.6282C188.076 78.6282 187.924 78.5653 187.812 78.4533C187.7 78.3413 187.637 78.1894 187.637 78.031V73.267C187.637 73.1086 187.7 72.9567 187.812 72.8447C187.924 72.7327 188.076 72.6698 188.234 72.6698C188.392 72.6698 188.544 72.7327 188.656 72.8447C188.768 72.9567 188.831 73.1086 188.831 73.267V78.031C188.831 78.1894 188.768 78.3413 188.656 78.4533C188.544 78.5653 188.392 78.6282 188.234 78.6282Z" fill="#9AA7A6"/>
<path d="M190.616 76.2462H185.852C185.694 76.2462 185.542 76.1833 185.43 76.0713C185.318 75.9593 185.255 75.8074 185.255 75.649C185.255 75.4907 185.318 75.3388 185.43 75.2268C185.542 75.1148 185.694 75.0519 185.852 75.0519H190.616C190.774 75.0519 190.926 75.1148 191.038 75.2268C191.15 75.3388 191.213 75.4907 191.213 75.649C191.213 75.8074 191.15 75.9593 191.038 76.0713C190.926 76.1833 190.774 76.2462 190.616 76.2462Z" fill="#9AA7A6"/>
<path d="M191.811 135.352C191.653 135.352 191.501 135.289 191.389 135.177C191.277 135.065 191.214 134.914 191.214 134.755V129.991C191.214 129.833 191.277 129.681 191.389 129.569C191.501 129.457 191.653 129.394 191.811 129.394C191.969 129.394 192.121 129.457 192.233 129.569C192.345 129.681 192.408 129.833 192.408 129.991V134.755C192.408 134.914 192.345 135.065 192.233 135.177C192.121 135.289 191.969 135.352 191.811 135.352Z" fill="#9AA7A6"/>
<path d="M194.173 132.97H189.409C189.25 132.97 189.098 132.907 188.986 132.795C188.874 132.683 188.812 132.532 188.812 132.373C188.812 132.215 188.874 132.063 188.986 131.951C189.098 131.839 189.25 131.776 189.409 131.776H194.173C194.331 131.776 194.483 131.839 194.595 131.951C194.707 132.063 194.77 132.215 194.77 132.373C194.77 132.532 194.707 132.683 194.595 132.795C194.483 132.907 194.331 132.97 194.173 132.97Z" fill="#9AA7A6"/>
<path d="M94.5723 148.463C92.172 148.463 89.8257 147.752 87.83 146.418C85.8343 145.085 84.2788 143.189 83.3603 140.972C82.4418 138.754 82.2015 136.314 82.6697 133.96C83.138 131.606 84.2938 129.444 85.991 127.746C87.6882 126.049 89.8506 124.893 92.2047 124.425C94.5588 123.957 96.9989 124.197 99.2164 125.116C101.434 126.034 103.329 127.59 104.663 129.585C105.996 131.581 106.708 133.927 106.708 136.328C106.706 139.546 105.427 142.632 103.152 144.907C100.876 147.183 97.7903 148.462 94.5723 148.463Z" fill="#E4E9EA"/>
<path d="M94.572 141.371C93.5747 141.371 92.5997 141.075 91.7704 140.521C90.9412 139.967 90.2948 139.179 89.9132 138.258C89.5315 137.336 89.4316 136.322 89.6262 135.344C89.8208 134.366 90.301 133.467 91.0063 132.762C91.7115 132.057 92.6101 131.577 93.5882 131.382C94.5664 131.187 95.5804 131.287 96.5018 131.669C97.4232 132.051 98.2108 132.697 98.7649 133.526C99.319 134.355 99.6148 135.33 99.6148 136.328C99.613 137.665 99.0812 138.946 98.1358 139.892C97.1905 140.837 95.9089 141.369 94.572 141.371ZM94.572 133.276C93.9684 133.276 93.3783 133.455 92.8763 133.79C92.3744 134.125 91.9832 134.602 91.7522 135.16C91.5212 135.717 91.4607 136.331 91.5785 136.923C91.6963 137.515 91.987 138.059 92.4138 138.486C92.8407 138.913 93.3845 139.204 93.9766 139.321C94.5686 139.439 95.1823 139.379 95.74 139.148C96.2978 138.917 96.7744 138.525 97.1098 138.023C97.4452 137.522 97.6242 136.931 97.6242 136.328C97.6225 135.519 97.3003 134.744 96.7283 134.171C96.1563 133.599 95.381 133.277 94.572 133.276Z" fill="#9AA7A6"/>
<path d="M151.747 148.463C149.347 148.463 147.001 147.752 145.005 146.418C143.009 145.085 141.454 143.189 140.535 140.972C139.617 138.754 139.376 136.314 139.845 133.96C140.313 131.606 141.469 129.444 143.166 127.746C144.863 126.049 147.025 124.893 149.38 124.425C151.734 123.957 154.174 124.197 156.391 125.116C158.609 126.034 160.504 127.59 161.838 129.585C163.171 131.581 163.883 133.927 163.883 136.328C163.881 139.546 162.602 142.632 160.326 144.907C158.051 147.183 154.965 148.462 151.747 148.463Z" fill="#E4E9EA"/>
<path d="M151.748 141.371C150.75 141.371 149.776 141.075 148.946 140.521C148.117 139.967 147.471 139.179 147.089 138.258C146.707 137.336 146.607 136.322 146.802 135.344C146.997 134.366 147.477 133.467 148.182 132.762C148.887 132.057 149.786 131.577 150.764 131.382C151.742 131.187 152.756 131.287 153.678 131.669C154.599 132.051 155.387 132.697 155.941 133.526C156.495 134.355 156.791 135.33 156.791 136.328C156.789 137.665 156.257 138.946 155.312 139.892C154.366 140.837 153.085 141.369 151.748 141.371ZM151.748 133.276C151.144 133.276 150.554 133.455 150.052 133.79C149.55 134.125 149.159 134.602 148.928 135.16C148.697 135.717 148.637 136.331 148.754 136.923C148.872 137.515 149.163 138.059 149.59 138.486C150.016 138.913 150.56 139.204 151.152 139.321C151.744 139.439 152.358 139.379 152.916 139.148C153.474 138.917 153.95 138.525 154.286 138.023C154.621 137.522 154.8 136.931 154.8 136.328C154.798 135.519 154.476 134.744 153.904 134.171C153.332 133.599 152.557 133.277 151.748 133.276Z" fill="#9AA7A6"/>
<path d="M160.485 125.187H83.0861C79.7682 125.174 76.5789 123.903 74.1617 121.63C71.7446 119.357 70.2796 116.252 70.0623 112.941C69.8451 109.63 70.8918 106.36 72.9912 103.791C75.0907 101.222 78.0865 99.5445 81.3742 99.0978L81.6131 101.088C78.9423 101.428 76.4879 102.733 74.7122 104.757C72.9365 106.781 71.962 109.384 71.9722 112.076C71.9757 115.03 73.1506 117.861 75.239 119.95C77.3275 122.038 80.1591 123.213 83.1127 123.217H160.485C160.898 123.236 161.31 123.171 161.696 123.027C162.083 122.882 162.436 122.661 162.735 122.376C163.034 122.091 163.271 121.748 163.434 121.369C163.596 120.989 163.68 120.581 163.68 120.168C163.68 119.755 163.596 119.346 163.434 118.967C163.271 118.587 163.034 118.245 162.735 117.96C162.436 117.675 162.083 117.453 161.696 117.309C161.31 117.164 160.898 117.1 160.485 117.119H83.0861C82.4239 117.119 81.7682 116.988 81.1563 116.735C80.5445 116.482 79.9886 116.11 79.5204 115.642C79.0521 115.174 78.6807 114.618 78.4272 114.006C78.1738 113.394 78.0434 112.738 78.0434 112.076C78.0434 111.414 78.1738 110.758 78.4272 110.146C78.6807 109.535 79.0521 108.979 79.5204 108.51C79.9886 108.042 80.5445 107.671 81.1563 107.417C81.7682 107.164 82.4239 107.033 83.0861 107.033H83.2454V109.024H83.0861C82.2766 109.024 81.5003 109.346 80.9279 109.918C80.3555 110.49 80.0339 111.267 80.0339 112.076C80.0339 112.886 80.3555 113.662 80.9279 114.234C81.5003 114.807 82.2766 115.128 83.0861 115.128H160.485C161.163 115.104 161.838 115.216 162.471 115.458C163.104 115.7 163.681 116.068 164.169 116.538C164.657 117.008 165.045 117.572 165.31 118.196C165.575 118.82 165.711 119.49 165.711 120.168C165.711 120.845 165.575 121.516 165.31 122.14C165.045 122.763 164.657 123.327 164.169 123.798C163.681 124.268 163.104 124.635 162.471 124.877C161.838 125.12 161.163 125.232 160.485 125.207V125.187Z" fill="#9AA7A6"/>
<path d="M159.836 109.004H92.1569V107.014H159.836C160.493 107.008 161.132 106.792 161.658 106.399C162.184 106.005 162.571 105.453 162.762 104.824L178.945 48.186C179.064 47.7298 179.083 47.2531 178.999 46.789C178.916 46.3249 178.732 45.8846 178.461 45.4988C178.18 45.1162 177.812 44.806 177.387 44.5937C176.963 44.3814 176.494 44.2731 176.019 44.2779H77.3008V42.2873H176.019C176.799 42.2822 177.569 42.4595 178.269 42.8051C178.968 43.1507 179.577 43.6551 180.047 44.2779C180.501 44.9083 180.81 45.6316 180.951 46.3958C181.092 47.1599 181.062 47.9458 180.863 48.6969L164.679 105.348C164.378 106.401 163.743 107.327 162.869 107.986C161.995 108.646 160.931 109.003 159.836 109.004Z" fill="#9AA7A6"/>
<path d="M92.1764 108.009H83.2454L81.4672 100.08L68.8603 43.2826L67.0821 35.1811H46.0287C45.4838 35.2032 44.9401 35.1149 44.4302 34.9216C43.9203 34.7283 43.4547 34.434 43.0614 34.0563C42.6681 33.6786 42.3551 33.2253 42.1413 32.7236C41.9276 32.2219 41.8174 31.6823 41.8174 31.1369C41.8174 30.5916 41.9276 30.0519 42.1413 29.5503C42.3551 29.0486 42.6681 28.5953 43.0614 28.2176C43.4547 27.8399 43.9203 27.5456 44.4302 27.3523C44.9401 27.159 45.4838 27.0707 46.0287 27.0928H70.3002C71.2215 27.0912 72.1156 27.405 72.8338 27.982C73.552 28.559 74.0511 29.3644 74.2481 30.2644C74.2481 30.2644 92.1631 106.761 92.1631 107.113L92.1764 108.009Z" fill="#E4E9EA"/>
<path d="M93.1723 109.004H82.4498L80.4593 100.299L68.1577 44.9348L67.8259 43.5082L66.2135 36.2095H46.0293C45.3522 36.2341 44.677 36.122 44.0441 35.8798C43.4113 35.6376 42.8337 35.2703 42.346 34.8C41.8582 34.3296 41.4702 33.7657 41.2053 33.1421C40.9403 32.5184 40.8037 31.8477 40.8037 31.1701C40.8037 30.4925 40.9403 29.8218 41.2053 29.1982C41.4702 28.5745 41.8582 28.0107 42.346 27.5403C42.8337 27.0699 43.4113 26.7026 44.0441 26.4605C44.677 26.2183 45.3522 26.1061 46.0293 26.1307H70.3008C71.4547 26.1247 72.5751 26.5178 73.4724 27.2433C74.3696 27.9689 74.9885 28.9823 75.2241 30.1118C93.1922 106.728 93.1789 107.033 93.1391 107.213L93.1723 109.004ZM84.0423 107.014H91.1353C90.2528 102.953 79.192 55.6904 73.28 30.5033C73.1363 29.8209 72.7613 29.2092 72.2184 28.7715C71.6755 28.3338 70.9981 28.0971 70.3008 28.1013H46.0293C45.617 28.0821 45.205 28.1467 44.8184 28.2913C44.4317 28.4358 44.0784 28.6573 43.7797 28.9423C43.4811 29.2273 43.2434 29.5699 43.081 29.9494C42.9186 30.3289 42.8349 30.7374 42.8349 31.1502C42.8349 31.563 42.9186 31.9715 43.081 32.351C43.2434 32.7305 43.4811 33.0732 43.7797 33.3582C44.0784 33.6432 44.4317 33.8646 44.8184 34.0092C45.205 34.1537 45.617 34.2183 46.0293 34.1991H67.8524L69.843 43.0703L82.4498 99.8674L84.0423 107.014Z" fill="#9AA7A6"/>
<path d="M94.5724 149.459C91.9754 149.459 89.4366 148.689 87.2772 147.246C85.1178 145.803 83.4348 143.752 82.441 141.353C81.4471 138.953 81.1871 136.313 81.6937 133.766C82.2004 131.219 83.451 128.879 85.2874 127.043C87.1238 125.206 89.4635 123.956 92.0107 123.449C94.5579 122.942 97.1981 123.202 99.5975 124.196C101.997 125.19 104.048 126.873 105.49 129.032C106.933 131.192 107.703 133.731 107.703 136.328C107.698 139.809 106.313 143.145 103.852 145.607C101.39 148.068 98.0534 149.453 94.5724 149.459ZM94.5724 125.187C92.3691 125.187 90.2152 125.841 88.3831 127.065C86.5511 128.289 85.1232 130.029 84.28 132.064C83.4368 134.1 83.2162 136.34 83.646 138.501C84.0759 140.662 85.1369 142.647 86.6949 144.205C88.253 145.763 90.238 146.824 92.399 147.254C94.5601 147.684 96.8 147.463 98.8357 146.62C100.871 145.777 102.611 144.349 103.835 142.517C105.06 140.685 105.713 138.531 105.713 136.328C105.709 133.374 104.535 130.543 102.446 128.454C100.358 126.366 97.526 125.191 94.5724 125.187Z" fill="#9AA7A6"/>
<path d="M151.747 149.459C149.15 149.459 146.611 148.689 144.452 147.246C142.293 145.803 140.61 143.752 139.616 141.353C138.622 138.953 138.362 136.313 138.869 133.766C139.375 131.219 140.626 128.879 142.462 127.043C144.299 125.206 146.638 123.956 149.185 123.449C151.733 122.942 154.373 123.202 156.772 124.196C159.172 125.19 161.222 126.873 162.665 129.032C164.108 131.192 164.878 133.731 164.878 136.328C164.873 139.809 163.488 143.145 161.026 145.607C158.565 148.068 155.228 149.453 151.747 149.459ZM151.747 125.187C149.544 125.187 147.39 125.841 145.558 127.065C143.726 128.289 142.298 130.029 141.455 132.064C140.612 134.1 140.391 136.34 140.821 138.501C141.251 140.662 142.312 142.647 143.87 144.205C145.428 145.763 147.413 146.824 149.574 147.254C151.735 147.684 153.975 147.463 156.011 146.62C158.046 145.777 159.786 144.349 161.01 142.517C162.234 140.685 162.888 138.531 162.888 136.328C162.884 133.374 161.709 130.543 159.621 128.454C157.532 126.366 154.701 125.191 151.747 125.187Z" fill="#9AA7A6"/>
<path d="M139.611 29.1829C138.609 29.1842 137.63 28.8882 136.796 28.3325C135.963 27.7767 135.313 26.9861 134.929 26.0607C134.545 25.1354 134.444 24.1169 134.639 23.1342C134.834 22.1515 135.316 21.2489 136.025 20.5404C136.733 19.832 137.636 19.3497 138.619 19.1546C139.601 18.9594 140.62 19.0603 141.545 19.4443C142.47 19.8283 143.261 20.4782 143.817 21.3117C144.373 22.1453 144.669 23.125 144.667 24.1269C144.666 25.4673 144.132 26.7523 143.184 27.7001C142.237 28.6479 140.952 29.1811 139.611 29.1829ZM139.611 19.7278C138.741 19.7265 137.89 19.9833 137.165 20.4659C136.441 20.9485 135.876 21.6351 135.542 22.4388C135.208 23.2425 135.12 24.1273 135.289 24.981C135.458 25.8348 135.877 26.6193 136.492 27.2352C137.107 27.8511 137.89 28.2707 138.744 28.441C139.597 28.6113 140.482 28.5245 141.287 28.1918C142.091 27.859 142.778 27.2952 143.262 26.5716C143.746 25.848 144.004 24.9972 144.004 24.1269C144.002 22.9619 143.539 21.8449 142.716 21.0205C141.893 20.1961 140.776 19.7313 139.611 19.7278Z" fill="#9AA7A6"/>
</svg>
