<svg width="167" height="152" viewBox="0 0 167 152" fill="none" xmlns="http://www.w3.org/2000/svg">
<path d="M74.2589 146.065C103.941 146.065 128.003 143.131 128.003 139.512C128.003 135.893 103.941 132.96 74.2589 132.96C44.5768 132.96 20.5146 135.893 20.5146 139.512C20.5146 143.131 44.5768 146.065 74.2589 146.065Z" fill="#E4E9EA"/>
<path d="M142.287 77.3113C142.183 77.3113 142.081 77.2909 141.985 77.2511C141.889 77.2114 141.802 77.1532 141.728 77.0798C141.655 77.0064 141.597 76.9193 141.557 76.8234C141.517 76.7275 141.497 76.6247 141.497 76.5209V66.5984C141.486 66.4878 141.499 66.3762 141.534 66.2708C141.569 66.1653 141.626 66.0684 141.701 65.9862C141.775 65.904 141.866 65.8383 141.968 65.7934C142.07 65.7484 142.18 65.7252 142.291 65.7252C142.402 65.7252 142.512 65.7484 142.613 65.7934C142.715 65.8383 142.806 65.904 142.881 65.9862C142.956 66.0684 143.012 66.1653 143.047 66.2708C143.082 66.3762 143.095 66.4878 143.085 66.5984V76.5569C143.074 76.7608 142.985 76.9528 142.836 77.0932C142.688 77.2335 142.491 77.3116 142.287 77.3113Z" fill="#9AA6A5"/>
<path d="M147.251 72.3536H137.315C137.204 72.3642 137.092 72.3515 136.987 72.3164C136.882 72.2813 136.785 72.2245 136.702 72.1498C136.62 72.075 136.555 71.9839 136.51 71.8823C136.465 71.7807 136.441 71.6708 136.441 71.5597C136.441 71.4486 136.465 71.3387 136.51 71.2371C136.555 71.1355 136.62 71.0444 136.702 70.9696C136.785 70.8949 136.882 70.8381 136.987 70.803C137.092 70.7679 137.204 70.7552 137.315 70.7657H147.237C147.435 70.7846 147.618 70.8763 147.752 71.0231C147.885 71.17 147.959 71.3613 147.959 71.5597C147.959 71.7581 147.885 71.9494 147.752 72.0962C147.618 72.243 147.435 72.3348 147.237 72.3536H147.251Z" fill="#9AA6A5"/>
<path d="M35.0358 59.7724C34.8243 59.7724 34.6214 59.6884 34.4719 59.5388C34.3223 59.3893 34.2383 59.1864 34.2383 58.9749V49.0523C34.2571 48.8548 34.3489 48.6713 34.4957 48.5378C34.6425 48.4044 34.8338 48.3304 35.0322 48.3304C35.2307 48.3304 35.422 48.4044 35.5688 48.5378C35.7156 48.6713 35.8074 48.8548 35.8262 49.0523V58.9749C35.8262 59.1852 35.7432 59.3869 35.5951 59.5363C35.4471 59.6857 35.2461 59.7705 35.0358 59.7724Z" fill="#9AA6A5"/>
<path d="M39.9931 54.8075H30.0706C29.873 54.7887 29.6896 54.697 29.5561 54.5501C29.4226 54.4033 29.3486 54.212 29.3486 54.0136C29.3486 53.8152 29.4226 53.6239 29.5561 53.4771C29.6896 53.3302 29.873 53.2385 30.0706 53.2197H39.9931C40.1037 53.2091 40.2153 53.2218 40.3207 53.2569C40.4262 53.292 40.5231 53.3488 40.6053 53.4235C40.6875 53.4983 40.7532 53.5894 40.7981 53.691C40.8431 53.7926 40.8663 53.9025 40.8663 54.0136C40.8663 54.1247 40.8431 54.2346 40.7981 54.3362C40.7532 54.4378 40.6875 54.5289 40.6053 54.6037C40.5231 54.6784 40.4262 54.7352 40.3207 54.7703C40.2153 54.8054 40.1037 54.8181 39.9931 54.8075Z" fill="#9AA6A5"/>
<path d="M133.722 146.92C133.587 146.92 133.457 146.866 133.361 146.771C133.266 146.675 133.212 146.545 133.212 146.41V142.314C133.227 142.189 133.287 142.073 133.382 141.989C133.477 141.904 133.599 141.858 133.726 141.858C133.852 141.858 133.975 141.904 134.069 141.989C134.164 142.073 134.224 142.189 134.239 142.314V146.41C134.239 146.478 134.226 146.545 134.2 146.607C134.174 146.669 134.136 146.726 134.087 146.773C134.039 146.821 133.982 146.858 133.919 146.883C133.857 146.909 133.79 146.921 133.722 146.92Z" fill="#9AA6A5"/>
<path d="M135.742 144.88H131.653C131.581 144.888 131.507 144.881 131.438 144.859C131.368 144.837 131.304 144.801 131.249 144.753C131.194 144.704 131.151 144.644 131.121 144.578C131.091 144.511 131.075 144.439 131.075 144.366C131.075 144.293 131.091 144.221 131.121 144.154C131.151 144.087 131.194 144.028 131.249 143.979C131.304 143.931 131.368 143.894 131.438 143.872C131.507 143.85 131.581 143.844 131.653 143.852H135.742C135.814 143.844 135.888 143.85 135.958 143.872C136.027 143.894 136.092 143.931 136.146 143.979C136.201 144.028 136.244 144.087 136.274 144.154C136.304 144.221 136.32 144.293 136.32 144.366C136.32 144.439 136.304 144.511 136.274 144.578C136.244 144.644 136.201 144.704 136.146 144.753C136.092 144.801 136.027 144.837 135.958 144.859C135.888 144.881 135.814 144.888 135.742 144.88Z" fill="#9AA6A5"/>
<path d="M21.1111 73.3235C21.0435 73.3244 20.9764 73.312 20.9136 73.2867C20.8509 73.2615 20.7938 73.2241 20.7457 73.1766C20.6976 73.1292 20.6593 73.0726 20.6333 73.0103C20.6072 72.9479 20.5937 72.881 20.5938 72.8134V68.7179C20.6087 68.5921 20.6692 68.4761 20.7639 68.392C20.8586 68.3079 20.9808 68.2614 21.1075 68.2614C21.2341 68.2614 21.3564 68.3079 21.4511 68.392C21.5458 68.4761 21.6063 68.5921 21.6212 68.7179V72.8134C21.6212 72.8803 21.608 72.9467 21.5824 73.0086C21.5567 73.0705 21.5192 73.1267 21.4718 73.1741C21.4244 73.2215 21.3682 73.259 21.3063 73.2847C21.2444 73.3103 21.1781 73.3235 21.1111 73.3235Z" fill="#9AA6A5"/>
<path d="M23.1584 71.2758H19.0629C18.9371 71.2609 18.8212 71.2004 18.7371 71.1057C18.6529 71.011 18.6064 70.8887 18.6064 70.7621C18.6064 70.6354 18.6529 70.5132 18.7371 70.4185C18.8212 70.3238 18.9371 70.2633 19.0629 70.2484H23.1584C23.2842 70.2633 23.4001 70.3238 23.4843 70.4185C23.5684 70.5132 23.6149 70.6354 23.6149 70.7621C23.6149 70.8887 23.5684 71.011 23.4843 71.1057C23.4001 71.2004 23.2842 71.2609 23.1584 71.2758Z" fill="#9AA6A5"/>
<path d="M146.152 87.3343C146.085 87.3343 146.018 87.3209 145.956 87.2948C145.893 87.2687 145.837 87.2305 145.789 87.1824C145.742 87.1342 145.704 87.0771 145.679 87.0144C145.654 86.9517 145.641 86.8846 145.642 86.817V82.7287C145.634 82.6561 145.641 82.5826 145.662 82.5128C145.684 82.4431 145.721 82.3788 145.769 82.3242C145.818 82.2696 145.877 82.2259 145.944 82.1959C146.011 82.166 146.083 82.1505 146.156 82.1505C146.229 82.1505 146.301 82.166 146.368 82.1959C146.435 82.2259 146.494 82.2696 146.543 82.3242C146.591 82.3788 146.628 82.4431 146.65 82.5128C146.671 82.5826 146.678 82.6561 146.67 82.7287V86.817C146.67 86.9542 146.615 87.0858 146.518 87.1828C146.421 87.2798 146.29 87.3343 146.152 87.3343Z" fill="#9AA6A5"/>
<path d="M148.2 85.3154H144.105C143.979 85.3005 143.863 85.24 143.779 85.1453C143.695 85.0506 143.648 84.9284 143.648 84.8017C143.648 84.675 143.695 84.5528 143.779 84.4581C143.863 84.3634 143.979 84.3029 144.105 84.288H148.2C148.326 84.3029 148.442 84.3634 148.526 84.4581C148.61 84.5528 148.657 84.675 148.657 84.8017C148.657 84.9284 148.61 85.0506 148.526 85.1453C148.442 85.24 148.326 85.3005 148.2 85.3154Z" fill="#9AA6A5"/>
<path d="M27.1466 151.662C25.1846 151.525 23.2377 151.222 21.3267 150.757C21.2614 150.74 21.2054 150.698 21.1705 150.64C21.1356 150.583 21.1246 150.514 21.1399 150.448C21.1569 150.383 21.1987 150.327 21.2564 150.292C21.3141 150.257 21.3832 150.246 21.4489 150.261C23.3357 150.722 25.2589 151.021 27.1969 151.152C27.2306 151.154 27.2636 151.162 27.2939 151.177C27.3242 151.192 27.3512 151.213 27.3734 151.238C27.3955 151.264 27.4123 151.293 27.4227 151.325C27.4331 151.358 27.4369 151.391 27.434 151.425C27.4313 151.46 27.4217 151.494 27.4057 151.524C27.3896 151.555 27.3675 151.583 27.3407 151.605C27.3139 151.627 27.2829 151.643 27.2495 151.653C27.2162 151.663 27.1812 151.666 27.1466 151.662ZM15.8373 148.853C15.8042 148.86 15.7698 148.86 15.7367 148.853L15.5068 148.745C13.7924 147.951 12.1708 146.97 10.6713 145.821C10.6189 145.778 10.5847 145.718 10.5753 145.651C10.566 145.584 10.5823 145.517 10.621 145.461C10.6633 145.409 10.7246 145.375 10.7918 145.367C10.8589 145.359 10.9266 145.377 10.9802 145.418C12.4527 146.544 14.0427 147.508 15.7224 148.292L15.9451 148.393C15.9762 148.406 16.0042 148.425 16.0275 148.45C16.0507 148.474 16.0686 148.503 16.0801 148.535C16.0916 148.567 16.0964 148.601 16.0942 148.634C16.0919 148.668 16.0828 148.701 16.0672 148.731C16.0443 148.771 16.0106 148.803 15.9699 148.825C15.9292 148.847 15.8833 148.856 15.8373 148.853ZM6.6117 141.804C6.57437 141.805 6.53749 141.796 6.50386 141.78C6.47023 141.764 6.44076 141.74 6.41771 141.711C5.15853 140.193 4.07172 138.54 3.17724 136.782C3.14718 136.721 3.1424 136.65 3.16392 136.586C3.18544 136.521 3.23153 136.468 3.2922 136.437C3.3219 136.422 3.35423 136.414 3.38731 136.411C3.42039 136.409 3.45358 136.414 3.48496 136.424C3.51635 136.435 3.54531 136.452 3.57018 136.474C3.59506 136.496 3.61535 136.522 3.6299 136.552C4.50781 138.277 5.5754 139.899 6.81288 141.388C6.85491 141.44 6.87468 141.507 6.86797 141.574C6.86126 141.642 6.8286 141.703 6.77696 141.747C6.72919 141.783 6.67142 141.803 6.6117 141.804ZM1.35942 131.443C1.30377 131.444 1.2496 131.425 1.20539 131.392C1.16119 131.358 1.12944 131.31 1.11513 131.257C0.639845 129.34 0.38433 127.375 0.353516 125.401C0.35349 125.333 0.379754 125.269 0.426719 125.22C0.473684 125.172 0.537638 125.144 0.604986 125.142C0.672361 125.142 0.737095 125.168 0.785402 125.215C0.833709 125.262 0.861777 125.326 0.863649 125.394C0.879126 127.331 1.12025 129.26 1.58215 131.142C1.59071 131.174 1.59264 131.208 1.58782 131.241C1.58301 131.275 1.57155 131.307 1.55413 131.336C1.53671 131.364 1.51367 131.389 1.4864 131.409C1.45912 131.429 1.42816 131.443 1.39535 131.451L1.35942 131.443ZM1.20135 119.84H1.14387C1.11117 119.833 1.08017 119.819 1.05265 119.801C1.02513 119.782 1.00165 119.757 0.98359 119.729C0.965531 119.701 0.953255 119.67 0.947465 119.637C0.941675 119.604 0.942496 119.57 0.949877 119.538C1.38688 117.609 2.08805 115.75 3.03354 114.012C3.0668 113.954 3.12134 113.911 3.18567 113.893C3.25 113.874 3.3191 113.881 3.37842 113.912C3.40792 113.928 3.43398 113.949 3.45505 113.975C3.47613 114.001 3.49181 114.031 3.50118 114.063C3.51055 114.095 3.51342 114.129 3.50961 114.162C3.5058 114.195 3.4954 114.228 3.47901 114.257C2.55571 115.952 1.87373 117.769 1.45283 119.653C1.43711 119.707 1.40401 119.755 1.35859 119.789C1.31316 119.822 1.25793 119.84 1.20135 119.84ZM6.75539 109.716C6.70594 109.713 6.65826 109.696 6.61773 109.668C6.57719 109.639 6.54542 109.6 6.52599 109.555C6.50657 109.509 6.50027 109.459 6.50779 109.41C6.51532 109.361 6.53637 109.315 6.56859 109.278C7.96074 107.88 9.50566 106.644 11.1742 105.592C11.2024 105.573 11.2339 105.561 11.267 105.555C11.3001 105.549 11.3341 105.549 11.367 105.557C11.3998 105.564 11.4308 105.578 11.4582 105.597C11.4855 105.617 11.5087 105.642 11.5263 105.671C11.5447 105.699 11.5573 105.73 11.5633 105.763C11.5693 105.797 11.5686 105.831 11.5612 105.863C11.5538 105.896 11.5399 105.927 11.5204 105.955C11.5008 105.982 11.4759 106.005 11.4472 106.023C9.81096 107.044 8.29701 108.249 6.93502 109.615C6.91356 109.643 6.88655 109.667 6.85566 109.684C6.82476 109.701 6.79063 109.712 6.75539 109.716Z" fill="#050606"/>
<path d="M27.1464 152H27.0889C25.1121 151.863 23.1507 151.558 21.2259 151.087C21.1497 151.071 21.0778 151.039 21.0147 150.993C20.9516 150.947 20.8987 150.889 20.8595 150.822C20.7795 150.688 20.7538 150.528 20.7876 150.376C20.8061 150.3 20.8394 150.229 20.8856 150.166C20.9318 150.104 20.9901 150.051 21.0569 150.011C21.1237 149.971 21.1978 149.944 21.2749 149.933C21.3521 149.922 21.4306 149.926 21.5061 149.945C23.37 150.397 25.2689 150.691 27.1823 150.822C27.3393 150.833 27.4856 150.905 27.5892 151.024C27.6928 151.142 27.7455 151.297 27.7356 151.454C27.7215 151.601 27.6537 151.739 27.545 151.839C27.4364 151.94 27.2945 151.997 27.1464 152ZM15.8371 149.191C15.7525 149.189 15.6691 149.17 15.5928 149.133L15.3701 149.033C13.6322 148.227 11.9888 147.232 10.4699 146.065C10.4068 146.02 10.3538 145.962 10.3142 145.895C10.2746 145.828 10.2493 145.754 10.24 145.677C10.2292 145.6 10.2339 145.522 10.2536 145.446C10.2734 145.371 10.3078 145.301 10.3549 145.239C10.4514 145.113 10.5933 145.031 10.7501 145.009C10.9043 144.991 11.0592 145.035 11.1812 145.131C12.6355 146.242 14.2063 147.191 15.8659 147.962L16.0814 148.063C16.2055 148.117 16.3069 148.213 16.3684 148.334C16.4299 148.455 16.4478 148.594 16.4191 148.726C16.3904 148.859 16.3168 148.977 16.2108 149.062C16.1048 149.147 15.9728 149.192 15.8371 149.191ZM6.6115 142.142C6.52493 142.141 6.4396 142.121 6.36143 142.084C6.28326 142.047 6.21413 141.993 6.15885 141.927C4.88145 140.377 3.78017 138.69 2.87528 136.897C2.81802 136.752 2.81802 136.59 2.87528 136.444C2.92603 136.303 3.02819 136.186 3.16138 136.117C3.29457 136.048 3.44898 136.031 3.59378 136.071C3.66806 136.094 3.73686 136.132 3.7961 136.183C3.85534 136.234 3.90382 136.296 3.93866 136.365C4.80385 138.068 5.85705 139.668 7.07854 141.136C7.14873 141.223 7.19291 141.329 7.20601 141.44C7.21911 141.551 7.2006 141.664 7.15261 141.765C7.10462 141.867 7.02908 141.952 6.93465 142.012C6.84022 142.073 6.73073 142.105 6.6187 142.106L6.6115 142.142ZM1.35923 131.781C1.2283 131.782 1.10105 131.738 0.998056 131.657C0.895057 131.576 0.822324 131.463 0.791613 131.336C0.304717 129.396 0.0443144 127.407 0.015625 125.408C0.015625 125.331 0.030857 125.254 0.0604658 125.183C0.0900746 125.111 0.133481 125.046 0.188191 124.991C0.242901 124.937 0.307847 124.893 0.379329 124.864C0.450811 124.834 0.527423 124.819 0.604794 124.819C0.682166 124.819 0.758788 124.834 0.83027 124.864C0.901752 124.893 0.966698 124.937 1.02141 124.991C1.07612 125.046 1.11951 125.111 1.14912 125.183C1.17873 125.254 1.19397 125.331 1.19397 125.408C1.21839 127.314 1.45944 129.211 1.91248 131.063C1.94953 131.215 1.92506 131.376 1.84437 131.51C1.76369 131.645 1.63327 131.742 1.48137 131.781H1.35923ZM1.20116 120.177H1.06464C0.987781 120.161 0.915129 120.128 0.851057 120.083C0.786985 120.037 0.732832 119.979 0.691867 119.912C0.650901 119.845 0.623969 119.77 0.61271 119.692C0.60145 119.614 0.606088 119.535 0.626348 119.459C1.06732 117.5 1.77825 115.611 2.73876 113.847C2.79416 113.744 2.87901 113.66 2.98251 113.605C3.08601 113.551 3.20345 113.528 3.31986 113.54C3.43626 113.553 3.54635 113.599 3.63609 113.674C3.72583 113.75 3.79115 113.85 3.82371 113.962C3.84619 114.037 3.85331 114.116 3.84467 114.194C3.83603 114.272 3.81179 114.347 3.77341 114.415C2.86294 116.08 2.19058 117.865 1.77596 119.718C1.74782 119.849 1.67524 119.966 1.57049 120.05C1.46575 120.134 1.33528 120.179 1.20116 120.177ZM6.7552 110.046C6.59994 110.048 6.45019 109.989 6.33848 109.881C6.2273 109.77 6.16298 109.621 6.15885 109.464C6.15957 109.308 6.22147 109.159 6.33129 109.048C7.74082 107.629 9.30497 106.374 10.9944 105.304C11.1276 105.222 11.2874 105.195 11.4402 105.229C11.593 105.262 11.7269 105.354 11.8135 105.484C11.8967 105.617 11.9238 105.778 11.8888 105.932C11.8538 106.085 11.7596 106.219 11.6267 106.303C10.0119 107.33 8.51759 108.535 7.17194 109.896C7.11638 109.948 7.05078 109.988 6.97912 110.014C6.90747 110.04 6.83127 110.051 6.7552 110.046Z" fill="#9AA6A5"/>
<path d="M162.937 47.4932C162.864 47.4934 162.794 47.4661 162.741 47.4168C162.688 47.3674 162.655 47.2998 162.65 47.2273C162.418 44.9386 162.034 42.6678 161.5 40.4303C161.491 40.3935 161.49 40.3554 161.497 40.3181C161.503 40.2808 161.516 40.2452 161.536 40.2132C161.556 40.1811 161.582 40.1534 161.613 40.1314C161.644 40.1095 161.679 40.0939 161.716 40.0854C161.752 40.0758 161.79 40.0736 161.827 40.0789C161.864 40.0842 161.9 40.097 161.932 40.1164C161.964 40.1359 161.992 40.1616 162.014 40.1921C162.036 40.2225 162.052 40.2571 162.06 40.2938C162.599 42.5577 162.988 44.8547 163.224 47.1699C163.228 47.2076 163.225 47.2458 163.214 47.2822C163.203 47.3186 163.185 47.3525 163.161 47.3819C163.137 47.4113 163.107 47.4356 163.074 47.4535C163.04 47.4714 163.004 47.4824 162.966 47.486L162.937 47.4932ZM159.718 34.0356C159.659 34.0344 159.602 34.0161 159.554 33.9829C159.505 33.9497 159.467 33.9031 159.445 33.8488C158.616 31.7047 157.644 29.6187 156.535 27.6049C156.516 27.5716 156.504 27.5347 156.5 27.4966C156.495 27.4586 156.499 27.42 156.509 27.3831C156.52 27.3463 156.538 27.312 156.562 27.2822C156.586 27.2524 156.616 27.2278 156.65 27.2098C156.683 27.191 156.719 27.1791 156.757 27.1748C156.794 27.1704 156.832 27.1737 156.869 27.1845C156.905 27.1952 156.939 27.2132 156.968 27.2373C156.997 27.2614 157.021 27.2911 157.038 27.3247C158.162 29.3609 159.146 31.471 159.984 33.6404C159.999 33.6757 160.006 33.7136 160.006 33.7519C160.006 33.7901 159.998 33.828 159.982 33.863C159.967 33.898 159.944 33.9294 159.916 33.9554C159.888 33.9814 159.855 34.0013 159.819 34.014C159.787 34.0287 159.753 34.0361 159.718 34.0356ZM153.043 21.9503C152.998 21.9503 152.952 21.94 152.911 21.9201C152.87 21.9002 152.834 21.8712 152.806 21.8353C151.437 19.9853 149.946 18.2283 148.344 16.5759C148.317 16.5491 148.295 16.5173 148.281 16.4821C148.266 16.447 148.258 16.4092 148.258 16.3711C148.258 16.333 148.266 16.2953 148.281 16.2601C148.295 16.225 148.317 16.1931 148.344 16.1663C148.399 16.1132 148.473 16.0835 148.549 16.0835C148.625 16.0835 148.699 16.1132 148.754 16.1663C150.374 17.8363 151.882 19.6126 153.266 21.4833C153.31 21.5449 153.328 21.6211 153.318 21.696C153.307 21.7709 153.268 21.8388 153.208 21.8856C153.16 21.9219 153.103 21.9442 153.043 21.9503ZM143.401 12.0206C143.336 12.0233 143.272 12.003 143.221 11.9631C141.411 10.5398 139.507 9.23878 137.523 8.06877C137.459 8.02859 137.412 7.96505 137.394 7.8914C137.375 7.81776 137.385 7.73973 137.423 7.6736C137.441 7.64036 137.467 7.61115 137.497 7.58769C137.527 7.56423 137.561 7.54699 137.598 7.53696C137.635 7.52693 137.673 7.52431 137.711 7.52927C137.749 7.53422 137.785 7.54665 137.818 7.56582C139.818 8.75131 141.738 10.0666 143.566 11.5032C143.614 11.5394 143.65 11.5899 143.668 11.6475C143.686 11.705 143.685 11.7668 143.666 11.824C143.647 11.8813 143.611 11.931 143.562 11.9663C143.513 12.0016 143.454 12.0206 143.394 12.0206H143.401ZM131.474 4.99357C131.436 5.00435 131.396 5.00435 131.359 4.99357C129.235 4.10634 127.055 3.35753 124.835 2.75183C124.798 2.74272 124.763 2.72624 124.733 2.70338C124.703 2.68053 124.677 2.65177 124.659 2.61886C124.64 2.58594 124.628 2.54955 124.624 2.5119C124.619 2.47424 124.623 2.43609 124.633 2.39976C124.654 2.32649 124.702 2.26421 124.768 2.2265C124.834 2.1888 124.912 2.17876 124.986 2.19858C127.233 2.8038 129.436 3.55995 131.581 4.46188C131.652 4.49205 131.709 4.54882 131.738 4.62002C131.768 4.69121 131.768 4.77115 131.739 4.84269C131.709 4.88392 131.669 4.91676 131.622 4.93812C131.576 4.95949 131.525 4.96869 131.474 4.96483V4.99357ZM97.4739 2.83805C97.4017 2.84248 97.3304 2.81948 97.2744 2.77365C97.2183 2.72782 97.1817 2.66252 97.1717 2.59082C97.1617 2.51912 97.1791 2.4463 97.2205 2.3869C97.2619 2.3275 97.3242 2.28591 97.3949 2.27043C99.6382 1.6407 101.921 1.16064 104.228 0.833423C104.303 0.823175 104.379 0.843115 104.44 0.888887C104.501 0.934659 104.541 1.00254 104.551 1.07771C104.557 1.1151 104.556 1.15333 104.547 1.1901C104.538 1.22686 104.521 1.26139 104.498 1.29161C104.475 1.32183 104.447 1.34711 104.414 1.36592C104.381 1.38473 104.345 1.39667 104.307 1.40104C102.027 1.71574 99.7702 2.18384 97.553 2.80213L97.4739 2.83805ZM118.109 1.40104C115.891 1.11941 113.657 0.977831 111.42 0.977122H111.226C111.184 0.983749 111.141 0.981189 111.1 0.969612C111.059 0.958035 111.021 0.937714 110.989 0.910058C110.956 0.882402 110.931 0.848071 110.913 0.809413C110.895 0.770755 110.886 0.728692 110.886 0.686128C110.886 0.643563 110.895 0.601501 110.913 0.562843C110.931 0.524185 110.956 0.489853 110.989 0.462198C111.021 0.434542 111.059 0.414221 111.1 0.402644C111.141 0.391067 111.184 0.388507 111.226 0.395134H111.42C113.681 0.393476 115.94 0.539886 118.181 0.833423C118.219 0.837855 118.256 0.84977 118.289 0.868484C118.322 0.887198 118.351 0.912332 118.375 0.942422C118.398 0.972512 118.415 1.00696 118.425 1.04376C118.435 1.08055 118.438 1.11896 118.433 1.15675C118.411 1.22312 118.367 1.27977 118.308 1.31661C118.249 1.35345 118.178 1.36809 118.109 1.35793V1.40104Z" fill="#020202"/>
<path d="M162.937 47.8166C162.781 47.8174 162.632 47.7605 162.516 47.6569C162.4 47.5533 162.328 47.4105 162.312 47.2561C162.084 44.9816 161.702 42.7251 161.169 40.5022C161.134 40.3398 161.162 40.17 161.248 40.028C161.29 39.957 161.346 39.8955 161.413 39.8472C161.48 39.799 161.556 39.7651 161.636 39.7478C161.795 39.7097 161.963 39.7355 162.103 39.8196C162.247 39.9087 162.35 40.0505 162.391 40.2148C162.934 42.4924 163.322 44.804 163.555 47.134C163.565 47.2148 163.558 47.2968 163.534 47.3748C163.511 47.4528 163.471 47.5249 163.418 47.5866C163.366 47.6511 163.302 47.7047 163.229 47.7441C163.156 47.7836 163.076 47.8082 162.994 47.8166H162.937ZM159.718 34.359C159.592 34.3591 159.47 34.3215 159.366 34.251C159.262 34.1805 159.182 34.0804 159.136 33.9638C158.317 31.8329 157.357 29.759 156.262 27.7559C156.182 27.6112 156.161 27.4412 156.204 27.2817C156.254 27.1234 156.362 26.9898 156.506 26.908C156.577 26.8679 156.656 26.8427 156.738 26.8341C156.819 26.8254 156.902 26.8335 156.98 26.8578C157.059 26.8794 157.133 26.9166 157.197 26.9672C157.261 27.0178 157.314 27.0807 157.354 27.1523C158.48 29.2056 159.467 31.3324 160.307 33.5183C160.339 33.5933 160.355 33.6739 160.355 33.7554C160.355 33.8369 160.339 33.9176 160.307 33.9925C160.274 34.0686 160.225 34.1372 160.165 34.194C160.104 34.2509 160.033 34.2948 159.955 34.323C159.88 34.3544 159.799 34.3691 159.718 34.3661V34.359ZM153.043 22.2521C152.945 22.2516 152.848 22.2279 152.76 22.1829C152.673 22.138 152.597 22.0731 152.54 21.9935C151.176 20.1591 149.693 18.4165 148.099 16.7771C148.042 16.7183 147.998 16.6485 147.968 16.5719C147.938 16.4954 147.924 16.4137 147.927 16.3316C147.928 16.2495 147.945 16.1685 147.977 16.093C148.01 16.0175 148.056 15.9491 148.115 15.8917C148.174 15.8343 148.243 15.7891 148.32 15.7586C148.396 15.728 148.477 15.7128 148.559 15.7137C148.642 15.7144 148.723 15.732 148.799 15.7653C148.874 15.7987 148.942 15.8472 148.998 15.9077C150.63 17.5872 152.149 19.373 153.546 21.2534C153.641 21.3866 153.682 21.5509 153.661 21.7132C153.634 21.8793 153.544 22.0286 153.409 22.13C153.304 22.2109 153.176 22.2562 153.043 22.2593V22.2521ZM143.393 12.3224C143.255 12.3209 143.12 12.2728 143.012 12.1859C141.211 10.7761 139.32 9.4849 137.351 8.3203C137.28 8.27885 137.218 8.22369 137.169 8.15805C137.119 8.09241 137.084 8.01761 137.063 7.93801C137.043 7.85841 137.039 7.7756 137.052 7.69444C137.064 7.61327 137.092 7.53537 137.135 7.46528C137.219 7.32242 137.356 7.21872 137.516 7.17696C137.677 7.13519 137.847 7.15878 137.99 7.24254C140.007 8.43318 141.942 9.75823 143.781 11.2087C143.848 11.2577 143.903 11.3201 143.944 11.3919C143.985 11.4636 144.01 11.5432 144.018 11.6254C144.032 11.715 144.026 11.8064 144.001 11.8934C143.975 11.9804 143.931 12.0608 143.872 12.1292C143.812 12.1975 143.739 12.2521 143.656 12.2892C143.574 12.3263 143.484 12.345 143.393 12.3439V12.3224ZM131.473 5.2882C131.389 5.29025 131.305 5.27306 131.229 5.23791C129.125 4.354 126.965 3.60992 124.762 3.01054C124.602 2.96834 124.466 2.86449 124.382 2.72174C124.299 2.57899 124.275 2.40898 124.317 2.24893C124.367 2.09057 124.477 1.95812 124.623 1.88016C124.77 1.80219 124.941 1.78496 125.1 1.83219C127.364 2.44467 129.584 3.20799 131.746 4.11704C131.897 4.18343 132.017 4.30626 132.078 4.45931C132.14 4.61235 132.139 4.78348 132.077 4.93614C132.025 5.05022 131.939 5.14569 131.831 5.20986C131.723 5.27403 131.598 5.30387 131.473 5.2954V5.2882ZM97.4735 3.13269C97.3367 3.13165 97.2039 3.08627 97.0951 3.00336C96.9863 2.92045 96.9073 2.80447 96.87 2.67284C96.8279 2.51323 96.8485 2.34357 96.9275 2.19863C96.9683 2.12679 97.023 2.06377 97.0884 2.0132C97.1537 1.96264 97.2285 1.92554 97.3083 1.90405C99.5662 1.2744 101.863 0.794353 104.184 0.467035C104.307 0.450149 104.432 0.470069 104.543 0.524287C104.655 0.578505 104.747 0.664567 104.81 0.771558C104.872 0.878549 104.901 1.00165 104.894 1.12524C104.886 1.24883 104.842 1.36735 104.766 1.46576C104.719 1.53246 104.658 1.58858 104.587 1.63062C104.517 1.67265 104.438 1.69969 104.357 1.71005C102.091 2.0185 99.8486 2.48182 97.646 3.09676L97.4735 3.13269ZM118.109 1.6813H118.023C115.822 1.3935 113.604 1.2495 111.384 1.2502H111.19C111.024 1.2502 110.865 1.18434 110.748 1.06711C110.631 0.949884 110.565 0.790894 110.565 0.625108C110.565 0.459321 110.631 0.30032 110.748 0.183091C110.865 0.0658619 111.024 0 111.19 0H111.384C113.659 0.00191249 115.932 0.148304 118.188 0.438289C118.354 0.44877 118.509 0.524686 118.618 0.649326C118.728 0.773966 118.784 0.937122 118.774 1.10291C118.763 1.2687 118.687 1.42353 118.563 1.53335C118.438 1.64317 118.275 1.69897 118.109 1.68849V1.6813Z" fill="#9AA6A5"/>
<path d="M163.181 54.3549C162.506 54.3549 161.847 54.1548 161.285 53.7797C160.724 53.4047 160.287 52.8717 160.028 52.2481C159.77 51.6244 159.702 50.9382 159.834 50.2762C159.966 49.6142 160.291 49.006 160.768 48.5287C161.245 48.0514 161.854 47.7264 162.516 47.5947C163.178 47.463 163.864 47.5306 164.488 47.7889C165.111 48.0472 165.644 48.4847 166.019 49.0459C166.394 49.6072 166.594 50.267 166.594 50.942C166.594 51.8472 166.235 52.7153 165.595 53.3553C164.955 53.9953 164.087 54.3549 163.181 54.3549ZM163.181 48.2045C162.64 48.2045 162.111 48.3651 161.661 48.6659C161.21 48.9667 160.86 49.3942 160.652 49.8944C160.445 50.3946 160.391 50.9451 160.497 51.4761C160.602 52.0071 160.863 52.4949 161.246 52.8777C161.629 53.2606 162.116 53.5213 162.647 53.6269C163.178 53.7326 163.729 53.6783 164.229 53.4711C164.729 53.2639 165.157 52.9131 165.458 52.4629C165.758 52.0127 165.919 51.4834 165.919 50.942C165.917 50.2166 165.628 49.5214 165.115 49.0084C164.602 48.4954 163.907 48.2064 163.181 48.2045Z" fill="#9AA6A5"/>
<path d="M113.489 79.7829H31.1127C26.7794 79.7829 23.2666 83.2957 23.2666 87.629V130.775C23.2666 135.109 26.7794 138.621 31.1127 138.621H113.489C117.823 138.621 121.335 135.109 121.335 130.775V87.629C121.335 83.2957 117.823 79.7829 113.489 79.7829Z" fill="#E4E9EA"/>
<path d="M54.6504 87.629H38.9582C36.7916 87.629 35.0352 89.3854 35.0352 91.552V107.244C35.0352 109.411 36.7916 111.167 38.9582 111.167H54.6504C56.817 111.167 58.5734 109.411 58.5734 107.244V91.552C58.5734 89.3854 56.817 87.629 54.6504 87.629Z" fill="white"/>
<path d="M113.482 139.634H31.1121C28.7631 139.632 26.5108 138.698 24.8498 137.037C23.1888 135.376 22.2548 133.124 22.2529 130.775V87.6648C22.2548 85.3165 23.1891 83.065 24.8503 81.4051C26.5115 79.7452 28.7638 78.8129 31.1121 78.8129H113.482C115.83 78.8129 118.082 79.7452 119.743 81.4051C121.405 83.065 122.339 85.3165 122.341 87.6648V130.775C122.339 133.124 121.405 135.376 119.744 137.037C118.083 138.698 115.831 139.632 113.482 139.634ZM31.1121 80.7888C29.2986 80.7907 27.5598 81.5119 26.2775 82.7943C24.9951 84.0767 24.2738 85.8154 24.2719 87.6289V130.739C24.2738 132.553 24.9951 134.292 26.2775 135.574C27.5598 136.856 29.2986 137.578 31.1121 137.579H113.482C115.295 137.578 117.034 136.856 118.316 135.574C119.599 134.292 120.32 132.553 120.322 130.739V87.6289C120.32 85.8154 119.599 84.0767 118.316 82.7943C117.034 81.5119 115.295 80.7907 113.482 80.7888H31.1121Z" fill="#9AA6A5"/>
<path d="M121.328 52.3215H140.943V30.7664C140.943 28.1652 139.91 25.6706 138.071 23.8313C136.231 21.992 133.737 20.9587 131.136 20.9587C128.535 20.9587 126.04 21.992 124.201 23.8313C122.361 25.6706 121.328 28.1652 121.328 30.7664V52.3215Z" fill="#E4E9EA"/>
<path d="M131.136 20.9444H86.0279C84.4812 20.9444 82.9496 21.2493 81.5208 21.8416C80.0919 22.434 78.7939 23.3022 77.7008 24.3966C76.6078 25.491 75.7412 26.7901 75.1505 28.2196C74.5599 29.6492 74.2569 31.1811 74.2588 32.7279V103.335L82.1049 95.4894L89.951 103.335L97.7971 95.475L105.643 103.321L113.482 95.475L121.328 103.321V30.752C121.328 28.1509 122.361 25.6563 124.201 23.817C126.04 21.9777 128.535 20.9444 131.136 20.9444Z" fill="white"/>
<path d="M97.7973 60.1677C97.2818 60.1687 96.7713 60.0678 96.2949 59.871C95.8185 59.6742 95.3856 59.3853 95.0211 59.0208C94.6567 58.6563 94.3677 58.2235 94.1709 57.7471C93.9741 57.2707 93.8733 56.7601 93.8742 56.2447H89.9512C89.9568 57.9791 90.5375 59.6627 91.6024 61.0318C92.6672 62.4009 94.1561 63.3781 95.8357 63.8105V68.0138H99.7588V63.8105C101.602 63.3318 103.208 62.1976 104.276 60.6204C105.343 59.0431 105.8 57.1309 105.559 55.2415C105.319 53.3521 104.398 51.6151 102.969 50.3556C101.541 49.0961 99.7019 48.4003 97.7973 48.3986C97.0211 48.3986 96.2623 48.1683 95.617 47.7369C94.9717 47.3055 94.4689 46.6924 94.1722 45.9752C93.8755 45.2579 93.7982 44.4687 93.9501 43.7075C94.1021 42.9464 94.4765 42.2473 95.0258 41.699C95.5752 41.1506 96.2749 40.7776 97.0363 40.627C97.7978 40.4764 98.5868 40.5552 99.3035 40.8532C100.02 41.1512 100.632 41.6552 101.063 42.3012C101.493 42.9473 101.722 43.7065 101.72 44.4827H105.643C105.637 42.7477 105.056 41.0637 103.991 39.6936C102.927 38.3235 101.438 37.3446 99.7588 36.9097V32.728H95.8357V36.924C94.0048 37.4134 92.4134 38.5502 91.3567 40.1234C90.3 41.6967 89.8497 43.5998 90.0892 45.4798C90.3287 47.3599 91.2418 49.0893 92.6592 50.3474C94.0766 51.6055 95.9021 52.3069 97.7973 52.3216C98.8377 52.3216 99.8356 52.7349 100.571 53.4707C101.307 54.2064 101.72 55.2042 101.72 56.2447C101.72 57.2851 101.307 58.283 100.571 59.0187C99.8356 59.7544 98.8377 60.1677 97.7973 60.1677Z" fill="#9AA6A5"/>
<path d="M121.329 104.327C121.195 104.328 121.063 104.303 120.94 104.252C120.816 104.201 120.704 104.127 120.61 104.033L113.475 96.8978L106.348 104.033C106.254 104.127 106.142 104.202 106.018 104.254C105.895 104.305 105.763 104.331 105.629 104.331C105.496 104.331 105.363 104.305 105.24 104.254C105.117 104.202 105.005 104.127 104.911 104.033L97.7975 96.8978L90.6627 104.033C90.5686 104.127 90.4566 104.202 90.3333 104.254C90.21 104.305 90.0778 104.331 89.9442 104.331C89.8107 104.331 89.6784 104.305 89.5551 104.254C89.4318 104.202 89.3199 104.127 89.2257 104.033L82.0981 96.8978L74.9634 104.033C74.8222 104.174 74.6423 104.27 74.4465 104.308C74.2507 104.347 74.0479 104.326 73.8637 104.249C73.6796 104.172 73.5226 104.042 73.4126 103.876C73.3026 103.709 73.2447 103.514 73.2461 103.314V32.728C73.248 29.3398 74.5943 26.0908 76.9895 23.6943C79.3847 21.2977 82.6329 19.9496 86.0212 19.9458H131.136C131.276 19.934 131.417 19.9513 131.549 19.9967C131.682 20.0421 131.804 20.1145 131.907 20.2094C132.01 20.3043 132.093 20.4196 132.149 20.548C132.205 20.6764 132.234 20.8151 132.234 20.9553C132.234 21.0955 132.205 21.2342 132.149 21.3626C132.093 21.491 132.01 21.6063 131.907 21.7012C131.804 21.7961 131.682 21.8685 131.549 21.9139C131.417 21.9593 131.276 21.9766 131.136 21.9648C128.804 21.9686 126.568 22.8974 124.919 24.5474C123.27 26.1974 122.344 28.434 122.342 30.7665V103.336C122.341 103.535 122.281 103.729 122.17 103.894C122.058 104.059 121.901 104.187 121.717 104.262C121.593 104.312 121.461 104.334 121.329 104.327ZM97.7975 94.462C97.9314 94.4616 98.064 94.4881 98.1874 94.5399C98.3108 94.5918 98.4226 94.6679 98.516 94.7638L105.644 101.891L112.778 94.7638C112.872 94.6691 112.984 94.5939 113.108 94.5426C113.231 94.4913 113.363 94.4649 113.497 94.4649C113.63 94.4649 113.763 94.4913 113.886 94.5426C114.009 94.5939 114.121 94.6691 114.215 94.7638L120.337 100.885V30.7521C120.336 29.0314 120.746 27.3352 121.532 25.8045C122.318 24.2737 123.458 22.9525 124.856 21.9504H86.0571C83.1987 21.9504 80.4574 23.0859 78.4362 25.1071C76.415 27.1283 75.2795 29.8696 75.2795 32.728V100.9L81.4084 94.7782C81.5015 94.6817 81.6131 94.605 81.7366 94.5526C81.86 94.5002 81.9928 94.4731 82.1269 94.4731C82.261 94.4731 82.3937 94.5002 82.5171 94.5526C82.6406 94.605 82.7522 94.6817 82.8454 94.7782L89.9801 101.906L97.1077 94.7782C97.288 94.5874 97.5353 94.4741 97.7975 94.462Z" fill="#9AA6A5"/>
<path d="M140.943 53.3347H121.328C121.075 53.3133 120.839 53.1977 120.668 53.0107C120.496 52.8238 120.4 52.5791 120.4 52.3252C120.4 52.0712 120.496 51.8266 120.668 51.6396C120.839 51.4526 121.075 51.337 121.328 51.3157H139.938V30.752C139.934 28.4188 139.005 26.1823 137.355 24.5325C135.706 22.8827 133.469 21.9541 131.136 21.9503C130.883 21.929 130.647 21.8134 130.475 21.6264C130.303 21.4394 130.208 21.1948 130.208 20.9408C130.208 20.6869 130.303 20.4422 130.475 20.2553C130.647 20.0683 130.883 19.9527 131.136 19.9313C134.004 19.9351 136.753 21.0766 138.78 23.1053C140.808 25.1339 141.947 27.884 141.949 30.752V52.3072C141.952 52.4411 141.928 52.5742 141.879 52.6988C141.83 52.8233 141.756 52.9368 141.662 53.0325C141.569 53.1282 141.457 53.2042 141.333 53.2561C141.21 53.308 141.077 53.3347 140.943 53.3347Z" fill="#9AA6A5"/>
<path d="M110.241 77.5915H85.6755C85.5358 77.6033 85.3951 77.586 85.2624 77.5406C85.1298 77.4952 85.0079 77.4228 84.9047 77.3279C84.8015 77.233 84.719 77.1177 84.6626 76.9893C84.6063 76.8609 84.5771 76.7222 84.5771 76.582C84.5771 76.4418 84.6063 76.3031 84.6626 76.1747C84.719 76.0463 84.8015 75.931 84.9047 75.8361C85.0079 75.7412 85.1298 75.6688 85.2624 75.6234C85.3951 75.578 85.5358 75.5607 85.6755 75.5725H110.241C110.381 75.5607 110.522 75.578 110.654 75.6234C110.787 75.6688 110.909 75.7412 111.012 75.8361C111.115 75.931 111.198 76.0463 111.254 76.1747C111.31 76.3031 111.34 76.4418 111.34 76.582C111.34 76.7222 111.31 76.8609 111.254 76.9893C111.198 77.1177 111.115 77.233 111.012 77.3279C110.909 77.4228 110.787 77.4952 110.654 77.5406C110.522 77.586 110.381 77.6033 110.241 77.5915Z" fill="#9AA6A5"/>
<path d="M98.5152 81.7085H85.6755C85.5358 81.7203 85.3951 81.703 85.2624 81.6576C85.1298 81.6122 85.0079 81.5398 84.9047 81.4449C84.8015 81.35 84.719 81.2347 84.6626 81.1063C84.6063 80.978 84.5771 80.8393 84.5771 80.699C84.5771 80.5588 84.6063 80.4201 84.6626 80.2917C84.719 80.1633 84.8015 80.048 84.9047 79.9531C85.0079 79.8582 85.1298 79.7858 85.2624 79.7404C85.3951 79.695 85.5358 79.6777 85.6755 79.6895H98.5152C98.7682 79.7109 99.004 79.8265 99.1759 80.0135C99.3477 80.2004 99.443 80.4451 99.443 80.699C99.443 80.953 99.3477 81.1976 99.1759 81.3846C99.004 81.5715 98.7682 81.6872 98.5152 81.7085Z" fill="#9AA6A5"/>
<path d="M68.3378 131.752H31.5216C31.2686 131.731 31.0328 131.615 30.8609 131.429C30.6891 131.242 30.5938 130.997 30.5938 130.743C30.5938 130.489 30.6891 130.244 30.8609 130.057C31.0328 129.87 31.2686 129.755 31.5216 129.733H68.3378C68.5909 129.755 68.8267 129.87 68.9985 130.057C69.1703 130.244 69.2657 130.489 69.2657 130.743C69.2657 130.997 69.1703 131.242 68.9985 131.429C68.8267 131.615 68.5909 131.731 68.3378 131.752Z" fill="#9AA6A5"/>
<path d="M56.7627 126.852H31.5216C31.2686 126.831 31.0328 126.715 30.8609 126.528C30.6891 126.341 30.5938 126.097 30.5938 125.843C30.5938 125.589 30.6891 125.344 30.8609 125.157C31.0328 124.97 31.2686 124.855 31.5216 124.833H56.7627C56.9024 124.822 57.0431 124.839 57.1758 124.884C57.3085 124.93 57.4303 125.002 57.5335 125.097C57.6368 125.192 57.7192 125.307 57.7756 125.435C57.8319 125.564 57.861 125.703 57.861 125.843C57.861 125.983 57.8319 126.122 57.7756 126.25C57.7192 126.379 57.6368 126.494 57.5335 126.589C57.4303 126.684 57.3085 126.756 57.1758 126.801C57.0431 126.847 56.9024 126.864 56.7627 126.852Z" fill="#9AA6A5"/>
<path d="M113.446 131.752H97.4597C97.3199 131.764 97.1793 131.747 97.0466 131.701C96.9139 131.656 96.7921 131.584 96.6889 131.489C96.5856 131.394 96.5032 131.279 96.4468 131.15C96.3904 131.022 96.3613 130.883 96.3613 130.743C96.3613 130.603 96.3904 130.464 96.4468 130.336C96.5032 130.207 96.5856 130.092 96.6889 129.997C96.7921 129.902 96.9139 129.83 97.0466 129.784C97.1793 129.739 97.3199 129.722 97.4597 129.733H113.446C113.699 129.755 113.935 129.87 114.107 130.057C114.279 130.244 114.374 130.489 114.374 130.743C114.374 130.997 114.279 131.241 114.107 131.428C113.935 131.615 113.699 131.731 113.446 131.752Z" fill="#9AA6A5"/>
<path d="M54.6436 112.173H38.9514C37.6448 112.171 36.3922 111.651 35.4682 110.727C34.5443 109.803 34.0244 108.551 34.0225 107.244V91.552C34.0215 90.9042 34.1483 90.2625 34.3956 89.6636C34.6429 89.0648 35.0058 88.5206 35.4636 88.0621C35.9214 87.6036 36.465 87.2399 37.0635 86.9918C37.662 86.7436 38.3035 86.6159 38.9514 86.6159H54.6436C55.9515 86.6159 57.2059 87.135 58.1314 88.0591C59.0569 88.9833 59.5778 90.2369 59.5797 91.5448V107.237C59.5797 108.546 59.0597 109.802 58.134 110.727C57.2083 111.653 55.9527 112.173 54.6436 112.173ZM38.9514 88.6349C38.1852 88.6462 37.4543 88.9586 36.9165 89.5044C36.3787 90.0502 36.0773 90.7858 36.0774 91.552V107.244C36.0792 108.009 36.3814 108.743 36.919 109.287C37.4566 109.832 38.1865 110.143 38.9514 110.154H54.6436C55.416 110.154 56.1569 109.848 56.7038 109.302C57.2506 108.757 57.5588 108.017 57.5607 107.244V91.552C57.5607 90.7784 57.2534 90.0364 56.7063 89.4893C56.1592 88.9422 55.4173 88.6349 54.6436 88.6349H38.9514Z" fill="#9AA6A5"/>
</svg>
